<?xml version="1.0" encoding="utf-8"?>
<!-- Generator: Adobe Illustrator 16.0.0, SVG Export Plug-In . SVG Version: 6.00 Build 0)  -->
<!DOCTYPE svg PUBLIC "-//W3C//DTD SVG 1.0//EN" "http://www.w3.org/TR/2001/REC-SVG-20010904/DTD/svg10.dtd">
<svg version="1.0" id="Layer_1" xmlns="http://www.w3.org/2000/svg" xmlns:xlink="http://www.w3.org/1999/xlink" x="0px" y="0px"
	 width="708.66px" height="708.66px" viewBox="0 0 708.66 708.66" enable-background="new 0 0 708.66 708.66" xml:space="preserve">
<g>
	<path fill="none" stroke="#373431" stroke-width="12" stroke-linecap="round" stroke-linejoin="round" stroke-miterlimit="10" d="
		M655.512,354.318c0,166.332-134.838,301.193-301.17,301.193c-166.331,0-301.193-134.861-301.193-301.193
		S188.011,53.137,354.343,53.137C520.675,53.137,655.512,187.986,655.512,354.318z"/>
	<path fill="none" stroke="#373431" stroke-width="12" stroke-linecap="round" stroke-linejoin="round" stroke-miterlimit="10" d="
		M477.315,321.408v-73.388c0-29.346-23.779-53.149-53.148-53.149c-7.666,0-14.917,1.709-21.509,4.627
		c-17.968-13.953-40.503-22.339-65.015-22.339c-58.715,0-106.297,47.595-106.297,106.286v37.963
		c-16.041,5.688-27.588,20.825-27.588,38.818c0,35.254,17.871,63.769,40.16,64.77c20.508,63.184,62.207,106.494,110.424,106.494
		c48.193,0,89.893-43.311,110.424-106.481c22.266-0.989,40.162-29.528,40.162-64.782
		C504.928,342.233,493.356,327.097,477.315,321.408z"/>
	<path fill="none" stroke="#373431" stroke-width="12" stroke-linecap="round" stroke-linejoin="round" stroke-miterlimit="10" d="
		M477.315,321.408c-29.345,0-53.124-23.791-53.124-53.149h-0.024c-32.837,32.836-78.197,53.149-128.319,53.149l0,0h-64.501h64.501
		l0,0c50.122,0,95.482-20.313,128.319-53.149h0.024C424.191,297.617,447.97,321.408,477.315,321.408z"/>
	<path fill="none" stroke="#373431" stroke-width="12" stroke-linecap="round" stroke-linejoin="round" stroke-miterlimit="10" d="
		M354.343,655.512c56.592,0,109.496-15.648,154.736-42.772l-77.637-32.178c-6.494-2.686-12.354-6.616-17.261-11.499
		c-9.619-9.619-15.552-22.924-15.552-37.598V518.6c-13.77,8.275-28.686,12.891-44.287,12.891c-15.625,0-30.541-4.615-44.286-12.891
		v12.865c0,14.674-5.957,27.979-15.576,37.598c-4.883,4.883-10.742,8.813-17.236,11.499l-77.636,32.153
		C244.823,639.863,297.752,655.512,354.343,655.512z"/>
</g>
</svg>
