<?xml version="1.0" encoding="utf-8"?>
<!-- Generator: Adobe Illustrator 23.0.6, SVG Export Plug-In . SVG Version: 6.00 Build 0)  -->
<svg version="1.1" id="Layer_1" xmlns="http://www.w3.org/2000/svg" xmlns:xlink="http://www.w3.org/1999/xlink" x="0px" y="0px"
	 viewBox="0 0 614.4 614.4" style="enable-background:new 0 0 614.4 614.4;" xml:space="preserve">
<style type="text/css">
	.st0{fill:#373431;stroke:#373431;stroke-width:12;stroke-linecap:round;stroke-linejoin:round;stroke-miterlimit:10;}
	.st1{fill:#FFFFFF;stroke:#373431;stroke-width:12;stroke-linecap:round;stroke-linejoin:round;stroke-miterlimit:10;}
	.st2{fill:#FFFFFF;}
</style>
<g>
	<path class="st0" d="M608.4,307.2c0,166.3-134.8,301.2-301.2,301.2C140.9,608.4,6,473.5,6,307.2S140.9,6,307.2,6
		S608.4,140.8,608.4,307.2z"/>
	<path class="st1" d="M430.2,274.3v-73.4c0-29.3-23.8-53.1-53.1-53.1c-7.7,0-14.9,1.7-21.5,4.6c-18-14-40.5-22.3-65-22.3
		c-58.7,0-106.3,47.6-106.3,106.3v38c-16,5.7-27.6,20.8-27.6,38.8c0,35.3,17.9,63.8,40.2,64.8c20.4,63,62.1,106.4,110.3,106.4
		s89.9-43.3,110.4-106.5c22.3-1,40.2-29.5,40.2-64.8C457.8,295.1,446.2,280,430.2,274.3z"/>
	<path class="st1" d="M430.2,274.3c-29.3,0-53.1-23.8-53.1-53.1l0,0c-32.8,32.8-78.2,53.1-128.3,53.1l0,0h-64.5h64.5l0,0
		c50.1,0,95.5-20.3,128.3-53.1l0,0C377,250.5,400.8,274.3,430.2,274.3z"/>
	<path class="st2" d="M307.2,628.4c56.6,0,129.5-15.6,174.7-42.8l-97.6-52.2c-6.5-2.7-12.4-6.6-17.3-11.5
		c-9.6-9.6-15.6-22.9-15.6-37.6v-2.9c-13.8,8.3-28.7,12.9-44.3,12.9c-15.6,0-30.5-4.6-44.3-12.9v2.9c0,14.7-6,28-15.6,37.6
		c-4.9,4.9-10.7,8.8-17.2,11.5l-97.6,52.2C177.7,612.7,250.6,628.4,307.2,628.4z"/>
</g>
</svg>
