<?xml version="1.0" encoding="utf-8"?>
<!-- Generator: Adobe Illustrator 23.0.6, SVG Export Plug-In . SVG Version: 6.00 Build 0)  -->
<svg version="1.1" id="レイヤー_1" xmlns="http://www.w3.org/2000/svg" xmlns:xlink="http://www.w3.org/1999/xlink" x="0px"
	 y="0px" viewBox="0 0 246.2 84.1" style="enable-background:new 0 0 246.2 84.1;" xml:space="preserve">
<style type="text/css">
	.st0{fill:none;stroke:#000000;stroke-width:3;stroke-linecap:round;stroke-linejoin:round;stroke-miterlimit:10;}
	.st1{fill:#FFF000;stroke:#000000;stroke-width:3;stroke-linecap:round;stroke-linejoin:round;stroke-miterlimit:10;}
	.st2{display:none;fill:none;stroke:#000000;stroke-width:2;stroke-miterlimit:10;}
	.st3{display:none;}
	.st4{display:inline;}
</style>
<g id="派">
	<g>
		<line class="st0" x1="1.5" y1="32.6" x2="8.8" y2="37.6"/>
	</g>
	<line class="st0" x1="1.5" y1="43.9" x2="8.8" y2="48.9"/>
	<line class="st0" x1="1.7" y1="81.6" x2="6.7" y2="59.6"/>
	<line class="st0" x1="55.7" y1="32.6" x2="23.7" y2="32.6"/>
	<line class="st0" x1="12.7" y1="81.6" x2="23.7" y2="32.6"/>
	<line class="st0" x1="55.7" y1="43.6" x2="32.7" y2="43.6"/>
	<line class="st0" x1="24.7" y1="81.6" x2="32.2" y2="44.3"/>
	<polygon class="st1" points="56,55.1 44.1,81.4 30.3,55.1 	"/>
	<path class="st0" d="M12.7,31.6"/>
	<path class="st0" d="M1.9,82"/>
</g>
<g id="遣">
	<line class="st0" x1="86.7" y1="47.1" x2="112.7" y2="47.1"/>
	<line class="st0" x1="88.7" y1="53.1" x2="110.7" y2="53.1"/>
	<line class="st0" x1="111.2" y1="60.6" x2="111.2" y2="52.6"/>
	<line class="st0" x1="111.2" y1="74.6" x2="111.2" y2="66.1"/>
	<line class="st0" x1="88.7" y1="74.1" x2="110.7" y2="74.1"/>
	<line class="st0" x1="88.2" y1="52.6" x2="88.2" y2="74.6"/>
	<path class="st0" d="M72.7,29.6v14V29.6z"/>
	<line class="st2" x1="66.2" y1="46.6" x2="78.2" y2="46.6"/>
	<line class="st2" x1="66.7" y1="65.6" x2="77.2" y2="47.1"/>
	<line class="st2" x1="78.2" y1="65.6" x2="66.7" y2="65.6"/>
	<line class="st2" x1="66.7" y1="82.6" x2="77.2" y2="66.1"/>
	<line class="st0" x1="119.7" y1="81.6" x2="69.7" y2="81.6"/>
	<rect x="88.2" y="34.1" class="st1" width="23.5" height="7.5"/>
	<line class="st0" x1="100.2" y1="29.1" x2="100.2" y2="46.6"/>
	<polyline class="st2" points="68.2,46.1 80.2,46.1 68.2,64.1 	"/>
	<polyline class="st2" points="67.2,64.1 79.2,64.1 67.2,82.1 	"/>
	<polyline class="st0" points="66.2,43.6 78.7,43.6 69.7,60.6 	"/>
	<polyline class="st0" points="69.7,61.6 77.7,61.6 70.7,80.6 	"/>
</g>
<g id="会">
	<polyline class="st0" points="159.1,64.1 152.2,52.1 134.9,82.1 169.5,82.1 164.7,73.7 	"/>
	<polygon class="st1" points="151.7,29.1 125.2,65.1 178.2,65.1 	"/>
	<line class="st0" x1="143.2" y1="53.1" x2="160.2" y2="53.1"/>
</g>
<g id="議">
	<line class="st0" x1="195.7" y1="29.1" x2="195.7" y2="36.6"/>
	<line class="st0" x1="188.2" y1="37.6" x2="204.2" y2="37.6"/>
	<line class="st0" x1="188.2" y1="44.6" x2="204.2" y2="44.6"/>
	<line class="st0" x1="188.2" y1="51.6" x2="204.2" y2="51.6"/>
	<line class="st0" x1="219.7" y1="29.1" x2="219.7" y2="36.6"/>
	<line class="st0" x1="237.7" y1="29.1" x2="237.7" y2="37.6"/>
	<line class="st0" x1="211.7" y1="37.6" x2="244.7" y2="37.6"/>
	<line class="st0" x1="228.7" y1="38.1" x2="228.7" y2="50.6"/>
	<line class="st0" x1="211.7" y1="44.6" x2="244.7" y2="44.6"/>
	<line class="st0" x1="211.7" y1="51.6" x2="244.7" y2="51.6"/>
	<line class="st0" x1="211.7" y1="58.6" x2="225.7" y2="58.6"/>
	<line class="st0" x1="211.7" y1="66.6" x2="244.7" y2="66.6"/>
	<line class="st0" x1="219.7" y1="59.6" x2="219.7" y2="82.6"/>
	<line class="st0" x1="211.7" y1="74.6" x2="225.2" y2="74.6"/>
	<line class="st0" x1="236.7" y1="59.6" x2="236.7" y2="82.6"/>
	<line class="st0" x1="231.7" y1="58.6" x2="244.7" y2="58.6"/>
	<line class="st0" x1="231.7" y1="74.6" x2="244.7" y2="74.6"/>
	<rect x="188.2" y="58.6" class="st1" width="16" height="23.5"/>
	<rect x="88.2" y="60.1" class="st1" width="23" height="7"/>
</g>
<g>
	<path d="M-116.7,142.1c1.2,0.7,2.3,1.4,3.3,2.3c0.1,0.1,0.1,0.1,0.1,0.2c0,0.1-0.1,0.1-0.1,0.3l-1,1.5c-0.1,0.1-0.1,0.1-0.2,0.1
		c0,0-0.1-0.1-0.2-0.1c-0.9-0.9-2-1.8-3.2-2.5c-0.1-0.1-0.2-0.1-0.2-0.2c0-0.1,0.1-0.1,0.2-0.3l0.9-1.2c0.1-0.1,0.2-0.2,0.3-0.2
		C-116.8,142-116.8,142.1-116.7,142.1z M-118.2,155.4c0.4-0.6,0.8-1.3,1-1.9c0.7-1.6,1.4-3.4,1.9-5.4c0.4,0.4,0.9,0.8,1.3,1.1
		c0.3,0.2,0.5,0.4,0.5,0.6c0,0.1,0,0.2-0.1,0.5c-0.5,1.7-1.1,3.4-1.8,5.2c-0.2,0.4-0.3,0.7-0.3,0.9c0,0.2-0.1,0.3-0.2,0.3
		c-0.1,0-0.3-0.1-0.5-0.1C-117,156.1-117.7,155.8-118.2,155.4z M-115.8,136.4c1,0.6,2.1,1.4,3.2,2.4c0.1,0.1,0.1,0.1,0.1,0.2
		s-0.1,0.1-0.1,0.3l-1,1.4c-0.1,0.1-0.2,0.2-0.2,0.2c0,0-0.1,0-0.2-0.1c-1.1-1.1-2.2-2-3.2-2.6c-0.1-0.1-0.2-0.1-0.2-0.1
		c0-0.1,0.1-0.1,0.2-0.3l1.1-1.2c0.1-0.1,0.2-0.2,0.3-0.2C-115.9,136.3-115.9,136.3-115.8,136.4z M-111.5,137.6
		c0.8,0.2,1.6,0.4,2.3,0.8c2.5-0.4,4.8-0.9,7-1.7c0.5-0.2,1-0.4,1.5-0.7c0.6,0.4,1.2,0.9,1.8,1.5c0.2,0.2,0.3,0.3,0.3,0.4
		c0,0.2-0.1,0.2-0.4,0.2c-0.2,0-0.5,0.1-1,0.3c-3.1,1-6.2,1.7-9.1,2.1v2.2c2.8-0.3,5.2-0.9,7.5-1.6c0.6-0.2,1.1-0.4,1.5-0.7
		c0.6,0.4,1.2,0.9,1.7,1.4c0.1,0.1,0.2,0.3,0.2,0.4c0,0.2-0.1,0.3-0.4,0.3c-0.1,0-0.4,0.1-0.9,0.2c-0.8,0.3-1.7,0.5-2.6,0.8
		c0.2,1.2,0.4,2.4,0.7,3.5c0.5-0.4,0.9-0.9,1.3-1.4c0.4-0.4,0.6-0.8,0.8-1.2c0.7,0.4,1.2,0.8,1.6,1.2c0.2,0.2,0.3,0.3,0.3,0.5
		c0,0.1-0.1,0.2-0.3,0.3c-0.2,0.1-0.5,0.4-0.8,0.7c-0.7,0.7-1.4,1.3-2.2,2c0.8,2,1.9,3.8,3.4,5.3c-0.5,0.4-0.9,1-1.2,1.7
		c-0.2,0.3-0.3,0.4-0.4,0.4s-0.2-0.1-0.4-0.3c-1.4-1.8-2.4-3.6-3.2-5.6c-0.7-2-1.2-4.2-1.5-6.6l-1,0.2v9.3l0.1,3.1
		c0,0.1-0.1,0.2-0.2,0.2h-1.8c-0.1,0-0.2,0-0.2-0.1c0,0,0-0.1,0-0.2l0.1-3.1v-8.9c-0.6,0.1-1.3,0.2-1.9,0.3
		c-0.1,2.7-0.3,4.9-0.7,6.7c-0.4,1.7-1.1,3.3-1.9,4.7c-0.2,0.3-0.3,0.5-0.4,0.5c-0.1,0-0.3-0.1-0.5-0.3c-0.5-0.5-1-0.9-1.4-1.1
		c0.9-1.3,1.6-2.9,2.1-4.8c0.4-1.8,0.6-4,0.6-6.6v-2.1C-111.3,140.1-111.4,138.8-111.5,137.6z"/>
	<path d="M-74.1,153.8c-0.3,0.4-0.5,1-0.6,1.6c-0.1,0.4-0.1,0.6-0.2,0.7c-0.1,0.1-0.3,0.1-0.6,0.1c-2.9,0.1-5.5,0.2-8,0.2
		c-2.6,0-4.3-0.2-5.3-0.6c-1.1-0.4-1.9-1.1-2.4-2.1c-0.6,0.6-1.3,1.2-2.2,1.9c-0.2,0.1-0.4,0.3-0.5,0.5c-0.1,0.1-0.2,0.2-0.3,0.2
		c-0.1,0-0.2-0.1-0.3-0.3c-0.2-0.4-0.5-1.1-0.9-2c0.6-0.3,1-0.5,1.3-0.7c0.5-0.4,1.1-0.8,1.8-1.5v-5.1h-1l-1.6,0.1
		c-0.1,0-0.2,0-0.2-0.1c0,0-0.1-0.1-0.1-0.2v-1.7c0-0.1,0-0.2,0.1-0.2c0,0,0.1,0,0.2,0l1.6,0.1h1.3l1.7-0.1c0.1,0,0.2,0,0.2,0.1
		c0,0,0,0.1,0,0.2l-0.1,2.2v5c0.4,0.9,1.1,1.5,2,1.9c0.8,0.3,2.2,0.5,4.3,0.5C-80.8,154.3-77.5,154.2-74.1,153.8z M-94.7,138
		c-0.1-0.1-0.1-0.1-0.1-0.2c0-0.1,0.1-0.1,0.2-0.2l1.2-0.8c0.1-0.1,0.2-0.1,0.3-0.1s0.1,0,0.2,0.1c1.1,1.1,2.1,2.2,2.9,3.4
		c0,0.1,0.1,0.1,0.1,0.2c0,0.1-0.1,0.1-0.2,0.2l-1.2,1c-0.1,0.1-0.2,0.1-0.3,0.1s-0.1-0.1-0.2-0.1C-92.7,140.2-93.6,139-94.7,138z
		 M-86.3,143.9l-3.1,0.1c-0.1,0-0.2,0-0.2-0.1c0,0,0-0.1,0-0.2v-1.3c0-0.1,0-0.2,0.1-0.2c0,0,0.1,0,0.2,0l3.1,0.1h2.8v-0.9h-1.8
		l-3,0.1c-0.1,0-0.2,0-0.2-0.1c0,0,0-0.1,0-0.2l0-1.2v-1l0-1.2c0-0.1,0-0.2,0-0.2c0,0,0.1,0,0.2,0l3,0.1h1.8c0-0.6-0.1-1.1-0.1-1.4
		c0.8,0,1.6,0.1,2.2,0.1c0.2,0,0.3,0.1,0.3,0.2l-0.1,0.4c-0.1,0.2-0.1,0.4-0.1,0.7h1.9l3-0.1c0.1,0,0.2,0,0.2,0.1c0,0,0,0.1,0,0.2
		l0,1.2v1l0,1.2c0,0.1,0,0.2,0,0.2c0,0-0.1,0-0.2,0l-3-0.1h-1.9v0.9h3.1l3.2-0.1c0.1,0,0.2,0,0.2,0.1c0,0,0,0.1,0,0.2v1.3
		c0,0.1,0,0.2-0.1,0.2c0,0-0.1,0-0.2,0l-3.2-0.1L-86.3,143.9L-86.3,143.9z M-79.5,149.3l2.9-0.1c0.1,0,0.2,0,0.2,0.1
		c0,0,0,0.1,0,0.2l0,1.3v0.8l0,1.3c0,0.1,0,0.2,0,0.2c0,0-0.1,0-0.2,0l-2.9-0.1h-5l-3.2,0.1c-0.1,0-0.2,0-0.2-0.1c0,0,0-0.1,0-0.2
		l0.1-2.4v-3.1l-0.1-2.4c0-0.1,0-0.2,0.1-0.2c0,0,0.1,0,0.2,0l3.1,0.1h4.6l2.8-0.1c0.1,0,0.2,0,0.2,0.1c0,0,0,0.1,0,0.2l-0.1,1.2
		v0.7l0.1,1.2c0,0.1,0,0.2,0,0.2c0,0-0.1,0.1-0.2,0.1l-2.8-0.1h-5.6v1H-79.5L-79.5,149.3L-79.5,149.3z M-86.3,139.8h2.8v-1.1h-2.8
		V139.8z M-79.3,147v-0.9h-6.3v0.9H-79.3z M-78.6,151.6v-1h-7v1H-78.6z M-78.5,139.8v-1.1h-2.9v1.1H-78.5z"/>
	<path d="M-51.3,143.6c-0.4,0.5-0.7,1.1-1,1.7c-0.2,0.4-0.3,0.6-0.4,0.6c-0.1,0-0.3-0.1-0.5-0.2c-1.7-0.7-3.1-1.5-4.3-2.4v1.7
		c0,0.1,0,0.2,0,0.2s-0.1,0-0.2,0l-2.6-0.1h-3.5l-2.6,0.1c-0.1,0-0.2,0-0.2-0.1c0,0,0-0.1,0-0.2v-1.7c-1.2,0.9-2.6,1.7-4.1,2.4
		c-0.3,0.1-0.5,0.2-0.5,0.2c-0.1,0-0.2-0.2-0.4-0.6c-0.3-0.6-0.6-1.1-1-1.5c3.8-1.5,6.7-3.7,8.7-6.6c0.3-0.5,0.6-1,0.8-1.5
		c0.9,0.1,1.8,0.3,2.5,0.5c0.3,0.1,0.4,0.2,0.4,0.3s-0.1,0.3-0.2,0.4c-0.1,0.1-0.2,0.1-0.3,0.2C-58.6,140-55.4,142.2-51.3,143.6z
		 M-68.2,149.4l-3,0.1c-0.1,0-0.2,0-0.2-0.1c0,0,0-0.1,0-0.2v-1.7c0-0.1,0-0.2,0.1-0.2c0,0,0.1,0,0.2,0l3,0.1H-56l3-0.1
		c0.1,0,0.2,0,0.2,0.1c0,0,0,0.1,0,0.2v1.7c0,0.1,0,0.2,0,0.2c0,0-0.1,0-0.2,0l-3-0.1h-7c-0.6,1.4-1.2,2.8-2,4.3
		c2.4-0.1,4.7-0.3,7-0.6c-0.7-0.9-1.3-1.5-1.7-1.9c-0.1-0.1-0.1-0.1-0.1-0.2c0-0.1,0.1-0.1,0.2-0.2l1.5-0.8c0.1-0.1,0.2-0.1,0.2-0.1
		c0.1,0,0.1,0.1,0.2,0.1c1.4,1.5,2.8,3.3,4.2,5.3c0.1,0.1,0.1,0.1,0.1,0.2c0,0.1-0.1,0.1-0.2,0.2l-1.6,1c-0.1,0.1-0.2,0.1-0.3,0.1
		c-0.1,0-0.1-0.1-0.2-0.1c-0.3-0.5-0.7-1.1-1.1-1.8c-3,0.4-7,0.8-12.3,1.1c-0.4,0-0.6,0.1-0.8,0.2c-0.1,0.1-0.2,0.1-0.4,0.1
		c-0.2,0-0.3-0.1-0.3-0.3c-0.1-0.5-0.3-1.3-0.5-2.3c0.3,0,0.7,0.1,1.1,0.1c0.4,0,0.8,0,1.4-0.1l0.7,0c0.8-1.5,1.5-3,2-4.4
		L-68.2,149.4L-68.2,149.4L-68.2,149.4z M-66.4,143c0.3,0,1.1,0.1,2.5,0.1h3.5c1.3,0,2.1,0,2.5-0.1c-1.6-1.2-3.1-2.6-4.3-4.2
		C-63.5,140.4-64.8,141.8-66.4,143z"/>
	<path d="M-47.3,140h1.7l2.4-0.1c0.1,0,0.2,0,0.2,0.1c0,0,0,0.1,0,0.2v1.6c0,0.1,0,0.2-0.1,0.2c0,0-0.1,0-0.2,0l-2.4-0.1h-1.7
		l-2.4,0.1c-0.1,0-0.2,0-0.2-0.1c0,0,0-0.1,0-0.2v-1.6c0-0.1,0-0.2,0.1-0.2s0.1,0,0.2,0L-47.3,140z M-43.4,156.2
		c0,0.1,0,0.2-0.1,0.2s-0.1,0-0.2,0h-1.5c-0.1,0-0.2,0-0.2-0.1c0,0,0-0.1,0-0.2v-0.5h-1.7v0.9c0,0.1,0,0.2-0.1,0.2c0,0-0.1,0-0.2,0
		H-49c-0.1,0-0.2,0-0.2-0.1c0,0,0-0.1,0-0.2l0.1-3.4v-1.5l0-2.1c0-0.1,0-0.2,0.1-0.2c0,0,0.1,0,0.2,0l2.1,0.1h1.1l2.1-0.1
		c0.1,0,0.2,0,0.2,0.1c0,0,0,0.1,0,0.2l-0.1,1.8v1.6L-43.4,156.2z M-46.9,136.9h1.2l2.1-0.1c0.1,0,0.2,0,0.2,0.1c0,0,0,0.1,0,0.2
		v1.5c0,0.1,0,0.2-0.1,0.2c0,0-0.1,0-0.2,0l-2.1-0.1h-1.2l-2.1,0.1c-0.1,0-0.2,0-0.2-0.1c0,0,0-0.1,0-0.2v-1.5c0-0.1,0-0.2,0.1-0.2
		s0.1,0,0.2,0L-46.9,136.9z M-46.8,143.2h0.9l1.9-0.1c0.1,0,0.2,0,0.2,0.1c0,0,0,0.1,0,0.2v1.5c0,0.1,0,0.2-0.1,0.2s-0.1,0-0.2,0
		l-1.9-0.1h-0.9l-1.9,0.1c-0.1,0-0.2,0-0.2-0.1c0,0,0-0.1,0-0.2v-1.5c0-0.1,0-0.2,0.1-0.2s0.1,0,0.2,0L-46.8,143.2z M-46.8,146.3
		h0.9l1.9-0.1c0.1,0,0.2,0,0.2,0.1c0,0,0,0.1,0,0.2v1.5c0,0.1,0,0.2-0.1,0.2s-0.1,0-0.2,0l-1.9-0.1h-0.9l-1.9,0.1
		c-0.1,0-0.2,0-0.2-0.1c0,0,0-0.1,0-0.2v-1.5c0-0.1,0-0.2,0.1-0.2c0,0,0.1,0,0.2,0L-46.8,146.3z M-45.4,151.3h-1.7v2.5h1.7V151.3z
		 M-37.8,154.9c1.3-0.4,2.4-0.9,3.5-1.7c-0.5-1-0.8-2.1-0.9-3.4l-2.7,0.1v1.1l2-0.4c-0.1,0.1-0.1,0.6-0.2,1.3c0,0.2,0,0.4-0.1,0.4
		c0,0.1-0.1,0.1-0.3,0.1l-1.4,0.3c0,0.1,0,0.4,0,0.6c0,0.5,0.1,0.9,0.1,1.2c0,1-0.2,1.6-0.6,1.9c-0.4,0.3-1.2,0.4-2.3,0.4
		c-0.2,0-0.2,0-0.3,0c-0.2,0-0.4-0.1-0.4-0.1c-0.1-0.1-0.1-0.3-0.1-0.5c-0.1-0.5-0.3-0.9-0.4-1.2c0.5,0.1,1,0.1,1.5,0.1
		c0.3,0,0.5-0.1,0.7-0.2c0.1-0.1,0.1-0.3,0.1-0.6V153l-1.5,0.2c-0.4,0.1-0.7,0.1-0.8,0.2c-0.2,0.1-0.3,0.1-0.3,0.1
		c-0.1,0-0.2-0.1-0.3-0.3c-0.1-0.5-0.2-1.1-0.3-1.7c0.6,0,1.2,0,1.8-0.1c0.6-0.1,1.1-0.1,1.4-0.1v-1.3c-0.7,0-1.4,0-2,0.1
		c-0.4,0-0.7,0-0.7,0c-0.2,0-0.2-0.1-0.2-0.2l0-1.2c0-0.1,0-0.2,0.1-0.2c0,0,0.1,0,0.2,0l1.2,0c0.4,0,0.9,0,1.4,0v-0.9l-1.4,0.2
		c-0.2,0-0.3,0-0.3,0c-0.1,0-0.2-0.1-0.3-0.4c-0.2-0.5-0.3-0.8-0.5-1.1c1.5-0.1,2.9-0.4,4.1-0.7c0.4-0.1,0.7-0.2,0.9-0.4
		c0.3,0.2,0.7,0.6,1.1,1c0.1,0.1,0.1,0.2,0.1,0.3c0,0.1-0.1,0.2-0.3,0.2c-0.2,0-0.4,0.1-0.7,0.1c-0.4,0.1-0.7,0.2-0.8,0.3v1.3l2.5,0
		l-0.1-1.5c0-0.6-0.1-1.1-0.2-1.5c0.6,0,1.2,0.1,1.8,0.1c0.3,0.1,0.5,0.1,0.5,0.3c0,0,0,0.2-0.1,0.4c-0.1,0.1-0.1,0.3-0.1,0.6v0.4
		c0,0.3,0,0.6,0.1,1.1l1.2,0c0.8,0,1.6-0.1,2.3-0.1c0.5,0,0.7,0,0.8,0c0.1,0,0.2,0,0.2,0.1c0,0,0,0.1,0,0.2l0,1.2
		c0,0.1-0.1,0.2-0.2,0.2c-0.7,0-1.7,0-3.1,0l-1,0c0.1,0.7,0.3,1.4,0.5,2c0.2-0.1,0.3-0.4,0.5-0.6c0.2-0.3,0.5-0.7,0.7-1.1
		c0.5,0.2,0.9,0.5,1.3,0.8c0.2,0.1,0.3,0.3,0.3,0.4c0,0.1-0.1,0.2-0.3,0.3c0,0-0.3,0.2-0.7,0.7c-0.5,0.6-0.8,1-1.1,1.2
		c0.5,0.8,0.9,1.2,1.3,1.2c0.3,0,0.6-0.7,0.7-2.1c0.3,0.2,0.5,0.4,0.9,0.6c0.3,0.2,0.5,0.4,0.5,0.6c0,0.1,0,0.2-0.1,0.4
		c-0.2,0.9-0.4,1.6-0.8,1.9c-0.3,0.3-0.7,0.5-1.2,0.5c-1.1,0-2.1-0.6-2.9-1.9c-0.8,0.6-1.7,1.1-2.6,1.5c-0.3,0.1-0.5,0.2-0.5,0.2
		c-0.1,0-0.3-0.2-0.5-0.5C-37.3,155.5-37.5,155.2-37.8,154.9z M-39.3,144.8l-3.1,0.1c-0.2,0-0.2-0.1-0.2-0.2v-1.2
		c0-0.2,0.1-0.2,0.2-0.2l3.1,0.1h2.1v-1h-1.1l-2.8,0.1c-0.1,0-0.2,0-0.2-0.1c0,0,0-0.1,0-0.2v-1.1c0-0.1,0-0.2,0.1-0.2
		c0,0,0.1,0,0.2,0l2.8,0.1h1.1v-1h-1.5l-3,0.1c-0.1,0-0.2,0-0.2-0.1c0,0,0-0.1,0-0.2v-1.2c0-0.1,0-0.2,0.1-0.2s0.1,0,0.2,0l2.5,0.1
		c-0.3-0.5-0.6-1-0.9-1.4c-0.1-0.1-0.1-0.1-0.1-0.1c0-0.1,0.1-0.1,0.3-0.2l1.2-0.3c0.1,0,0.2-0.1,0.2-0.1c0.1,0,0.1,0.1,0.2,0.1
		c0.5,0.7,0.9,1.3,1.2,2h1.9c0.3-0.4,0.5-0.8,0.7-1.2c0.2-0.3,0.3-0.6,0.3-1c0.8,0.1,1.5,0.3,2,0.4c0.2,0.1,0.3,0.1,0.3,0.2
		c0,0.1-0.1,0.2-0.2,0.3c-0.1,0.1-0.3,0.2-0.4,0.4l-0.6,0.8h0.1l3-0.1c0.1,0,0.2,0,0.2,0.1c0,0,0,0.1,0,0.2v1.2c0,0.1,0,0.2-0.1,0.2
		s-0.1,0-0.2,0l-3-0.1h-2.3v1h1.5l2.8-0.1c0.2,0,0.3,0.1,0.3,0.2v1.1c0,0.1,0,0.2-0.1,0.2s-0.1,0-0.2,0l-2.8-0.1h-1.5v1h2.7l3.1-0.1
		c0.1,0,0.2,0,0.2,0.1c0,0,0,0.1,0,0.2v1.2c0,0.1,0,0.2,0,0.2s-0.1,0-0.2,0l-3.1-0.1L-39.3,144.8C-39.4,144.9-39.4,144.8-39.3,144.8
		z M-31.5,145.2c0.6,0.4,1.2,0.9,1.7,1.5c0.1,0.1,0.1,0.1,0.1,0.2c0,0.1-0.1,0.1-0.2,0.2l-1,0.7c-0.1,0.1-0.2,0.1-0.2,0.1
		c0,0-0.1-0.1-0.2-0.1c-0.5-0.6-1-1.1-1.6-1.6c-0.1-0.1-0.1-0.1-0.1-0.2s0.1-0.1,0.2-0.2l0.8-0.5c0.1-0.1,0.2-0.1,0.3-0.1
		C-31.7,145.2-31.6,145.2-31.5,145.2z"/>
	<path d="M-24,137.3c1.3,0.3,2.1,0.6,2.6,0.8c0.2,0.1,0.3,0.3,0.3,0.5c0,0.1-0.1,0.3-0.2,0.5c-0.1,0.2-0.3,0.6-0.4,1.3
		c-0.8,3.5-1.1,6.2-1.1,8.3c0,1.3,0,2.3,0.1,2.9c0.1-0.3,0.3-0.8,0.8-1.7c0.3-0.6,0.5-1.1,0.7-1.5c0.3,0.6,0.5,1.1,0.8,1.4
		c0.1,0.1,0.1,0.2,0.1,0.3s-0.1,0.2-0.1,0.4c-0.7,1.5-1.1,2.6-1.2,3.4c0,0.3-0.1,0.5-0.1,0.7c0,0.1,0,0.3,0,0.5c0,0,0,0,0,0.1
		c0,0.1-0.1,0.2-0.3,0.2c-0.4,0.1-1,0.3-1.7,0.4c-0.1,0-0.1,0-0.2,0c-0.1,0-0.2-0.1-0.3-0.3c-0.7-1.7-1-4-1-6.9
		c0-1.9,0.3-4.8,0.9-8.6c0.1-0.9,0.2-1.6,0.2-2.1C-23.9,137.7-23.9,137.5-24,137.3z M-13.4,149.4c0-1.3-0.1-3-0.1-5.2
		c-1.1,0-1.9,0.1-2.5,0.1c-0.8,0-1.5,0-2.2-0.1c-0.3,0-0.4-0.1-0.4-0.3c-0.1-0.6-0.2-1.3-0.2-2.1c1,0.1,2,0.1,3,0.1
		c0.7,0,1.4,0,2.2-0.1l0-2.4c0-0.8-0.1-1.5-0.3-2.2c1.2,0.1,2.2,0.2,2.8,0.4c0.3,0.1,0.4,0.2,0.4,0.4c0,0.1-0.1,0.2-0.1,0.4
		c-0.1,0.2-0.2,0.5-0.2,0.8c0,0.5-0.1,1.3-0.1,2.4c1-0.1,2.1-0.2,3.2-0.4c0.1,0,0.1,0,0.1,0c0.1,0,0.2,0.1,0.2,0.3
		c0.1,0.4,0.1,1,0.1,1.6c0,0.2-0.1,0.3-0.3,0.3c-0.8,0.2-2,0.4-3.5,0.5c0,2.2,0.1,4.3,0.2,6.1c1.4,0.6,2.6,1.3,3.8,2.2
		c0.1,0.1,0.2,0.2,0.2,0.2c0,0.1,0,0.1-0.1,0.2c-0.3,0.7-0.7,1.3-1.1,1.8c-0.1,0.1-0.1,0.1-0.2,0.1c-0.1,0-0.1,0-0.2-0.1
		c-0.7-0.7-1.5-1.3-2.4-1.8c-0.2,2-1.6,3-4.2,3c-1.4,0-2.4-0.3-3.2-1c-0.6-0.6-0.9-1.3-0.9-2.2c0-1,0.4-1.8,1.3-2.4
		c0.7-0.5,1.6-0.8,2.7-0.8C-14.6,149.2-14,149.3-13.4,149.4z M-13.4,151.6c-0.6-0.2-1.3-0.3-2-0.3c-1.1,0-1.7,0.4-1.7,1.1
		c0,0.8,0.6,1.1,1.8,1.1c0.6,0,1.1-0.2,1.4-0.5c0.3-0.3,0.4-0.6,0.4-1C-13.4,151.8-13.4,151.7-13.4,151.6z"/>
	<path d="M-2.7,150.9c0.1,0,0.2,0.1,0.3,0.1c1.7,1.1,3.2,2.4,4.5,4.2c0.1,0.1,0.2,0.3,0.2,0.3c0,0.1-0.1,0.2-0.2,0.4l-1.4,1.2
		c-0.2,0.1-0.3,0.2-0.3,0.2c-0.1,0-0.2-0.1-0.3-0.2c-1.2-1.8-2.7-3.3-4.3-4.4c-0.1-0.1-0.2-0.2-0.2-0.2c0-0.1,0.1-0.1,0.2-0.3
		l1.3-1.1C-2.9,151-2.8,150.9-2.7,150.9z"/>
	<path d="M8.6,142.1c1.2,0.7,2.3,1.4,3.3,2.3c0.1,0.1,0.1,0.1,0.1,0.2c0,0.1-0.1,0.1-0.1,0.3l-1,1.5c-0.1,0.1-0.1,0.1-0.2,0.1
		s-0.1-0.1-0.2-0.1c-0.9-0.9-2-1.8-3.2-2.5c-0.1-0.1-0.2-0.1-0.2-0.1c0-0.1,0.1-0.1,0.2-0.3l0.9-1.2c0.1-0.1,0.2-0.2,0.3-0.2
		C8.4,142,8.5,142.1,8.6,142.1z M7.1,155.4c0.4-0.6,0.8-1.3,1.1-1.9c0.7-1.6,1.3-3.4,1.9-5.4c0.4,0.4,0.9,0.8,1.3,1.1
		c0.3,0.2,0.5,0.4,0.5,0.6c0,0.1,0,0.2-0.1,0.5c-0.5,1.7-1.1,3.4-1.8,5.2c-0.1,0.4-0.3,0.7-0.3,0.9c0,0.2-0.1,0.3-0.2,0.3
		c-0.1,0-0.3-0.1-0.5-0.1C8.2,156.1,7.6,155.8,7.1,155.4z M9.5,136.4c1.1,0.6,2.1,1.4,3.1,2.4c0.1,0.1,0.1,0.1,0.1,0.2
		s-0.1,0.1-0.1,0.3l-1,1.4c-0.1,0.1-0.2,0.2-0.2,0.2c0,0-0.1,0-0.2-0.1c-1.1-1.1-2.2-2-3.2-2.6c-0.1-0.1-0.2-0.1-0.2-0.1
		c0-0.1,0.1-0.1,0.2-0.3l1.1-1.2c0.1-0.1,0.2-0.2,0.3-0.2C9.3,136.3,9.4,136.3,9.5,136.4z M13.8,137.6c0.8,0.2,1.6,0.4,2.3,0.8
		c2.5-0.4,4.8-0.9,7-1.7c0.5-0.2,1-0.4,1.5-0.7c0.6,0.4,1.2,0.9,1.8,1.5c0.2,0.2,0.3,0.3,0.3,0.4c0,0.2-0.1,0.2-0.4,0.2
		c-0.2,0-0.5,0.1-1,0.3c-3.1,1-6.2,1.7-9.1,2.1v2.2c2.8-0.3,5.2-0.9,7.5-1.6c0.6-0.2,1.1-0.4,1.5-0.7c0.6,0.4,1.1,0.9,1.7,1.4
		c0.1,0.1,0.2,0.3,0.2,0.4c0,0.2-0.1,0.3-0.4,0.3c-0.1,0-0.4,0.1-0.9,0.2c-0.8,0.3-1.7,0.5-2.6,0.8c0.1,1.2,0.4,2.4,0.7,3.5
		c0.5-0.4,0.9-0.9,1.3-1.4c0.4-0.4,0.6-0.8,0.8-1.2c0.7,0.4,1.2,0.8,1.6,1.2c0.2,0.2,0.3,0.3,0.3,0.5c0,0.1-0.1,0.2-0.3,0.3
		c-0.2,0.1-0.5,0.4-0.8,0.7c-0.7,0.7-1.4,1.3-2.2,2c0.8,2,1.9,3.8,3.4,5.3c-0.5,0.4-0.9,1-1.2,1.7c-0.1,0.3-0.3,0.4-0.4,0.4
		s-0.2-0.1-0.4-0.3c-1.4-1.8-2.4-3.6-3.1-5.6c-0.7-2-1.2-4.2-1.5-6.6l-1,0.2v9.3l0.1,3.1c0,0.1-0.1,0.2-0.2,0.2h-1.8
		c-0.1,0-0.2,0-0.2-0.1c0,0,0-0.1,0-0.2l0.1-3.1v-8.9c-0.6,0.1-1.3,0.2-1.9,0.3c-0.1,2.7-0.3,4.9-0.7,6.7c-0.4,1.7-1.1,3.3-1.9,4.7
		c-0.2,0.3-0.3,0.4-0.4,0.4s-0.3-0.1-0.5-0.3c-0.5-0.5-1-0.9-1.4-1.1c0.9-1.3,1.6-2.9,2.1-4.8c0.4-1.8,0.6-4,0.6-6.6v-2.1
		C14,140.1,13.9,138.8,13.8,137.6z"/>
	<path d="M51.2,153.8c-0.3,0.4-0.5,1-0.6,1.6c-0.1,0.4-0.1,0.6-0.2,0.7c-0.1,0.1-0.3,0.1-0.6,0.1c-2.9,0.1-5.5,0.2-8,0.2
		c-2.6,0-4.4-0.2-5.3-0.6c-1.1-0.4-1.9-1.1-2.4-2.1c-0.6,0.6-1.3,1.2-2.2,1.9c-0.2,0.1-0.4,0.3-0.5,0.5c-0.1,0.1-0.2,0.2-0.3,0.2
		c-0.1,0-0.2-0.1-0.3-0.3c-0.2-0.4-0.5-1.1-0.9-2c0.6-0.3,1-0.5,1.3-0.7c0.5-0.4,1.1-0.8,1.8-1.5v-5.1h-1l-1.6,0.1
		c-0.1,0-0.2,0-0.2-0.1c0,0-0.1-0.1-0.1-0.2v-1.7c0-0.1,0-0.2,0.1-0.2c0,0,0.1,0,0.2,0l1.6,0.1h1.3l1.7-0.1c0.1,0,0.2,0,0.2,0.1
		c0,0,0,0.1,0,0.2l-0.1,2.2v5c0.4,0.9,1.1,1.5,2,1.9c0.8,0.3,2.2,0.5,4.3,0.5C44.5,154.3,47.8,154.2,51.2,153.8z M30.6,138
		c-0.1-0.1-0.1-0.1-0.1-0.2c0-0.1,0.1-0.1,0.2-0.2l1.2-0.8c0.1-0.1,0.2-0.1,0.3-0.1s0.1,0,0.2,0.1c1.1,1.1,2.1,2.2,2.9,3.4
		c0.1,0.1,0.1,0.1,0.1,0.2c0,0.1-0.1,0.1-0.2,0.2l-1.2,1c-0.1,0.1-0.2,0.1-0.3,0.1s-0.1-0.1-0.2-0.1C32.6,140.2,31.7,139,30.6,138z
		 M38.9,143.9l-3.1,0.1c-0.1,0-0.2,0-0.2-0.1c0,0,0-0.1,0-0.2v-1.3c0-0.1,0-0.2,0.1-0.2c0,0,0.1,0,0.2,0l3.1,0.1h2.8v-0.9H40l-3,0.1
		c-0.1,0-0.2,0-0.2-0.1c0,0,0-0.1,0-0.2l0-1.2v-1l0-1.2c0-0.1,0-0.2,0.1-0.2s0.1,0,0.2,0l3,0.1h1.8c0-0.6-0.1-1.1-0.1-1.4
		c0.8,0,1.6,0.1,2.2,0.1c0.2,0,0.3,0.1,0.3,0.2l-0.1,0.3c-0.1,0.2-0.1,0.4-0.1,0.7h1.9l3-0.1c0.1,0,0.2,0,0.2,0.1c0,0,0,0.1,0,0.2
		l-0.1,1.2v1l0.1,1.2c0,0.1,0,0.2-0.1,0.2c0,0-0.1,0-0.2,0l-3-0.1h-1.9v0.9H47l3.2-0.1c0.1,0,0.2,0,0.2,0.1c0,0,0,0.1,0,0.2v1.3
		c0,0.1,0,0.2-0.1,0.2c0,0-0.1,0-0.2,0l-3.2-0.1L38.9,143.9L38.9,143.9L38.9,143.9z M45.8,149.3l2.9-0.1c0.1,0,0.2,0,0.2,0.1
		c0,0,0.1,0.1,0.1,0.2l-0.1,1.3v0.8l0.1,1.3c0,0.1,0,0.2-0.1,0.2c0,0-0.1,0-0.2,0l-2.9-0.1h-5l-3.2,0.1c-0.1,0-0.2,0-0.2-0.1
		c0,0,0-0.1,0-0.2l0.1-2.4v-3.1l-0.1-2.4c0-0.1,0-0.2,0.1-0.2s0.1,0,0.2,0l3.1,0.1h4.6l2.8-0.1c0.1,0,0.2,0,0.2,0.1c0,0,0,0.1,0,0.2
		l-0.1,1.2v0.7l0.1,1.2c0,0.1,0,0.2,0,0.2s-0.1,0.1-0.2,0.1l-2.8-0.1h-5.6v1H45.8L45.8,149.3z M39,139.8h2.8v-1.1H39V139.8z
		 M45.9,147v-0.9h-6.3v0.9H45.9z M46.7,151.6v-1h-7v1H46.7z M46.8,139.8v-1.1h-2.9v1.1H46.8z"/>
	<path d="M54.2,138.5c1.4,0.1,3,0.1,4.6,0.1h9.8c0.8,0,1.4-0.1,1.6-0.1c0.3-0.1,0.4-0.2,0.4-0.2c0.2,0,0.3,0.1,0.5,0.3
		c0.4,0.4,0.9,0.8,1.4,1.4c0.1,0.1,0.2,0.3,0.2,0.4c0,0.2-0.1,0.3-0.3,0.5c-0.2,0.1-0.4,0.4-0.6,0.7c-1.1,1.7-2.5,3.2-4,4.4
		c-0.1,0.1-0.3,0.2-0.5,0.2c-0.2,0-0.4-0.1-0.6-0.2c-0.5-0.4-1.1-0.7-1.9-0.9c1.1-0.8,1.9-1.5,2.4-2c0.6-0.6,1.1-1.2,1.7-2H59
		c-0.9,0-2.3,0.1-4,0.2c-0.2,0-0.4-0.1-0.4-0.3C54.5,140.6,54.3,139.8,54.2,138.5z M55.5,154.4c1.3-0.7,2.3-1.4,3.1-2.1
		c0.6-0.6,1.2-1.4,1.7-2.2c0.8-1.4,1.1-3.2,1.1-5.4c0-0.8-0.1-1.5-0.2-2.1c1.4,0.1,2.3,0.3,2.9,0.4c0.3,0.1,0.4,0.2,0.4,0.4
		c0,0.1,0,0.3-0.1,0.4c-0.1,0.2-0.2,0.5-0.2,0.9c-0.1,2.6-0.5,4.7-1.3,6.3c-1,1.9-2.4,3.4-4.1,4.5c-0.2,0.1-0.4,0.2-0.6,0.2
		c-0.2,0-0.3-0.1-0.5-0.2C57.1,155.1,56.4,154.7,55.5,154.4z"/>
	<path d="M80.2,140.1c1.5,0.2,2.4,0.3,2.9,0.5c0.2,0.1,0.4,0.2,0.4,0.4c0,0.1,0,0.2-0.1,0.3c-0.2,0.4-0.3,0.9-0.3,1.5
		c-0.1,2.7-0.5,5-1.2,6.7c-0.7,1.6-1.8,3-3.2,4.3c-0.2,0.2-0.4,0.3-0.6,0.3c-0.1,0-0.3-0.1-0.4-0.2c-0.5-0.4-1.2-0.7-1.9-1
		c1.8-1.4,3-2.9,3.8-4.5c0.4-0.9,0.6-1.8,0.7-2.6c0.1-0.9,0.2-2.2,0.2-3.8C80.5,141.3,80.4,140.7,80.2,140.1z M88.2,150.3
		c1-0.5,2.1-1.3,3.2-2.1c1.6-1.2,2.9-2.5,4-3.9c0.1,0.8,0.3,1.6,0.7,2.3c0.1,0.2,0.1,0.3,0.1,0.4c0,0.1-0.1,0.3-0.3,0.6
		c-1.1,1.1-2.2,2.1-3.4,3c-1.3,1-2.7,1.9-4.1,2.7c-0.2,0.1-0.4,0.3-0.7,0.5c-0.1,0.1-0.3,0.2-0.5,0.2c-0.1,0-0.3-0.1-0.5-0.2
		c-0.4-0.3-0.9-0.8-1.4-1.4c-0.1-0.2-0.2-0.4-0.2-0.5s0-0.2,0.1-0.3c0.1-0.2,0.1-0.8,0.1-1.7v-7.1c0-1.9-0.1-3.3-0.2-4
		c1.4,0.2,2.4,0.3,2.9,0.5c0.3,0.1,0.4,0.2,0.4,0.4c0,0.1-0.1,0.3-0.2,0.6c-0.1,0.3-0.2,1.1-0.2,2.5L88.2,150.3L88.2,150.3
		L88.2,150.3z"/>
	<path d="M98.2,151.4c2.1-1.9,3.8-4.1,4.9-6.8c0.6-1.4,1-2.5,1-3.4c1.3,0.5,2.2,0.8,2.8,1.1c0.2,0.1,0.3,0.2,0.3,0.4
		c0,0.1-0.1,0.3-0.2,0.5c-0.2,0.2-0.5,0.7-0.8,1.4c-1.4,3.2-3,5.7-4.9,7.7c-0.2,0.2-0.4,0.3-0.6,0.3c-0.2,0-0.3-0.1-0.5-0.2
		C99.7,152,99.1,151.7,98.2,151.4z M109.9,142.8c0.3-0.2,0.6-0.4,1.1-0.8c0.3-0.2,0.6-0.4,0.7-0.5c0.1-0.1,0.2-0.1,0.3-0.1
		c0.1,0,0.2,0.1,0.3,0.2c2.4,2.4,4.3,5.1,5.7,8.4c0.1,0.1,0.1,0.2,0.1,0.3c0,0.1-0.1,0.3-0.2,0.4c-0.5,0.4-1.1,0.8-1.9,1.2
		c-0.1,0.1-0.2,0.1-0.3,0.1c-0.1,0-0.2-0.1-0.3-0.3C113.9,148,112,145,109.9,142.8z M113.2,139.7l1.2-0.9c0.1,0,0.1-0.1,0.1-0.1
		c0.1,0,0.1,0,0.2,0.1c0.8,0.6,1.5,1.4,2.2,2.4c0.1,0.1,0.1,0.1,0.1,0.2c0,0.1-0.1,0.1-0.1,0.2l-1,0.7c-0.1,0.1-0.1,0.1-0.2,0.1
		c-0.1,0-0.1-0.1-0.2-0.1C114.7,141.2,114,140.3,113.2,139.7z M115.3,138.1l1.1-0.8c0.1,0,0.1-0.1,0.1-0.1c0.1,0,0.1,0,0.2,0.1
		c0.9,0.7,1.6,1.5,2.2,2.3c0.1,0.1,0.1,0.1,0.1,0.2c0,0.1-0.1,0.1-0.1,0.2l-0.9,0.7c-0.1,0.1-0.1,0.1-0.2,0.1
		c-0.1,0-0.1-0.1-0.2-0.1C116.9,139.8,116.1,138.9,115.3,138.1z"/>
	<path d="M134,143.3v7.5c0,1.3,0,2.9,0.1,4.7c0,0,0,0.1,0,0.1c0,0.2-0.1,0.3-0.3,0.3c-0.4,0-0.8,0-1.1,0c-0.4,0-0.8,0-1.1,0
		c-0.2,0-0.3-0.1-0.3-0.3c0,0,0,0,0-0.1c0-0.4,0-1.2,0.1-2.5c0-0.9,0-1.6,0-2.1v-5.3c-2.3,1.9-4.4,3.4-6.3,4.4
		c-0.1,0.1-0.2,0.1-0.3,0.1c-0.2,0-0.3-0.1-0.5-0.2c-0.4-0.4-1.1-0.9-2-1.3c2.7-1.4,5.1-2.9,7.2-4.7c1.9-1.5,3.5-3.1,4.9-4.8
		c0.7-0.8,1.1-1.6,1.4-2.3c1.2,0.7,2,1.2,2.5,1.6c0.1,0.1,0.2,0.2,0.2,0.3c0,0.2-0.1,0.4-0.3,0.5c-0.3,0.2-0.8,0.6-1.4,1.3
		C135.9,141.4,135,142.3,134,143.3z"/>
	<path d="M153.4,143.4c2.9,0.9,5.3,1.9,7.2,3.1c0.2,0.1,0.3,0.2,0.3,0.4c0,0.1,0,0.1,0,0.2c-0.3,0.7-0.6,1.4-1,2
		c-0.1,0.2-0.2,0.3-0.3,0.3c-0.1,0-0.2,0-0.3-0.1c-2.1-1.4-4.1-2.3-6-2.9v5c0,0.8,0,2.3,0.1,4.4c0,0,0,0.1,0,0.1
		c0,0.2-0.1,0.3-0.4,0.3c-0.3,0-0.7,0-1,0c-0.3,0-0.7,0-1,0c-0.3,0-0.4-0.1-0.4-0.3c0.1-1.5,0.1-3,0.1-4.5V140
		c0-1.4-0.1-2.5-0.2-3.4c1.3,0.1,2.3,0.2,2.9,0.4c0.3,0.1,0.4,0.2,0.4,0.4c0,0.1-0.1,0.3-0.2,0.5c-0.1,0.2-0.1,0.9-0.1,2.1
		L153.4,143.4L153.4,143.4L153.4,143.4z"/>
	<path d="M169.7,137.7c1.1,0.3,1.9,0.5,2.4,0.8c0.4,0.2,0.5,0.4,0.5,0.5c0,0.1-0.1,0.3-0.3,0.7c-0.2,0.4-0.4,0.9-0.5,1.6
		c-0.6,2.8-1,5.3-1,7.4c0,1,0,1.9,0.1,2.7c1-2.3,1.5-3.4,1.5-3.4c0.1,0.2,0.4,0.7,0.8,1.4c0.1,0.2,0.1,0.3,0.1,0.3
		c0,0.1,0,0.2-0.1,0.4c-0.6,1.4-1.1,2.6-1.3,3.4c0,0.1-0.1,0.4-0.1,0.7l0,0.6c0,0.1-0.1,0.3-0.3,0.3c-0.6,0.2-1.3,0.3-1.9,0.4
		c0,0,0,0,0,0c-0.1,0-0.2-0.1-0.3-0.3c-0.3-0.8-0.6-1.9-0.8-3.4c-0.2-1.2-0.2-2.3-0.2-3.4c0-2.1,0.3-4.6,0.8-7.5
		C169.6,139.6,169.7,138.4,169.7,137.7z M175,149.5l2.1-0.2c0,0,0,0,0,0c0.1,0,0.2,0.1,0.2,0.3c0.1,0.8,0.4,1.4,1.1,1.7
		c0.6,0.3,1.4,0.4,2.6,0.4c1.2,0,2.7-0.1,4.4-0.3c0,0,0.1,0,0.1,0c0.1,0,0.2,0.1,0.2,0.3c0.1,0.6,0.1,1.3,0.1,2c0,0.1,0,0.2,0,0.3
		c0,0-0.1,0.1-0.3,0.1c-1.4,0.2-2.7,0.3-3.7,0.3c-1.8,0-3.1-0.2-4-0.5c-0.8-0.3-1.4-0.8-1.9-1.4C175.3,151.8,175,150.8,175,149.5z
		 M175.7,143c0-1.3,0-2.1,0.1-2.2c0-0.2,0.1-0.4,0.3-0.4c1.5-0.3,3.1-0.4,5-0.4c1.3,0,2.4,0.1,3.4,0.1c0.2,0,0.4,0.1,0.5,0.1
		c0,0,0.1,0.1,0.1,0.2c0,0.9,0,1.5,0,1.9c0,0.2-0.1,0.3-0.2,0.3c0,0,0,0,0,0c-1.4-0.1-2.6-0.1-3.7-0.1
		C179.4,142.5,177.7,142.7,175.7,143z"/>
	<path d="M189.8,143.8c0.9-0.1,2.4-0.5,4.4-1.2c3.7-1.3,6.5-1.9,8.2-1.9c2.2,0,3.9,0.6,5.1,1.9c1.1,1.1,1.6,2.5,1.6,4.1
		c0,1.6-0.4,2.9-1.1,3.9c-0.6,0.9-1.6,1.7-2.9,2.4c-0.9,0.5-1.9,0.9-3,1.2c-0.5,0.1-1.5,0.4-2.8,0.7c-0.1,0-0.3,0.1-0.3,0.1
		c-0.2,0-0.4-0.1-0.5-0.4c-0.3-0.7-0.8-1.3-1.6-1.8c2.8-0.5,4.8-1,6.2-1.7c2.1-1.1,3.1-2.6,3.1-4.5c0-1.1-0.4-2-1.1-2.6
		c-0.7-0.5-1.6-0.8-2.8-0.8c-1.9,0-4.7,0.8-8.2,2.3c-1,0.5-1.5,0.8-1.6,0.8c-0.3,0.2-0.5,0.3-0.6,0.3c-0.2,0-0.4-0.2-0.7-0.5
		C190.7,145.6,190.3,144.8,189.8,143.8z"/>
	<path d="M213.8,139.3c1.2,0.1,2.2,0.4,2.9,0.8c0.2,0.1,0.4,0.3,0.4,0.4c0,0.1-0.1,0.3-0.2,0.6c-0.1,0.4-0.2,1.2-0.2,2.2
		c0,1.9,0.1,3.6,0.4,5.2c0.4,2.2,1,3.4,1.9,3.4c0.4,0,0.8-0.3,1.1-0.8c0.3-0.5,0.7-1.3,1.1-2.4c0.4,0.6,0.9,1.2,1.5,1.8
		c0.1,0.1,0.2,0.3,0.2,0.5c0,0.1,0,0.2-0.1,0.4c-0.5,1.2-1.1,2.1-1.8,2.8c-0.6,0.5-1.3,0.8-2.1,0.8c-1,0-1.9-0.6-2.7-1.7
		c-0.8-1.1-1.3-2.5-1.5-4.2c-0.4-2.2-0.5-4.4-0.5-6.6C214.1,141.1,214,140.1,213.8,139.3z M225.5,142.5c0.8-0.5,1.3-0.8,1.8-1.1
		c0.1-0.1,0.2-0.1,0.3-0.1c0.1,0,0.1,0.1,0.2,0.1c1.1,1,2.1,2.2,3,3.8c0.8,1.4,1.3,2.7,1.5,4c0,0.1,0,0.1,0,0.1
		c0,0.1-0.1,0.3-0.3,0.4c-0.7,0.4-1.3,0.7-1.8,0.9c-0.1,0-0.1,0-0.2,0c-0.1,0-0.2-0.1-0.3-0.3c-0.4-1.8-1-3.3-1.7-4.6
		C227.4,144.7,226.5,143.5,225.5,142.5z"/>
	<path d="M236.1,140.5c0.8,0,2-0.1,3.6-0.4c6.1-0.9,10.7-1.5,13.7-1.9c0,0,0.1,0,0.1,0c0.2,0,0.3,0.1,0.3,0.3c0.1,0.7,0.2,1.3,0.3,2
		c0,0.2-0.1,0.3-0.4,0.3c-1,0.1-2,0.2-2.8,0.5c-2,0.7-3.5,1.7-4.5,3.1c-0.9,1.1-1.3,2.3-1.3,3.6c0,2.9,2,4.5,6.1,4.8
		c0.3,0,0.5,0.1,0.5,0.3c0,0.7-0.1,1.4-0.3,2c-0.1,0.3-0.2,0.5-0.4,0.5c-2.4,0-4.4-0.7-6-2c-1.6-1.3-2.4-3-2.4-5.1
		c0-1.7,0.4-3.1,1.3-4.4c0.7-1,1.7-2,3.1-2.8v-0.1c-2.7,0.5-5.2,1-7.7,1.5c-0.8,0.2-1.3,0.3-1.4,0.4c-0.3,0.1-0.4,0.2-0.5,0.2
		c-0.2,0-0.3-0.1-0.4-0.3C236.7,142.5,236.4,141.7,236.1,140.5z"/>
	<path d="M260.4,140h3l2.4-0.1c0.1,0,0.2,0,0.2,0.1c0,0,0,0.1,0,0.2v1.6c0,0.1,0,0.2,0,0.2c0,0-0.1,0-0.2,0l-2.4-0.1h-3l-2.4,0.1
		c-0.1,0-0.2,0-0.2-0.1c0,0,0-0.1,0-0.2v-1.6c0-0.2,0.1-0.2,0.2-0.2L260.4,140z M265.6,156.2c0,0.1,0,0.2,0,0.2c0,0-0.1,0-0.2,0
		h-1.7c-0.1,0-0.2,0-0.2-0.1s0-0.1,0-0.2v-0.6h-2.5v1.1c0,0.1,0,0.2,0,0.2c0,0-0.1,0-0.2,0h-1.7c-0.1,0-0.2,0-0.2-0.1
		c0,0,0-0.1,0-0.2l0-3.4v-1.5l0-2.1c0-0.1,0-0.2,0-0.2c0,0,0.1,0,0.2,0l2.1,0.1h2.2l2.1-0.1c0.1,0,0.2,0,0.2,0.1s0,0.1,0,0.2l0,1.8
		v1.6L265.6,156.2z M261.1,136.9h2.2l2-0.1c0.1,0,0.2,0,0.2,0.1c0,0,0,0.1,0,0.2v1.5c0,0.1,0,0.2,0,0.2c0,0-0.1,0-0.2,0l-2-0.1h-2.2
		l-2.1,0.1c-0.1,0-0.2,0-0.2-0.1c0,0,0-0.1,0-0.2v-1.5c0-0.1,0-0.2,0-0.2s0.1,0,0.2,0L261.1,136.9z M261.2,143.3h1.9l1.9-0.1
		c0.1,0,0.2,0,0.2,0.1c0,0,0,0.1,0,0.2v1.5c0,0.1,0,0.2,0,0.2c0,0-0.1,0-0.2,0l-1.9-0.1h-1.9l-1.9,0.1c-0.1,0-0.2,0-0.2-0.1
		c0,0,0-0.1,0-0.2v-1.5c0-0.1,0-0.2,0-0.2c0,0,0.1,0,0.2,0L261.2,143.3z M261.2,146.3h1.9l1.9-0.1c0.1,0,0.2,0,0.2,0.1
		c0,0,0,0.1,0,0.2v1.5c0,0.1,0,0.2,0,0.2c0,0-0.1,0-0.2,0l-1.9-0.1h-1.9l-1.9,0.1c-0.2,0-0.2-0.1-0.2-0.2v-1.5c0-0.1,0-0.2,0-0.2
		s0.1,0,0.2,0L261.2,146.3z M263.4,151.3h-2.5v2.5h2.5V151.3z M269.9,138.8l-2.9,0.1c-0.1,0-0.2,0-0.2-0.1c0,0,0-0.1,0-0.2V137
		c0-0.1,0-0.2,0-0.2c0,0,0.1,0,0.2,0l2.9,0.1h5.1l2.9-0.1c0.1,0,0.2,0,0.2,0.1c0,0,0,0.1,0,0.2v1.6c0,0.1,0,0.2,0,0.2
		c0,0-0.1,0-0.2,0l-2.9-0.1h-2.5c-0.2,0.9-0.3,1.6-0.4,2.1h1.6l2.5-0.1c0.1,0,0.2,0,0.2,0.1c0,0,0,0.1,0,0.2l0,1.6v2.6l1.9-0.1
		c0.1,0,0.2,0.1,0.2,0.2v1.6c0,0.2-0.1,0.2-0.2,0.2l-3-0.1h-6l-3,0.1c-0.1,0-0.2,0-0.2-0.1c0,0,0-0.1,0-0.2v-1.6c0-0.1,0-0.2,0-0.2
		s0.1,0,0.2,0l2.2,0.1c0.3-0.8,0.6-1.7,0.8-2.6c-0.5,0-1,0-1.4,0c-0.3,0-0.4,0-0.4,0c-0.1,0-0.2,0-0.2-0.1c0,0,0-0.1,0-0.2v-1.5
		c0-0.1,0-0.2,0-0.2c0,0,0.1,0,0.2,0l2.3,0.1c0.2-0.9,0.4-1.6,0.4-2.1L269.9,138.8L269.9,138.8L269.9,138.8z M269.3,156.9h-1.8
		c-0.1,0-0.2,0-0.2-0.1s0-0.1,0-0.2l0-3.6v-1.6l0-2.3c0-0.1,0-0.2,0-0.2c0,0,0.1,0,0.2,0l2.7,0.1h4l2.7-0.1c0.1,0,0.2,0,0.2,0.1
		s0,0.1,0,0.2l0,2v1.8l0,3.6c0,0.1,0,0.2,0,0.2s-0.1,0-0.2,0h-1.9c-0.1,0-0.2,0-0.2-0.1c0,0,0-0.1,0-0.2v-0.8h-5.2v0.8
		c0,0.1,0,0.2,0,0.2C269.5,156.9,269.4,156.9,269.3,156.9z M269.6,151v2.9h5.2V151H269.6z M274.1,142.8h-2.6c-0.3,1.2-0.6,2-0.8,2.6
		h3.4L274.1,142.8L274.1,142.8z"/>
	<path d="M285.7,136.9c1.1,0.2,2,0.5,2.5,0.7c0.3,0.1,0.4,0.3,0.4,0.5c0,0.1,0,0.2-0.1,0.4c-0.1,0.2-0.3,0.5-0.4,1.1
		c-0.2,1-0.4,2.4-0.6,4.4c-0.1,1-0.1,1.6-0.1,1.9c0,0.2,0,0.4,0,0.6c0.5-1,1.1-1.9,1.6-2.9c0.2,0.6,0.4,1.1,0.7,1.5
		c0.1,0.1,0.1,0.2,0.1,0.4c0,0.1-0.1,0.3-0.2,0.6c-0.7,1.4-1.2,2.3-1.3,2.9c0,0.1-0.1,0.4-0.1,0.7c0,0.2-0.1,0.3-0.3,0.4
		c-0.3,0.1-0.9,0.2-1.8,0.3c-0.1,0-0.3-0.1-0.3-0.3c-0.5-1.2-0.7-2.8-0.7-4.6c0-1,0.2-2.9,0.5-5.7
		C285.7,138.4,285.7,137.5,285.7,136.9z M293,136.9c1.3,0.1,2.1,0.1,2.6,0.3c0.3,0.1,0.5,0.2,0.5,0.4c0,0.1,0,0.1,0,0.2
		c0,0.2,0,0.6,0,1.1c0.2,2.9,0.3,4.8,0.3,5.9c0,3.5-0.6,6.1-1.7,7.9c-0.9,1.4-2.1,2.6-3.8,3.7c-0.1,0.1-0.3,0.1-0.5,0.1
		c-0.1,0-0.3-0.1-0.5-0.3c-0.6-0.5-1.2-0.9-1.9-1.1c1.8-1,3.1-2,3.9-3.1c0.7-1,1.2-2.1,1.5-3.2c0.3-1.1,0.4-2.4,0.4-4.1
		c0-2-0.1-3.8-0.3-5.4C293.4,138.4,293.3,137.6,293,136.9z"/>
	<path d="M324.6,144c-0.4,0.5-0.7,1.1-1,1.7c-0.1,0.4-0.3,0.6-0.4,0.6c-0.1,0-0.3-0.1-0.5-0.2c-1.6-0.8-3.1-1.6-4.5-2.5v1.6
		c0,0.1,0,0.2,0,0.2c0,0-0.1,0-0.2,0l-2.6-0.1h-3.5l-2.6,0.1c-0.1,0-0.2,0-0.2-0.1c0,0,0-0.1,0-0.2v-1.6c-1.3,1-2.7,1.9-4.2,2.7
		c-0.3,0.1-0.5,0.2-0.5,0.2c-0.1,0-0.3-0.2-0.4-0.6c-0.3-0.6-0.6-1.1-1.1-1.5c3.9-1.7,6.8-4.1,8.8-7c0.4-0.6,0.7-1.1,0.9-1.6
		c1.1,0.2,1.9,0.3,2.4,0.4c0.3,0.1,0.4,0.2,0.4,0.4c0,0.1-0.1,0.3-0.2,0.3c-0.1,0.1-0.1,0.1-0.2,0.1
		C317.4,140.3,320.6,142.6,324.6,144z M308.8,156.8h-1.9c-0.1,0-0.2,0-0.2-0.1s0-0.1,0-0.2l0-4.1v-2l0-2.8c0-0.1,0-0.2,0-0.2
		s0.1,0,0.2,0l3.1,0.1h7.3l3.1-0.1c0.1,0,0.2,0,0.2,0.1c0,0,0,0.1,0,0.2l0,2.4v2.2l0,4c0,0.1,0,0.2,0,0.2c0,0-0.1,0-0.2,0h-1.9
		c-0.1,0-0.2,0-0.2-0.1s0-0.1,0-0.2v-0.8h-9.1v0.9c0,0.1,0,0.2,0,0.2C309,156.8,309,156.8,308.8,156.8z M309.1,149.6v4h9.1v-4H309.1
		z M309.4,143.2c0.4,0,1.2,0.1,2.5,0.1h3.5l2.3,0c-1.6-1.2-3-2.7-4.2-4.3C312.5,140.4,311.1,141.8,309.4,143.2z"/>
	<path d="M329.5,143.7c0.6-0.1,1.5-0.3,2.7-0.7c2.3-0.8,4-1.1,5.2-1.1c1.6,0,2.9,0.5,3.7,1.6c0.7,0.9,1.1,2.2,1.1,3.8
		c0,2-0.6,3.8-1.9,5.4c-1,1.4-2.5,2.6-4.4,3.6c-0.2,0.1-0.3,0.1-0.4,0.1c-0.2,0-0.4-0.1-0.5-0.3c-0.6-0.5-1.2-0.9-1.9-1.2
		c2.3-1.1,4-2.4,5-3.8c0.8-1.2,1.3-2.5,1.3-4c0-1-0.2-1.7-0.6-2.2c-0.4-0.4-0.9-0.6-1.5-0.6c-1,0-2.2,0.3-3.6,1
		c-0.9,0.5-1.6,0.8-1.9,1.1c-0.2,0.1-0.4,0.2-0.5,0.2c-0.2,0-0.4-0.2-0.6-0.5C330.3,145.6,329.9,144.8,329.5,143.7z M333.9,136.2
		c1.7,0.7,3.9,1.2,6.6,1.6c0.2,0,0.3,0.1,0.3,0.3c0,0,0,0.1,0,0.1c-0.2,0.9-0.3,1.6-0.5,2c-0.1,0.2-0.2,0.3-0.3,0.3c0,0,0,0,0,0
		c-2.4-0.4-4.6-1-6.6-1.8c-0.1-0.1-0.2-0.1-0.2-0.3c0-0.1,0-0.1,0-0.2C333.3,137.8,333.5,137.1,333.9,136.2z"/>
	<path d="M350.4,150.9c0.1,0,0.2,0.1,0.3,0.1c1.7,1.1,3.2,2.4,4.5,4.2c0.1,0.1,0.1,0.3,0.1,0.3c0,0.1-0.1,0.2-0.2,0.4l-1.4,1.2
		c-0.2,0.1-0.3,0.2-0.3,0.2c-0.1,0-0.2-0.1-0.3-0.2c-1.2-1.8-2.7-3.3-4.3-4.4c-0.1-0.1-0.2-0.2-0.2-0.2c0-0.1,0-0.1,0.1-0.3l1.3-1.1
		C350.2,151,350.3,150.9,350.4,150.9z"/>
	<path d="M-114.7,174.8v14.9h13.7l3.1-0.1c0.1,0,0.2,0,0.2,0.1c0,0,0,0.1,0,0.2v1.7c0,0.1,0,0.2,0,0.2c0,0-0.1,0-0.2,0l-3.1,0h-13.7
		v0.6c0,0.1,0,0.2,0,0.2c0,0-0.1,0-0.2,0h-1.9c-0.1,0-0.2,0-0.2,0c0,0,0-0.1,0-0.2l0-4.9v-9.9l0-4.9c0-0.1,0-0.2,0-0.2s0.1,0,0.2,0
		l3,0.1h12.8l3-0.1c0.1,0,0.2,0,0.2,0.1c0,0,0,0.1,0,0.2v1.7c0,0.1-0.1,0.2-0.2,0.2l-3-0.1L-114.7,174.8L-114.7,174.8z
		 M-110.4,182.6l-3.1,0.1c-0.1,0-0.2,0-0.2-0.1c0,0,0-0.1,0-0.2v-1.4c0-0.1,0-0.2,0-0.2c0,0,0.1,0,0.2,0l3.1,0.1h1.9
		c0.4-0.7,0.6-1.3,0.7-1.9c0.9,0.1,1.5,0.3,1.9,0.4c0.3,0.1,0.4,0.2,0.4,0.3c0,0.1-0.1,0.2-0.2,0.3c-0.1,0.1-0.3,0.4-0.5,0.9h4.6
		l3.2-0.1c0.1,0,0.2,0,0.2,0.1c0,0,0,0.1,0,0.2v1.4c0,0.1,0,0.2,0,0.2c0,0-0.1,0-0.2,0l-3.2-0.1h-5.7c-0.2,0.4-0.6,0.8-1,1.2h4.8
		l2.9,0c0.1,0,0.2,0,0.2,0.1c0,0,0,0.1,0,0.2l-0.1,1.5v1.4l0.1,1.5c0,0.1,0,0.2-0.1,0.2s-0.1,0-0.2,0l-2.9-0.1h-3.8l-2.9,0.1
		c-0.1,0-0.2,0-0.2-0.1c0,0,0-0.1,0-0.2l0.1-1.7v-1.1c-0.6,0.4-1.4,0.9-2.3,1.4c-0.3,0.1-0.5,0.2-0.5,0.2c-0.1,0-0.3-0.2-0.5-0.5
		c-0.2-0.4-0.5-0.8-0.9-1.1c2.1-0.9,3.7-2,4.8-3.2L-110.4,182.6L-110.4,182.6z M-110.4,175.3c0.9,0.1,1.6,0.1,2.1,0.1
		c0.2,0,0.3,0.1,0.3,0.2c0,0.1,0,0.2-0.1,0.3c-0.1,0.1-0.1,0.4-0.1,0.7h3.7c0-0.4,0-0.9-0.1-1.4c0.9,0.1,1.7,0.1,2.1,0.1
		c0.2,0,0.3,0.1,0.3,0.2c0,0.1,0,0.2-0.1,0.3c-0.1,0.1-0.1,0.4-0.1,0.7h0.6l3.2-0.1c0.1,0,0.2,0,0.2,0.1c0,0,0,0.1,0,0.2v1.3
		c0,0.1,0,0.2-0.1,0.2c0,0-0.1,0-0.2,0l-3.2-0.1h-0.6l0,1.1c0,0.1,0,0.2,0,0.2c0,0-0.1,0-0.2,0h-1.7c-0.1,0-0.2,0-0.2-0.1
		c0,0,0-0.1,0-0.2c0,0,0-0.2,0-0.4c0-0.3,0-0.5,0-0.7h-3.7l0,1.1c0,0.1,0,0.2,0,0.2c0,0-0.1,0-0.2,0h-1.6c-0.1,0-0.2,0-0.2-0.1
		c0,0,0-0.1,0-0.2c0,0,0-0.2,0-0.4c0-0.3,0-0.5,0-0.7l-3,0.1c-0.1,0-0.2,0-0.2-0.1c0,0,0-0.1,0-0.2v-1.3c0-0.1,0-0.2,0-0.2
		c0,0,0.1,0,0.2,0l3,0.1C-110.3,176.2-110.3,175.7-110.4,175.3z M-102.4,187.1v-1.6h-5.8v1.6H-102.4z"/>
	<path d="M-95.1,179.1c3.1-1.6,5.5-3.6,7.4-6c0.4-0.5,0.6-0.9,0.8-1.3c1,0.2,1.8,0.4,2.3,0.6c0.2,0.1,0.3,0.2,0.3,0.3
		s-0.1,0.3-0.3,0.4c-0.2,0.1-0.4,0.4-0.7,0.7l-0.5,0.6h5c0.3,0,0.6,0,0.7-0.1c0.2-0.1,0.3-0.1,0.4-0.1c0.2,0,0.5,0.2,1,0.6
		c0.5,0.4,0.7,0.8,0.7,1c0,0.2-0.1,0.3-0.3,0.5c-0.2,0.1-0.4,0.4-0.8,0.7c-1.9,2.4-4,4.5-6.5,6.3h5.9l3.1-0.1c0.2,0,0.3,0.1,0.3,0.2
		l-0.1,2.9v2.1l0.1,4c0,0.1,0,0.2-0.1,0.2c0,0-0.1,0-0.2,0h-1.9c-0.1,0-0.2,0-0.2-0.1c0,0,0-0.1,0-0.2v-1h-8v1.1
		c0,0.2-0.1,0.3-0.2,0.3h-1.9c-0.1,0-0.2,0-0.2-0.1c0,0,0-0.1,0-0.2l0.1-4v-3c-1.2,0.7-2.6,1.4-4.2,2c-0.3,0.1-0.4,0.2-0.5,0.2
		c-0.1,0-0.3-0.2-0.5-0.6c-0.3-0.6-0.7-1.1-1.1-1.5c3.1-1.1,5.8-2.3,8-3.8c-0.7-0.8-1.5-1.5-2.4-2.1c-0.1-0.1-0.2-0.1-0.2-0.2
		s0.1-0.1,0.2-0.2l1.2-1c0.1-0.1,0.2-0.1,0.3-0.1c0,0,0.1,0,0.3,0.1c0.8,0.5,1.6,1.2,2.5,2.1c1.4-1.2,2.7-2.5,3.8-3.9h-5.8
		c-1.5,1.6-3.4,3-5.5,4.2c-0.2,0.1-0.4,0.2-0.5,0.2c-0.1,0-0.3-0.2-0.5-0.5C-94.3,179.8-94.6,179.4-95.1,179.1z M-78.7,185.3h-8v4h8
		V185.3z"/>
	<path d="M-63.3,177.1c-2.2,0.4-4,0.6-5.4,0.7c0,0-0.1,0-0.1,0c-0.2,0-0.4-0.2-0.5-0.5c-0.3-0.5-0.6-1-1.2-1.6
		c2.1-0.1,4.4-0.4,6.8-0.9c1.8-0.4,3-0.7,3.8-1c0.8-0.3,1.5-0.7,2-1c1,0.7,1.6,1.2,1.9,1.6c0.2,0.2,0.3,0.4,0.3,0.6
		c0,0.2-0.2,0.3-0.6,0.3c-0.2,0-0.4,0.1-0.8,0.2s-0.5,0.2-0.7,0.2c-1.5,0.4-2.8,0.8-4.1,1c0.7,0.1,1.2,0.2,1.5,0.3
		c0.2,0.1,0.3,0.2,0.3,0.3c0,0.1,0,0.2-0.1,0.4c-0.1,0.2-0.1,0.4-0.2,0.8c0,0.3,0,0.9,0,1.8h2.8c0.5,0,2-0.1,4.4-0.1
		c0.2,0,0.2,0.1,0.3,0.4c0,0.2,0,0.5,0,0.8c0,0.3,0,0.6,0,1c0,0.2,0,0.3-0.1,0.4c0,0-0.1,0.1-0.2,0.1c-1.4-0.1-2.9-0.1-4.4-0.1h-2.8
		c-0.2,1.9-0.6,3.4-1.1,4.6c-0.8,1.8-2.1,3.2-3.6,4.3c-0.2,0.1-0.3,0.1-0.4,0.1c-0.1,0-0.2-0.1-0.4-0.1c-0.8-0.4-1.6-0.7-2.4-0.9
		c1.2-0.7,2.1-1.4,2.8-2.1c0.5-0.6,1-1.3,1.5-2.1c0.6-1.1,0.9-2.4,1-3.8h-4c-1.7,0-2.9,0-3.6,0.1c-0.2,0-0.3-0.2-0.4-0.5
		c-0.2-0.6-0.2-1.3-0.2-2.1c1.3,0.1,2.7,0.1,4.4,0.1h4c0-0.7,0-1.4,0-2.3C-63.2,177.8-63.2,177.4-63.3,177.1z"/>
	<path d="M-41.8,183.7l-1.3,0.3c-0.8,0.2-1.6,0.5-2.5,0.9c-0.2,0.1-0.3,0.1-0.4,0.1c-0.2,0-0.3-0.1-0.4-0.3c-0.2-0.4-0.5-1.1-0.8-2
		c0.7-0.1,1.9-0.3,3.4-0.8l1.4-0.4l-0.5-1.9c-0.2-0.9-0.6-1.7-0.9-2.3c1.4-0.2,2.3-0.2,2.7-0.2c0.3,0,0.5,0.1,0.5,0.4
		c0,0,0,0.1,0,0.1c0,0.1,0,0.3,0,0.4c0,0.3,0.1,0.7,0.2,1.2l0.4,1.7l4.9-1.3c0.5-0.1,0.9-0.3,1.2-0.5c0.1-0.1,0.2-0.1,0.3-0.1
		c0.1,0,0.2,0.1,0.4,0.2c0.6,0.5,1.1,0.9,1.3,1.1c0.1,0.1,0.2,0.2,0.2,0.3c0,0.1-0.1,0.3-0.3,0.5c-0.1,0.1-0.3,0.3-0.3,0.5
		c-1,1.9-1.8,3.3-2.6,4.3c-0.1,0.1-0.2,0.2-0.3,0.2c-0.1,0-0.2,0-0.3-0.1c-0.5-0.3-1.1-0.5-1.8-0.7c1-1.1,1.8-2.3,2.4-3.5l-4.4,1.1
		l1.1,4.1c0.1,0.5,0.3,1.1,0.6,2.1c0.2,0.7,0.3,1.3,0.5,1.7c0,0.1,0,0.1,0,0.2c0,0.2-0.1,0.3-0.3,0.4c-0.4,0.2-0.9,0.3-1.5,0.5
		c-0.1,0-0.2,0-0.2,0c-0.2,0-0.3-0.1-0.3-0.4c-0.2-0.8-0.5-2-0.9-3.8L-41.8,183.7z"/>
	<path d="M-23.9,180.2c0.4-0.2,1.1-0.5,1.8-0.9c0.1-0.1,0.2-0.1,0.2-0.1c0.1,0,0.2,0.1,0.3,0.2c0.9,1.1,1.6,2.3,2,3.4
		c0.1,0.2,0.1,0.3,0.1,0.3c0,0.1-0.1,0.2-0.3,0.3c-0.5,0.3-1,0.5-1.5,0.7c-0.1,0-0.1,0.1-0.2,0.1c-0.2,0-0.3-0.1-0.4-0.4
		C-22.3,182.5-23,181.3-23.9,180.2z M-12.1,178.5c1.2,0.4,2,0.7,2.5,1.1c0.2,0.1,0.3,0.3,0.3,0.4c0,0.1-0.1,0.3-0.2,0.4
		c-0.2,0.1-0.4,0.5-0.7,1.1c-1,2.3-2.1,4.4-3.4,6.1c-1.4,1.8-3,3.3-4.7,4.4c-0.2,0.2-0.4,0.2-0.5,0.2s-0.3-0.1-0.4-0.1
		c-0.5-0.4-1.2-0.7-1.9-1c1.5-1,2.6-1.8,3.4-2.5c0.7-0.7,1.4-1.4,2.1-2.2c1.3-1.7,2.4-3.6,3.1-5.5
		C-12.4,180.1-12.2,179.3-12.1,178.5z M-19.3,179c1-0.5,1.6-0.7,1.8-0.8c0.1-0.1,0.2-0.1,0.2-0.1c0.1,0,0.2,0.1,0.3,0.2
		c0.8,1,1.3,2.1,1.8,3.3c0,0.1,0.1,0.2,0.1,0.3c0,0.1-0.1,0.2-0.3,0.3c-0.4,0.3-1,0.5-1.6,0.7c-0.1,0-0.1,0-0.1,0
		c-0.1,0-0.2-0.1-0.3-0.4C-17.9,181.3-18.6,180-19.3,179z"/>
	<path d="M5.4,179.2c2.9,0.9,5.3,1.9,7.2,3.1c0.2,0.1,0.3,0.2,0.3,0.4c0,0.1,0,0.1-0.1,0.2c-0.3,0.7-0.6,1.4-1,2
		c-0.1,0.2-0.2,0.3-0.3,0.3c-0.1,0-0.2,0-0.3-0.1c-2.1-1.4-4.1-2.3-6-2.9v5c0,0.8,0,2.3,0.1,4.4c0,0,0,0.1,0,0.1
		c0,0.2-0.1,0.3-0.4,0.3c-0.3,0-0.7,0-1,0c-0.3,0-0.7,0-1,0c-0.3,0-0.4-0.1-0.4-0.3c0.1-1.5,0.1-3,0.1-4.5v-11.2
		c0-1.4-0.1-2.5-0.2-3.4c1.3,0.1,2.3,0.2,2.8,0.4c0.3,0.1,0.4,0.2,0.4,0.4c0,0.1-0.1,0.3-0.2,0.5c-0.1,0.2-0.2,0.9-0.2,2.1
		L5.4,179.2L5.4,179.2L5.4,179.2z"/>
	<path d="M34,178.1h0.8c1.2,0,2.4,0,3.4-0.1c0,0,0.1,0,0.1,0c0.1,0,0.2,0.1,0.3,0.4c0,0.3,0,0.6,0,0.9c0,0.3,0,0.6,0,0.9
		c0,0.2-0.1,0.4-0.3,0.4c0,0-0.1,0-0.1,0l-3.3,0H34c-0.1,1.7-0.3,3.1-0.6,4.3c-0.3,1-0.7,1.9-1.2,2.8c-1.1,1.8-2.9,3.2-5.4,4.2
		c-0.3,0.1-0.5,0.2-0.6,0.2s-0.3-0.1-0.4-0.3c-0.6-0.6-1.2-1.1-1.9-1.4c1.7-0.5,3.1-1.1,4-1.8c0.9-0.6,1.6-1.3,2.1-2.2
		c0.5-0.8,0.8-1.6,1-2.6c0.2-0.9,0.3-1.9,0.3-3.2h-4.9v0.8c0,1.7,0,3,0.1,3.8c0,0.2-0.1,0.3-0.4,0.3c-0.3,0-0.6,0-1,0s-0.7,0-1,0
		c-0.3,0-0.4-0.1-0.4-0.3c0,0,0,0,0-0.1c0.1-1.3,0.1-2.5,0.1-3.7v-0.9h-0.7c-1.3,0-2.6,0-3.8,0.1c-0.1,0-0.2-0.1-0.3-0.4
		c-0.1-0.2-0.1-1-0.1-2.2c1.1,0.1,2.4,0.1,4.2,0.1h0.7v-1.7c0-1.2-0.1-2.3-0.3-3.4c1.5,0.1,2.4,0.3,2.8,0.4c0.2,0.1,0.3,0.1,0.3,0.3
		c0,0.1-0.1,0.2-0.1,0.5c-0.1,0.3-0.2,1-0.2,2.2v1.7h4.9l0-2.2c0-0.1,0-0.3,0-0.5c0-1.1-0.1-2-0.2-2.6c1.4,0.1,2.3,0.3,2.7,0.4
		c0.3,0.1,0.4,0.2,0.4,0.4c0,0.1,0,0.3-0.1,0.4c-0.1,0.3-0.2,1-0.2,2C34,175.9,34,178.1,34,178.1z"/>
	<path d="M42.7,180.9c1.2,0.2,2.8,0.3,4.9,0.3h7.3c0.7,0,1.6,0,2.8,0c1.4,0,2.3,0,2.4-0.1c0,0,0.1,0,0.1,0c0.2,0,0.3,0.1,0.3,0.3
		c0,0.4,0,0.7,0,1.1s0,0.7,0,1.1c0,0.2-0.1,0.3-0.3,0.3h-0.1c-2.3,0-4-0.1-5.1-0.1h-8.2l-3.4,0.3c-0.3,0-0.5-0.2-0.5-0.5
		C42.9,183.1,42.8,182.2,42.7,180.9z"/>
	<path d="M70.7,180.6c2.1-0.7,4-1.4,5.6-2.2c1.1-0.5,1.9-1.1,2.4-1.6c0.6,0.5,1.3,1.2,1.9,2.1c0.1,0.1,0.2,0.3,0.2,0.4
		c0,0.2-0.1,0.3-0.4,0.4c-0.3,0.1-0.9,0.3-1.9,0.8c-2.2,1-4.8,1.9-7.8,2.8v3c0,0.6,0.1,1,0.2,1.2c0.1,0.2,0.3,0.3,0.6,0.4
		c0.6,0.2,1.6,0.3,2.9,0.3c2,0,4.1-0.2,6.4-0.5c0.1,0,0.1,0,0.1,0c0.1,0,0.2,0.1,0.3,0.3c0.1,0.9,0.1,1.5,0.1,2
		c0,0.3-0.2,0.4-0.5,0.4c-2.2,0.3-4.5,0.4-6.8,0.4c-1.9,0-3.4-0.2-4.3-0.6c-1.1-0.5-1.6-1.6-1.6-3.4v-8.4c0-1.8-0.1-3.2-0.2-4.2
		c1.3,0.1,2.3,0.3,2.9,0.5c0.2,0.1,0.4,0.2,0.4,0.4c0,0.1-0.1,0.3-0.1,0.5c-0.1,0.3-0.2,1-0.2,2.1L70.7,180.6L70.7,180.6z M79,174.8
		l1.2-0.9c0.1,0,0.1-0.1,0.1-0.1c0.1,0,0.1,0,0.2,0.1c0.8,0.6,1.5,1.4,2.2,2.4c0.1,0.1,0.1,0.1,0.1,0.1c0,0.1-0.1,0.1-0.1,0.2
		l-1,0.7c-0.1,0.1-0.1,0.1-0.2,0.1c-0.1,0-0.1-0.1-0.2-0.1C80.6,176.4,79.9,175.5,79,174.8z M81.1,173.3l1.1-0.8
		c0.1,0,0.1-0.1,0.1-0.1c0.1,0,0.1,0,0.2,0.1c0.9,0.7,1.6,1.4,2.2,2.3c0.1,0.1,0.1,0.1,0.1,0.2c0,0.1-0.1,0.1-0.1,0.2l-0.9,0.7
		c-0.1,0.1-0.1,0.1-0.2,0.1c-0.1,0-0.1-0.1-0.2-0.1C82.8,174.9,82,174.1,81.1,173.3z"/>
	<path d="M99.7,182.6c2.1,1.6,4.2,3.4,6.3,5.5c0.1,0.1,0.2,0.2,0.2,0.3s-0.1,0.2-0.1,0.3c-0.5,0.6-1,1.1-1.5,1.6
		c-0.1,0.1-0.2,0.1-0.3,0.1s-0.2-0.1-0.3-0.2c-1.7-2-3.7-3.9-5.9-5.6c-2.4,2.5-4.9,4.5-7.7,6c-0.3,0.1-0.4,0.2-0.5,0.2
		c-0.1,0-0.3-0.1-0.4-0.2c-0.4-0.5-1.1-1-1.9-1.5c1.8-0.9,3.4-1.9,4.7-2.9c1.1-0.8,2.2-1.8,3.3-2.9c1.6-1.7,3.1-3.6,4.3-5.7l-5.9,0
		c-1.2,0-2.4,0.1-3.6,0.1c-0.1,0-0.3-0.1-0.3-0.4c-0.1-0.6-0.2-1.4-0.2-2.4c0.8,0.1,2.1,0.1,3.9,0.1h6.3c0.8,0,1.3-0.1,1.6-0.2
		c0.1-0.1,0.2-0.1,0.3-0.1c0.1,0,0.2,0.1,0.4,0.2c0.5,0.4,1,0.9,1.5,1.6c0.1,0.1,0.1,0.2,0.1,0.3c0,0.1-0.1,0.3-0.3,0.5
		c-0.3,0.3-0.6,0.6-0.8,1C101.8,179.8,100.8,181.2,99.7,182.6z"/>
	<path d="M110.5,176.4c0.8,0,2-0.2,3.6-0.4c6-0.9,10.6-1.5,13.7-1.9c0.1,0,0.1,0,0.1,0c0.2,0,0.3,0.1,0.3,0.3c0.1,0.7,0.2,1.3,0.3,2
		c0,0.2-0.1,0.3-0.4,0.3c-1,0.1-2,0.2-2.8,0.5c-2,0.7-3.5,1.7-4.5,3.1c-0.9,1.1-1.3,2.3-1.3,3.6c0,2.9,2,4.5,6.1,4.8
		c0.3,0,0.5,0.1,0.5,0.3c0,0.7-0.1,1.4-0.3,2c-0.1,0.3-0.2,0.5-0.4,0.5c-2.4,0-4.4-0.7-6-2c-1.6-1.3-2.4-3-2.4-5.1
		c0-1.7,0.4-3.1,1.3-4.4c0.7-1,1.7-2,3.1-2.9v-0.1c-2.7,0.5-5.3,1-7.7,1.5c-0.8,0.2-1.3,0.3-1.4,0.4c-0.3,0.1-0.5,0.2-0.5,0.2
		c-0.2,0-0.3-0.1-0.4-0.3C111.1,178.4,110.9,177.6,110.5,176.4z M124.7,180.5l1.2-0.9c0.1,0,0.1-0.1,0.1-0.1c0.1,0,0.1,0,0.2,0.1
		c0.8,0.6,1.5,1.4,2.2,2.4c0.1,0.1,0.1,0.1,0.1,0.1c0,0.1,0,0.1-0.1,0.2l-1,0.7c-0.1,0.1-0.1,0.1-0.2,0.1s-0.1-0.1-0.2-0.1
		C126.3,182,125.5,181.1,124.7,180.5z M126.8,179l1.1-0.8c0.1-0.1,0.1-0.1,0.1-0.1c0.1,0,0.1,0,0.2,0.1c0.9,0.7,1.6,1.4,2.2,2.3
		c0.1,0.1,0.1,0.1,0.1,0.2c0,0.1,0,0.1-0.1,0.2l-0.9,0.7c-0.1,0.1-0.1,0.1-0.2,0.1c-0.1,0-0.1-0.1-0.2-0.1
		C128.4,180.6,127.7,179.7,126.8,179z"/>
	<path d="M142.7,176c0-0.2,0-0.6,0-1.1c0-0.4,0-0.6,0-0.9c0-0.6-0.1-1.1-0.3-1.7c1.1,0.1,2,0.2,2.7,0.3c0.4,0.1,0.6,0.2,0.6,0.4
		c0,0.1-0.1,0.3-0.2,0.5c-0.1,0.1-0.1,0.4-0.2,0.7c0,0.1,0,0.6,0,1.5c2-0.1,4.4-0.1,7-0.1c0.1,0,0.2,0,0.3,0.1c0,0,0.1,0.1,0.1,0.3
		c0,0.3,0,0.6,0,0.9s0,0.6,0,0.9c0,0.2-0.1,0.3-0.3,0.3c0,0-0.1,0-0.1,0c-1.4-0.1-2.9-0.1-4.4-0.1c-0.9,0-1.8,0-2.6,0
		c0,1.9,0,3.3,0,4.2c0.2,0.6,0.3,1.4,0.3,2.3c0,3.1-1.4,5.6-4.1,7.4c-0.4,0.3-0.8,0.4-0.9,0.4c-0.2,0-0.4-0.1-0.7-0.3
		c-0.5-0.4-1.1-0.7-1.7-0.9c1.4-0.6,2.5-1.4,3.3-2.4c0.7-0.8,1.1-1.7,1.3-2.6c-0.4,0.6-1.1,0.9-2.1,0.9c-1,0-1.8-0.4-2.4-1.1
		c-0.5-0.6-0.8-1.4-0.8-2.4c0-1.1,0.4-2,1.2-2.6c0.6-0.5,1.4-0.8,2.3-0.8c0.8,0,1.4,0.1,1.7,0.5l0-2.3c-3.3,0.2-5.9,0.4-7.9,0.7
		c-0.2,0-0.4,0.1-0.7,0.2c-0.2,0.1-0.3,0.1-0.4,0.1c-0.2,0-0.3-0.1-0.4-0.3c-0.1-0.4-0.3-1.1-0.6-2.3c0.2,0,0.5,0,0.7,0
		c0.2,0,0.9,0,2.1-0.1C136.9,176.4,139.2,176.2,142.7,176z M141.3,181.9c-0.4,0-0.8,0.1-1.1,0.4c-0.3,0.3-0.4,0.6-0.4,1.1
		c0,0.5,0.2,0.9,0.5,1.2c0.3,0.2,0.6,0.3,1,0.3c0.5,0,0.9-0.1,1.1-0.4c0.3-0.3,0.4-0.7,0.4-1.1c0-0.5-0.1-0.9-0.5-1.1
		C142,182,141.7,181.9,141.3,181.9z"/>
	<path d="M158.4,186.6c1,0,1.8,0.4,2.4,1.1c0.6,0.6,0.9,1.4,0.9,2.2c0,1-0.4,1.8-1.1,2.4c-0.6,0.6-1.4,0.9-2.2,0.9
		c-1,0-1.8-0.4-2.4-1.1c-0.6-0.6-0.9-1.4-0.9-2.2c0-1,0.4-1.8,1.1-2.4C156.8,186.9,157.5,186.6,158.4,186.6z M158.4,188
		c-0.6,0-1,0.2-1.4,0.6c-0.3,0.4-0.5,0.8-0.5,1.3c0,0.6,0.2,1,0.6,1.4c0.4,0.3,0.8,0.5,1.3,0.5c0.6,0,1-0.2,1.4-0.6
		c0.3-0.4,0.5-0.8,0.5-1.3c0-0.6-0.2-1-0.6-1.4C159.3,188.2,158.9,188,158.4,188z"/>
</g>
<g class="st3">
	<path class="st4" d="M52.5,11.6L36.8-4.6l0.8-0.7l15.7,16.2L52.5,11.6z"/>
	<path class="st4" d="M61,0.1c0.8,0.5,1.6,1,2.3,1.7c0.1,0.1,0.1,0.1,0.1,0.1s0,0.1-0.1,0.2l-0.7,1c-0.1,0.1-0.1,0.1-0.1,0.1
		c0,0-0.1,0-0.1-0.1c-0.6-0.6-1.4-1.2-2.3-1.8c-0.1-0.1-0.1-0.1-0.1-0.1c0,0,0-0.1,0.1-0.2l0.7-0.9c0.1-0.1,0.1-0.1,0.2-0.1
		C60.8,0.1,60.9,0.1,61,0.1z M59.9,9.4c0.3-0.4,0.6-0.9,0.7-1.3C61.1,7,61.6,5.7,62,4.3c0.3,0.3,0.6,0.6,0.9,0.8
		c0.2,0.2,0.4,0.3,0.4,0.4c0,0.1,0,0.2-0.1,0.4c-0.4,1.2-0.8,2.4-1.3,3.6c-0.1,0.3-0.2,0.5-0.2,0.6c0,0.1-0.1,0.2-0.2,0.2
		s-0.2,0-0.3-0.1C60.7,10,60.3,9.7,59.9,9.4z M61.6-3.9c0.7,0.4,1.5,1,2.2,1.7c0.1,0.1,0.1,0.1,0.1,0.1c0,0,0,0.1-0.1,0.2l-0.7,1
		C63-0.8,63-0.8,62.9-0.8c0,0-0.1,0-0.1-0.1c-0.8-0.8-1.6-1.4-2.3-1.8c-0.1,0-0.1-0.1-0.1-0.1c0,0,0-0.1,0.1-0.2l0.7-0.9
		C61.3-3.9,61.4-4,61.4-4C61.5-4,61.5-4,61.6-3.9z M64.6-3c0.5,0.1,1.1,0.3,1.6,0.5c1.7-0.3,3.4-0.7,4.9-1.2
		c0.4-0.1,0.7-0.3,1.1-0.5c0.4,0.3,0.8,0.6,1.2,1c0.1,0.1,0.2,0.2,0.2,0.3c0,0.1-0.1,0.2-0.3,0.2c-0.1,0-0.4,0.1-0.7,0.2
		c-2.2,0.7-4.3,1.2-6.4,1.4v1.5c1.9-0.2,3.7-0.6,5.3-1.1c0.4-0.1,0.8-0.3,1.1-0.5c0.4,0.3,0.8,0.6,1.2,1c0.1,0.1,0.1,0.2,0.1,0.3
		c0,0.1-0.1,0.2-0.3,0.2c-0.1,0-0.3,0.1-0.6,0.2c-0.6,0.2-1.2,0.4-1.8,0.5c0.1,0.9,0.3,1.7,0.5,2.5c0.4-0.3,0.7-0.6,0.9-1
		c0.2-0.3,0.4-0.6,0.6-0.8C73.7,2,74,2.2,74.3,2.5c0.1,0.1,0.2,0.2,0.2,0.3c0,0.1-0.1,0.1-0.2,0.2c-0.1,0.1-0.3,0.3-0.6,0.5
		c-0.5,0.5-1,0.9-1.6,1.4c0.5,1.4,1.3,2.7,2.4,3.7C74.3,9,74,9.4,73.7,9.9c-0.1,0.2-0.2,0.3-0.3,0.3s-0.2-0.1-0.3-0.2
		c-0.9-1.2-1.7-2.6-2.2-4c-0.5-1.4-0.9-2.9-1-4.7l-0.7,0.1V8l0,2.2c0,0.1-0.1,0.2-0.2,0.2h-1.3c-0.1,0-0.1,0-0.2,0s0-0.1,0-0.1
		l0-2.2V1.7c-0.4,0.1-0.9,0.1-1.4,0.2c0,1.9-0.2,3.4-0.5,4.7c-0.3,1.2-0.7,2.3-1.3,3.3c-0.1,0.2-0.2,0.3-0.3,0.3
		c-0.1,0-0.2-0.1-0.4-0.2c-0.4-0.4-0.7-0.6-1-0.7c0.7-0.9,1.1-2,1.5-3.4c0.3-1.3,0.4-2.8,0.4-4.7v-1.5C64.7-1.3,64.7-2.3,64.6-3z"/>
	<path class="st4" d="M90.9,8.3c-0.2,0.3-0.4,0.7-0.4,1.1c0,0.3-0.1,0.4-0.1,0.5c-0.1,0-0.2,0.1-0.4,0.1c-2,0.1-3.9,0.1-5.6,0.1
		c-1.8,0-3.1-0.1-3.8-0.4c-0.7-0.3-1.3-0.8-1.7-1.4c-0.4,0.4-0.9,0.9-1.5,1.3c-0.1,0.1-0.3,0.2-0.4,0.3c-0.1,0.1-0.1,0.1-0.2,0.1
		c-0.1,0-0.2-0.1-0.2-0.2c-0.2-0.3-0.4-0.8-0.6-1.4c0.4-0.2,0.7-0.4,0.9-0.5c0.4-0.2,0.8-0.6,1.2-1V3.4h-0.7l-1.1,0
		c-0.1,0-0.1,0-0.2,0c0,0,0-0.1,0-0.2V2c0-0.1,0-0.1,0-0.2c0,0,0.1,0,0.2,0l1.1,0h0.9l1.2,0c0.1,0,0.1,0,0.2,0s0,0.1,0,0.1l0,1.5
		v3.5c0.3,0.6,0.8,1.1,1.4,1.3c0.6,0.2,1.6,0.3,3,0.3C86.2,8.7,88.5,8.6,90.9,8.3z M76.4-2.8c-0.1,0-0.1-0.1-0.1-0.1
		c0,0,0.1-0.1,0.2-0.2l0.8-0.5c0.1-0.1,0.2-0.1,0.2-0.1s0.1,0,0.1,0.1c0.8,0.8,1.5,1.5,2,2.4c0,0.1,0.1,0.1,0.1,0.1S79.7-1,79.6-0.9
		l-0.9,0.7c-0.1,0.1-0.2,0.1-0.2,0.1s-0.1,0-0.1-0.1C77.8-1.2,77.2-2.1,76.4-2.8z M82.3,1.3l-2.2,0c-0.1,0-0.1,0-0.2,0s0-0.1,0-0.1
		V0.3c0-0.1,0-0.1,0-0.2c0,0,0.1,0,0.1,0l2.2,0h2v-0.7H83l-2.1,0c-0.1,0-0.1,0-0.2,0c0,0,0-0.1,0-0.2l0-0.9v-0.7l0-0.9
		c0-0.1,0-0.1,0-0.2s0.1,0,0.2,0l2.1,0h1.2c0-0.4-0.1-0.8-0.1-1c0.6,0,1.1,0,1.6,0.1c0.1,0,0.2,0.1,0.2,0.2l-0.1,0.2
		c-0.1,0.1-0.1,0.3-0.1,0.5h1.3l2.1,0c0.1,0,0.1,0,0.2,0s0,0.1,0,0.1l0,0.9v0.7l0,0.9c0,0.1,0,0.1,0,0.2c0,0-0.1,0-0.1,0l-2.1,0
		h-1.3v0.7H88l2.2,0c0.1,0,0.1,0,0.2,0c0,0,0,0.1,0,0.2v0.9c0,0.1,0,0.1,0,0.2c0,0-0.1,0-0.1,0l-2.2,0C88,1.3,82.3,1.3,82.3,1.3z
		 M87.1,5.2l2.1,0c0.1,0,0.1,0,0.2,0c0,0,0,0.1,0,0.1l0,0.9v0.6l0,0.9c0,0.1,0,0.1,0,0.1c0,0-0.1,0-0.2,0l-2.1,0h-3.5l-2.2,0
		c-0.1,0-0.1,0-0.2,0c0,0,0-0.1,0-0.1l0-1.7V3.8l0-1.7c0-0.1,0-0.1,0-0.2s0.1,0,0.2,0l2.1,0h3.2l1.9,0c0.1,0,0.1,0,0.2,0
		s0,0.1,0,0.2l0,0.8v0.5l0,0.8c0,0.1,0,0.1,0,0.2c0,0-0.1,0-0.1,0l-1.9,0h-3.9v0.7C82.8,5.2,87.1,5.2,87.1,5.2z M82.3-1.5h2v-0.8h-2
		V-1.5z M87.2,3.5V2.9h-4.4v0.6L87.2,3.5L87.2,3.5z M87.7,6.8V6.1h-4.9v0.7H87.7z M87.8-1.5v-0.8h-2v0.8H87.8z"/>
	<path class="st4" d="M100.2-0.6c-0.4,3-1.1,5.3-2,6.9c-0.7,1.2-1.6,1.8-2.7,1.8c-0.8,0-1.5-0.4-2.1-1.2c-0.5-0.8-0.8-1.7-0.8-2.9
		c0-1.6,0.6-3,1.8-4.2c1.4-1.4,3.1-2,5.2-2c2,0,3.6,0.6,4.7,1.8c0.9,1,1.4,2.3,1.4,3.8c0,2.9-1.6,4.8-4.9,5.8c-0.1,0-0.2,0-0.2,0
		c-0.2,0-0.3-0.1-0.4-0.3c-0.2-0.4-0.6-0.7-1.1-1c1.6-0.4,2.8-0.9,3.6-1.6c0.8-0.8,1.2-1.8,1.2-3.1c0-1.1-0.4-2-1.1-2.7
		C102.1-0.3,101.2-0.6,100.2-0.6C100.3-0.6,100.2-0.6,100.2-0.6z M98.4-0.5c-1.1,0.2-2.1,0.7-2.7,1.4c-0.8,0.9-1.3,1.9-1.3,3
		c0,0.7,0.1,1.3,0.4,1.8C95,6,95.2,6.2,95.5,6.2c0.4,0,0.8-0.3,1.2-1c0.4-0.7,0.8-1.6,1.1-2.8C98,1.5,98.3,0.5,98.4-0.5z"/>
	<path class="st4" d="M122.8,8.4c-0.2,0.3-0.4,0.6-0.4,1.1c0,0.3-0.1,0.4-0.2,0.5c-0.1,0-0.2,0.1-0.4,0.1c-1.9,0.1-3.8,0.2-5.6,0.2
		c-1.8,0-3.1-0.1-3.8-0.4c-0.7-0.3-1.2-0.8-1.7-1.4c-0.3,0.4-0.8,0.8-1.5,1.4c-0.2,0.2-0.3,0.3-0.3,0.3c-0.1,0.1-0.1,0.2-0.2,0.2
		c-0.1,0-0.2-0.1-0.2-0.2c-0.2-0.4-0.4-0.9-0.7-1.5c0.4-0.2,0.7-0.4,0.9-0.5c0.4-0.2,0.8-0.6,1.2-1V3.4h-0.7l-1.1,0
		c-0.1,0-0.1,0-0.2,0c0,0,0-0.1,0-0.2V2c0-0.1,0-0.1,0-0.2c0,0,0.1,0,0.2,0l1.1,0h0.9l1.2,0c0.1,0,0.1,0,0.1,0c0,0,0,0.1,0,0.1
		l0,1.5v3.5c0.3,0.6,0.8,1.1,1.5,1.3c0.6,0.2,1.6,0.3,3,0.3C118.4,8.7,120.7,8.6,122.8,8.4z M108.4-2.7c-0.1,0-0.1-0.1-0.1-0.1
		s0.1-0.1,0.2-0.2l0.8-0.6c0.1-0.1,0.2-0.1,0.2-0.1c0,0,0.1,0,0.1,0.1c0.8,0.7,1.5,1.5,2,2.4c0,0.1,0.1,0.1,0.1,0.1
		c0,0.1-0.1,0.1-0.1,0.2l-0.8,0.7c-0.1,0.1-0.2,0.1-0.2,0.1s-0.1,0-0.1-0.1C109.7-1.3,109.1-2.1,108.4-2.7z M115-2.5h-1.5l-1.4,0
		c-0.1,0-0.1,0-0.2,0s0-0.1,0-0.2v-0.8c0-0.1,0-0.1,0-0.1c0,0,0.1,0,0.1,0l1.4,0h1.6l1.1,0c0.1,0,0.1,0,0.2,0s0,0.1,0,0.2l0,1v0.7
		l0,1c0,0.1,0,0.1,0,0.1c0,0-0.1,0-0.2,0l-1.1,0h-1.6v0.4c0,0.3,0,0.5,0.1,0.6c0.1,0.1,0.4,0.1,0.8,0.1c0.5,0,0.8-0.1,0.9-0.2
		c0.1-0.1,0.1-0.3,0.1-0.7c0.3,0.1,0.6,0.3,1.1,0.4c0.2,0.1,0.3,0.1,0.3,0.2c0,0.1,0,0.1,0,0.3c-0.1,0.3-0.2,0.6-0.3,0.7
		c-0.1,0.1-0.4,0.2-0.7,0.3c-0.3,0-0.7,0.1-1.3,0.1c-1.1,0-1.7-0.1-1.9-0.3c-0.3-0.2-0.4-0.6-0.4-1.2v-0.8l0-0.6c0-0.1,0-0.1,0-0.2
		c0,0,0.1,0,0.2,0l1,0h1.7L115-2.5L115-2.5z M114.5,6l-2.2,0c-0.1,0-0.1,0-0.1,0c0,0,0-0.1,0-0.2V5c0-0.1,0-0.1,0-0.1
		c0,0,0.1,0,0.1,0l2.2,0h0.2v-1l-1.9,0c-0.1,0-0.1,0-0.2,0c0,0,0-0.1,0-0.2V2.8c0-0.1,0-0.1,0-0.2c0,0,0.1,0,0.2,0l1.9,0
		c0-0.3-0.1-0.7-0.1-1c0.6,0,1.1,0.1,1.5,0.1c0.2,0,0.3,0.1,0.3,0.2c0,0.1,0,0.1-0.1,0.2c-0.1,0.1-0.1,0.3-0.1,0.5h2
		c0-0.4,0-0.7-0.1-1c0.7,0,1.1,0.1,1.4,0.1c0.2,0,0.3,0.1,0.3,0.2c0,0.1,0,0.1-0.1,0.2c-0.1,0.1-0.1,0.2-0.1,0.5v0c0.5,0,1,0,1.4,0
		c0.1,0,0.2,0,0.3,0c0.1,0,0.1,0,0.1,0c0.1,0,0.1,0,0.2,0c0,0,0,0.1,0,0.1v0.9c0,0.1,0,0.1,0,0.2s-0.1,0-0.2,0c0,0-0.1,0-0.2,0
		c-0.5,0-1,0-1.6,0v1h0.3l2.2,0c0.1,0,0.1,0,0.1,0c0,0,0,0.1,0,0.1v0.9c0,0.1,0,0.1,0,0.2c0,0-0.1,0-0.1,0l-2.2,0h-0.8
		c0.8,0.5,1.9,0.9,3.2,1.2c-0.2,0.3-0.4,0.5-0.6,0.8c-0.1,0.3-0.3,0.4-0.4,0.4c0,0-0.2,0-0.4-0.1c-1.1-0.4-2.1-0.9-3-1.5
		c-0.1,0-0.1-0.1-0.1-0.1c0,0,0-0.1,0.1-0.2l0.5-0.6h-3.1c0.3,0.2,0.6,0.4,0.8,0.6c0.1,0.1,0.2,0.2,0.2,0.2c0,0.1-0.1,0.1-0.2,0.2
		c0,0-0.1,0.1-0.2,0.1c-0.1,0.1-0.2,0.1-0.3,0.2c-0.5,0.4-1.2,0.7-2,1c-0.2,0.1-0.3,0.1-0.4,0.1c-0.1,0-0.3-0.1-0.4-0.4
		c-0.2-0.2-0.4-0.5-0.7-0.7c1-0.3,1.8-0.6,2.3-0.9c0.2-0.1,0.4-0.3,0.6-0.4L114.5,6L114.5,6z M116.2,4.8h2v-1h-2V4.8z M120.3-2.5
		h-1.5l-1.4,0c-0.1,0-0.1,0-0.2,0s0-0.1,0-0.2v-0.8c0-0.1,0-0.1,0-0.1c0,0,0.1,0,0.2,0l1.4,0h1.7l1.1,0c0.1,0,0.1,0,0.2,0
		s0,0.1,0,0.2l0,1v0.7l0,1c0,0.1-0.1,0.2-0.2,0.2l-1.1,0h-1.6v0.4c0,0.3,0,0.5,0.1,0.5c0.1,0.1,0.4,0.1,0.9,0.1c0.5,0,0.8,0,0.9-0.1
		c0.1-0.1,0.1-0.3,0.2-0.7c0.3,0.2,0.7,0.3,1.1,0.4c0.2,0,0.3,0.1,0.3,0.3c0,0.1,0,0.2,0,0.3c-0.1,0.3-0.2,0.6-0.3,0.7
		c-0.1,0.1-0.4,0.2-0.8,0.3c-0.3,0-0.8,0.1-1.4,0.1c-1.1,0-1.8-0.1-2-0.3c-0.2-0.2-0.4-0.6-0.4-1.2v-0.9l0-0.6c0-0.1,0-0.1,0-0.2
		s0.1,0,0.1,0l1.1,0h1.7L120.3-2.5L120.3-2.5z"/>
	<path class="st4" d="M124.7-2.1c0.3,0,0.6,0,0.9,0c0.2,0,0.5,0,0.8,0c0.5,0,1.2-0.1,2.1-0.3c0.6-0.1,1-0.2,1.1-0.3
		c0.1-0.1,0.2-0.1,0.3-0.1c0.1,0,0.1,0,0.2,0.1c0.3,0.3,0.5,0.6,0.7,0.8c0.1,0.2,0.1,0.3,0.1,0.4c0,0.1-0.1,0.2-0.3,0.3
		c-0.3,0.2-0.6,0.4-0.9,0.7c0,0-0.3,0.3-0.6,0.7c-0.7,0.8-1.2,1.6-1.5,2.5c-0.3,0.8-0.4,1.6-0.4,2.3c0,1.1,0.3,1.8,0.8,2.4
		c0.4,0.4,0.9,0.6,1.6,0.6c1.2,0,2.2-0.5,2.9-1.5c0.7-0.9,1-2.4,1-4.3c0-1,0-1.8-0.1-2.4c0-0.3-0.1-0.5-0.1-0.8
		c-0.1-0.3-0.1-0.5-0.2-0.7c0-0.1-0.1-0.2-0.1-0.2c0-0.1,0.1-0.2,0.2-0.2c0.4-0.2,0.9-0.3,1.2-0.3c0,0,0,0,0.1,0
		c0.1,0,0.2,0.1,0.2,0.2c0.2,0.7,0.6,1.5,1.1,2.4c0.7,1.3,1.6,2.6,2.6,3.6c0.1,0.1,0.1,0.1,0.1,0.2c0,0.1,0,0.1-0.1,0.3
		c-0.2,0.3-0.5,0.6-0.9,1c-0.1,0.1-0.1,0.1-0.2,0.1c-0.1,0-0.2-0.1-0.3-0.2c-0.9-1.2-1.6-2.6-2.2-4.1l-0.1,0
		c0.1,0.9,0.2,1.8,0.2,2.5c0,1-0.1,1.9-0.4,2.8c-0.3,0.8-0.6,1.4-1,1.9c-0.6,0.6-1.1,1.1-1.8,1.3c-0.6,0.2-1.3,0.3-2.1,0.3
		c-1.3,0-2.4-0.5-3.2-1.4c-0.7-0.8-1-1.9-1-3.2c0-0.9,0.2-1.8,0.5-2.7c0.3-0.8,0.6-1.5,1-2c0.3-0.5,0.6-0.9,0.9-1.2
		c0,0-0.3,0-0.9,0.1c-0.3,0.1-0.6,0.1-0.9,0.1c-0.1,0-0.2,0.1-0.4,0.1c-0.1,0-0.2,0.1-0.2,0.1c-0.1,0-0.2-0.1-0.3-0.2
		C125-0.8,124.8-1.4,124.7-2.1z M134.7-3.1l0.9-0.6c0,0,0.1,0,0.1,0c0,0,0.1,0,0.1,0.1c0.5,0.4,1,1,1.5,1.7c0,0,0.1,0.1,0.1,0.1
		c0,0,0,0.1-0.1,0.1l-0.7,0.5c0,0-0.1,0.1-0.1,0.1c0,0-0.1,0-0.1-0.1C135.9-2,135.3-2.6,134.7-3.1z M136.2-4.1l0.8-0.6
		c0,0,0.1,0,0.1,0c0,0,0.1,0,0.1,0.1c0.6,0.5,1.1,1,1.5,1.6c0,0,0,0.1,0,0.1c0,0.1,0,0.1-0.1,0.2l-0.6,0.5c0,0-0.1,0-0.1,0
		c0,0-0.1,0-0.1-0.1C137.4-3,136.8-3.6,136.2-4.1z"/>
	<path class="st4" d="M142.3,0.1l-2,0c-0.1,0-0.1,0-0.1,0c0,0,0-0.1,0-0.2v-1.3c0-0.1,0-0.1,0-0.2s0.1,0,0.1,0l2,0h3.9v-1.1
		c0-0.7,0-1.2-0.1-1.6c0.6,0,1.1,0,1.7,0.1c0.2,0,0.3,0.1,0.3,0.2c0,0.1,0,0.2-0.1,0.3C148-3.4,148-3.1,148-2.6v1.1h4.2l2,0
		c0.1,0,0.1,0,0.1,0c0,0,0,0.1,0,0.2V0c0,0.1,0,0.2,0,0.2s-0.1,0-0.1,0l-2,0h-5.5c0,0.6-0.1,1.3-0.1,2h3.9l1.9,0
		c0.1,0,0.2,0.1,0.2,0.2c0,0.3,0,0.7-0.1,1.3c-0.1,2.2-0.3,3.8-0.5,4.8c-0.2,0.8-0.5,1.3-0.9,1.6c-0.4,0.2-0.9,0.4-1.7,0.4
		c-0.5,0-0.9,0-1.3,0c-0.2,0-0.4-0.1-0.4-0.1c0-0.1-0.1-0.2-0.1-0.4c-0.1-0.5-0.2-0.9-0.4-1.2c0.7,0.1,1.4,0.1,2,0.1
		c0.5,0,0.8-0.3,1-0.8c0.2-0.8,0.4-2.2,0.5-4.1h-4.4c-0.3,1.6-0.9,2.9-1.7,3.9c-0.7,0.9-1.7,1.8-3,2.5c-0.2,0.1-0.4,0.2-0.4,0.2
		c-0.1,0-0.2-0.1-0.3-0.4c-0.2-0.4-0.6-0.7-1-1c2-1,3.3-2.1,4-3.6c0.6-1.3,0.9-3,1-5.3L142.3,0.1L142.3,0.1L142.3,0.1z"/>
	<path class="st4" d="M164.4-4.2c0.5,0.1,1,0.2,1.5,0.3c0.2,0,0.3,0.1,0.3,0.2c0,0.1,0,0.2-0.1,0.3c-0.1,0.2-0.2,0.4-0.3,0.8
		c-0.3,0.8-0.4,1.3-0.4,1.3h2.7l2.1,0c0.1,0,0.1,0,0.1,0s0,0.1,0,0.1V0c0,0.1,0,0.1,0,0.2s-0.1,0-0.1,0c0,0-0.1,0-0.4,0
		c-0.3,0-0.5,0-0.8,0c-0.1,2.4-0.7,4.4-1.8,6.1c0.9,1,2,1.9,3.5,2.6c-0.3,0.3-0.5,0.7-0.7,1.1c-0.1,0.2-0.2,0.4-0.3,0.4
		s-0.2-0.1-0.4-0.2c-1.1-0.7-2.1-1.6-3-2.7c-1.1,1.2-2.4,2.1-3.9,2.8c-0.2,0.1-0.3,0.1-0.4,0.1c-0.1,0-0.2-0.1-0.3-0.3
		c-0.2-0.4-0.5-0.8-0.8-1.1c1.8-0.6,3.3-1.6,4.4-2.9c-0.7-1.1-1.2-2.4-1.5-3.8c-0.2,0.3-0.4,0.7-0.7,1c-0.1,0.2-0.2,0.3-0.3,0.3
		s-0.2-0.1-0.3-0.3c-0.2-0.3-0.4-0.5-0.5-0.6l0,0.4c0,0.1,0,0.1,0,0.1c0,0-0.1,0-0.2,0h-1.3c-0.1,0-0.1,0-0.1,0c0,0,0-0.1,0-0.1V2.6
		h-2.3v3.6c0,0.4,0,0.6,0.1,0.7c0.2,0.1,0.5,0.2,1.1,0.2c0.8,0,1.4-0.1,1.6-0.4c0.1-0.1,0.2-0.4,0.3-0.7c0-0.3,0.1-0.7,0.1-1.3
		c0.3,0.2,0.7,0.4,1,0.4c0.2,0.1,0.4,0.1,0.4,0.1c0.1,0,0.1,0.1,0.1,0.2c0,0.1,0,0.1,0,0.3c-0.1,1-0.3,1.8-0.8,2.2
		c-0.3,0.3-0.7,0.4-1.2,0.5c-0.4,0.1-1,0.1-1.7,0.1c-1.1,0-1.9-0.1-2.1-0.4c-0.3-0.2-0.4-0.7-0.4-1.3V2.9l0-1.7c0-0.1,0-0.2,0-0.2
		c0,0,0.1,0,0.2,0l1.4,0h2.3v-2.6H158l-1.6,0c-0.1,0-0.1,0-0.2,0c0,0,0-0.1,0-0.2v-1.2c0-0.1,0-0.1,0-0.2s0.1,0,0.1,0l1.6,0h2.1
		l1.7,0c0.1,0,0.1,0,0.2,0c0,0,0,0.1,0,0.1l0,1.6v3.6c1.1-1.4,1.8-3.1,2.2-5.1C164.4-3.6,164.4-4,164.4-4.2z M167.5,0.1H165
		c0,0,0,0.1,0,0.1c0,0.1,0,0.1,0,0.1c0.3,1.8,0.8,3.3,1.4,4.5C167,3.6,167.3,2,167.5,0.1z"/>
	<path class="st4" d="M174.3,8.1l-2,0c-0.1,0-0.1,0-0.2,0c0,0,0-0.1,0-0.1V6.8c0-0.1,0-0.1,0-0.2c0,0,0.1,0,0.1,0l2,0h4V5.6h-2.1
		l-2.2,0c-0.1,0-0.2-0.1-0.2-0.2l0-1.2V3l0-1.2c0-0.1,0-0.2,0-0.2s0.1,0,0.1,0l2.2,0h2.1v-1H178l-1.8,0c-0.1,0-0.1,0-0.2,0
		s0-0.1,0-0.1l0-1.5v-0.4h-1.7l-2,0c-0.1,0-0.1,0-0.2,0c0,0,0-0.1,0-0.1v-1.1c0-0.1,0-0.1,0-0.2c0,0,0.1,0,0.2,0l2,0h1.7
		c0-0.5,0-1-0.1-1.4c0.7,0,1.2,0.1,1.6,0.1c0.1,0,0.2,0.1,0.2,0.2c0,0,0,0.1,0,0.1c0,0.1,0,0.1,0,0.1c0,0.1-0.1,0.4-0.1,0.9h3.2
		c0-0.5,0-1-0.1-1.4c0.7,0,1.2,0,1.6,0.1c0.1,0,0.2,0.1,0.2,0.2c0,0,0,0.1-0.1,0.3c0,0.1-0.1,0.4-0.1,0.8h1.8l2,0c0.1,0,0.1,0,0.2,0
		c0,0,0,0.1,0,0.2v1.1c0,0.1,0,0.1,0,0.2c0,0-0.1,0-0.2,0l-2,0h-1.8V-1l0,1.5c0,0.1,0,0.1,0,0.2c0,0-0.1,0-0.2,0l-1.8,0H180v1h2.3
		l2.2,0c0.1,0,0.1,0,0.2,0c0,0,0,0.1,0,0.2l0,1.2v1.3l0,1.2c0,0.1,0,0.1,0,0.1s-0.1,0-0.2,0l-2.2,0H180v1.1h4.2l2,0
		c0.1,0,0.1,0,0.2,0c0,0,0,0.1,0,0.1v1.1c0,0.1,0,0.1,0,0.1c0,0-0.1,0-0.2,0l-2,0H180v0l0,2.2c0,0.1,0,0.1,0,0.1s-0.1,0-0.1,0h-1.3
		c-0.1,0-0.2-0.1-0.2-0.2l0-2.2v0L174.3,8.1L174.3,8.1z M175.4,4.4h2.9V2.9h-2.9V4.4z M180.8-0.5v-0.9h-3.2v0.9H180.8z M183,4.4V2.9
		h-3v1.5C179.9,4.4,183,4.4,183,4.4z"/>
	<path class="st4" d="M193.9,11.6l-0.8-0.7l15.7-16.2l0.8,0.7L193.9,11.6z"/>
</g>
<g>
	<path d="M31.5,14.1L18.5,0.6L19.1,0l13.1,13.5L31.5,14.1z"/>
	<path d="M45.4,7.6c1.3,1,2.6,2.1,3.9,3.4c0.1,0.1,0.1,0.1,0.1,0.2s0,0.1-0.1,0.2c-0.3,0.4-0.6,0.7-0.9,1c-0.1,0.1-0.1,0.1-0.2,0.1
		s-0.1,0-0.2-0.1c-1.1-1.2-2.3-2.4-3.6-3.5c-1.5,1.5-3,2.8-4.7,3.7c-0.2,0.1-0.3,0.1-0.3,0.1c-0.1,0-0.2,0-0.2-0.1
		c-0.3-0.3-0.7-0.6-1.2-0.9c1.1-0.6,2.1-1.2,2.9-1.8c0.7-0.5,1.3-1.1,2-1.8c1-1,1.9-2.2,2.6-3.5l-3.6,0c-0.7,0-1.5,0-2.2,0.1
		c-0.1,0-0.2-0.1-0.2-0.2c-0.1-0.4-0.1-0.8-0.1-1.5C39.8,3,40.6,3,41.7,3h3.8c0.5,0,0.8,0,1-0.1c0.1,0,0.1-0.1,0.2-0.1
		c0,0,0.1,0,0.2,0.1c0.3,0.2,0.6,0.6,0.9,1c0,0.1,0.1,0.1,0.1,0.2c0,0.1-0.1,0.2-0.2,0.3c-0.2,0.2-0.4,0.4-0.5,0.6
		C46.6,5.9,46,6.8,45.4,7.6z"/>
	<path d="M58.1,7c0,0.9-0.1,1.5-0.3,2.1c-0.1,0.5-0.3,1-0.6,1.5c-0.3,0.6-0.7,1.1-1.2,1.6c-0.4,0.4-0.8,0.8-1.3,1
		c-0.2,0.1-0.3,0.2-0.4,0.2c-0.1,0-0.2,0-0.3-0.1c-0.3-0.3-0.7-0.5-1.3-0.7c0.8-0.4,1.3-0.8,1.8-1.2c0.4-0.4,0.7-0.8,1-1.3
		c0.3-0.5,0.4-1,0.5-1.4c0.1-0.4,0.1-0.9,0.2-1.6h-2.7c-0.4,0-1.1,0-2.1,0.1c-0.1,0-0.2-0.1-0.2-0.3c-0.1-0.4-0.1-0.9-0.1-1.3
		c0.5,0,1.3,0.1,2.4,0.1h6.3c1,0,1.9,0,2.7-0.1c0.1,0,0.2,0.1,0.2,0.3c0,0.1,0,0.3,0,0.5c0,0.3,0,0.4,0,0.5c0,0.2-0.1,0.2-0.2,0.2
		c-1,0-1.9-0.1-2.7-0.1H58.1z M53,2.3c0.8,0,1.6,0.1,2.3,0.1h3.1c1,0,1.7,0,2.4-0.1c0.1,0,0.2,0.1,0.2,0.3c0,0.2,0,0.3,0,0.5
		c0,0.2,0,0.3,0,0.5c0,0.2-0.1,0.3-0.2,0.3c-0.8,0-1.5,0-2.3,0h-3.1c-0.3,0-0.9,0-2,0.1c-0.1,0-0.2-0.1-0.2-0.2c0-0.1,0-0.3,0-0.7
		C53,2.6,53,2.4,53,2.3z"/>
	<path d="M71.4,9.8c0.4,0.4,0.8,0.9,1.2,1.4c0.1,0.1,0.1,0.1,0.1,0.2c0,0.1,0,0.1-0.1,0.2c-0.3,0.3-0.7,0.6-0.9,0.8
		c-0.1,0-0.1,0.1-0.2,0.1c-0.1,0-0.1,0-0.2-0.1c-1.3-1.7-2.8-3.2-4.5-4.4c0.5-0.4,0.8-0.8,1-0.9c0.1,0,0.1-0.1,0.2-0.1
		c0,0,0.1,0,0.2,0.1c0.9,0.7,1.6,1.2,2,1.6c1-0.9,2.1-2,3.2-3.3l-5.9,0c-1,0-1.9,0-2.6,0.1c-0.1,0-0.2-0.1-0.2-0.3
		c-0.1-0.5-0.1-1-0.2-1.5c0.6,0.1,1.6,0.1,3,0.1h5.7c0.6,0,1,0,1.2-0.1c0.1,0,0.1-0.1,0.2-0.1c0.1,0,0.2,0,0.2,0.1
		c0.4,0.3,0.7,0.7,1,1.1C76,5,76.1,5.1,76.1,5.2c0,0.1-0.1,0.2-0.2,0.3c-0.4,0.3-0.6,0.4-0.7,0.5C74,7.4,72.7,8.7,71.4,9.8z"/>
	<path d="M84.9,4.2c-0.4,2.6-0.9,4.6-1.8,6c-0.6,1.1-1.4,1.6-2.4,1.6c-0.7,0-1.3-0.4-1.8-1.1c-0.5-0.7-0.7-1.5-0.7-2.5
		c0-1.4,0.5-2.6,1.6-3.6c1.2-1.2,2.7-1.8,4.6-1.8c1.8,0,3.1,0.5,4.1,1.6c0.8,0.9,1.2,2,1.2,3.3c0,2.5-1.4,4.2-4.3,5.1
		c-0.1,0-0.2,0-0.2,0c-0.1,0-0.3-0.1-0.4-0.3c-0.2-0.3-0.5-0.6-1-0.9c1.4-0.3,2.5-0.8,3.1-1.4c0.7-0.7,1.1-1.6,1.1-2.7
		c0-0.9-0.3-1.7-1-2.4C86.5,4.5,85.8,4.2,84.9,4.2L84.9,4.2z M83.3,4.3c-1,0.2-1.8,0.6-2.4,1.3c-0.7,0.8-1.1,1.7-1.1,2.6
		c0,0.6,0.1,1.2,0.3,1.6c0.2,0.3,0.4,0.5,0.6,0.5c0.4,0,0.7-0.3,1.1-0.9c0.3-0.6,0.7-1.4,0.9-2.4C83,6,83.2,5.1,83.3,4.3z"/>
	<path d="M96.3,3.8c0.5,0,1.1-0.1,1.7-0.3c0,0,0.1,0,0.1,0c0.1,0,0.1,0,0.1,0.1c0.1,0.3,0.1,0.7,0.1,1.1c0,0.1-0.1,0.2-0.2,0.2
		C97.7,5,97,5.1,95.9,5.3c-1,2.6-1.9,4.6-2.7,6c-0.1,0.1-0.1,0.1-0.2,0.1c0,0-0.1,0-0.2-0.1c-0.4-0.2-0.7-0.5-1-0.7
		c-0.1-0.1-0.1-0.1-0.1-0.2c0-0.1,0-0.1,0.1-0.2c1-1.7,1.8-3.3,2.4-4.9c-0.4,0-0.8,0-1.4,0c-0.3,0-0.5,0-0.8,0
		c-0.1,0-0.2-0.1-0.2-0.2C91.9,5,91.8,4.6,91.8,4c0.5,0,0.9,0.1,1.3,0.1c0.5,0,1.1,0,1.6-0.1c0.1-0.4,0.2-1,0.4-1.6
		c0.1-0.3,0.1-0.7,0.1-1.1c0.8,0.1,1.3,0.2,1.6,0.3c0.2,0,0.2,0.1,0.2,0.2c0,0.1,0,0.2-0.1,0.3c-0.1,0.1-0.2,0.3-0.2,0.5
		c0,0.1-0.1,0.3-0.2,0.6C96.4,3.4,96.4,3.6,96.3,3.8z M98.6,9.6c-0.1-0.7-0.1-1.5-0.1-2.4c0-0.4-0.1-0.7-0.1-1
		c0.6,0.1,1.1,0.2,1.5,0.3c0.1,0,0.2,0.1,0.2,0.2c0,0,0,0.1-0.1,0.3c0,0.1-0.1,0.3-0.1,0.4c0,0,0,0.1,0,0.2c0,0.7,0.1,1.5,0.2,2.4
		c1.1,0.4,1.9,0.9,2.5,1.3c0.1,0.1,0.1,0.1,0.1,0.2c0,0,0,0.1,0,0.1c-0.2,0.4-0.4,0.8-0.6,1.1c0,0.1-0.1,0.1-0.1,0.1
		c0,0-0.1,0-0.1-0.1c-0.4-0.4-1-0.8-1.7-1.2c0,0.7-0.3,1.3-0.8,1.6c-0.4,0.3-1,0.4-1.8,0.4c-0.8,0-1.5-0.2-2-0.6
		c-0.4-0.4-0.6-0.8-0.6-1.4c0-0.7,0.3-1.2,0.8-1.5c0.5-0.3,1.1-0.5,1.8-0.5C97.8,9.5,98.2,9.6,98.6,9.6z M98.6,11
		c-0.4-0.1-0.8-0.2-1.1-0.2c-0.4,0-0.7,0.1-0.9,0.2c-0.2,0.1-0.3,0.3-0.3,0.6c0,0.4,0.4,0.7,1.2,0.7c0.4,0,0.7-0.1,0.9-0.3
		c0.2-0.2,0.3-0.4,0.3-0.7C98.6,11.1,98.6,11,98.6,11z M99.4,5.1c0.4-0.7,0.6-1,0.6-1.1c0.1-0.1,0.1-0.1,0.2-0.1c0,0,0.1,0,0.1,0
		c0.8,0.2,1.8,0.7,2.7,1.3c0.1,0.1,0.1,0.1,0.1,0.2c0,0.1,0,0.1-0.1,0.2c-0.1,0.3-0.3,0.7-0.6,1c0,0.1-0.1,0.1-0.1,0.1
		c0,0-0.1,0-0.1-0.1C101.2,5.9,100.3,5.4,99.4,5.1z"/>
	<path d="M105.5,3c0.8,0.1,1.4,0.2,1.8,0.5c0.2,0.1,0.2,0.2,0.2,0.3c0,0.1,0,0.2-0.1,0.4c-0.1,0.3-0.1,0.7-0.1,1.4
		c0,1.2,0.1,2.2,0.3,3.2c0.2,1.4,0.6,2.1,1.1,2.1c0.2,0,0.5-0.2,0.7-0.5c0.2-0.3,0.4-0.8,0.7-1.5c0.2,0.4,0.5,0.7,0.9,1.1
		c0.1,0.1,0.1,0.2,0.1,0.3c0,0.1,0,0.1,0,0.2c-0.3,0.8-0.7,1.3-1.1,1.7c-0.4,0.3-0.8,0.5-1.3,0.5c-0.6,0-1.2-0.4-1.7-1.1
		c-0.5-0.7-0.8-1.5-0.9-2.6c-0.2-1.3-0.3-2.7-0.3-4.1C105.7,4.1,105.6,3.5,105.5,3z M112.7,5c0.5-0.3,0.8-0.5,1.1-0.6
		c0.1,0,0.1-0.1,0.2-0.1c0,0,0.1,0,0.2,0.1c0.7,0.6,1.3,1.4,1.8,2.3c0.5,0.8,0.8,1.7,0.9,2.5c0,0,0,0.1,0,0.1c0,0.1-0.1,0.2-0.2,0.2
		c-0.4,0.3-0.8,0.5-1.1,0.6c0,0-0.1,0-0.1,0c-0.1,0-0.1-0.1-0.2-0.2c-0.3-1.1-0.6-2-1-2.8C113.8,6.4,113.3,5.7,112.7,5z"/>
	<path d="M119.4,10.2c0.1,0,0.1,0,0.2,0.1c1,0.7,2,1.5,2.8,2.6c0.1,0.1,0.1,0.2,0.1,0.2c0,0.1,0,0.1-0.1,0.2l-0.9,0.7
		c-0.1,0.1-0.2,0.1-0.2,0.1c-0.1,0-0.1,0-0.2-0.1c-0.8-1.1-1.6-2-2.7-2.7c-0.1-0.1-0.1-0.1-0.1-0.1s0-0.1,0.1-0.2l0.8-0.7
		C119.3,10.2,119.3,10.2,119.4,10.2z"/>
	<path d="M135.8,8.3c0.8,0.7,1.5,1.4,2.1,2.3c0,0.1,0.1,0.1,0.1,0.1c0,0,0,0.1-0.1,0.1l-0.8,0.5c-0.1,0.1-0.2,0.1-0.2,0.1
		c0,0-0.1,0-0.1-0.1c-0.1-0.2-0.3-0.5-0.6-0.9c-1.1,0.1-2.3,0.2-3.8,0.3v1.6l0,1.4c0,0.1,0,0.1,0,0.1c0,0-0.1,0-0.1,0h-1.2
		c-0.1,0-0.1,0-0.1,0s0-0.1,0-0.1l0-1.4v-1.5c-1.9,0.1-3.2,0.2-4.1,0.2c-0.3,0-0.4,0-0.5,0.1c-0.1,0-0.2,0.1-0.2,0.1
		c-0.1,0-0.2-0.1-0.2-0.2c-0.1-0.3-0.2-0.7-0.3-1.2c0.5,0,1,0.1,1.5,0.1c1.1,0,2,0,2.5-0.1c-0.7-0.5-1.4-1-2.2-1.4
		c-0.1,0-0.1-0.1-0.1-0.1s0-0.1,0.1-0.1l0.7-0.5c0.1-0.1,0.1-0.1,0.2-0.1c0,0,0.1,0,0.1,0l0.9,0.5c0.3-0.3,0.6-0.5,0.8-0.7
		c0.1-0.1,0.2-0.2,0.3-0.4h-2.8l-1.8,0c-0.1,0-0.1,0-0.1,0s0-0.1,0-0.1V5.9c0-0.1,0-0.1,0-0.1c0,0,0.1,0,0.1,0l1.8,0h3.4V5.1h-1.7
		l-1.9,0c-0.1,0-0.1,0-0.2,0c0,0,0-0.1,0-0.1V4.2c0-0.1,0-0.1,0-0.1c0,0,0.1,0,0.1,0l1.9,0h1.7V3.4h-2.5l-1.9,0c-0.1,0-0.1,0-0.1,0
		s0-0.1,0-0.1V2.4c0-0.1,0-0.1,0-0.1s0.1,0,0.1,0l1.9,0h2.5c0-0.6,0-1-0.1-1.3c0.6,0,1,0,1.5,0.1c0.1,0,0.2,0.1,0.2,0.1
		c0,0.1,0,0.2-0.1,0.3c-0.1,0.1-0.1,0.4-0.1,0.8h2.7l1.9,0c0.1,0,0.1,0,0.1,0s0,0.1,0,0.1v0.9c0,0.1,0,0.1,0,0.1s-0.1,0-0.1,0
		l-1.9,0h-2.7v0.7h2l1.9,0c0.1,0,0.1,0,0.2,0c0,0,0,0.1,0,0.1V5c0,0.1,0,0.1,0,0.1c0,0-0.1,0-0.1,0l-1.9,0h-2v0.7h3.7l1.8,0
		c0.1,0,0.1,0,0.1,0c0,0,0,0.1,0,0.1v0.9c0,0.1,0,0.1,0,0.1s-0.1,0-0.1,0l-1.8,0h-5c0.4,0.2,0.6,0.3,0.6,0.3
		c0.1,0.1,0.2,0.1,0.2,0.2c0,0.1-0.1,0.1-0.2,0.2c-0.1,0-0.2,0.1-0.4,0.3c-0.4,0.3-0.7,0.6-1,0.8c0.4,0.3,0.6,0.5,0.8,0.6
		c0.6-0.5,1.2-1,1.7-1.6c0.2-0.2,0.4-0.5,0.5-0.7c0.4,0.2,0.8,0.4,1.2,0.6c0.1,0.1,0.2,0.1,0.2,0.2c0,0.1-0.1,0.1-0.2,0.2
		c-0.1,0-0.3,0.1-0.4,0.3c-0.5,0.5-1,0.9-1.5,1.2c0.8,0,1.7-0.1,2.8-0.2l-0.5-0.5c0-0.1-0.1-0.1-0.1-0.1c0,0,0.1-0.1,0.2-0.2
		l0.7-0.4c0.1,0,0.1-0.1,0.2-0.1C135.7,8.2,135.8,8.2,135.8,8.3z M128.8,11c0.4,0.2,0.8,0.4,1.1,0.6c0.1,0.1,0.1,0.1,0.1,0.2
		c0,0.1-0.1,0.1-0.2,0.2c-0.1,0-0.3,0.1-0.5,0.3c-0.6,0.5-1.4,1-2.2,1.3c-0.2,0.1-0.3,0.1-0.3,0.1c-0.1,0-0.2-0.1-0.3-0.3
		c-0.2-0.3-0.4-0.5-0.7-0.7c1-0.3,1.8-0.7,2.4-1.2C128.4,11.4,128.6,11.2,128.8,11z M137.6,12.6c-0.3,0.2-0.5,0.5-0.7,0.8
		c-0.1,0.2-0.3,0.3-0.3,0.3c0,0-0.1,0-0.3-0.1c-1.1-0.5-2-1.1-2.8-1.9c0,0-0.1-0.1-0.1-0.1c0,0,0-0.1,0.1-0.1l0.7-0.5
		c0.1-0.1,0.2-0.1,0.2-0.1s0.1,0,0.1,0.1C135.3,11.7,136.4,12.2,137.6,12.6z"/>
	<path d="M141.4,3.5l-1.8,0c-0.1,0-0.1,0-0.1,0s0-0.1,0-0.1V2.5c0-0.1,0-0.1,0-0.1c0,0,0.1,0,0.1,0l1.8,0h1.1c0-0.5,0-1-0.1-1.3
		c0.5,0,1,0.1,1.4,0.1c0.2,0,0.2,0.1,0.2,0.1c0,0.1,0,0.1-0.1,0.3c0,0.1-0.1,0.4-0.1,0.7v0.1h1l1.8,0c0.1,0,0.1,0,0.1,0
		c0,0,0,0.1,0,0.1v0.9c0,0.1,0,0.2-0.1,0.2l-1.8,0H141.4z M148.1,1c0.4,0.1,0.8,0.2,1.2,0.3c0.2,0.1,0.3,0.1,0.3,0.2
		c0,0.1,0,0.1-0.1,0.2c-0.1,0.1-0.2,0.4-0.2,0.8C149.1,3,149,3.4,149,3.5h1.5l1.7,0c0.1,0,0.2,0.1,0.2,0.2v1c0,0.1,0,0.1,0,0.1
		s-0.1,0-0.1,0l-0.7,0c-0.2,2.2-0.6,4-1.3,5.3l0,0.1c0.7,0.9,1.5,1.6,2.4,2.2c-0.3,0.3-0.5,0.6-0.7,1c-0.1,0.2-0.2,0.3-0.3,0.3
		c-0.1,0-0.2-0.1-0.3-0.2c-0.8-0.7-1.4-1.3-1.9-2c-0.6,0.9-1.3,1.6-2.1,2.2c-0.2,0.1-0.3,0.2-0.3,0.2c-0.1,0-0.1-0.1-0.3-0.3
		c-0.2-0.3-0.3-0.4-0.3-0.5c-0.1,0.2-0.2,0.3-0.3,0.4c-0.2,0.2-0.7,0.3-1.3,0.3c-0.2,0-0.4,0-0.4-0.1c0,0-0.1-0.2-0.1-0.4
		c0-0.2-0.1-0.5-0.3-0.9c0.2,0,0.5,0,0.8,0c0.3,0,0.4-0.1,0.4-0.4V6h-4.1v5.7l0,1.8c0,0.1,0,0.1,0,0.1c0,0-0.1,0-0.1,0h-1
		c-0.1,0-0.2-0.1-0.2-0.2l0-1.9V7l0-1.9c0-0.1,0-0.1,0-0.1c0,0,0.1,0,0.1,0l1.2,0c-0.1-0.4-0.2-0.7-0.3-0.9c0,0,0-0.1,0-0.1
		c0,0,0.1-0.1,0.2-0.1l0.8-0.2c0,0,0.1,0,0.1,0c0.1,0,0.1,0,0.2,0.1c0.2,0.3,0.3,0.7,0.5,1.2h1.1c0.1-0.2,0.2-0.4,0.3-0.7
		C144,4,144,3.8,144,3.5c0.4,0.1,0.8,0.2,1.1,0.3c0.1,0,0.2,0.1,0.2,0.2s0,0.1-0.1,0.2c-0.1,0.1-0.1,0.2-0.2,0.3l-0.2,0.4l1.4,0
		c0.1,0,0.1,0,0.1,0s0,0.1,0,0.1l0,1.2c0.7-1,1.2-2.4,1.5-4C148,1.8,148,1.4,148.1,1z M144.7,7.1c0.1,0,0.1,0,0.1,0s0,0.1,0,0.1V8
		c0,0.1,0,0.1-0.1,0.1l-1.1,0v0.8h0l0.8,0c0.1,0,0.1,0,0.1,0s0,0.1,0,0.1l0,0.8v0.5l0,1.7c0,0.1,0,0.1,0,0.1c0,0-0.1,0-0.1,0h-0.7
		c-0.1,0-0.1,0-0.1,0s0-0.1,0-0.1v-0.3h-1.1v0.5c0,0.1,0,0.1-0.1,0.1h-0.7c-0.1,0-0.1,0-0.2,0c0,0,0-0.1,0-0.1l0-1.8v-0.3l0-1.1
		c0-0.1,0-0.1,0-0.1s0.1,0,0.1,0l0.8,0V8.1l-1,0c-0.1,0-0.1,0-0.1-0.1V7.2c0-0.1,0-0.2,0.1-0.2l1,0c0-0.3,0-0.6-0.1-0.9
		c0.4,0,0.8,0,1.1,0.1c0.1,0,0.2,0.1,0.2,0.1c0,0,0,0.1-0.1,0.2c0,0.1-0.1,0.2-0.1,0.4L144.7,7.1z M142.5,9.8v1h1.1v-1H142.5z
		 M146.4,6.9v5.4c0.9-0.6,1.6-1.3,2.2-2.2c-0.4-0.9-0.8-1.9-1.1-3.1c0,0.1-0.1,0.2-0.2,0.3c-0.1,0.1-0.1,0.2-0.1,0.2
		c-0.1,0.1-0.2,0.2-0.2,0.2c-0.1,0-0.2-0.1-0.2-0.2C146.6,7.3,146.5,7.1,146.4,6.9z M148.3,5.3c0.2,1.4,0.5,2.6,1,3.5
		c0.4-1.1,0.7-2.4,0.8-4.1h-1.5C148.5,4.9,148.4,5.1,148.3,5.3z"/>
	<path d="M158.2,3.8c0.5,0,1.1-0.1,1.7-0.3c0,0,0.1,0,0.1,0c0.1,0,0.1,0,0.1,0.1c0.1,0.3,0.1,0.7,0.1,1.1c0,0.1-0.1,0.2-0.2,0.2
		c-0.5,0.1-1.3,0.2-2.3,0.4c-1,2.6-1.9,4.6-2.7,6c-0.1,0.1-0.1,0.1-0.2,0.1c0,0-0.1,0-0.2-0.1c-0.4-0.2-0.7-0.5-1-0.7
		c-0.1-0.1-0.1-0.1-0.1-0.2c0-0.1,0-0.1,0.1-0.2c1-1.7,1.8-3.3,2.4-4.9c-0.4,0-0.8,0-1.4,0c-0.3,0-0.5,0-0.8,0
		c-0.1,0-0.2-0.1-0.2-0.2c-0.1-0.2-0.1-0.6-0.1-1.2c0.5,0,0.9,0.1,1.3,0.1c0.5,0,1.1,0,1.6-0.1c0.1-0.4,0.2-1,0.4-1.6
		c0.1-0.3,0.1-0.7,0.1-1.1c0.8,0.1,1.3,0.2,1.6,0.3c0.2,0,0.2,0.1,0.2,0.2c0,0.1,0,0.2-0.1,0.3c-0.1,0.1-0.2,0.3-0.2,0.5
		c0,0.1-0.1,0.3-0.2,0.6C158.3,3.4,158.2,3.6,158.2,3.8z M160.4,9.6c-0.1-0.7-0.1-1.5-0.1-2.4c0-0.4-0.1-0.7-0.1-1
		c0.6,0.1,1.1,0.2,1.5,0.3c0.1,0,0.2,0.1,0.2,0.2c0,0,0,0.1-0.1,0.3c0,0.1-0.1,0.3-0.1,0.4c0,0,0,0.1,0,0.2c0,0.7,0,1.5,0.2,2.4
		c1.1,0.4,1.9,0.9,2.5,1.3c0.1,0.1,0.1,0.1,0.1,0.2c0,0,0,0.1,0,0.1c-0.2,0.4-0.4,0.8-0.6,1.1c0,0.1-0.1,0.1-0.1,0.1
		c0,0-0.1,0-0.1-0.1c-0.4-0.4-1-0.8-1.7-1.2c0,0.7-0.3,1.3-0.8,1.6c-0.4,0.3-1,0.4-1.8,0.4c-0.8,0-1.5-0.2-2-0.6
		c-0.4-0.4-0.6-0.8-0.6-1.4c0-0.7,0.3-1.2,0.8-1.5c0.5-0.3,1.1-0.5,1.8-0.5C159.7,9.5,160.1,9.6,160.4,9.6z M160.4,11
		c-0.4-0.1-0.8-0.2-1.1-0.2c-0.4,0-0.7,0.1-0.9,0.2c-0.2,0.1-0.3,0.3-0.3,0.6c0,0.4,0.4,0.7,1.2,0.7c0.4,0,0.7-0.1,0.9-0.3
		c0.2-0.2,0.3-0.4,0.3-0.7C160.5,11.1,160.4,11,160.4,11z M161.3,5.1c0.4-0.7,0.6-1,0.6-1.1c0.1-0.1,0.1-0.1,0.2-0.1
		c0,0,0.1,0,0.1,0c0.8,0.2,1.8,0.7,2.7,1.3c0.1,0.1,0.1,0.1,0.1,0.2c0,0.1,0,0.1-0.1,0.2c-0.1,0.3-0.3,0.7-0.6,1
		c0,0.1-0.1,0.1-0.1,0.1c0,0-0.1,0-0.1-0.1C163.1,5.9,162.1,5.4,161.3,5.1z"/>
	<path d="M168.3,5.9l-1.7,0c-0.1,0-0.1-0.1-0.1-0.2V4.7c0-0.1,0-0.2,0.1-0.2l1.7,0h0.1V3.5c0-0.7,0-1.4-0.1-2c0.6,0,1.1,0.1,1.5,0.1
		c0.1,0,0.2,0.1,0.2,0.2c0,0,0,0.1,0,0.2c0,0.1,0,0.1,0,0.2c0,0.2-0.1,0.6-0.1,1.4v1.1h2.2V3.3c0-0.7,0-1.3-0.1-1.9
		c0.5,0,1,0,1.5,0.1c0.1,0,0.2,0.1,0.2,0.2c0,0.1,0,0.1,0,0.2c0,0.1,0,0.1,0,0.2c0,0.2-0.1,0.6-0.1,1.3v1.2h2.2V3.3
		c0-0.7,0-1.3-0.1-1.9c0.6,0,1,0,1.5,0.1c0.1,0,0.2,0.1,0.2,0.2c0,0.1,0,0.1,0,0.2c0,0.1,0,0.1-0.1,0.2c0,0.2-0.1,0.6-0.1,1.3v1.2
		h0.2l1.7,0c0.1,0,0.1,0.1,0.1,0.2v1.1c0,0.1,0,0.2-0.1,0.2l-1.7,0h-0.2v1.8l0,2.4c0,0.1,0,0.1,0,0.1c0,0-0.1,0-0.1,0h-1.2
		c-0.1,0-0.1,0-0.1,0c0,0,0-0.1,0-0.1V9.5h-2.2v0.7c0,0.1,0,0.1,0,0.1c0,0-0.1,0-0.1,0h-1.2c-0.1,0-0.1-0.1-0.1-0.2l0-2.4V5.9h-2.2
		v5.7h6.6l1.9,0c0.1,0,0.1,0,0.1,0s0,0.1,0,0.1v1.1c0,0.1,0,0.1,0,0.1c0,0-0.1,0-0.1,0l-1.9,0h-6.6v0.6c0,0.1,0,0.1,0,0.1
		c0,0-0.1,0-0.1,0h-1.2c-0.1,0-0.1,0-0.1,0c0,0,0-0.1,0-0.1l0-1.9L168.3,5.9L168.3,5.9z M175.7,8.2V5.9h-2.2v2.4H175.7z"/>
	<path d="M187.7,8.8c0.5,0,0.9,0,1.3,0.1c-0.6-0.5-1.1-1.1-1.6-1.8H186c-0.4,0.6-0.9,1.2-1.4,1.7c0.3,0,0.7,0,1.2,0.1
		c0.2,0,0.3,0.1,0.3,0.2c0,0,0,0.1-0.1,0.3c-0.1,0.1-0.1,0.3-0.1,0.6c-0.1,1-0.4,1.8-0.9,2.4c-0.5,0.6-1.2,1-2.1,1.4
		c-0.2,0.1-0.3,0.1-0.3,0.1c-0.1,0-0.2-0.1-0.3-0.3c-0.2-0.3-0.5-0.6-0.8-0.8c1.1-0.3,1.9-0.7,2.3-1.2c0.4-0.4,0.6-1,0.6-1.7
		c0-0.1,0-0.2,0-0.3c0-0.2,0-0.4,0-0.6c-0.8,0.7-1.8,1.3-2.9,1.7c-0.2,0.1-0.3,0.1-0.3,0.1c-0.1,0-0.2-0.1-0.3-0.3
		c-0.2-0.3-0.4-0.6-0.6-0.9c1.8-0.5,3.2-1.4,4.1-2.5H184l-1.9,0c-0.1,0-0.1,0-0.1-0.1l0-1.4V3.1l0-1.4c0-0.1,0-0.2,0.1-0.2l1.9,0
		h5.6l1.9,0c0.1,0,0.1,0,0.1,0s0,0.1,0,0.1l0,1.4v2.5l0,1.4c0,0.1-0.1,0.1-0.2,0.1l-1.9,0h-0.6c1,1.1,2.4,1.9,4.3,2.4
		c-0.2,0.3-0.4,0.6-0.6,1c-0.1,0.2-0.2,0.4-0.3,0.4c0,0-0.1,0-0.3-0.1c-1-0.4-1.9-0.9-2.7-1.5c0,0,0,0.1-0.1,0.2
		c0,0.2-0.1,0.6-0.1,1.3v1.4l0,1.6c0,0.1,0,0.1,0,0.1c0,0-0.1,0-0.1,0h-1.2c-0.1,0-0.1,0-0.1,0s0-0.1,0-0.1l0-1.6v-1.4
		C187.8,9.9,187.8,9.3,187.7,8.8z M183.4,3.8h2.7v-1h-2.7V3.8z M183.4,5.9h2.7V4.9h-2.7V5.9z M190.2,2.8h-2.8v1h2.8V2.8z M190.2,5.9
		V4.9h-2.8v1.1H190.2z"/>
	<path d="M199,1.2c0.7,0.1,1.2,0.2,1.6,0.4c0.1,0,0.2,0.1,0.2,0.2c0,0.1,0,0.2-0.1,0.2c-0.1,0.1-0.2,0.2-0.2,0.3c0,0,0,0.1-0.1,0.2
		c-0.1,0.2-0.2,0.4-0.2,0.6c0.9-0.1,1.8-0.3,2.5-0.4c0,0,0.1,0,0.1,0c0.1,0,0.1,0.1,0.1,0.2c0.1,0.3,0.1,0.7,0.1,1c0,0,0,0,0,0
		c0,0.1-0.1,0.2-0.2,0.2c-1.1,0.2-2.2,0.3-3.3,0.4c-0.5,0.7-0.8,1.3-1,1.6l0,0c0.4-0.3,0.9-0.4,1.4-0.4c1,0,1.6,0.5,1.7,1.5
		c1-0.4,1.6-0.8,2.1-1c0.5-0.2,0.8-0.5,1.1-0.8c0.4,0.5,0.8,0.9,1,1.2c0.1,0.1,0.1,0.2,0.1,0.3c0,0.1-0.1,0.2-0.2,0.2
		c-0.3,0-0.6,0.1-0.9,0.2c-1.4,0.5-2.4,0.9-3,1.1v2.3c0,0.1-0.1,0.2-0.3,0.3c-0.3,0-0.6,0.1-1,0.1c-0.1,0-0.2-0.1-0.2-0.2
		c0-0.8,0-1.4,0-1.7c-0.6,0.3-1.1,0.7-1.4,1c-0.2,0.3-0.3,0.6-0.3,0.9c0,0.6,0.6,1,1.9,1c1,0,2.2-0.1,3.5-0.3c0,0,0,0,0,0
		c0.1,0,0.1,0.1,0.2,0.2c0.1,0.4,0.1,0.8,0.1,1.1c0,0,0,0,0,0c0,0.1-0.1,0.2-0.2,0.2c-0.9,0.1-2.1,0.2-3.5,0.2
		c-2.3,0-3.5-0.8-3.5-2.3c0-0.7,0.3-1.4,0.8-1.9c0.5-0.5,1.2-1,2.2-1.5c0-0.4-0.1-0.6-0.2-0.8c-0.1-0.1-0.3-0.2-0.5-0.2
		c0,0,0,0-0.1,0c-0.5,0-1.2,0.4-1.9,1c-0.4,0.4-0.9,0.9-1.4,1.5c-0.1,0.1-0.1,0.1-0.2,0.1c0,0-0.1,0-0.2-0.1
		c-0.4-0.4-0.7-0.7-0.8-0.9c0-0.1-0.1-0.1-0.1-0.1c0-0.1,0-0.1,0.1-0.2c1.3-1.1,2.2-2.3,2.9-3.5c-0.7,0-1.4,0-2.2,0
		c-0.1,0-0.2-0.1-0.2-0.2c0-0.2-0.1-0.6-0.1-1.2c0.4,0,0.9,0,1.4,0c0.6,0,1.2,0,1.8,0c0.2-0.4,0.3-0.8,0.4-1.2
		C198.9,1.8,199,1.5,199,1.2z"/>
	<path d="M212.5,14.1l-0.6-0.6L224.9,0l0.6,0.6L212.5,14.1z"/>
</g>
</svg>
