<?xml version="1.0" encoding="utf-8"?>
<!-- Generator: Adobe Illustrator 23.0.6, SVG Export Plug-In . SVG Version: 6.00 Build 0)  -->
<svg version="1.1" xmlns="http://www.w3.org/2000/svg" xmlns:xlink="http://www.w3.org/1999/xlink" x="0px" y="0px"
	 viewBox="0 0 608.7 521.5" style="enable-background:new 0 0 608.7 521.5;" xml:space="preserve">
<style type="text/css">
	.st0{display:none;}
	.st1{display:inline;}
	.st2{fill:#005BAC;}
	.st3{fill:none;stroke:#005BAC;stroke-width:8;stroke-miterlimit:10;}
	.st4{fill:#005BAC;stroke:#005BAC;stroke-width:9;stroke-miterlimit:10;}
	.st5{fill:#005BAC;stroke:#005BAC;stroke-width:7;stroke-miterlimit:10;}
	.st6{display:inline;fill:#005BAC;stroke:#005BAC;stroke-width:3;stroke-miterlimit:10;}
	.st7{display:none;fill:none;stroke:#005BAC;stroke-width:8;stroke-miterlimit:10;}
	.st8{fill:#FFF000;}
	.st9{display:none;fill:#FFF000;stroke:#FFF000;stroke-width:3;stroke-miterlimit:10;}
	.st10{fill:#FFFFFF;stroke:#FFFFFF;stroke-width:3;stroke-miterlimit:10;}
	.st11{display:none;fill:#FFFFFF;stroke:#FFFFFF;stroke-width:3;stroke-miterlimit:10;}
	.st12{display:inline;fill:#FFF000;}
	.st13{fill:#FFFFFF;}
	.st14{fill:#FFF000;stroke:#FFF000;stroke-width:3;stroke-miterlimit:10;}
	.st15{display:inline;fill:#FFFFFF;}
	.st16{fill:none;stroke:#005BAC;stroke-width:7;stroke-linecap:round;stroke-linejoin:round;stroke-miterlimit:10;}
	.st17{fill:none;stroke:#005BAC;stroke-width:9;stroke-linecap:round;stroke-linejoin:round;stroke-miterlimit:10;}
</style>
<g id="レイヤー_1" class="st0">
	
		<image style="display:inline;overflow:visible;opacity:0.29;" width="2976" height="3968" xlink:href="IMG_20191124_134718.jpg"  transform="matrix(0.251 0 0 0.251 -83.2665 -197.4705)">
	</image>
	<g id="レイヤー_2" class="st1">
	</g>
</g>
<g id="body">
	<g id="body_1_">
		<g class="st0">
			<g class="st1">
				<path class="st2" d="M313.7,300c0.2,3.1,0.8,6,1.6,9c0.3,1.3,0.6,2.6,0.9,3.9c0.1,0.7,0.3,1.5,0.4,2.2c0.1,0.6-0.1-1.1,0-0.2
					c0,0.2,0,0.4,0.1,0.6c0.1,0.5,0.1,1,0.1,1.6c0.2,2.3,1.9,4.6,4.5,4.5c2.3-0.1,4.7-2,4.5-4.5c-0.3-3.4-0.8-6.7-1.6-10
					c-0.3-1.2-0.6-2.4-0.9-3.7c-0.1-0.6-0.2-1.3-0.3-1.9c-0.1-0.8-0.1,0.2,0,0.4c-0.1-0.1,0-0.4-0.1-0.5c0-0.4-0.1-0.9-0.1-1.3
					c-0.2-2.3-1.9-4.6-4.5-4.5C316,295.6,313.5,297.5,313.7,300L313.7,300z"/>
			</g>
		</g>
		<g>
			<g>
				<path class="st2" d="M268.6,409.6c-0.4,12.1,0.3,24.3,2.8,36.1c0.7,3.2,1.5,6.4,2.7,9.4c0.9,2.2,1.9,4.8,4,6
					c4.5,2.8,9.8,0.1,13.3-3.1c3.5-3.1,6.2-7.3,8.5-11.3c3.3-5.8,6-12,8.9-18.1c2.1-4.4,4.2-8.9,6.9-13c0.2-0.3,0.5-0.7,0.7-1
					c0.2-0.3,0.7-0.7-0.2,0.3c0.2-0.2,0.3-0.4,0.5-0.6c0.5-0.6,1-1.2,1.6-1.7c0.3-0.2,0.5-0.4,0.8-0.7c0.6-0.5-1,0.7-0.4,0.3
					c0.2-0.1,0.4-0.3,0.5-0.4c0.6-0.4,1.2-0.8,1.9-1.1c2.1-1.1,2.9-4.2,1.6-6.2c-1.4-2.2-3.9-2.7-6.2-1.6
					c-6.3,3.1-9.9,9.6-12.9,15.6c-2.6,5.1-5,10.3-7.4,15.4c-1.5,3.1-3,6.1-4.7,9.1c-0.6,1-1.2,2-1.9,3c-0.4,0.5-0.7,1-1.1,1.6
					c-0.1,0.2-0.2,0.3-0.4,0.5c-0.8,1,0.3-0.4-0.2,0.2c-1.1,1.3-2.2,2.5-3.4,3.6c-1,0.9,0.8-0.5-0.1,0.1c-0.2,0.1-0.4,0.3-0.7,0.4
					c-0.2,0.1-0.4,0.3-0.6,0.4c-0.6,0.3-1.4,0.4,0.1,0c-0.4,0.1-0.7,0.2-1.1,0.3c-0.6,0.2-1-0.1,0.5,0c-0.2,0-0.3,0-0.5,0
					c-0.1,0-0.3,0-0.4,0c-0.8,0,1.3,0.3,0.7,0.1c-0.2-0.1-0.4-0.2-0.6-0.2c1.5,0.2,1.1,0.6,0.6,0.2c-0.3-0.2,1.2,1,0.6,0.4
					c-0.5-0.5,0.8,1.1,0.4,0.5c-0.1-0.1-0.2-0.2-0.2-0.4c-0.2-0.4-0.4-0.8-0.6-1.2c-0.1-0.2-0.2-0.4-0.3-0.6
					c0.8,1.6,0.2,0.5,0.1,0.1c-0.2-0.6-0.4-1.2-0.6-1.8c-0.5-1.6-0.9-3.1-1.3-4.7c-0.5-2.3-1-4.5-1.4-6.8c-0.1-0.7-0.2-1.4-0.3-2
					c0-0.2-0.1-0.4-0.1-0.6c0-0.2-0.1-0.4-0.1-0.7c0.1,0.6,0.1,0.7,0,0.2c-0.2-1.5-0.4-3-0.5-4.4c-0.7-7.2-0.8-14.5-0.6-21.7
					c0.1-2.4-2.1-4.6-4.5-4.5C270.6,405.2,268.7,407,268.6,409.6L268.6,409.6z"/>
			</g>
		</g>
		<g class="st0">
			<g class="st1">
				<path class="st2" d="M110.5,336.9c1.2,1.9,2.2,3.8,3.2,5.8c0.5,1,1,2,1.4,3c0.2,0.5,0.4,1,0.6,1.4c0.1,0.3,0.2,0.5,0.3,0.8
					c0.1,0.2,0.5,1.2,0.1,0.2c1.7,4.1,3.3,8.4,4.9,12.6c3.2,8.5,6.4,17.2,11.7,24.8c3.1,4.5,6.8,8.3,11.2,11.5
					c1.9,1.4,5.1,0.4,6.2-1.6c1.2-2.3,0.4-4.7-1.6-6.2c-0.2-0.2-0.4-0.3-0.7-0.5c-0.6-0.4,0.8,0.7,0,0c-0.3-0.3-0.7-0.6-1-0.8
					c-0.8-0.7-1.6-1.5-2.4-2.3c-0.7-0.7-1.3-1.4-2-2.2c-0.2-0.2-1.3-1.6-0.5-0.6c-0.3-0.4-0.7-0.9-1-1.3c-2.5-3.5-4.5-7.3-6.3-11.2
					c-0.4-0.9-0.9-1.9-1.3-2.9c-0.1-0.2-0.3-0.8,0,0.1c-0.1-0.2-0.2-0.4-0.3-0.6c-0.2-0.6-0.5-1.2-0.7-1.8c-0.8-2.1-1.6-4.2-2.4-6.3
					c-1.6-4.1-3.1-8.3-4.8-12.4c-2-4.8-4.1-9.6-6.9-14c-1.2-2-4.1-3-6.2-1.6C110.2,332,109.2,334.7,110.5,336.9L110.5,336.9z"/>
			</g>
		</g>
		<path class="st3" d="M270,411.8c0,0-46.2,8.4-52.8,15c-9.9,9.9-22.8,73.2-22.9,73.9l-10.6,73.9l-12.3,36.1"/>
		<g>
			<g>
				<path class="st2" d="M155.2,623.4c11.7,0.4,23.5,0.8,35.2-0.5c6-0.6,12.1-1.6,17.9-3.6c5.3-1.9,10.2-4.4,13.6-8.9
					c2.9-3.8,4.4-8.7,5.5-13.3c1.2-5.2,1.8-10.6,2.4-15.9c0.1-1.2,0.3-2.4,0.4-3.6c0.1-0.6,0.1-1.1,0.2-1.7c0-0.3,0.1-0.5,0.1-0.8
					c0-0.2,0.2-1.2,0.1-0.4c-0.1,0.8,0-0.1,0-0.3c0-0.3,0.1-0.6,0.1-0.8c0.1-0.5,0.2-1,0.2-1.5c0.2-0.9,0.4-1.9,0.6-2.8
					c0.2-0.8,0.4-1.5,0.7-2.3c0.3-0.9-0.6,1.1,0,0.1c0.2-0.3,0.3-0.6,0.5-0.9c0.3-0.6-0.3,0.4-0.4,0.5c0.2-0.3,0.4-0.5,0.6-0.8
					c0.7-0.9,1.3-1.7,1.9-2.6c0.9-1.3,1.7-2.6,2.4-3.9c5-9,7.8-19.3,9.2-29.5c0.1-0.8,0.2-1.6,0.3-2.4c0.3-2.3-2.3-4.6-4.5-4.5
					c-2.7,0.1-4.2,2-4.5,4.5c0,0.2,0,0.3-0.1,0.5c0,0.1,0,0.2,0,0.3c-0.1,0.8,0.2-1.1,0.1-0.6c-0.1,0.7-0.2,1.4-0.3,2.1
					c-0.3,2-0.7,4.1-1.2,6.1c-0.6,2.6-1.3,5.2-2.1,7.8c-0.4,1.4-0.9,2.7-1.4,4c-0.3,0.7-0.5,1.4-0.8,2.1c-0.3,0.8,0.3-0.6-0.1,0.2
					c-0.2,0.4-0.3,0.8-0.5,1.1c-1.3,2.7-2.7,5.4-4.4,7.8c-0.2,0.3-0.4,0.6-0.6,0.8c-0.5,0.7,0.4-0.5-0.1,0.2
					c-0.5,0.6-0.9,1.1-1.3,1.7c-0.5,0.8-0.9,1.7-1.2,2.6c-1.5,3.8-1.8,8-2.3,12c-0.3,2.3-0.5,4.7-0.8,7c-0.1,0.6-0.1,1.1-0.2,1.7
					c0,0.3-0.1,0.6-0.1,0.9c0,0.2-0.2,1.5-0.1,0.7c0.1-0.7,0,0.2-0.1,0.4c0,0.3-0.1,0.6-0.1,0.9c-0.1,0.6-0.2,1.3-0.3,1.9
					c-0.4,2.4-0.9,4.8-1.5,7.1c-0.3,1.1-0.7,2.3-1,3.4c-0.1,0.2-0.2,0.5-0.3,0.7c-0.1,0.2-0.4,1-0.1,0.3c0.3-0.7-0.1,0.3-0.2,0.4
					c-0.1,0.3-0.2,0.5-0.4,0.8c-0.5,0.9-1,1.8-1.5,2.6c-0.1,0.2-0.3,0.4-0.4,0.6c0,0,0.7-0.9,0.3-0.4c-0.1,0.1-0.1,0.2-0.2,0.3
					c-0.3,0.4-0.7,0.7-1,1.1c-0.2,0.2-0.3,0.3-0.5,0.4c-0.6,0.5-0.1-0.1,0.2-0.2c-0.4,0.1-1.2,0.8-1.5,1c-1,0.6-2,1.2-3.1,1.7
					c-0.3,0.1-0.5,0.2-0.8,0.4c-0.5,0.2,0.4-0.2,0.4-0.2c-0.1,0.1-0.3,0.1-0.4,0.2c-0.7,0.3-1.3,0.5-2,0.7c-1.3,0.4-2.5,0.8-3.8,1.1
					c-2.8,0.7-5.7,1.3-8.6,1.7c-0.9,0.1,0.7-0.1-0.2,0c-0.3,0-0.7,0.1-1,0.1c-0.8,0.1-1.5,0.2-2.3,0.2c-1.5,0.2-3.1,0.3-4.6,0.4
					c-3,0.2-6.1,0.3-9.1,0.4c-5.6,0.1-11.2,0-16.8-0.2c-1.2,0-2.4-0.1-3.7-0.1c-2.4-0.1-4.6,2.1-4.5,4.5
					C150.8,621.4,152.7,623.3,155.2,623.4L155.2,623.4z"/>
			</g>
		</g>
		<g>
			<g>
				<path class="st2" d="M225.6,485.5c0.9,5.6,3.1,11.2,4.9,16.5c2.7,8,5.6,16,8.4,24.1c2.6,7.6,5.2,15.2,7.1,22.9
					c0.4,1.5,0.7,2.9,1,4.4c0.1,0.6,0.2,1.2,0.3,1.7c0.2,1.3-0.1-1.1,0-0.1c0,0.3,0.1,0.6,0.1,0.9c0.3,3.7-0.1,7.5-0.3,11.2
					c-0.7,11.1-1.9,22.1-2.3,33.2c-0.1,2.4,2.1,4.6,4.5,4.5c2.5-0.1,4.4-2,4.5-4.5c0.3-9.9,1.4-19.7,2-29.5c0.3-4.5,0.7-9,0.6-13.5
					c0-2.7-0.6-5.5-1.2-8.2c-1.7-7.5-4.1-14.8-6.6-22c-2.8-8.3-5.7-16.5-8.5-24.7c-1.3-3.8-2.6-7.6-3.8-11.5c-0.8-2.6-1.6-5.2-2-7.9
					c-0.4-2.3-3.4-3.8-5.5-3.1C226.3,480.8,225.3,483,225.6,485.5L225.6,485.5z"/>
			</g>
		</g>
		<g class="st0">
			<g class="st1">
				<path class="st2" d="M319,320.9c3.2,1.5,6.2,3.2,9.5,4.5c7.8,3.3,15.9,6,24.1,8.2c6.4,1.8,12.8,3.3,19.2,4.8
					c3.3,0.7,6.6,1.4,9.7,2.4c0.7,0.2,1.5,0.5,2.2,0.8c0.4,0.1,0.7,0.3,1.1,0.4c1.2,0.5-0.8-0.4,0.4,0.2c1.4,0.6,2.9,1.3,4.3,2.1
					c2.8,1.5,5.5,3.2,8.1,5.1c0.1,0.1,1.1,0.9,0.4,0.3c0.3,0.2,0.6,0.5,0.9,0.7c0.6,0.5,1.2,1,1.8,1.5c1.2,1.1,2.4,2.2,3.5,3.4
					c1,1.1,1.9,2.2,2.8,3.3c-0.6-0.8,0.1,0.2,0.2,0.3c0.2,0.3,0.4,0.6,0.6,0.9c0.5,0.7,0.9,1.4,1.4,2.1c1.7,2.8,3.5,5.4,5.5,8
					c7,8.9,16.1,15.8,24.8,23c1.7,1.4,3.5,2.9,5.1,4.5c1.3,1.3,2.4,2.7,3.7,4c3.9,4.1,9.3,1,12.7-1.9c4.5-3.9,8.1-8.9,11.5-13.7
					c4.3-6.1,8.2-12.5,11.8-19c3.1-5.7,6-11.6,8.3-17.7c0.4-1.1,0.8-2.2,1.2-3.3c0.2-0.6,0.4-1.1,0.5-1.7c0.1-0.3,0.2-0.6,0.2-0.8
					c0.2-0.7-0.6,1.2-0.3,0.7c0.4-0.6-0.9,1-0.4,0.5c0.4-0.4-1.2,0.8-0.4,0.4c0.1-0.1-1.4,0.4-0.4,0.2c0.1,0,0.2,0,0.3-0.1
					c0.8-0.2-1.3,0.1-0.6,0.1c0.5,0,1,0,1.5,0c0.3,0,0.6,0.1,0.9,0.1c0.7,0.1-1.3-0.2-0.5-0.1c0.2,0,0.5,0.1,0.7,0.1
					c1.6,0.3,3.1,0.7,4.7,1.1c3.7,1.1,7.3,2.4,10.9,3.8c3.5,1.3,6.9,2.7,10.4,4.1c2.2,0.9,4.5,1.9,6.8,2.3c2,0.4,3.9,0.3,5.4-1.2
					c1.7-1.6,1.8-4.8,0-6.4c-1.8-1.7-4.5-1.7-6.4,0c0.9-0.9,1.7-1.1,2.9-1.2c-0.1,0-0.2,0-0.4,0c1.6,0,0.8,0.1,0.1-0.1
					c-1.1-0.3-2.2-0.7-3.2-1.1c-3.2-1.2-6.4-2.5-9.5-3.7c-6.9-2.7-14-5.8-21.4-6.7c-3.2-0.4-6.9,0.1-8.8,3c-1.1,1.7-1.5,4.1-2.2,6
					c-0.4,1.1-0.8,2.3-1.3,3.4c-0.1,0.3-0.3,0.6-0.4,1c0.4-1.1,0,0.1-0.1,0.2c-0.3,0.7-0.6,1.3-0.9,2c-2.9,6.3-6.3,12.5-9.9,18.4
					c-1.9,3.1-3.9,6.2-6,9.3c-0.9,1.3-1.8,2.6-2.7,3.9c-0.5,0.7-1,1.3-1.5,2c-0.8,1.1,0.5-0.7-0.3,0.3c-0.3,0.4-0.6,0.8-1,1.2
					c-1.7,2-3.4,4-5.3,5.8c-0.3,0.3-0.7,0.6-1,0.9c-0.8,0.7,0.1-0.1,0.1-0.1c0,0-0.5,0.4-0.6,0.4c-0.3,0.2-0.7,0.4-1,0.6
					c-0.9,0.5,1.2-0.3,0,0c-1.2,0.3,1.1,0,0.2,0c-0.7,0,1.3,0.3,0.7,0.1c-0.6-0.2,1.2,0.6,0.6,0.3c-0.6-0.3,0.3-0.1,0.5,0.4
					c0-0.1-0.2-0.2-0.3-0.3c-0.2-0.3-0.5-0.7-0.8-1c-1.3-1.5-2.8-2.9-4.3-4.2c-8-7.2-16.8-13.4-24.2-21.3c-1-1.1-2-2.2-3-3.3
					c-0.4-0.5-0.9-1.1-1.3-1.6c-0.5-0.6,0.6,0.8-0.1-0.1c-0.3-0.4-0.6-0.8-0.9-1.2c-1.7-2.4-3.1-5-4.8-7.4
					c-3.9-5.5-8.8-10.1-14.4-14c-5.3-3.7-11.1-6.6-17.3-8.7c-3.2-1.1-6.5-1.7-9.8-2.4c-3.4-0.8-6.9-1.6-10.3-2.4
					c-9.3-2.3-18.5-4.9-27.5-8.4c-0.7-0.3-1.5-0.6-2.2-0.9c-0.3-0.1-0.6-0.2-0.9-0.3c-0.2-0.1-0.3-0.1-0.5-0.2
					c-0.7-0.3,1.2,0.5,0.3,0.1c-1.1-0.5-2.2-1-3.3-1.5c-1.5-0.7-3-1.5-4.5-2.2c-0.5-0.2-0.9-0.5-1.4-0.7c-2.1-1-5-0.7-6.2,1.6
					C316.3,316.8,316.7,319.8,319,320.9L319,320.9z"/>
			</g>
		</g>
		<g class="st0">
			<g class="st1">
				<path class="st2" d="M373.7,413c-0.6,14.2-1.1,28.4-1.5,42.6c-0.5,16.4-0.9,32.8-0.9,49.2c0,5.7-0.1,11.5,0.4,17.3
					c0.2,2.3,1.9,4.6,4.5,4.5c2.3-0.1,4.7-2,4.5-4.5c-0.4-4.9-0.4-9.8-0.4-14.7c0-7.6,0.1-15.1,0.2-22.7c0.3-16.9,0.8-33.7,1.4-50.6
					c0.2-7,0.5-14,0.8-21c0.1-2.4-2.1-4.6-4.5-4.5C375.7,408.6,373.8,410.5,373.7,413L373.7,413z"/>
			</g>
		</g>
		<g class="st0">
			<g class="st1">
				<path class="st2" d="M375.1,427.2c1,1.2,2.5,2.1,3.8,3c2,1.5,4.1,2.9,6.3,4.2c6.1,3.9,12.3,7.7,18.6,11.3
					c6.8,3.9,13.7,7.6,20.8,10.8c5.5,2.5,11.4,5.3,17.6,5.9c2.6,0.2,5.3-0.4,7.8-0.9c5-1.1,9.8-2.7,14.5-4.8
					c5.5-2.4,10.4-5.6,15.3-9.1c4.9-3.5,9.7-7.1,14.3-11.1c6.3-5.6,11.1-12.5,15.2-19.8c4.5-8,8.3-16.5,11.8-25
					c5-12.2,9.4-24.7,13.3-37.4c0.1-0.4,0.2-0.8,0.4-1.2c0.7-2.2-0.8-5-3.1-5.5c-2.4-0.6-4.8,0.7-5.5,3.1
					c-3.3,10.7-6.8,21.2-10.9,31.7c-0.8,2-1.6,4-2.4,6c-0.4,1-0.8,1.9-1.2,2.9c0.5-1.2-0.2,0.4-0.3,0.7c-0.2,0.6-0.5,1.2-0.8,1.7
					c-1.8,4-3.6,8-5.6,12c-1.9,3.8-4,7.5-6.2,11.2c-1,1.6-2.1,3.2-3.2,4.8c-0.3,0.4-0.5,0.7-0.8,1c-0.8,1,0.5-0.7-0.2,0.3
					c-0.6,0.7-1.1,1.4-1.7,2.1c-3.3,3.8-7.2,6.9-11.1,10c0.7-0.6-0.3,0.3-0.4,0.3c-0.3,0.2-0.5,0.4-0.8,0.6
					c-0.6,0.4-1.2,0.9-1.8,1.3c-1.1,0.8-2.3,1.7-3.4,2.5c-2.3,1.6-4.5,3.3-6.9,4.8c-2.6,1.6-5.2,3-8,4.2c0,0-1.2,0.5-0.6,0.2
					c0.6-0.3-0.6,0.2-0.5,0.2c-0.6,0.2-1.2,0.5-1.8,0.7c-1.2,0.5-2.5,0.9-3.7,1.3c-2,0.6-4,1.2-6,1.6c-0.8,0.2-1.6,0.3-2.4,0.5
					c-0.3,0.1-0.6,0.1-0.9,0.1c-0.8,0.1,1.4-0.2,0.1,0c-0.8,0.1-1.6,0.1-2.4,0c-0.9-0.1,1.3,0.2,0.4,0.1c-0.2,0-0.5-0.1-0.7-0.1
					c-0.6-0.1-1.1-0.2-1.7-0.4c-1.2-0.3-2.5-0.7-3.7-1.2c-0.6-0.2-1.3-0.5-1.9-0.7c-0.7-0.3-1.5-0.8-2.3-0.9
					c1.1,0.2,0.7,0.3,0.2,0.1c-0.1-0.1-0.3-0.1-0.4-0.2c-0.4-0.2-0.7-0.3-1.1-0.5c-0.8-0.4-1.6-0.7-2.5-1.1c-1.7-0.8-3.4-1.6-5-2.4
					c-3.5-1.8-7-3.6-10.4-5.5c-6.6-3.6-13.1-7.4-19.4-11.4c-2.5-1.6-5-3.1-7.4-4.8c-0.9-0.6-1.8-1.2-2.7-1.9c-0.3-0.2-0.7-0.5-1-0.7
					c-0.8-0.6,0.6,0.5,0.4,0.3c-0.1-0.1-0.3-0.2-0.4-0.4c-0.3-0.3-0.7-0.6-0.9-0.9c-1.4-1.9-4.9-1.6-6.4,0
					C373.2,422.8,373.5,425.2,375.1,427.2L375.1,427.2z"/>
			</g>
		</g>
		<g>
			<g>
				<path class="st2" d="M317.6,411.3c6.9,1.6,13.8,3.3,20.6,5c13.6,3.5,27.2,7.2,40.5,11.7c5.5,1.8,10.8,3.9,16.3,5.7
					c1.9,0.6,3.9,1.2,5.8,1.9c0.8,0.3,1.7,0.6,2.5,0.9c0.8,0.3-0.7-0.3-0.4-0.2c0.2,0.1,0.3,0.1,0.5,0.2c0.4,0.2,0.7,0.3,1.1,0.5
					c0.7,0.3,1.3,0.7,1.9,1.1c0.2,0.1,1.2,0.9,0.4,0.3c-0.7-0.6,0.2,0.2,0.4,0.4c0.5,0.5,1,1,1.5,1.6c0.5,0.6-0.4-0.5-0.3-0.4
					c0.1,0.2,0.2,0.3,0.3,0.4c0.2,0.4,0.5,0.7,0.7,1.1c0.4,0.7,0.8,1.5,1.2,2.3c0.4,0.8-0.4-0.9-0.1-0.3c0.1,0.2,0.2,0.4,0.3,0.6
					c0.2,0.5,0.4,1,0.6,1.6c0.8,2.4,1.4,4.8,1.9,7.2c0.7,3.3,1.3,6.5,1.8,9.8c0.1,0.9,0.3,1.8,0.4,2.8c0,0.3,0.1,0.6,0.1,0.9
					c0.1,0.6-0.2-1.3-0.1-0.4c0.1,0.9,0.2,1.8,0.3,2.7c0.4,4.7,0.4,9.5,0.4,14.2c-0.1,12.5-0.6,25-1.2,37.4
					c-0.5,10.7-1.1,21.4-1.3,32.1c-0.1,6.6,0.2,13.1,0.2,19.7c0,1.3,0,2.6-0.1,3.9c0,0.5-0.1,1.1-0.1,1.6c0,0.3-0.1,0.5-0.1,0.8
					c-0.1,1.1,0.1-0.7,0-0.1c-0.2,1-0.4,1.9-0.6,2.8c-0.1,0.2-0.1,0.4-0.2,0.6c0,0.1-0.1,0.2-0.1,0.3c-0.2,0.6,0.3-0.6,0.2-0.6
					c-0.2,0.4-0.4,0.9-0.6,1.3c-0.2,0.4-0.4,0.7-0.7,1.1c-0.5,0.7,0.4-0.4,0.2-0.2c-0.2,0.2-0.3,0.4-0.5,0.6
					c-0.7,0.8-1.5,1.5-2.2,2.3c-1.9,1.9-3.9,3.7-5.9,5.4c-4.6,4.1-9.4,8-14.3,11.8c-0.6,0.5-1.2,0.9-1.8,1.4
					c-0.3,0.2-0.6,0.5-0.9,0.7c-0.1,0.1-0.7,0.5-0.2,0.1c0.5-0.4-0.1,0.1-0.2,0.1c-1.2,1-2.5,1.9-3.7,2.8c-2.3,1.7-4.6,3.4-6.9,5
					c-3.3,2.3-6.7,4.8-10.4,6.6c-0.1,0.1-0.3,0.1-0.4,0.2c-0.7,0.3,0.4-0.2,0.6-0.2c-0.2,0.1-0.5,0.2-0.7,0.3c-0.6,0.2-0.8,0,0.6,0
					c-0.1,0-0.1,0-0.2,0c0.8,0,1.2,0.2,2,0.6c-2.1-1-4.9-0.7-6.2,1.6c-1,2-0.7,5.1,1.6,6.2c3.8,1.7,7.4-0.7,10.6-2.7
					c4.4-2.7,8.6-5.8,12.8-8.9c10-7.5,20-15.3,29.1-23.9c3.5-3.3,6.4-6.7,7.4-11.4c1.2-5.6,0.8-11.5,0.7-17.1
					c-0.2-11.3,0.2-22.5,0.7-33.8c0.6-12.9,1.3-25.9,1.6-38.8c0.3-10.4,0.4-20.9-1.2-31.2c-0.9-5.9-1.9-12-3.8-17.7
					c-1.3-3.9-3.1-7.7-6-10.6c-2.8-2.7-6.2-4.3-9.8-5.6c-4.2-1.5-8.5-2.7-12.7-4.2c-6.5-2.3-12.9-4.6-19.4-6.6
					c-7-2.2-14.1-4.2-21.2-6.1c-9.8-2.6-19.6-5.1-29.4-7.4c-0.5-0.1-1-0.2-1.5-0.4c-2.3-0.5-5,0.7-5.5,3.1
					C314,408,315.2,410.7,317.6,411.3L317.6,411.3z"/>
			</g>
		</g>
		<g>
			<g>
				<path class="st2" d="M364.6,485.5c0.3,1,0.5,1.9,0.6,2.9c0,0.3,0.1,0.6,0.1,0.8c0.1,0.7,0,0.4,0-0.2c0,0.6,0.1,1.2,0.2,1.8
					c0.3,2.7,0.4,5.5,0.4,8.2c0.1,6.1-0.2,12.3-0.5,18.4c-0.3,5.7-0.7,11.4-0.9,17.2c-0.1,2-0.1,4.1-0.2,6.1c0,0.2-0.1,0.5,0,0.7
					c0,0.5,0.2-1.3,0.1-0.8c0,0.1,0,0.3-0.1,0.5c-0.1,0.6-0.2,1.2-0.4,1.7c-0.4,1.4-0.9,2.9-1.4,4.3c-0.3,0.8-0.6,1.7-1,2.5
					c-0.2,0.4-0.3,0.9-0.5,1.3c-0.1,0.2-0.2,0.5-0.3,0.7c0,0.1,0.4-1,0.2-0.6c-0.1,0.2-0.1,0.3-0.2,0.5c-1.8,4.2-3.8,8.3-5.8,12.4
					c-4.6,9.1-9.6,18-15.1,26.6c-2.3,3.6-4.7,7.2-7.3,10.6c-0.1,0.2-0.7,0.9-0.1,0.2c0.5-0.7,0-0.1-0.1,0.1c-0.3,0.3-0.6,0.7-0.8,1
					c-0.5,0.6-1,1.3-1.6,1.9c-0.8,0.9-1.9,1.7-2.7,2.6c-0.2,0.2,1.1-0.8,0.6-0.4c-0.1,0.1-0.2,0.1-0.3,0.2c-0.2,0.1-0.4,0.2-0.6,0.3
					c-2.1,1.1-2.9,4.1-1.6,6.2c1.3,2.1,4,2.8,6.2,1.6c2.5-1.4,4.5-3.7,6.3-5.9c2.8-3.4,5.3-6.9,7.7-10.5
					c5.7-8.6,10.8-17.5,15.5-26.6c4.1-7.9,8.2-16,11-24.6c0.9-2.9,1.3-5.8,1.4-8.8c0.1-5.4,0.5-10.8,0.8-16.2
					c0.4-6.3,0.7-12.7,0.7-19c0-5.7-0.1-11.4-1-17.1c-0.2-1-0.4-2-0.7-3c-0.6-2.3-3.2-3.9-5.5-3.1
					C365.4,480.7,363.9,483.1,364.6,485.5L364.6,485.5z"/>
			</g>
		</g>
		<line class="st4" x1="317.6" y1="362.9" x2="336" y2="412.8"/>
		<path class="st5" d="M263.5,390.6"/>
		<path class="st5" d="M265.1,398.4"/>
	</g>
	<g id="cloth" class="st0">
		<polygon class="st6" points="437.2,526 380.2,526 380.2,468 362.2,410 366.2,344 394.2,354 415.2,392 427.2,448 		"/>
		<path class="st6" d="M355.2,526h-127l-4-63l-1.1-4.4c-6.3-9.1-13.2-17.5-14.9-28.6c-1.7-11.2,1-25.9,6-36l5-12l19-49l45,26l62-24
			l21,5l-5,96L355.2,526z"/>
		<polygon class="st6" points="238.2,333 205.2,347 174.2,381 146.2,393 136.2,444.1 187.1,432.1 203.2,424 216.2,389 		"/>
		<polygon class="st6" points="156.2,418 133.2,444 108.2,420 78.2,353 113.2,340 		"/>
	</g>
	<g id="hand">
		<g class="st0">
			<g class="st1">
				<path class="st2" d="M88.2,347.5c0-5.4-1.8-10.5-2.7-15.7c-0.2-1-1.2-2.2-2.1-2.7c-1-0.6-2.4-0.8-3.5-0.5
					c-1.1,0.4-2.1,1-2.7,2.1c-0.6,1.1-0.7,2.2-0.5,3.5c0.6,3.8,1.8,7.4,2.3,11.2c-0.1-0.4-0.1-0.8-0.2-1.2c0.1,1.1,0.2,2.2,0.2,3.3
					c0,2.4,2.1,4.6,4.5,4.5C86.2,351.9,88.2,350.1,88.2,347.5L88.2,347.5z"/>
			</g>
		</g>
		<g class="st0">
			<g class="st1">
				<path class="st2" d="M44.4,283.7c-4.1-1.5-8.3,0.3-11.6,2.9c-1.1,0.9-2,1.8-2.9,2.9c-1.1,1.4-2.1,2.7-2.4,4.5
					c-0.5,4,2.6,7.3,5.1,10c2.4,2.6,4.9,4.9,7.7,7c3.7,2.7,8.1,4.8,12.6,5.5c2.3,0.4,5-0.6,5.5-3.1c0.5-2.1-0.7-5.2-3.1-5.5
					c-1.6-0.2-3.2-0.7-4.7-1.2c-0.2-0.1-0.4-0.1-0.5-0.2c0.1,0,0.6,0.3,0.2,0.1c-0.3-0.2-0.7-0.3-1-0.5c-0.7-0.4-1.5-0.8-2.2-1.2
					c-0.6-0.4-1.3-0.8-1.9-1.2c-0.3-0.2-0.6-0.4-0.9-0.6c0.7,0.5-0.1-0.1-0.4-0.3c-1.1-0.9-2.1-1.8-3-2.8c-0.9-0.9-1.7-1.8-2.6-2.7
					c-0.4-0.4-0.9-1.3-1.4-1.6c0,0,0.5,0.7,0.2,0.3c-0.1-0.1-0.2-0.2-0.3-0.4c-0.2-0.3-0.3-0.6-0.5-0.8c0-0.1-0.1-0.3-0.2-0.4
					c0,0,0.3,0.9,0.2,0.5c0-0.1-0.1-0.2-0.1-0.3c0-0.1,0.1,1.2,0.1,0.7c0-0.5-0.1,0.8-0.1,0.7c0,0-0.5,0.9-0.3,0.7
					c0.1-0.1,0.2-0.3,0.3-0.5c0.1-0.2,0.2-0.3,0.3-0.5c0.4-0.6-0.7,0.8-0.1,0.2c0.4-0.4,0.7-0.9,1.2-1.3c0.2-0.2,0.5-0.5,0.7-0.7
					c0.1-0.1,0.2-0.2,0.3-0.3c0.2-0.1,0.6-0.3,0.1-0.1c-0.5,0.2-0.1,0.1,0,0c0.2-0.1,0.3-0.2,0.5-0.3c0.3-0.2,0.6-0.3,0.9-0.5
					c0.4-0.3-0.4,0.2-0.4,0.2c0,0,0.5-0.2,0.6-0.2c0.1,0,0.3-0.1,0.4-0.1c0.4-0.2-0.8,0-0.3,0c0.1,0,1,0,1,0c-0.1,0.2-0.9-0.3-0.5,0
					c0.1,0.1,0.6,0.2,0.7,0.2c2.2,0.8,5-0.9,5.5-3.1C48.2,286.7,46.8,284.6,44.4,283.7L44.4,283.7z"/>
			</g>
		</g>
		<g class="st0">
			<g class="st1">
				<path class="st2" d="M101.5,292.1c-7.2-3.4-15.2-4.6-22.7-7.2c-0.3-0.1-2.1-0.5-2.2-0.8c0.1,0.1,0.8,0.4,0.2,0.1
					c-0.2-0.1-0.5-0.2-0.7-0.3c-0.6-0.3-1.2-0.6-1.8-0.9c-2-1.1-4-2.3-6-3.4c-0.9-0.5-1.9-1-2.8-1.4c-0.5-0.2-0.9-0.4-1.4-0.6
					c-0.7-0.3,0.9,0.5,0.4,0.2c-0.3-0.2-0.7-0.3-1-0.5c-1.5-0.8-3-1.8-4.5-2.6c-3.1-1.8-6.8-4.1-10.5-3.6c-5.3,0.6-10.3,3.9-12.2,9
					c-1.8,4.9,2.5,9,6.3,11.4c2,1.3,4,2.7,6.1,3.9c4.6,2.8,9.4,5.4,14.2,7.9c2.3,1.2,4.8,2.6,7.3,3.3c0.8,0.2,1.6,0.3,2.5,0.4
					c0.9,0.1-1.3-0.3-0.3,0c0.3,0.1,0.7,0.2,1,0.3c2.3,0.7,5-0.8,5.5-3.1c0.5-2.4-0.7-4.8-3.1-5.5c-0.5-0.1-0.9-0.2-1.4-0.3
					c0.3,0-1.4-0.4-1.6-0.2c0,0-0.1,0-0.1,0c0.3,0,0.6,0.1,0.9,0.1c-0.1,0-0.3,0-0.4-0.1c-0.5-0.1-1-0.3-1.5-0.5
					c-0.2-0.1-0.7-0.3,0.2,0.1c-0.2-0.1-0.4-0.2-0.5-0.2c-0.6-0.3-1.3-0.6-1.9-0.9c-4.1-2-8-4.4-12-6.6c-2.9-1.6-5.8-3.4-8.5-5.3
					c-0.7-0.5-1.4-0.8-2-1.2c-0.3-0.2-0.7-0.4-1-0.7c0.6,0.6,0.1,0.1-0.2-0.2c-0.3-0.3-0.6-0.6-0.9-0.9c-0.4-0.3,0.3,0.3,0.2,0.3
					c-0.1,0-0.4-0.7-0.4-0.7c0,0,0.4,0.9,0.2,0.5c-0.1-0.5,0,0.8,0,1c0,0.7-0.1,0.3,0,0c0.4-0.7,0,0-0.1,0.1
					c0.1-0.2,0.9-1.3,0.2-0.5c0.3-0.4,0.6-0.7,1-1c0.6-0.6,0.1-0.1-0.1,0c0.2-0.1,0.4-0.3,0.6-0.4c0.4-0.2,0.7-0.4,1.1-0.6
					c0.5-0.3-0.7,0.2-0.1,0c0.2-0.1,0.3-0.1,0.5-0.2c0.2-0.1,0.4-0.1,0.7-0.2c0,0,1.1-0.3,0.4-0.1c-0.6,0.1,0.3,0,0.5,0
					c0.4,0-0.6,0-0.6-0.1c0,0,0.4,0.1,0.5,0.1c0.3,0.1,0.7,0.2,1,0.3c0.1,0,0.3,0.1,0.4,0.2c0.5,0.1-0.9-0.4-0.1,0
					c1.5,0.8,3,1.6,4.4,2.4c1.3,0.8,2.6,1.6,4,2.3c0.2,0.1,0.5,0.3,0.7,0.4c0.3,0.1,0.6,0.2,0.8,0.4c-0.4-0.2,1.3,0.5,0.5,0.2
					c-0.5-0.2,0.1,0,0.2,0.1c0.2,0.1,0.5,0.2,0.7,0.3c0.5,0.3,1.1,0.5,1.6,0.8c3.7,2,7.3,4.4,11.2,5.9c3.8,1.4,7.7,2.4,11.6,3.5
					c2,0.5,4,1.1,5.9,1.7c0.9,0.3,1.9,0.6,2.8,1c0.4,0.1,0.8,0.3,1.1,0.4c0.7,0.3-0.2-0.1-0.3-0.1c0.1,0.2,0.5,0.2,0.7,0.3
					c2.1,1,5,0.7,6.2-1.6C104.2,296.3,103.8,293.2,101.5,292.1L101.5,292.1z"/>
			</g>
		</g>
		<g class="st0">
			<g class="st1">
				<path class="st2" d="M55.2,307.5c-1,0.1-2,0.2-3.1,0.2c-0.9,0-1.7-0.1-2.6-0.2c-0.6-0.1-1.1-0.1-1.6-0.2c-0.2,0-1.3-0.2-0.2,0
					c-0.5-0.1-1-0.1-1.6-0.2c-1.4-0.2-2.8-0.4-4.1-0.8c-0.3-0.1-0.6-0.2-0.8-0.3c-1-0.3,0.9,0.5,0,0c-0.6-0.3-1.2-0.6-1.7-0.9
					c-2.1-1.2-4-2.6-6-4c-1.9-1.3-4.1-2.6-6.4-3.1c-3.2-0.7-6.1,0.1-8.6,2.2c-1.9,1.6-3.2,3.8-3.1,6.3c0.1,2,0.7,4.1,1.4,5.9
					c1.5,4,3.5,7.9,5.9,11.5c1,1.4,2,3,3.5,3.9c1.3,0.8,2.9,1.3,4.4,1.7c4.2,1.1,8.6,1.6,13,2.2c4.3,0.5,8.5,1,12.8,1.3
					c3.7,0.3,7.5,0.6,11.2,1c2.7,0.3,5.4,0.7,8.1,1c2,0.2,3.9,0.5,5.8,0.2c2.3-0.4,3.8-3.4,3.1-5.5c-0.8-2.5-3-3.6-5.5-3.1
					c2.1-0.4,0.4-0.1-0.3-0.2c-0.9-0.1-1.8-0.2-2.6-0.3c-2.2-0.2-4.3-0.5-6.5-0.8c-3.5-0.4-6.9-0.8-10.4-1.1
					c-3.6-0.3-7.3-0.6-10.9-1c-2.1-0.2-4.3-0.5-6.4-0.8c-1-0.1,1.1,0.2,0,0c-0.3,0-0.6-0.1-0.9-0.1c-0.5-0.1-0.9-0.1-1.4-0.2
					c-1.1-0.2-2.1-0.3-3.1-0.5c-1.6-0.3-3.2-0.6-4.7-1.1c-0.3-0.1-0.6-0.2-0.9-0.3c-0.1,0-0.2-0.1-0.4-0.1c-0.7-0.2,1.1,0.6,0.6,0.2
					c-0.2-0.1-0.4-0.2-0.5-0.3c-0.6-0.3,1,1,0.4,0.2c-0.1-0.2-0.3-0.3-0.4-0.5c1.1,1.2,0.4,0.5,0.1,0.1c-0.5-0.7-0.9-1.4-1.3-2.1
					c-1-1.6-1.9-3.3-2.8-5.1c-0.2-0.5-0.5-1-0.7-1.5c-0.1-0.3-0.7-1.8-0.2-0.4c-0.3-0.9-0.7-1.9-1-2.8c-0.1-0.4-0.2-0.7-0.3-1.1
					c-0.1-0.6-0.1-1.7-0.1-0.1c0-0.3,0-0.6,0-0.8c-0.1-0.9-0.3,1.3,0,0.3c-0.2,0.5-0.3,1-0.8,1.3c0.2-0.1,0.4-0.5,0.6-0.7
					c0.1-0.1,0.3-0.3,0.4-0.4c0.7-0.7-0.8,0.6-0.1,0.1c0.8-0.5,0,0.3-0.2,0c0,0,0.4-0.1,0.4-0.1c0.9-0.2-0.1,0.2-0.3,0
					c0,0,0.8,0,0.9,0c-0.1,0.1-1.2-0.3-0.5-0.1c0.2,0.1,0.4,0.1,0.7,0.2c0.2,0.1,0.4,0.2,0.7,0.2c0.7,0.2-0.3-0.1-0.4-0.2
					c0.3,0.3,1,0.5,1.4,0.7c0.5,0.3,1,0.6,1.4,0.9c2.1,1.4,4.1,2.9,6.3,4.2c2.7,1.6,5.5,2.4,8.6,2.9c3.9,0.6,7.9,1.3,11.9,0.8
					c2.3-0.3,4.6-1.9,4.5-4.5C59.6,309.8,57.7,307.2,55.2,307.5L55.2,307.5z"/>
			</g>
		</g>
		<g class="st0">
			<g class="st1">
				<path class="st2" d="M93.1,306.3c0.3-0.6-1,1.1-0.3,0.5c0.6-0.6-1.1,0.8-0.1,0.1c0.8-0.5,1.5-1,2.3-1.4c1.8-1.1,3.7-2.1,5.5-3.1
					c1.5-0.8,3-1.7,4.3-2.7c0.9-0.7,1.7-1.3,2.3-2.3c0.7-1.3,1-2.9,1.1-4.3c0.2-2.6-0.4-5.3-0.9-7.9c-0.2-1.1-0.4-2.3-0.7-3.4
					c-0.1-0.6-0.2-1.2-0.3-1.8c0-0.3,0-0.6-0.1-0.9c0.1,0.7,0.1,0.8,0.1,0.3c0-0.2,0-0.4-0.1-0.6c-0.1-0.9,0.1-1.9,0-2.8
					c0.2,1-0.2,0.9,0,0.3c0-0.1,0.2-0.5,0.2-0.6c0.1,0.6-1.3,1.8-1.7,2c0.6-0.4-1.3,0.3-0.6,0.3c0.3,0,0.6-0.1,0.8-0.2
					c0.7-0.2-1.3,0.1-0.5,0.1c0.2,0,0.4,0,0.6-0.1c1-0.1,2-0.1,3,0c0.5,0,1.2,0.2,1.7,0.2c-1,0.1-0.5-0.1,0,0
					c0.3,0.1,0.6,0.1,0.9,0.2c0.6,0.1,1.2,0.3,1.7,0.5c0.3,0.1,0.6,0.2,0.8,0.3c1,0.3-0.9-0.5,0,0c0.5,0.3,1,0.6,1.5,0.9
					c0.8,0.5-0.7-0.7,0,0c0.2,0.2,0.3,0.3,0.5,0.5c0.4,0.3,0,0.5-0.4-0.5c0,0.1,0.2,0.3,0.2,0.4c0.1,0.1,0.1,0.3,0.2,0.4
					c0.5,0.8-0.3-1-0.1-0.3c0.2,0.7,0.4,1.3,0.6,2c0.1,0.4,0.1,0.8,0.2,1.2c0.2,0.8-0.1-1.2,0-0.3c0,0.3,0.1,0.6,0.1,0.9
					c0.2,2,0.2,4.1,0.2,6.1c-0.1,4.4-0.5,8.7-1.1,13.1c0,0.2,0,0.3-0.1,0.5c-0.1,0.9,0.2-1.2,0-0.3c-0.1,0.4-0.1,0.9-0.2,1.3
					c-0.1,0.8-0.2,1.7-0.4,2.5c-0.2,1-0.3,2-0.5,3c0,0.1,0,0.3-0.1,0.4c-0.1,0.4-0.1,0.8-0.2,1.3c0-0.8,0.2-1.5,0.6-2.1
					c0,0,0,0.1-0.1,0.1c0,0,1-1.1,0.3-0.4c-0.2,0.2-0.5,0.5-0.7,0.7c-0.7,0.6-1.4,1.2-2.1,1.8c-0.4,0.3-0.7,0.6-1.1,0.9
					c-0.2,0.1-0.4,0.3-0.6,0.4c1.2-0.8,0.2-0.1-0.1,0.1c-1.7,1.3-3.5,2.6-5.4,3.8c-0.7,0.5-1.4,0.9-2.2,1.3c-0.5,0.3-1.5,0.5,0.2,0
					c-0.1,0-0.2,0.1-0.2,0.1c1.1-0.3,2.8-0.1,4,1.1c-1.7-1.7-4.7-1.8-6.4,0c-1.7,1.8-1.8,4.6,0,6.4c3.5,3.6,8.8-0.8,11.8-3
					c2-1.4,4-3,6-4.5c1.1-0.9,2.4-1.9,3.3-3c0.3-0.4,0.7-0.8,0.9-1.2c0.2-0.4,0.4-0.8,0.5-1.2c0-0.2,0.3-2.2,0.1-0.7
					c-0.2,1.2,0,0,0.1-0.3c0.2-1.3,0.4-2.6,0.6-4c0.7-4.7,1.3-9.3,1.6-14c0.3-4.7,0.4-9.4-0.5-14c-0.3-1.8-0.9-3.6-2-5.1
					c-1.9-2.6-4.7-4.2-7.8-5.2c-2.7-0.9-5.6-1.2-8.4-1.2c-2,0-4.5,0.1-6.2,1.2c-2.7,1.7-3.1,5.4-2.9,8.3c0.2,2.9,0.8,5.8,1.4,8.7
					c0.1,0.7,0.3,1.3,0.4,2c0.1,0.3,0.1,0.6,0.1,0.9c0,0.1,0,0.3,0.1,0.4c0.1,0.6-0.1-0.9,0-0.3c0,0.6,0.1,1.2,0.1,1.8
					c0,0.2,0,0.5,0,0.7c0,0.2-0.1,1.2,0,0.3c0.1-0.8,0,0-0.1,0.2c-0.1,0.7,0,0,0.2-0.3c0.1-0.1,1-1.1,0.3-0.4
					c-0.5,0.5,1-0.7,0.4-0.3c-0.1,0.1-0.3,0.2-0.4,0.3c-0.4,0.3-0.8,0.5-1.2,0.7c-3.5,2.1-7.4,3.9-10.7,6.3
					c-0.9,0.7-1.9,1.4-2.4,2.4c-1.1,2.1-0.6,5,1.6,6.2C89,309,92,308.5,93.1,306.3L93.1,306.3z"/>
			</g>
		</g>
		<g class="st0">
			<g class="st1">
				<path class="st2" d="M99.2,325.3c0,0.1,0.1,0.2,0.1,0.3c-0.2-0.4-0.3-0.7-0.5-1.1c1,2.3,1.9,4.7,2.8,7.1c0.5,1.4,1,2.7,1.5,4.1
					c0.3,0.8,0.6,1.6,0.8,2.5c0.5,2.3,3.3,3.9,5.5,3.1c2.5-0.8,3.6-3.1,3.1-5.5c-0.2-0.9-0.6-1.8-0.9-2.7c-0.5-1.5-1.1-2.9-1.6-4.4
					c-1-2.7-2-5.4-3.1-8c-0.4-1-1.7-1.8-2.7-2.1c-1.1-0.3-2.5-0.2-3.5,0.5c-1,0.6-1.8,1.5-2.1,2.7C98.4,323.1,98.7,324.1,99.2,325.3
					L99.2,325.3z"/>
			</g>
		</g>
		<g class="st0">
			<g class="st1">
				<path class="st2" d="M468.7,334.1c-4.8,7.7-7.9,16.4-11.1,24.9c-0.8,2-1.5,4.1-2.3,6.1c-0.4,1-0.8,2.1-1.2,3.1
					c-0.1,0.3-0.6,1.4-0.2,0.5c-0.3,0.6-0.5,1.2-0.8,1.8c-1.7,3.9-3.6,7.7-6,11.2c-0.3,0.5-0.7,1-1,1.5c-0.2,0.2-0.3,0.4-0.5,0.7
					c-0.2,0.2-0.8,1-0.1,0.1c-0.7,0.9-1.4,1.7-2.1,2.5c-0.8,0.9-1.7,1.7-2.6,2.5c-0.4,0.4-0.8,0.7-1.3,1.1c0,0-0.9,0.7-0.3,0.3
					c0.5-0.4-0.5,0.4-0.6,0.4c-1.9,1.4-3,4-1.6,6.2c1.2,1.9,4.1,3.1,6.2,1.6c15.5-11.1,20.2-30.4,27-47.2c0.1-0.3,0.3-0.7,0.4-1
					c0.1-0.2,0.5-1.2,0.1-0.2c0.2-0.5,0.5-1.1,0.7-1.6c0.5-1.2,1-2.3,1.6-3.5c1.1-2.2,2.3-4.4,3.6-6.6c1.2-2,0.5-5-1.6-6.2
					C472.6,331.3,470,331.9,468.7,334.1L468.7,334.1z"/>
			</g>
		</g>
		<path class="st7" d="M334.7,258.5l37,18.2l23,10c18.5,10.5,18.5,19.5,26,27c11.5,11.5,19.1,14.2,20,15l18,10"/>
		<g class="st0">
			<g class="st1">
				<path class="st2" d="M507.8,349.3c0-1.1,0.1-2.2,0.2-3.3c-0.1,0.4-0.1,0.8-0.2,1.2c0.5-3.8,1.6-7.4,2.3-11.2
					c0.2-1.2,0.2-2.4-0.5-3.5c-0.5-0.9-1.6-1.8-2.7-2.1c-2.2-0.5-5.1,0.7-5.5,3.1c-0.9,5.2-2.6,10.3-2.7,15.7c0,2.4,2.1,4.6,4.5,4.5
					C505.7,353.7,507.7,351.8,507.8,349.3L507.8,349.3z"/>
			</g>
		</g>
		<g class="st0">
			<g class="st1">
				<path class="st2" d="M545,294.1c0.1,0,0.9-0.3,0.9-0.3c0,0.1-1,0-0.5,0.1c0.1,0,0.3,0,0.4,0c0.1,0,0.3,0,0.4,0
					c0.5,0-0.5,0-0.5-0.1c0,0,0.9,0.3,1,0.3c0.5,0.1-0.4-0.1-0.4-0.2c0,0,0.4,0.2,0.4,0.2c0.3,0.1,0.5,0.3,0.8,0.4
					c0.2,0.1,1,0.5,0.4,0.2c-0.5-0.2-0.2-0.1,0,0c0.1,0.1,0.3,0.3,0.4,0.4c0.4,0.4,0.8,0.8,1.2,1.2c0.2,0.2,0.4,0.4,0.5,0.6
					c0.1,0.1,0.2,0.2,0.2,0.3c0.4,0.4-0.6-0.8-0.3-0.4c0.2,0.3,0.4,0.6,0.6,0.9c0.3,0.4-0.2-0.7-0.3-1c-0.1-0.7-0.1-0.5-0.1-0.2
					c0-0.1,0.2-1.2,0-0.6c-0.1,0.7,0.5-0.8,0.1-0.2c-0.1,0.2-0.3,0.5-0.4,0.7c-0.1,0.2-0.3,0.7-0.5,0.7c0,0,0.6-0.7,0.2-0.3
					c-0.1,0.2-0.3,0.3-0.4,0.5c-0.9,1-1.8,2-2.7,3c-0.9,1-1.8,1.9-2.8,2.7c-0.5,0.5-1.1,0.9-1.6,1.3c0.6-0.5,0,0-0.3,0.2
					c-0.4,0.3-0.7,0.5-1.1,0.7c-0.7,0.5-1.5,1-2.3,1.4c-0.4,0.2-0.8,0.4-1.2,0.6c-0.2,0.1-0.3,0.2-0.5,0.3c-0.1,0-0.8,0.4-0.3,0.2
					c0.5-0.2-0.1,0-0.2,0.1c-0.2,0.1-0.5,0.2-0.7,0.3c-0.4,0.2-0.9,0.3-1.3,0.4c-0.9,0.3-1.9,0.5-2.9,0.6c-2.3,0.4-3.8,3.4-3.1,5.5
					c0.8,2.5,3,3.5,5.5,3.1c7.7-1.2,14.3-6,19.5-11.5c2.4-2.6,5.4-5.5,5.9-9.1c0.5-3.4-2-6.3-4.3-8.4c-3.3-3.1-7.9-5.3-12.5-3.6
					c-2.2,0.8-3.9,3.1-3.1,5.5C540.1,293.1,542.6,295,545,294.1L545,294.1z"/>
			</g>
		</g>
		<g class="st0">
			<g class="st1">
				<path class="st2" d="M490,301.6c0.2-0.1,0.3-0.1,0.5-0.2c0.6-0.3-0.1,0.2-0.3,0.1c0.1,0.1,0.9-0.3,1-0.4
					c0.8-0.3,1.6-0.6,2.4-0.9c1.8-0.6,3.5-1.1,5.3-1.6c3.6-1,7.2-1.9,10.7-3.1c3.8-1.2,7.3-3.1,10.8-5.1c1.8-1,3.5-2,5.4-2.9
					c-0.9,0.5,0.6-0.2,1.1-0.4c0.2-0.1,0.5-0.2,0.7-0.4c0.7-0.4,1.4-0.8,2.1-1.2c1.4-0.8,2.8-1.7,4.2-2.5c0.7-0.4,1.4-0.8,2.1-1.1
					c1-0.5-0.6,0.2,0.2-0.1c0.4-0.1,0.8-0.3,1.2-0.4c0.2,0,0.3-0.1,0.5-0.1c0.5-0.2-1,0-0.5,0.1c0.1,0,0.8,0,0.7,0
					c0,0.1-1.1-0.3-0.2,0c0.2,0.1,0.4,0.1,0.7,0.2c0.3,0.1,1.4,0.6,0.6,0.2c0.4,0.2,0.8,0.4,1.3,0.7c0.1,0.1,0.3,0.2,0.4,0.3
					c0.5,0.3-0.5-0.5-0.1-0.1c0.3,0.3,0.6,0.6,0.9,0.9c0.6,0.6,0,0-0.1-0.1c0.1,0.2,0.3,0.5,0.4,0.7c0.3,0.5-0.2-0.7,0-0.1
					c0,0.1,0.1,0.4,0.2,0.5c-0.2-0.3-0.1-1.1,0-1.5c-0.1,0.6-0.1-0.2,0.2-0.4c-0.1,0-0.7,1.1-0.3,0.5c0.4-0.5,0,0-0.1,0.1
					c-0.2,0.2-0.4,0.4-0.6,0.6c-0.2,0.1-1,0.9-0.5,0.5c0.5-0.4-0.6,0.4-0.7,0.5c-0.5,0.3-1,0.6-1.5,0.9c-2.1,1.3-4,2.7-6.1,4
					c-4.4,2.6-8.9,5.1-13.5,7.5c-1.2,0.6-2.3,1.2-3.5,1.7c-0.1,0.1-0.9,0.4-0.3,0.1c0.6-0.2-0.2,0.1-0.3,0.1
					c-0.3,0.1-0.6,0.2-0.8,0.3c-0.2,0.1-0.5,0.1-0.7,0.1c0.1,0,1.3-0.2,0.4-0.1c-0.9,0.1-1.8,0.2-2.7,0.5c-2.3,0.7-3.9,3.2-3.1,5.5
					c0.7,2.3,3.1,3.8,5.5,3.1c0.3-0.1,0.6-0.2,0.9-0.2c0.1,0,0.2,0,0.3-0.1c0.6-0.2-0.8,0.1-0.7,0.1c0.8-0.1,1.6-0.2,2.4-0.3
					c2-0.5,4-1.5,5.9-2.5c4.4-2.2,8.7-4.7,13-7.1c2.7-1.5,5.2-3.3,7.8-5c3.1-2,6.8-4.3,7.8-8.1c1.4-5.5-4-10.2-8.5-12.1
					c-2.1-0.9-4.4-1.2-6.7-0.7c-1.9,0.4-3.7,1.3-5.4,2.1c-1.6,0.8-3.1,1.8-4.7,2.7c-0.7,0.4-1.3,0.8-2,1.2c-0.3,0.2-0.6,0.3-0.9,0.5
					c-0.2,0.1-0.7,0.3,0,0c0.5-0.2,0.5-0.2,0,0c-0.4,0.2-0.7,0.3-1.1,0.5c-2.1,0.9-4.1,2.1-6.1,3.2c-1,0.6-1.9,1.1-2.9,1.7
					c-0.5,0.3-0.9,0.5-1.4,0.8c-0.2,0.1-0.5,0.2-0.7,0.3c-0.1,0.1-1.1,0.5-0.4,0.2c0.6-0.3,0,0-0.1,0c-0.2,0.1-0.4,0.2-0.7,0.3
					c-0.5,0.2-0.9,0.3-1.4,0.5c-1,0.3-2,0.6-3,0.9c-2.2,0.6-4.3,1.2-6.5,1.8c-4.4,1.2-8.8,2.4-12.9,4.3c-2.1,1-2.9,4.2-1.6,6.2
					C485.3,302.2,487.7,302.7,490,301.6L490,301.6z"/>
			</g>
		</g>
		<g class="st0">
			<g class="st1">
				<path class="st2" d="M531.8,318.3c3.2,0.4,6.4,0,9.6-0.4c3.1-0.4,5.9-0.9,8.8-2.1c2.1-0.9,3.9-2.2,5.8-3.5
					c1.8-1.2,3.6-2.3,5.4-3.4c0.5-0.3-1.1,0.4-0.3,0.1c0.2-0.1,0.4-0.2,0.7-0.2c0.2-0.1,0.4-0.1,0.7-0.2c0.6-0.2-0.2,0.4-0.5,0.1
					c0,0,0.6,0,0.6,0c0.8-0.1-1.1-0.4-0.3,0c0.1,0,0.3,0.1,0.4,0.1c0.6,0.1-1-0.6,0,0c0.7,0.5-0.8-0.8-0.1-0.1
					c0.1,0.1,0.3,0.3,0.4,0.4c0.2,0.2,0.4,0.5,0.6,0.7c-0.4-0.3-0.6-0.8-0.8-1.3c0.3,0.9,0-0.9,0-0.4c0,0.3-0.1,0.7,0,1
					c0-1.3,0.2-0.9,0-0.5c0,0.2-0.1,0.4-0.1,0.6c-0.1,0.4-0.2,0.7-0.3,1.1c-0.3,1-0.7,1.9-1,2.8c0.5-1.3,0,0.1-0.2,0.4
					c-0.2,0.5-0.4,0.9-0.6,1.4c-0.5,0.9-0.9,1.9-1.4,2.8c-0.8,1.5-1.7,3.1-2.7,4.5c-0.3,0.4-1,1,0.1-0.1c-0.1,0.1-0.3,0.3-0.4,0.5
					c-0.6,0.7,0.6-0.4,0.4-0.3c-0.2,0.1-0.4,0.2-0.6,0.3c-0.3,0.2,1.3-0.5,0.3-0.1c-0.3,0.1-0.6,0.2-1,0.3c-0.7,0.2-1.4,0.4-2.2,0.5
					c-1.9,0.4-3.8,0.7-5.7,1c-0.5,0.1-0.9,0.1-1.4,0.2c-0.3,0-0.6,0.1-0.9,0.1c-1,0.1,1.1-0.1,0,0c-1.1,0.1-2.1,0.3-3.2,0.4
					c-4,0.5-8,0.9-12,1.2c-3.5,0.3-7.1,0.6-10.6,1c-2.5,0.3-5,0.7-7.6,0.9c-1,0.1-2,0.2-3.1,0.3c-0.7,0.1-2.8-0.2-0.6,0.2
					c-2.3-0.4-5,0.6-5.5,3.1c-0.5,2.2,0.7,5.1,3.1,5.5c1.7,0.3,3.3,0.1,5-0.1c2.4-0.3,4.7-0.6,7.1-0.9c3.5-0.4,7-0.8,10.6-1.1
					c8.7-0.7,17.4-1.4,25.9-3.1c2.9-0.6,6.4-1.3,8.4-3.7c2.6-3.1,4.5-6.8,6.2-10.4c1.7-3.7,4.3-9.1,2.1-13.1
					c-1.3-2.4-3.9-4.4-6.5-4.9c-2.8-0.6-5.4,0.2-7.9,1.4c-2.3,1.2-4.4,2.8-6.6,4.3c-1.1,0.7-2.2,1.4-3.4,2c-0.1,0.1-0.7,0.4-0.8,0.4
					c0.6-0.3,0.7-0.3,0.3-0.1c-0.2,0.1-0.4,0.1-0.6,0.2c-0.6,0.2-1.1,0.3-1.7,0.4c-1,0.2-2.1,0.3-3.1,0.5c-0.4,0.1-0.8,0.1-1.2,0.2
					c1.2-0.2-0.3,0-0.5,0.1c-1.1,0.1-2.2,0.2-3.4,0.3c-1.2,0-2.4,0-3.7-0.2c-2.3-0.3-4.6,2.3-4.5,4.5
					C527.4,316.4,529.2,318,531.8,318.3L531.8,318.3z"/>
			</g>
		</g>
		<g class="st0">
			<g class="st1">
				<path class="st2" d="M501.6,303.5c-0.9-1.7-2.9-2.8-4.5-3.8c-1.9-1.2-3.9-2.2-5.9-3.4c-1-0.5-1.9-1.1-2.8-1.7
					c-0.3-0.2-0.7-0.4-1-0.6c-0.1-0.1-0.3-0.2-0.4-0.3c-0.7-0.4,0.9,0.8,0.4,0.3c-0.1-0.1-0.2-0.2-0.2-0.2c-0.4-0.2,0.6,0.7,0.5,0.7
					c0.1,0.1,0.3,1.1,0.2,0.4c0-0.2-0.2-1.2-0.1-0.3c0.1,0.8,0,0,0-0.2c0-0.2,0-0.5,0-0.7c0-0.6,0.1-1.3,0.1-1.9
					c0-0.5-0.1,0.5-0.1,0.5c0-0.1,0-0.3,0.1-0.4c0-0.3,0.1-0.6,0.1-0.9c0.1-0.7,0.3-1.4,0.4-2.1c0.3-1.3,0.5-2.7,0.8-4
					c0.5-2.9,0.9-5.9,0.4-8.8c-0.5-2.7-2.4-4.6-5.1-5.1c-2.5-0.4-5-0.4-7.5-0.1c-3.1,0.4-6.3,1.1-9,2.8c-2.4,1.5-3.9,3.4-4.8,6
					c-1.5,4-1.5,8.6-1.3,12.8c0.2,5,0.7,9.9,1.4,14.8c0.2,1.7,0.5,3.4,0.8,5.1c0.1,0.6,0.2,1.1,0.3,1.7c0.1,0.3,0.2,1.6,0.1,0.3
					c-0.2-1.5,0,0.5,0.1,0.7c0.1,0.3,0.3,0.9,0.5,1.2c0.2,0.5,0.6,0.9,0.9,1.3c0.4,0.5,0.8,0.9,1.3,1.3c1.7,1.5,3.5,2.9,5.3,4.3
					c1.7,1.3,3.4,2.5,5.2,3.7c1.4,0.9,2.9,2,4.5,2.4c1.7,0.5,3.6,0.1,4.8-1.1c1.7-1.7,1.8-4.7,0-6.4c-1.8-1.6-4.6-1.8-6.4,0
					c1.3-1.3,2.7-1.4,4.1-1.1c-0.1,0-0.1,0-0.2-0.1c-0.5-0.2,1.2,0.6,0.7,0.3c-0.1-0.1-0.2-0.1-0.3-0.2c-0.6-0.4-1.3-0.7-1.9-1.1
					c-1.6-1-3.1-2.1-4.7-3.2c-0.4-0.3-0.8-0.6-1.2-0.9c-0.2-0.2-0.4-0.3-0.6-0.5c1.1,0.8,0.4,0.3,0.1,0.1c-0.7-0.6-1.4-1.1-2.1-1.7
					c-0.5-0.5-1.1-0.9-1.6-1.4c-0.2-0.2-0.3-0.4-0.5-0.6c-0.6-0.5,0.7,1.1,0.4,0.4c0.4,0.7,0.8,3.8,0.4,0.8c0-0.1,0-0.2-0.1-0.4
					c-0.1-0.5-0.1-0.9-0.2-1.4c-0.2-1.4-0.4-2.8-0.6-4.2c-0.1-0.4-0.1-0.9-0.2-1.3c-0.1-0.9,0.1,1,0.1,0.4c0-0.2-0.1-0.4-0.1-0.6
					c-0.1-1.1-0.3-2.2-0.4-3.3c-0.2-2.2-0.4-4.3-0.6-6.5c-0.1-2.1-0.2-4.3-0.1-6.4c0-1,0.1-2,0.2-2.9c0-0.2,0-0.5,0.1-0.7
					c0.1-0.5,0.4-0.7,0,0.3c0.2-0.4,0.2-1,0.3-1.4c0.1-0.7,0.4-1.3,0.6-2c0.2-0.7-0.6,1.1-0.2,0.5c0.1-0.1,0.1-0.3,0.2-0.4
					c0.1-0.1,0.2-0.2,0.2-0.4c0.3-0.5-0.9,0.9-0.3,0.4c0.2-0.1,0.3-0.3,0.5-0.5c0.7-0.7-0.9,0.5,0,0c0.5-0.3,1-0.6,1.5-0.9
					c0.6-0.3-0.3,0.1-0.3,0.1c0-0.1,0.7-0.3,0.8-0.3c0.7-0.2,1.3-0.4,2-0.6c0.3-0.1,0.6-0.1,0.9-0.2c0.5-0.1,1,0.1,0,0
					c0.5,0.1,1.2-0.1,1.7-0.2c1-0.1,2-0.1,3,0c0.2,0,0.4,0,0.6,0.1c0.8,0-1.2-0.3-0.5-0.1c0.3,0.1,0.6,0.2,0.8,0.2
					c0.6,0.1-1.2-0.6-0.7-0.3c0.8,0.5-1.9-2.3-1.3-1.3c-0.7-1.3-0.3-0.7-0.2-0.3c0,0.1,0.1,0.3,0.1,0.4c0.1,0.5,0.1,0.3-0.1-0.5
					c-0.1,0.1,0.1,1.1,0.1,1.2c0,0.5,0,1.1-0.1,1.6c0,0.2-0.1,0.6-0.1,0.8c0-0.2,0.1-0.4,0.1-0.6c0,0.2-0.1,0.4-0.1,0.6
					c-0.1,0.7-0.2,1.4-0.4,2.1c-0.5,2.7-1.1,5.4-1.4,8.2c-0.3,2.8-0.3,6.2,1.7,8.4c1.3,1.3,3,2.3,4.6,3.2c2,1.2,4.1,2.3,6.2,3.5
					c0.9,0.5,1.8,1,2.6,1.6c0.1,0.1,0.3,0.2,0.4,0.3c0.8,0.5-0.8-0.7-0.3-0.3c0.8,0.8-0.4-0.8-0.2-0.4c1.1,2.1,4.2,2.9,6.2,1.6
					C502.2,308.3,502.8,305.7,501.6,303.5L501.6,303.5z"/>
			</g>
		</g>
		<g class="st0">
			<g class="st1">
				<path class="st2" d="M480,322.5c-1.2,2.6-2.1,5.3-3.1,8c-0.5,1.5-1.1,2.9-1.6,4.4c-0.3,0.9-0.7,1.8-0.9,2.7
					c-0.2,1.2-0.2,2.4,0.5,3.5c0.5,0.9,1.6,1.8,2.7,2.1c2.2,0.5,5-0.7,5.5-3.1c0.2-0.8,0.5-1.7,0.8-2.5c0.5-1.4,1-2.8,1.5-4.1
					c0.9-2.4,1.8-4.8,2.8-7.1c-0.2,0.4-0.3,0.7-0.5,1.1c0-0.1,0.1-0.2,0.1-0.3c0.5-1.1,0.8-2.2,0.5-3.5c-0.3-1-1.1-2.2-2.1-2.7
					c-1-0.6-2.3-0.8-3.5-0.5C481.7,320.8,480.5,321.4,480,322.5L480,322.5z"/>
			</g>
		</g>
	</g>
	<g id="handのコピー" class="st0">
		<g class="st1">
			<g>
				<path class="st2" d="M531.3,347.5c0-1.1,0.1-2.2,0.2-3.3c-0.1,0.4-0.1,0.8-0.2,1.2c0.5-3.8,1.6-7.4,2.3-11.2
					c0.2-1.2,0.2-2.4-0.5-3.5c-0.5-0.9-1.6-1.8-2.7-2.1c-2.2-0.5-5.1,0.7-5.5,3.1c-0.9,5.2-2.6,10.3-2.7,15.7c0,2.4,2.1,4.6,4.5,4.5
					C529.3,351.9,531.3,350.1,531.3,347.5L531.3,347.5z"/>
			</g>
		</g>
		<g class="st1">
			<g>
				<path class="st2" d="M568.5,292.4c0.1,0,0.9-0.3,0.9-0.3c0,0.1-1,0-0.5,0.1c0.1,0,0.3,0,0.4,0c0.1,0,0.3,0,0.4,0
					c0.5,0-0.5,0-0.5-0.1c0,0,0.9,0.3,1,0.3c0.5,0.1-0.4-0.1-0.4-0.2c0,0,0.4,0.2,0.4,0.2c0.3,0.1,0.5,0.3,0.8,0.4
					c0.2,0.1,1,0.5,0.4,0.2c-0.5-0.2-0.2-0.1,0,0c0.1,0.1,0.3,0.3,0.4,0.4c0.4,0.4,0.8,0.8,1.2,1.2c0.2,0.2,0.4,0.4,0.5,0.6
					c0.1,0.1,0.2,0.2,0.2,0.3c0.4,0.4-0.6-0.8-0.3-0.4c0.2,0.3,0.4,0.6,0.6,0.9c0.3,0.4-0.2-0.7-0.3-1c-0.1-0.7-0.1-0.5-0.1-0.2
					c0-0.1,0.2-1.2,0-0.6c-0.1,0.7,0.5-0.8,0.1-0.2c-0.1,0.2-0.3,0.5-0.4,0.7c-0.1,0.2-0.3,0.7-0.5,0.7c0,0,0.6-0.7,0.2-0.3
					c-0.1,0.2-0.3,0.3-0.4,0.5c-0.9,1-1.8,2-2.7,3c-0.9,1-1.8,1.9-2.8,2.7c-0.5,0.5-1.1,0.9-1.6,1.3c0.6-0.5,0,0-0.3,0.2
					c-0.4,0.3-0.7,0.5-1.1,0.7c-0.7,0.5-1.5,1-2.3,1.4c-0.4,0.2-0.8,0.4-1.2,0.6c-0.2,0.1-0.3,0.2-0.5,0.3c-0.1,0-0.8,0.4-0.3,0.2
					c0.5-0.2-0.1,0-0.2,0.1c-0.2,0.1-0.5,0.2-0.7,0.3c-0.4,0.2-0.9,0.3-1.3,0.4c-0.9,0.3-1.9,0.5-2.9,0.6c-2.3,0.4-3.8,3.4-3.1,5.5
					c0.8,2.5,3,3.5,5.5,3.1c7.7-1.2,14.3-6,19.5-11.5c2.4-2.6,5.4-5.5,5.9-9.1c0.5-3.4-2-6.3-4.3-8.4c-3.3-3.1-7.9-5.3-12.5-3.6
					c-2.2,0.8-3.9,3.1-3.1,5.5C563.7,291.4,566.2,293.2,568.5,292.4L568.5,292.4z"/>
			</g>
		</g>
		<g class="st1">
			<g>
				<path class="st2" d="M513.6,299.9c0.2-0.1,0.3-0.1,0.5-0.2c0.6-0.3-0.1,0.2-0.3,0.1c0.1,0.1,0.9-0.3,1-0.4
					c0.8-0.3,1.6-0.6,2.4-0.9c1.8-0.6,3.5-1.1,5.3-1.6c3.6-1,7.2-1.9,10.7-3.1c3.8-1.2,7.3-3.1,10.8-5.1c1.8-1,3.5-2,5.4-2.9
					c-0.9,0.5,0.6-0.2,1.1-0.4c0.2-0.1,0.5-0.2,0.7-0.4c0.7-0.4,1.4-0.8,2.1-1.2c1.4-0.8,2.8-1.7,4.2-2.5c0.7-0.4,1.4-0.8,2.1-1.1
					c1-0.5-0.6,0.2,0.2-0.1c0.4-0.1,0.8-0.3,1.2-0.4c0.2,0,0.3-0.1,0.5-0.1c0.5-0.2-1,0-0.5,0.1c0.1,0,0.8,0,0.7,0
					c0,0.1-1.1-0.3-0.2,0c0.2,0.1,0.4,0.1,0.7,0.2c0.3,0.1,1.4,0.6,0.6,0.2c0.4,0.2,0.8,0.4,1.3,0.7c0.1,0.1,0.3,0.2,0.4,0.3
					c0.5,0.3-0.5-0.5-0.1-0.1c0.3,0.3,0.6,0.6,0.9,0.9c0.6,0.6,0,0-0.1-0.1c0.1,0.2,0.3,0.5,0.4,0.7c0.3,0.5-0.2-0.7,0-0.1
					c0,0.1,0.1,0.4,0.2,0.5c-0.2-0.3-0.1-1.1,0-1.5c-0.1,0.6-0.1-0.2,0.2-0.4c-0.1,0-0.7,1.1-0.3,0.5c0.4-0.5,0,0-0.1,0.1
					c-0.2,0.2-0.4,0.4-0.6,0.6c-0.2,0.1-1,0.9-0.5,0.5c0.5-0.4-0.6,0.4-0.7,0.5c-0.5,0.3-1,0.6-1.5,0.9c-2.1,1.3-4,2.7-6.1,4
					c-4.4,2.6-8.9,5.1-13.5,7.5c-1.2,0.6-2.3,1.2-3.5,1.7c-0.1,0.1-0.9,0.4-0.3,0.1c0.6-0.2-0.2,0.1-0.3,0.1
					c-0.3,0.1-0.6,0.2-0.8,0.3c-0.2,0.1-0.5,0.1-0.7,0.1c0.1,0,1.3-0.2,0.4-0.1c-0.9,0.1-1.8,0.2-2.7,0.5c-2.3,0.7-3.9,3.2-3.1,5.5
					c0.7,2.3,3.1,3.8,5.5,3.1c0.3-0.1,0.6-0.2,0.9-0.2c0.1,0,0.2,0,0.3-0.1c0.6-0.2-0.8,0.1-0.7,0.1c0.8-0.1,1.6-0.2,2.4-0.3
					c2-0.5,4-1.5,5.9-2.5c4.4-2.2,8.7-4.7,13-7.1c2.7-1.5,5.2-3.3,7.8-5c3.1-2,6.8-4.3,7.8-8.1c1.4-5.5-4-10.2-8.5-12.1
					c-2.1-0.9-4.4-1.2-6.7-0.7c-1.9,0.4-3.7,1.3-5.4,2.1c-1.6,0.8-3.1,1.8-4.7,2.7c-0.7,0.4-1.3,0.8-2,1.2c-0.3,0.2-0.6,0.3-0.9,0.5
					c-0.2,0.1-0.7,0.3,0,0c0.5-0.2,0.5-0.2,0,0c-0.4,0.2-0.7,0.3-1.1,0.5c-2.1,0.9-4.1,2.1-6.1,3.2c-1,0.6-1.9,1.1-2.9,1.7
					c-0.5,0.3-0.9,0.5-1.4,0.8c-0.2,0.1-0.5,0.2-0.7,0.3c-0.1,0.1-1.1,0.5-0.4,0.2c0.6-0.3,0,0-0.1,0c-0.2,0.1-0.4,0.2-0.7,0.3
					c-0.5,0.2-0.9,0.3-1.4,0.5c-1,0.3-2,0.6-3,0.9c-2.2,0.6-4.3,1.2-6.5,1.8c-4.4,1.2-8.8,2.4-12.9,4.3c-2.1,1-2.9,4.2-1.6,6.2
					C508.9,300.5,511.3,301,513.6,299.9L513.6,299.9z"/>
			</g>
		</g>
		<g class="st1">
			<g>
				<path class="st2" d="M555.3,316.5c3.2,0.4,6.4,0,9.6-0.4c3.1-0.4,5.9-0.9,8.8-2.1c2.1-0.9,3.9-2.2,5.8-3.5
					c1.8-1.2,3.6-2.3,5.4-3.4c0.5-0.3-1.1,0.4-0.3,0.1c0.2-0.1,0.4-0.2,0.7-0.2c0.2-0.1,0.4-0.1,0.7-0.2c0.6-0.2-0.2,0.4-0.5,0.1
					c0,0,0.6,0,0.6,0c0.8-0.1-1.1-0.4-0.3,0c0.1,0,0.3,0.1,0.4,0.1c0.6,0.1-1-0.6,0,0c0.7,0.5-0.8-0.8-0.1-0.1
					c0.1,0.1,0.3,0.3,0.4,0.4c0.2,0.2,0.4,0.5,0.6,0.7c-0.4-0.3-0.6-0.8-0.8-1.3c0.3,0.9,0-0.9,0-0.4c0,0.3-0.1,0.7,0,1
					c0-1.3,0.2-0.9,0-0.5c0,0.2-0.1,0.4-0.1,0.6c-0.1,0.4-0.2,0.7-0.3,1.1c-0.3,1-0.7,1.9-1,2.8c0.5-1.3,0,0.1-0.2,0.4
					c-0.2,0.5-0.4,0.9-0.6,1.4c-0.5,0.9-0.9,1.9-1.4,2.8c-0.8,1.5-1.7,3.1-2.7,4.5c-0.3,0.4-1,1,0.1-0.1c-0.1,0.1-0.3,0.3-0.4,0.5
					c-0.6,0.7,0.6-0.4,0.4-0.3c-0.2,0.1-0.4,0.2-0.6,0.3c-0.3,0.2,1.3-0.5,0.3-0.1c-0.3,0.1-0.6,0.2-1,0.3c-0.7,0.2-1.4,0.4-2.2,0.5
					c-1.9,0.4-3.8,0.7-5.7,1c-0.5,0.1-0.9,0.1-1.4,0.2c-0.3,0-0.6,0.1-0.9,0.1c-1,0.1,1.1-0.1,0,0c-1.1,0.1-2.1,0.3-3.2,0.4
					c-4,0.5-8,0.9-12,1.2c-3.5,0.3-7.1,0.6-10.6,1c-2.5,0.3-5,0.7-7.6,0.9c-1,0.1-2,0.2-3.1,0.3c-0.7,0.1-2.8-0.2-0.6,0.2
					c-2.3-0.4-5,0.6-5.5,3.1c-0.5,2.2,0.7,5.1,3.1,5.5c1.7,0.3,3.3,0.1,5-0.1c2.4-0.3,4.7-0.6,7.1-0.9c3.5-0.4,7-0.8,10.6-1.1
					c8.7-0.7,17.4-1.4,25.9-3.1c2.9-0.6,6.4-1.3,8.4-3.7c2.6-3.1,4.5-6.8,6.2-10.4c1.7-3.7,4.3-9.1,2.1-13.1
					c-1.3-2.4-3.9-4.4-6.5-4.9c-2.8-0.6-5.4,0.2-7.9,1.4c-2.3,1.2-4.4,2.8-6.6,4.3c-1.1,0.7-2.2,1.4-3.4,2c-0.1,0.1-0.7,0.4-0.8,0.4
					c0.6-0.3,0.7-0.3,0.3-0.1c-0.2,0.1-0.4,0.1-0.6,0.2c-0.6,0.2-1.1,0.3-1.7,0.4c-1,0.2-2.1,0.3-3.1,0.5c-0.4,0.1-0.8,0.1-1.2,0.2
					c1.2-0.2-0.3,0-0.5,0.1c-1.1,0.1-2.2,0.2-3.4,0.3c-1.2,0-2.4,0-3.7-0.2c-2.3-0.3-4.6,2.3-4.5,4.5
					C550.9,314.7,552.8,316.2,555.3,316.5L555.3,316.5z"/>
			</g>
		</g>
		<g class="st1">
			<g>
				<path class="st2" d="M522.1,301.8c-0.9-1.8-3.1-3.2-4.7-4.4c-0.9-0.7-1.8-1.3-2.7-2c-0.4-0.3-0.9-0.6-1.3-1
					c-0.2-0.2-0.4-0.3-0.6-0.5c-0.2-0.1-1-0.7-0.3-0.2c0.6,0.5,0,0-0.2-0.1c-0.2-0.1-0.3-0.3-0.5-0.4c-0.3-0.3-0.6-0.5-0.9-0.8
					c-0.2-0.1-0.5-0.6,0.1,0.1c0.6,0.8,0-0.2,0.4,0.6c0.3,0.8,0.1,0.1,0-0.1c0-0.1,0-0.2-0.1-0.3c-0.2-0.6,0.1,0.5,0.1,0.5
					c0.1-0.3,0-1.1,0-1.5c0-0.6,0.1-1.2,0.1-1.8c0-0.5-0.1,0.5-0.1,0.5c0-0.1,0-0.3,0.1-0.4c0-0.3,0.1-0.6,0.1-0.9
					c0.1-0.7,0.3-1.4,0.4-2.1c0.5-2.8,1.1-5.6,1.4-8.4c0.2-2.6,0-6-2-7.9c-1.7-1.6-4.3-1.8-6.6-1.9c-2.7-0.1-5.4,0.2-8,0.9
					c-2.8,0.7-5.8,2.1-7.8,4.2c-1.4,1.5-2.2,3.4-2.7,5.3c-1.1,4.3-1,8.9-0.8,13.3c0.2,4.7,0.8,9.4,1.5,14c0.2,1.5,0.5,3.1,0.7,4.6
					c0.1,0.5,0.1,0.9,0.2,1.4c0,0.1,0,0.3,0.1,0.4c0,0.2,0.1,0.6-0.1-0.4c-0.2-1.5,0,0.5,0.1,0.7c0.5,1.7,1.9,3,3.1,4.1
					c1.7,1.5,3.5,2.8,5.2,4.2c1.6,1.2,3.3,2.4,5.1,3.6c1.3,0.9,2.8,1.9,4.3,2.3c1.7,0.5,3.5,0.1,4.8-1.2c1.7-1.7,1.8-4.7,0-6.4
					c-1.8-1.6-4.6-1.8-6.4,0c1.3-1.3,2.7-1.4,4.1-1.1c-0.1,0-0.1,0-0.2-0.1c-0.5-0.2,1.2,0.6,0.7,0.3c-0.1-0.1-0.2-0.1-0.3-0.2
					c-0.6-0.3-1.2-0.7-1.7-1c-1.5-1-3-2-4.4-3c-0.4-0.3-0.8-0.6-1.2-0.9c-0.3-0.2-1.7-1.2-0.5-0.4c-0.8-0.5-1.5-1.2-2.2-1.7
					c-0.5-0.4-1.1-0.9-1.6-1.4c-0.2-0.2-0.4-0.4-0.6-0.6c-0.4-0.4-0.7-1.1,0.2,0.4c0-0.1-0.1-0.1-0.1-0.2c0.5,0.9,0.4,1.2,0.6,2.1
					c-0.1-0.5-0.1-0.9-0.2-1.4c-0.1-0.4-0.1-0.7-0.2-1.1c-0.2-1.2-0.4-2.5-0.6-3.7c-0.1-0.8-0.2-1.6-0.3-2.4c-0.1-0.9,0.2,1.2,0,0.3
					c0-0.2-0.1-0.5-0.1-0.7c-0.1-0.5-0.1-1.1-0.2-1.6c-0.2-2.1-0.5-4.2-0.6-6.3c-0.2-2.1-0.3-4.2-0.3-6.3c0-1,0-2.1,0.1-3.1
					c0-0.9,0.3-1.9,0.2-2.8c0.1,1.5,0,0.3,0.1-0.2c0.1-0.4,0.1-0.7,0.2-1.1c0.1-0.4,0.2-0.7,0.3-1.1c0.4-1.2-0.5,0.7,0,0
					c0.1-0.2,0.4-0.5,0.5-0.8c-0.3,1-0.8,0.8-0.4,0.5c0.2-0.1,0.3-0.3,0.5-0.5c0.5-0.5-0.1,0.3-0.3,0.2c0,0,0.6-0.4,0.7-0.5
					c0.2-0.1,0.5-0.3,0.8-0.4c0.2-0.1,0.3-0.2,0.5-0.3c-0.6,0.3-0.7,0.3-0.3,0.1c1-0.4,2.1-0.7,3.2-0.9c0.1,0,0.8-0.1,0.9-0.2
					c-0.1,0.2-1,0.1,0,0c0.6-0.1,1.1-0.1,1.7-0.1c0.9,0,1.8,0,2.7,0c0.2,0,0.4,0.1,0.6,0.1c-1.3,0.1-1-0.2-0.5-0.1
					c0.7,0.2,1.3,0.6-0.1-0.2c0,0,0.1,0,0.1,0.1c-0.4-0.2-1.8-1.4-1.7-2c0,0.1,0.1,0.5,0.2,0.6c0.3,0.8-0.3,0,0-0.3
					c-0.1,0.1,0.1,1.1,0.1,1.3c0,0.6,0,1.2-0.1,1.7c-0.1,0.5-0.4,0.9,0-0.1c-0.1,0.2-0.1,0.6-0.1,0.9c-0.1,0.5-0.2,1-0.3,1.5
					c-0.2,1.3-0.5,2.6-0.7,3.9c-0.5,2.7-1.1,5.5-0.8,8.2c0.3,2.6,1.2,4.6,3.2,6.3c2,1.6,4,3.1,6.1,4.6c0.5,0.4,1,0.7,1.5,1.1
					c-1.2-0.8,0,0,0.4,0.3c0.3,0.3,0.6,0.5,0.9,0.8c0.9,0.9-0.3-0.6-0.1-0.2c1,2.1,4.2,2.9,6.2,1.6
					C522.7,306.5,523.2,304,522.1,301.8L522.1,301.8z"/>
			</g>
		</g>
		<g class="st1">
			<g>
				<path class="st2" d="M503.6,320.8c-1.2,2.6-2.1,5.3-3.1,8c-0.5,1.5-1.1,2.9-1.6,4.4c-0.3,0.9-0.7,1.8-0.9,2.7
					c-0.2,1.2-0.2,2.4,0.5,3.5c0.5,0.9,1.6,1.8,2.7,2.1c2.2,0.5,5-0.7,5.5-3.1c0.2-0.8,0.5-1.7,0.8-2.5c0.5-1.4,1-2.8,1.5-4.1
					c0.9-2.4,1.8-4.8,2.8-7.1c-0.2,0.4-0.3,0.7-0.5,1.1c0-0.1,0.1-0.2,0.1-0.3c0.5-1.1,0.8-2.2,0.5-3.5c-0.3-1-1.1-2.2-2.1-2.7
					c-1-0.6-2.3-0.8-3.5-0.5C505.2,319,504.1,319.7,503.6,320.8L503.6,320.8z"/>
			</g>
		</g>
	</g>
</g>
<g id="hair">
	<g>
		<path class="st8" d="M257,206c21.9-8.8,27.9-18.6,56.9-17.4c40.5,1.6,56.9,25.6,60.4,55.8c4.8,41.2-0.1,71.8-11.6,106.9
			c-9.8,29.9-10.8,23.9-11.6,23.2c-9.7-7.9-23.2,3.5-23.2,3.5"/>
		<g>
			<path class="st2" d="M258.2,210.4c5.5-2.2,10.8-4.8,16-7.5c2.1-1.1,4.2-2.2,6.4-3.3c1-0.5,2.1-1,3.1-1.5c0.5-0.2,1.1-0.4,1.5-0.7
				c0,0-0.9,0.4-0.4,0.2c0.1-0.1,0.3-0.1,0.4-0.2c0.3-0.1,0.6-0.2,0.9-0.4c2.3-0.9,4.7-1.7,7.1-2.3c1.3-0.3,2.6-0.6,3.9-0.8
				c0.7-0.1,1.3-0.2,2-0.3c0.5-0.1-0.3,0-0.3,0c0.1-0.1,0.4,0,0.5-0.1c0.4-0.1,0.8-0.1,1.2-0.1c6.8-0.7,13.7-0.6,20.4,0.2
				c0.4,0,0.7,0.1,1.1,0.1c0.5,0.1-0.2,0-0.3,0c0.2,0,0.4,0.1,0.5,0.1c0.8,0.1,1.5,0.2,2.3,0.4c1.4,0.2,2.9,0.5,4.3,0.9
				c2.7,0.6,5.3,1.4,7.9,2.3c0.6,0.2,1.2,0.4,1.8,0.7c0.2,0.1,1.1,0.4,0.5,0.2c-0.6-0.3,0.4,0.2,0.6,0.3c1.1,0.5,2.3,1.1,3.4,1.6
				c2.2,1.1,4.3,2.4,6.2,3.9c0.2,0.2,0.5,0.3,0.7,0.5c0.7,0.5-0.7-0.5,0,0c0.5,0.4,0.9,0.8,1.4,1.1c0.9,0.7,1.7,1.5,2.5,2.3
				c0.8,0.8,1.6,1.6,2.3,2.5c0.4,0.4,0.7,0.8,1.1,1.2c0.2,0.2,0.3,0.4,0.5,0.6c0.1,0.1,0.2,0.2,0.3,0.3c0.4,0.5-0.1-0.1-0.2-0.3
				c0.6,1,1.4,1.9,2,2.9c0.6,0.9,1.2,1.9,1.8,2.9c1.1,2,2.1,4,3.1,6.1c0.1,0.3-0.4-0.9,0-0.1c0.1,0.3,0.2,0.5,0.3,0.8
				c0.2,0.6,0.4,1.1,0.6,1.7c0.4,1.1,0.8,2.2,1.1,3.3c0.7,2.3,1.3,4.7,1.8,7.1c0.3,1.2,0.5,2.4,0.7,3.6c0.1,0.6,0.2,1.2,0.3,1.8
				c0,0.3,0.1,0.6,0.1,0.9c0.1,0.5-0.1-0.5-0.1-0.5c0,0.1,0.1,0.5,0.1,0.6c0.5,3.7,0.8,7.5,1.1,11.2c1.1,14.4,1.1,28.8-0.5,43.2
				c-0.1,0.8-0.2,1.6-0.3,2.4c0,0.4-0.1,0.8-0.1,1.2c0,0.2-0.1,0.4-0.1,0.6c0,0.1-0.1,0.9-0.1,0.4c0.1-0.5,0,0.1,0,0.2
				c0,0.2-0.1,0.4-0.1,0.6c-0.1,0.4-0.1,0.8-0.2,1.2c-0.1,0.9-0.3,1.7-0.4,2.6c-0.5,3.3-1.1,6.6-1.8,9.9c-1.4,6.7-3,13.4-4.9,20
				c-2,7-4.2,13.9-6.6,20.7c-0.9,2.6-1.8,5.2-2.9,7.7c-0.2,0.5-0.4,0.9-0.6,1.4c-0.3,0.6-0.1,0.2,0.1-0.2c-0.1,0.2-0.2,0.5-0.3,0.7
				c-0.3,0.7-0.6,1.4-1,2.1c-0.5,0.9-1,1.8-1.5,2.7c-0.4,0.6,1-1,0.3-0.5c-0.1,0.1-0.2,0.2-0.3,0.3c-0.4,0.5,1-0.7,0.6-0.5
				c-0.6,0.4,0.9-0.3,0.8-0.3c1.3-0.4,2.7,0.2,3.6,1c-0.7-0.6,0.9,1.2,0.3,0.4c-3.2-4.2-9.2-5.7-14.2-5.1c-4.9,0.6-9.5,2.6-13.6,5.4
				c-0.9,0.6-1.8,1.3-2.7,2c-1.8,1.5-1.7,4.8,0,6.4c1.9,1.8,4.4,1.6,6.4,0c0,0,0.1-0.1,0.1-0.1c0.1,0,0.1-0.1,0.2-0.1
				c0.5-0.5-1,0.7-0.5,0.4c0.5-0.4,1-0.8,1.6-1.1c0.8-0.5,1.6-1,2.4-1.5c0.4-0.2,0.9-0.5,1.3-0.7c0.2-0.1,0.5-0.2,0.7-0.3
				c0.1-0.1,0.2-0.1,0.4-0.2c0.9-0.4-0.7,0.3-0.2,0.1c1.1-0.4,2.2-0.8,3.4-1.1c0.3-0.1,0.6-0.1,0.9-0.2c0.1,0,0.6-0.1,0.6-0.1
				c0,0-1,0.1-0.5,0.1c0.6,0,1.3-0.1,1.9-0.1c0.3,0,0.6,0,0.9,0c0.1,0,0.3,0,0.4,0c0.5,0-0.5,0-0.5-0.1c0,0,1.9,0.5,2.1,0.5
				c0.8,0.2-0.7-0.4,0.1,0c0.3,0.1,0.6,0.3,0.9,0.5c0.3,0.2,0.6,0.4,0.8,0.5c0.5,0.3,0.1,0.1-0.1-0.1c0.5,0.5-0.7-1.1-0.5-0.7
				c0.2,0.4,0.6,0.8,0.9,1.2c0.7,0.7,1.5,1.3,2.5,1.6c2.9,0.8,5.2-1.1,6.8-3.3c1.9-2.7,3-6,4.2-9c2.5-6.2,4.6-12.6,6.6-19
				c4.2-13.3,7.7-26.9,9.7-40.7c2.2-14.4,2.9-28.9,2.3-43.5c-0.3-7.7-1-15.5-2-23.1c-0.7-4.9-1.7-9.8-3.3-14.5
				c-3.1-9.5-8.1-18.4-15.3-25.3c-7.9-7.5-17.9-12.4-28.4-14.9c-6.6-1.5-13.5-2.2-20.2-2.3c-6.6-0.1-13.3,0.4-19.8,1.9
				c-10.1,2.4-18.9,7.9-28.2,12.4c-1.2,0.6-2.5,1.2-3.7,1.7c-0.7,0.3-1.4,0.6-2.1,0.9c-0.2,0.1-0.3,0.1-0.5,0.2
				c0.1,0,0.7-0.3,0.2-0.1c-0.4,0.2-0.8,0.3-1.2,0.5c-2.2,0.9-4,3-3.1,5.5C253.3,209.3,255.9,211.3,258.2,210.4L258.2,210.4z"/>
		</g>
	</g>
	<polygon class="st8" points="295.9,323.9 234.4,261.2 246,210.1 266.9,212.4 304.1,300.7 	"/>
	<g>
		<path class="st8" d="M257,206c-4-2-26.7-20.9-54.6-7c-17.7,8.9-33.7,26.7-36,62.7c-2.6,40.7-2,126.6,10.5,118.5
			c6.1-4,21.6-39,31.4-62.7c8.1-19.7,16.3-30.2,37.2-41.8"/>
		<g>
			<path class="st2" d="M259.3,202.2c-1.2-0.6-2.4-1.5-3.6-2.2c-2.1-1.3-4.2-2.5-6.3-3.7c-6.5-3.4-13.4-5.6-20.7-6.5
				c-15.7-1.8-31.1,4.8-42.7,15c-11,9.7-17.8,23.3-21.2,37.4c-3.4,14.2-3.5,29.1-3.8,43.7c-0.3,14.1-0.3,28.3,0.1,42.4
				c0.4,12.5,1.1,25.1,3,37.5c0.6,3.9,1.3,7.9,2.8,11.6c1.3,3.2,3.1,6.8,6.7,7.8c4.5,1.2,7.8-2.4,10.1-5.7
				c3.5-4.8,6.2-10.3,8.9-15.6c7.5-14.9,14-30.3,20.4-45.8c0.3-0.8,0-0.1,0,0.1c0.1-0.2,0.2-0.4,0.3-0.7c0.2-0.4,0.4-0.9,0.6-1.3
				c0.4-0.9,0.8-1.9,1.3-2.8c0.8-1.7,1.6-3.4,2.5-5c1.6-3,3.4-6,5.5-8.7c0.1-0.1,0.9-1.2,0.5-0.6c-0.4,0.6,0.4-0.5,0.6-0.7
				c0.5-0.7,1.1-1.3,1.6-1.9c1.1-1.3,2.3-2.5,3.6-3.7c1.3-1.2,2.6-2.3,3.9-3.4c0.3-0.3,0.7-0.5,1-0.8c0.6-0.5,0,0-0.1,0.1
				c0.2-0.1,0.4-0.3,0.5-0.4c0.8-0.6,1.7-1.2,2.5-1.8c3.4-2.4,7-4.6,10.7-6.6c2.1-1.1,2.9-4.1,1.6-6.2c-1.3-2.1-4-2.8-6.2-1.6
				c-7,3.9-13.8,8.4-19.7,13.9c-5.1,4.7-9.4,10.4-12.8,16.4c-3.8,6.8-6.6,14.1-9.7,21.3c-0.1,0.2-0.2,0.4-0.3,0.7
				c0.1-0.1,0.4-0.8,0-0.1c-0.2,0.5-0.4,0.9-0.6,1.4c-0.4,1-0.8,1.9-1.2,2.9c-0.8,1.9-1.6,3.8-2.5,5.7c-1.7,3.8-3.4,7.6-5.1,11.4
				c-3.1,6.8-6.3,13.6-9.9,20.2c-1.3,2.5-2.7,4.9-4.2,7.3c-0.6,0.9-1.2,1.7-1.8,2.5c1-1.4,0.1-0.2-0.2,0.2c-0.3,0.3-0.6,0.6-0.8,0.8
				c-0.7,0.7,1.1-0.6,0.2-0.1c-0.1,0-0.2,0.1-0.2,0.1c-0.7,0.5,0.7-0.4,0.7-0.3c0,0.1-0.5,0.1-0.5,0.1c0.8-0.4,1.4-0.1,0.9-0.1
				c-0.5,0-0.9-0.2,0.8,0.1c-0.3-0.1-0.9-0.3,0,0.1c1.2,0.5,0.1-0.1,0-0.1c-0.2,0,0.9,0.8,0.6,0.5c-0.1-0.1-0.2-0.1-0.2-0.2
				c-0.1-0.1-0.2-0.2-0.2-0.2c-0.6-0.5,0.5,0.7,0.4,0.5c-0.3-0.5-0.6-0.9-0.9-1.4c-0.1-0.3-0.3-0.6-0.4-0.9
				c-0.2-0.4,0.5,1.3,0.2,0.5c-0.1-0.2-0.1-0.4-0.2-0.6c-0.6-1.6-1.1-3.3-1.5-5c-0.5-2.1-0.9-4.3-1.2-6.5c-0.1-0.6-0.2-1.2-0.3-1.8
				c0-0.3-0.1-0.6-0.1-0.9c-0.1-0.6,0.1,1.1,0.1,0.5c0-0.2-0.1-0.4-0.1-0.6c-0.2-1.3-0.3-2.7-0.5-4c-0.7-6-1.1-12.1-1.4-18.2
				c-0.7-13.8-0.9-27.6-0.7-41.4c0.1-12.7,0.3-25.5,1.4-38.1c0.1-1.1,0.2-2.3,0.4-3.4c0-0.2,0.2-1.8,0.1-0.9c0.1-0.7,0.2-1.4,0.3-2
				c0.3-2.1,0.7-4.2,1.2-6.2c0.9-3.9,2-7.7,3.3-11.5c0.3-0.8,0.6-1.7,1-2.5c-0.5,1,0.1-0.2,0.2-0.4c0.2-0.4,0.4-0.9,0.6-1.3
				c0.7-1.6,1.5-3.1,2.4-4.6c0.8-1.4,1.7-2.9,2.6-4.2c0.4-0.6,0.9-1.3,1.3-1.9c0.2-0.3,0.5-0.6,0.7-0.9c0.3-0.5-0.6,0.7-0.2,0.2
				c0.1-0.2,0.3-0.4,0.4-0.6c1.9-2.4,4-4.6,6.2-6.6c1.1-1,2.2-1.9,3.3-2.8c0.4-0.4-0.8,0.6-0.3,0.2c0.1-0.1,0.3-0.2,0.4-0.3
				c0.3-0.2,0.6-0.4,0.8-0.6c0.6-0.4,1.2-0.8,1.8-1.2c2.3-1.6,4.8-3,7.3-4.2c0.5-0.3,1.1-0.5,1.6-0.8c0.1,0,0.8-0.4,0.2-0.1
				c0.3-0.1,0.5-0.2,0.8-0.3c1.1-0.4,2.3-0.8,3.4-1.2c2.1-0.7,4.3-1.2,6.4-1.5c0.3,0,0.5-0.1,0.8-0.1c-0.2,0-0.9,0.1-0.1,0
				c0.5-0.1,1-0.1,1.5-0.1c1-0.1,2.1-0.1,3.1-0.1c1.9,0,3.8,0.1,5.8,0.3c0.2,0,0.9,0-0.2,0c0.2,0,0.4,0.1,0.7,0.1
				c0.4,0.1,0.9,0.1,1.3,0.2c0.9,0.2,1.8,0.4,2.7,0.6c1.7,0.4,3.3,0.9,4.9,1.4c0.7,0.3,1.5,0.5,2.2,0.8c0.3,0.1,0.7,0.4,1.1,0.4
				c-0.1,0-1-0.4-0.3-0.1c0.2,0.1,0.4,0.2,0.6,0.3c1.3,0.6,2.6,1.2,3.9,1.9c2,1.1,4,2.3,6,3.5c1.1,0.7,2.1,1.5,3.3,2
				c2.1,1.1,5,0.6,6.2-1.6C262,206.3,261.5,203.3,259.3,202.2L259.3,202.2z"/>
		</g>
	</g>
	
		<rect x="202.4" y="136.8" transform="matrix(0.9955 9.507471e-02 -9.507471e-02 0.9955 16.1628 -20.663)" class="st9" width="45" height="45"/>
	<polygon class="st10" points="318.6,362.9 296.5,362.9 309.3,312.9 318.6,314.1 	"/>
</g>
<g id="face">
	<polygon class="st11" points="357.4,236 331.2,271 259,184.1 289.8,158.2 	"/>
	<polygon class="st11" points="258,265.8 314.4,226 278.2,154 216.2,190 	"/>
	<g class="st0">
		<path class="st12" d="M281.2,151c-3,13-17,21-29,27c-7.6,3.8-32,11-60,10"/>
		<g class="st1">
			<path class="st2" d="M276.9,149.8c-0.2,0.7-0.4,1.4-0.6,2.2c-0.1,0.4-0.3,0.8-0.4,1.1c0,0.1-0.3,0.6,0,0.1
				c0.3-0.6-0.1,0.3-0.2,0.4c-0.7,1.4-1.5,2.8-2.5,4.1c-0.2,0.3-0.6,0.8-0.1,0.2c-0.3,0.3-0.5,0.6-0.8,0.9c-0.5,0.6-1.1,1.2-1.7,1.8
				c-1.2,1.2-2.4,2.3-3.7,3.4c-0.2,0.1-1.2,0.9-0.4,0.3c-0.3,0.2-0.6,0.4-0.9,0.7c-0.7,0.5-1.4,1-2.1,1.5c-1.4,1-2.9,1.9-4.4,2.8
				c-2.9,1.7-5.9,3.3-8.9,4.8c-0.4,0.2-0.7,0.4-1.1,0.5c-0.2,0.1-0.4,0.2-0.5,0.2c-0.2,0.1-0.9,0.4-0.1,0.1c0.8-0.4-0.5,0.2-0.7,0.3
				c-0.5,0.2-1,0.4-1.5,0.6c-2.3,0.8-4.7,1.6-7,2.2c-6.4,1.8-13,3.2-19.6,4.1c-0.2,0-0.4,0.1-0.6,0.1c-0.1,0-1.2,0.2-0.6,0.1
				c0.5-0.1-0.2,0-0.2,0c-0.3,0-0.6,0.1-0.8,0.1c-1.1,0.1-2.3,0.3-3.4,0.4c-2.3,0.2-4.6,0.4-6.9,0.6c-4.9,0.3-9.8,0.4-14.8,0.2
				c-2.4-0.1-4.6,2.1-4.5,4.5c0.1,2.5,2,4.4,4.5,4.5c16,0.5,32.3-1.3,47.7-5.5c11.2-3,22-8,31.3-15.1c6.6-5.1,12.4-11.4,14.3-19.7
				c0.5-2.3-0.7-5-3.1-5.5C280.1,146.2,277.5,147.4,276.9,149.8L276.9,149.8z"/>
		</g>
	</g>
	<g>
		<path class="st13" d="M204.7,328c2.3,3.6,0.8,23.1,4.6,31.4c1.5,3.2-0.6,26.3-2.3,33.7c-0.9,3.9,16.7,0.2,21.5,0.5
			c4.4,0.2,15.7,3.4,19.9,8.7c4.8,6.1,4.2,1.6,13.3,10.1c9,8.5,31.3-11.2,33.7-12.3"/>
		<g>
			<path class="st2" d="M200.9,330.3c0.4,0.6-0.2-0.3-0.2-0.5C200.7,329.9,200.8,330.2,200.9,330.3c0.2,0.6,0.3,1.1,0.4,1.6
				c0,0.2,0.2,1.3,0.1,0.3c-0.1-0.9,0,0.2,0,0.4c0.1,0.8,0.2,1.5,0.2,2.3c0.3,3.5,0.4,7,0.7,10.5c0.3,3.8,0.7,7.7,1.6,11.4
				c0.2,0.7,0.4,1.4,0.6,2c0.1,0.3,0.2,0.7,0.4,1c0.2,0.4,0.4,0.9,0.5,1.3c0.1,0.2,0.4,0.9,0,0c-0.4-1-0.1,0,0,0.4
				c0.2,0.8-0.1-1.1-0.1-0.5c0,0.3,0.1,0.5,0.1,0.8c0.4,6.1-0.3,12.4-0.9,18.4c-0.2,1.7-0.4,3.4-0.6,5.1c0,0.2-0.1,0.4-0.1,0.5
				c0-0.1,0.2-1.1,0.1-0.4c0,0.3-0.1,0.7-0.1,1c-0.1,0.7-0.2,1.4-0.3,2.2c-0.2,1.1-0.4,2.1-0.6,3.2c-0.5,2.5,0.4,4.7,2.5,6.1
				c2.3,1.5,5.6,1.4,8.2,1.3c3.1-0.1,6.1-0.5,9.1-0.9c2.3-0.3,4.7-0.5,7-0.3c0.5,0.1-1.1-0.2-0.5-0.1c0.2,0,0.3,0,0.5,0.1
				c0.4,0.1,0.7,0.1,1.1,0.2c0.8,0.2,1.7,0.4,2.5,0.6c1.8,0.5,3.5,1.1,5.2,1.7c0.3,0.1,0.7,0.2-0.2-0.1c0.2,0,0.4,0.2,0.6,0.3
				c0.4,0.2,0.8,0.4,1.2,0.6c0.9,0.4,1.7,0.9,2.5,1.4c0.3,0.2,0.7,0.5,1,0.7c0.7,0.5-0.2-0.2-0.2-0.2c0,0,0.4,0.3,0.4,0.4
				c0.6,0.6,1.2,1.2,1.7,1.8c1.5,1.8,3.2,3.5,5.4,4.4c0.9,0.4,1.7,0.8,2.6,1.3c0.6,0.3,1.1,0.7,1.6,1.1c0.6,0.4-0.1-0.1-0.2-0.2
				c0.2,0.1,0.4,0.3,0.5,0.4c0.5,0.4,1,0.8,1.5,1.2c1.4,1.2,2.7,2.6,4.4,3.5c1.7,0.9,3.4,1.3,5.2,1.4c6.2,0.6,12.5-2.7,17.7-5.7
				c4.3-2.5,8.3-5.6,12.3-8.5c0.4-0.3,0.8-0.6,1.2-0.8c2.1-1.1,2.9-4.2,1.6-6.2c-1.4-2.1-3.9-2.8-6.2-1.6c-1.2,0.6-2.2,1.6-3.3,2.3
				c-2,1.5-4.1,3-6.2,4.4c-2.5,1.6-5,3.2-7.7,4.5c-0.7,0.3-1.4,0.6-2,1c-0.7,0.3,1-0.4-0.1,0c-0.4,0.1-0.7,0.3-1.1,0.4
				c-1.3,0.5-2.6,0.8-4,1.1c-1,0.2,1.1-0.1,0.1,0c-0.3,0-0.6,0-0.9,0.1c-0.3,0-0.6,0-0.8,0c-0.1,0-0.3,0-0.4,0c-0.8,0,0.3,0,0.5,0.1
				c-0.5-0.2-1.1-0.3-1.6-0.4c-0.9-0.2,0.9,0.5,0.2,0.1c-0.2-0.2-0.5-0.3-0.8-0.5c-0.5-0.2,0.8,0.8,0.1,0.1
				c-0.4-0.4-0.8-0.7-1.2-1.1c-0.9-0.8-1.7-1.5-2.6-2.2c-1.3-1-2.6-2.1-4.1-2.8c-0.7-0.4-1.5-0.7-2.2-1c-0.3-0.2-0.6-0.3-0.9-0.5
				c-0.1,0-0.2-0.1-0.2-0.2c-0.5-0.3,0.6,0.4,0.5,0.4c-0.2-0.2-0.4-0.4-0.7-0.6c-1-1-1.8-2.2-2.9-3.2c-1.4-1.4-3-2.5-4.7-3.5
				c-3.4-2-7.2-3.4-10.9-4.4c-2.6-0.7-5.4-1.2-8.1-1.1c-5.6,0.3-11.2,1.7-16.9,1.3c-0.1,0-0.3,0-0.4,0c-0.5,0-0.1-0.3,0.7,0.1
				c-0.2-0.1-0.4-0.1-0.6-0.1c-0.2,0-0.4-0.2-0.5-0.2c1.1,0.1,1.1,0.5,0.7,0.3c-0.5-0.3,1,0.8,0.6,0.5c-0.3-0.2-0.4-0.8,0.5,0.7
				c-0.1-0.1,0.5,1.3,0.4,0.8c0-0.2,0.2,1.4,0.1,0.9c0,0-0.3,1.4-0.1,0.8c0.2-0.5,0.2-1,0.3-1.6c0.6-3.2,1-6.4,1.4-9.6
				c0.7-6.3,1.3-12.8,1.3-19.2c0-1-0.1-2-0.2-3.1c-0.1-0.7-0.1-1.4-0.3-2.1c0-0.1-0.1-0.2-0.1-0.4c-0.1-0.4-0.3-0.8-0.5-1.2
				c-0.2-0.5,0.1-0.4,0.1,0.4c0-0.6-0.5-1.3-0.6-1.9c-0.2-0.8-0.4-1.6-0.6-2.4c-0.2-0.8-0.3-1.6-0.4-2.3c-0.1-0.4-0.4-1.5-0.1-0.3
				c-0.2-0.5-0.1-1.1-0.2-1.6c-0.7-6.6-0.5-13.4-1.8-20c-0.2-1.1-0.6-2.3-1.2-3.3c-1.2-2-4.1-2.9-6.2-1.6
				C200.4,325.4,199.6,328.1,200.9,330.3L200.9,330.3z"/>
		</g>
	</g>
	<g>
		<path class="st13" d="M294.9,400.4c6.6-5,20.9-24,24.4-38.3c6.9-28.3,5.1-23.5-1.9-58.4"/>
		<g>
			<path class="st2" d="M297.1,404.2c5.8-4.4,10.4-10.5,14.5-16.5c4.8-7,9.2-14.8,11.6-23c1.1-3.9,2-7.9,2.8-11.8
				c0.7-3.2,1.3-6.4,1.7-9.6c0.6-5,0.3-9.8-0.6-14.8c-1.5-8.8-3.7-17.4-5.5-26.2c-0.5-2.3-3.3-3.9-5.5-3.1c-2.5,0.8-3.6,3.1-3.1,5.5
				c1.6,7.9,3.5,15.8,5.1,23.8c0.2,1.2,0.5,2.5,0.7,3.8c0,0.3,0.1,0.5,0.1,0.8c-0.3-1.5-0.1-0.6,0-0.2c0.1,0.6,0.1,1.2,0.2,1.7
				c0.2,2.2,0.2,4.3,0,6.5c0,0.5-0.1,1.1-0.2,1.6c0,0.2,0,0.3-0.1,0.5c0,0,0.2-1.3,0.1-0.6c-0.1,0.3-0.1,0.7-0.1,1
				c-0.2,1.4-0.5,2.8-0.8,4.2c-0.7,3.5-1.6,7.1-2.4,10.6c-0.5,1.9-0.9,3.8-1.6,5.7c-0.3,0.9-0.6,1.8-1,2.7c-0.1,0.2-0.2,0.4-0.3,0.6
				c-0.2,0.6,0.3-0.7,0-0.1c-0.2,0.5-0.4,1-0.7,1.5c-1.8,3.8-3.9,7.5-6.1,11.1c-1.3,2-2.6,3.9-4,5.8c-0.3,0.5-0.7,0.9-1,1.4
				c-0.1,0.2-0.3,0.4-0.4,0.5c-0.5,0.7,0.3-0.4,0,0c-0.6,0.8-1.3,1.6-1.9,2.4c-1.2,1.4-2.3,2.7-3.6,4c-0.6,0.6-1.1,1.1-1.7,1.7
				c-0.3,0.2-0.5,0.5-0.8,0.7c-0.3,0.3-1.3,1,0,0c-1.9,1.4-3,3.9-1.6,6.2C292.2,404.5,295.1,405.8,297.1,404.2L297.1,404.2z"/>
		</g>
	</g>
	<g>
		<path class="st13" d="M241.9,278.1c11.7-12.9,38.6,44.1,52.3,51.1c13.5,6.9,15.7-69.6,41-55.7c17.8,9.7,16.2,20.2,15.1,30.9
			c-1,10.2-9.3,33.6-30.9,15.1"/>
		<g>
			<path class="st2" d="M245.1,281.2c0.2-0.2,0.5-0.4,0.7-0.6c0.3-0.4-1,0.6-0.5,0.4c0.1-0.1,0.3-0.2,0.4-0.3
				c0.1-0.1,0.2-0.1,0.4-0.2c0.5-0.3-1,0.3-0.6,0.3c0.2,0,0.6-0.1,0.8-0.2c0.1-0.1-1.4,0.1-0.7,0.1c0.1,0,0.2,0,0.3,0
				c0.1,0,0.3,0,0.4,0c0.8,0-0.7-0.1-0.6-0.1c0.5,0.2,1.3,0.4,1.8,0.5c-0.2,0-1.2-0.6-0.6-0.2c0.1,0.1,0.3,0.1,0.4,0.2
				c0.3,0.2,0.7,0.4,1,0.6c0.3,0.2,0.6,0.4,0.9,0.6c0.2,0.1,0.3,0.2,0.5,0.3c0.8,0.6-0.7-0.5-0.2-0.2c1.4,1.2,2.8,2.4,4.1,3.8
				c1.5,1.6,2.9,3.2,4.3,4.9c0.7,0.9,1.4,1.8,2.2,2.7c0.1,0.1,0.2,0.2,0.2,0.3c0.3,0.4-0.6-0.8-0.2-0.3c0.2,0.2,0.3,0.4,0.5,0.6
				c0.4,0.5,0.8,1,1.2,1.5c3,4,5.9,8.2,8.9,12.3c2.8,4,5.6,8,8.6,11.8c2.6,3.3,5.2,6.7,8.2,9.5c2.4,2.2,5.2,4.5,8.7,4.5
				c3.3,0,5.9-2.3,7.7-4.8c1.8-2.4,2.9-5.3,4-8.1c1.3-3.3,2.4-6.7,3.4-10.1c1.2-3.9,2.4-7.7,3.6-11.6c0.6-1.9,1.3-3.8,1.9-5.7
				c0.3-0.9,0.7-1.9,1.1-2.8c0.2-0.4,0.3-0.8,0.5-1.2c0.1-0.2,0.2-0.4,0.3-0.7c0.3-0.6-0.5,1.1-0.1,0.1c1.4-3.2,2.9-6.3,4.9-9.1
				c0.1-0.2,0.2-0.3,0.3-0.5c0.4-0.5-0.8,0.9-0.3,0.3c0.3-0.3,0.5-0.6,0.8-0.9c0.5-0.5,1-1,1.5-1.5c0.4-0.4,1.3-0.8,0,0
				c0.3-0.2,0.5-0.4,0.8-0.5c0.3-0.2,0.5-0.3,0.8-0.5c0.6-0.3,1.2-0.4-0.1,0c0.6-0.2,1.1-0.4,1.7-0.5c0.9-0.2-1.4,0.1-0.2,0
				c0.3,0,0.6,0,0.9,0c0.2,0,0.3,0,0.5,0c0.8,0-0.7-0.1-0.6-0.1c0.3,0.1,0.7,0.1,1.1,0.2c0.3,0.1,0.6,0.2,1,0.3
				c0.2,0.1,0.3,0.1,0.5,0.2c0.6,0.2-1.2-0.5-0.3-0.1c1.3,0.6,2.6,1.4,3.9,2.2c0.8,0.5,1.7,1.1,2.5,1.7c0.2,0.1,0.3,0.2,0.5,0.4
				c0.6,0.4-0.5-0.4,0,0c0.4,0.3,0.8,0.6,1.1,1c1.2,1,2.2,2.2,3.3,3.4c0.4,0.4-0.2-0.3-0.2-0.3c0.1,0.1,0.3,0.4,0.4,0.5
				c0.2,0.3,0.4,0.6,0.6,0.9c0.4,0.6,0.7,1.1,1,1.7c0.1,0.2,0.2,0.7,0.4,0.9c-0.1,0-0.4-1-0.1-0.3c0,0.1,0.1,0.2,0.1,0.4
				c0.2,0.6,0.4,1.2,0.6,1.9c0.1,0.5,0.3,1.1,0.4,1.6c0.1,0.7,0,0.6,0-0.1c0,0.3,0.1,0.7,0.1,1c0.2,2.4,0.1,4.8-0.1,7.2
				c-0.1,1.2-0.2,2.4-0.4,3.6c0,0.2,0,0.4-0.1,0.6c-0.1,0.7,0-0.3,0.1-0.5c-0.1,0.4-0.1,0.9-0.2,1.3c-0.3,1.9-0.8,3.8-1.5,5.7
				c-0.2,0.5-0.3,1-0.5,1.5c-0.1,0.2-0.2,0.4-0.3,0.6c0.4-1.3,0.2-0.4,0,0c-0.4,1-0.9,2-1.5,2.9c-0.2,0.4-0.5,0.8-0.8,1.2
				c-0.1,0.2-0.3,0.4-0.4,0.6c-0.5,0.8,0.6-0.7,0,0c-0.7,0.8-1.4,1.5-2.1,2.1c-0.7,0.7,0.7-0.5,0.2-0.1c-0.2,0.1-0.4,0.3-0.6,0.4
				c-0.4,0.3-0.9,0.5-1.4,0.8c-0.7,0.3-0.1-0.1,0.3-0.1c-0.2,0-0.5,0.2-0.7,0.2c-0.5,0.2-1,0.3-1.6,0.4c-0.7,0.2,1.2-0.1,0.2,0
				c-0.3,0-0.5,0-0.8,0c-0.5,0-1.2-0.2-1.7-0.1c0.1,0,1.2,0.2,0.5,0.1c-0.1,0-0.3,0-0.4-0.1c-0.3-0.1-0.6-0.1-0.9-0.2
				c-0.7-0.2-1.3-0.4-2-0.7c-0.5-0.2,0.4,0.2,0.4,0.2c-0.1,0-0.3-0.1-0.4-0.2c-0.3-0.2-0.7-0.3-1-0.5c-0.7-0.4-1.4-0.8-2.1-1.2
				c-0.7-0.4-1.4-0.9-2-1.4c-0.1-0.1-0.8-0.6-0.4-0.3c0.4,0.3-0.2-0.1-0.2-0.2c-0.5-0.4-0.9-0.7-1.3-1.1c-1.8-1.5-4.6-1.9-6.4,0
				c-1.5,1.7-1.9,4.7,0,6.4c5.1,4.3,11.7,8.7,18.7,8.2c5.7-0.4,10.2-3.6,13.5-8.2c2.7-3.7,4.4-8.2,5.4-12.6
				c1.1-4.5,1.5-9.4,1.5-14.1c0-6.3-1.9-11.9-5.8-16.8c-2.4-3-5.5-5.5-8.8-7.5c-2.3-1.5-4.7-2.9-7.4-3.7c-3.6-1.1-7.4-0.6-10.8,1.1
				c-3.2,1.7-5.6,4.5-7.6,7.4c-4.5,6.6-7.1,14.6-9.5,22.1c-1.3,3.9-2.4,7.9-3.7,11.8c-0.6,1.8-1.2,3.6-1.8,5.4
				c-0.3,0.8-0.6,1.6-0.9,2.4c-0.1,0.4-0.3,0.7-0.4,1.1c-0.1,0.2-0.1,0.4-0.2,0.5c-0.3,0.8-0.1,0.1,0.1-0.3
				c-0.6,1.3-1.2,2.6-1.9,3.8c-0.3,0.5-0.6,1-1,1.5c-0.4,0.6,0.9-1.1,0.2-0.2c-0.2,0.2-0.3,0.4-0.5,0.6c-0.1,0.1-0.4,0.3-0.5,0.4
				c-0.1,0.1,1.1-0.7,0.6-0.5c-0.1,0-0.2,0.1-0.3,0.2c-0.1,0.1-0.2,0.1-0.3,0.1c-0.3,0.3,1-0.3,0.7-0.3c-0.1,0-0.5,0.1-0.6,0.2
				c0,0,1.5-0.1,0.6-0.1c-0.8,0,1.4,0.4,0.5,0.1c-0.3-0.1-1-0.4-0.1,0c1,0.4,0,0-0.2-0.2c-0.3-0.2-0.5-0.3-0.8-0.5
				c-0.1-0.1-0.3-0.2-0.4-0.3c-0.7-0.5,0.4,0.3,0.3,0.3c-0.6-0.5-1.2-1-1.8-1.6c-1.4-1.3-2.7-2.7-3.9-4.2c-0.7-0.8-1.4-1.6-2-2.5
				c-0.3-0.4-0.7-0.9-1-1.3c0,0,0.7,0.9,0.3,0.3c-0.1-0.1-0.1-0.2-0.2-0.3c-0.2-0.3-0.4-0.5-0.6-0.8c-1.5-2-3-4-4.4-6
				c-6.1-8.5-11.9-17.2-18.7-25.2c-2.7-3.2-5.7-6.3-9.2-8.7c-2.9-2-6.7-3.4-10.3-2.4c-1.8,0.5-3.4,1.5-4.7,2.9
				c-1.6,1.7-1.8,4.7,0,6.4C240.5,282.8,243.4,283.1,245.1,281.2L245.1,281.2z"/>
		</g>
	</g>
	<polygon class="st14" points="295.3,323.4 273.3,292 283.7,278.1 309.3,279.2 	"/>
	<g>
		<path class="st13" d="M205.8,328.6c1.4-1.4,11.1-8.9,16.7-8.5c6.1,0.5,19.5,5.8,19.1,6.9"/>
		<g>
			<path class="st2" d="M209,331.8c0.2-0.2,0.4-0.4,0.6-0.6c0.2-0.1,0.3-0.3,0.5-0.4c0.1-0.1,0.2-0.2,0.3-0.2
				c0.6-0.5-0.2,0.3-0.3,0.2c0.2,0.1,2.8-2,3.2-2.2c1.3-0.8,2.5-1.6,3.9-2.3c0.5-0.3,1.4-0.9,2-1c-0.5,0-0.7,0.3-0.2,0.1
				c0.2-0.1,0.4-0.1,0.6-0.2c0.4-0.1,0.7-0.3,1.1-0.4c0.3-0.1,0.6-0.2,0.9-0.2c0.1,0,0.3,0,0.4-0.1c0.8-0.2-0.4,0.1-0.4,0.1
				c0-0.1,1.6,0,1.7,0c0.6,0-1.1-0.2-0.5-0.1c0.1,0,0.2,0,0.4,0.1c0.3,0.1,0.6,0.1,0.9,0.2c0.7,0.1,1.4,0.3,2,0.5
				c2.9,0.7,5.8,1.7,8.6,2.8c0.4,0.2,0.8,0.4,1.2,0.5c0,0-0.9-0.4-0.5-0.2c0.2,0.1,0.4,0.2,0.6,0.3c0.6,0.2,1.1,0.5,1.6,0.8
				c0.4,0.2,0.8,0.4,1.2,0.7c0.7,0.4,0,0-0.4-0.3c0,0,0.1,0.1,0.1,0.1c-0.8-0.9-1.4-2.2-1-4c-0.5,2.3,0.7,5,3.1,5.5
				c2.2,0.5,5-0.7,5.5-3.1c0.8-3.9-2.4-5.8-5.4-7.2c-3.2-1.5-6.6-2.7-10-3.8c-3-0.9-6.4-1.9-9.5-1.6c-3.9,0.4-7.4,2.1-10.8,4.1
				c-2.7,1.6-5.5,3.4-7.7,5.6c-1.7,1.6-1.8,4.7,0,6.4C204.4,333.4,207.2,333.5,209,331.8L209,331.8z"/>
		</g>
	</g>
	<g class="st0">
		<path class="st15" d="M213.7,230.3c3-6.5,11.3-10,18.1-7.6"/>
		<g class="st1">
			<path class="st2" d="M217.5,232.6c0.4-0.8,0.8-1.5,1.3-2.2c0.3-0.4-0.7,0.8-0.2,0.2c0.1-0.2,0.3-0.3,0.4-0.5
				c0.3-0.3,0.6-0.6,0.9-0.9c0.1-0.1,0.2-0.2,0.4-0.3c0.3-0.3,0.9-0.5-0.2,0.1c0.3-0.2,0.7-0.5,1-0.7c0.3-0.2,0.7-0.4,1.1-0.6
				c0.2-0.1,0.4-0.2,0.7-0.3c0.2-0.1,0.9-0.4,0.1-0.1c-0.7,0.3,0,0,0.1,0c0.2-0.1,0.4-0.1,0.6-0.2c0.4-0.1,0.8-0.2,1.2-0.3
				c0.4-0.1,0.9-0.2,1.3-0.3c-0.3,0.1-1.1,0.1-0.4,0.1c0.2,0,0.4,0,0.6,0c0.8,0,1.6,0.1,2.4,0.1c-1.3,0-0.6-0.1-0.2,0
				c0.2,0,0.4,0.1,0.6,0.1c0.4,0.1,0.9,0.2,1.3,0.4c2.2,0.8,5-0.9,5.5-3.1c0.6-2.5-0.8-4.7-3.1-5.5c-8.6-3-19.3,1.4-23.2,9.7
				c-1,2.1-0.7,5,1.6,6.2C213.4,235.3,216.5,234.8,217.5,232.6L217.5,232.6z"/>
		</g>
	</g>
	<g>
		<path class="st13" d="M247,396.2c0.3,0,4.2-3.2,8.7-6.4c5.8-4.1,9-2.7,9.4-3.6"/>
		<g>
			<path class="st2" d="M248.2,400.5c1.7-0.5,3-1.9,4.4-2.9c2.4-1.8,4.7-3.7,7.3-5.2c0.5-0.3,1.1-0.5,1.6-0.8
				c-1.2,0.6-0.4,0.2-0.1,0c0.2-0.1,0.5-0.2,0.7-0.2c0.4-0.1,0.9-0.2,1.3-0.3c0.2,0,0.3-0.1,0.5-0.1c0.7-0.1-1.4,0.2-0.6,0.1
				c2.2-0.2,4.5-0.5,5.7-2.7c1.1-2.1,0.6-5-1.6-6.2c-2.1-1.1-5-0.6-6.2,1.6c0.2-0.3,1-1.2,1.4-1.4c-0.3,0.2,1.4-0.5,0.8-0.3
				c-0.1,0-0.2,0-0.2,0.1c-0.4,0.2,1.4-0.2,0.8-0.1c-0.9,0.1-1.9,0.2-2.8,0.4c-2.2,0.4-4.4,1.3-6.3,2.5c-2.4,1.4-4.6,3.2-6.8,4.9
				c-0.8,0.6-1.6,1.2-2.4,1.8c-0.2,0.2-0.5,0.3-0.7,0.5c-0.5,0.4-0.9,0.3,0.6-0.2c-2.3,0.7-3.9,3.2-3.1,5.5
				C243.4,399.6,245.7,401.2,248.2,400.5L248.2,400.5z"/>
		</g>
	</g>
	<g class="st0">
		<g class="st1">
			<path class="st13" d="M235.7,246.7c0-0.3-0.2-0.5-0.6-0.6c-0.9-0.1-2.6,0.5-4,1.1c-1.1,0.5-2.2,1.1-2.9,1.7
				c-0.1-0.2-0.3-0.3-0.5-0.3l0.4,0.4c-0.3,0.3-0.5,0.5-0.6,0.7c-0.2,0.6,0.5,0.9,1.6,0.8c0.3,0.2,0.9,0.2,1.7,0.1
				c1-0.2,2.1-0.7,3-1.3c0.1,0,0.2-0.1,0.3-0.1l0.1-0.1c0.1-0.1,0.3-0.2,0.4-0.3C235.5,248,235.8,247.2,235.7,246.7z"/>
		</g>
		<g class="st1">
			<g>
				<path class="st2" d="M240.1,245.5c-0.1-0.5-0.3-1-0.6-1.4c-0.4-0.7-1.1-1.3-1.8-1.8c-0.4-0.3-0.9-0.5-1.4-0.6
					c-0.5-0.1-1-0.2-1.5-0.2c-1.1,0-2.2,0.3-3.3,0.7c-2.3,0.8-4.5,1.9-6.4,3.5c2.4,0.3,4.7,0.6,7.1,0.9c-0.5-0.7-1-1.3-1.8-1.8
					c-0.4-0.3-1-0.5-1.4-0.6c-0.4-0.1-0.8-0.1-1.2-0.2c-0.6,0-1.2,0.1-1.7,0.4c-0.9,0.4-1.7,1-2.2,1.8c-0.4,0.7-0.6,1.5-0.6,2.3
					c0,1.1,0.5,2.4,1.3,3.2c0.1,0.1,0.3,0.3,0.4,0.4c0-2.1,0-4.2,0-6.4c-1.8,1.7-2.6,4.4-1.2,6.6c1.1,1.9,3.3,2.7,5.4,2.6
					c-0.8-0.2-1.5-0.4-2.3-0.6c1,0.5,2,0.8,3.1,0.8c0.6,0,1.1-0.1,1.7-0.2c0.3,0,0.5-0.1,0.8-0.2c1.3-0.4,2.6-0.9,3.7-1.7
					c-0.4,0.2-0.7,0.3-1.1,0.5c1.3-0.4,2.4-1,3-2.3c-0.5,0.5-1.1,1.1-1.6,1.6c1.1-0.9,2-1.6,2.8-2.8c0.3-0.5,0.6-1.1,0.7-1.6
					c0.2-0.6,0.3-1.2,0.2-1.8c0-0.6-0.1-1.2-0.4-1.7c-0.2-0.6-0.5-1-0.9-1.4c-0.8-0.8-2.1-1.4-3.2-1.3c-1.2,0.1-2.4,0.4-3.2,1.3
					c-0.7,0.8-1.5,2-1.3,3.2c0,0.1,0,0.2,0,0.3c0.1-0.4,0.1-0.8,0.2-1.2c0,0.2-0.1,0.3-0.1,0.4c0.2-0.4,0.3-0.7,0.5-1.1
					c-0.1,0.2-0.2,0.4-0.3,0.6c0.2-0.3,0.5-0.6,0.7-0.9c-0.3,0.4-0.6,0.7-1,0.9c0.3-0.2,0.6-0.5,0.9-0.7c-0.7,0.5-1.4,1-1.8,1.8
					c0.9-0.7,1.8-1.4,2.7-2.1c-0.7,0.2-1.3,0.6-1.9,0.9c-0.3,0.2-0.7,0.4-1,0.5c0.4-0.2,0.7-0.3,1.1-0.5c-0.6,0.2-1.2,0.4-1.8,0.5
					c0.4-0.1,0.8-0.1,1.2-0.2c-0.3,0-0.5,0-0.8,0c0.4,0.1,0.8,0.1,1.2,0.2c-0.1,0-0.3-0.1-0.4-0.1c0.4,0.2,0.7,0.3,1.1,0.5
					c-0.8-0.4-1.6-0.7-2.5-0.6c-0.2,0-0.4,0-0.5,0c0.4,0.1,0.8,0.1,1.2,0.2c-0.2,0-0.3-0.1-0.5-0.1c0.4,0.2,0.7,0.3,1.1,0.5
					c-0.1,0-0.1-0.1-0.2-0.1c0.3,0.2,0.6,0.5,0.9,0.7c0,0-0.1-0.1-0.1-0.1c0.2,0.3,0.5,0.6,0.7,0.9c0,0,0-0.1-0.1-0.1
					c0.2,0.4,0.3,0.7,0.5,1.1c0,0,0,0,0-0.1c0.1,0.4,0.1,0.8,0.2,1.2c0,0,0-0.1,0-0.1c-0.1,0.4-0.1,0.8-0.2,1.2c0-0.1,0-0.1,0-0.2
					c-0.2,0.4-0.3,0.7-0.5,1.1c0.1-0.1,0.1-0.2,0.2-0.4c-0.2,0.3-0.5,0.6-0.7,0.9c0.1-0.1,0.2-0.3,0.4-0.4c0.8-0.7,1.4-2.1,1.3-3.2
					c-0.1-1.2-0.4-2.4-1.3-3.2c-0.1-0.1-0.3-0.3-0.4-0.4c-1.5,2.5-2.9,5-4.4,7.5c0.1,0,0.2,0,0.2,0.1c-0.4-0.2-0.7-0.3-1.1-0.5
					c0.1,0,0.1,0.1,0.2,0.1c-0.3-0.2-0.6-0.5-0.9-0.7c0,0,0,0,0.1,0.1c-0.2-0.3-0.5-0.6-0.7-0.9c0,0,0,0,0.1,0.1
					c0.4,0.7,0.9,1.2,1.6,1.6c0.5,0.3,1.1,0.5,1.7,0.5c0.6,0.1,1.2,0.1,1.8-0.1c0.8-0.2,1.4-0.6,2-1.2c0.1-0.1,0.1-0.1,0.2-0.1
					c-0.3,0.2-0.6,0.5-0.9,0.7c1-0.8,2.2-1.4,3.4-1.9c-0.4,0.2-0.7,0.3-1.1,0.5c0.8-0.3,1.6-0.6,2.5-0.8c-0.4,0.1-0.8,0.1-1.2,0.2
					c0.2,0,0.4,0,0.7,0c-0.4-0.1-0.8-0.1-1.2-0.2c0.1,0,0.2,0,0.3,0.1c-0.4-0.2-0.7-0.3-1.1-0.5c0.1,0,0.1,0.1,0.2,0.1
					c-0.3-0.2-0.6-0.5-0.9-0.7c0,0,0.1,0.1,0.1,0.1c-0.2-0.3-0.5-0.6-0.7-0.9c0,0,0.1,0.1,0.1,0.1c-0.2-0.4-0.3-0.7-0.5-1.1
					c0,0.1,0,0.1,0,0.2c0.2,1.1,1.1,2.2,2.1,2.7c1,0.6,2.4,0.8,3.5,0.5c1.1-0.4,2.1-1,2.7-2.1C240.2,247.8,240.3,246.7,240.1,245.5z
					"/>
			</g>
		</g>
	</g>
	<g>
		<g>
			<path class="st13" d="M242.1,348.9c-0.2-0.1-0.4-0.1-0.7-0.2c-0.9-0.2-2.4-0.3-3.8-0.3s-2.7,0.1-3.5,0.2c-0.2,0-0.4,0.1-0.5,0.1
				c-0.1,0.1-0.2,0.1-0.2,0.2c0,0.1,0,0.1,0,0.2c0,0,0,0.1,0.1,0.1c0.3,0.1,1.1,0.1,1.7,0.2c0.4,0.1,0.8,0.1,1.3,0.2
				c0.3,0,0.5,0,0.8,0c0.4,0,0.9,0,1.3,0c0.1,0,0.2,0,0.4,0l0.1,0c0.6,0,1.2-0.1,1.7-0.1c0.4,0,0.8-0.1,1-0.1c0.1,0,0.2-0.1,0.2-0.1
				C242.3,349.1,242.3,349,242.1,348.9z M239.2,347.5c1-0.1,1.8-0.3,2.3-0.5L239.2,347.5z"/>
		</g>
		<g>
			<g>
				<path class="st2" d="M244.4,345c-0.6-0.2-1.1-0.5-1.7-0.6c-0.4-0.1-0.9-0.1-1.3-0.2c-0.8-0.1-1.5-0.2-2.3-0.2
					c-1.3-0.1-2.6-0.1-3.9,0c-0.9,0.1-1.8,0.1-2.6,0.3c-1.2,0.3-2.4,1.1-3,2.2c-0.5,0.9-0.6,1.6-0.7,2.6c-0.1,0.8,0.3,1.6,0.6,2.3
					c0.4,0.7,1,1.2,1.6,1.7c0.5,0.3,1,0.5,1.5,0.6c0.9,0.1,1.8,0.2,2.7,0.3c-0.4-0.1-0.8-0.1-1.2-0.2c1.1,0.2,2.2,0.3,3.3,0.3
					c0.8,0,1.5,0,2.3-0.1c1.3-0.1,2.6-0.1,3.8-0.6c0.3-0.1,0.6-0.2,0.8-0.4c0.9-0.5,1.5-1.3,1.9-2.2c0.5-1.2,0.5-2.4,0-3.5
					C245.9,346.3,245.3,345.6,244.4,345c-1-0.6-2.4-0.8-3.5-0.5c-1,0.3-2.2,1.1-2.7,2.1c-0.6,1-0.8,2.3-0.5,3.5
					c0.4,1.1,1,2.1,2.1,2.7c0,0,0.1,0,0.1,0.1c-0.3-0.2-0.6-0.5-0.9-0.7c0,0,0,0,0,0.1c-0.4-1.1-0.9-2.1-1.3-3.2c0,0,0,0,0,0.1
					c0.2-0.8,0.4-1.5,0.6-2.3c0,0,0,0,0,0.1c0.5-0.5,1.1-1.1,1.6-1.6c-0.1,0.1-0.2,0.1-0.3,0.2c0.4-0.2,0.7-0.3,1.1-0.5
					c-0.2,0-0.3,0.1-0.5,0.1c0.4-0.1,0.8-0.1,1.2-0.2c-0.8,0.1-1.7,0.1-2.5,0.2c-0.9,0-1.8,0.1-2.7,0c0.4,0.1,0.8,0.1,1.2,0.2
					c-1.2-0.2-2.3-0.3-3.5-0.4c0.4,0.1,0.8,0.1,1.2,0.2c-0.1,0-0.2,0-0.3-0.1c0.4,0.2,0.7,0.3,1.1,0.5c0,0-0.1,0-0.1,0
					c0.5,0.5,1.1,1.1,1.6,1.6c0,0,0,0,0,0c0.2,0.8,0.4,1.5,0.6,2.3c0-0.1,0-0.2,0-0.3c-0.1,0.4-0.1,0.8-0.2,1.2c0,0,0,0,0-0.1
					c-0.2,0.4-0.3,0.7-0.5,1.1c0,0,0,0,0-0.1c-0.5,0.5-1.1,1.1-1.6,1.6c0,0,0.1,0,0.1-0.1c-0.4,0.2-0.7,0.3-1.1,0.5
					c0.2-0.1,0.5-0.1,0.7-0.1c-0.4,0.1-0.8,0.1-1.2,0.2c2.1-0.3,4.4-0.2,6.5,0c-0.4-0.1-0.8-0.1-1.2-0.2c0.4,0.1,0.8,0.1,1.2,0.3
					c-0.4-0.2-0.7-0.3-1.1-0.5c0,0,0.1,0,0.1,0c0.5,0.3,1.1,0.5,1.7,0.5c0.6,0.1,1.2,0.1,1.8-0.1c1-0.3,2.2-1.1,2.7-2.1
					c0.6-1,0.8-2.3,0.5-3.5C246.1,346.7,245.4,345.5,244.4,345z"/>
				<path class="st2" d="M240.4,351.9c0.8-0.1,1.6-0.2,2.3-0.5c0.6-0.1,1.1-0.4,1.5-0.8c0.5-0.3,0.9-0.7,1.2-1.3
					c0.3-0.5,0.5-1.1,0.5-1.7c0.1-0.6,0.1-1.2-0.1-1.8c-0.2-0.4-0.3-0.7-0.5-1.1c-0.4-0.7-0.9-1.2-1.6-1.6c-0.4-0.2-0.7-0.3-1.1-0.5
					c-0.8-0.2-1.6-0.2-2.4,0c-0.7,0.1-1.3,0.3-2,0.4c-0.1,0-0.2,0-0.3,0.1c-0.6,0.1-1.1,0.4-1.5,0.8c-0.5,0.3-0.9,0.7-1.2,1.3
					c-0.3,0.5-0.5,1.1-0.5,1.7c-0.1,0.6-0.1,1.2,0.1,1.8c0.2,0.4,0.3,0.7,0.5,1.1c0.4,0.7,0.9,1.2,1.6,1.6c0.4,0.2,0.7,0.3,1.1,0.5
					C238.8,352.1,239.6,352.1,240.4,351.9c0.7-0.1,1.3-0.3,2-0.4c0.1,0,0.2,0,0.3-0.1c-0.8-2.9-1.6-5.8-2.4-8.7
					c-0.7,0.3-1.5,0.4-2.3,0.5c-0.6,0.1-1.1,0.4-1.5,0.8c-0.5,0.3-0.9,0.7-1.2,1.3c-0.3,0.5-0.5,1.1-0.5,1.7
					c-0.1,0.6-0.1,1.2,0.1,1.8c0.2,0.4,0.3,0.7,0.5,1.1c0.4,0.7,0.9,1.2,1.6,1.6c0.4,0.2,0.7,0.3,1.1,0.5
					C238.8,352.1,239.6,352.1,240.4,351.9z"/>
			</g>
		</g>
	</g>
	<path class="st16" d="M291.2,350l-5,10.4c-2.1,3.8-1.1,6.5,1,10.3l5.9,8.3"/>
	<path class="st16" d="M237.2,360c0,0.6,0.5,0,6,0"/>
</g>
<g id="lonely">
	<g>
		<g>
			<path d="M45.3,141.2l-5.5,2.4L6.7,104.1l5.5-2.4L45.3,141.2z"/>
			<path d="M53,120.1L40.4,91.5l9.4-4.2l12.8,28.9c0.8,1.9,1.9,2,2.6,1.7c0.3-0.1,0.5-0.2,0.9-0.5l4.2,6.4c-0.8,0.9-2.2,1.9-4.3,2.8
				C59.7,129.4,55.7,126.2,53,120.1z"/>
			<path d="M66.2,109.4c-4-9.1,0.2-17.3,7.3-20.4c7-3.1,15.9-0.7,20,8.4c4,9.1-0.2,17.3-7.3,20.4C79.1,120.9,70.2,118.5,66.2,109.4z
				 M83.7,101.6c-1.8-4.2-4.1-6.3-7-5.1c-2.9,1.3-2.8,4.4-0.9,8.6c1.8,4.2,4.1,6.3,7,5.1S85.6,105.8,83.7,101.6z"/>
			<path d="M92.2,81.5l7.7-3.4l2.1,3l0.2-0.1c1.3-3.1,3.2-6.1,6.9-7.8c6-2.7,10.5,0.6,13.5,7.4l7.5,16.9l-9.4,4.2L113.8,86
				c-1.6-3.5-2.8-4-4.7-3.2c-1.8,0.8-2.4,2-3.2,3.9l8,18l-9.4,4.2L92.2,81.5z"/>
			<path d="M128.8,81.7c-3.9-8.9,0.1-17.2,6.8-20.2c8.1-3.6,14.6,0.6,17.8,8c0.7,1.6,1.2,3.4,1.4,4.1l-15.6,6.9
				c2.3,2.9,5.2,2.9,8.3,1.6c1.9-0.8,3.4-2.1,4.9-4.1l5.5,4.2c-2,3.4-5.5,6.2-8.6,7.6C141.3,93.4,132.8,90.8,128.8,81.7z
				 M144.5,70.8c-0.9-2.1-2.6-3.6-5.5-2.3c-2.1,0.9-3.3,2.9-2.6,5.9L144.5,70.8z"/>
			<path d="M160.9,72.4l-12.6-28.5l9.4-4.2l12.8,28.9c0.8,1.9,1.9,2,2.6,1.7c0.3-0.1,0.5-0.2,0.9-0.5l4.2,6.4
				c-0.8,0.9-2.2,1.9-4.3,2.8C167.6,81.8,163.6,78.5,160.9,72.4z"/>
			<path d="M185.7,84.6l-1.5-7.9c0.5-0.1,1.4-0.2,1.9-0.4c2.5-1.1,3.2-2.7,3.1-4.6l-0.2-1.4l-22.1-21.8l9.4-4.2l7.9,9.1
				c1.9,2.2,3.5,4.5,5.4,6.9l0.2-0.1c-0.6-2.9-1.2-5.6-1.7-8.6l-1.9-11.7l9-4L198,67c0.4,8.7-1.1,13.3-7.9,16.3
				C188.3,84.2,187.1,84.4,185.7,84.6z"/>
			<path d="M228.8,60.1l-5.5,2.4l-5.6-51.7l5.5-2.4L228.8,60.1z"/>
		</g>
	</g>
</g>
<g id="レイヤー_11">
	<g>
		<g>
			<path class="st8" d="M511.6,130c-40.1-19.8-86.9-6.9-104.5,28.7c-12.1,24.6-7.2,53.5,10.1,75.7l-5.4,36l32.9-13
				c1,0.6,2.1,1.1,3.2,1.7c40.1,19.8,86.9,6.9,104.5-28.7S551.7,149.7,511.6,130z"/>
		</g>
		<g>
			<path class="st17" d="M511.6,130c-40.1-19.8-86.9-6.9-104.5,28.7c-12.1,24.6-7.2,53.5,10.1,75.7l-5.4,36l32.9-13
				c1,0.6,2.1,1.1,3.2,1.7c40.1,19.8,86.9,6.9,104.5-28.7S551.7,149.7,511.6,130z"/>
		</g>
	</g>
	<g>
		<g>
			<path class="st2" d="M458,171.7c-4.7-2.4-10.4-0.6-12.8,4c-2.4,4.7-0.6,10.4,4,12.8c4.7,2.4,10.4,0.6,12.8-4
				C464.5,179.9,462.7,174.2,458,171.7z M511.2,199.5c-4.7-2.4-10.4-0.6-12.8,4c-2.4,4.7-0.6,10.4,4,12.8s10.4,0.6,12.8-4
				C517.7,207.6,515.9,201.9,511.2,199.5z M484.6,185.6c-4.7-2.4-10.4-0.6-12.8,4c-2.4,4.7-0.6,10.4,4,12.8s10.4,0.6,12.8-4
				C491.1,193.8,489.3,188,484.6,185.6z"/>
		</g>
	</g>
</g>
</svg>
