<?xml version="1.0" encoding="utf-8"?>
<!-- Generator: Adobe Illustrator 23.0.6, SVG Export Plug-In . SVG Version: 6.00 Build 0)  -->
<svg version="1.1" xmlns="http://www.w3.org/2000/svg" xmlns:xlink="http://www.w3.org/1999/xlink" x="0px" y="0px"
	 viewBox="0 0 608.7 521.5" style="enable-background:new 0 0 608.7 521.5;" xml:space="preserve">
<style type="text/css">
	.st0{display:none;}
	.st1{display:inline;}
	.st2{fill:#005BAC;}
	.st3{fill:none;stroke:#005BAC;stroke-width:8;stroke-miterlimit:10;}
	.st4{display:inline;fill:#005BAC;stroke:#005BAC;stroke-width:3;stroke-miterlimit:10;}
	.st5{fill:#FFF000;stroke:#005BAC;stroke-width:6;stroke-miterlimit:10;}
	.st6{display:inline;fill:#FFF000;stroke:#005BAC;stroke-width:5;stroke-miterlimit:10;}
	.st7{display:inline;fill:#FFF000;stroke:#005BAC;stroke-width:6;stroke-miterlimit:10;}
	.st8{fill:#FFF000;}
	.st9{fill:#FFF000;stroke:#FFF000;stroke-width:3;stroke-miterlimit:10;}
	.st10{fill:#FFFFFF;stroke:#FFFFFF;stroke-width:3;stroke-miterlimit:10;}
	.st11{fill:#FFFFFF;}
	.st12{fill:none;stroke:#005BAC;stroke-width:7;stroke-miterlimit:10;}
	.st13{display:inline;fill:#FFFFFF;stroke:#005BAC;stroke-width:7;stroke-miterlimit:10;}
	.st14{display:inline;fill:none;stroke:#005BAC;stroke-width:7;stroke-miterlimit:10;}
</style>
<g id="レイヤー_1" class="st0">
	
		<image style="display:inline;overflow:visible;opacity:0.29;" width="2976" height="3968" xlink:href="IMG_20191124_134718.jpg"  transform="matrix(0.251 0 0 0.251 -83.2665 -197.4705)">
	</image>
	<g id="レイヤー_2" class="st1">
	</g>
</g>
<g id="body">
	<g id="body_1_">
		<g>
			<g>
				<path class="st2" d="M259.7,285c-0.1,1,0,2,0,3c0,2.1,0,4.3,0,6.4c0,5.2,0.1,10.3,0.1,15.5c0,2,0,4-0.1,6
					c-0.1,2.4,2.1,4.6,4.5,4.5c2.5-0.1,4.4-2,4.5-4.5c0.3-9.1,0-18.2-0.1-27.2c0-1.2-0.1-2.5,0.1-3.8c0.3-2.3-2.3-4.6-4.5-4.5
					C261.5,280.6,260,282.5,259.7,285L259.7,285z"/>
			</g>
		</g>
		<g>
			<g>
				<path class="st2" d="M313.7,300c0.2,3.1,0.8,6,1.6,9c0.3,1.3,0.6,2.6,0.9,3.9c0.1,0.7,0.3,1.5,0.4,2.2c0.1,0.6-0.1-1.1,0-0.2
					c0,0.2,0,0.4,0.1,0.6c0.1,0.5,0.1,1,0.1,1.6c0.2,2.3,1.9,4.6,4.5,4.5c2.3-0.1,4.7-2,4.5-4.5c-0.3-3.4-0.8-6.7-1.6-10
					c-0.3-1.2-0.6-2.4-0.9-3.7c-0.1-0.6-0.2-1.3-0.3-1.9c-0.1-0.8-0.1,0.2,0,0.4c-0.1-0.1,0-0.4-0.1-0.5c0-0.4-0.1-0.9-0.1-1.3
					c-0.2-2.3-1.9-4.6-4.5-4.5C316,295.6,313.5,297.5,313.7,300L313.7,300z"/>
			</g>
		</g>
		<g>
			<g>
				<path class="st2" d="M239,331.9c12.5,7.1,24.7,14.6,37.1,21.8c3.1,1.8,6.2,3.8,9.5,5.2c4.8,2.1,9.7,2.7,14.7,0.8
					c4.5-1.6,8.8-4,12.9-6.3c3.5-1.9,6.9-3.9,10.4-6c7.9-4.7,15.7-9.5,23.9-13.5c2.1-1,2.9-4.2,1.6-6.2c-1.4-2.2-3.9-2.7-6.2-1.6
					c-14.4,7.1-27.6,16.4-42.1,23.5c-0.5,0.2-0.9,0.5-1.4,0.7c-0.3,0.1-0.5,0.2-0.8,0.4c0.1,0,0.5-0.2,0,0c-1,0.4-2.1,0.8-3.1,1
					c-0.3,0.1-0.6,0.1-0.9,0.2c0.2,0,0.8,0-0.1,0c-0.4,0-0.9,0-1.3,0c-0.9,0-0.3,0-0.1,0c-0.3,0-0.6-0.1-0.9-0.2
					c-0.6-0.1-1.1-0.3-1.7-0.5c-0.2-0.1-0.4-0.1-0.6-0.2c-0.1,0-0.9-0.4-0.5-0.2c0.4,0.2-0.3-0.1-0.3-0.1c-0.3-0.1-0.5-0.3-0.8-0.4
					c-1-0.5-2-1-2.9-1.6c-1.3-0.7-2.5-1.5-3.8-2.2c-6.1-3.5-12.2-7.2-18.3-10.8c-6.6-3.9-13.2-7.8-19.9-11.6c-2-1.2-5-0.6-6.2,1.6
					C236.2,327.9,236.8,330.7,239,331.9L239,331.9z"/>
			</g>
		</g>
		<g>
			<g>
				<path class="st2" d="M110.5,336.9c1.2,1.9,2.2,3.8,3.2,5.8c0.5,1,1,2,1.4,3c0.2,0.5,0.4,1,0.6,1.4c0.1,0.3,0.2,0.5,0.3,0.8
					c0.1,0.2,0.5,1.2,0.1,0.2c1.7,4.1,3.3,8.4,4.9,12.6c3.2,8.5,6.4,17.2,11.7,24.8c3.1,4.5,6.8,8.3,11.2,11.5
					c1.9,1.4,5.1,0.4,6.2-1.6c1.2-2.3,0.4-4.7-1.6-6.2c-0.2-0.2-0.4-0.3-0.7-0.5c-0.6-0.4,0.8,0.7,0,0c-0.3-0.3-0.7-0.6-1-0.8
					c-0.8-0.7-1.6-1.5-2.4-2.3c-0.7-0.7-1.3-1.4-2-2.2c-0.2-0.2-1.3-1.6-0.5-0.6c-0.3-0.4-0.7-0.9-1-1.3c-2.5-3.5-4.5-7.3-6.3-11.2
					c-0.4-0.9-0.9-1.9-1.3-2.9c-0.1-0.2-0.3-0.8,0,0.1c-0.1-0.2-0.2-0.4-0.3-0.6c-0.2-0.6-0.5-1.2-0.7-1.8c-0.8-2.1-1.6-4.2-2.4-6.3
					c-1.6-4.1-3.1-8.3-4.8-12.4c-2-4.8-4.1-9.6-6.9-14c-1.2-2-4.1-3-6.2-1.6C110.2,332,109.2,334.7,110.5,336.9L110.5,336.9z"/>
			</g>
		</g>
		<path class="st3" d="M264.2,316l-31,15l-23,10c-18.5,10.5-18.5,19.5-26,27c-11.5,11.5-19.1,14.2-20,15l-18,10"/>
		<g>
			<g>
				<path class="st2" d="M110.3,337.3c-0.9-2-0.6-4,0.6-5.2c-0.4,0.4,1.3-0.8,0.6-0.5c-0.3,0.2-0.6,0.3-0.9,0.5
					c-0.9,0.5-1.9,0.9-2.9,1.4c-0.6,0.3-1.3,0.6-1.9,0.8c-0.3,0.1-0.6,0.3-0.9,0.4c1.6-0.7-0.1,0-0.4,0.2c-1.7,0.7-3.3,1.4-5,2.1
					c-7,2.9-14.1,5.6-21.1,8.7c-1.8,0.8-4,1.6-5.5,3c-0.9,0.9-1.4,2.1-1.4,3.4c0,1.5,0.8,2.6,1.5,3.9c1,1.8,2,3.6,2.9,5.5
					c2.2,4.5,4.2,9,6.2,13.6c0.5,1.3,1.1,2.5,1.6,3.8c0.1,0.2,0.2,0.4,0.3,0.6c-0.4-1.1,0,0,0.1,0.2c0.3,0.8,0.6,1.5,0.9,2.3
					c1.1,2.6,2.2,5.2,3.3,7.9c4.2,10,8.3,20.1,13.4,29.7c1.9,3.5,3.9,7,6.4,10.1c2.8,3.4,6,6.5,9.4,9.4c4.3,3.6,9.1,7,14.5,8.8
					c3.5,1.2,7.3,1.2,10.9,0.9c8.6-0.7,17.2-2.7,25.5-4.9c8.9-2.3,17.6-5,26.3-7.9c5.6-1.8,11.1-3.7,16.6-5.9c0.8-0.3,1.6-0.6,2.3-1
					c2.1-1,2.9-4.2,1.6-6.2c-1.4-2.2-3.9-2.7-6.2-1.6c-0.4,0.2-1.3,0.5,0.5-0.2c-0.3,0.1-0.6,0.2-0.9,0.4c-0.9,0.4-1.8,0.7-2.8,1
					c-2.8,1-5.6,2-8.5,3c-8.1,2.8-16.3,5.4-24.5,7.7c-8.5,2.4-17.2,4.7-26,6c-0.3,0-0.9,0-1.2,0.2c0.8-0.4,0.9-0.1,0.3,0
					c-0.2,0-0.5,0.1-0.7,0.1c-0.9,0.1-1.8,0.2-2.6,0.3c-1.5,0.1-3.1,0.2-4.7,0.1c-0.3,0-0.7,0-1-0.1c-0.5,0-1.1-0.3,0,0
					c-1.1-0.4-2.3-0.5-3.5-0.9c0,0-0.5-0.2-0.5-0.2c0.2,0.1,0.4,0.1,0.5,0.2c-0.2-0.1-0.4-0.2-0.5-0.2c-0.6-0.3-1.1-0.5-1.7-0.8
					c-1.1-0.6-2.2-1.3-3.3-2c-0.6-0.4-1.1-0.8-1.6-1.1c-0.3-0.2-0.5-0.4-0.8-0.6c-0.9-0.7,0.7,0.6-0.1-0.1c-1-0.8-2.1-1.7-3-2.5
					c-1.7-1.5-3.4-3.1-5-4.8c-0.7-0.7-1.3-1.4-2-2.2c-0.2-0.3-0.5-0.5-0.7-0.8c-0.1-0.1-0.2-0.3-0.4-0.4c-0.7-0.8,0.6,0.8,0.2,0.3
					c-1-1.5-2-2.9-2.9-4.5c-5-8.6-8.9-17.8-12.7-27c-0.1-0.2-0.5-1.3-0.1-0.2c-0.1-0.3-0.3-0.7-0.4-1c-0.2-0.5-0.5-1.1-0.7-1.6
					c-0.6-1.4-1.2-2.9-1.8-4.3c-1-2.5-2.1-5-3.1-7.5c-2.1-5.1-4.3-10.2-6.6-15.2c-1.8-3.9-3.6-7.7-5.8-11.4c-1.1-2,0.6,0.4,0,2.6
					c-0.2,0.8-0.5,1.3-1.1,1.9c0,0,0.1-0.1,0.1-0.1c-1.1,1.1-0.8,0.6-0.2,0.2c0.8-0.5,1.7-0.9,2.6-1.3c0.6-0.3,1.1-0.5,1.7-0.7
					c0.3-0.1,0.7-0.3,1-0.4c0.2-0.1,0.4-0.2,0.5-0.2c1-0.4-0.9,0.4-0.2,0.1c1.6-0.6,3.1-1.3,4.7-1.9c3.5-1.4,7.1-2.9,10.6-4.3
					c3.6-1.4,7.1-2.9,10.6-4.4c1.8-0.8,3.8-1.5,5.4-2.6c2.3-1.5,3.2-3.9,2-6.6c-1-2.1-4.3-2.8-6.2-1.6
					C109.8,332.6,109.3,335,110.3,337.3L110.3,337.3z"/>
			</g>
		</g>
		<g>
			<g>
				<path class="st2" d="M209.9,414.2c0,0.3,0.1,0.5,0.1,0.8c-0.3-1.6-0.1-0.6,0-0.2c0.1,0.7,0.2,1.4,0.2,2c0.1,1.5,0.3,2.9,0.4,4.4
					c0.2,3.3,0.4,6.7,0.5,10c0.3,7.6,0.4,15.3,0.5,22.9c0.1,13.9,0.1,27.8,0.2,41.7c0.1,8.7,0.1,17.4-0.1,26.2
					c-0.1,2.4,2.1,4.6,4.5,4.5c2.5-0.1,4.4-2,4.5-4.5c0.5-15.5,0-31,0-46.5c0-14,0-28-0.5-42c-0.3-7.2-0.5-14.5-1.6-21.7
					c-0.4-2.3-3.4-3.8-5.5-3.1C210.5,409.5,209.5,411.7,209.9,414.2L209.9,414.2z"/>
			</g>
		</g>
		<g class="st0">
			<g class="st1">
				<path class="st2" d="M319,320.9c3.2,1.5,6.2,3.2,9.5,4.5c7.8,3.3,15.9,6,24.1,8.2c6.4,1.8,12.8,3.3,19.2,4.8
					c3.3,0.7,6.6,1.4,9.7,2.4c0.7,0.2,1.5,0.5,2.2,0.8c0.4,0.1,0.7,0.3,1.1,0.4c1.2,0.5-0.8-0.4,0.4,0.2c1.4,0.6,2.9,1.3,4.3,2.1
					c2.8,1.5,5.5,3.2,8.1,5.1c0.1,0.1,1.1,0.9,0.4,0.3c0.3,0.2,0.6,0.5,0.9,0.7c0.6,0.5,1.2,1,1.8,1.5c1.2,1.1,2.4,2.2,3.5,3.4
					c1,1.1,1.9,2.2,2.8,3.3c-0.6-0.8,0.1,0.2,0.2,0.3c0.2,0.3,0.4,0.6,0.6,0.9c0.5,0.7,0.9,1.4,1.4,2.1c1.7,2.8,3.5,5.4,5.5,8
					c7,8.9,16.1,15.8,24.8,23c1.7,1.4,3.5,2.9,5.1,4.5c1.3,1.3,2.4,2.7,3.7,4c3.9,4.1,9.3,1,12.7-1.9c4.5-3.9,8.1-8.9,11.5-13.7
					c4.3-6.1,8.2-12.5,11.8-19c3.1-5.7,6-11.6,8.3-17.7c0.4-1.1,0.8-2.2,1.2-3.3c0.2-0.6,0.4-1.1,0.5-1.7c0.1-0.3,0.2-0.6,0.2-0.8
					c0.2-0.7-0.6,1.2-0.3,0.7c0.4-0.6-0.9,1-0.4,0.5c0.4-0.4-1.2,0.8-0.4,0.4c0.1-0.1-1.4,0.4-0.4,0.2c0.1,0,0.2,0,0.3-0.1
					c0.8-0.2-1.3,0.1-0.6,0.1c0.5,0,1,0,1.5,0c0.3,0,0.6,0.1,0.9,0.1c0.7,0.1-1.3-0.2-0.5-0.1c0.2,0,0.5,0.1,0.7,0.1
					c1.6,0.3,3.1,0.7,4.7,1.1c3.7,1.1,7.3,2.4,10.9,3.8c3.5,1.3,6.9,2.7,10.4,4.1c2.2,0.9,4.5,1.9,6.8,2.3c2,0.4,3.9,0.3,5.4-1.2
					c1.7-1.6,1.8-4.8,0-6.4c-1.8-1.7-4.5-1.7-6.4,0c0.9-0.9,1.7-1.1,2.9-1.2c-0.1,0-0.2,0-0.4,0c1.6,0,0.8,0.1,0.1-0.1
					c-1.1-0.3-2.2-0.7-3.2-1.1c-3.2-1.2-6.4-2.5-9.5-3.7c-6.9-2.7-14-5.8-21.4-6.7c-3.2-0.4-6.9,0.1-8.8,3c-1.1,1.7-1.5,4.1-2.2,6
					c-0.4,1.1-0.8,2.3-1.3,3.4c-0.1,0.3-0.3,0.6-0.4,1c0.4-1.1,0,0.1-0.1,0.2c-0.3,0.7-0.6,1.3-0.9,2c-2.9,6.3-6.3,12.5-9.9,18.4
					c-1.9,3.1-3.9,6.2-6,9.3c-0.9,1.3-1.8,2.6-2.7,3.9c-0.5,0.7-1,1.3-1.5,2c-0.8,1.1,0.5-0.7-0.3,0.3c-0.3,0.4-0.6,0.8-1,1.2
					c-1.7,2-3.4,4-5.3,5.8c-0.3,0.3-0.7,0.6-1,0.9c-0.8,0.7,0.1-0.1,0.1-0.1c0,0-0.5,0.4-0.6,0.4c-0.3,0.2-0.7,0.4-1,0.6
					c-0.9,0.5,1.2-0.3,0,0c-1.2,0.3,1.1,0,0.2,0c-0.7,0,1.3,0.3,0.7,0.1c-0.6-0.2,1.2,0.6,0.6,0.3c-0.6-0.3,0.3-0.1,0.5,0.4
					c0-0.1-0.2-0.2-0.3-0.3c-0.2-0.3-0.5-0.7-0.8-1c-1.3-1.5-2.8-2.9-4.3-4.2c-8-7.2-16.8-13.4-24.2-21.3c-1-1.1-2-2.2-3-3.3
					c-0.4-0.5-0.9-1.1-1.3-1.6c-0.5-0.6,0.6,0.8-0.1-0.1c-0.3-0.4-0.6-0.8-0.9-1.2c-1.7-2.4-3.1-5-4.8-7.4
					c-3.9-5.5-8.8-10.1-14.4-14c-5.3-3.7-11.1-6.6-17.3-8.7c-3.2-1.1-6.5-1.7-9.8-2.4c-3.4-0.8-6.9-1.6-10.3-2.4
					c-9.3-2.3-18.5-4.9-27.5-8.4c-0.7-0.3-1.5-0.6-2.2-0.9c-0.3-0.1-0.6-0.2-0.9-0.3c-0.2-0.1-0.3-0.1-0.5-0.2
					c-0.7-0.3,1.2,0.5,0.3,0.1c-1.1-0.5-2.2-1-3.3-1.5c-1.5-0.7-3-1.5-4.5-2.2c-0.5-0.2-0.9-0.5-1.4-0.7c-2.1-1-5-0.7-6.2,1.6
					C316.3,316.8,316.7,319.8,319,320.9L319,320.9z"/>
			</g>
		</g>
		<g class="st0">
			<g class="st1">
				<path class="st2" d="M373.7,413c-0.6,14.2-1.1,28.4-1.5,42.6c-0.5,16.4-0.9,32.8-0.9,49.2c0,5.7-0.1,11.5,0.4,17.3
					c0.2,2.3,1.9,4.6,4.5,4.5c2.3-0.1,4.7-2,4.5-4.5c-0.4-4.9-0.4-9.8-0.4-14.7c0-7.6,0.1-15.1,0.2-22.7c0.3-16.9,0.8-33.7,1.4-50.6
					c0.2-7,0.5-14,0.8-21c0.1-2.4-2.1-4.6-4.5-4.5C375.7,408.6,373.8,410.5,373.7,413L373.7,413z"/>
			</g>
		</g>
		<g class="st0">
			<g class="st1">
				<path class="st2" d="M375.1,427.2c1,1.2,2.5,2.1,3.8,3c2,1.5,4.1,2.9,6.3,4.2c6.1,3.9,12.3,7.7,18.6,11.3
					c6.8,3.9,13.7,7.6,20.8,10.8c5.5,2.5,11.4,5.3,17.6,5.9c2.6,0.2,5.3-0.4,7.8-0.9c5-1.1,9.8-2.7,14.5-4.8
					c5.5-2.4,10.4-5.6,15.3-9.1c4.9-3.5,9.7-7.1,14.3-11.1c6.3-5.6,11.1-12.5,15.2-19.8c4.5-8,8.3-16.5,11.8-25
					c5-12.2,9.4-24.7,13.3-37.4c0.1-0.4,0.2-0.8,0.4-1.2c0.7-2.2-0.8-5-3.1-5.5c-2.4-0.6-4.8,0.7-5.5,3.1
					c-3.3,10.7-6.8,21.2-10.9,31.7c-0.8,2-1.6,4-2.4,6c-0.4,1-0.8,1.9-1.2,2.9c0.5-1.2-0.2,0.4-0.3,0.7c-0.2,0.6-0.5,1.2-0.8,1.7
					c-1.8,4-3.6,8-5.6,12c-1.9,3.8-4,7.5-6.2,11.2c-1,1.6-2.1,3.2-3.2,4.8c-0.3,0.4-0.5,0.7-0.8,1c-0.8,1,0.5-0.7-0.2,0.3
					c-0.6,0.7-1.1,1.4-1.7,2.1c-3.3,3.8-7.2,6.9-11.1,10c0.7-0.6-0.3,0.3-0.4,0.3c-0.3,0.2-0.5,0.4-0.8,0.6
					c-0.6,0.4-1.2,0.9-1.8,1.3c-1.1,0.8-2.3,1.7-3.4,2.5c-2.3,1.6-4.5,3.3-6.9,4.8c-2.6,1.6-5.2,3-8,4.2c0,0-1.2,0.5-0.6,0.2
					c0.6-0.3-0.6,0.2-0.5,0.2c-0.6,0.2-1.2,0.5-1.8,0.7c-1.2,0.5-2.5,0.9-3.7,1.3c-2,0.6-4,1.2-6,1.6c-0.8,0.2-1.6,0.3-2.4,0.5
					c-0.3,0.1-0.6,0.1-0.9,0.1c-0.8,0.1,1.4-0.2,0.1,0c-0.8,0.1-1.6,0.1-2.4,0c-0.9-0.1,1.3,0.2,0.4,0.1c-0.2,0-0.5-0.1-0.7-0.1
					c-0.6-0.1-1.1-0.2-1.7-0.4c-1.2-0.3-2.5-0.7-3.7-1.2c-0.6-0.2-1.3-0.5-1.9-0.7c-0.7-0.3-1.5-0.8-2.3-0.9
					c1.1,0.2,0.7,0.3,0.2,0.1c-0.1-0.1-0.3-0.1-0.4-0.2c-0.4-0.2-0.7-0.3-1.1-0.5c-0.8-0.4-1.6-0.7-2.5-1.1c-1.7-0.8-3.4-1.6-5-2.4
					c-3.5-1.8-7-3.6-10.4-5.5c-6.6-3.6-13.1-7.4-19.4-11.4c-2.5-1.6-5-3.1-7.4-4.8c-0.9-0.6-1.8-1.2-2.7-1.9c-0.3-0.2-0.7-0.5-1-0.7
					c-0.8-0.6,0.6,0.5,0.4,0.3c-0.1-0.1-0.3-0.2-0.4-0.4c-0.3-0.3-0.7-0.6-0.9-0.9c-1.4-1.9-4.9-1.6-6.4,0
					C373.2,422.8,373.5,425.2,375.1,427.2L375.1,427.2z"/>
			</g>
		</g>
	</g>
	<g id="cloth" class="st0">
		<polygon class="st4" points="437.2,526 380.2,526 380.2,468 362.2,410 366.2,344 394.2,354 415.2,392 427.2,448 		"/>
		<path class="st4" d="M355.2,526h-127l-4-63l-1.1-4.4c-6.3-9.1-13.2-17.5-14.9-28.6c-1.7-11.2,1-25.9,6-36l5-12l19-49l45,26l62-24
			l21,5l-5,96L355.2,526z"/>
		<polygon class="st4" points="238.2,333 205.2,347 174.2,381 146.2,393 136.2,444.1 187.1,432.1 203.2,424 216.2,389 		"/>
		<polygon class="st4" points="156.2,418 133.2,444 108.2,420 78.2,353 113.2,340 		"/>
	</g>
	<g id="hand">
		<g>
			<g>
				<path class="st2" d="M88.2,347.5c0-5.4-1.8-10.5-2.7-15.7c-0.2-1-1.2-2.2-2.1-2.7c-1-0.6-2.4-0.8-3.5-0.5
					c-1.1,0.4-2.1,1-2.7,2.1c-0.6,1.1-0.7,2.2-0.5,3.5c0.6,3.8,1.8,7.4,2.3,11.2c-0.1-0.4-0.1-0.8-0.2-1.2c0.1,1.1,0.2,2.2,0.2,3.3
					c0,2.4,2.1,4.6,4.5,4.5C86.2,351.9,88.2,350.1,88.2,347.5L88.2,347.5z"/>
			</g>
		</g>
		<g>
			<g>
				<path class="st2" d="M44.4,283.7c-4.1-1.5-8.3,0.3-11.6,2.9c-1.1,0.9-2,1.8-2.9,2.9c-1.1,1.4-2.1,2.7-2.4,4.5
					c-0.5,4,2.6,7.3,5.1,10c2.4,2.6,4.9,4.9,7.7,7c3.7,2.7,8.1,4.8,12.6,5.5c2.3,0.4,5-0.6,5.5-3.1c0.5-2.1-0.7-5.2-3.1-5.5
					c-1.6-0.2-3.2-0.7-4.7-1.2c-0.2-0.1-0.4-0.1-0.5-0.2c0.1,0,0.6,0.3,0.2,0.1c-0.3-0.2-0.7-0.3-1-0.5c-0.7-0.4-1.5-0.8-2.2-1.2
					c-0.6-0.4-1.3-0.8-1.9-1.2c-0.3-0.2-0.6-0.4-0.9-0.6c0.7,0.5-0.1-0.1-0.4-0.3c-1.1-0.9-2.1-1.8-3-2.8c-0.9-0.9-1.7-1.8-2.6-2.7
					c-0.4-0.4-0.9-1.3-1.4-1.6c0,0,0.5,0.7,0.2,0.3c-0.1-0.1-0.2-0.2-0.3-0.4c-0.2-0.3-0.3-0.6-0.5-0.8c0-0.1-0.1-0.3-0.2-0.4
					c0,0,0.3,0.9,0.2,0.5c0-0.1-0.1-0.2-0.1-0.3c0-0.1,0.1,1.2,0.1,0.7c0-0.5-0.1,0.8-0.1,0.7c0,0-0.5,0.9-0.3,0.7
					c0.1-0.1,0.2-0.3,0.3-0.5c0.1-0.2,0.2-0.3,0.3-0.5c0.4-0.6-0.7,0.8-0.1,0.2c0.4-0.4,0.7-0.9,1.2-1.3c0.2-0.2,0.5-0.5,0.7-0.7
					c0.1-0.1,0.2-0.2,0.3-0.3c0.2-0.1,0.6-0.3,0.1-0.1c-0.5,0.2-0.1,0.1,0,0c0.2-0.1,0.3-0.2,0.5-0.3c0.3-0.2,0.6-0.3,0.9-0.5
					c0.4-0.3-0.4,0.2-0.4,0.2c0,0,0.5-0.2,0.6-0.2c0.1,0,0.3-0.1,0.4-0.1c0.4-0.2-0.8,0-0.3,0c0.1,0,1,0,1,0c-0.1,0.2-0.9-0.3-0.5,0
					c0.1,0.1,0.6,0.2,0.7,0.2c2.2,0.8,5-0.9,5.5-3.1C48.2,286.7,46.8,284.6,44.4,283.7L44.4,283.7z"/>
			</g>
		</g>
		<g>
			<g>
				<path class="st2" d="M101.5,292.1c-7.2-3.4-15.2-4.6-22.7-7.2c-0.3-0.1-2.1-0.5-2.2-0.8c0.1,0.1,0.8,0.4,0.2,0.1
					c-0.2-0.1-0.5-0.2-0.7-0.3c-0.6-0.3-1.2-0.6-1.8-0.9c-2-1.1-4-2.3-6-3.4c-0.9-0.5-1.9-1-2.8-1.4c-0.5-0.2-0.9-0.4-1.4-0.6
					c-0.7-0.3,0.9,0.5,0.4,0.2c-0.3-0.2-0.7-0.3-1-0.5c-1.5-0.8-3-1.8-4.5-2.6c-3.1-1.8-6.8-4.1-10.5-3.6c-5.3,0.6-10.3,3.9-12.2,9
					c-1.8,4.9,2.5,9,6.3,11.4c2,1.3,4,2.7,6.1,3.9c4.6,2.8,9.4,5.4,14.2,7.9c2.3,1.2,4.8,2.6,7.3,3.3c0.8,0.2,1.6,0.3,2.5,0.4
					c0.9,0.1-1.3-0.3-0.3,0c0.3,0.1,0.7,0.2,1,0.3c2.3,0.7,5-0.8,5.5-3.1c0.5-2.4-0.7-4.8-3.1-5.5c-0.5-0.1-0.9-0.2-1.4-0.3
					c0.3,0-1.4-0.4-1.6-0.2c0,0-0.1,0-0.1,0c0.3,0,0.6,0.1,0.9,0.1c-0.1,0-0.3,0-0.4-0.1c-0.5-0.1-1-0.3-1.5-0.5
					c-0.2-0.1-0.7-0.3,0.2,0.1c-0.2-0.1-0.4-0.2-0.5-0.2c-0.6-0.3-1.3-0.6-1.9-0.9c-4.1-2-8-4.4-12-6.6c-2.9-1.6-5.8-3.4-8.5-5.3
					c-0.7-0.5-1.4-0.8-2-1.2c-0.3-0.2-0.7-0.4-1-0.7c0.6,0.6,0.1,0.1-0.2-0.2c-0.3-0.3-0.6-0.6-0.9-0.9c-0.4-0.3,0.3,0.3,0.2,0.3
					c-0.1,0-0.4-0.7-0.4-0.7c0,0,0.4,0.9,0.2,0.5c-0.1-0.5,0,0.8,0,1c0,0.7-0.1,0.3,0,0c0.4-0.7,0,0-0.1,0.1
					c0.1-0.2,0.9-1.3,0.2-0.5c0.3-0.4,0.6-0.7,1-1c0.6-0.6,0.1-0.1-0.1,0c0.2-0.1,0.4-0.3,0.6-0.4c0.4-0.2,0.7-0.4,1.1-0.6
					c0.5-0.3-0.7,0.2-0.1,0c0.2-0.1,0.3-0.1,0.5-0.2c0.2-0.1,0.4-0.1,0.7-0.2c0,0,1.1-0.3,0.4-0.1c-0.6,0.1,0.3,0,0.5,0
					c0.4,0-0.6,0-0.6-0.1c0,0,0.4,0.1,0.5,0.1c0.3,0.1,0.7,0.2,1,0.3c0.1,0,0.3,0.1,0.4,0.2c0.5,0.1-0.9-0.4-0.1,0
					c1.5,0.8,3,1.6,4.4,2.4c1.3,0.8,2.6,1.6,4,2.3c0.2,0.1,0.5,0.3,0.7,0.4c0.3,0.1,0.6,0.2,0.8,0.4c-0.4-0.2,1.3,0.5,0.5,0.2
					c-0.5-0.2,0.1,0,0.2,0.1c0.2,0.1,0.5,0.2,0.7,0.3c0.5,0.3,1.1,0.5,1.6,0.8c3.7,2,7.3,4.4,11.2,5.9c3.8,1.4,7.7,2.4,11.6,3.5
					c2,0.5,4,1.1,5.9,1.7c0.9,0.3,1.9,0.6,2.8,1c0.4,0.1,0.8,0.3,1.1,0.4c0.7,0.3-0.2-0.1-0.3-0.1c0.1,0.2,0.5,0.2,0.7,0.3
					c2.1,1,5,0.7,6.2-1.6C104.2,296.3,103.8,293.2,101.5,292.1L101.5,292.1z"/>
			</g>
		</g>
		<g>
			<g>
				<path class="st2" d="M55.2,307.5c-1,0.1-2,0.2-3.1,0.2c-0.9,0-1.7-0.1-2.6-0.2c-0.6-0.1-1.1-0.1-1.6-0.2c-0.2,0-1.3-0.2-0.2,0
					c-0.5-0.1-1-0.1-1.6-0.2c-1.4-0.2-2.8-0.4-4.1-0.8c-0.3-0.1-0.6-0.2-0.8-0.3c-1-0.3,0.9,0.5,0,0c-0.6-0.3-1.2-0.6-1.7-0.9
					c-2.1-1.2-4-2.6-6-4c-1.9-1.3-4.1-2.6-6.4-3.1c-3.2-0.7-6.1,0.1-8.6,2.2c-1.9,1.6-3.2,3.8-3.1,6.3c0.1,2,0.7,4.1,1.4,5.9
					c1.5,4,3.5,7.9,5.9,11.5c1,1.4,2,3,3.5,3.9c1.3,0.8,2.9,1.3,4.4,1.7c4.2,1.1,8.6,1.6,13,2.2c4.3,0.5,8.5,1,12.8,1.3
					c3.7,0.3,7.5,0.6,11.2,1c2.7,0.3,5.4,0.7,8.1,1c2,0.2,3.9,0.5,5.8,0.2c2.3-0.4,3.8-3.4,3.1-5.5c-0.8-2.5-3-3.6-5.5-3.1
					c2.1-0.4,0.4-0.1-0.3-0.2c-0.9-0.1-1.8-0.2-2.6-0.3c-2.2-0.2-4.3-0.5-6.5-0.8c-3.5-0.4-6.9-0.8-10.4-1.1
					c-3.6-0.3-7.3-0.6-10.9-1c-2.1-0.2-4.3-0.5-6.4-0.8c-1-0.1,1.1,0.2,0,0c-0.3,0-0.6-0.1-0.9-0.1c-0.5-0.1-0.9-0.1-1.4-0.2
					c-1.1-0.2-2.1-0.3-3.1-0.5c-1.6-0.3-3.2-0.6-4.7-1.1c-0.3-0.1-0.6-0.2-0.9-0.3c-0.1,0-0.2-0.1-0.4-0.1c-0.7-0.2,1.1,0.6,0.6,0.2
					c-0.2-0.1-0.4-0.2-0.5-0.3c-0.6-0.3,1,1,0.4,0.2c-0.1-0.2-0.3-0.3-0.4-0.5c1.1,1.2,0.4,0.5,0.1,0.1c-0.5-0.7-0.9-1.4-1.3-2.1
					c-1-1.6-1.9-3.3-2.8-5.1c-0.2-0.5-0.5-1-0.7-1.5c-0.1-0.3-0.7-1.8-0.2-0.4c-0.3-0.9-0.7-1.9-1-2.8c-0.1-0.4-0.2-0.7-0.3-1.1
					c-0.1-0.6-0.1-1.7-0.1-0.1c0-0.3,0-0.6,0-0.8c-0.1-0.9-0.3,1.3,0,0.3c-0.2,0.5-0.3,1-0.8,1.3c0.2-0.1,0.4-0.5,0.6-0.7
					c0.1-0.1,0.3-0.3,0.4-0.4c0.7-0.7-0.8,0.6-0.1,0.1c0.8-0.5,0,0.3-0.2,0c0,0,0.4-0.1,0.4-0.1c0.9-0.2-0.1,0.2-0.3,0
					c0,0,0.8,0,0.9,0c-0.1,0.1-1.2-0.3-0.5-0.1c0.2,0.1,0.4,0.1,0.7,0.2c0.2,0.1,0.4,0.2,0.7,0.2c0.7,0.2-0.3-0.1-0.4-0.2
					c0.3,0.3,1,0.5,1.4,0.7c0.5,0.3,1,0.6,1.4,0.9c2.1,1.4,4.1,2.9,6.3,4.2c2.7,1.6,5.5,2.4,8.6,2.9c3.9,0.6,7.9,1.3,11.9,0.8
					c2.3-0.3,4.6-1.9,4.5-4.5C59.6,309.8,57.7,307.2,55.2,307.5L55.2,307.5z"/>
			</g>
		</g>
		<g>
			<g>
				<path class="st2" d="M93.1,306.3c0.3-0.6-1,1.1-0.3,0.5c0.6-0.6-1.1,0.8-0.1,0.1c0.8-0.5,1.5-1,2.3-1.4c1.8-1.1,3.7-2.1,5.5-3.1
					c1.5-0.8,3-1.7,4.3-2.7c0.9-0.7,1.7-1.3,2.3-2.3c0.7-1.3,1-2.9,1.1-4.3c0.2-2.6-0.4-5.3-0.9-7.9c-0.2-1.1-0.4-2.3-0.7-3.4
					c-0.1-0.6-0.2-1.2-0.3-1.8c0-0.3,0-0.6-0.1-0.9c0.1,0.7,0.1,0.8,0.1,0.3c0-0.2,0-0.4-0.1-0.6c-0.1-0.9,0.1-1.9,0-2.8
					c0.2,1-0.2,0.9,0,0.3c0-0.1,0.2-0.5,0.2-0.6c0.1,0.6-1.3,1.8-1.7,2c0.6-0.4-1.3,0.3-0.6,0.3c0.3,0,0.6-0.1,0.8-0.2
					c0.7-0.2-1.3,0.1-0.5,0.1c0.2,0,0.4,0,0.6-0.1c1-0.1,2-0.1,3,0c0.5,0,1.2,0.2,1.7,0.2c-1,0.1-0.5-0.1,0,0
					c0.3,0.1,0.6,0.1,0.9,0.2c0.6,0.1,1.2,0.3,1.7,0.5c0.3,0.1,0.6,0.2,0.8,0.3c1,0.3-0.9-0.5,0,0c0.5,0.3,1,0.6,1.5,0.9
					c0.8,0.5-0.7-0.7,0,0c0.2,0.2,0.3,0.3,0.5,0.5c0.4,0.3,0,0.5-0.4-0.5c0,0.1,0.2,0.3,0.2,0.4c0.1,0.1,0.1,0.3,0.2,0.4
					c0.5,0.8-0.3-1-0.1-0.3c0.2,0.7,0.4,1.3,0.6,2c0.1,0.4,0.1,0.8,0.2,1.2c0.2,0.8-0.1-1.2,0-0.3c0,0.3,0.1,0.6,0.1,0.9
					c0.2,2,0.2,4.1,0.2,6.1c-0.1,4.4-0.5,8.7-1.1,13.1c0,0.2,0,0.3-0.1,0.5c-0.1,0.9,0.2-1.2,0-0.3c-0.1,0.4-0.1,0.9-0.2,1.3
					c-0.1,0.8-0.2,1.7-0.4,2.5c-0.2,1-0.3,2-0.5,3c0,0.1,0,0.3-0.1,0.4c-0.1,0.4-0.1,0.8-0.2,1.3c0-0.8,0.2-1.5,0.6-2.1
					c0,0,0,0.1-0.1,0.1c0,0,1-1.1,0.3-0.4c-0.2,0.2-0.5,0.5-0.7,0.7c-0.7,0.6-1.4,1.2-2.1,1.8c-0.4,0.3-0.7,0.6-1.1,0.9
					c-0.2,0.1-0.4,0.3-0.6,0.4c1.2-0.8,0.2-0.1-0.1,0.1c-1.7,1.3-3.5,2.6-5.4,3.8c-0.7,0.5-1.4,0.9-2.2,1.3c-0.5,0.3-1.5,0.5,0.2,0
					c-0.1,0-0.2,0.1-0.2,0.1c1.1-0.3,2.8-0.1,4,1.1c-1.7-1.7-4.7-1.8-6.4,0c-1.7,1.8-1.8,4.6,0,6.4c3.5,3.6,8.8-0.8,11.8-3
					c2-1.4,4-3,6-4.5c1.1-0.9,2.4-1.9,3.3-3c0.3-0.4,0.7-0.8,0.9-1.2c0.2-0.4,0.4-0.8,0.5-1.2c0-0.2,0.3-2.2,0.1-0.7
					c-0.2,1.2,0,0,0.1-0.3c0.2-1.3,0.4-2.6,0.6-4c0.7-4.7,1.3-9.3,1.6-14c0.3-4.7,0.4-9.4-0.5-14c-0.3-1.8-0.9-3.6-2-5.1
					c-1.9-2.6-4.7-4.2-7.8-5.2c-2.7-0.9-5.6-1.2-8.4-1.2c-2,0-4.5,0.1-6.2,1.2c-2.7,1.7-3.1,5.4-2.9,8.3c0.2,2.9,0.8,5.8,1.4,8.7
					c0.1,0.7,0.3,1.3,0.4,2c0.1,0.3,0.1,0.6,0.1,0.9c0,0.1,0,0.3,0.1,0.4c0.1,0.6-0.1-0.9,0-0.3c0,0.6,0.1,1.2,0.1,1.8
					c0,0.2,0,0.5,0,0.7c0,0.2-0.1,1.2,0,0.3c0.1-0.8,0,0-0.1,0.2c-0.1,0.7,0,0,0.2-0.3c0.1-0.1,1-1.1,0.3-0.4
					c-0.5,0.5,1-0.7,0.4-0.3c-0.1,0.1-0.3,0.2-0.4,0.3c-0.4,0.3-0.8,0.5-1.2,0.7c-3.5,2.1-7.4,3.9-10.7,6.3
					c-0.9,0.7-1.9,1.4-2.4,2.4c-1.1,2.1-0.6,5,1.6,6.2C89,309,92,308.5,93.1,306.3L93.1,306.3z"/>
			</g>
		</g>
		<g>
			<g>
				<path class="st2" d="M99.2,325.3c0,0.1,0.1,0.2,0.1,0.3c-0.2-0.4-0.3-0.7-0.5-1.1c1,2.3,1.9,4.7,2.8,7.1c0.5,1.4,1,2.7,1.5,4.1
					c0.3,0.8,0.6,1.6,0.8,2.5c0.5,2.3,3.3,3.9,5.5,3.1c2.5-0.8,3.6-3.1,3.1-5.5c-0.2-0.9-0.6-1.8-0.9-2.7c-0.5-1.5-1.1-2.9-1.6-4.4
					c-1-2.7-2-5.4-3.1-8c-0.4-1-1.7-1.8-2.7-2.1c-1.1-0.3-2.5-0.2-3.5,0.5c-1,0.6-1.8,1.5-2.1,2.7C98.4,323.1,98.7,324.1,99.2,325.3
					L99.2,325.3z"/>
			</g>
		</g>
		<g>
			<g>
				<path class="st2" d="M468.7,334.1c-4.8,7.7-7.9,16.4-11.1,24.9c-0.8,2-1.5,4.1-2.3,6.1c-0.4,1-0.8,2.1-1.2,3.1
					c-0.1,0.3-0.6,1.4-0.2,0.5c-0.3,0.6-0.5,1.2-0.8,1.8c-1.7,3.9-3.6,7.7-6,11.2c-0.3,0.5-0.7,1-1,1.5c-0.2,0.2-0.3,0.4-0.5,0.7
					c-0.2,0.2-0.8,1-0.1,0.1c-0.7,0.9-1.4,1.7-2.1,2.5c-0.8,0.9-1.7,1.7-2.6,2.5c-0.4,0.4-0.8,0.7-1.3,1.1c0,0-0.9,0.7-0.3,0.3
					c0.5-0.4-0.5,0.4-0.6,0.4c-1.9,1.4-3,4-1.6,6.2c1.2,1.9,4.1,3.1,6.2,1.6c15.5-11.1,20.2-30.4,27-47.2c0.1-0.3,0.3-0.7,0.4-1
					c0.1-0.2,0.5-1.2,0.1-0.2c0.2-0.5,0.5-1.1,0.7-1.6c0.5-1.2,1-2.3,1.6-3.5c1.1-2.2,2.3-4.4,3.6-6.6c1.2-2,0.5-5-1.6-6.2
					C472.6,331.3,470,331.9,468.7,334.1L468.7,334.1z"/>
			</g>
		</g>
		<path class="st3" d="M322.8,317.8l31,15l23,10c18.5,10.5,18.5,19.5,26,27c11.5,11.5,19.1,14.2,20,15l18,10"/>
		<g>
			<g>
				<path class="st2" d="M468.9,334.5c-1.8,4,1,6.3,4.2,7.8c2.9,1.4,5.9,2.6,8.9,3.8c6.8,2.8,13.7,5.5,20.5,8.3
					c-1.6-0.6-0.2-0.1,0.2,0.1c0.3,0.1,0.7,0.3,1,0.4c0.6,0.3,1.2,0.5,1.8,0.8c0.9,0.4,1.7,0.8,2.5,1.3c0.7,0.4,0.7,0.7-0.3-0.3
					c0,0,0.1,0.1,0.1,0.1c-0.5-0.5-1-1.2-1.1-1.9c0.1-0.6,0.1-1.1,0.2-1.7c0.5-1.7,0.5-2.2,0.1-1.5c-0.2,0.2-0.3,0.5-0.5,0.8
					c-1,1.7-2,3.5-2.9,5.3c-4.7,9.4-8.6,19.2-12.7,28.9c-0.5,1.3-1.1,2.6-1.7,3.9c-0.2,0.5-0.5,1.1-0.7,1.6c-0.1,0.3-0.3,0.7-0.4,1
					c0.5-1.1-0.2,0.4-0.2,0.6c-1,2.5-2.1,4.9-3.2,7.4c-2.1,4.7-4.2,9.4-6.5,13.9c-1.8,3.5-3.8,6.6-5.9,9.9c0.9-1.4,0.3-0.4,0,0
					c-0.2,0.3-0.5,0.6-0.7,0.9c-0.6,0.7-1.3,1.5-2,2.2c-1.7,1.8-3.4,3.4-5.2,5c-0.9,0.8-1.9,1.6-2.8,2.3c-0.9,0.7,0.8-0.6-0.1,0.1
					c-0.3,0.2-0.5,0.4-0.8,0.6c-0.6,0.5-1.3,0.9-1.9,1.3c-1,0.7-2,1.3-3,1.8c-0.5,0.3-1.1,0.6-1.7,0.8c-0.1,0-0.9,0.5-0.3,0.1
					c0.6-0.4-0.4,0.1-0.6,0.2c-1,0.4-2.1,0.5-3.2,0.8c1.1-0.4,0.6-0.1,0,0c-0.4,0-0.8,0.1-1.2,0.1c-1.5,0.1-3.1,0-4.6-0.1
					c-0.8-0.1-1.7-0.2-2.5-0.2c-0.2,0-1.7-0.2-0.8-0.1c0.9,0.1,0,0-0.1,0c-0.3,0-0.6-0.1-1-0.1c-2-0.3-4.1-0.7-6.1-1.1
					c-4.4-0.9-8.7-1.9-13-3.1c-8.7-2.3-17.3-4.9-25.8-7.7c-5.6-1.8-11.2-3.7-16.6-5.9c-0.3-0.1-0.5-0.2-0.8-0.3
					c1.8,0.7,0.9,0.4,0.5,0.2c-2.1-1-5-0.6-6.2,1.6c-1.1,2-0.6,5,1.6,6.2c4.3,2.1,9.1,3.5,13.6,5.1c8.3,2.8,16.6,5.5,25,7.9
					c8.5,2.4,17.2,4.6,25.9,5.9c3.7,0.5,7.4,1,11.1,0.9c5-0.2,9.5-2.1,13.7-4.8c4.6-2.9,8.7-6.5,12.5-10.4c2.7-2.7,5.1-5.6,7.1-8.9
					c5.2-8.4,9-17.7,12.9-26.7c2.3-5.5,4.6-11,6.9-16.5c0.3-0.6,0.5-1.3,0.8-1.9c0.1-0.2,0.5-1.3,0.1-0.2c0.1-0.2,0.2-0.4,0.3-0.6
					c0.6-1.4,1.2-2.7,1.7-4.1c1-2.4,2.1-4.8,3.1-7.1c1.8-4,3.7-8,5.9-11.8c0.7-1.2,1.4-2.3,1.4-3.7c0-1.3-0.5-2.5-1.4-3.4
					c-0.7-0.7-1.6-1.2-2.4-1.6c-6.1-3.1-12.6-5.4-18.9-7.9c-3.5-1.4-7-2.8-10.4-4.2c-0.2-0.1-1.5-0.6-0.6-0.2
					c0.9,0.4-0.3-0.1-0.5-0.2c-0.7-0.3-1.4-0.6-2.1-0.9c-1-0.4-1.9-0.9-2.9-1.4c-0.3-0.1-0.5-0.3-0.8-0.5c-0.6-0.4,1,0.9,0.6,0.5
					c1.2,1.2,1.5,3.2,0.6,5.2c1-2.1,0.7-4.9-1.6-6.2C473,331.8,469.9,332.2,468.9,334.5L468.9,334.5z"/>
			</g>
		</g>
		<g>
			<g>
				<path class="st2" d="M368.4,413.6c-0.9,6.3-1.3,12.6-1.5,18.9c-0.3,7.7-0.5,15.4-0.5,23.1c-0.2,13.9-0.1,27.9-0.2,41.8
					c-0.1,8.8-0.1,17.6,0.1,26.4c0.1,2.4,2,4.6,4.5,4.5c2.4-0.1,4.6-2,4.5-4.5c-0.5-15.4,0-30.8,0-46.2c0-13.9,0-27.9,0.5-41.8
					c0.1-3.9,0.3-7.8,0.6-11.7c0.1-1.7,0.2-3.3,0.4-5c0.1-0.7,0.1-1.4,0.2-2.1c0-0.4,0.1-0.7,0.1-1.1c0,0-0.2,1.3-0.1,0.6
					c0-0.2,0.1-0.4,0.1-0.6c0.4-2.3-0.6-5-3.1-5.5C371.8,409.9,368.8,411.1,368.4,413.6L368.4,413.6z"/>
			</g>
		</g>
		<g>
			<g>
				<path class="st2" d="M507.8,349.3c0-1.1,0.1-2.2,0.2-3.3c-0.1,0.4-0.1,0.8-0.2,1.2c0.5-3.8,1.6-7.4,2.3-11.2
					c0.2-1.2,0.2-2.4-0.5-3.5c-0.5-0.9-1.6-1.8-2.7-2.1c-2.2-0.5-5.1,0.7-5.5,3.1c-0.9,5.2-2.6,10.3-2.7,15.7c0,2.4,2.1,4.6,4.5,4.5
					C505.7,353.7,507.7,351.8,507.8,349.3L507.8,349.3z"/>
			</g>
		</g>
		<g>
			<g>
				<path class="st2" d="M545,294.1c0.1,0,0.9-0.3,0.9-0.3c0,0.1-1,0-0.5,0.1c0.1,0,0.3,0,0.4,0c0.1,0,0.3,0,0.4,0
					c0.5,0-0.5,0-0.5-0.1c0,0,0.9,0.3,1,0.3c0.5,0.1-0.4-0.1-0.4-0.2c0,0,0.4,0.2,0.4,0.2c0.3,0.1,0.5,0.3,0.8,0.4
					c0.2,0.1,1,0.5,0.4,0.2c-0.5-0.2-0.2-0.1,0,0c0.1,0.1,0.3,0.3,0.4,0.4c0.4,0.4,0.8,0.8,1.2,1.2c0.2,0.2,0.4,0.4,0.5,0.6
					c0.1,0.1,0.2,0.2,0.2,0.3c0.4,0.4-0.6-0.8-0.3-0.4c0.2,0.3,0.4,0.6,0.6,0.9c0.3,0.4-0.2-0.7-0.3-1c-0.1-0.7-0.1-0.5-0.1-0.2
					c0-0.1,0.2-1.2,0-0.6c-0.1,0.7,0.5-0.8,0.1-0.2c-0.1,0.2-0.3,0.5-0.4,0.7c-0.1,0.2-0.3,0.7-0.5,0.7c0,0,0.6-0.7,0.2-0.3
					c-0.1,0.2-0.3,0.3-0.4,0.5c-0.9,1-1.8,2-2.7,3c-0.9,1-1.8,1.9-2.8,2.7c-0.5,0.5-1.1,0.9-1.6,1.3c0.6-0.5,0,0-0.3,0.2
					c-0.4,0.3-0.7,0.5-1.1,0.7c-0.7,0.5-1.5,1-2.3,1.4c-0.4,0.2-0.8,0.4-1.2,0.6c-0.2,0.1-0.3,0.2-0.5,0.3c-0.1,0-0.8,0.4-0.3,0.2
					c0.5-0.2-0.1,0-0.2,0.1c-0.2,0.1-0.5,0.2-0.7,0.3c-0.4,0.2-0.9,0.3-1.3,0.4c-0.9,0.3-1.9,0.5-2.9,0.6c-2.3,0.4-3.8,3.4-3.1,5.5
					c0.8,2.5,3,3.5,5.5,3.1c7.7-1.2,14.3-6,19.5-11.5c2.4-2.6,5.4-5.5,5.9-9.1c0.5-3.4-2-6.3-4.3-8.4c-3.3-3.1-7.9-5.3-12.5-3.6
					c-2.2,0.8-3.9,3.1-3.1,5.5C540.1,293.1,542.6,295,545,294.1L545,294.1z"/>
			</g>
		</g>
		<g>
			<g>
				<path class="st2" d="M490,301.6c0.2-0.1,0.3-0.1,0.5-0.2c0.6-0.3-0.1,0.2-0.3,0.1c0.1,0.1,0.9-0.3,1-0.4
					c0.8-0.3,1.6-0.6,2.4-0.9c1.8-0.6,3.5-1.1,5.3-1.6c3.6-1,7.2-1.9,10.7-3.1c3.8-1.2,7.3-3.1,10.8-5.1c1.8-1,3.5-2,5.4-2.9
					c-0.9,0.5,0.6-0.2,1.1-0.4c0.2-0.1,0.5-0.2,0.7-0.4c0.7-0.4,1.4-0.8,2.1-1.2c1.4-0.8,2.8-1.7,4.2-2.5c0.7-0.4,1.4-0.8,2.1-1.1
					c1-0.5-0.6,0.2,0.2-0.1c0.4-0.1,0.8-0.3,1.2-0.4c0.2,0,0.3-0.1,0.5-0.1c0.5-0.2-1,0-0.5,0.1c0.1,0,0.8,0,0.7,0
					c0,0.1-1.1-0.3-0.2,0c0.2,0.1,0.4,0.1,0.7,0.2c0.3,0.1,1.4,0.6,0.6,0.2c0.4,0.2,0.8,0.4,1.3,0.7c0.1,0.1,0.3,0.2,0.4,0.3
					c0.5,0.3-0.5-0.5-0.1-0.1c0.3,0.3,0.6,0.6,0.9,0.9c0.6,0.6,0,0-0.1-0.1c0.1,0.2,0.3,0.5,0.4,0.7c0.3,0.5-0.2-0.7,0-0.1
					c0,0.1,0.1,0.4,0.2,0.5c-0.2-0.3-0.1-1.1,0-1.5c-0.1,0.6-0.1-0.2,0.2-0.4c-0.1,0-0.7,1.1-0.3,0.5c0.4-0.5,0,0-0.1,0.1
					c-0.2,0.2-0.4,0.4-0.6,0.6c-0.2,0.1-1,0.9-0.5,0.5c0.5-0.4-0.6,0.4-0.7,0.5c-0.5,0.3-1,0.6-1.5,0.9c-2.1,1.3-4,2.7-6.1,4
					c-4.4,2.6-8.9,5.1-13.5,7.5c-1.2,0.6-2.3,1.2-3.5,1.7c-0.1,0.1-0.9,0.4-0.3,0.1c0.6-0.2-0.2,0.1-0.3,0.1
					c-0.3,0.1-0.6,0.2-0.8,0.3c-0.2,0.1-0.5,0.1-0.7,0.1c0.1,0,1.3-0.2,0.4-0.1c-0.9,0.1-1.8,0.2-2.7,0.5c-2.3,0.7-3.9,3.2-3.1,5.5
					c0.7,2.3,3.1,3.8,5.5,3.1c0.3-0.1,0.6-0.2,0.9-0.2c0.1,0,0.2,0,0.3-0.1c0.6-0.2-0.8,0.1-0.7,0.1c0.8-0.1,1.6-0.2,2.4-0.3
					c2-0.5,4-1.5,5.9-2.5c4.4-2.2,8.7-4.7,13-7.1c2.7-1.5,5.2-3.3,7.8-5c3.1-2,6.8-4.3,7.8-8.1c1.4-5.5-4-10.2-8.5-12.1
					c-2.1-0.9-4.4-1.2-6.7-0.7c-1.9,0.4-3.7,1.3-5.4,2.1c-1.6,0.8-3.1,1.8-4.7,2.7c-0.7,0.4-1.3,0.8-2,1.2c-0.3,0.2-0.6,0.3-0.9,0.5
					c-0.2,0.1-0.7,0.3,0,0c0.5-0.2,0.5-0.2,0,0c-0.4,0.2-0.7,0.3-1.1,0.5c-2.1,0.9-4.1,2.1-6.1,3.2c-1,0.6-1.9,1.1-2.9,1.7
					c-0.5,0.3-0.9,0.5-1.4,0.8c-0.2,0.1-0.5,0.2-0.7,0.3c-0.1,0.1-1.1,0.5-0.4,0.2c0.6-0.3,0,0-0.1,0c-0.2,0.1-0.4,0.2-0.7,0.3
					c-0.5,0.2-0.9,0.3-1.4,0.5c-1,0.3-2,0.6-3,0.9c-2.2,0.6-4.3,1.2-6.5,1.8c-4.4,1.2-8.8,2.4-12.9,4.3c-2.1,1-2.9,4.2-1.6,6.2
					C485.3,302.2,487.7,302.7,490,301.6L490,301.6z"/>
			</g>
		</g>
		<g>
			<g>
				<path class="st2" d="M531.8,318.3c3.2,0.4,6.4,0,9.6-0.4c3.1-0.4,5.9-0.9,8.8-2.1c2.1-0.9,3.9-2.2,5.8-3.5
					c1.8-1.2,3.6-2.3,5.4-3.4c0.5-0.3-1.1,0.4-0.3,0.1c0.2-0.1,0.4-0.2,0.7-0.2c0.2-0.1,0.4-0.1,0.7-0.2c0.6-0.2-0.2,0.4-0.5,0.1
					c0,0,0.6,0,0.6,0c0.8-0.1-1.1-0.4-0.3,0c0.1,0,0.3,0.1,0.4,0.1c0.6,0.1-1-0.6,0,0c0.7,0.5-0.8-0.8-0.1-0.1
					c0.1,0.1,0.3,0.3,0.4,0.4c0.2,0.2,0.4,0.5,0.6,0.7c-0.4-0.3-0.6-0.8-0.8-1.3c0.3,0.9,0-0.9,0-0.4c0,0.3-0.1,0.7,0,1
					c0-1.3,0.2-0.9,0-0.5c0,0.2-0.1,0.4-0.1,0.6c-0.1,0.4-0.2,0.7-0.3,1.1c-0.3,1-0.7,1.9-1,2.8c0.5-1.3,0,0.1-0.2,0.4
					c-0.2,0.5-0.4,0.9-0.6,1.4c-0.5,0.9-0.9,1.9-1.4,2.8c-0.8,1.5-1.7,3.1-2.7,4.5c-0.3,0.4-1,1,0.1-0.1c-0.1,0.1-0.3,0.3-0.4,0.5
					c-0.6,0.7,0.6-0.4,0.4-0.3c-0.2,0.1-0.4,0.2-0.6,0.3c-0.3,0.2,1.3-0.5,0.3-0.1c-0.3,0.1-0.6,0.2-1,0.3c-0.7,0.2-1.4,0.4-2.2,0.5
					c-1.9,0.4-3.8,0.7-5.7,1c-0.5,0.1-0.9,0.1-1.4,0.2c-0.3,0-0.6,0.1-0.9,0.1c-1,0.1,1.1-0.1,0,0c-1.1,0.1-2.1,0.3-3.2,0.4
					c-4,0.5-8,0.9-12,1.2c-3.5,0.3-7.1,0.6-10.6,1c-2.5,0.3-5,0.7-7.6,0.9c-1,0.1-2,0.2-3.1,0.3c-0.7,0.1-2.8-0.2-0.6,0.2
					c-2.3-0.4-5,0.6-5.5,3.1c-0.5,2.2,0.7,5.1,3.1,5.5c1.7,0.3,3.3,0.1,5-0.1c2.4-0.3,4.7-0.6,7.1-0.9c3.5-0.4,7-0.8,10.6-1.1
					c8.7-0.7,17.4-1.4,25.9-3.1c2.9-0.6,6.4-1.3,8.4-3.7c2.6-3.1,4.5-6.8,6.2-10.4c1.7-3.7,4.3-9.1,2.1-13.1
					c-1.3-2.4-3.9-4.4-6.5-4.9c-2.8-0.6-5.4,0.2-7.9,1.4c-2.3,1.2-4.4,2.8-6.6,4.3c-1.1,0.7-2.2,1.4-3.4,2c-0.1,0.1-0.7,0.4-0.8,0.4
					c0.6-0.3,0.7-0.3,0.3-0.1c-0.2,0.1-0.4,0.1-0.6,0.2c-0.6,0.2-1.1,0.3-1.7,0.4c-1,0.2-2.1,0.3-3.1,0.5c-0.4,0.1-0.8,0.1-1.2,0.2
					c1.2-0.2-0.3,0-0.5,0.1c-1.1,0.1-2.2,0.2-3.4,0.3c-1.2,0-2.4,0-3.7-0.2c-2.3-0.3-4.6,2.3-4.5,4.5
					C527.4,316.4,529.2,318,531.8,318.3L531.8,318.3z"/>
			</g>
		</g>
		<g>
			<g>
				<path class="st2" d="M501.6,303.5c-0.9-1.7-2.9-2.8-4.5-3.8c-1.9-1.2-3.9-2.2-5.9-3.4c-1-0.5-1.9-1.1-2.8-1.7
					c-0.3-0.2-0.7-0.4-1-0.6c-0.1-0.1-0.3-0.2-0.4-0.3c-0.7-0.4,0.9,0.8,0.4,0.3c-0.1-0.1-0.2-0.2-0.2-0.2c-0.4-0.2,0.6,0.7,0.5,0.7
					c0.1,0.1,0.3,1.1,0.2,0.4c0-0.2-0.2-1.2-0.1-0.3c0.1,0.8,0,0,0-0.2c0-0.2,0-0.5,0-0.7c0-0.6,0.1-1.3,0.1-1.9
					c0-0.5-0.1,0.5-0.1,0.5c0-0.1,0-0.3,0.1-0.4c0-0.3,0.1-0.6,0.1-0.9c0.1-0.7,0.3-1.4,0.4-2.1c0.3-1.3,0.5-2.7,0.8-4
					c0.5-2.9,0.9-5.9,0.4-8.8c-0.5-2.7-2.4-4.6-5.1-5.1c-2.5-0.4-5-0.4-7.5-0.1c-3.1,0.4-6.3,1.1-9,2.8c-2.4,1.5-3.9,3.4-4.8,6
					c-1.5,4-1.5,8.6-1.3,12.8c0.2,5,0.7,9.9,1.4,14.8c0.2,1.7,0.5,3.4,0.8,5.1c0.1,0.6,0.2,1.1,0.3,1.7c0.1,0.3,0.2,1.6,0.1,0.3
					c-0.2-1.5,0,0.5,0.1,0.7c0.1,0.3,0.3,0.9,0.5,1.2c0.2,0.5,0.6,0.9,0.9,1.3c0.4,0.5,0.8,0.9,1.3,1.3c1.7,1.5,3.5,2.9,5.3,4.3
					c1.7,1.3,3.4,2.5,5.2,3.7c1.4,0.9,2.9,2,4.5,2.4c1.7,0.5,3.6,0.1,4.8-1.1c1.7-1.7,1.8-4.7,0-6.4c-1.8-1.6-4.6-1.8-6.4,0
					c1.3-1.3,2.7-1.4,4.1-1.1c-0.1,0-0.1,0-0.2-0.1c-0.5-0.2,1.2,0.6,0.7,0.3c-0.1-0.1-0.2-0.1-0.3-0.2c-0.6-0.4-1.3-0.7-1.9-1.1
					c-1.6-1-3.1-2.1-4.7-3.2c-0.4-0.3-0.8-0.6-1.2-0.9c-0.2-0.2-0.4-0.3-0.6-0.5c1.1,0.8,0.4,0.3,0.1,0.1c-0.7-0.6-1.4-1.1-2.1-1.7
					c-0.5-0.5-1.1-0.9-1.6-1.4c-0.2-0.2-0.3-0.4-0.5-0.6c-0.6-0.5,0.7,1.1,0.4,0.4c0.4,0.7,0.8,3.8,0.4,0.8c0-0.1,0-0.2-0.1-0.4
					c-0.1-0.5-0.1-0.9-0.2-1.4c-0.2-1.4-0.4-2.8-0.6-4.2c-0.1-0.4-0.1-0.9-0.2-1.3c-0.1-0.9,0.1,1,0.1,0.4c0-0.2-0.1-0.4-0.1-0.6
					c-0.1-1.1-0.3-2.2-0.4-3.3c-0.2-2.2-0.4-4.3-0.6-6.5c-0.1-2.1-0.2-4.3-0.1-6.4c0-1,0.1-2,0.2-2.9c0-0.2,0-0.5,0.1-0.7
					c0.1-0.5,0.4-0.7,0,0.3c0.2-0.4,0.2-1,0.3-1.4c0.1-0.7,0.4-1.3,0.6-2c0.2-0.7-0.6,1.1-0.2,0.5c0.1-0.1,0.1-0.3,0.2-0.4
					c0.1-0.1,0.2-0.2,0.2-0.4c0.3-0.5-0.9,0.9-0.3,0.4c0.2-0.1,0.3-0.3,0.5-0.5c0.7-0.7-0.9,0.5,0,0c0.5-0.3,1-0.6,1.5-0.9
					c0.6-0.3-0.3,0.1-0.3,0.1c0-0.1,0.7-0.3,0.8-0.3c0.7-0.2,1.3-0.4,2-0.6c0.3-0.1,0.6-0.1,0.9-0.2c0.5-0.1,1,0.1,0,0
					c0.5,0.1,1.2-0.1,1.7-0.2c1-0.1,2-0.1,3,0c0.2,0,0.4,0,0.6,0.1c0.8,0-1.2-0.3-0.5-0.1c0.3,0.1,0.6,0.2,0.8,0.2
					c0.6,0.1-1.2-0.6-0.7-0.3c0.8,0.5-1.9-2.3-1.3-1.3c-0.7-1.3-0.3-0.7-0.2-0.3c0,0.1,0.1,0.3,0.1,0.4c0.1,0.5,0.1,0.3-0.1-0.5
					c-0.1,0.1,0.1,1.1,0.1,1.2c0,0.5,0,1.1-0.1,1.6c0,0.2-0.1,0.6-0.1,0.8c0-0.2,0.1-0.4,0.1-0.6c0,0.2-0.1,0.4-0.1,0.6
					c-0.1,0.7-0.2,1.4-0.4,2.1c-0.5,2.7-1.1,5.4-1.4,8.2c-0.3,2.8-0.3,6.2,1.7,8.4c1.3,1.3,3,2.3,4.6,3.2c2,1.2,4.1,2.3,6.2,3.5
					c0.9,0.5,1.8,1,2.6,1.6c0.1,0.1,0.3,0.2,0.4,0.3c0.8,0.5-0.8-0.7-0.3-0.3c0.8,0.8-0.4-0.8-0.2-0.4c1.1,2.1,4.2,2.9,6.2,1.6
					C502.2,308.3,502.8,305.7,501.6,303.5L501.6,303.5z"/>
			</g>
		</g>
		<g>
			<g>
				<path class="st2" d="M480,322.5c-1.2,2.6-2.1,5.3-3.1,8c-0.5,1.5-1.1,2.9-1.6,4.4c-0.3,0.9-0.7,1.8-0.9,2.7
					c-0.2,1.2-0.2,2.4,0.5,3.5c0.5,0.9,1.6,1.8,2.7,2.1c2.2,0.5,5-0.7,5.5-3.1c0.2-0.8,0.5-1.7,0.8-2.5c0.5-1.4,1-2.8,1.5-4.1
					c0.9-2.4,1.8-4.8,2.8-7.1c-0.2,0.4-0.3,0.7-0.5,1.1c0-0.1,0.1-0.2,0.1-0.3c0.5-1.1,0.8-2.2,0.5-3.5c-0.3-1-1.1-2.2-2.1-2.7
					c-1-0.6-2.3-0.8-3.5-0.5C481.7,320.8,480.5,321.4,480,322.5L480,322.5z"/>
			</g>
		</g>
	</g>
	<g id="handのコピー" class="st0">
		<g class="st1">
			<g>
				<path class="st2" d="M531.3,347.5c0-1.1,0.1-2.2,0.2-3.3c-0.1,0.4-0.1,0.8-0.2,1.2c0.5-3.8,1.6-7.4,2.3-11.2
					c0.2-1.2,0.2-2.4-0.5-3.5c-0.5-0.9-1.6-1.8-2.7-2.1c-2.2-0.5-5.1,0.7-5.5,3.1c-0.9,5.2-2.6,10.3-2.7,15.7c0,2.4,2.1,4.6,4.5,4.5
					C529.3,351.9,531.3,350.1,531.3,347.5L531.3,347.5z"/>
			</g>
		</g>
		<g class="st1">
			<g>
				<path class="st2" d="M568.5,292.4c0.1,0,0.9-0.3,0.9-0.3c0,0.1-1,0-0.5,0.1c0.1,0,0.3,0,0.4,0c0.1,0,0.3,0,0.4,0
					c0.5,0-0.5,0-0.5-0.1c0,0,0.9,0.3,1,0.3c0.5,0.1-0.4-0.1-0.4-0.2c0,0,0.4,0.2,0.4,0.2c0.3,0.1,0.5,0.3,0.8,0.4
					c0.2,0.1,1,0.5,0.4,0.2c-0.5-0.2-0.2-0.1,0,0c0.1,0.1,0.3,0.3,0.4,0.4c0.4,0.4,0.8,0.8,1.2,1.2c0.2,0.2,0.4,0.4,0.5,0.6
					c0.1,0.1,0.2,0.2,0.2,0.3c0.4,0.4-0.6-0.8-0.3-0.4c0.2,0.3,0.4,0.6,0.6,0.9c0.3,0.4-0.2-0.7-0.3-1c-0.1-0.7-0.1-0.5-0.1-0.2
					c0-0.1,0.2-1.2,0-0.6c-0.1,0.7,0.5-0.8,0.1-0.2c-0.1,0.2-0.3,0.5-0.4,0.7c-0.1,0.2-0.3,0.7-0.5,0.7c0,0,0.6-0.7,0.2-0.3
					c-0.1,0.2-0.3,0.3-0.4,0.5c-0.9,1-1.8,2-2.7,3c-0.9,1-1.8,1.9-2.8,2.7c-0.5,0.5-1.1,0.9-1.6,1.3c0.6-0.5,0,0-0.3,0.2
					c-0.4,0.3-0.7,0.5-1.1,0.7c-0.7,0.5-1.5,1-2.3,1.4c-0.4,0.2-0.8,0.4-1.2,0.6c-0.2,0.1-0.3,0.2-0.5,0.3c-0.1,0-0.8,0.4-0.3,0.2
					c0.5-0.2-0.1,0-0.2,0.1c-0.2,0.1-0.5,0.2-0.7,0.3c-0.4,0.2-0.9,0.3-1.3,0.4c-0.9,0.3-1.9,0.5-2.9,0.6c-2.3,0.4-3.8,3.4-3.1,5.5
					c0.8,2.5,3,3.5,5.5,3.1c7.7-1.2,14.3-6,19.5-11.5c2.4-2.6,5.4-5.5,5.9-9.1c0.5-3.4-2-6.3-4.3-8.4c-3.3-3.1-7.9-5.3-12.5-3.6
					c-2.2,0.8-3.9,3.1-3.1,5.5C563.7,291.4,566.2,293.2,568.5,292.4L568.5,292.4z"/>
			</g>
		</g>
		<g class="st1">
			<g>
				<path class="st2" d="M513.6,299.9c0.2-0.1,0.3-0.1,0.5-0.2c0.6-0.3-0.1,0.2-0.3,0.1c0.1,0.1,0.9-0.3,1-0.4
					c0.8-0.3,1.6-0.6,2.4-0.9c1.8-0.6,3.5-1.1,5.3-1.6c3.6-1,7.2-1.9,10.7-3.1c3.8-1.2,7.3-3.1,10.8-5.1c1.8-1,3.5-2,5.4-2.9
					c-0.9,0.5,0.6-0.2,1.1-0.4c0.2-0.1,0.5-0.2,0.7-0.4c0.7-0.4,1.4-0.8,2.1-1.2c1.4-0.8,2.8-1.7,4.2-2.5c0.7-0.4,1.4-0.8,2.1-1.1
					c1-0.5-0.6,0.2,0.2-0.1c0.4-0.1,0.8-0.3,1.2-0.4c0.2,0,0.3-0.1,0.5-0.1c0.5-0.2-1,0-0.5,0.1c0.1,0,0.8,0,0.7,0
					c0,0.1-1.1-0.3-0.2,0c0.2,0.1,0.4,0.1,0.7,0.2c0.3,0.1,1.4,0.6,0.6,0.2c0.4,0.2,0.8,0.4,1.3,0.7c0.1,0.1,0.3,0.2,0.4,0.3
					c0.5,0.3-0.5-0.5-0.1-0.1c0.3,0.3,0.6,0.6,0.9,0.9c0.6,0.6,0,0-0.1-0.1c0.1,0.2,0.3,0.5,0.4,0.7c0.3,0.5-0.2-0.7,0-0.1
					c0,0.1,0.1,0.4,0.2,0.5c-0.2-0.3-0.1-1.1,0-1.5c-0.1,0.6-0.1-0.2,0.2-0.4c-0.1,0-0.7,1.1-0.3,0.5c0.4-0.5,0,0-0.1,0.1
					c-0.2,0.2-0.4,0.4-0.6,0.6c-0.2,0.1-1,0.9-0.5,0.5c0.5-0.4-0.6,0.4-0.7,0.5c-0.5,0.3-1,0.6-1.5,0.9c-2.1,1.3-4,2.7-6.1,4
					c-4.4,2.6-8.9,5.1-13.5,7.5c-1.2,0.6-2.3,1.2-3.5,1.7c-0.1,0.1-0.9,0.4-0.3,0.1c0.6-0.2-0.2,0.1-0.3,0.1
					c-0.3,0.1-0.6,0.2-0.8,0.3c-0.2,0.1-0.5,0.1-0.7,0.1c0.1,0,1.3-0.2,0.4-0.1c-0.9,0.1-1.8,0.2-2.7,0.5c-2.3,0.7-3.9,3.2-3.1,5.5
					c0.7,2.3,3.1,3.8,5.5,3.1c0.3-0.1,0.6-0.2,0.9-0.2c0.1,0,0.2,0,0.3-0.1c0.6-0.2-0.8,0.1-0.7,0.1c0.8-0.1,1.6-0.2,2.4-0.3
					c2-0.5,4-1.5,5.9-2.5c4.4-2.2,8.7-4.7,13-7.1c2.7-1.5,5.2-3.3,7.8-5c3.1-2,6.8-4.3,7.8-8.1c1.4-5.5-4-10.2-8.5-12.1
					c-2.1-0.9-4.4-1.2-6.7-0.7c-1.9,0.4-3.7,1.3-5.4,2.1c-1.6,0.8-3.1,1.8-4.7,2.7c-0.7,0.4-1.3,0.8-2,1.2c-0.3,0.2-0.6,0.3-0.9,0.5
					c-0.2,0.1-0.7,0.3,0,0c0.5-0.2,0.5-0.2,0,0c-0.4,0.2-0.7,0.3-1.1,0.5c-2.1,0.9-4.1,2.1-6.1,3.2c-1,0.6-1.9,1.1-2.9,1.7
					c-0.5,0.3-0.9,0.5-1.4,0.8c-0.2,0.1-0.5,0.2-0.7,0.3c-0.1,0.1-1.1,0.5-0.4,0.2c0.6-0.3,0,0-0.1,0c-0.2,0.1-0.4,0.2-0.7,0.3
					c-0.5,0.2-0.9,0.3-1.4,0.5c-1,0.3-2,0.6-3,0.9c-2.2,0.6-4.3,1.2-6.5,1.8c-4.4,1.2-8.8,2.4-12.9,4.3c-2.1,1-2.9,4.2-1.6,6.2
					C508.9,300.5,511.3,301,513.6,299.9L513.6,299.9z"/>
			</g>
		</g>
		<g class="st1">
			<g>
				<path class="st2" d="M555.3,316.5c3.2,0.4,6.4,0,9.6-0.4c3.1-0.4,5.9-0.9,8.8-2.1c2.1-0.9,3.9-2.2,5.8-3.5
					c1.8-1.2,3.6-2.3,5.4-3.4c0.5-0.3-1.1,0.4-0.3,0.1c0.2-0.1,0.4-0.2,0.7-0.2c0.2-0.1,0.4-0.1,0.7-0.2c0.6-0.2-0.2,0.4-0.5,0.1
					c0,0,0.6,0,0.6,0c0.8-0.1-1.1-0.4-0.3,0c0.1,0,0.3,0.1,0.4,0.1c0.6,0.1-1-0.6,0,0c0.7,0.5-0.8-0.8-0.1-0.1
					c0.1,0.1,0.3,0.3,0.4,0.4c0.2,0.2,0.4,0.5,0.6,0.7c-0.4-0.3-0.6-0.8-0.8-1.3c0.3,0.9,0-0.9,0-0.4c0,0.3-0.1,0.7,0,1
					c0-1.3,0.2-0.9,0-0.5c0,0.2-0.1,0.4-0.1,0.6c-0.1,0.4-0.2,0.7-0.3,1.1c-0.3,1-0.7,1.9-1,2.8c0.5-1.3,0,0.1-0.2,0.4
					c-0.2,0.5-0.4,0.9-0.6,1.4c-0.5,0.9-0.9,1.9-1.4,2.8c-0.8,1.5-1.7,3.1-2.7,4.5c-0.3,0.4-1,1,0.1-0.1c-0.1,0.1-0.3,0.3-0.4,0.5
					c-0.6,0.7,0.6-0.4,0.4-0.3c-0.2,0.1-0.4,0.2-0.6,0.3c-0.3,0.2,1.3-0.5,0.3-0.1c-0.3,0.1-0.6,0.2-1,0.3c-0.7,0.2-1.4,0.4-2.2,0.5
					c-1.9,0.4-3.8,0.7-5.7,1c-0.5,0.1-0.9,0.1-1.4,0.2c-0.3,0-0.6,0.1-0.9,0.1c-1,0.1,1.1-0.1,0,0c-1.1,0.1-2.1,0.3-3.2,0.4
					c-4,0.5-8,0.9-12,1.2c-3.5,0.3-7.1,0.6-10.6,1c-2.5,0.3-5,0.7-7.6,0.9c-1,0.1-2,0.2-3.1,0.3c-0.7,0.1-2.8-0.2-0.6,0.2
					c-2.3-0.4-5,0.6-5.5,3.1c-0.5,2.2,0.7,5.1,3.1,5.5c1.7,0.3,3.3,0.1,5-0.1c2.4-0.3,4.7-0.6,7.1-0.9c3.5-0.4,7-0.8,10.6-1.1
					c8.7-0.7,17.4-1.4,25.9-3.1c2.9-0.6,6.4-1.3,8.4-3.7c2.6-3.1,4.5-6.8,6.2-10.4c1.7-3.7,4.3-9.1,2.1-13.1
					c-1.3-2.4-3.9-4.4-6.5-4.9c-2.8-0.6-5.4,0.2-7.9,1.4c-2.3,1.2-4.4,2.8-6.6,4.3c-1.1,0.7-2.2,1.4-3.4,2c-0.1,0.1-0.7,0.4-0.8,0.4
					c0.6-0.3,0.7-0.3,0.3-0.1c-0.2,0.1-0.4,0.1-0.6,0.2c-0.6,0.2-1.1,0.3-1.7,0.4c-1,0.2-2.1,0.3-3.1,0.5c-0.4,0.1-0.8,0.1-1.2,0.2
					c1.2-0.2-0.3,0-0.5,0.1c-1.1,0.1-2.2,0.2-3.4,0.3c-1.2,0-2.4,0-3.7-0.2c-2.3-0.3-4.6,2.3-4.5,4.5
					C550.9,314.7,552.8,316.2,555.3,316.5L555.3,316.5z"/>
			</g>
		</g>
		<g class="st1">
			<g>
				<path class="st2" d="M522.1,301.8c-0.9-1.8-3.1-3.2-4.7-4.4c-0.9-0.7-1.8-1.3-2.7-2c-0.4-0.3-0.9-0.6-1.3-1
					c-0.2-0.2-0.4-0.3-0.6-0.5c-0.2-0.1-1-0.7-0.3-0.2c0.6,0.5,0,0-0.2-0.1c-0.2-0.1-0.3-0.3-0.5-0.4c-0.3-0.3-0.6-0.5-0.9-0.8
					c-0.2-0.1-0.5-0.6,0.1,0.1c0.6,0.8,0-0.2,0.4,0.6c0.3,0.8,0.1,0.1,0-0.1c0-0.1,0-0.2-0.1-0.3c-0.2-0.6,0.1,0.5,0.1,0.5
					c0.1-0.3,0-1.1,0-1.5c0-0.6,0.1-1.2,0.1-1.8c0-0.5-0.1,0.5-0.1,0.5c0-0.1,0-0.3,0.1-0.4c0-0.3,0.1-0.6,0.1-0.9
					c0.1-0.7,0.3-1.4,0.4-2.1c0.5-2.8,1.1-5.6,1.4-8.4c0.2-2.6,0-6-2-7.9c-1.7-1.6-4.3-1.8-6.6-1.9c-2.7-0.1-5.4,0.2-8,0.9
					c-2.8,0.7-5.8,2.1-7.8,4.2c-1.4,1.5-2.2,3.4-2.7,5.3c-1.1,4.3-1,8.9-0.8,13.3c0.2,4.7,0.8,9.4,1.5,14c0.2,1.5,0.5,3.1,0.7,4.6
					c0.1,0.5,0.1,0.9,0.2,1.4c0,0.1,0,0.3,0.1,0.4c0,0.2,0.1,0.6-0.1-0.4c-0.2-1.5,0,0.5,0.1,0.7c0.5,1.7,1.9,3,3.1,4.1
					c1.7,1.5,3.5,2.8,5.2,4.2c1.6,1.2,3.3,2.4,5.1,3.6c1.3,0.9,2.8,1.9,4.3,2.3c1.7,0.5,3.5,0.1,4.8-1.2c1.7-1.7,1.8-4.7,0-6.4
					c-1.8-1.6-4.6-1.8-6.4,0c1.3-1.3,2.7-1.4,4.1-1.1c-0.1,0-0.1,0-0.2-0.1c-0.5-0.2,1.2,0.6,0.7,0.3c-0.1-0.1-0.2-0.1-0.3-0.2
					c-0.6-0.3-1.2-0.7-1.7-1c-1.5-1-3-2-4.4-3c-0.4-0.3-0.8-0.6-1.2-0.9c-0.3-0.2-1.7-1.2-0.5-0.4c-0.8-0.5-1.5-1.2-2.2-1.7
					c-0.5-0.4-1.1-0.9-1.6-1.4c-0.2-0.2-0.4-0.4-0.6-0.6c-0.4-0.4-0.7-1.1,0.2,0.4c0-0.1-0.1-0.1-0.1-0.2c0.5,0.9,0.4,1.2,0.6,2.1
					c-0.1-0.5-0.1-0.9-0.2-1.4c-0.1-0.4-0.1-0.7-0.2-1.1c-0.2-1.2-0.4-2.5-0.6-3.7c-0.1-0.8-0.2-1.6-0.3-2.4c-0.1-0.9,0.2,1.2,0,0.3
					c0-0.2-0.1-0.5-0.1-0.7c-0.1-0.5-0.1-1.1-0.2-1.6c-0.2-2.1-0.5-4.2-0.6-6.3c-0.2-2.1-0.3-4.2-0.3-6.3c0-1,0-2.1,0.1-3.1
					c0-0.9,0.3-1.9,0.2-2.8c0.1,1.5,0,0.3,0.1-0.2c0.1-0.4,0.1-0.7,0.2-1.1c0.1-0.4,0.2-0.7,0.3-1.1c0.4-1.2-0.5,0.7,0,0
					c0.1-0.2,0.4-0.5,0.5-0.8c-0.3,1-0.8,0.8-0.4,0.5c0.2-0.1,0.3-0.3,0.5-0.5c0.5-0.5-0.1,0.3-0.3,0.2c0,0,0.6-0.4,0.7-0.5
					c0.2-0.1,0.5-0.3,0.8-0.4c0.2-0.1,0.3-0.2,0.5-0.3c-0.6,0.3-0.7,0.3-0.3,0.1c1-0.4,2.1-0.7,3.2-0.9c0.1,0,0.8-0.1,0.9-0.2
					c-0.1,0.2-1,0.1,0,0c0.6-0.1,1.1-0.1,1.7-0.1c0.9,0,1.8,0,2.7,0c0.2,0,0.4,0.1,0.6,0.1c-1.3,0.1-1-0.2-0.5-0.1
					c0.7,0.2,1.3,0.6-0.1-0.2c0,0,0.1,0,0.1,0.1c-0.4-0.2-1.8-1.4-1.7-2c0,0.1,0.1,0.5,0.2,0.6c0.3,0.8-0.3,0,0-0.3
					c-0.1,0.1,0.1,1.1,0.1,1.3c0,0.6,0,1.2-0.1,1.7c-0.1,0.5-0.4,0.9,0-0.1c-0.1,0.2-0.1,0.6-0.1,0.9c-0.1,0.5-0.2,1-0.3,1.5
					c-0.2,1.3-0.5,2.6-0.7,3.9c-0.5,2.7-1.1,5.5-0.8,8.2c0.3,2.6,1.2,4.6,3.2,6.3c2,1.6,4,3.1,6.1,4.6c0.5,0.4,1,0.7,1.5,1.1
					c-1.2-0.8,0,0,0.4,0.3c0.3,0.3,0.6,0.5,0.9,0.8c0.9,0.9-0.3-0.6-0.1-0.2c1,2.1,4.2,2.9,6.2,1.6
					C522.7,306.5,523.2,304,522.1,301.8L522.1,301.8z"/>
			</g>
		</g>
		<g class="st1">
			<g>
				<path class="st2" d="M503.6,320.8c-1.2,2.6-2.1,5.3-3.1,8c-0.5,1.5-1.1,2.9-1.6,4.4c-0.3,0.9-0.7,1.8-0.9,2.7
					c-0.2,1.2-0.2,2.4,0.5,3.5c0.5,0.9,1.6,1.8,2.7,2.1c2.2,0.5,5-0.7,5.5-3.1c0.2-0.8,0.5-1.7,0.8-2.5c0.5-1.4,1-2.8,1.5-4.1
					c0.9-2.4,1.8-4.8,2.8-7.1c-0.2,0.4-0.3,0.7-0.5,1.1c0-0.1,0.1-0.2,0.1-0.3c0.5-1.1,0.8-2.2,0.5-3.5c-0.3-1-1.1-2.2-2.1-2.7
					c-1-0.6-2.3-0.8-3.5-0.5C505.2,319,504.1,319.7,503.6,320.8L503.6,320.8z"/>
			</g>
		</g>
	</g>
</g>
<g id="building_1_">
	<polygon class="st5" points="415.6,252.5 333.2,252.5 333.2,114 415.6,97.5 	"/>
	<polygon class="st5" points="502.6,252.5 420.2,252.5 420.2,97.5 502.6,114 	"/>
	<polygon class="st5" points="586.7,252.5 504.3,252.5 504.3,168.4 586.7,177.4 	"/>
	<g>
		<path d="M361.5,191.9l22-3.3l6.5,46.2h-12l-1.6-20.8c-0.3-4.2-0.5-9.3-1.5-13.6l-6.9,1.6c-0.9,4.4-2,7.8-3,11.9l-4.9,20.8h-10
			L361.5,191.9z M356.2,216.8l21-1.6v8.8l-21,1.6V216.8z"/>
	</g>
	<g>
		<path d="M446.2,185.3l15.4,1.6c9,0,14.6,3.9,14.6,12.3c0,3.7-0.5,9.6-3.8,10.9v0.3c4.1,1.2,5.7,4.4,5.7,10
			c0,8.8-7.7,14.3-16.9,14.3h-15.1V185.3z M461.3,207c3.7,0,5.4-1.7,5.4-4.4c0-2.6-1.7-5.3-5.4-5.3h-5.5v9.7H461.3z M462.1,224.4
			c4.5,0,6.6-1.6,6.6-4.7c0-3.2-2.1-6-6.6-6h-6.3v10.7H462.1z"/>
	</g>
	<g>
		<path d="M535.6,219.1c0-10.6,6.1-16.6,12.8-16.6c3.5,0,6.4,1.9,8.3,4.2L553,212c-1.3-1.4-2.6-2.3-4.4-2.3c-3.1,0-5.8,3.4-5.8,9.1
			c0,5.9,2.3,9.2,5.7,9.2c2,0,3.7-1.3,4.8-2.7l3.7,5.2c-2.2,3.1-5.3,4.7-8.8,4.7C541.5,235.2,535.6,229.9,535.6,219.1z"/>
	</g>
</g>
<g id="building" class="st0">
	<polygon class="st6" points="588.6,130 418.7,163.9 418.5,86.6 588.4,52.7 	"/>
	<polygon class="st6" points="336.6,131.7 337.1,54.3 414.6,85 414.6,163.5 	"/>
	<polygon class="st7" points="470.7,150.8 438.2,158.3 438.2,113.5 470.7,106.9 	"/>
	<polygon class="st6" points="416.2,82 343.2,52 487.2,26 581.2,50 	"/>
	<polygon class="st7" points="523.3,139.3 494.1,146 494.1,105.6 523.4,99.6 	"/>
	<polygon class="st7" points="575.3,129.3 546,136 546,95.5 575.3,89.5 	"/>
</g>
<g id="hair">
	<g>
		<path class="st8" d="M292.8,101.2c18-9.3,38.9-13,59-10.5c6,0.8,54.5,25.3,51.4,49.1c-5.1,39.5-31.6,114-42.9,102.2"/>
		<g>
			<path class="st2" d="M295.1,105.1c5.9-3,11-5.1,17.8-7c3.3-0.9,6.6-1.7,9.9-2.3c0.7-0.1,1.4-0.2,2.2-0.4c0.4-0.1,0.9-0.1,1.3-0.2
				c1.4-0.2-0.9,0.1,0.6-0.1c1.6-0.2,3.2-0.4,4.8-0.5c3.4-0.3,6.8-0.4,10.1-0.3c1.6,0,3.2,0.1,4.8,0.2c0.7,0.1,1.5,0.1,2.2,0.2
				c0.7,0.1,1.9,0.5,2.6,0.3c-0.7,0.2-0.9-0.2-0.4,0c0.1,0,0.3,0.1,0.4,0.1c0.4,0.1,0.8,0.2,1.1,0.4c0.4,0.1,0.9,0.3,1.3,0.5
				c0.2,0.1,0.4,0.2,0.7,0.3c0.9,0.3-1.1-0.5-0.1,0c6.3,2.8,12.3,6.2,18,9.9c1.8,1.2,3.6,2.4,5.3,3.7c0.8,0.6,1.6,1.2,2.4,1.8
				c0.6,0.5-0.1,0.2-0.1-0.1c0,0.1,0.6,0.5,0.7,0.5c0.4,0.4,0.9,0.7,1.3,1.1c3.3,2.7,6.4,5.5,9.2,8.7c0.7,0.7,1.3,1.5,1.9,2.2
				c0.2,0.2,0.6,1-0.1-0.1c0.1,0.1,0.2,0.3,0.3,0.4c0.4,0.5,0.7,1,1,1.5c1,1.5,2,3.1,2.7,4.7c0.1,0.2,0.2,0.4,0.3,0.6
				c0.4,0.9-0.1-0.2-0.1-0.2c0,0,0.4,1,0.4,1.1c0.3,0.9,0.6,1.7,0.8,2.6c0.1,0.4,0.1,0.7,0.2,1.1c0.2,1.2-0.1-1.1,0,0.2
				c0.1,0.8,0.1,1.7,0.1,2.5c0,0.4-0.1,0.9-0.1,1.3c-0.1,1.2,0.1-0.9,0,0.3c-0.1,1-0.3,2.1-0.5,3.1c-0.3,2-0.7,4-1,6
				c-0.8,4.4-1.8,8.8-2.9,13.2c-2.3,9.4-4.9,18.8-7.9,28c-1.5,4.5-3,9-4.7,13.5c-0.8,2.1-1.6,4.3-2.5,6.4c-0.4,1-0.8,1.9-1.2,2.9
				c-0.1,0.3-1,2-0.3,0.8c-0.3,0.5-0.4,1-0.7,1.6c-2.8,6.5-5.8,13-9.9,18.7c-0.2,0.2-0.3,0.5-0.5,0.7c-0.3,0.4-1.2,1.2,0,0.1
				c-0.4,0.4-0.7,0.9-1.1,1.4c-0.7,0.8-1.5,1.4-2.3,2.2c1.1-1.1,0.7-0.5,0.3-0.3c-0.2,0.1-0.4,0.2-0.6,0.4c-0.2,0.1-0.3,0.2-0.5,0.2
				c-0.7,0.4,1.3-0.4,0.4-0.2c-0.2,0-0.4,0.1-0.5,0.1c-0.6,0.2,1.3,0,0.7-0.1c-0.2,0-0.4,0-0.5,0c-0.4,0,1.5,0.3,0.6,0.1
				c-1.1-0.3,1.2,0.6,0.1,0c-0.5-0.3-0.2-0.6,0.5,0.4c-0.1-0.1-0.3-0.3-0.4-0.4c-1.7-1.7-4.7-1.8-6.4,0c-1.7,1.8-1.8,4.6,0,6.4
				c2.1,2.1,4.9,3,7.8,2.3c2.4-0.6,4.5-2.2,6.2-3.9c4.6-4.6,7.7-10.7,10.5-16.5c8.4-17.4,14.5-36.1,19.5-54.7
				c2.4-9,4.5-18.1,5.9-27.3c0.7-4.3,1.2-8.3,0.3-12.6c-0.8-3.9-2.7-7.7-4.9-11c-5.2-7.6-12.2-13.7-19.6-19.1
				c-6.4-4.7-13.2-8.8-20.4-12.3c-2.5-1.2-5-2.4-7.6-3.3c-1.1-0.4-2.1-0.5-3.2-0.7c-3.4-0.4-6.9-0.7-10.3-0.7
				c-13.9-0.3-27.9,2.2-40.8,7.4c-3.4,1.3-6.7,2.8-9.9,4.5c-2.1,1.1-2.9,4.2-1.6,6.2C290.3,105.6,292.8,106.2,295.1,105.1
				L295.1,105.1z"/>
		</g>
	</g>
	<g>
		<path class="st8" d="M292,101.4c-3.6-1.4-7.3-2.8-10.9-4.2c-7.3-2.8-14.7-5.7-22.6-6.2c-7.6-0.4-15.1,1.5-22.1,4.5
			C214,105,194.6,164,190.2,188"/>
		<g>
			<path class="st2" d="M293.2,97c-7.4-2.9-14.8-6.1-22.4-8.4c-8-2.4-16.2-2.9-24.4-1.1c-3.6,0.8-7.2,1.9-10.6,3.4
				c-2,0.8-3.8,1.7-5.6,2.9c-3.5,2.4-6.5,5.4-9.2,8.7c-6.4,7.8-11.4,16.7-15.6,25.8c-4.7,9.9-8.6,20.2-12,30.6
				c-3,9.2-5.7,18.5-7.4,28c-0.4,2.3,0.6,5,3.1,5.5c2.2,0.5,5.1-0.7,5.5-3.1c1.5-8.1,3.7-16.1,6.1-23.9c1.5-4.9,3.1-9.7,4.9-14.5
				c0.9-2.5,1.9-5,2.9-7.5c0.4-1.1,0.9-2.2,1.4-3.3c0.4-1-0.4,0.9,0.1-0.1c0.1-0.3,0.3-0.6,0.4-0.9c0.3-0.7,0.6-1.4,0.9-2.1
				c4-9,8.5-17.9,14.4-25.9c0.3-0.4,0.5-0.7,0.8-1.1c0.6-0.8-0.7,0.8-0.1,0.1c0.2-0.2,0.3-0.4,0.5-0.6c0.7-0.9,1.4-1.7,2.2-2.5
				c1.3-1.4,2.6-2.8,4.1-4c0.3-0.3,0.7-0.6,1-0.9c0.7-0.5-0.9,0.7-0.2,0.2c0.1-0.1,0.2-0.2,0.3-0.3c0.7-0.5,1.5-1,2.3-1.5
				c2.3-1.3,3.7-1.8,6.4-2.7c2.1-0.7,4.2-1.2,6.3-1.7c0.5-0.1,0.9-0.2,1.4-0.3c0.3-0.1,0.6-0.1,0.9-0.1c0.5-0.1,0.6-0.1,0.3,0
				c-0.6,0.1,0.9-0.1,0.8-0.1c0.6-0.1,1.2-0.1,1.8-0.1c4.5-0.2,7.5,0.2,11.7,1.3c8.5,2.2,16.6,5.8,24.7,9c2.2,0.9,5-0.9,5.5-3.1
				C296.9,100,295.5,97.9,293.2,97L293.2,97z"/>
		</g>
	</g>
	<rect x="265.2" y="106" class="st9" width="45" height="45"/>
	<polygon class="st8" points="279.7,159.5 226.7,187.5 193.7,184.5 263.7,125.5 	"/>
</g>
<g id="face">
	<polygon class="st10" points="357.4,236 331.2,271 259,184.1 289.8,158.2 	"/>
	<polygon class="st10" points="258,265.8 314.4,226 278.2,154 216.2,190 	"/>
	<g>
		<path class="st8" d="M281.2,151c-3,13-17,21-29,27c-7.6,3.8-32,11-60,10"/>
		<g>
			<path class="st2" d="M276.9,149.8c-0.2,0.7-0.4,1.4-0.6,2.2c-0.1,0.4-0.3,0.8-0.4,1.1c0,0.1-0.3,0.6,0,0.1
				c0.3-0.6-0.1,0.3-0.2,0.4c-0.7,1.4-1.5,2.8-2.5,4.1c-0.2,0.3-0.6,0.8-0.1,0.2c-0.3,0.3-0.5,0.6-0.8,0.9c-0.5,0.6-1.1,1.2-1.7,1.8
				c-1.2,1.2-2.4,2.3-3.7,3.4c-0.2,0.1-1.2,0.9-0.4,0.3c-0.3,0.2-0.6,0.4-0.9,0.7c-0.7,0.5-1.4,1-2.1,1.5c-1.4,1-2.9,1.9-4.4,2.8
				c-2.9,1.7-5.9,3.3-8.9,4.8c-0.4,0.2-0.7,0.4-1.1,0.5c-0.2,0.1-0.4,0.2-0.5,0.2c-0.2,0.1-0.9,0.4-0.1,0.1c0.8-0.4-0.5,0.2-0.7,0.3
				c-0.5,0.2-1,0.4-1.5,0.6c-2.3,0.8-4.7,1.6-7,2.2c-6.4,1.8-13,3.2-19.6,4.1c-0.2,0-0.4,0.1-0.6,0.1c-0.1,0-1.2,0.2-0.6,0.1
				c0.5-0.1-0.2,0-0.2,0c-0.3,0-0.6,0.1-0.8,0.1c-1.1,0.1-2.3,0.3-3.4,0.4c-2.3,0.2-4.6,0.4-6.9,0.6c-4.9,0.3-9.8,0.4-14.8,0.2
				c-2.4-0.1-4.6,2.1-4.5,4.5c0.1,2.5,2,4.4,4.5,4.5c16,0.5,32.3-1.3,47.7-5.5c11.2-3,22-8,31.3-15.1c6.6-5.1,12.4-11.4,14.3-19.7
				c0.5-2.3-0.7-5-3.1-5.5C280.1,146.2,277.5,147.4,276.9,149.8L276.9,149.8z"/>
		</g>
	</g>
	<g>
		<path class="st11" d="M216.2,188c-0.4,3.6-1,32,1,42c1,4.9,4.9,42.9,24,60c12.8,11.5,29.7,15.5,42,16.8"/>
		<g>
			<path class="st2" d="M211.7,188c-0.3,3.2-0.3,6.4-0.3,9.6c-0.1,5.4-0.1,10.8,0.1,16.2c0.1,5.2,0.4,10.5,1.1,15.7
				c0.3,2.4,0.8,4.7,1.2,7.1c1.5,9.3,3.6,18.6,6.7,27.5c4,11.2,9.6,22.4,18.8,30.2c11,9.2,24.8,14.4,38.9,16.4
				c1.7,0.2,3.4,0.5,5.1,0.6c2.3,0.2,4.6-2.2,4.5-4.5c-0.1-2.6-2-4.2-4.5-4.5c-0.7-0.1-1.3-0.1-2-0.2c-0.2,0-1.2-0.2-0.5-0.1
				c0.7,0.1-0.7-0.1-0.8-0.1c-1.4-0.2-2.9-0.5-4.3-0.7c-3.1-0.6-6.2-1.4-9.3-2.4c-1.6-0.5-3.3-1.1-4.8-1.7c-0.4-0.1-0.7-0.3-1.1-0.4
				c-0.2-0.1-0.4-0.1-0.5-0.2c0.2,0.1,0.8,0.3,0,0c-0.8-0.3-1.6-0.7-2.3-1.1c-3.2-1.5-6.3-3.3-9.2-5.4c-0.4-0.3-0.8-0.6-1.2-0.8
				c-0.4-0.3,0,0,0.1,0.1c-0.2-0.1-0.3-0.3-0.5-0.4c-0.8-0.6-1.5-1.2-2.2-1.9c-1-0.9-1.9-1.8-2.8-2.8c-0.4-0.5-0.9-1-1.3-1.5
				c-0.2-0.3-0.5-0.5-0.7-0.8c-0.3-0.4-0.7-0.8-0.2-0.2c-0.9-1-1.6-2.2-2.3-3.3c-1.6-2.4-2.9-4.9-4.2-7.4c-0.6-1.2-1.2-2.5-1.7-3.8
				c-0.2-0.5-0.4-0.8,0-0.1c-0.2-0.3-0.3-0.7-0.4-1c-0.3-0.7-0.5-1.4-0.8-2.1c-3.4-9-5.7-18.4-7.3-27.9c-0.4-2.4-0.7-4.8-1.2-7.2
				c-0.1-0.8-0.3-1.5-0.4-2.3c0.1,0.4,0.1,1.1,0,0.3c0-0.2-0.1-0.5-0.1-0.7c-0.1-0.6-0.1-1.1-0.2-1.7c-0.2-2.5-0.4-4.9-0.5-7.4
				c-0.4-9.3-0.4-18.6,0.1-27.9c0-0.4,0-0.8,0.1-1.2c0.2-2.4-2.2-4.6-4.5-4.5C213.6,183.6,212,185.5,211.7,188L211.7,188z"/>
		</g>
	</g>
	<g>
		<path class="st11" d="M284.2,307c7.1,0.1,41-6,50-15c17.2-17.2,12.4-29.5,26-57"/>
		<g>
			<path class="st2" d="M284.2,311.5c2.5,0,5.1-0.4,7.6-0.7c3.4-0.5,6.8-1.1,10.2-1.8c7.8-1.6,15.6-3.6,23-6.6
				c3.3-1.3,6.7-2.8,9.6-4.9c3.6-2.6,6.5-6.1,9.2-9.7c4.7-6.3,7.5-13.6,9.7-21.1c1.3-4.5,2.6-9,4-13.4c0.9-2.6,1.8-5.1,2.8-7.7
				c0.1-0.3,0.3-0.6,0.4-0.9c0.1-0.2,0.6-1.5,0.3-0.6c0.3-0.7,0.6-1.3,0.9-1.9c0.7-1.6,1.5-3.3,2.3-4.9c1-2.1,0.6-5-1.6-6.2
				c-2-1.1-5-0.6-6.2,1.6c-4.4,9-7.7,18.4-10.5,28c-1,3.5-2,7-3.3,10.4c-0.3,0.8-0.6,1.5-0.9,2.3c-0.4,0.9,0.4-0.8,0.1-0.2
				c-0.1,0.2-0.2,0.4-0.3,0.6c-0.2,0.5-0.4,0.9-0.6,1.4c-0.8,1.7-1.7,3.3-2.7,4.8c-0.5,0.8-1,1.6-1.6,2.4c-0.3,0.4-0.5,0.8-0.8,1.1
				c0.7-0.8,0.2-0.3,0,0c-0.2,0.3-0.4,0.5-0.6,0.8c-1.4,1.7-2.8,3.3-4.4,4.8c-0.2,0.2-0.5,0.4-0.7,0.6c-0.8,0.7,0.8-0.6,0,0
				c-0.6,0.4-1.3,0.9-1.9,1.3c-1.3,0.8-2.7,1.5-4.2,2.2c-0.4,0.2-0.8,0.4-1.2,0.5c-0.9,0.4,0.8-0.3,0.2-0.1
				c-0.2,0.1-0.4,0.2-0.6,0.3c-0.9,0.4-1.8,0.7-2.7,1c-1.8,0.7-3.7,1.3-5.5,1.8c-3.9,1.2-7.8,2.2-11.7,3c-3.9,0.9-7.8,1.6-11.7,2.2
				c-0.4,0.1-0.7,0.1-1.1,0.2c-0.8,0.1,1-0.1,0.4-0.1c-0.2,0-0.4,0.1-0.6,0.1c-0.7,0.1-1.4,0.2-2.1,0.2c-1,0.1-2.1,0.2-3.1,0.2
				c-2.4,0-4.6,2.1-4.5,4.5C279.8,309.5,281.7,311.5,284.2,311.5L284.2,311.5z"/>
		</g>
	</g>
	<g>
		<path class="st11" d="M282.2,150c5.6-1.6,27-18,54-2c18.2,10.8,20.4,49,26,61c5.5,11.8,22-16.8,32,6c7,16,0.4,22.3-6,29
			c-6.1,6.4-24,18-29-6"/>
		<g>
			<path class="st2" d="M283.4,154.4c2.6-0.7,5-2.2,7.4-3.3c0.7-0.3,1.4-0.6,2.1-1c0.4-0.2,0.9-0.4,1.3-0.6c0.7-0.3-0.3,0.1-0.4,0.2
				c0.3-0.1,0.6-0.3,1-0.4c1.9-0.8,3.9-1.4,5.9-2c1.1-0.3,2.2-0.6,3.3-0.8c0.5-0.1,1-0.2,1.6-0.3c0.3-0.1,0.6-0.1,1-0.2
				c0.2,0,1.3-0.3,0.1,0c2.4-0.5,5.1-0.4,7.6-0.3c0.7,0,1.5,0.1,2.2,0.2c0.3,0,2.1,0.3,1,0.1c1.6,0.2,3.1,0.5,4.6,0.9
				c3.3,0.9,5.7,1.8,8.2,3c1.4,0.7,2.7,1.4,4,2.2c0.4,0.3,0.8,0.5,1.3,0.8c0.1,0.1,0.3,0.2,0.4,0.3c0.6,0.5-0.9-0.7,0.1,0.1
				c1.5,1.2,2.7,2.6,4,4.1c0.6,0.7-0.6-0.9,0-0.1c0.1,0.1,0.2,0.3,0.3,0.4c0.3,0.4,0.6,0.9,0.9,1.3c0.6,0.8,1.1,1.7,1.6,2.6
				c1,1.8,2,3.7,2.8,5.7c0,0.1,0.1,0.2,0.1,0.3c0.2,0.4,0.2,0.4-0.1-0.3c0.2,0.2,0.3,0.6,0.3,0.8c0.2,0.5,0.4,0.9,0.5,1.4
				c0.4,1.1,0.8,2.3,1.2,3.4c0.7,2.1,1.4,4.2,2,6.4c1.2,4.2,2.2,8.4,3.2,12.7c0.9,3.7,1.7,7.5,2.7,11.2c0.8,3,1.6,6.3,3.3,9
				c2.2,3.5,5.8,4.9,9.8,4.1c2.9-0.5,5.6-2.1,8.2-3.4c0.6-0.3,1.3-0.6,1.9-0.9c0.3-0.2,0.7-0.3,1-0.5c0.4-0.2,0.8-0.1-0.4,0.2
				c0.3-0.1,0.5-0.2,0.7-0.3c0.6-0.2,1.2-0.4,1.9-0.6c0.4-0.1,0.8-0.2,1.1-0.3c0.1,0,0.3,0,0.4-0.1c-1.3,0.4-0.8,0.1-0.3,0.1
				c0.3,0,0.6,0,0.9,0c0.2,0,0.4,0,0.6,0c0.8,0-1.1-0.2-0.5-0.1c0.3,0.1,0.7,0.1,1,0.2c0.2,0,0.3,0.1,0.5,0.1
				c0.9,0.2-0.9-0.5-0.3-0.1c0.3,0.2,0.6,0.3,0.9,0.5c0.1,0.1,0.4,0.4,0.5,0.4c-0.4,0-0.8-0.7-0.2-0.1c0.3,0.3,0.6,0.5,0.9,0.8
				c0.2,0.2,0.3,0.4,0.5,0.6c0.6,0.6-0.6-0.8,0-0.1c0.6,1,1.2,1.9,1.8,2.9c0.3,0.5,0.5,1.1,0.8,1.6c-0.3-0.7,0.3,0.8,0.3,0.7
				c0.2,0.4,0.3,0.9,0.5,1.3c0.5,1.4,0.9,2.9,1.2,4.3c0.1,0.4,0.1,0.7,0.2,1.1c0,0.2,0.2,0.9,0-0.1c0.1,0.7,0.1,1.5,0.2,2.2
				c0,0.6,0,1.1,0,1.7c0,0.2-0.1,0.5-0.1,0.7c0,0.6,0.2-1.1,0-0.2c-0.2,1.1-0.5,2.1-0.9,3.2c-0.2,0.7,0.1-0.3,0.2-0.3
				c-0.1,0.2-0.2,0.5-0.3,0.7c-0.2,0.4-0.4,0.8-0.6,1.1c-0.5,0.9-1.2,1.7-1.7,2.6c0.8-1.2-0.1,0.1-0.3,0.3c-0.3,0.4-0.6,0.7-0.9,1.1
				c-0.7,0.8-1.4,1.5-2.1,2.2c-0.9,1-1.9,2-2.9,2.9c-0.3,0.2-0.5,0.4-0.8,0.6c-0.3,0.3-1.4,0.9-0.1,0.1c-0.6,0.4-1.2,0.9-1.8,1.3
				c-1.3,0.9-2.6,1.6-4,2.3c-0.4,0.2-0.7,0.1,0.4-0.2c-0.2,0-0.4,0.2-0.6,0.2c-0.3,0.1-0.6,0.2-1,0.3c-0.8,0.3-1.5,0.4-2.3,0.6
				c-1.1,0.2,1.2-0.1,0,0c-0.3,0-0.6,0-1,0.1c-0.4,0-0.8,0-1.2,0c-0.1,0-0.3,0-0.4,0c1.4,0,0.8,0.1,0.2,0c-0.3-0.1-0.6-0.2-0.9-0.3
				c-0.2-0.1-0.4-0.2-0.6-0.2c0.9,0.1,0.9,0.4,0.4,0.2c-0.3-0.2-0.7-0.3-1-0.5c-0.1-0.1-0.3-0.2-0.4-0.3c-0.8-0.5,0.7,0.7,0.1,0.1
				c-0.3-0.3-0.6-0.5-0.8-0.8c-0.2-0.2-0.3-0.3-0.5-0.5c-0.3-0.3-0.4-0.9,0.1,0.2c-0.5-0.9-1.1-1.6-1.6-2.5
				c-0.1-0.3-0.3-0.5-0.4-0.8c-0.4-0.9,0.2,0.7,0,0.1c-0.2-0.6-0.4-1.1-0.6-1.7c-0.4-1.3-0.8-2.7-1.1-4c-0.5-2.3-3.3-3.9-5.5-3.1
				c-2.4,0.8-3.7,3.1-3.1,5.5c1.1,5,3,10.4,6.9,13.9c3.1,2.7,7.1,4.2,11.2,3.9c6.9-0.6,13.4-4.6,18.2-9.4c2.9-3,5.9-6.1,7.9-9.7
				c2.7-4.9,3.2-10.3,2.2-15.8c-0.6-3.4-1.9-6.7-3.4-9.9c-1.1-2.3-2.5-4.6-4.3-6.4c-2.9-2.9-6.9-4.6-11-4.2
				c-3.7,0.4-7.1,1.9-10.4,3.6c-1.3,0.7-2.6,1.3-4,1.9c-0.7,0.3,1.1-0.4,0.4-0.2c-0.2,0.1-0.3,0.1-0.5,0.2c-0.3,0.1-0.5,0.2-0.8,0.3
				c-0.3,0.1-0.6,0.2-0.9,0.2c-1.1,0.3,1.1,0,0.2,0c-0.3,0-0.6,0-0.8,0c1.3-0.2,1.1,0.2,0.7,0.1c-0.1,0-0.2-0.1-0.3-0.1
				c-0.7-0.1,1.2,0.7,0.3,0.1c-0.7-0.5,0.9,0.9,0.1,0.1c-0.8-0.8,0.5,0.9,0,0c-0.2-0.3-0.3-0.6-0.5-0.9c-0.2-0.4-0.6-1.5,0,0.1
				c-0.1-0.4-0.3-0.7-0.4-1.1c-1.2-3.2-2-6.6-2.8-10c-2.1-8.7-3.9-17.5-6.8-26c-2.9-8.4-6.9-17.5-14-23.2c-5-4-11.2-6.8-17.4-8.5
				c-5.7-1.5-11.7-2-17.5-1.4c-4.9,0.6-9.7,1.7-14.3,3.5c-3.4,1.3-6.8,3-10.1,4.6c-0.5,0.2-1,0.5-1.5,0.7c-0.3,0.2,1.3-0.5,0.3-0.1
				c-0.2,0.1-0.4,0.1-0.6,0.2c-2.3,0.7-3.9,3.2-3.1,5.5C278.6,153.5,281,155.1,283.4,154.4L283.4,154.4z"/>
		</g>
	</g>
	<g>
		<path class="st11" d="M322.1,196.6c-1.3,1.5-3,2.8-4.9,3.7c-0.1,0-8.5,3.4-16.1-1.8c-0.8-0.5-1.5-1.1-2.1-1.9"/>
		<g>
			<path class="st2" d="M318.9,193.4c-0.4,0.5-0.9,0.9-1.3,1.4c-0.1,0.1-1.1,0.7-0.3,0.2c-0.3,0.2-0.5,0.4-0.8,0.5
				c-0.3,0.2-0.6,0.3-0.8,0.5c-0.4,0.2-0.8,0.2,0.4-0.1c-0.1,0-0.2,0.1-0.3,0.1c-0.4,0.1-0.9,0.3-1.3,0.4c-0.3,0.1-0.7,0.2-1,0.2
				c-0.2,0-0.5,0.1-0.7,0.1c-0.2,0-0.9,0.1-0.1,0c0.8-0.1-0.1,0-0.2,0c-0.2,0-0.5,0-0.7,0c-0.5,0-1,0-1.5,0c-0.5,0-1.3-0.2-1.8-0.1
				c0.5-0.1,0.7,0.1,0,0c-0.3-0.1-0.6-0.1-0.9-0.2c-0.6-0.1-1.2-0.3-1.7-0.5c-1.1-0.4,0.4,0.3-0.2-0.1c-0.3-0.2-0.6-0.3-0.9-0.4
				c-0.4-0.2-0.7-0.4-1.1-0.6c-0.1-0.1-1-0.7-0.5-0.3c0.5,0.4-0.3-0.3-0.4-0.3c-0.3-0.2-0.5-0.5-0.7-0.8c-1.5-1.9-4.8-1.7-6.4,0
				c-1.8,2-1.6,4.4,0,6.4c2.1,2.7,5.8,4.4,9,5.3c2.6,0.7,5.5,0.9,8.2,0.6c4.8-0.6,8.9-2.2,12.2-6c1.6-1.8,1.9-4.7,0-6.4
				C323.5,191.8,320.6,191.5,318.9,193.4L318.9,193.4z"/>
		</g>
	</g>
	<g>
		<path class="st11" d="M311.1,228.6c-1.1,0.5-2.6,0-3.4-1s-0.7-2.5-0.2-3.6c0.5-1,1.3-1.8,2.3-2.1c1-0.3,2.2-0.2,3.1,0.5
			c0.9,0.7,1.4,1.9,1.2,3c-0.2,1.1-1.1,2-2.2,2.2c-1.2,0.2-2.5-0.7-2.5-1.9c0-1.1,1.3-1.9,2.3-1.5c1,0.4,1.4,1.8,0.9,2.7
			c-0.5,0.8-1.6,1.1-2.4,0.7c-0.1,0-0.2-0.1-0.2-0.2c-0.3-0.3,0-0.8,0.3-1c0.3-0.3,0.6-0.5,1-0.7c0.1-0.1,0.3-0.1,0.4-0.1
			c0.1,0,0.2,0.1,0.2,0.3c0.4,0.7,0.3,1.5,0,2.2c-1.6,0.7-3.5,0.5-5-0.4c-0.1-0.1-0.3-0.2-0.4-0.3c-0.1-0.2-0.1-0.4-0.1-0.6
			c0-0.8,0-1.5,0-2.3c0-0.6,0-1.2,0.3-1.7c0.2-0.4,0.7-0.7,1.1-1c1-0.6,2-1.2,3.2-1.4c1.2-0.1,2.4,0.2,3.1,1.2
			c0.4,0.5,0.5,1.2,0.6,1.8c0.1,1,0.2,2-0.2,2.8c-0.3,0.5-0.7,0.9-1.1,1.2c-1.1,0.9-2.5,1.5-3.9,1.8c-0.3,0.1-0.6,0.1-0.9,0
			c-0.6-0.1-1-0.7-1.5-1.1c-0.7-0.5-1.6-0.6-2-1.3c-0.1-0.3-0.1-0.6-0.1-0.9c0-0.6,0-1.2,0-1.7c0-0.5,0-1,0.2-1.5
			c0.1-0.4,0.3-0.7,0.6-1c1-1.3,2.4-2.1,4-2.3s3.3,0.4,4.3,1.6c0.4,0.5,0.7,1,0.9,1.6c0.6,2-0.5,4.5-2.5,5.3"/>
		<g>
			<path class="st2" d="M308.9,224.7c0,0-0.1,0-0.1,0.1c0.4-0.2,0.7-0.3,1.1-0.5c-0.2,0.1-0.3,0.1-0.5,0.1c0.4-0.1,0.8-0.1,1.2-0.2
				c-0.2,0-0.4,0-0.7,0c0.4,0.1,0.8,0.1,1.2,0.2c-0.3,0-0.5-0.1-0.8-0.2c0.4,0.2,0.7,0.3,1.1,0.5c-0.3-0.1-0.5-0.2-0.7-0.4
				c0.3,0.2,0.6,0.5,0.9,0.7c-0.2-0.1-0.3-0.3-0.5-0.5c0.2,0.3,0.5,0.6,0.7,0.9c-0.1-0.2-0.3-0.4-0.4-0.6c0.2,0.4,0.3,0.7,0.5,1.1
				c-0.1-0.3-0.2-0.6-0.2-0.9c0.1,0.4,0.1,0.8,0.2,1.2c0-0.4,0-0.7,0-1.1c-0.1,0.4-0.1,0.8-0.2,1.2c0.1-0.4,0.1-0.7,0.3-1
				c-0.2,0.4-0.3,0.7-0.5,1.1c0.1-0.3,0.3-0.6,0.5-0.9c-0.2,0.3-0.5,0.6-0.7,0.9c0.2-0.3,0.4-0.5,0.7-0.7c-0.3,0.2-0.6,0.5-0.9,0.7
				c0.3-0.2,0.6-0.4,0.9-0.5c-0.4,0.2-0.7,0.3-1.1,0.5c0.3-0.1,0.6-0.2,0.9-0.2c-0.4,0.1-0.8,0.1-1.2,0.2c0.3,0,0.6,0,0.9,0
				c-0.4-0.1-0.8-0.1-1.2-0.2c0.3,0,0.6,0.1,0.9,0.2c-0.4-0.2-0.7-0.3-1.1-0.5c0.2,0.1,0.4,0.2,0.7,0.4c-0.3-0.2-0.6-0.5-0.9-0.7
				c0.2,0.2,0.4,0.4,0.6,0.6c-0.2-0.3-0.5-0.6-0.7-0.9c0.1,0.2,0.3,0.4,0.4,0.6c-0.2-0.4-0.3-0.7-0.5-1.1c0.1,0.3,0.2,0.5,0.2,0.8
				c-0.1-0.4-0.1-0.8-0.2-1.2c0,0.2,0,0.5,0,0.7c0.1-0.4,0.1-0.8,0.2-1.2c0,0.2-0.1,0.5-0.2,0.7c0.2-0.4,0.3-0.7,0.5-1.1
				c-0.1,0.2-0.2,0.4-0.4,0.6c0.2-0.3,0.5-0.6,0.7-0.9c-0.1,0.2-0.3,0.3-0.5,0.5c0.3-0.2,0.6-0.5,0.9-0.7c-0.2,0.2-0.5,0.3-0.7,0.4
				c0.4-0.2,0.7-0.3,1.1-0.5c-0.2,0.1-0.4,0.1-0.5,0.1c0.4-0.1,0.8-0.1,1.2-0.2c-0.2,0-0.4,0-0.6,0c0.4,0.1,0.8,0.1,1.2,0.2
				c-0.2,0-0.4-0.1-0.6-0.2c0.4,0.2,0.7,0.3,1.1,0.5c-0.2-0.1-0.3-0.2-0.4-0.3c0.3,0.2,0.6,0.5,0.9,0.7c-0.2-0.1-0.3-0.3-0.4-0.4
				c0.2,0.3,0.5,0.6,0.7,0.9c-0.1-0.1-0.1-0.2-0.2-0.3c0.2,0.4,0.3,0.7,0.5,1.1c-0.1-0.2-0.1-0.3-0.1-0.5c0.1,0.4,0.1,0.8,0.2,1.2
				c0-0.1,0-0.2,0-0.4c-0.1,0.4-0.1,0.8-0.2,1.2c0-0.1,0.1-0.2,0.1-0.4c-0.2,0.4-0.3,0.7-0.5,1.1c0.1-0.1,0.1-0.2,0.2-0.3
				c-0.2,0.3-0.5,0.6-0.7,0.9c0.1-0.1,0.2-0.3,0.3-0.4c-0.3,0.2-0.6,0.5-0.9,0.7c0.1-0.1,0.3-0.2,0.4-0.3c-0.4,0.2-0.7,0.3-1.1,0.5
				c0.2-0.1,0.3-0.1,0.5-0.1c-0.4,0.1-0.8,0.1-1.2,0.2c0.1,0,0.2,0,0.4,0c-0.4-0.1-0.8-0.1-1.2-0.2c0.1,0,0.2,0,0.4,0.1
				c-0.4-0.2-0.7-0.3-1.1-0.5c0.2,0.1,0.3,0.1,0.4,0.2c-0.3-0.2-0.6-0.5-0.9-0.7c0.1,0.1,0.2,0.2,0.3,0.3c-0.2-0.3-0.5-0.6-0.7-0.9
				c0.1,0.2,0.2,0.3,0.3,0.5c-0.2-0.4-0.3-0.7-0.5-1.1c0.1,0.2,0.1,0.3,0.1,0.5c-0.1-0.4-0.1-0.8-0.2-1.2c0,0.2,0,0.3,0,0.5
				c0.1-0.4,0.1-0.8,0.2-1.2c0,0.2-0.1,0.3-0.1,0.5c0.2-0.4,0.3-0.7,0.5-1.1c-0.1,0.1-0.1,0.2-0.2,0.3c0.2-0.3,0.5-0.6,0.7-0.9
				c-0.1,0.1-0.2,0.3-0.4,0.4c0.3-0.2,0.6-0.5,0.9-0.7c-0.1,0.1-0.3,0.2-0.4,0.3c0.4-0.2,0.7-0.3,1.1-0.5c-0.2,0.1-0.3,0.1-0.5,0.1
				c0.4-0.1,0.8-0.1,1.2-0.2c-0.2,0-0.3,0-0.5,0c0.4,0.1,0.8,0.1,1.2,0.2c-0.2,0-0.3-0.1-0.5-0.1c0.4,0.2,0.7,0.3,1.1,0.5
				c0,0-0.1,0-0.1-0.1c0.3,0.2,0.6,0.5,0.9,0.7c0,0-0.1-0.1-0.1-0.1c0.2,0.3,0.5,0.6,0.7,0.9c0,0,0-0.1-0.1-0.1
				c0.2,0.4,0.3,0.7,0.5,1.1c0,0,0-0.1,0-0.1c0.1,0.4,0.1,0.8,0.2,1.2c0,0,0-0.1,0-0.1c-0.1,0.4-0.1,0.8-0.2,1.2
				c0-0.1,0-0.2,0.1-0.3c-0.2,0.4-0.3,0.7-0.5,1.1c0.1-0.1,0.1-0.2,0.2-0.4c-0.2,0.3-0.5,0.6-0.7,0.9c0.1-0.2,0.3-0.3,0.5-0.4
				c-0.3,0.2-0.6,0.5-0.9,0.7c0.2-0.1,0.4-0.2,0.6-0.3c-0.4,0.2-0.7,0.3-1.1,0.5c0.1,0,0.2-0.1,0.3-0.1c-0.8,0-1.6,0-2.4,0
				c0,0,0.1,0,0.1,0c-0.4-0.2-0.7-0.3-1.1-0.5c0,0,0.1,0,0.1,0.1c-0.3-0.2-0.6-0.5-0.9-0.7c0,0,0.1,0.1,0.1,0.1
				c-0.2-0.3-0.5-0.6-0.7-0.9c0,0.1,0.1,0.2,0.1,0.2c-0.2-0.4-0.3-0.7-0.5-1.1c0.1,0.2,0.1,0.4,0.2,0.6c-0.1-0.4-0.1-0.8-0.2-1.2
				c0,0.2,0,0.4,0,0.6c0.1-0.4,0.1-0.8,0.2-1.2c0,0.2-0.1,0.4-0.1,0.6c0.2-0.4,0.3-0.7,0.5-1.1c0,0.1-0.1,0.2-0.1,0.3
				c0.9-0.7,1.8-1.4,2.7-2.1c-0.4,0.2-0.9,0.3-1.4,0.4c0.4-0.1,0.8-0.1,1.2-0.2c-0.5,0.1-1,0.1-1.6,0c0.4,0.1,0.8,0.1,1.2,0.2
				c-0.5-0.1-0.9-0.2-1.4-0.4c0.4,0.2,0.7,0.3,1.1,0.5c-0.3-0.1-0.6-0.3-0.8-0.5c0.3,0.2,0.6,0.5,0.9,0.7c-0.1-0.1-0.2-0.1-0.2-0.2
				c0.2,0.3,0.5,0.6,0.7,0.9c0,0,0-0.1-0.1-0.1c0.2,0.4,0.3,0.7,0.5,1.1c0,0,0-0.1,0-0.1c0.1,0.4,0.1,0.8,0.2,1.2
				c-0.1-0.6,0-1.2,0-1.8c0-0.6,0-1.2,0-1.8c-0.1,0.4-0.1,0.8-0.2,1.2c0-0.2,0.1-0.4,0.2-0.6c-0.2,0.4-0.3,0.7-0.5,1.1
				c0.1-0.1,0.1-0.3,0.2-0.4c-0.2,0.3-0.5,0.6-0.7,0.9c0.1-0.2,0.3-0.3,0.4-0.4c-0.3,0.2-0.6,0.5-0.9,0.7c0.7-0.5,1.4-0.9,2.2-1.3
				c-0.4,0.2-0.7,0.3-1.1,0.5c0.5-0.2,1-0.4,1.5-0.4c-0.4,0.1-0.8,0.1-1.2,0.2c0.3,0,0.7,0,1,0c-0.4-0.1-0.8-0.1-1.2-0.2
				c0.3,0,0.6,0.1,0.9,0.3c-0.4-0.2-0.7-0.3-1.1-0.5c0.2,0.1,0.4,0.2,0.6,0.3c-0.3-0.2-0.6-0.5-0.9-0.7c0.2,0.1,0.3,0.3,0.5,0.5
				c-0.2-0.3-0.5-0.6-0.7-0.9c0.1,0.2,0.2,0.3,0.3,0.5c-0.2-0.4-0.3-0.7-0.5-1.1c0.2,0.5,0.3,1.1,0.4,1.7c-0.1-0.4-0.1-0.8-0.2-1.2
				c0.1,0.5,0.1,1,0,1.5c0.1-0.4,0.1-0.8,0.2-1.2c0,0.3-0.1,0.5-0.2,0.8c0.2-0.4,0.3-0.7,0.5-1.1c-0.1,0.2-0.2,0.5-0.4,0.7
				c0.2-0.3,0.5-0.6,0.7-0.9c-0.3,0.3-0.6,0.6-0.9,0.8c0.3-0.2,0.6-0.5,0.9-0.7c-0.7,0.5-1.4,0.9-2.2,1.3c0.4-0.2,0.7-0.3,1.1-0.5
				c-0.7,0.3-1.4,0.5-2.1,0.6C308.1,224.9,308.5,224.8,308.9,224.7c-0.1,0.1-0.2,0.1-0.3,0.1c0.4,0.1,0.8,0.1,1.2,0.2
				c-0.1,0-0.2,0-0.3-0.1c0.4,0.2,0.7,0.3,1.1,0.5c-0.2-0.1-0.3-0.2-0.5-0.3c0.3,0.2,0.6,0.5,0.9,0.7c-0.7-0.6-1.3-1.2-2.1-1.6
				c-0.4-0.2-0.9-0.4-1.3-0.7c0.3,0.2,0.6,0.5,0.9,0.7c-0.1-0.1-0.2-0.2-0.3-0.3C308.5,224.2,308.7,224.5,308.9,224.7
				c0,0,0,0-0.1-0.1c0.2,0.4,0.3,0.7,0.5,1.1c-0.1-0.2-0.1-0.3-0.1-0.5c0.1,0.4,0.1,0.8,0.2,1.2c-0.1-1,0-2.1,0-3.1
				c-0.1,0.4-0.1,0.8-0.2,1.2c0-0.3,0.1-0.5,0.2-0.8C309.2,224.1,309.1,224.5,308.9,224.7c0.2-0.2,0.4-0.5,0.6-0.7
				c-0.2,0.3-0.5,0.6-0.7,0.9c0.3-0.4,0.7-0.8,1.1-1.1c-0.3,0.2-0.6,0.5-0.9,0.7c0.5-0.3,0.9-0.6,1.5-0.9c-0.4,0.2-0.7,0.3-1.1,0.5
				c0.4-0.2,0.9-0.3,1.3-0.4c-0.4,0.1-0.8,0.1-1.2,0.2c0.4-0.1,0.9-0.1,1.3,0c-0.4-0.1-0.8-0.1-1.2-0.2c0.4,0.1,0.9,0.2,1.3,0.3
				c-0.4-0.2-0.7-0.3-1.1-0.5c0.4,0.2,0.8,0.4,1.2,0.7c-0.3-0.2-0.6-0.5-0.9-0.7c0.3,0.2,0.5,0.5,0.7,0.7c-0.2-0.3-0.5-0.6-0.7-0.9
				c0.2,0.3,0.4,0.6,0.6,1c-0.2-0.4-0.3-0.7-0.5-1.1c0.1,0.4,0.3,0.7,0.3,1.1c-0.1-0.4-0.1-0.8-0.2-1.2c0,0.4,0,0.7,0,1.1
				c0.1-0.4,0.1-0.8,0.2-1.2c-0.1,0.4-0.2,0.9-0.4,1.3c0.2-0.4,0.3-0.7,0.5-1.1c-0.2,0.4-0.4,0.7-0.6,1c0.2-0.3,0.5-0.6,0.7-0.9
				c-0.2,0.3-0.5,0.5-0.8,0.7c0.3-0.2,0.6-0.5,0.9-0.7c-0.3,0.2-0.5,0.3-0.8,0.5c0.4-0.2,0.7-0.3,1.1-0.5c0,0-0.1,0-0.1,0.1
				c-0.6,0.1-1.1,0.4-1.5,0.8c-0.5,0.3-0.9,0.7-1.2,1.3c-0.6,1-0.8,2.4-0.5,3.5c0.4,1.1,1,2.1,2.1,2.7c1,0.5,2.4,0.9,3.5,0.5
				c0.7-0.3,1.4-0.5,2-1c1-0.7,1.6-1.3,2.4-2.4c0.7-0.9,1.2-2.1,1.4-3.3c0.3-1.6,0.3-3.2-0.3-4.7c-0.5-1.2-0.9-2-1.7-3
				c-0.5-0.6-1.2-1.2-1.9-1.6c-2.6-1.8-6.1-1.9-8.9-0.7c-1.3,0.6-2.6,1.3-3.6,2.4c-0.6,0.6-1.1,1.3-1.5,2c-0.6,1.2-0.8,2.2-0.9,3.5
				c-0.1,1.9-0.2,4,0.7,5.6c0.5,1,1.4,1.8,2.4,2.3c0.4,0.2,0.9,0.4,1.3,0.7c-0.3-0.2-0.6-0.5-0.9-0.7c1.1,0.9,2,1.9,3.4,2.2
				c1.5,0.3,3,0.1,4.4-0.4c1.1-0.4,2.1-0.8,3.1-1.4c0.9-0.6,1.8-1.2,2.5-2c0.7-0.9,1.2-1.6,1.5-2.7c0.2-0.7,0.3-1.5,0.4-2.2
				c0.1-1.1-0.1-2.2-0.4-3.3c-0.3-1.3-1-2.7-2-3.6c-0.9-0.9-2.2-1.6-3.5-1.9c-2.6-0.6-5.2,0.1-7.5,1.5c-1.2,0.7-2.3,1.6-3.1,2.8
				c-0.8,1.3-1,2.8-1,4.2c0,1,0,2.1,0.1,3.1c0.2,1.4,0.9,2.6,2,3.4c0.8,0.6,1.4,0.9,2.4,1.3c1,0.4,2.1,0.6,3.2,0.6
				c0.7,0,1.4-0.1,2.1-0.2c0.4-0.1,0.8-0.2,1.1-0.3c0.8-0.3,1.6-0.6,2.2-1.2c0.3-0.4,0.6-0.8,0.8-1.2c0.5-1,0.8-1.9,0.8-3.1
				c0-2-0.9-4.3-2.7-5.3c-1.6-0.8-3.4-0.7-4.9,0.1c-0.6,0.3-1.2,0.8-1.7,1.3c-1.8,1.6-2.4,4.4-1.1,6.6c2,3.3,7.1,3.3,9.6,0.6
				c1.1-1.2,1.8-2.8,1.7-4.4c-0.1-1.7-0.7-3.3-1.9-4.4c-2.4-2.4-6.6-2.3-8.9,0.2c-1.4,1.5-2,3.6-1.5,5.6c0.3,1.4,1.2,2.6,2.4,3.5
				c2.2,1.7,5.6,2,7.9,0.2c0.9-0.7,1.4-1.2,2.1-2.1c0.4-0.6,0.7-1.2,0.9-1.9c0.2-0.6,0.3-1.3,0.3-2c0-0.7-0.1-1.5-0.3-2.1
				c-0.4-1.3-1.1-2.6-2.1-3.5c-1-0.9-2.3-1.6-3.6-1.9c-0.7-0.1-1.4-0.2-2.1-0.2c-1,0.1-1.7,0.2-2.6,0.6c-1.1,0.5-2.2,1.1-2.9,2.1
				c-0.9,1.1-1.6,2.2-2,3.6c-0.4,1.4-0.4,2.8,0,4.2c0.3,1.3,1.1,2.7,2,3.5c1,0.9,2.2,1.7,3.5,1.9c0.6,0.1,1.3,0.2,1.9,0.2
				c1.3-0.1,1.8-0.3,3-0.8c1-0.4,1.8-1.7,2.1-2.7c0.3-1.1,0.2-2.5-0.5-3.5c-0.6-1-1.5-1.8-2.7-2.1c-0.4-0.1-0.8-0.1-1.2-0.2
				C310.3,224.1,309.6,224.3,308.9,224.7L308.9,224.7z"/>
		</g>
	</g>
	<g>
		<path class="st11" d="M258,198.2c-4.9,5.2-13.9,5.9-19.6,1.5"/>
		<g>
			<path class="st2" d="M254.8,195c-0.3,0.3-0.6,0.6-1,0.9c-0.1,0.1-0.3,0.2-0.4,0.3c0.3-0.3,0.7-0.5,0.2-0.1
				c-0.7,0.5-1.4,0.8-2.1,1.2c-0.5,0.3,1-0.4,0.2-0.1c-0.2,0.1-0.4,0.2-0.6,0.2c-0.4,0.1-0.8,0.2-1.2,0.3c-0.4,0.1-0.8,0.2-1.2,0.3
				c-0.8,0.1,0-0.1,0.3,0c-0.2,0-0.5,0-0.7,0.1c-0.8,0.1-1.6,0.1-2.4,0c-0.7-0.1-0.1,0,0.3,0.1c-0.2,0-0.4-0.1-0.5-0.1
				c-0.4-0.1-0.9-0.2-1.3-0.3c-0.4-0.1-0.8-0.2-1.1-0.4c-0.7-0.2-0.1-0.1,0.2,0.1c-0.1-0.1-0.3-0.1-0.5-0.2
				c-0.8-0.4-1.6-0.9-2.3-1.4c-0.9-0.7-2.5-0.7-3.5-0.5c-1,0.3-2.2,1.1-2.7,2.1c-0.6,1-0.8,2.3-0.5,3.5c0.4,1.2,1.1,1.9,2.1,2.7
				c7.3,5.6,18.7,4.3,25-2.2c1.6-1.7,1.8-4.7,0-6.4C259.4,193.4,256.5,193.2,254.8,195L254.8,195z"/>
		</g>
	</g>
	<g>
		<path class="st11" d="M250.3,227c-1.6-0.3-3.2-0.5-4.5-1.4c-1.3-0.9-2.2-2.6-1.7-4.1c0.6-1.7,2.5-2.4,4.3-2.6
			c1.5-0.2,3.3,0.1,4.1,1.4c0.4,0.6,0.4,1.4,0.4,2.2c-0.1,1.5-0.7,3-1.8,3.9c-1.1,1-2.8,1.4-4.1,0.7c-1.8-0.9-2.4-3.7-0.9-5.2
			c1.4-1.5,4.3-1,5.2,0.8c0.7,1.5,0.1,3.5-1.4,4.1c-1.5,0.6-3.5-0.6-3.5-2.2c0-1.6,2.3-2.8,3.5-1.7c0.6,1.1-0.1,2.6-1.3,2.9
			c-0.3-0.7-0.6-1.5-0.5-2.2c0.1-0.7,0.9-1.4,1.6-1.2c0.3,0.1,0.5,0.3,0.6,0.5c0.9,1.3-0.4,3.4-1.9,3.4s-2.9-1.6-2.8-3.1
			s1.4-2.9,3-3.3c1.7-0.4,3.9,0.5,4,2.3"/>
		<g>
			<path class="st2" d="M251.4,222.7c-1.2-0.2-2.3-0.4-3.4-0.8c0.4,0.2,0.7,0.3,1.1,0.5c-0.5-0.2-0.9-0.4-1.4-0.8
				c0.3,0.2,0.6,0.5,0.9,0.7c-0.3-0.2-0.6-0.5-0.8-0.8c0.2,0.3,0.5,0.6,0.7,0.9c-0.2-0.3-0.4-0.6-0.6-1c0.2,0.4,0.3,0.7,0.5,1.1
				c-0.1-0.3-0.2-0.5-0.2-0.8c0.1,0.4,0.1,0.8,0.2,1.2c0-0.3,0-0.6,0-0.9c-0.1,0.4-0.1,0.8-0.2,1.2c0-0.2,0.1-0.5,0.2-0.7
				c-0.2,0.4-0.3,0.7-0.5,1.1c0.1-0.2,0.2-0.4,0.3-0.6c-0.2,0.3-0.5,0.6-0.7,0.9c0.2-0.2,0.4-0.4,0.6-0.6c-0.3,0.2-0.6,0.5-0.9,0.7
				c0.3-0.3,0.7-0.5,1.1-0.6c-0.4,0.2-0.7,0.3-1.1,0.5c0.6-0.2,1.2-0.4,1.9-0.5c-0.4,0.1-0.8,0.1-1.2,0.2c0.6-0.1,1.3-0.1,1.9,0
				c-0.4-0.1-0.8-0.1-1.2-0.2c0.4,0.1,0.8,0.1,1.1,0.3c-0.4-0.2-0.7-0.3-1.1-0.5c0.2,0.1,0.5,0.2,0.7,0.4c-0.3-0.2-0.6-0.5-0.9-0.7
				c0.1,0.1,0.3,0.2,0.4,0.4c-0.2-0.3-0.5-0.6-0.7-0.9c0.1,0.2,0.2,0.3,0.3,0.5c-0.2-0.4-0.3-0.7-0.5-1.1c0.1,0.3,0.2,0.6,0.2,0.9
				c-0.1-0.4-0.1-0.8-0.2-1.2c0,0.4,0,0.9,0,1.3c0.1-0.4,0.1-0.8,0.2-1.2c-0.1,0.6-0.2,1.2-0.5,1.8c0.2-0.4,0.3-0.7,0.5-1.1
				c-0.2,0.4-0.4,0.8-0.7,1.2c0.2-0.3,0.5-0.6,0.7-0.9c-0.3,0.3-0.5,0.6-0.9,0.9c0.3-0.2,0.6-0.5,0.9-0.7c-0.3,0.2-0.6,0.4-0.9,0.5
				c0.4-0.2,0.7-0.3,1.1-0.5c-0.4,0.2-0.7,0.3-1.1,0.3c0.4-0.1,0.8-0.1,1.2-0.2c-0.3,0-0.6,0-0.9,0c0.4,0.1,0.8,0.1,1.2,0.2
				c-0.3,0-0.6-0.1-0.9-0.2c0.4,0.2,0.7,0.3,1.1,0.5c-0.2-0.1-0.4-0.2-0.6-0.4c0.3,0.2,0.6,0.5,0.9,0.7c-0.2-0.2-0.3-0.3-0.5-0.5
				c0.2,0.3,0.5,0.6,0.7,0.9c-0.2-0.2-0.3-0.5-0.5-0.8c0.2,0.4,0.3,0.7,0.5,1.1c-0.1-0.3-0.2-0.6-0.2-0.9c0.1,0.4,0.1,0.8,0.2,1.2
				c0-0.3,0-0.6,0-0.9c-0.1,0.4-0.1,0.8-0.2,1.2c0-0.3,0.1-0.6,0.2-0.9c-0.2,0.4-0.3,0.7-0.5,1.1c0.1-0.2,0.2-0.4,0.4-0.6
				c-0.2,0.3-0.5,0.6-0.7,0.9c0.2-0.2,0.3-0.4,0.5-0.5c-0.3,0.2-0.6,0.5-0.9,0.7c0.2-0.1,0.4-0.3,0.6-0.4c-0.4,0.2-0.7,0.3-1.1,0.5
				c0.3-0.1,0.6-0.2,0.9-0.2c-0.4,0.1-0.8,0.1-1.2,0.2c0.3,0,0.6,0,0.9,0c-0.4-0.1-0.8-0.1-1.2-0.2c0.3,0,0.6,0.1,0.9,0.2
				c-0.4-0.2-0.7-0.3-1.1-0.5c0.3,0.1,0.5,0.3,0.8,0.5c-0.3-0.2-0.6-0.5-0.9-0.7c0.2,0.2,0.4,0.3,0.5,0.5c-0.2-0.3-0.5-0.6-0.7-0.9
				c0.1,0.2,0.3,0.4,0.4,0.6c-0.2-0.4-0.3-0.7-0.5-1.1c0.1,0.2,0.2,0.5,0.2,0.7c-0.1-0.4-0.1-0.8-0.2-1.2c0,0.3,0,0.6,0,0.9
				c0.1-0.4,0.1-0.8,0.2-1.2c0,0.3-0.1,0.6-0.2,0.8c0.2-0.4,0.3-0.7,0.5-1.1c-0.1,0.2-0.2,0.4-0.4,0.6c0.2-0.3,0.5-0.6,0.7-0.9
				c-0.2,0.2-0.3,0.4-0.5,0.5c0.3-0.2,0.6-0.5,0.9-0.7c-0.2,0.1-0.4,0.2-0.6,0.3c0.4-0.2,0.7-0.3,1.1-0.5c-0.2,0.1-0.3,0.1-0.5,0.1
				c0.4-0.1,0.8-0.1,1.2-0.2c-0.2,0-0.4,0-0.6,0c0.4,0.1,0.8,0.1,1.2,0.2c-0.3,0-0.5-0.1-0.7-0.2c0.4,0.2,0.7,0.3,1.1,0.5
				c-0.2-0.1-0.4-0.2-0.7-0.4c0.3,0.2,0.6,0.5,0.9,0.7c-0.2-0.1-0.3-0.3-0.5-0.4c0.2,0.3,0.5,0.6,0.7,0.9c-0.1-0.2-0.2-0.3-0.3-0.5
				c0.2,0.4,0.3,0.7,0.5,1.1c-0.1-0.2-0.1-0.3-0.1-0.5c0.1,0.4,0.1,0.8,0.2,1.2c0-0.2,0-0.3,0-0.5c-0.1,0.4-0.1,0.8-0.2,1.2
				c0-0.2,0.1-0.3,0.1-0.5c-0.2,0.4-0.3,0.7-0.5,1.1c0.1-0.2,0.2-0.3,0.3-0.5c-0.2,0.3-0.5,0.6-0.7,0.9c0.1-0.2,0.3-0.3,0.4-0.4
				c-0.3,0.2-0.6,0.5-0.9,0.7c0.2-0.1,0.4-0.3,0.6-0.3c-0.4,0.2-0.7,0.3-1.1,0.5c0.2-0.1,0.4-0.1,0.7-0.2c-0.4,0.1-0.8,0.1-1.2,0.2
				c0.2,0,0.4,0,0.6,0c-0.4-0.1-0.8-0.1-1.2-0.2c0.2,0,0.3,0.1,0.5,0.1c-0.4-0.2-0.7-0.3-1.1-0.5c0.1,0.1,0.2,0.1,0.3,0.2
				c-0.3-0.2-0.6-0.5-0.9-0.7c0,0,0.1,0,0.1,0.1c-0.2-0.3-0.5-0.6-0.7-0.9c0,0.1,0.1,0.1,0.1,0.2c-0.2-0.4-0.3-0.7-0.5-1.1
				c0,0.1,0.1,0.3,0.1,0.4c-0.1-0.4-0.1-0.8-0.2-1.2c0,0.2,0,0.3,0,0.5c0.1-0.4,0.1-0.8,0.2-1.2c0,0.2-0.1,0.3-0.1,0.5
				c0.2-0.4,0.3-0.7,0.5-1.1c-0.1,0.2-0.2,0.4-0.3,0.6c0.2-0.3,0.5-0.6,0.7-0.9c-0.1,0.1-0.2,0.3-0.4,0.4c0.3-0.2,0.6-0.5,0.9-0.7
				c-0.1,0.1-0.2,0.1-0.4,0.2c0.4-0.2,0.7-0.3,1.1-0.5c-0.1,0-0.2,0.1-0.3,0.1c1.8,1,3.7,2.1,5.5,3.1c-0.2-0.5-0.4-0.9-0.5-1.4
				c0.1,0.4,0.1,0.8,0.2,1.2c0-0.2,0-0.4,0-0.6c-0.1,0.4-0.1,0.8-0.2,1.2c0-0.2,0.1-0.3,0.1-0.5c-0.2,0.4-0.3,0.7-0.5,1.1
				c0.1-0.1,0.1-0.2,0.2-0.3c-0.2,0.3-0.5,0.6-0.7,0.9c0.1-0.1,0.2-0.2,0.3-0.3c-0.3,0.2-0.6,0.5-0.9,0.7c0.1-0.1,0.2-0.1,0.3-0.2
				c-0.4,0.2-0.7,0.3-1.1,0.5c0.1,0,0.2-0.1,0.3-0.1c-0.4,0.1-0.8,0.1-1.2,0.2c0.1,0,0.2,0,0.2,0c-0.4-0.1-0.8-0.1-1.2-0.2
				c0.1,0,0.2,0,0.2,0.1c-0.4-0.2-0.7-0.3-1.1-0.5c0.1,0.1,0.2,0.1,0.3,0.2c-0.3-0.2-0.6-0.5-0.9-0.7c0.1,0.1,0.2,0.2,0.3,0.3
				c-0.2-0.3-0.5-0.6-0.7-0.9c0.1,0.1,0.2,0.2,0.2,0.4c-0.2-0.4-0.3-0.7-0.5-1.1c0.1,0.2,0.1,0.3,0.1,0.5c-0.1-0.4-0.1-0.8-0.2-1.2
				c0,0.2,0,0.3,0,0.5c0.1-0.4,0.1-0.8,0.2-1.2c0,0.2-0.1,0.4-0.2,0.6c0.2-0.4,0.3-0.7,0.5-1.1c-0.1,0.2-0.2,0.4-0.4,0.6
				c0.2-0.3,0.5-0.6,0.7-0.9c-0.1,0.2-0.3,0.3-0.4,0.4c0.3-0.2,0.6-0.5,0.9-0.7c-0.2,0.1-0.3,0.2-0.5,0.3c0.4-0.2,0.7-0.3,1.1-0.5
				c-0.2,0.1-0.3,0.1-0.5,0.1c0.4-0.1,0.8-0.1,1.2-0.2c-0.2,0-0.4,0-0.6,0c0.4,0.1,0.8,0.1,1.2,0.2c-0.2,0-0.4-0.1-0.7-0.2
				c0.4,0.2,0.7,0.3,1.1,0.5c-0.2-0.1-0.4-0.2-0.6-0.4c0.3,0.2,0.6,0.5,0.9,0.7c-0.2-0.2-0.4-0.4-0.6-0.6c0.2,0.3,0.5,0.6,0.7,0.9
				c-0.2-0.2-0.3-0.5-0.4-0.7c0.2,0.4,0.3,0.7,0.5,1.1c-0.1-0.2-0.1-0.4-0.2-0.7c0.1,0.4,0.1,0.8,0.2,1.2c0-0.3,0-0.6,0-0.8
				c-0.1,0.4-0.1,0.8-0.2,1.2c0-0.3,0.1-0.5,0.2-0.8c-0.2,0.4-0.3,0.7-0.5,1.1c0.1-0.3,0.3-0.6,0.5-0.8c-0.2,0.3-0.5,0.6-0.7,0.9
				c0.2-0.3,0.4-0.5,0.7-0.7c-0.3,0.2-0.6,0.5-0.9,0.7c0.3-0.2,0.6-0.4,0.9-0.6c-0.4,0.2-0.7,0.3-1.1,0.5c0.3-0.1,0.6-0.2,0.9-0.3
				c-0.4,0.1-0.8,0.1-1.2,0.2c0.3,0,0.7,0,1,0c-0.4-0.1-0.8-0.1-1.2-0.2c0.4,0.1,0.7,0.1,1,0.3c-0.4-0.2-0.7-0.3-1.1-0.5
				c0.3,0.1,0.5,0.3,0.7,0.4c-0.3-0.2-0.6-0.5-0.9-0.7c0.2,0.1,0.3,0.3,0.4,0.4c-0.2-0.3-0.5-0.6-0.7-0.9c0.1,0.2,0.2,0.3,0.3,0.5
				c-0.2-0.4-0.3-0.7-0.5-1.1c0.1,0.2,0.1,0.3,0.1,0.5c-0.1-0.4-0.1-0.8-0.2-1.2c0,0.1,0,0.1,0,0.2c0.1,1.2,0.4,2.3,1.3,3.2
				c0.8,0.8,2.1,1.4,3.2,1.3c1.2-0.1,2.4-0.4,3.2-1.3c0.8-0.8,1.4-2,1.3-3.2c-0.1-1.2-0.3-2.2-0.9-3.2c-0.6-1-1.4-1.7-2.4-2.4
				c-1.2-0.8-3.1-1.3-4.5-1.2c-2.1,0.1-3.9,0.9-5.4,2.2c-0.6,0.5-1.2,1.2-1.6,1.9c-0.7,1.1-0.9,2.2-1.1,3.5c-0.2,2,0.7,4,2,5.5
				c0.5,0.6,1.2,1.1,1.9,1.5c0.5,0.3,1.1,0.5,1.6,0.6c0.6,0.1,1.2,0.2,1.8,0.2c2.4-0.1,4.4-1.3,5.7-3.3c1-1.5,1.4-3.8,0.7-5.5
				c-0.6-1.8-2-3.5-3.9-4c-1.5-0.4-3.2-0.2-4.5,0.7c-0.9,0.6-1.4,1.2-2,2.1c-0.5,0.9-0.8,1.9-0.8,2.9c-0.1,1.1,0.2,2.2,0.6,3.2
				c0.1,0.6,0.4,1.1,0.8,1.5c0.3,0.5,0.7,0.9,1.3,1.2c1.1,0.6,2.3,0.7,3.5,0.5c1.4-0.3,2.5-1.2,3.4-2.3c0.9-1.2,1.3-2.4,1.4-3.9
				c0-0.6-0.1-1.2-0.2-1.8c-0.4-1.4-1.2-2.4-2.3-3.1c-0.9-0.6-2.2-1-3.4-1c-2.4,0-4.7,1.3-5.9,3.4c-0.3,0.5-0.5,1.1-0.7,1.6
				c-0.2,0.6-0.3,1.2-0.2,1.8c0.1,1.5,0.6,2.7,1.4,3.9c1.4,1.8,3.7,3,6,2.8c1-0.1,1.5-0.2,2.3-0.5c0.8-0.3,1.3-0.7,2-1.2
				c0.7-0.5,1.2-1.3,1.6-2.1c0.5-1.2,0.9-2.3,0.9-3.6c0-1.3-0.3-2.4-0.9-3.6c-0.6-1.1-1.5-1.9-2.4-2.6c-0.7-0.5-1.5-0.8-2.3-1
				c-2-0.5-4.2-0.3-6.1,0.8c-1,0.6-1.9,1.5-2.6,2.5c-0.6,0.9-0.8,1.9-1,2.9c-0.1,1.1-0.1,2.1,0.2,3.1c0.1,0.6,0.4,1.1,0.7,1.7
				c0.1,0.2,0.2,0.5,0.4,0.7c0.7,1,1.5,1.9,2.6,2.4c1.2,0.6,2.5,1,3.8,1c2.3,0,4.7-1,6.2-2.7c0.7-0.7,1.3-1.6,1.7-2.5
				c0.3-0.6,0.5-1.2,0.7-1.9c0.2-0.7,0.3-1.4,0.4-2.2c0-0.3,0.1-0.7,0-1c0-0.7-0.1-1.5-0.3-2.1c-0.2-0.6-0.4-1.3-0.8-1.8
				c-0.6-0.9-1.2-1.4-2-2.1c-0.2-0.2-0.4-0.3-0.7-0.4c-0.6-0.3-1.2-0.5-1.8-0.7c-0.9-0.2-1.9-0.3-2.8-0.3c-1.9,0.1-3.7,0.5-5.4,1.4
				c-1.8,1-3.4,2.9-3.8,5c-0.1,0.6-0.2,1.3-0.2,1.9c0.1,0.7,0.1,1.4,0.4,2c0.5,1.3,1.1,2.3,2,3.3c0.3,0.4,0.7,0.6,1.1,0.9
				c0.4,0.3,0.8,0.6,1.3,0.9c0.9,0.5,1.9,0.9,2.9,1.1c0.7,0.2,1.4,0.3,2.1,0.4c0.6,0.2,1.2,0.2,1.8,0.1c0.6,0,1.2-0.2,1.7-0.5
				c0.9-0.5,1.8-1.6,2.1-2.7c0.3-1.2,0.2-2.4-0.5-3.5C253.5,223.8,252.6,222.8,251.4,222.7L251.4,222.7z"/>
		</g>
	</g>
	<g>
		<path class="st11" d="M278.4,251.5c-0.2,0.3-0.3,0.7-0.3,1c0-0.1,0.2-0.1,0.4-0.2"/>
		<g>
			<path class="st2" d="M274.5,249.3c-0.1,0.1-0.1,0.2-0.1,0.3c-0.2,0.4-0.3,0.8-0.5,1.2c0,0,0,0.1,0,0.1c0,0,0,0.1,0,0.1
				c-0.1,0.4-0.1,0.9-0.2,1.3c0,0.1,0,0.2,0,0.3c0.1,0.4,0.1,0.8,0.2,1.2c0.1,0.6,0.4,1.1,0.8,1.5c0.2,0.3,0.5,0.6,0.8,0.8
				c0.4,0.4,0.9,0.7,1.5,0.8c0.4,0.1,0.8,0.1,1.2,0.2c0.4-0.1,0.8-0.1,1.2-0.2c0.6-0.1,1.1-0.4,1.5-0.8c0.5-0.3,0.9-0.7,1.2-1.3
				c0,0,0,0,0,0c-0.2,0.3-0.5,0.6-0.7,0.9c0,0,0,0,0.1-0.1c-0.3,0.2-0.6,0.5-0.9,0.7c0,0,0.1-0.1,0.2-0.1c-0.4,0.2-0.7,0.3-1.1,0.5
				c0,0,0.1,0,0.1-0.1c0.6-0.1,1.1-0.4,1.5-0.8c0.5-0.3,0.9-0.7,1.2-1.3c0.3-0.5,0.5-1.1,0.5-1.7c0.1-0.6,0.1-1.2-0.1-1.8
				c-0.2-0.4-0.3-0.7-0.5-1.1c-0.4-0.7-0.9-1.2-1.6-1.6c-0.4-0.2-0.7-0.3-1.1-0.5c-0.8-0.2-1.6-0.2-2.4,0c0,0-0.1,0-0.1,0
				c-0.3,0.1-0.8,0.3-1.1,0.5c0,0,0,0,0,0c0,0,0,0-0.1,0c0,0,0,0,0,0c0,0,0,0,0,0c-0.3,0.2-0.6,0.5-0.9,0.7c0,0,0,0,0,0c0,0,0,0,0,0
				c-0.1,0.1-0.6,0.8-0.4,0.5c0,0-0.3,0.3-0.4,0.5c2.8,0.8,5.6,1.5,8.4,2.3c0-0.1,0-0.2,0-0.3c-0.1,0.4-0.1,0.8-0.2,1.2
				c0-0.1,0.1-0.2,0.1-0.4c-0.2,0.4-0.3,0.7-0.5,1.1c0-0.1,0.1-0.2,0.2-0.3c0.3-0.5,0.5-1.1,0.5-1.7c0.1-0.6,0.1-1.2-0.1-1.8
				c-0.1-0.6-0.4-1.1-0.8-1.5c-0.3-0.5-0.7-0.9-1.3-1.2c-0.4-0.2-0.7-0.3-1.1-0.5c-0.8-0.2-1.6-0.2-2.4,0c-0.4,0.2-0.7,0.3-1.1,0.5
				C275.4,248,274.9,248.6,274.5,249.3L274.5,249.3z"/>
		</g>
	</g>
	<g>
		<path class="st11" d="M287.1,273.8c-0.4-0.3-0.8-0.5-1.3-0.6c-2.6-1-5.5-1-8.3-0.5c-1.8,0.3-3.6,0.9-5.3,1.7"/>
		<g>
			<path class="st2" d="M289.4,269.9c-5.9-3.5-13.4-2.2-19.4,0.5c-1,0.4-1.8,1.7-2.1,2.7c-0.3,1.1-0.2,2.5,0.5,3.5
				c0.6,1,1.5,1.8,2.7,2.1c1.2,0.3,2.3,0.1,3.5-0.5c0.2-0.1,0.5-0.2,0.7-0.3c-0.4,0.2-0.7,0.3-1.1,0.5c1.8-0.7,3.7-1.3,5.6-1.5
				c-0.4,0.1-0.8,0.1-1.2,0.2c1.5-0.2,3-0.2,4.5,0c-0.4-0.1-0.8-0.1-1.2-0.2c1,0.2,2,0.4,3,0.8c-0.4-0.2-0.7-0.3-1.1-0.5
				c0.4,0.2,0.7,0.3,1.1,0.6c2,1.2,5,0.5,6.2-1.6C292.2,273.9,291.6,271.2,289.4,269.9L289.4,269.9z"/>
		</g>
	</g>
	<g>
		<path class="st11" d="M244.6,218.7c0.3,0.7,0.4,1.4,0.3,2.1"/>
		<g>
			<path class="st2" d="M240.7,221c0,0.1,0.1,0.1,0.1,0.2c-0.2-0.4-0.3-0.7-0.5-1.1c0.1,0.3,0.2,0.6,0.3,1c-0.1-0.4-0.1-0.8-0.2-1.2
				c0,0.3,0,0.6,0,1c0,0.6,0.1,1.2,0.4,1.7c0.2,0.6,0.5,1,0.9,1.4c0.4,0.4,0.9,0.7,1.4,0.9c0.5,0.3,1.1,0.4,1.7,0.4
				c0.4-0.1,0.8-0.1,1.2-0.2c0.8-0.2,1.4-0.6,2-1.2c0.2-0.3,0.5-0.6,0.7-0.9c0.4-0.7,0.6-1.5,0.6-2.3c0-0.2,0-0.4,0-0.6
				c0-0.6-0.1-1.2-0.2-1.7c0-0.2-0.1-0.4-0.1-0.5c-0.2-0.5-0.4-1.1-0.6-1.6c-0.3-0.5-0.7-0.9-1.2-1.3c-0.4-0.4-0.9-0.7-1.5-0.8
				c-0.6-0.2-1.2-0.2-1.8-0.1c-0.6,0-1.2,0.2-1.7,0.5c-0.3,0.2-0.6,0.5-0.9,0.7c-0.6,0.6-0.9,1.2-1.2,2c-0.1,0.4-0.1,0.8-0.2,1.2
				C240.1,219.5,240.3,220.3,240.7,221L240.7,221z"/>
		</g>
	</g>
	<g>
		<path class="st11" d="M248.1,216.9c0,0.9,0,1.9,0,2.8"/>
		<g>
			<path class="st2" d="M243.6,216.9c0,0.9,0,1.9,0,2.8c0,0.6,0.1,1.2,0.4,1.7c0.2,0.6,0.5,1,0.9,1.4c0.4,0.4,0.9,0.7,1.4,0.9
				c0.5,0.3,1.1,0.4,1.7,0.4c0.4-0.1,0.8-0.1,1.2-0.2c0.8-0.2,1.4-0.6,2-1.2c0.2-0.3,0.5-0.6,0.7-0.9c0.4-0.7,0.6-1.5,0.6-2.3
				c0-0.9,0-1.9,0-2.8c0-0.6-0.1-1.2-0.4-1.7c-0.2-0.6-0.5-1-0.9-1.4c-0.4-0.4-0.9-0.7-1.4-0.9c-0.5-0.3-1.1-0.4-1.7-0.4
				c-0.4,0.1-0.8,0.1-1.2,0.2c-0.8,0.2-1.4,0.6-2,1.2c-0.2,0.3-0.5,0.6-0.7,0.9C243.8,215.4,243.6,216.1,243.6,216.9L243.6,216.9z"
				/>
		</g>
	</g>
	<g>
		<path class="st11" d="M252.8,217.3c-0.4,1.2-0.8,2.3-1.3,3.5"/>
		<g>
			<path class="st2" d="M248.5,216.1c-0.4,1.2-0.8,2.3-1.3,3.5c-0.2,0.6-0.2,1.2-0.1,1.8c0,0.6,0.2,1.2,0.5,1.7
				c0.3,0.5,0.7,0.9,1.2,1.3c0.4,0.4,0.9,0.7,1.5,0.8c0.4,0.1,0.8,0.1,1.2,0.2c0.8,0,1.6-0.2,2.3-0.6c0.3-0.2,0.6-0.5,0.9-0.7
				c0.6-0.6,0.9-1.2,1.2-2c0.4-1.2,0.8-2.3,1.3-3.5c0.2-0.6,0.2-1.2,0.1-1.8c0-0.6-0.2-1.2-0.5-1.7c-0.3-0.5-0.7-0.9-1.2-1.3
				c-0.4-0.4-0.9-0.7-1.5-0.8c-0.4-0.1-0.8-0.1-1.2-0.2c-0.8,0-1.6,0.2-2.3,0.6c-0.3,0.2-0.6,0.5-0.9,0.7
				C249.1,214.7,248.7,215.4,248.5,216.1L248.5,216.1z"/>
		</g>
	</g>
	<g>
		<path class="st11" d="M304.6,220.1c0.3,0.7,0.7,1.4,1,2.1"/>
		<g>
			<path class="st2" d="M300.7,222.4c0.3,0.7,0.7,1.4,1,2.1c0.3,0.5,0.7,0.9,1.2,1.3c0.4,0.4,0.9,0.7,1.5,0.8
				c0.6,0.2,1.2,0.2,1.8,0.1c0.6,0,1.2-0.2,1.7-0.5c0.3-0.2,0.6-0.5,0.9-0.7c0.6-0.6,0.9-1.2,1.2-2c0.1-0.4,0.1-0.8,0.2-1.2
				c0-0.8-0.2-1.6-0.6-2.3c-0.3-0.7-0.7-1.4-1-2.1c-0.3-0.5-0.7-0.9-1.2-1.3c-0.4-0.4-0.9-0.7-1.5-0.8c-0.6-0.2-1.2-0.2-1.8-0.1
				c-0.6,0-1.2,0.2-1.7,0.5c-0.3,0.2-0.6,0.5-0.9,0.7c-0.6,0.6-0.9,1.2-1.2,2c-0.1,0.4-0.1,0.8-0.2,1.2
				C300.1,220.9,300.3,221.7,300.7,222.4L300.7,222.4z"/>
		</g>
	</g>
	<g>
		<path class="st11" d="M308.4,218c0,0.8,0,1.6,0,2.5"/>
		<g>
			<path class="st2" d="M303.9,218c0,0.8,0,1.6,0,2.5c0,0.6,0.1,1.2,0.4,1.7c0.2,0.6,0.5,1,0.9,1.4c0.4,0.4,0.9,0.7,1.4,0.9
				c0.5,0.3,1.1,0.4,1.7,0.4c0.4-0.1,0.8-0.1,1.2-0.2c0.8-0.2,1.4-0.6,2-1.2c0.2-0.3,0.5-0.6,0.7-0.9c0.4-0.7,0.6-1.5,0.6-2.3
				c0-0.8,0-1.6,0-2.5c0-0.6-0.1-1.2-0.4-1.7c-0.2-0.6-0.5-1-0.9-1.4c-0.4-0.4-0.9-0.7-1.4-0.9c-0.5-0.3-1.1-0.4-1.7-0.4
				c-0.4,0.1-0.8,0.1-1.2,0.2c-0.8,0.2-1.4,0.6-2,1.2c-0.2,0.3-0.5,0.6-0.7,0.9C304.1,216.4,303.9,217.2,303.9,218L303.9,218z"/>
		</g>
	</g>
	<g>
		<path class="st11" d="M314.5,218c-0.6,1.6-1.5,3.2-2.6,4.5"/>
		<g>
			<path class="st2" d="M310.2,216.8c-0.1,0.3-0.2,0.5-0.3,0.8c0.2-0.4,0.3-0.7,0.5-1.1c-0.5,1.1-1.1,2.1-1.8,3.1
				c0.2-0.3,0.5-0.6,0.7-0.9c-0.2,0.2-0.3,0.4-0.5,0.6c-0.4,0.4-0.7,0.9-0.9,1.4c-0.3,0.5-0.4,1.1-0.4,1.7c0,0.6,0.1,1.2,0.4,1.7
				c0.2,0.6,0.5,1,0.9,1.4c0.9,0.8,2,1.4,3.2,1.3c0.4-0.1,0.8-0.1,1.2-0.2c0.8-0.2,1.4-0.6,2-1.2c0.8-0.9,1.6-2,2.2-3
				c0.6-1.1,1.1-2.3,1.6-3.5c0.2-0.6,0.2-1.2,0.1-1.8c0-0.6-0.2-1.2-0.5-1.7c-0.3-0.5-0.7-0.9-1.2-1.3c-0.4-0.4-0.9-0.7-1.5-0.8
				c-0.4-0.1-0.8-0.1-1.2-0.2c-0.8,0-1.6,0.2-2.3,0.6c-0.3,0.2-0.6,0.5-0.9,0.7C310.8,215.4,310.4,216.1,310.2,216.8L310.2,216.8z"
				/>
		</g>
	</g>
</g>
<g id="where">
	<g>
		<g>
			<path d="M45.3,141.3l-5.5,2.4L6.6,104.2l5.5-2.4L45.3,141.3z"/>
			<path d="M43.3,103.1l9.3-4.1l7.2,10.6c1.7,2.6,3.1,5.2,4.8,7.9l0.2-0.1c-0.8-3-1.6-6.1-2.2-9L60,95.7l8-3.5l7.7,10.4
				c1.9,2.5,3.5,5,5.3,7.6l0.2-0.1c-0.8-3-1.8-5.9-2.6-8.8l-3-12.4l8.7-3.8l5.9,30.2l-11,4.9l-6.2-8.7c-1.6-2.3-3.1-4.7-4.9-7.5
				l-0.2,0.1c0.9,3.2,1.7,5.9,2.4,8.6l2.4,10.4L62,127.7L43.3,103.1z"/>
			<path d="M84.2,72.2l9.4-4.2l3.9,8.9l1.6,4.9c1.1-2.5,2.9-5.5,6.7-7.2c6-2.7,10.5,0.6,13.5,7.4l7.5,16.9l-9.4,4.2l-6.9-15.7
				c-1.6-3.5-2.8-4-4.7-3.2c-1.8,0.8-2.4,2-3.2,3.9l8,18l-9.4,4.2L84.2,72.2z"/>
			<path d="M125.5,83.2c-3.9-8.9,0.1-17.2,6.8-20.2c8.1-3.6,14.6,0.6,17.8,8c0.7,1.6,1.2,3.4,1.4,4.1L135.9,82
				c2.3,2.9,5.2,2.9,8.3,1.6c1.9-0.8,3.4-2.1,4.9-4.1l5.5,4.2c-2,3.4-5.5,6.2-8.6,7.6C138,94.8,129.5,92.3,125.5,83.2z M141.2,72.3
				c-0.9-2.1-2.6-3.6-5.5-2.3c-2.1,0.9-3.3,2.9-2.6,5.9L141.2,72.3z"/>
			<path d="M149.7,56.1l7.7-3.4l2.7,4.4l0.2-0.1c0.4-4.6,2.7-7.6,5.4-8.8c1.7-0.8,2.7-0.9,3.6-1l2.1,8.8c-1.1,0.2-2.1,0.4-3.3,0.9
				c-2,0.9-3.9,3.1-3.7,7.1l6.7,15.3l-9.4,4.2L149.7,56.1z"/>
			<path d="M177.3,60.3c-3.9-8.9,0.1-17.2,6.8-20.2c8.1-3.6,14.6,0.6,17.8,8c0.7,1.6,1.2,3.4,1.4,4.1l-15.6,6.9
				c2.3,2.9,5.2,2.9,8.3,1.6c1.9-0.8,3.4-2.1,4.9-4.1l5.5,4.2c-2,3.4-5.5,6.2-8.6,7.6C189.8,72,181.3,69.4,177.3,60.3z M193,49.4
				c-0.9-2.1-2.6-3.6-5.5-2.3c-2.1,0.9-3.3,2.9-2.6,5.9L193,49.4z"/>
			<path d="M231.2,59.1l-5.5,2.4l-5.6-51.7l5.5-2.4L231.2,59.1z"/>
		</g>
	</g>
</g>
<g id="location" class="st0">
	<g class="st1">
		<g>
			<path class="st8" d="M529.4,85.3c4.9-5.3,7.9-12.5,7.9-20.3c0-16.6-13.4-30-30-30s-30,13.4-30,30c0,8.7,3.7,16.5,9.6,22l20.4,31
				L529.4,85.3z"/>
		</g>
		<g>
			<path class="st12" d="M529.4,85.3c4.9-5.3,7.9-12.5,7.9-20.3c0-16.6-13.4-30-30-30s-30,13.4-30,30c0,8.7,3.7,16.5,9.6,22l20.4,31
				L529.4,85.3z"/>
		</g>
	</g>
	<circle class="st13" cx="506.7" cy="64.5" r="13.5"/>
	<path class="st14" d="M464.1,79.9c-8.4-8.8-8-22.7,0.8-31.1"/>
	<path class="st14" d="M561.2,35.2c15.4,17.4,13.7,44-3.7,59.4"/>
	<path class="st14" d="M548.7,49.3c8.1,9,7.4,22.9-1.6,31.1"/>
	<path class="st14" d="M449.9,92.4c-15.9-17-15-43.6,2-59.5"/>
</g>
</svg>
