<?xml version="1.0" encoding="utf-8"?>
<!-- Generator: Adobe Illustrator 23.0.6, SVG Export Plug-In . SVG Version: 6.00 Build 0)  -->
<svg version="1.1" xmlns="http://www.w3.org/2000/svg" xmlns:xlink="http://www.w3.org/1999/xlink" x="0px" y="0px"
	 viewBox="0 0 608.7 521.5" style="enable-background:new 0 0 608.7 521.5;" xml:space="preserve">
<style type="text/css">
	.st0{display:none;}
	.st1{display:inline;}
	.st2{fill:#005BAC;}
	.st3{fill:none;stroke:#005BAC;stroke-width:8;stroke-miterlimit:10;}
	.st4{display:inline;fill:#005BAC;stroke:#005BAC;stroke-width:3;stroke-miterlimit:10;}
	.st5{fill:#FFF000;stroke:#FFF000;stroke-width:3;stroke-miterlimit:10;}
	.st6{fill:#FFF000;}
	.st7{fill:#FFFFFF;stroke:#FFFFFF;stroke-width:3;stroke-miterlimit:10;}
	.st8{fill:#FFFFFF;}
	.st9{fill:none;stroke:#005BAC;stroke-width:7;stroke-miterlimit:10;}
	.st10{fill:#FFFFFF;stroke:#005BAC;stroke-width:7;stroke-miterlimit:10;}
</style>
<g id="レイヤー_1" class="st0">
	
		<image style="display:inline;overflow:visible;opacity:0.29;" width="2976" height="3968" xlink:href="IMG_20191124_134718.jpg"  transform="matrix(0.251 0 0 0.251 -83.2665 -197.4705)">
	</image>
	<g id="レイヤー_2" class="st1">
	</g>
</g>
<g id="body">
	<g>
		<g>
			<path class="st2" d="M259.7,285c-0.1,1,0,2,0,3c0,2.1,0,4.3,0,6.4c0,5.2,0.1,10.3,0.1,15.5c0,2,0,4-0.1,6
				c-0.1,2.4,2.1,4.6,4.5,4.5c2.5-0.1,4.4-2,4.5-4.5c0.3-9.1,0-18.2-0.1-27.2c0-1.2-0.1-2.5,0.1-3.8c0.3-2.3-2.3-4.6-4.5-4.5
				C261.5,280.6,260,282.5,259.7,285L259.7,285z"/>
		</g>
	</g>
	<g>
		<g>
			<path class="st2" d="M313.7,300c0.2,3.1,0.8,6,1.6,9c0.3,1.3,0.6,2.6,0.9,3.9c0.1,0.7,0.3,1.5,0.4,2.2c0.1,0.6-0.1-1.1,0-0.2
				c0,0.2,0,0.4,0.1,0.6c0.1,0.5,0.1,1,0.1,1.6c0.2,2.3,1.9,4.6,4.5,4.5c2.3-0.1,4.7-2,4.5-4.5c-0.3-3.4-0.8-6.7-1.6-10
				c-0.3-1.2-0.6-2.4-0.9-3.7c-0.1-0.6-0.2-1.3-0.3-1.9c-0.1-0.8-0.1,0.2,0,0.4c-0.1-0.1,0-0.4-0.1-0.5c0-0.4-0.1-0.9-0.1-1.3
				c-0.2-2.3-1.9-4.6-4.5-4.5C316,295.6,313.5,297.5,313.7,300L313.7,300z"/>
		</g>
	</g>
	<g>
		<g>
			<path class="st2" d="M239,331.9c1.5,0.9,2.9,1.8,4.3,2.8c0.7,0.5,1.4,1,2.1,1.6c0.4,0.3,0,0-0.1-0.1c0.2,0.1,0.3,0.3,0.5,0.4
				c0.4,0.3,0.8,0.6,1.1,0.9c2.9,2.3,5.6,4.8,8.4,7.2c5.6,4.9,11.3,9.6,17.9,13.1c4,2.1,8.2,3.5,12.7,2.9c4.4-0.6,8.2-2.7,12.2-4.6
				c7.6-3.7,15.3-7,23.1-10.3c8.8-3.8,17.6-7.6,26.2-11.8c2.1-1,2.9-4.2,1.6-6.2c-1.4-2.2-3.9-2.7-6.2-1.6
				c-14.8,7.3-30.1,13.2-45.1,20.2c-1.9,0.9-3.7,1.7-5.5,2.6c-0.8,0.4-1.7,0.8-2.5,1.2c-0.4,0.2-0.8,0.4-1.2,0.6
				c0.6-0.3-0.6,0.2-0.8,0.3c-0.9,0.3-1.8,0.6-2.7,0.8c0,0-0.7,0.1-0.3,0.1c0.5-0.1-0.2,0-0.3,0c-0.5,0-1,0-1.5,0c-0.5,0,0,0,0.1,0
				c-0.2,0-0.4-0.1-0.6-0.1c-0.4-0.1-0.8-0.2-1.3-0.3c-0.4-0.1-0.8-0.3-1.2-0.4c-0.2-0.1-0.4-0.2-0.6-0.2c0.4,0.2,0.1,0-0.1-0.1
				c-3.2-1.6-6.2-3.4-9.1-5.5c-0.3-0.2-0.7-0.5-1-0.7c-0.2-0.1-0.3-0.2-0.5-0.4c0.1,0,0.5,0.4,0.1,0.1c-0.7-0.6-1.4-1.1-2.1-1.7
				c-1.3-1.1-2.7-2.2-4-3.4c-6.1-5.3-12.1-11-19.2-15c-2-1.2-5-0.5-6.2,1.6C236.2,327.9,236.8,330.7,239,331.9L239,331.9z"/>
		</g>
	</g>
	<g>
		<g>
			<path class="st2" d="M110.5,336.9c1.2,1.9,2.2,3.8,3.2,5.8c0.5,1,1,2,1.4,3c0.2,0.5,0.4,1,0.6,1.4c0.1,0.3,0.2,0.5,0.3,0.8
				c0.1,0.2,0.5,1.2,0.1,0.2c1.7,4.1,3.3,8.4,4.9,12.6c3.2,8.5,6.4,17.2,11.7,24.8c3.1,4.5,6.8,8.3,11.2,11.5
				c1.9,1.4,5.1,0.4,6.2-1.6c1.2-2.3,0.4-4.7-1.6-6.2c-0.2-0.2-0.4-0.3-0.7-0.5c-0.6-0.4,0.8,0.7,0,0c-0.3-0.3-0.7-0.6-1-0.8
				c-0.8-0.7-1.6-1.5-2.4-2.3c-0.7-0.7-1.3-1.4-2-2.2c-0.2-0.2-1.3-1.6-0.5-0.6c-0.3-0.4-0.7-0.9-1-1.3c-2.5-3.5-4.5-7.3-6.3-11.2
				c-0.4-0.9-0.9-1.9-1.3-2.9c-0.1-0.2-0.3-0.8,0,0.1c-0.1-0.2-0.2-0.4-0.3-0.6c-0.2-0.6-0.5-1.2-0.7-1.8c-0.8-2.1-1.6-4.2-2.4-6.3
				c-1.6-4.1-3.1-8.3-4.8-12.4c-2-4.8-4.1-9.6-6.9-14c-1.2-2-4.1-3-6.2-1.6C110.2,332,109.2,334.7,110.5,336.9L110.5,336.9z"/>
		</g>
	</g>
	<path class="st3" d="M264.2,316l-31,15l-23,10c-18.5,10.5-18.5,19.5-26,27c-11.5,11.5-19.1,14.2-20,15l-18,10"/>
	<g>
		<g>
			<path class="st2" d="M109.3,338.3c-0.9-2-0.6-4,0.6-5.2c-0.4,0.4,1.2-0.8,0.6-0.5c-0.3,0.1-0.5,0.3-0.8,0.5
				c-0.9,0.5-1.8,0.9-2.8,1.3c-0.6,0.3-1.2,0.5-1.7,0.8c-0.3,0.1-0.6,0.3-1,0.4c-0.3,0.1-1.1,0.4,0.3-0.1c-0.2,0.1-0.4,0.2-0.7,0.3
				c-1.6,0.7-3.2,1.3-4.7,2c-6.9,2.8-13.9,5.5-20.7,8.5c-1.8,0.8-3.7,1.5-5.4,2.6c-2.3,1.5-3.4,4-2,6.6c0.8,1.6,1.8,3.1,2.6,4.6
				c2.1,4,4,8.2,5.8,12.3c1,2.4,2,4.7,3.1,7.1c0.1,0.3,0.3,0.6,0.4,1c-0.1-0.1-0.4-0.9,0-0.1c0.3,0.6,0.5,1.3,0.8,1.9
				c0.5,1.3,1.1,2.6,1.6,3.9c4.2,10,8.2,20,13,29.7c1.8,3.8,3.8,7.5,6,11.1c2,3.1,4.5,5.9,7.2,8.6c3.7,3.7,7.8,7.1,12.3,9.9
				c4.1,2.5,8.5,4.3,13.3,4.4c3.8,0.1,7.7-0.4,11.5-1c4.3-0.7,8.5-1.6,12.7-2.6c8.8-2.2,17.4-4.9,26-7.8c5.7-1.9,11.3-4,16.9-6.3
				c0.8-0.3,1.6-0.7,2.4-1.1c2.1-1,2.9-4.2,1.6-6.2c-1.4-2.2-3.9-2.7-6.2-1.6c-0.2,0.1-0.3,0.2-0.5,0.2c-1.1,0.5,1.2-0.5,0,0
				c-0.9,0.4-1.9,0.8-2.8,1.1c-2.8,1.1-5.7,2.2-8.6,3.2c-8.1,2.9-16.3,5.6-24.6,7.9c-4.4,1.2-8.8,2.4-13.2,3.3c-2,0.4-4,0.8-6,1.1
				c-0.5,0.1-0.9,0.1-1.4,0.2c-0.9,0.1,1.1-0.1,0.2,0c-0.2,0-0.3,0-0.5,0.1c-0.9,0.1-1.9,0.2-2.8,0.3c-1.6,0.1-3.2,0.2-4.9,0.1
				c-0.3,0-0.6,0-0.9-0.1c-0.2,0-0.4,0-0.5,0c-0.7,0,1.2,0.2,0.2,0c-1.1-0.2-2.1-0.5-3.2-0.9c0,0-0.5-0.2-0.5-0.2
				c0.2,0.1,0.4,0.1,0.5,0.2c-0.2-0.1-0.4-0.2-0.5-0.2c-0.6-0.3-1.1-0.5-1.7-0.8c-1-0.6-2.1-1.2-3-1.8c-1-0.7-2-1.4-3-2.1
				c0.9,0.7,0,0-0.1-0.1c-0.3-0.2-0.5-0.4-0.8-0.6c-0.5-0.4-1-0.8-1.5-1.3c-3.1-2.7-6-5.6-8.6-8.8c-0.4-0.5,0.8,1.1,0.1,0.2
				c-0.2-0.3-0.4-0.6-0.6-0.9c-0.5-0.8-1-1.5-1.5-2.3c-1.1-1.8-2.1-3.6-3-5.4c-2.2-4.2-4.2-8.6-6.2-12.9c-1.1-2.4-2.1-4.7-3.1-7.1
				c-0.3-0.6-0.6-1.3-0.8-1.9c-0.1-0.3-0.8-1.9-0.4-0.9c-0.6-1.3-1.1-2.6-1.7-3.9c-4-9.6-7.9-19.3-12.4-28.7
				c-0.9-1.9-1.8-3.8-2.8-5.6c-0.4-0.7-0.8-1.5-1.2-2.2c-0.2-0.4-0.4-0.7-0.6-1.1c0-0.1-0.1-0.1-0.1-0.2c0.8,1.6,0.8,3.1,0,4.4
				c0.2-0.3-0.9,1.1-0.6,0.8c0.4-0.5-1.2,0.8-0.6,0.5c0.1-0.1,0.2-0.1,0.3-0.2c0.3-0.2,0.7-0.4,1-0.5c1-0.5,2-0.9,3-1.4
				c0.6-0.3,1.2-0.5,1.8-0.8c0.1-0.1,0.3-0.1,0.4-0.2c0.5-0.2-1.2,0.5-0.4,0.2c0.4-0.2,0.9-0.4,1.3-0.6c1.5-0.6,3.1-1.3,4.6-1.9
				c3.5-1.4,7-2.8,10.4-4.2c3.3-1.3,6.6-2.7,9.8-4.1c1.7-0.7,3.6-1.5,5.1-2.5c2.3-1.5,3.1-3.9,1.9-6.6c-1-2.1-4.3-2.8-6.2-1.6
				C108.8,333.6,108.3,336,109.3,338.3L109.3,338.3z"/>
		</g>
	</g>
	<g>
		<g>
			<path class="st2" d="M212.3,396.8c-3.6,8-8.5,15.2-11.2,23.6c-0.7,2.1-1.2,4.3-1.4,6.6c-0.2,2.5,0.2,5,0.6,7.4
				c0.7,4.5,2.2,8.9,4.5,12.9c1.7,3.1,3.9,5.9,6.1,8.7c1.5,2,3,3.9,4.6,5.8c0.2,0.2,0.4,0.4,0.6,0.7c0.9,1.1-0.3-0.4,0.2,0.3
				c0.4,0.5,0.7,1.1,1.1,1.6c0.3,0.6,0.6,1.1,0.9,1.7c0.3,0.7-0.3-1,0.1,0.3c0.1,0.4,0.3,0.8,0.4,1.2c0.4,1.2,0.7,2.5,0.9,3.8
				c0.1,0.6,0.2,1.1,0.3,1.7c0.1,0.4,0.1,0.7,0.2,1.1c0,0.3,0,0.3,0-0.1c0,0.2,0,0.4,0.1,0.6c0.2,1.8,0.4,3.5,0.5,5.3
				c0.4,4.4,0.6,8.8,0.8,13.3c0.4,9.6,0.6,19.3,0.3,28.9c-0.1,2.4,2.1,4.6,4.5,4.5c2.5-0.1,4.4-2,4.5-4.5c0.3-8.4,0.1-16.8-0.1-25.2
				c-0.3-8.8-0.7-17.7-2-26.4c-0.5-2.9-1.2-5.7-2.4-8.4c-1.2-2.7-2.9-5-4.8-7.2c-0.4-0.5-0.8-1-1.2-1.5c0.4,0.6-0.3-0.4-0.4-0.6
				c-0.5-0.7-1.1-1.5-1.7-2.2c-1-1.4-2.1-2.7-3.1-4.1c-1-1.5-2-3-2.8-4.6c-0.2-0.4-0.4-0.8-0.6-1.2c-0.1-0.3-0.8-1.6-0.3-0.5
				c-0.5-0.9-0.8-2-1.1-3c-0.3-1.1-0.6-2.1-0.8-3.2c-0.1-0.6-0.2-1.2-0.3-1.7c0-0.3-0.1-0.5-0.1-0.8c0.1,1,0-0.4-0.1-0.5
				c-0.1-1-0.2-2.1-0.2-3.1c0-0.4,0.1-0.7,0.1-1.1c0.1-1-0.2,0.8,0,0.2c0.1-0.3,0.1-0.6,0.2-0.9c0.5-2.2,1.2-4.3,2.1-6.4
				c0.4-1.1-0.3,0.6,0-0.1c0.1-0.3,0.3-0.7,0.4-1c0.3-0.6,0.5-1.2,0.8-1.8c0.5-1.1,1.1-2.2,1.6-3.3c2.1-4,4.4-8,6.2-12.1
				c1-2.1,0.7-4.9-1.6-6.2C216.5,394.1,213.4,394.5,212.3,396.8L212.3,396.8z"/>
		</g>
	</g>
	<g>
		<g>
			<path class="st2" d="M319,320.9c3.3,1.5,6.8,2.7,10.1,4.1c0.6,0.2,1.2,0.5,1.8,0.7c0.3,0.1,0.6,0.2,0.9,0.4c-1.6-0.7,0,0,0.4,0.2
				c1.6,0.7,3.1,1.4,4.7,2.1c4.2,1.9,8.3,3.8,12.4,5.8c5.5,2.7,10.9,5.4,16.3,8.2c5.8,3,11.5,6,16.9,9.7c1.1,0.7,2.2,1.5,3.2,2.3
				c0.3,0.2,0.6,0.4,0.9,0.6c-0.9-0.7,0.1,0.1,0.2,0.2c0.5,0.4,1.1,0.9,1.6,1.3c2.1,1.7,4,3.5,5.9,5.5c1.8,1.9,3.6,3.8,5.2,5.9
				c0.1,0.2,0.8,1.1,0.1,0.1c0.1,0.2,0.3,0.4,0.4,0.5c0.4,0.5,0.8,1.1,1.2,1.6c0.8,1.1,1.5,2.2,2.2,3.3c1.4,2.2,2.7,4.5,3.9,6.8
				c0.6,1.2,1.3,2.5,1.8,3.7c0.2,0.5,0.5,1.1,0.7,1.6c0.1,0.3,0.3,0.6,0.4,1c0.1,0.2,0.2,0.4,0.3,0.7c-0.2-0.5-0.2-0.6,0-0.1
				c1.2,2.8,2.3,5.6,3.1,8.6c1.4,5.2,2.4,10.6,3.5,15.9c1.6,8.4,3,16.9,4.3,25.4c0.7,4.8,1.5,9.7,2.1,14.6c0,0.3,0.1,0.7,0.1,1
				c0,0.2,0.2,1.4,0,0.1c0.1,0.5,0.1,1.1,0.2,1.6c0.2,1.4,0.4,2.8,0.5,4.2c0.3,2.6,0.7,5.3,1,7.9c2.3,19.7,4.2,39.7,3.5,59.6
				c-0.1,2-0.2,4.1-0.3,6.1c-0.2,2.4,2.2,4.6,4.5,4.5c2.6-0.1,4.3-2,4.5-4.5c1.3-19.5-0.4-39.2-2.5-58.6c-2.1-19.7-4.9-39.4-8.5-59
				c-1.1-6.2-2.3-12.4-3.8-18.6c-1.7-7.1-4.7-14-8.1-20.5c-5-9.6-11.9-18.3-20.2-25.2c-9.9-8.3-21.5-14-33-19.8
				c-8.3-4.2-16.6-8.2-25.1-11.8c-4.2-1.8-8.5-3.4-12.7-5.2c-0.1-0.1-0.3-0.1-0.4-0.2c-0.6-0.3,1.3,0.6,0.7,0.3
				c-0.2-0.1-0.5-0.2-0.7-0.3c-2.1-1-5-0.7-6.2,1.6C316.3,316.7,316.7,319.9,319,320.9L319,320.9z"/>
		</g>
	</g>
	<g>
		<g>
			<path class="st2" d="M362.3,433.8c-2.5,4.2-3.8,9-4.8,13.7c-1.4,6.4-2.2,12.9-2.8,19.4c-1.3,13.2-1.7,26.5-1.6,39.8
				c0,5.1,0.1,10.2,0.6,15.3c0.2,2.3,1.9,4.6,4.5,4.5c2.3-0.1,4.7-2,4.5-4.5c-0.9-10.5-0.7-21.1-0.4-31.6c0.2-6.8,0.6-13.6,1.1-20.3
				c0.3-3.3,0.6-6.5,1-9.8c0-0.3,0.3-1.6,0-0.3c0.1-0.4,0.1-0.8,0.2-1.1c0.1-0.7,0.2-1.5,0.3-2.2c0.2-1.5,0.5-2.9,0.8-4.4
				c0.5-2.9,1.2-5.7,2.1-8.5c0.4-1.2,0.8-2.3,1.2-3.4c0.2-0.6-0.3,0.6-0.2,0.6c0.1-0.2,0.1-0.3,0.2-0.5c0.1-0.2,0.2-0.5,0.3-0.7
				c0.2-0.5,0.5-0.9,0.7-1.4c1.2-2,0.5-5-1.6-6.2C366.3,431,363.6,431.6,362.3,433.8L362.3,433.8z"/>
		</g>
	</g>
	<g>
		<g>
			<path class="st2" d="M366.7,416c-0.1,0.4-0.1,0.8-0.2,1.2c-0.7,0.9-1.4,1.8-2.1,2.7c0,0,0,0,0,0c-1.2,0.2-2.3,0.3-3.5,0.5
				c0,0,0,0,0,0c-0.7-0.4-1.3-0.8-2-1.2c-0.7-0.7-0.9-1.2-0.6-0.8c0.3,0.5-0.5-1.2-0.3-0.7c0.1,0.3,0.2,0.6,0.3,0.9c0.4,1,0.7,2,1,3
				c1,2.9,1.9,5.7,2.8,8.6c2.2,7.1,3.9,14.4,5.6,21.6c2.1,8.8,4.2,17.6,6,26.5c0.8,3.9,1.5,7.8,2.1,11.7c0.2,0.9,0.3,1.9,0.4,2.8
				c0.1,0.5,0.1,0.9,0.2,1.4c0,0.2,0.1,0.5,0.1,0.7c0,0.1,0.2,1.1,0.1,0.4c-0.1-0.6,0.1,0.5,0.1,0.7c0.1,0.4,0.1,0.9,0.2,1.3
				c0.1,0.9,0.2,1.9,0.3,2.8c0.7,7.2,1,14.6,0.3,21.8c-0.2,2.4,2.2,4.6,4.5,4.5c2.6-0.1,4.3-2,4.5-4.5c1.4-15-1-30.2-3.9-44.9
				c-1.9-9.4-4.1-18.8-6.3-28.1c-1.8-7.5-3.6-15.1-5.9-22.5c-1-3.2-2-6.3-3.1-9.5c-0.4-1-0.7-2.2-1.2-3.2c-0.6-1.1-1.6-1.9-2.8-2.2
				c-3-0.8-5.5,1.5-5.7,4.4c-0.1,2.4,2.2,4.6,4.5,4.5C364.8,420.4,366.6,418.6,366.7,416L366.7,416z"/>
		</g>
	</g>
	<g>
		<g>
			<path class="st2" d="M99.2,325.3c0,0.1,0.1,0.2,0.1,0.3c-0.2-0.4-0.3-0.7-0.5-1.1c1,2.3,1.9,4.7,2.8,7.1c0.5,1.4,1,2.7,1.5,4.1
				c0.3,0.8,0.6,1.6,0.8,2.5c0.5,2.3,3.3,3.9,5.5,3.1c2.5-0.8,3.6-3.1,3.1-5.5c-0.2-0.9-0.6-1.8-0.9-2.7c-0.5-1.5-1.1-2.9-1.6-4.4
				c-1-2.7-2-5.4-3.1-8c-0.4-1-1.7-1.8-2.7-2.1c-1.1-0.3-2.5-0.2-3.5,0.5c-1,0.6-1.8,1.5-2.1,2.7C98.4,323.1,98.7,324.1,99.2,325.3
				L99.2,325.3z"/>
		</g>
	</g>
	<g>
		<g>
			<path class="st2" d="M92.2,300.9c0.1-0.2,0.2-0.4,0.3-0.5c0.1-0.1,0.1-0.2,0.2-0.3c0.3-0.5-0.3,0.4-0.3,0.4
				c0.6-0.6,1.1-1.3,1.6-1.9c1.1-1.3,2.3-2.6,3.4-3.9c1.1-1.4,2-2.6,2.7-4.2c1.1-2.5,2-5.1,3-7.7c0.2-0.6,0.4-1.2,0.7-1.8
				c0.1-0.3,0.2-0.5,0.3-0.8c0,0,0.5-1.2,0.2-0.6c-0.2,0.6,0.3-0.6,0.2-0.6c0.1-0.2,0.2-0.5,0.3-0.7c0.3-0.6,0.5-1.1,0.8-1.7
				c0.1-0.2,0.2-0.4,0.4-0.6c0.4-0.7,0.4-0.1-0.2,0.2c0.2-0.1,0.5-0.5,0.6-0.7c0.6-0.6-0.2,0.4-0.3,0.2c0,0,0.6-0.3,0.6-0.3
				c0,0-1.1,0.4-0.4,0.2c0.5-0.2-0.1,0.2-0.5,0c0,0,0.5,0,0.5,0c-0.4,0.2-1-0.2-0.2,0c0.6,0.2-1.1-0.3,0,0c0.1,0,0.7,0.5,0.1,0
				c0.4,0.3,0.7,0.8,1,1c-0.8-0.6-0.6-0.8-0.3-0.4c0.1,0.1,0.2,0.3,0.2,0.4c0.1,0.1,0.1,0.2,0.2,0.4c0.3,0.5-0.2-0.4-0.2-0.5
				c0,0.2,0.3,0.7,0.3,0.9c0.1,0.4,0.2,0.8,0.3,1.2c0,0.2,0.3,0.8,0.2,1c0.1-0.1-0.1-1.2-0.1-0.3c0,0.2,0,0.4,0.1,0.6
				c0.1,0.8,0.1,1.6,0.1,2.4c0,1.8-0.1,3.6-0.3,5.3c0,0.4-0.1,0.8-0.1,1.3c0,0.2,0,0.4-0.1,0.6c-0.1,0.6,0.2-1.2,0-0.2
				c-0.1,0.8-0.2,1.7-0.4,2.5c-0.2,1.4-0.5,2.7-0.8,4.1c-0.2,0.9-0.4,1.7-0.5,2.6c-0.1,0.6-0.2,1.1-0.3,1.7c0.3-2,0.2-1.1,0-0.6
				c-0.5,2.1-1.1,4.2-1.6,6.3c-0.9,3.3-1.8,6.6-2.8,9.9c-0.4,1.3-0.8,2.6-1.3,3.9c-0.1,0.2-0.2,0.4-0.2,0.7
				c-0.2,0.5-0.6,0.8,0.2-0.4c-0.1,0.1-0.1,0.3-0.2,0.4c0,0-0.1,0.1-0.1,0.1c0.2-1.1,3.4-2.1,3.7-2.1c0.8,0.2,1.5,0.4,2.3,0.6
				c0.3,0.2,0.6,0.5,0.9,0.7c-1.6-1.7-4.8-1.8-6.4,0c-1.7,1.8-1.7,4.5,0,6.4c2.2,2.4,6,1.3,7.4-1.3c0.6-1.1,0.9-2.3,1.3-3.4
				c1-3,1.9-6,2.7-9c0.8-2.9,1.6-5.8,2.3-8.6c0.2-0.7,0.4-1.4,0.5-2.2c0,0,0-0.1,0-0.1c0.1-0.4,0.1-0.8,0.2-1.2c0-0.4,0,0-0.1,1.1
				c0-0.1,0-0.2,0.1-0.3c0.1-0.4,0.2-0.7,0.2-1.1c1.4-6.8,3-14.2,2.1-21.2c-0.6-4.8-2.5-9.4-7.3-11.4c-4.9-2.1-9.5,0.6-11.8,5
				c-1.5,3-2.7,6.1-3.8,9.2c-0.5,1.5-1.1,2.9-1.7,4.4c-0.1,0.2-0.4,1-0.1,0.2c-0.1,0.3-0.3,0.7-0.4,1c-0.1,0.2-0.3,0.5-0.4,0.7
				c-0.6,0.8,0.7-0.9-0.1,0.1c-0.3,0.4-0.6,0.7-0.9,1.1c-0.7,0.9-1.5,1.7-2.2,2.6c-1.2,1.4-2.8,2.9-3.6,4.6c-1,2.1-0.7,5,1.6,6.2
				C88,303.5,91.1,303.1,92.2,300.9L92.2,300.9z"/>
		</g>
	</g>
	<g>
		<g>
			<path class="st2" d="M95.2,282.5c-0.6,0,0.8,0.1,0.8,0.1c1.2,0.3,1,0.5,0.6,0.2c-0.4-0.3,0.8,0.8,0.5,0.4
				c-0.1-0.1-0.2-0.2-0.3-0.3c-0.1-0.1-0.2-0.2-0.3-0.3c-0.4-0.4,0.7,1,0.2,0.2c-0.2-0.3-0.4-0.7-0.6-1c-0.4-0.7-0.8-1.4-1.1-2.2
				c-0.1-0.2-0.2-0.4-0.2-0.5c-0.3-0.7,0.1,0.2,0.1,0.3c0-0.4-0.4-0.9-0.5-1.3c-1-2.7-1.3-5.6-2.3-8.3c-0.6-1.6-1-3.3-1.4-5
				c-0.1-0.6-0.2-1.1-0.3-1.7c0-0.3-0.1-0.5-0.1-0.8c-0.1-0.7,0.1,0.7,0,0c-0.1-1.3-0.3-2.5-0.4-3.8c-0.3-2.6-0.6-5.2-1.2-7.8
				c-0.1-0.3-0.1-0.5-0.2-0.8c-0.2-1.1,0.1,0.8,0,0c-0.1-0.9-0.2-1.8-0.3-2.7c-0.3-3.9-0.5-8.2-2.4-11.6c-2.3-4.2-8.2-6.9-12.9-6.5
				c-2.8,0.3-5.5,1.3-6.9,4c-1,2-1.3,4.4-1.3,6.6c0,0.7,0,1.4,0.1,2.1c0.1,0.5,0.1,0.9,0.2,1.4c-0.6-4.2-0.1-1.1-0.1-0.9
				c0,0.1,0,0.3,0,0.5c0,1.3,0.1,2.7,0.2,4c0.2,3,0.6,5.9,1,8.9c-0.1-0.7,0,0.1,0,0.2c0.1,0.5,0.1,0.9,0.2,1.4
				c0.1,0.7,0.2,1.5,0.3,2.2c0.2,1.5,0.4,3,0.6,4.5c0.4,2.7,0.6,5.5,1.5,8.1c0.3,0.8,0.7,1.7,1.1,2.4c0.1,0.2,0.2,0.4,0.3,0.6
				c0.5,1-0.4-1,0.1,0.1c0.8,2.2,3.1,3.9,5.5,3.1c2.2-0.7,4-3.2,3.1-5.5c-0.4-1-0.9-2.6-1.6-3.5c0,0,0.4,1.2,0.2,0.6
				c0-0.1-0.1-0.3-0.1-0.4c-0.1-0.4-0.2-0.7-0.3-1.1c-0.3-1.2-0.5-2.5-0.7-3.7c-0.1-0.6-0.2-1.2-0.3-1.8c-0.1-0.8,0.1,0.6,0-0.1
				c0-0.3-0.1-0.6-0.1-0.9c-0.2-1.2-0.3-2.5-0.4-3.7c-0.4-3-0.7-5.1-1-7.7c-0.3-2.7-0.3-5.4-0.5-8.1c0-0.6-0.3-1.9-0.1-0.8
				c0.1,0.8,0,0.2,0,0c0-0.3-0.1-0.7-0.1-1c0-0.3,0.2-2.4,0.1-2.5c0.2,0.1-0.2,1,0,0.3c0-0.2,0.1-0.4,0.1-0.6c0-0.2,0.1-0.3,0.2-0.5
				c0.2-0.7-0.1,0.3-0.2,0.4c0.1-0.1,0.2-0.3,0.2-0.4c-0.3,0.4-0.6,0.7-1,1c0.6-0.3-0.4,0.2-0.4,0.1c0.1,0.1,0.9-0.4,1-0.3
				c0.1,0.1-1.2,0-0.1,0.1c0.2,0,0.5,0,0.7,0c0.3,0,0.7,0.2-0.1,0c0.2,0.1,0.5,0.1,0.7,0.2c0.3,0.1,1.5,0.6,0.6,0.2
				c0.5,0.3,1,0.5,1.4,0.8c0.1,0.1,0.7,0.5,0.3,0.2c-0.5-0.4,0.1,0.1,0.2,0.2c0.1,0.1,1.1,1.2,0.5,0.5c-0.6-0.6,0,0.2,0.1,0.4
				c0.3,0.5-0.3-0.9-0.2-0.4c0.1,0.2,0.1,0.4,0.2,0.6c0.2,0.8,0.4,1.6,0.5,2.4c0,0.2,0.1,0.4,0.1,0.6c0.1,0.6-0.1-0.9,0-0.3
				c0,0.5,0.1,1,0.2,1.4c0.2,1.7,0.3,3.4,0.5,5.1c0.2,1.9,0.7,3.8,1,5.7c0,0.1,0.1,1,0.1,0.4c-0.1-0.6,0,0.3,0,0.4
				c0.1,0.6,0.1,1.1,0.2,1.7c0.1,1.2,0.2,2.4,0.4,3.6c0.4,3.9,1.3,7.5,2.6,11.2c0.6,1.7,0.9,3.5,1.3,5.3c0.4,1.7,1.1,3.3,1.7,4.8
				c1.5,3.5,4.1,8.6,8.6,8.4c2.4-0.1,4.6-2,4.5-4.5C99.6,284.7,97.8,282.4,95.2,282.5L95.2,282.5z"/>
		</g>
	</g>
	<g>
		<g>
			<path class="st2" d="M57.4,269.9c0-0.2,0.1-0.2-0.2,0.4c-0.1,0.3-0.4,1-0.7,1.1c0.1-0.1,0.3-0.3,0.4-0.4c0.6-0.6-0.5,0.3-0.2,0.1
				c0.2-0.2,0.5-0.4,0.7-0.5c1-0.7,2-1.3,3-1.9c0.3-0.2,0.7-0.4,1-0.6c0.5-0.3-0.7,0.3-0.7,0.3c-0.2,0.1-1.4,0.1-0.6,0.1
				c0.8,0-1.1-0.3-0.5-0.1c0.2,0.1,0.4,0.1,0.6,0.1c0.5,0.1,1,0.3,1.5,0.5c0.5,0.2,1,0.4,1.5,0.6c-0.1,0-1-0.4-0.3-0.1
				c0.1,0.1,0.2,0.1,0.4,0.2c0.3,0.1,0.6,0.3,0.9,0.4c1,0.5,2,1,3,1.5c0.3,0.2,0.7,0.4,1,0.6c0.1,0.1,0.3,0.2,0.4,0.3
				c0.5,0.2-0.9-0.8-0.6-0.4c0.2,0.2-0.7-0.8-0.6-0.8c0.1,0.1,0.3,0.5,0.4,0.6c0.3,0.4,0.5,0.8,0.8,1.3c0.4,0.7,0.8,1.4,1.1,2.1
				c0.2,0.3,0.3,0.7,0.5,1c0.1,0.1,0.1,0.3,0.2,0.4c0.2,0.5-0.2-0.4-0.2-0.4c0.1,0,0.7,1.7,0.7,1.9c0.4,1.2,0.8,2.5,1.3,3.7
				c0.3,0.7,0.5,1.5,0.8,2.2c0.2,0.5,0.4,1,0.6,1.5c0.1,0.3,0.2,0.6,0.4,0.9c0.8,1.5-0.1-2.3-0.1-2.3c-0.2,0.6,0.4-0.8,0.2-0.5
				c-0.1,0.2-0.2,0.4-0.3,0.5c-0.3,0.5-0.6,1-0.9,1.5c-0.1,0.2-0.3,0.4-0.4,0.6c-0.1,0.1-0.1,0.2-0.2,0.3c-0.4,0.6,0.2-0.3,0.3-0.4
				c-0.2,0.2-0.6,0.6-0.7,0.9c0.4-0.6,1.6-1,2.5-1.1c-0.8,0.1,0.1-0.1,0.4,0.1c-0.2-0.2-1.4-0.5-1.7-0.5c0,0,0.8,0.4,0.4,0.2
				c-0.1-0.1-0.3-0.1-0.4-0.2c-0.3-0.1-0.5-0.3-0.8-0.4c-0.6-0.3-1.3-0.7-1.9-1.1c-1.1-0.7-2.1-1.4-3.1-2.1
				c-0.1-0.1-0.2-0.1-0.3-0.2c-0.5-0.4,0.4,0.3,0.4,0.3c-0.2-0.2-0.4-0.3-0.6-0.5c-0.5-0.4-1.3-1-1.5-1.6c0,0,0.5,0.7,0.2,0.3
				c-0.1-0.2-0.3-0.4-0.5-0.7c-0.2-0.3-0.4-0.7-0.7-1c-0.5-0.7-0.9-1.5-1.4-2.3c-1.8-3.1-3.4-6.3-5.9-8.9c-1.6-1.7-4.8-1.7-6.4,0
				c-1.7,1.9-1.7,4.5,0,6.4c0.1,0.1,0.2,0.3,0.4,0.4c0.4,0.4,0.1-0.1-0.2-0.2c0.2,0.1,0.5,0.7,0.6,0.9c0.5,0.7,0.9,1.4,1.3,2.1
				c0.9,1.6,1.8,3.2,2.8,4.8c1,1.7,2.1,3.3,3.3,4.8c1,1.3,2.2,2.2,3.5,3.2c2.6,1.9,5.3,3.6,8.3,4.8c1.6,0.6,3.5,0.9,5.1,0.4
				c1.9-0.5,2.9-2.1,4-3.5c0.7-1,1.4-2,1.9-3c0.5-0.9,0.9-1.9,0.9-3c0-0.7-0.1-1.3-0.4-1.9c-0.1-0.3-0.3-0.6-0.4-1
				c-0.6-1.3,0.1,0.4-0.1-0.3c-1.3-3.2-2.3-6.6-3.7-9.7c-1.3-2.9-2.8-6.1-5.6-7.9c-2.4-1.5-5-2.6-7.6-3.6c-1.5-0.6-3-1-4.6-1.2
				c-1.5-0.1-2.9,0.4-4.2,1.1c-1.3,0.7-2.5,1.5-3.7,2.3c-1.5,1-3.6,2.5-3.9,4.5c-0.3,2.3,0.6,5,3.1,5.5
				C54,273.5,57,272.4,57.4,269.9L57.4,269.9z"/>
		</g>
	</g>
	<g>
		<g>
			<path class="st2" d="M56.7,273.2c-5.2-0.1-13.7,1.7-13.8,8.3c0,2.3,0.8,4.7,1.7,6.8c0.6,1.5,1.1,3.1,2,4.5c1.1,1.9,2.9,3.5,4.5,5
				c1.8,1.8,3.7,3.5,6.1,4.4c1.7,0.7,3.5,1.1,5.3,1.6c1.8,0.5,3.9,1.1,5.8,1c2.2-0.1,4.2-1.6,5.9-3c1.5-1.2,2.6-2.9,3.1-4.7
				c1.3-4.2-1-8.4-3.9-11.3c-1.6-1.7-4.7-1.8-6.4,0c-1.7,1.8-1.8,4.6,0,6.4c0.3,0.3,0.5,0.6,0.8,0.9c0.8,0.9-0.4-0.7,0.2,0.2
				c0.1,0.2,0.2,0.4,0.3,0.6c0.1,0.1,0.1,0.2,0.2,0.3c0.2,0.4,0.2,0.4-0.1-0.3c0,0,0.2,0.7,0.2,0.8c0.2,0.7-0.1-0.3,0-0.4
				c0,0.1,0,0.7,0,0.8c0.1-0.8,0.1-0.9,0-0.5c0,0.2-0.1,0.3-0.1,0.5c0-0.1,0.5-0.9,0.1-0.4c-0.6,0.8,0,0,0.1,0c-0.1,0-0.9,1-1.1,1
				c0.1-0.1,0.3-0.2,0.4-0.3c-0.2,0.1-0.4,0.3-0.6,0.4c-0.3,0.2-0.5,0.3-0.8,0.5c-0.6,0.4,0.9-0.3,0.5-0.2c1.2-0.3,1.3-0.2,0.7-0.1
				c-0.1,0-0.2,0-0.3,0c-0.7,0,1.3,0.2,0.6,0.1c-0.3-0.1-0.6-0.1-0.9-0.2c-0.9-0.2-1.8-0.4-2.7-0.6c-1.6-0.4-3.1-0.8-4.6-1.4
				c-0.2-0.1-0.4-0.2-0.7-0.2c1.3,0.4,1,0.4,0.4,0.1c-0.6-0.3,0.3,0.2,0.3,0.3c-0.1-0.2-0.4-0.4-0.6-0.5c-0.4-0.4-0.9-0.8-1.3-1.2
				c-1.4-1.3-2.8-2.8-4-4.3c-0.1-0.1-0.2-0.2-0.2-0.3c-0.4-0.5,0.6,1.1,0.5,0.6c0-0.1-0.1-0.2-0.1-0.2c-0.2-0.5-0.5-1-0.7-1.5
				c-0.4-1,0.4,1,0-0.1c-0.1-0.4-0.3-0.7-0.4-1.1c-0.3-0.9-0.7-1.8-0.9-2.8c0-0.2-0.1-0.4-0.1-0.6c-0.1-0.6,0.2-0.8,0,0.3
				c0-0.2,0-0.4,0-0.6c0-0.4,0.2-1-0.1,0.6c0.1-0.5,0.3-0.4-0.3,0.6c-0.5,0.7-0.7,0.8-0.4,0.5c0.2-0.2,0.2-0.2-0.1,0.1
				c-0.7,0.5-0.1,0.1,0.1,0c0.1-0.1,0.3-0.2,0.4-0.2c0.4-0.2,0.3-0.1-0.4,0.1c0.4,0,1.2-0.4,1.6-0.5c0.6-0.1,1.1-0.2,1.7-0.4
				c1-0.2-1.1,0.1-0.1,0c0.3,0,0.5-0.1,0.8-0.1c0.5,0,1-0.1,1.5,0c2.4,0.1,4.6-2.1,4.5-4.5C61.1,275.2,59.3,273.2,56.7,273.2
				L56.7,273.2z"/>
		</g>
	</g>
	<g>
		<g>
			<path class="st2" d="M51.2,290.5c-3.6,0.4-7.7,0.7-10.8,2.9c-3.1,2.1-4.1,5.5-4.1,9.1c0,2.8,0.5,5.8,1.7,8.3
				c0.5,1.1,1.5,2,2.2,2.9c2.8,3.2,5.6,6.3,8.4,9.4c1.2,1.3,2.4,2.7,3.7,4c1.7,1.7,3.8,3.1,6,4.3c4.1,2.3,8.4,3.1,13,3.3
				c3.6,0.2,7.4,0.4,11-0.3c2.3-0.4,3.8-3.4,3.1-5.5c-0.8-2.5-3.1-3.6-5.5-3.1c-0.7,0.1,1.3-0.1,0.5-0.1c-0.2,0-0.5,0-0.7,0.1
				c-0.6,0-1.2,0.1-1.8,0.1c-1.6,0-3.2,0-4.8,0c-0.9,0-1.8-0.1-2.6-0.1c-0.4,0-0.9,0-1.3-0.1c-0.1,0-1.5-0.2-0.5,0
				c-0.7-0.1-1.3-0.2-2-0.4c-0.4-0.1-0.8-0.2-1.1-0.3c-0.2-0.1-1.7-0.6-0.8-0.2c-1.3-0.6-2.5-1.3-3.7-2c-0.6-0.4-1.3-0.9-1.9-1.3
				c-1.1-0.8,0.9,0.8,0.4,0.3c-0.1-0.1-0.2-0.2-0.3-0.3c-1-1-1.9-1.9-2.8-2.9c-2.8-3-5.5-6-8.1-9.1c-0.9-1-1.8-2-2.6-3
				c-0.1-0.1-0.2-0.2-0.2-0.3c-0.5-0.5,0.8,1.1,0.5,0.6c-0.4-0.7,0.4,1.3,0,0.1c-0.1-0.4-0.3-0.9-0.4-1.3c-0.1-0.3-0.1-0.5-0.2-0.8
				c0-0.2-0.1-0.4-0.1-0.5c-0.1-0.5-0.1-0.4,0,0.3c0.2-0.5-0.1-1.5-0.1-2.1c0-0.2,0-0.4,0-0.6c0-0.2,0-0.4,0-0.6
				c0.1-0.5,0-0.4-0.1,0.4c0.1-0.2,0.1-0.6,0.2-0.8c0.3-1.2-0.4,0.5,0-0.1c0.4-0.7-0.8,0.8-0.2,0.2c0.4-0.3,0.3-0.3-0.2,0.1
				c0.2-0.1,0.3-0.2,0.5-0.3c0.2-0.1,0.4-0.2,0.6-0.3c-1.1,0.5,0.3-0.1,0.6-0.1c0.8-0.2,1.7-0.4,2.6-0.6c0.4-0.1,0.8-0.1,1.1-0.2
				c-1.1,0.2,0.5-0.1,0.7-0.1c2.3-0.3,4.6-1.9,4.5-4.5C55.6,292.8,53.7,290.2,51.2,290.5L51.2,290.5z"/>
		</g>
	</g>
	<g>
		<g>
			<path class="st2" d="M64.2,304.5c0.1,0,0.1,0,0.2,0c-0.4-0.1-0.8-0.1-1.2-0.2C63.5,304.4,63.8,304.5,64.2,304.5
				c0,0.1,0.3,0.2,0.3,0.2c-0.1,0-1.1-0.5-0.6-0.2c0.1,0.1,0.3,0.2,0.4,0.2c0.3,0.1-0.9-0.8-0.4-0.4c0.2,0.2,0.8,0.9,0.2,0.2
				c-0.6-0.7,0,0.1,0.2,0.3c0.1,0.3,0.3,0.5,0.4,0.8c0.2,0.4-0.4-1-0.2-0.5c0.1,0.2,0.1,0.3,0.2,0.5c0.1,0.3,0.2,0.5,0.3,0.8
				c-0.1-0.4-0.1-0.8-0.2-1.2c0,0.2,0,0.4,0,0.5c0.1-0.4,0.1-0.8,0.2-1.2c0,0.3-0.1,0.5-0.2,0.8c0,0.1-0.1,0.3-0.2,0.4
				c0.4-1.3,0.4-0.9,0.2-0.5c-0.3,0.6-0.7,1.3-1.1,1.8c-0.4,0.6,0.7-0.9,0.3-0.3c-0.1,0.1-0.2,0.3-0.3,0.4c-0.2,0.3-0.5,0.5-0.7,0.7
				c-0.7,0.6,1-0.7,0.1-0.1c-0.2,0.1-0.7,0.3,0.1,0c0.8-0.4,0.3-0.1,0.1-0.1c0.4-0.1,0.8-0.1,1.2-0.2c-1.1,0.1-2.4,0-3.5-0.1
				c0.4,0.1,0.8,0.1,1.2,0.2c-0.3,0-0.6-0.1-1-0.2c-0.2,0-0.3-0.1-0.5-0.1c-0.6-0.2,1.2,0.6,0.7,0.3c-0.2-0.1-0.5-0.2-0.7-0.4
				c-0.1-0.1-0.2-0.2-0.4-0.3c1.3,0.9,0.8,0.6,0.5,0.4c-1.7-1.4-3.4-2.8-5.2-4c-2-1.3-5.1-0.4-6.2,1.6c-1.2,2.3-0.5,4.8,1.6,6.2
				c0.6,0.4,1.3,0.9,1.9,1.3c0.6,0.4-0.4-0.3-0.4-0.3c0.1,0.1,0.3,0.2,0.4,0.3c0.2,0.2,0.4,0.4,0.7,0.6c0.9,0.7,1.7,1.5,2.7,2.1
				c2.2,1.4,5,1.6,7.5,1.6c3.6,0,6-2.4,7.9-5.1c1.7-2.4,2.8-5.4,1.8-8.2c-0.7-1.8-1.5-3.7-3-5.1c-1.8-1.7-3.8-2.3-6.2-2.6
				c-1.1-0.1-2.5,0.6-3.2,1.3c-0.8,0.8-1.4,2.1-1.3,3.2c0.1,1.2,0.4,2.4,1.3,3.2C62,304.1,63,304.4,64.2,304.5L64.2,304.5z"/>
		</g>
	</g>
	<g>
		<g>
			<path class="st2" d="M88.2,347.5c0-5.4-1.8-10.5-2.7-15.7c-0.2-1-1.2-2.2-2.1-2.7c-1-0.6-2.4-0.8-3.5-0.5c-1.1,0.4-2.1,1-2.7,2.1
				c-0.6,1.1-0.7,2.2-0.5,3.5c0.6,3.8,1.8,7.4,2.3,11.2c-0.1-0.4-0.1-0.8-0.2-1.2c0.1,1.1,0.2,2.2,0.2,3.3c0,2.4,2.1,4.6,4.5,4.5
				C86.2,351.9,88.2,350.1,88.2,347.5L88.2,347.5z"/>
		</g>
	</g>
	<g id="cloth" class="st0">
		<polygon class="st4" points="437.2,526 380.2,526 380.2,468 362.2,410 366.2,344 394.2,354 415.2,392 427.2,448 		"/>
		<path class="st4" d="M355.2,526h-127l-4-63l-1.1-4.4c-6.3-9.1-13.2-17.5-14.9-28.6c-1.7-11.2,1-25.9,6-36l5-12l19-49l45,26l62-24
			l21,5l-5,96L355.2,526z"/>
		<polygon class="st4" points="238.2,333 205.2,347 174.2,381 146.2,393 136.2,444.1 187.1,432.1 203.2,424 216.2,389 		"/>
		<polygon class="st4" points="156.2,418 133.2,444 108.2,420 78.2,353 113.2,340 		"/>
	</g>
	<g>
		<g>
			<path class="st2" d="M242.6,218c2.4,0,4.6-2.1,4.5-4.5c-0.1-2.4-2-4.5-4.5-4.5c-2.4,0-4.6,2.1-4.5,4.5
				C238.2,216,240,218,242.6,218L242.6,218z"/>
		</g>
	</g>
</g>
<g id="hair">
	<polygon class="st5" points="310.2,152 228.2,181 265.2,107 310.2,107 	"/>
	<polygon class="st5" points="258.2,313 209.2,336 216.2,277 258.2,277 	"/>
	<g>
		<path class="st6" d="M288.2,102c-5-4-19-15-43-12c-17,2.1-29.2,13.5-38,26c-10.9,15.6-14.2,33.5-15,47c-3,49,0.6,66.8,10,98
			c6,20,15,66,2,83"/>
		<g>
			<path class="st2" d="M291.4,98.8c-6.4-5.1-13.4-9.2-21.4-11.5c-12.8-3.7-27.3-3.1-39.6,2.3c-11.5,5.1-20.6,14.6-27.7,24.9
				c-7.7,11.3-12.2,24.8-14,38.3c-0.9,6.7-1.3,13.5-1.6,20.2c-0.3,6.6-0.5,13.2-0.5,19.8c0,10.8,0.7,21.5,2.2,32.1
				c1.4,9.2,3.5,18.3,6,27.2c2.5,8.9,5.2,17.6,7.1,26.6c1.1,5.2,2,10.4,2.8,15.6c0,0.3,0.1,0.7,0.1,1c-0.1-1.2,0-0.1,0,0.2
				c0.1,0.7,0.2,1.4,0.3,2c0.2,1.5,0.3,3,0.5,4.4c0.3,2.7,0.4,5.4,0.6,8.2c0.2,5.1,0.2,10.3-0.4,15.4c0,0.3-0.1,0.6-0.1,0.9
				c-0.1,1.1,0.2-1.1,0,0c-0.1,0.6-0.2,1.2-0.3,1.7c-0.2,1.1-0.4,2.2-0.7,3.3c-0.3,1.1-0.5,2.1-0.9,3.1c-0.2,0.5-0.3,1-0.5,1.5
				c-0.1,0.2-0.1,0.3-0.2,0.5c-0.4,1.2,0.3-0.6,0,0.1c-0.8,1.7-1.7,3.4-2.8,4.9c-1.4,1.9-0.4,5.1,1.6,6.2c2.4,1.3,4.6,0.4,6.2-1.6
				c5.6-7.4,6.9-17.8,7.2-26.8c0.4-11-0.8-22-2.6-32.8c-1.5-9.1-3.5-18.1-6.1-26.9c-2.7-9.1-5.3-18.2-7.2-27.5
				c-0.5-2.2-0.9-4.4-1.2-6.7c-0.2-1.1-0.4-2.3-0.5-3.4c-0.1-0.5-0.1-1-0.2-1.4c-0.1-1,0.1,1.1,0,0c0-0.4-0.1-0.8-0.1-1.2
				c-0.6-4.9-1-9.9-1.2-14.9c-0.6-12.6-0.2-25.3,0.5-37.9c0.2-3.1,0.4-6.2,0.7-9.4c0.1-0.6,0.1-1.2,0.2-1.8c0-0.4,0.1-0.7,0.1-1.1
				c-0.1,1.2,0-0.1,0-0.3c0.2-1.5,0.5-3,0.7-4.5c0.6-3.1,1.3-6.2,2.2-9.3c0.5-1.6,1-3.2,1.5-4.7c0.2-0.7,0.5-1.3,0.7-2
				c0.2-0.4,0.3-0.8,0.5-1.2c0.1-0.1,0.7-1.7,0.4-0.9c1.4-3.2,3-6.4,4.8-9.4c0.9-1.4,1.8-2.8,2.7-4.2c0.4-0.6,0.9-1.2,1.3-1.8
				c0.2-0.3,0.4-0.6,0.7-0.9c0.1-0.2,0.3-0.4,0.4-0.6c-0.3,0.4-0.3,0.4,0,0c1.8-2.2,3.6-4.4,5.7-6.5c1.1-1.1,2.1-2.1,3.3-3.1
				c0.6-0.5,1.1-1,1.7-1.5c0.2-0.2,0.4-0.3,0.6-0.5c0.2-0.2,0.4-0.3,0.6-0.5c-0.4,0.3-0.4,0.3,0,0c2.4-1.8,5-3.4,7.7-4.8
				c0.7-0.3,1.4-0.7,2.1-1c1.2-0.5-0.9,0.3,0.3-0.1c0.2-0.1,0.5-0.2,0.7-0.3c1.6-0.6,3.2-1.1,4.8-1.5c1.4-0.4,2.9-0.6,4.3-0.9
				c1.3-0.2-1,0.1,0.5-0.1c0.5,0,0.9-0.1,1.4-0.1c1-0.1,2.1-0.2,3.1-0.2c3.1-0.2,6.2-0.1,9.3,0.2c0.4,0,0.8,0.1,1.1,0.1
				c-1.1-0.1,0.1,0,0.3,0c0.7,0.1,1.4,0.2,2.1,0.4c1.3,0.3,2.7,0.6,4,0.9c1.2,0.3,2.5,0.7,3.7,1.2c0.5,0.2,1,0.3,1.4,0.5
				c0.3,0.1,0.6,0.2,0.8,0.3c0.8,0.3-0.9-0.4,0.3,0.1c3.5,1.5,6.8,3.5,9.8,5.7c0.2,0.2,0.5,0.4,0.7,0.5c0.3,0.2,1.4,1.1,0,0
				c0.4,0.4,0.9,0.7,1.3,1c1.8,1.5,4.6,1.9,6.4,0C292.9,103.6,293.4,100.4,291.4,98.8L291.4,98.8z"/>
		</g>
	</g>
	<polygon class="st5" points="373.2,334 327.2,313 324.2,302 352.2,268 370.2,260 	"/>
	<g>
		<path class="st6" d="M291.2,102c18-9.3,25.8-13.4,46-12c14,1,32,13,41,28c9.9,16.5,15,41,11,84c-1,10.7-14,51.8-17,87
			c-2.4,27.9,5,52.4,5,52"/>
		<g>
			<path class="st2" d="M293.5,105.9c2.9-1.5,5.9-3,8.8-4.5c1.2-0.6,2.4-1.2,3.6-1.7c0.6-0.3,1.3-0.6,1.9-0.9
				c0.3-0.1,0.6-0.3,0.9-0.4c-1.1,0.5,0.2-0.1,0.5-0.2c2.3-0.9,4.6-1.7,6.9-2.3c1.2-0.3,2.5-0.6,3.7-0.8c0.5-0.1,1.1-0.2,1.6-0.3
				c0.2,0,1.4-0.2,0.1,0c0.4-0.1,0.9-0.1,1.3-0.2c2.9-0.3,5.7-0.4,8.6-0.3c1.6,0,3.2,0.1,4.9,0.2c0.7,0,1.3,0.1,1.9,0.2
				c0.7,0.1,0.4-0.2-0.1,0c0.3-0.1,1,0.2,1.2,0.2c2.6,0.5,5.2,1.3,7.6,2.2c0.3,0.1,0.6,0.3,1,0.4c-0.1-0.1-0.9-0.4-0.1,0
				c0.7,0.3,1.3,0.6,1.9,0.9c1.3,0.6,2.6,1.3,3.9,2.1c1.3,0.8,2.6,1.6,3.8,2.4c0.5,0.4,1,0.7,1.6,1.1c0.3,0.2,0.6,0.5,0.9,0.7
				c0.4,0.3,0.4,0.3,0,0c0.2,0.2,0.4,0.3,0.6,0.5c2.4,1.9,4.7,4,6.8,6.3c1,1,1.9,2.1,2.8,3.2c0.2,0.3,0.5,0.6,0.7,0.9
				c0.8,1-0.5-0.7,0.2,0.3c0.5,0.6,0.9,1.2,1.3,1.8c1.3,1.8,2.4,3.8,3.5,5.7c0.8,1.6,1.6,3.1,2.3,4.8c0.1,0.2,0.2,0.4,0.3,0.7
				c0.2,0.5,0.5,0.6-0.1-0.2c0.3,0.3,0.4,1,0.5,1.3c0.4,0.9,0.7,1.9,1,2.8c1.4,4,2.5,8.1,3.4,12.2c0.5,2.4,0.9,4.7,1.2,7.1
				c0,0.3,0.1,0.6,0.1,0.9c-0.1-1.2-0.1-0.4,0-0.1c0.1,0.6,0.1,1.2,0.2,1.8c0.2,1.3,0.3,2.7,0.4,4c0.5,5.9,0.7,11.8,0.7,17.8
				c0,6.8-0.4,13.7-0.9,20.5c-0.1,1.8-0.3,3.5-0.5,5.3c0,0.3-0.1,0.5-0.1,0.8c0.1-1.8,0.1-0.6,0-0.2c-0.2,1.5-0.5,3-0.9,4.5
				c-2.1,9.6-4.6,19.1-6.8,28.7c-3,12.7-5.6,25.4-7.5,38.3c-1,7-1.9,14-2.1,21.1c-0.3,6.9,0,13.8,0.7,20.7
				c0.9,8.5,2.1,17.3,4.6,25.5c0.6,2.1,2,4.3,4.6,4c1.8-0.2,4.1-1.3,4.3-3.3c0,0,0,0,0,0c0.3-2.3-0.6-4.9-3.1-5.5
				c-2.1-0.5-5.2,0.7-5.5,3.1c0,0,0,0,0,0c1.4-1.1,2.9-2.2,4.3-3.3c0,0,0,0,0,0c1.3,0.7,2.6,1.5,3.9,2.2c0.7,0.9,0.5,1.4,0.3,0.6
				c-0.1-0.4-0.2-0.7-0.3-1.1c-0.4-1.3-0.7-2.7-1-4c-0.5-2-0.9-4.1-1.3-6.2c-0.2-1.1-0.4-2.3-0.6-3.5c-0.1-0.7-0.2-1.4-0.3-2
				c-0.1-0.4-0.1-0.7-0.2-1.1c0-0.2-0.2-1.8-0.1-0.6c-1.8-13.7-1.7-27.3,0.1-41c0.1-0.4,0.1-0.8,0.2-1.2c0-0.2,0.1-0.9,0-0.1
				c0.1-0.8,0.2-1.7,0.4-2.5c0.3-1.7,0.5-3.5,0.8-5.2c0.5-3.3,1.1-6.5,1.7-9.8c1.2-6.4,2.6-12.9,4.1-19.2
				c2.3-10.1,4.9-20.2,7.2-30.3c2.3-10.2,2.8-20.8,3-31.2c0.3-11.5-0.3-23.1-2.2-34.5c-1.5-8.5-3.9-16.8-7.7-24.6
				c-4.9-10.1-12.4-18.6-21.5-25.2c-4.9-3.6-10.4-6.5-16.1-8.5c-5.7-2-11.7-2.4-17.8-2.4c-5.6,0-11.2,0.6-16.6,2.1
				c-5.4,1.5-10.6,3.9-15.7,6.4c-2.8,1.4-5.7,2.9-8.5,4.3c-2.1,1.1-2.9,4.2-1.6,6.2C288.7,106.4,291.3,107.1,293.5,105.9
				L293.5,105.9z"/>
		</g>
	</g>
</g>
<g id="face">
	<polygon class="st7" points="358.2,237 331.2,271 268.5,195.5 299.3,169.5 	"/>
	<polygon class="st7" points="258,265.8 314.4,226 283.2,160 216.2,190 	"/>
	<g>
		<path class="st8" d="M216.2,190"/>
		<g>
			<path class="st2" d="M216.2,194.5c2.4,0,4.6-2.1,4.5-4.5c-0.1-2.4-2-4.5-4.5-4.5c-2.4,0-4.6,2.1-4.5,4.5
				C211.8,192.5,213.7,194.5,216.2,194.5L216.2,194.5z"/>
		</g>
	</g>
	<g>
		<path class="st8" d="M216.2,188c-0.4,3.6-1,32,1,42c1,4.9,4.9,42.9,24,60c12.8,11.5,29.7,15.5,42,16.8"/>
		<g>
			<path class="st2" d="M211.7,188c-0.3,3.2-0.3,6.4-0.3,9.6c-0.1,5.4-0.1,10.8,0.1,16.2c0.1,5.2,0.4,10.5,1.1,15.7
				c0.3,2.4,0.8,4.7,1.2,7.1c1.5,9.3,3.6,18.6,6.7,27.5c4,11.2,9.6,22.4,18.8,30.2c11,9.2,24.8,14.4,38.9,16.4
				c1.7,0.2,3.4,0.5,5.1,0.6c2.3,0.2,4.6-2.2,4.5-4.5c-0.1-2.6-2-4.2-4.5-4.5c-0.7-0.1-1.3-0.1-2-0.2c-0.2,0-1.2-0.2-0.5-0.1
				c0.7,0.1-0.7-0.1-0.8-0.1c-1.4-0.2-2.9-0.5-4.3-0.7c-3.1-0.6-6.2-1.4-9.3-2.4c-1.6-0.5-3.3-1.1-4.8-1.7c-0.4-0.1-0.7-0.3-1.1-0.4
				c-0.2-0.1-0.4-0.1-0.5-0.2c0.2,0.1,0.8,0.3,0,0c-0.8-0.3-1.6-0.7-2.3-1.1c-3.2-1.5-6.3-3.3-9.2-5.4c-0.4-0.3-0.8-0.6-1.2-0.8
				c-0.4-0.3,0,0,0.1,0.1c-0.2-0.1-0.3-0.3-0.5-0.4c-0.8-0.6-1.5-1.2-2.2-1.9c-1-0.9-1.9-1.8-2.8-2.8c-0.4-0.5-0.9-1-1.3-1.5
				c-0.2-0.3-0.5-0.5-0.7-0.8c-0.3-0.4-0.7-0.8-0.2-0.2c-0.9-1-1.6-2.2-2.3-3.3c-1.6-2.4-2.9-4.9-4.2-7.4c-0.6-1.2-1.2-2.5-1.7-3.8
				c-0.2-0.5-0.4-0.8,0-0.1c-0.2-0.3-0.3-0.7-0.4-1c-0.3-0.7-0.5-1.4-0.8-2.1c-3.4-9-5.7-18.4-7.3-27.9c-0.4-2.4-0.7-4.8-1.2-7.2
				c-0.1-0.8-0.3-1.5-0.4-2.3c0.1,0.4,0.1,1.1,0,0.3c0-0.2-0.1-0.5-0.1-0.7c-0.1-0.6-0.1-1.1-0.2-1.7c-0.2-2.5-0.4-4.9-0.5-7.4
				c-0.4-9.3-0.4-18.6,0.1-27.9c0-0.4,0-0.8,0.1-1.2c0.2-2.4-2.2-4.6-4.5-4.5C213.6,183.6,212,185.5,211.7,188L211.7,188z"/>
		</g>
	</g>
	<g>
		<path class="st8" d="M284.2,307c7.1,0.1,41-6,50-15c17.2-17.2,12.4-29.5,26-57"/>
		<g>
			<path class="st2" d="M284.2,311.5c2.5,0,5.1-0.4,7.6-0.7c3.4-0.5,6.8-1.1,10.2-1.8c7.8-1.6,15.6-3.6,23-6.6
				c3.3-1.3,6.7-2.8,9.6-4.9c3.6-2.6,6.5-6.1,9.2-9.7c4.7-6.3,7.5-13.6,9.7-21.1c1.3-4.5,2.6-9,4-13.4c0.9-2.6,1.8-5.1,2.8-7.7
				c0.1-0.3,0.3-0.6,0.4-0.9c0.1-0.2,0.6-1.5,0.3-0.6c0.3-0.7,0.6-1.3,0.9-1.9c0.7-1.6,1.5-3.3,2.3-4.9c1-2.1,0.6-5-1.6-6.2
				c-2-1.1-5-0.6-6.2,1.6c-4.4,9-7.7,18.4-10.5,28c-1,3.5-2,7-3.3,10.4c-0.3,0.8-0.6,1.5-0.9,2.3c-0.4,0.9,0.4-0.8,0.1-0.2
				c-0.1,0.2-0.2,0.4-0.3,0.6c-0.2,0.5-0.4,0.9-0.6,1.4c-0.8,1.7-1.7,3.3-2.7,4.8c-0.5,0.8-1,1.6-1.6,2.4c-0.3,0.4-0.5,0.8-0.8,1.1
				c0.7-0.8,0.2-0.3,0,0c-0.2,0.3-0.4,0.5-0.6,0.8c-1.4,1.7-2.8,3.3-4.4,4.8c-0.2,0.2-0.5,0.4-0.7,0.6c-0.8,0.7,0.8-0.6,0,0
				c-0.6,0.4-1.3,0.9-1.9,1.3c-1.3,0.8-2.7,1.5-4.2,2.2c-0.4,0.2-0.8,0.4-1.2,0.5c-0.9,0.4,0.8-0.3,0.2-0.1
				c-0.2,0.1-0.4,0.2-0.6,0.3c-0.9,0.4-1.8,0.7-2.7,1c-1.8,0.7-3.7,1.3-5.5,1.8c-3.9,1.2-7.8,2.2-11.7,3c-3.9,0.9-7.8,1.6-11.7,2.2
				c-0.4,0.1-0.7,0.1-1.1,0.2c-0.8,0.1,1-0.1,0.4-0.1c-0.2,0-0.4,0.1-0.6,0.1c-0.7,0.1-1.4,0.2-2.1,0.2c-1,0.1-2.1,0.2-3.1,0.2
				c-2.4,0-4.6,2.1-4.5,4.5C279.8,309.5,281.7,311.5,284.2,311.5L284.2,311.5z"/>
		</g>
	</g>
	<g>
		<path class="st8" d="M216.2,188c2.2-0.6,52-12,63-27c6.6-9,40.6-22.7,57-13c18.2,10.8,20.4,49,26,61c5.5,11.8,22-16.8,32,6
			c7,16,0.4,22.3-6,29c-6.1,6.4-24,18-29-6"/>
		<g>
			<path class="st2" d="M217.4,192.4c6.4-1.8,12.9-3.3,19.3-5.2c11.2-3.4,22.5-7.3,32.8-12.9c4.3-2.3,8.6-5.1,11.9-8.7
				c0.3-0.3,0.6-0.7,0.8-1c0.3-0.4,0.7-0.9,1-1.3c0,0-0.8,1-0.4,0.5c0.1-0.1,0.1-0.2,0.2-0.2c0.6-0.7,1.3-1.4,2.1-2
				c0.2-0.2,0.4-0.3,0.6-0.5c0.5-0.4-0.9,0.7,0,0c0.5-0.4,1-0.7,1.5-1.1c1.1-0.7,2.1-1.4,3.2-2c1.3-0.7,2.5-1.4,3.8-2
				c0.6-0.3,1.2-0.6,1.9-0.9c0.4-0.2,0.7-0.3,1.1-0.5c0.5-0.2-0.4,0.2-0.4,0.2c0.2-0.1,0.5-0.2,0.7-0.3c3-1.2,6-2.2,9.1-3.1
				c1.6-0.4,3.2-0.8,4.9-1.2c0.8-0.2,1.6-0.3,2.4-0.4c0.4-0.1,0.7-0.1,1.1-0.2c0.2,0,0.3,0,0.5-0.1c1.1-0.2-1,0.1,0.1,0
				c3.1-0.3,6.2-0.5,9.3-0.3c0.3,0,0.7,0.1,1,0.1c0.2,0,1.3,0.1,0.5,0.1c-0.8-0.1,0.5,0.1,0.7,0.1c0.4,0.1,0.7,0.1,1.1,0.2
				c1.4,0.3,2.7,0.7,4,1.2c0.7,0.3-0.9-0.4,0,0c0.3,0.1,0.6,0.3,0.8,0.4c0.6,0.3,1.2,0.7,1.8,1c0.3,0.2,0.6,0.4,0.8,0.6
				c0.1,0.1,0.2,0.2,0.3,0.2c0.5,0.3-0.7-0.6-0.3-0.2c0.5,0.4,1,0.9,1.5,1.3c1,0.9,1.9,1.9,2.7,3c0.5,0.6-0.6-0.8,0,0
				c0.2,0.3,0.4,0.5,0.6,0.8c0.4,0.6,0.8,1.2,1.2,1.8c1.6,2.5,2.8,5.1,4,7.7c0.3,0.5-0.3-0.8-0.1-0.3c0.1,0.1,0.1,0.3,0.2,0.4
				c0.2,0.4,0.3,0.7,0.4,1.1c0.3,0.7,0.6,1.5,0.8,2.2c0.5,1.4,1,2.9,1.4,4.3c0.9,3,1.8,6,2.5,9.1c1.4,5.5,2.5,11,3.9,16.4
				c0.5,2.2,1.1,4.3,1.8,6.4c0.8,2.3,1.7,4.6,3.3,6.4c3.6,4,8.9,2.7,13.1,0.8c1.8-0.8,3.6-1.8,5.4-2.7c0.4-0.2,0.9-0.4,1.3-0.6
				c-1.5,0.8,0.1,0,0.6-0.2c0.5-0.2,0.9-0.3,1.4-0.4c0.2-0.1,0.4-0.1,0.7-0.2c0.2,0,1.3-0.2,0.3-0.1c-0.9,0.1-0.1,0,0.2,0
				c0.2,0,0.5,0,0.7,0c0.2,0,0.4,0,0.7,0c0.9,0-1.1-0.3-0.3,0c0.5,0.1,0.9,0.2,1.4,0.4c0.7,0.2-1-0.5-0.3-0.1
				c0.3,0.2,0.5,0.3,0.8,0.5c0.2,0.1,0.9,0.6,0.3,0.1c-0.7-0.5,0.1,0.1,0.2,0.2c0.4,0.4,0.9,1.2,1.4,1.5c-0.5-0.3-0.5-0.7-0.2-0.3
				c0.1,0.2,0.2,0.3,0.3,0.5c0.2,0.3,0.4,0.6,0.6,0.9c0.5,0.8,0.9,1.6,1.3,2.4c0.7,1.4,1.5,3.6,2,5.7c0.2,0.9,0.4,1.7,0.6,2.6
				c0.2,0.9,0,0,0-0.1c0,0.2,0.1,0.5,0.1,0.7c0,0.4,0.1,0.9,0.1,1.3c0,0.8,0,1.5-0.1,2.3c-0.1,1.1,0.2-0.7,0,0.1
				c-0.1,0.4-0.2,0.8-0.3,1.2c-0.2,0.7-0.4,1.3-0.6,1.9c-0.3,0.7,0.5-0.9,0,0c-0.2,0.3-0.3,0.6-0.5,0.9c-0.3,0.6-0.6,1.1-1,1.7
				c-0.2,0.3-0.4,0.6-0.6,0.9c-0.1,0.1-0.2,0.2-0.2,0.3c-0.4,0.6-0.1,0,0.2-0.2c-0.9,0.8-1.7,2-2.6,3c-1.4,1.5-2.8,3-4.4,4.4
				c-0.3,0.3-0.7,0.5-1,0.8c1.3-1.1-0.1,0.1-0.5,0.3c-0.9,0.6-1.8,1.2-2.7,1.7c-0.5,0.3-0.9,0.5-1.4,0.7c-0.2,0.1-0.4,0.2-0.7,0.3
				c-0.8,0.4,1.1-0.4,0,0c-1,0.4-1.9,0.7-2.9,0.9c-0.2,0-0.5,0.1-0.7,0.1c-0.9,0.2,1.2-0.1,0.2,0c-0.5,0-1,0.1-1.5,0.1
				c-0.3,0-0.5,0-0.8,0c-0.9,0,0.5,0.1,0.3,0c-0.5-0.2-1-0.2-1.5-0.4c-0.8-0.2-0.1-0.2,0.3,0.1c-0.2-0.1-0.5-0.2-0.7-0.4
				c-0.2-0.1-0.4-0.2-0.6-0.4c-0.1-0.1-0.2-0.2-0.3-0.2c-0.6-0.4,0.3-0.1,0.3,0.3c0-0.2-0.9-0.9-1.1-1.1c-0.1-0.1-0.5-0.7-0.6-0.7
				c0.1,0,0.7,0.9,0.3,0.3c-0.1-0.1-0.2-0.3-0.3-0.4c-0.4-0.6-0.7-1.2-1-1.8c-0.2-0.3-0.3-0.6-0.5-0.9c-0.3-0.7,0,0.1,0.1,0.2
				c-0.1-0.2-0.2-0.4-0.2-0.6c-0.7-1.7-1.1-3.5-1.5-5.3c-0.5-2.3-3.3-3.9-5.5-3.1c-2.4,0.8-3.7,3.1-3.1,5.5
				c1.3,6.3,4.2,13.5,10.5,16.3c5.2,2.4,10.8,1.4,15.9-0.9c3.9-1.8,7.4-4.5,10.4-7.6c4.2-4.4,8.5-9.1,9.7-15.3c0.8-4,0.5-8-0.6-11.9
				c-1.1-4-2.7-8.3-5.2-11.7c-2-2.7-4.4-4.9-7.7-6c-2.5-0.9-5.3-0.7-7.9-0.1c-2.3,0.5-4.6,1.6-6.7,2.6c-1,0.5-1.9,1-2.8,1.4
				c-0.4,0.2-0.8,0.4-1.2,0.6c-0.2,0.1-0.4,0.2-0.7,0.3c-0.8,0.4-0.1,0,0.2-0.1c-0.8,0.3-1.6,0.5-2.4,0.7c-0.9,0.2,1.1,0,0.5-0.1
				c-0.2,0-0.4,0-0.6,0c-0.2,0-0.9-0.1,0.1,0c1,0.1,0.2,0,0-0.1c-0.7-0.1,0.7,0.4,0.5,0.2c-0.1-0.1-0.3-0.2-0.4-0.2
				c-0.1,0,0.9,0.9,0.4,0.3c-0.2-0.2-0.7-0.8-0.2-0.1c0.6,0.8,0,0-0.1-0.2c-0.1-0.2-0.2-0.4-0.3-0.6c-0.1-0.2-0.2-0.4-0.3-0.6
				c-0.3-0.5,0.5,1.3,0.1,0.2c-1.7-4.4-2.7-9.1-3.8-13.7c-1.4-6-2.8-12-4.5-18c-3.4-11.5-8.7-25-19.9-31.1
				c-5.8-3.1-12.7-3.9-19.2-3.5c-7,0.5-13.9,2-20.5,4.4c-5.8,2.1-11.5,4.6-16.5,8.2c-1.9,1.3-3.8,2.8-5.3,4.6
				c-0.3,0.4-0.7,0.8-1,1.3c-0.4,0.5,0.8-1,0.1-0.2c-0.3,0.4-0.7,0.8-1,1.1c-0.7,0.8-1.5,1.5-2.3,2.2c-0.1,0.1-1,0.8-0.3,0.3
				c0.7-0.5-0.1,0.1-0.3,0.2c-0.5,0.4-1.1,0.8-1.6,1.1c-1.1,0.7-2.1,1.4-3.2,2c-2.4,1.4-4.9,2.7-7.5,3.9c-1.3,0.6-2.8,1.1-4,1.8
				c1.1-0.6,0.1,0-0.2,0.1c-0.4,0.1-0.7,0.3-1.1,0.4c-0.7,0.3-1.4,0.6-2.2,0.9c-2.8,1.1-5.7,2.1-8.6,3.1c-8.6,2.9-17.4,5.4-26.2,7.6
				c-0.7,0.2-1.3,0.3-2,0.5c-2.3,0.6-3.9,3.2-3.1,5.5C212.6,191.5,215,193,217.4,192.4L217.4,192.4z"/>
		</g>
	</g>
	<g>
		<path class="st8" d="M300.2,199.5c1.4-1.5,2.1-1.7,4-2.5c0.1,0,8.6-3.1,16,2.4c0.8,0.6,0.5,0.2,1,1"/>
		<g>
			<path class="st2" d="M302.3,201.6c0.2-0.2,0.4-0.4,0.7-0.6c0.5-0.5-0.4,0.2,0.2-0.1c0.4-0.2,0.7-0.4,1.1-0.6
				c0.2-0.1,0.1-0.1-0.1,0c0.1-0.1,0.3-0.1,0.4-0.2c0.1-0.1,0.3-0.1,0.5-0.2c0.1,0,0.2-0.1,0.2-0.1c0.4-0.1,0.9-0.2,1.3-0.3
				c0.3-0.1,0.6-0.1,0.9-0.2c0.2,0,0.9-0.1,0,0c0.2,0,0.4-0.1,0.7-0.1c0.9-0.1,1.8-0.1,2.8-0.1c0.3,0,0.6,0,0.8,0.1
				c0,0,0.9,0.1,0.3,0c0.6,0.1,1.2,0.2,1.8,0.4c1.3,0.3,1.9,0.6,3,1.2c0.6,0.4,1.2,0.8,1.8,1.2c0.1,0.1,0.3,0.3,0.5,0.3
				c-0.2-0.1-1-1.1-0.6-0.5c0.9,1.3,2.6,1.9,4.1,1.1c1.3-0.8,2-2.8,1.1-4.1c-1.7-2.5-4.9-4-7.7-4.8c-2.5-0.8-5.1-1-7.7-0.8
				c-3.8,0.3-7.6,1.3-10.3,4.2c-1.1,1.2-1.2,3.1,0,4.2C299.2,202.7,301.2,202.8,302.3,201.6L302.3,201.6z"/>
		</g>
	</g>
	<g>
		<path class="st8" d="M311.1,228.6c-1.1,0.5-2.6,0-3.4-1s-0.7-2.5-0.2-3.6c0.5-1,1.3-1.8,2.3-2.1c1-0.3,2.2-0.2,3.1,0.5
			c0.9,0.7,1.4,1.9,1.2,3c-0.2,1.1-1.1,2-2.2,2.2c-1.2,0.2-2.5-0.7-2.5-1.9c0-1.1,1.3-1.9,2.3-1.5c1,0.4,1.4,1.8,0.9,2.7
			c-0.5,0.8-1.6,1.1-2.4,0.7c-0.1,0-0.2-0.1-0.2-0.2c-0.3-0.3,0-0.8,0.3-1c0.3-0.3,0.6-0.5,1-0.7c0.1-0.1,0.3-0.1,0.4-0.1
			c0.1,0,0.2,0.1,0.2,0.3c0.4,0.7,0.3,1.5,0,2.2c-1.6,0.7-3.5,0.5-5-0.4c-0.1-0.1-0.3-0.2-0.4-0.3c-0.1-0.2-0.1-0.4-0.1-0.6
			c0-0.8,0-1.5,0-2.3c0-0.6,0-1.2,0.3-1.7c0.2-0.4,0.7-0.7,1.1-1c1-0.6,2-1.2,3.2-1.4c1.2-0.1,2.4,0.2,3.1,1.2
			c0.4,0.5,0.5,1.2,0.6,1.8c0.1,1,0.2,2-0.2,2.8c-0.3,0.5-0.7,0.9-1.1,1.2c-1.1,0.9-2.5,1.5-3.9,1.8c-0.3,0.1-0.6,0.1-0.9,0
			c-0.6-0.1-1-0.7-1.5-1.1c-0.7-0.5-1.6-0.6-2-1.3c-0.1-0.3-0.1-0.6-0.1-0.9c0-0.6,0-1.2,0-1.7c0-0.5,0-1,0.2-1.5
			c0.1-0.4,0.3-0.7,0.6-1c1-1.3,2.4-2.1,4-2.3s3.3,0.4,4.3,1.6c0.4,0.5,0.7,1,0.9,1.6c0.6,2-0.5,4.5-2.5,5.3"/>
		<g>
			<path class="st2" d="M308.9,224.7c0,0-0.1,0-0.1,0.1c0.4-0.2,0.7-0.3,1.1-0.5c-0.2,0.1-0.3,0.1-0.5,0.1c0.4-0.1,0.8-0.1,1.2-0.2
				c-0.2,0-0.4,0-0.7,0c0.4,0.1,0.8,0.1,1.2,0.2c-0.3,0-0.5-0.1-0.8-0.2c0.4,0.2,0.7,0.3,1.1,0.5c-0.3-0.1-0.5-0.2-0.7-0.4
				c0.3,0.2,0.6,0.5,0.9,0.7c-0.2-0.1-0.3-0.3-0.5-0.5c0.2,0.3,0.5,0.6,0.7,0.9c-0.1-0.2-0.3-0.4-0.4-0.6c0.2,0.4,0.3,0.7,0.5,1.1
				c-0.1-0.3-0.2-0.6-0.2-0.9c0.1,0.4,0.1,0.8,0.2,1.2c0-0.4,0-0.7,0-1.1c-0.1,0.4-0.1,0.8-0.2,1.2c0.1-0.4,0.1-0.7,0.3-1
				c-0.2,0.4-0.3,0.7-0.5,1.1c0.1-0.3,0.3-0.6,0.5-0.9c-0.2,0.3-0.5,0.6-0.7,0.9c0.2-0.3,0.4-0.5,0.7-0.7c-0.3,0.2-0.6,0.5-0.9,0.7
				c0.3-0.2,0.6-0.4,0.9-0.5c-0.4,0.2-0.7,0.3-1.1,0.5c0.3-0.1,0.6-0.2,0.9-0.2c-0.4,0.1-0.8,0.1-1.2,0.2c0.3,0,0.6,0,0.9,0
				c-0.4-0.1-0.8-0.1-1.2-0.2c0.3,0,0.6,0.1,0.9,0.2c-0.4-0.2-0.7-0.3-1.1-0.5c0.2,0.1,0.4,0.2,0.7,0.4c-0.3-0.2-0.6-0.5-0.9-0.7
				c0.2,0.2,0.4,0.4,0.6,0.6c-0.2-0.3-0.5-0.6-0.7-0.9c0.1,0.2,0.3,0.4,0.4,0.6c-0.2-0.4-0.3-0.7-0.5-1.1c0.1,0.3,0.2,0.5,0.2,0.8
				c-0.1-0.4-0.1-0.8-0.2-1.2c0,0.2,0,0.5,0,0.7c0.1-0.4,0.1-0.8,0.2-1.2c0,0.2-0.1,0.5-0.2,0.7c0.2-0.4,0.3-0.7,0.5-1.1
				c-0.1,0.2-0.2,0.4-0.4,0.6c0.2-0.3,0.5-0.6,0.7-0.9c-0.1,0.2-0.3,0.3-0.5,0.5c0.3-0.2,0.6-0.5,0.9-0.7c-0.2,0.2-0.5,0.3-0.7,0.4
				c0.4-0.2,0.7-0.3,1.1-0.5c-0.2,0.1-0.4,0.1-0.5,0.1c0.4-0.1,0.8-0.1,1.2-0.2c-0.2,0-0.4,0-0.6,0c0.4,0.1,0.8,0.1,1.2,0.2
				c-0.2,0-0.4-0.1-0.6-0.2c0.4,0.2,0.7,0.3,1.1,0.5c-0.2-0.1-0.3-0.2-0.4-0.3c0.3,0.2,0.6,0.5,0.9,0.7c-0.2-0.1-0.3-0.3-0.4-0.4
				c0.2,0.3,0.5,0.6,0.7,0.9c-0.1-0.1-0.1-0.2-0.2-0.3c0.2,0.4,0.3,0.7,0.5,1.1c-0.1-0.2-0.1-0.3-0.1-0.5c0.1,0.4,0.1,0.8,0.2,1.2
				c0-0.1,0-0.2,0-0.4c-0.1,0.4-0.1,0.8-0.2,1.2c0-0.1,0.1-0.2,0.1-0.4c-0.2,0.4-0.3,0.7-0.5,1.1c0.1-0.1,0.1-0.2,0.2-0.3
				c-0.2,0.3-0.5,0.6-0.7,0.9c0.1-0.1,0.2-0.3,0.3-0.4c-0.3,0.2-0.6,0.5-0.9,0.7c0.1-0.1,0.3-0.2,0.4-0.3c-0.4,0.2-0.7,0.3-1.1,0.5
				c0.2-0.1,0.3-0.1,0.5-0.1c-0.4,0.1-0.8,0.1-1.2,0.2c0.1,0,0.2,0,0.4,0c-0.4-0.1-0.8-0.1-1.2-0.2c0.1,0,0.2,0,0.4,0.1
				c-0.4-0.2-0.7-0.3-1.1-0.5c0.2,0.1,0.3,0.1,0.4,0.2c-0.3-0.2-0.6-0.5-0.9-0.7c0.1,0.1,0.2,0.2,0.3,0.3c-0.2-0.3-0.5-0.6-0.7-0.9
				c0.1,0.2,0.2,0.3,0.3,0.5c-0.2-0.4-0.3-0.7-0.5-1.1c0.1,0.2,0.1,0.3,0.1,0.5c-0.1-0.4-0.1-0.8-0.2-1.2c0,0.2,0,0.3,0,0.5
				c0.1-0.4,0.1-0.8,0.2-1.2c0,0.2-0.1,0.3-0.1,0.5c0.2-0.4,0.3-0.7,0.5-1.1c-0.1,0.1-0.1,0.2-0.2,0.3c0.2-0.3,0.5-0.6,0.7-0.9
				c-0.1,0.1-0.2,0.3-0.4,0.4c0.3-0.2,0.6-0.5,0.9-0.7c-0.1,0.1-0.3,0.2-0.4,0.3c0.4-0.2,0.7-0.3,1.1-0.5c-0.2,0.1-0.3,0.1-0.5,0.1
				c0.4-0.1,0.8-0.1,1.2-0.2c-0.2,0-0.3,0-0.5,0c0.4,0.1,0.8,0.1,1.2,0.2c-0.2,0-0.3-0.1-0.5-0.1c0.4,0.2,0.7,0.3,1.1,0.5
				c0,0-0.1,0-0.1-0.1c0.3,0.2,0.6,0.5,0.9,0.7c0,0-0.1-0.1-0.1-0.1c0.2,0.3,0.5,0.6,0.7,0.9c0,0,0-0.1-0.1-0.1
				c0.2,0.4,0.3,0.7,0.5,1.1c0,0,0-0.1,0-0.1c0.1,0.4,0.1,0.8,0.2,1.2c0,0,0-0.1,0-0.1c-0.1,0.4-0.1,0.8-0.2,1.2
				c0-0.1,0-0.2,0.1-0.3c-0.2,0.4-0.3,0.7-0.5,1.1c0.1-0.1,0.1-0.2,0.2-0.4c-0.2,0.3-0.5,0.6-0.7,0.9c0.1-0.2,0.3-0.3,0.5-0.4
				c-0.3,0.2-0.6,0.5-0.9,0.7c0.2-0.1,0.4-0.2,0.6-0.3c-0.4,0.2-0.7,0.3-1.1,0.5c0.1,0,0.2-0.1,0.3-0.1c-0.8,0-1.6,0-2.4,0
				c0,0,0.1,0,0.1,0c-0.4-0.2-0.7-0.3-1.1-0.5c0,0,0.1,0,0.1,0.1c-0.3-0.2-0.6-0.5-0.9-0.7c0,0,0.1,0.1,0.1,0.1
				c-0.2-0.3-0.5-0.6-0.7-0.9c0,0.1,0.1,0.2,0.1,0.2c-0.2-0.4-0.3-0.7-0.5-1.1c0.1,0.2,0.1,0.4,0.2,0.6c-0.1-0.4-0.1-0.8-0.2-1.2
				c0,0.2,0,0.4,0,0.6c0.1-0.4,0.1-0.8,0.2-1.2c0,0.2-0.1,0.4-0.1,0.6c0.2-0.4,0.3-0.7,0.5-1.1c0,0.1-0.1,0.2-0.1,0.3
				c0.9-0.7,1.8-1.4,2.7-2.1c-0.4,0.2-0.9,0.3-1.4,0.4c0.4-0.1,0.8-0.1,1.2-0.2c-0.5,0.1-1,0.1-1.6,0c0.4,0.1,0.8,0.1,1.2,0.2
				c-0.5-0.1-0.9-0.2-1.4-0.4c0.4,0.2,0.7,0.3,1.1,0.5c-0.3-0.1-0.6-0.3-0.8-0.5c0.3,0.2,0.6,0.5,0.9,0.7c-0.1-0.1-0.2-0.1-0.2-0.2
				c0.2,0.3,0.5,0.6,0.7,0.9c0,0,0-0.1-0.1-0.1c0.2,0.4,0.3,0.7,0.5,1.1c0,0,0-0.1,0-0.1c0.1,0.4,0.1,0.8,0.2,1.2
				c-0.1-0.6,0-1.2,0-1.8c0-0.6,0-1.2,0-1.8c-0.1,0.4-0.1,0.8-0.2,1.2c0-0.2,0.1-0.4,0.2-0.6c-0.2,0.4-0.3,0.7-0.5,1.1
				c0.1-0.1,0.1-0.3,0.2-0.4c-0.2,0.3-0.5,0.6-0.7,0.9c0.1-0.2,0.3-0.3,0.4-0.4c-0.3,0.2-0.6,0.5-0.9,0.7c0.7-0.5,1.4-0.9,2.2-1.3
				c-0.4,0.2-0.7,0.3-1.1,0.5c0.5-0.2,1-0.4,1.5-0.4c-0.4,0.1-0.8,0.1-1.2,0.2c0.3,0,0.7,0,1,0c-0.4-0.1-0.8-0.1-1.2-0.2
				c0.3,0,0.6,0.1,0.9,0.3c-0.4-0.2-0.7-0.3-1.1-0.5c0.2,0.1,0.4,0.2,0.6,0.3c-0.3-0.2-0.6-0.5-0.9-0.7c0.2,0.1,0.3,0.3,0.5,0.5
				c-0.2-0.3-0.5-0.6-0.7-0.9c0.1,0.2,0.2,0.3,0.3,0.5c-0.2-0.4-0.3-0.7-0.5-1.1c0.2,0.5,0.3,1.1,0.4,1.7c-0.1-0.4-0.1-0.8-0.2-1.2
				c0.1,0.5,0.1,1,0,1.5c0.1-0.4,0.1-0.8,0.2-1.2c0,0.3-0.1,0.5-0.2,0.8c0.2-0.4,0.3-0.7,0.5-1.1c-0.1,0.2-0.2,0.5-0.4,0.7
				c0.2-0.3,0.5-0.6,0.7-0.9c-0.3,0.3-0.6,0.6-0.9,0.8c0.3-0.2,0.6-0.5,0.9-0.7c-0.7,0.5-1.4,0.9-2.2,1.3c0.4-0.2,0.7-0.3,1.1-0.5
				c-0.7,0.3-1.4,0.5-2.1,0.6C308.1,224.9,308.5,224.8,308.9,224.7c-0.1,0.1-0.2,0.1-0.3,0.1c0.4,0.1,0.8,0.1,1.2,0.2
				c-0.1,0-0.2,0-0.3-0.1c0.4,0.2,0.7,0.3,1.1,0.5c-0.2-0.1-0.3-0.2-0.5-0.3c0.3,0.2,0.6,0.5,0.9,0.7c-0.7-0.6-1.3-1.2-2.1-1.6
				c-0.4-0.2-0.9-0.4-1.3-0.7c0.3,0.2,0.6,0.5,0.9,0.7c-0.1-0.1-0.2-0.2-0.3-0.3C308.5,224.2,308.7,224.5,308.9,224.7
				c0,0,0,0-0.1-0.1c0.2,0.4,0.3,0.7,0.5,1.1c-0.1-0.2-0.1-0.3-0.1-0.5c0.1,0.4,0.1,0.8,0.2,1.2c-0.1-1,0-2.1,0-3.1
				c-0.1,0.4-0.1,0.8-0.2,1.2c0-0.3,0.1-0.5,0.2-0.8C309.2,224.1,309.1,224.5,308.9,224.7c0.2-0.2,0.4-0.5,0.6-0.7
				c-0.2,0.3-0.5,0.6-0.7,0.9c0.3-0.4,0.7-0.8,1.1-1.1c-0.3,0.2-0.6,0.5-0.9,0.7c0.5-0.3,0.9-0.6,1.5-0.9c-0.4,0.2-0.7,0.3-1.1,0.5
				c0.4-0.2,0.9-0.3,1.3-0.4c-0.4,0.1-0.8,0.1-1.2,0.2c0.4-0.1,0.9-0.1,1.3,0c-0.4-0.1-0.8-0.1-1.2-0.2c0.4,0.1,0.9,0.2,1.3,0.3
				c-0.4-0.2-0.7-0.3-1.1-0.5c0.4,0.2,0.8,0.4,1.2,0.7c-0.3-0.2-0.6-0.5-0.9-0.7c0.3,0.2,0.5,0.5,0.7,0.7c-0.2-0.3-0.5-0.6-0.7-0.9
				c0.2,0.3,0.4,0.6,0.6,1c-0.2-0.4-0.3-0.7-0.5-1.1c0.1,0.4,0.3,0.7,0.3,1.1c-0.1-0.4-0.1-0.8-0.2-1.2c0,0.4,0,0.7,0,1.1
				c0.1-0.4,0.1-0.8,0.2-1.2c-0.1,0.4-0.2,0.9-0.4,1.3c0.2-0.4,0.3-0.7,0.5-1.1c-0.2,0.4-0.4,0.7-0.6,1c0.2-0.3,0.5-0.6,0.7-0.9
				c-0.2,0.3-0.5,0.5-0.8,0.7c0.3-0.2,0.6-0.5,0.9-0.7c-0.3,0.2-0.5,0.3-0.8,0.5c0.4-0.2,0.7-0.3,1.1-0.5c0,0-0.1,0-0.1,0.1
				c-0.6,0.1-1.1,0.4-1.5,0.8c-0.5,0.3-0.9,0.7-1.2,1.3c-0.6,1-0.8,2.4-0.5,3.5c0.4,1.1,1,2.1,2.1,2.7c1,0.5,2.4,0.9,3.5,0.5
				c0.7-0.3,1.4-0.5,2-1c1-0.7,1.6-1.3,2.4-2.4c0.7-0.9,1.2-2.1,1.4-3.3c0.3-1.6,0.3-3.2-0.3-4.7c-0.5-1.2-0.9-2-1.7-3
				c-0.5-0.6-1.2-1.2-1.9-1.6c-2.6-1.8-6.1-1.9-8.9-0.7c-1.3,0.6-2.6,1.3-3.6,2.4c-0.6,0.6-1.1,1.3-1.5,2c-0.6,1.2-0.8,2.2-0.9,3.5
				c-0.1,1.9-0.2,4,0.7,5.6c0.5,1,1.4,1.8,2.4,2.3c0.4,0.2,0.9,0.4,1.3,0.7c-0.3-0.2-0.6-0.5-0.9-0.7c1.1,0.9,2,1.9,3.4,2.2
				c1.5,0.3,3,0.1,4.4-0.4c1.1-0.4,2.1-0.8,3.1-1.4c0.9-0.6,1.8-1.2,2.5-2c0.7-0.9,1.2-1.6,1.5-2.7c0.2-0.7,0.3-1.5,0.4-2.2
				c0.1-1.1-0.1-2.2-0.4-3.3c-0.3-1.3-1-2.7-2-3.6c-0.9-0.9-2.2-1.6-3.5-1.9c-2.6-0.6-5.2,0.1-7.5,1.5c-1.2,0.7-2.3,1.6-3.1,2.8
				c-0.8,1.3-1,2.8-1,4.2c0,1,0,2.1,0.1,3.1c0.2,1.4,0.9,2.6,2,3.4c0.8,0.6,1.4,0.9,2.4,1.3c1,0.4,2.1,0.6,3.2,0.6
				c0.7,0,1.4-0.1,2.1-0.2c0.4-0.1,0.8-0.2,1.1-0.3c0.8-0.3,1.6-0.6,2.2-1.2c0.3-0.4,0.6-0.8,0.8-1.2c0.5-1,0.8-1.9,0.8-3.1
				c0-2-0.9-4.3-2.7-5.3c-1.6-0.8-3.4-0.7-4.9,0.1c-0.6,0.3-1.2,0.8-1.7,1.3c-1.8,1.6-2.4,4.4-1.1,6.6c2,3.3,7.1,3.3,9.6,0.6
				c1.1-1.2,1.8-2.8,1.7-4.4c-0.1-1.7-0.7-3.3-1.9-4.4c-2.4-2.4-6.6-2.3-8.9,0.2c-1.4,1.5-2,3.6-1.5,5.6c0.3,1.4,1.2,2.6,2.4,3.5
				c2.2,1.7,5.6,2,7.9,0.2c0.9-0.7,1.4-1.2,2.1-2.1c0.4-0.6,0.7-1.2,0.9-1.9c0.2-0.6,0.3-1.3,0.3-2c0-0.7-0.1-1.5-0.3-2.1
				c-0.4-1.3-1.1-2.6-2.1-3.5c-1-0.9-2.3-1.6-3.6-1.9c-0.7-0.1-1.4-0.2-2.1-0.2c-1,0.1-1.7,0.2-2.6,0.6c-1.1,0.5-2.2,1.1-2.9,2.1
				c-0.9,1.1-1.6,2.2-2,3.6c-0.4,1.4-0.4,2.8,0,4.2c0.3,1.3,1.1,2.7,2,3.5c1,0.9,2.2,1.7,3.5,1.9c0.6,0.1,1.3,0.2,1.9,0.2
				c1.3-0.1,1.8-0.3,3-0.8c1-0.4,1.8-1.7,2.1-2.7c0.3-1.1,0.2-2.5-0.5-3.5c-0.6-1-1.5-1.8-2.7-2.1c-0.4-0.1-0.8-0.1-1.2-0.2
				C310.3,224.1,309.6,224.3,308.9,224.7L308.9,224.7z"/>
		</g>
	</g>
	<g>
		<path class="st8" d="M239.6,201.5c5.5-4.6,12.5-5.2,17.6-0.1"/>
		<g>
			<path class="st2" d="M241.8,203.6C241.9,203.5,242.1,203.3,241.8,203.6c0.2-0.2,0.4-0.3,0.5-0.4c0.3-0.2,0.7-0.5,1.1-0.7
				c0.3-0.2,0.6-0.4,1-0.5c0.2-0.1,0.4-0.2,0.6-0.3c0.2-0.1,0.3-0.1,0,0c0.7-0.3,1.4-0.5,2.1-0.7c0.2,0,0.3-0.1,0.5-0.1
				c0.1,0,0.6-0.1,0.2,0c-0.4,0.1,0.2,0,0.2,0c0.2,0,0.4,0,0.6,0c0.3,0,0.7,0,1,0c0.2,0,0.3,0,0.5,0c0.3,0,0.2,0.1-0.1,0
				c0.7,0.2,1.4,0.4,2.1,0.6c0.4,0.1-0.6-0.3,0.1,0c0.2,0.1,0.3,0.1,0.5,0.2c0.3,0.2,0.6,0.3,0.9,0.5c0.2,0.1,0.3,0.2,0.4,0.3
				c0.4,0.3-0.1-0.1,0.2,0.1c0.3,0.3,0.6,0.6,1,0.9c1.1,1.1,3.1,1.2,4.2,0c1.1-1.2,1.2-3.1,0-4.2c-2.9-2.8-6.7-4.6-10.8-4.4
				c-4.2,0.1-7.9,2-11.1,4.6c-1.2,1-1.1,3.2,0,4.2C238.8,204.8,240.5,204.7,241.8,203.6L241.8,203.6z"/>
		</g>
	</g>
	<g>
		<path class="st8" d="M250.3,227c-1.6-0.3-3.2-0.5-4.5-1.4c-1.3-0.9-2.2-2.6-1.7-4.1c0.6-1.7,2.5-2.4,4.3-2.6
			c1.5-0.2,3.3,0.1,4.1,1.4c0.4,0.6,0.4,1.4,0.4,2.2c-0.1,1.5-0.7,3-1.8,3.9c-1.1,1-2.8,1.4-4.1,0.7c-1.8-0.9-2.4-3.7-0.9-5.2
			c1.4-1.5,4.3-1,5.2,0.8c0.7,1.5,0.1,3.5-1.4,4.1c-1.5,0.6-3.5-0.6-3.5-2.2c0-1.6,2.3-2.8,3.5-1.7c0.6,1.1-0.1,2.6-1.3,2.9
			c-0.3-0.7-0.6-1.5-0.5-2.2c0.1-0.7,0.9-1.4,1.6-1.2c0.3,0.1,0.5,0.3,0.6,0.5c0.9,1.3-0.4,3.4-1.9,3.4s-2.9-1.6-2.8-3.1
			s1.4-2.9,3-3.3c1.7-0.4,3.9,0.5,4,2.3"/>
		<g>
			<path class="st2" d="M251.4,222.7c-1.2-0.2-2.3-0.4-3.4-0.8c0.4,0.2,0.7,0.3,1.1,0.5c-0.5-0.2-0.9-0.4-1.4-0.8
				c0.3,0.2,0.6,0.5,0.9,0.7c-0.3-0.2-0.6-0.5-0.8-0.8c0.2,0.3,0.5,0.6,0.7,0.9c-0.2-0.3-0.4-0.6-0.6-1c0.2,0.4,0.3,0.7,0.5,1.1
				c-0.1-0.3-0.2-0.5-0.2-0.8c0.1,0.4,0.1,0.8,0.2,1.2c0-0.3,0-0.6,0-0.9c-0.1,0.4-0.1,0.8-0.2,1.2c0-0.2,0.1-0.5,0.2-0.7
				c-0.2,0.4-0.3,0.7-0.5,1.1c0.1-0.2,0.2-0.4,0.3-0.6c-0.2,0.3-0.5,0.6-0.7,0.9c0.2-0.2,0.4-0.4,0.6-0.6c-0.3,0.2-0.6,0.5-0.9,0.7
				c0.3-0.3,0.7-0.5,1.1-0.6c-0.4,0.2-0.7,0.3-1.1,0.5c0.6-0.2,1.2-0.4,1.9-0.5c-0.4,0.1-0.8,0.1-1.2,0.2c0.6-0.1,1.3-0.1,1.9,0
				c-0.4-0.1-0.8-0.1-1.2-0.2c0.4,0.1,0.8,0.1,1.1,0.3c-0.4-0.2-0.7-0.3-1.1-0.5c0.2,0.1,0.5,0.2,0.7,0.4c-0.3-0.2-0.6-0.5-0.9-0.7
				c0.1,0.1,0.3,0.2,0.4,0.4c-0.2-0.3-0.5-0.6-0.7-0.9c0.1,0.2,0.2,0.3,0.3,0.5c-0.2-0.4-0.3-0.7-0.5-1.1c0.1,0.3,0.2,0.6,0.2,0.9
				c-0.1-0.4-0.1-0.8-0.2-1.2c0,0.4,0,0.9,0,1.3c0.1-0.4,0.1-0.8,0.2-1.2c-0.1,0.6-0.2,1.2-0.5,1.8c0.2-0.4,0.3-0.7,0.5-1.1
				c-0.2,0.4-0.4,0.8-0.7,1.2c0.2-0.3,0.5-0.6,0.7-0.9c-0.3,0.3-0.5,0.6-0.9,0.9c0.3-0.2,0.6-0.5,0.9-0.7c-0.3,0.2-0.6,0.4-0.9,0.5
				c0.4-0.2,0.7-0.3,1.1-0.5c-0.4,0.2-0.7,0.3-1.1,0.3c0.4-0.1,0.8-0.1,1.2-0.2c-0.3,0-0.6,0-0.9,0c0.4,0.1,0.8,0.1,1.2,0.2
				c-0.3,0-0.6-0.1-0.9-0.2c0.4,0.2,0.7,0.3,1.1,0.5c-0.2-0.1-0.4-0.2-0.6-0.4c0.3,0.2,0.6,0.5,0.9,0.7c-0.2-0.2-0.3-0.3-0.5-0.5
				c0.2,0.3,0.5,0.6,0.7,0.9c-0.2-0.2-0.3-0.5-0.5-0.8c0.2,0.4,0.3,0.7,0.5,1.1c-0.1-0.3-0.2-0.6-0.2-0.9c0.1,0.4,0.1,0.8,0.2,1.2
				c0-0.3,0-0.6,0-0.9c-0.1,0.4-0.1,0.8-0.2,1.2c0-0.3,0.1-0.6,0.2-0.9c-0.2,0.4-0.3,0.7-0.5,1.1c0.1-0.2,0.2-0.4,0.4-0.6
				c-0.2,0.3-0.5,0.6-0.7,0.9c0.2-0.2,0.3-0.4,0.5-0.5c-0.3,0.2-0.6,0.5-0.9,0.7c0.2-0.1,0.4-0.3,0.6-0.4c-0.4,0.2-0.7,0.3-1.1,0.5
				c0.3-0.1,0.6-0.2,0.9-0.2c-0.4,0.1-0.8,0.1-1.2,0.2c0.3,0,0.6,0,0.9,0c-0.4-0.1-0.8-0.1-1.2-0.2c0.3,0,0.6,0.1,0.9,0.2
				c-0.4-0.2-0.7-0.3-1.1-0.5c0.3,0.1,0.5,0.3,0.8,0.5c-0.3-0.2-0.6-0.5-0.9-0.7c0.2,0.2,0.4,0.3,0.5,0.5c-0.2-0.3-0.5-0.6-0.7-0.9
				c0.1,0.2,0.3,0.4,0.4,0.6c-0.2-0.4-0.3-0.7-0.5-1.1c0.1,0.2,0.2,0.5,0.2,0.7c-0.1-0.4-0.1-0.8-0.2-1.2c0,0.3,0,0.6,0,0.9
				c0.1-0.4,0.1-0.8,0.2-1.2c0,0.3-0.1,0.6-0.2,0.8c0.2-0.4,0.3-0.7,0.5-1.1c-0.1,0.2-0.2,0.4-0.4,0.6c0.2-0.3,0.5-0.6,0.7-0.9
				c-0.2,0.2-0.3,0.4-0.5,0.5c0.3-0.2,0.6-0.5,0.9-0.7c-0.2,0.1-0.4,0.2-0.6,0.3c0.4-0.2,0.7-0.3,1.1-0.5c-0.2,0.1-0.3,0.1-0.5,0.1
				c0.4-0.1,0.8-0.1,1.2-0.2c-0.2,0-0.4,0-0.6,0c0.4,0.1,0.8,0.1,1.2,0.2c-0.3,0-0.5-0.1-0.7-0.2c0.4,0.2,0.7,0.3,1.1,0.5
				c-0.2-0.1-0.4-0.2-0.7-0.4c0.3,0.2,0.6,0.5,0.9,0.7c-0.2-0.1-0.3-0.3-0.5-0.4c0.2,0.3,0.5,0.6,0.7,0.9c-0.1-0.2-0.2-0.3-0.3-0.5
				c0.2,0.4,0.3,0.7,0.5,1.1c-0.1-0.2-0.1-0.3-0.1-0.5c0.1,0.4,0.1,0.8,0.2,1.2c0-0.2,0-0.3,0-0.5c-0.1,0.4-0.1,0.8-0.2,1.2
				c0-0.2,0.1-0.3,0.1-0.5c-0.2,0.4-0.3,0.7-0.5,1.1c0.1-0.2,0.2-0.3,0.3-0.5c-0.2,0.3-0.5,0.6-0.7,0.9c0.1-0.2,0.3-0.3,0.4-0.4
				c-0.3,0.2-0.6,0.5-0.9,0.7c0.2-0.1,0.4-0.3,0.6-0.3c-0.4,0.2-0.7,0.3-1.1,0.5c0.2-0.1,0.4-0.1,0.7-0.2c-0.4,0.1-0.8,0.1-1.2,0.2
				c0.2,0,0.4,0,0.6,0c-0.4-0.1-0.8-0.1-1.2-0.2c0.2,0,0.3,0.1,0.5,0.1c-0.4-0.2-0.7-0.3-1.1-0.5c0.1,0.1,0.2,0.1,0.3,0.2
				c-0.3-0.2-0.6-0.5-0.9-0.7c0,0,0.1,0,0.1,0.1c-0.2-0.3-0.5-0.6-0.7-0.9c0,0.1,0.1,0.1,0.1,0.2c-0.2-0.4-0.3-0.7-0.5-1.1
				c0,0.1,0.1,0.3,0.1,0.4c-0.1-0.4-0.1-0.8-0.2-1.2c0,0.2,0,0.3,0,0.5c0.1-0.4,0.1-0.8,0.2-1.2c0,0.2-0.1,0.3-0.1,0.5
				c0.2-0.4,0.3-0.7,0.5-1.1c-0.1,0.2-0.2,0.4-0.3,0.6c0.2-0.3,0.5-0.6,0.7-0.9c-0.1,0.1-0.2,0.3-0.4,0.4c0.3-0.2,0.6-0.5,0.9-0.7
				c-0.1,0.1-0.2,0.1-0.4,0.2c0.4-0.2,0.7-0.3,1.1-0.5c-0.1,0-0.2,0.1-0.3,0.1c1.8,1,3.7,2.1,5.5,3.1c-0.2-0.5-0.4-0.9-0.5-1.4
				c0.1,0.4,0.1,0.8,0.2,1.2c0-0.2,0-0.4,0-0.6c-0.1,0.4-0.1,0.8-0.2,1.2c0-0.2,0.1-0.3,0.1-0.5c-0.2,0.4-0.3,0.7-0.5,1.1
				c0.1-0.1,0.1-0.2,0.2-0.3c-0.2,0.3-0.5,0.6-0.7,0.9c0.1-0.1,0.2-0.2,0.3-0.3c-0.3,0.2-0.6,0.5-0.9,0.7c0.1-0.1,0.2-0.1,0.3-0.2
				c-0.4,0.2-0.7,0.3-1.1,0.5c0.1,0,0.2-0.1,0.3-0.1c-0.4,0.1-0.8,0.1-1.2,0.2c0.1,0,0.2,0,0.2,0c-0.4-0.1-0.8-0.1-1.2-0.2
				c0.1,0,0.2,0,0.2,0.1c-0.4-0.2-0.7-0.3-1.1-0.5c0.1,0.1,0.2,0.1,0.3,0.2c-0.3-0.2-0.6-0.5-0.9-0.7c0.1,0.1,0.2,0.2,0.3,0.3
				c-0.2-0.3-0.5-0.6-0.7-0.9c0.1,0.1,0.2,0.2,0.2,0.4c-0.2-0.4-0.3-0.7-0.5-1.1c0.1,0.2,0.1,0.3,0.1,0.5c-0.1-0.4-0.1-0.8-0.2-1.2
				c0,0.2,0,0.3,0,0.5c0.1-0.4,0.1-0.8,0.2-1.2c0,0.2-0.1,0.4-0.2,0.6c0.2-0.4,0.3-0.7,0.5-1.1c-0.1,0.2-0.2,0.4-0.4,0.6
				c0.2-0.3,0.5-0.6,0.7-0.9c-0.1,0.2-0.3,0.3-0.4,0.4c0.3-0.2,0.6-0.5,0.9-0.7c-0.2,0.1-0.3,0.2-0.5,0.3c0.4-0.2,0.7-0.3,1.1-0.5
				c-0.2,0.1-0.3,0.1-0.5,0.1c0.4-0.1,0.8-0.1,1.2-0.2c-0.2,0-0.4,0-0.6,0c0.4,0.1,0.8,0.1,1.2,0.2c-0.2,0-0.4-0.1-0.7-0.2
				c0.4,0.2,0.7,0.3,1.1,0.5c-0.2-0.1-0.4-0.2-0.6-0.4c0.3,0.2,0.6,0.5,0.9,0.7c-0.2-0.2-0.4-0.4-0.6-0.6c0.2,0.3,0.5,0.6,0.7,0.9
				c-0.2-0.2-0.3-0.5-0.4-0.7c0.2,0.4,0.3,0.7,0.5,1.1c-0.1-0.2-0.1-0.4-0.2-0.7c0.1,0.4,0.1,0.8,0.2,1.2c0-0.3,0-0.6,0-0.8
				c-0.1,0.4-0.1,0.8-0.2,1.2c0-0.3,0.1-0.5,0.2-0.8c-0.2,0.4-0.3,0.7-0.5,1.1c0.1-0.3,0.3-0.6,0.5-0.8c-0.2,0.3-0.5,0.6-0.7,0.9
				c0.2-0.3,0.4-0.5,0.7-0.7c-0.3,0.2-0.6,0.5-0.9,0.7c0.3-0.2,0.6-0.4,0.9-0.6c-0.4,0.2-0.7,0.3-1.1,0.5c0.3-0.1,0.6-0.2,0.9-0.3
				c-0.4,0.1-0.8,0.1-1.2,0.2c0.3,0,0.7,0,1,0c-0.4-0.1-0.8-0.1-1.2-0.2c0.4,0.1,0.7,0.1,1,0.3c-0.4-0.2-0.7-0.3-1.1-0.5
				c0.3,0.1,0.5,0.3,0.7,0.4c-0.3-0.2-0.6-0.5-0.9-0.7c0.2,0.1,0.3,0.3,0.4,0.4c-0.2-0.3-0.5-0.6-0.7-0.9c0.1,0.2,0.2,0.3,0.3,0.5
				c-0.2-0.4-0.3-0.7-0.5-1.1c0.1,0.2,0.1,0.3,0.1,0.5c-0.1-0.4-0.1-0.8-0.2-1.2c0,0.1,0,0.1,0,0.2c0.1,1.2,0.4,2.3,1.3,3.2
				c0.8,0.8,2.1,1.4,3.2,1.3c1.2-0.1,2.4-0.4,3.2-1.3c0.8-0.8,1.4-2,1.3-3.2c-0.1-1.2-0.3-2.2-0.9-3.2c-0.6-1-1.4-1.7-2.4-2.4
				c-1.2-0.8-3.1-1.3-4.5-1.2c-2.1,0.1-3.9,0.9-5.4,2.2c-0.6,0.5-1.2,1.2-1.6,1.9c-0.7,1.1-0.9,2.2-1.1,3.5c-0.2,2,0.7,4,2,5.5
				c0.5,0.6,1.2,1.1,1.9,1.5c0.5,0.3,1.1,0.5,1.6,0.6c0.6,0.1,1.2,0.2,1.8,0.2c2.4-0.1,4.4-1.3,5.7-3.3c1-1.5,1.4-3.8,0.7-5.5
				c-0.6-1.8-2-3.5-3.9-4c-1.5-0.4-3.2-0.2-4.5,0.7c-0.9,0.6-1.4,1.2-2,2.1c-0.5,0.9-0.8,1.9-0.8,2.9c-0.1,1.1,0.2,2.2,0.6,3.2
				c0.1,0.6,0.4,1.1,0.8,1.5c0.3,0.5,0.7,0.9,1.3,1.2c1.1,0.6,2.3,0.7,3.5,0.5c1.4-0.3,2.5-1.2,3.4-2.3c0.9-1.2,1.3-2.4,1.4-3.9
				c0-0.6-0.1-1.2-0.2-1.8c-0.4-1.4-1.2-2.4-2.3-3.1c-0.9-0.6-2.2-1-3.4-1c-2.4,0-4.7,1.3-5.9,3.4c-0.3,0.5-0.5,1.1-0.7,1.6
				c-0.2,0.6-0.3,1.2-0.2,1.8c0.1,1.5,0.6,2.7,1.4,3.9c1.4,1.8,3.7,3,6,2.8c1-0.1,1.5-0.2,2.3-0.5c0.8-0.3,1.3-0.7,2-1.2
				c0.7-0.5,1.2-1.3,1.6-2.1c0.5-1.2,0.9-2.3,0.9-3.6c0-1.3-0.3-2.4-0.9-3.6c-0.6-1.1-1.5-1.9-2.4-2.6c-0.7-0.5-1.5-0.8-2.3-1
				c-2-0.5-4.2-0.3-6.1,0.8c-1,0.6-1.9,1.5-2.6,2.5c-0.6,0.9-0.8,1.9-1,2.9c-0.1,1.1-0.1,2.1,0.2,3.1c0.1,0.6,0.4,1.1,0.7,1.7
				c0.1,0.2,0.2,0.5,0.4,0.7c0.7,1,1.5,1.9,2.6,2.4c1.2,0.6,2.5,1,3.8,1c2.3,0,4.7-1,6.2-2.7c0.7-0.7,1.3-1.6,1.7-2.5
				c0.3-0.6,0.5-1.2,0.7-1.9c0.2-0.7,0.3-1.4,0.4-2.2c0-0.3,0.1-0.7,0-1c0-0.7-0.1-1.5-0.3-2.1c-0.2-0.6-0.4-1.3-0.8-1.8
				c-0.6-0.9-1.2-1.4-2-2.1c-0.2-0.2-0.4-0.3-0.7-0.4c-0.6-0.3-1.2-0.5-1.8-0.7c-0.9-0.2-1.9-0.3-2.8-0.3c-1.9,0.1-3.7,0.5-5.4,1.4
				c-1.8,1-3.4,2.9-3.8,5c-0.1,0.6-0.2,1.3-0.2,1.9c0.1,0.7,0.1,1.4,0.4,2c0.5,1.3,1.1,2.3,2,3.3c0.3,0.4,0.7,0.6,1.1,0.9
				c0.4,0.3,0.8,0.6,1.3,0.9c0.9,0.5,1.9,0.9,2.9,1.1c0.7,0.2,1.4,0.3,2.1,0.4c0.6,0.2,1.2,0.2,1.8,0.1c0.6,0,1.2-0.2,1.7-0.5
				c0.9-0.5,1.8-1.6,2.1-2.7c0.3-1.2,0.2-2.4-0.5-3.5C253.5,223.8,252.6,222.8,251.4,222.7L251.4,222.7z"/>
		</g>
	</g>
	<g>
		<path class="st8" d="M278.4,251.5c-0.2,0.3-0.3,0.7-0.3,1c0-0.1,0.2-0.1,0.4-0.2"/>
		<g>
			<path class="st2" d="M274.5,249.3c-0.1,0.1-0.1,0.2-0.1,0.3c-0.2,0.4-0.3,0.8-0.5,1.2c0,0,0,0.1,0,0.1c0,0,0,0.1,0,0.1
				c-0.1,0.4-0.1,0.9-0.2,1.3c0,0.1,0,0.2,0,0.3c0.1,0.4,0.1,0.8,0.2,1.2c0.1,0.6,0.4,1.1,0.8,1.5c0.2,0.3,0.5,0.6,0.8,0.8
				c0.4,0.4,0.9,0.7,1.5,0.8c0.4,0.1,0.8,0.1,1.2,0.2c0.4-0.1,0.8-0.1,1.2-0.2c0.6-0.1,1.1-0.4,1.5-0.8c0.5-0.3,0.9-0.7,1.2-1.3
				c0,0,0,0,0,0c-0.2,0.3-0.5,0.6-0.7,0.9c0,0,0,0,0.1-0.1c-0.3,0.2-0.6,0.5-0.9,0.7c0,0,0.1-0.1,0.2-0.1c-0.4,0.2-0.7,0.3-1.1,0.5
				c0,0,0.1,0,0.1-0.1c0.6-0.1,1.1-0.4,1.5-0.8c0.5-0.3,0.9-0.7,1.2-1.3c0.3-0.5,0.5-1.1,0.5-1.7c0.1-0.6,0.1-1.2-0.1-1.8
				c-0.2-0.4-0.3-0.7-0.5-1.1c-0.4-0.7-0.9-1.2-1.6-1.6c-0.4-0.2-0.7-0.3-1.1-0.5c-0.8-0.2-1.6-0.2-2.4,0c0,0-0.1,0-0.1,0
				c-0.3,0.1-0.8,0.3-1.1,0.5c0,0,0,0,0,0c0,0,0,0-0.1,0c0,0,0,0,0,0c0,0,0,0,0,0c-0.3,0.2-0.6,0.5-0.9,0.7c0,0,0,0,0,0c0,0,0,0,0,0
				c-0.1,0.1-0.6,0.8-0.4,0.5c0,0-0.3,0.3-0.4,0.5c2.8,0.8,5.6,1.5,8.4,2.3c0-0.1,0-0.2,0-0.3c-0.1,0.4-0.1,0.8-0.2,1.2
				c0-0.1,0.1-0.2,0.1-0.4c-0.2,0.4-0.3,0.7-0.5,1.1c0-0.1,0.1-0.2,0.2-0.3c0.3-0.5,0.5-1.1,0.5-1.7c0.1-0.6,0.1-1.2-0.1-1.8
				c-0.1-0.6-0.4-1.1-0.8-1.5c-0.3-0.5-0.7-0.9-1.3-1.2c-0.4-0.2-0.7-0.3-1.1-0.5c-0.8-0.2-1.6-0.2-2.4,0c-0.4,0.2-0.7,0.3-1.1,0.5
				C275.4,248,274.9,248.6,274.5,249.3L274.5,249.3z"/>
		</g>
	</g>
	<g>
		<path class="st8" d="M272.3,273.5c0.4,0.2,0.9,0.4,1.3,0.6c2.6,0.9,5.6,0.8,8.3,0.1c1.8-0.4,3.6-1.1,5.2-2"/>
		<g>
			<path class="st2" d="M270.1,277.4c6.1,3.2,13.5,1.8,19.3-1.3c2.1-1.1,2.9-4.2,1.6-6.2c-1.4-2.1-3.9-2.8-6.2-1.6
				c-0.6,0.3-1.1,0.5-1.7,0.8c0.4-0.2,0.7-0.3,1.1-0.5c-1.7,0.7-3.5,1.2-5.4,1.5c0.4-0.1,0.8-0.1,1.2-0.2c-1.4,0.2-2.7,0.2-4.1,0.1
				c0.4,0.1,0.8,0.1,1.2,0.2c-1-0.1-2.1-0.4-3-0.8c0.4,0.2,0.7,0.3,1.1,0.5c-0.2-0.1-0.4-0.2-0.6-0.3c-2.1-1.1-5-0.6-6.2,1.6
				C267.4,273.3,267.9,276.2,270.1,277.4L270.1,277.4z"/>
		</g>
	</g>
	<g>
		<path class="st8" d="M244.6,218.7c0.3,0.7,0.4,1.4,0.3,2.1"/>
		<g>
			<path class="st2" d="M240.7,221c0,0.1,0.1,0.1,0.1,0.2c-0.2-0.4-0.3-0.7-0.5-1.1c0.1,0.3,0.2,0.6,0.3,1c-0.1-0.4-0.1-0.8-0.2-1.2
				c0,0.3,0,0.6,0,1c0,0.6,0.1,1.2,0.4,1.7c0.2,0.6,0.5,1,0.9,1.4c0.4,0.4,0.9,0.7,1.4,0.9c0.5,0.3,1.1,0.4,1.7,0.4
				c0.4-0.1,0.8-0.1,1.2-0.2c0.8-0.2,1.4-0.6,2-1.2c0.2-0.3,0.5-0.6,0.7-0.9c0.4-0.7,0.6-1.5,0.6-2.3c0-0.2,0-0.4,0-0.6
				c0-0.6-0.1-1.2-0.2-1.7c0-0.2-0.1-0.4-0.1-0.5c-0.2-0.5-0.4-1.1-0.6-1.6c-0.3-0.5-0.7-0.9-1.2-1.3c-0.4-0.4-0.9-0.7-1.5-0.8
				c-0.6-0.2-1.2-0.2-1.8-0.1c-0.6,0-1.2,0.2-1.7,0.5c-0.3,0.2-0.6,0.5-0.9,0.7c-0.6,0.6-0.9,1.2-1.2,2c-0.1,0.4-0.1,0.8-0.2,1.2
				C240.1,219.5,240.3,220.3,240.7,221L240.7,221z"/>
		</g>
	</g>
	<g>
		<path class="st8" d="M248.1,216.9c0,0.9,0,1.9,0,2.8"/>
		<g>
			<path class="st2" d="M243.6,216.9c0,0.9,0,1.9,0,2.8c0,0.6,0.1,1.2,0.4,1.7c0.2,0.6,0.5,1,0.9,1.4c0.4,0.4,0.9,0.7,1.4,0.9
				c0.5,0.3,1.1,0.4,1.7,0.4c0.4-0.1,0.8-0.1,1.2-0.2c0.8-0.2,1.4-0.6,2-1.2c0.2-0.3,0.5-0.6,0.7-0.9c0.4-0.7,0.6-1.5,0.6-2.3
				c0-0.9,0-1.9,0-2.8c0-0.6-0.1-1.2-0.4-1.7c-0.2-0.6-0.5-1-0.9-1.4c-0.4-0.4-0.9-0.7-1.4-0.9c-0.5-0.3-1.1-0.4-1.7-0.4
				c-0.4,0.1-0.8,0.1-1.2,0.2c-0.8,0.2-1.4,0.6-2,1.2c-0.2,0.3-0.5,0.6-0.7,0.9C243.8,215.4,243.6,216.1,243.6,216.9L243.6,216.9z"
				/>
		</g>
	</g>
	<g>
		<path class="st8" d="M252.8,217.3c-0.4,1.2-0.8,2.3-1.3,3.5"/>
		<g>
			<path class="st2" d="M248.5,216.1c-0.4,1.2-0.8,2.3-1.3,3.5c-0.2,0.6-0.2,1.2-0.1,1.8c0,0.6,0.2,1.2,0.5,1.7
				c0.3,0.5,0.7,0.9,1.2,1.3c0.4,0.4,0.9,0.7,1.5,0.8c0.4,0.1,0.8,0.1,1.2,0.2c0.8,0,1.6-0.2,2.3-0.6c0.3-0.2,0.6-0.5,0.9-0.7
				c0.6-0.6,0.9-1.2,1.2-2c0.4-1.2,0.8-2.3,1.3-3.5c0.2-0.6,0.2-1.2,0.1-1.8c0-0.6-0.2-1.2-0.5-1.7c-0.3-0.5-0.7-0.9-1.2-1.3
				c-0.4-0.4-0.9-0.7-1.5-0.8c-0.4-0.1-0.8-0.1-1.2-0.2c-0.8,0-1.6,0.2-2.3,0.6c-0.3,0.2-0.6,0.5-0.9,0.7
				C249.1,214.7,248.7,215.4,248.5,216.1L248.5,216.1z"/>
		</g>
	</g>
	<g>
		<path class="st8" d="M304.6,220.1c0.3,0.7,0.7,1.4,1,2.1"/>
		<g>
			<path class="st2" d="M300.7,222.4c0.3,0.7,0.7,1.4,1,2.1c0.3,0.5,0.7,0.9,1.2,1.3c0.4,0.4,0.9,0.7,1.5,0.8
				c0.6,0.2,1.2,0.2,1.8,0.1c0.6,0,1.2-0.2,1.7-0.5c0.3-0.2,0.6-0.5,0.9-0.7c0.6-0.6,0.9-1.2,1.2-2c0.1-0.4,0.1-0.8,0.2-1.2
				c0-0.8-0.2-1.6-0.6-2.3c-0.3-0.7-0.7-1.4-1-2.1c-0.3-0.5-0.7-0.9-1.2-1.3c-0.4-0.4-0.9-0.7-1.5-0.8c-0.6-0.2-1.2-0.2-1.8-0.1
				c-0.6,0-1.2,0.2-1.7,0.5c-0.3,0.2-0.6,0.5-0.9,0.7c-0.6,0.6-0.9,1.2-1.2,2c-0.1,0.4-0.1,0.8-0.2,1.2
				C300.1,220.9,300.3,221.7,300.7,222.4L300.7,222.4z"/>
		</g>
	</g>
	<g>
		<path class="st8" d="M308.4,218c0,0.8,0,1.6,0,2.5"/>
		<g>
			<path class="st2" d="M303.9,218c0,0.8,0,1.6,0,2.5c0,0.6,0.1,1.2,0.4,1.7c0.2,0.6,0.5,1,0.9,1.4c0.4,0.4,0.9,0.7,1.4,0.9
				c0.5,0.3,1.1,0.4,1.7,0.4c0.4-0.1,0.8-0.1,1.2-0.2c0.8-0.2,1.4-0.6,2-1.2c0.2-0.3,0.5-0.6,0.7-0.9c0.4-0.7,0.6-1.5,0.6-2.3
				c0-0.8,0-1.6,0-2.5c0-0.6-0.1-1.2-0.4-1.7c-0.2-0.6-0.5-1-0.9-1.4c-0.4-0.4-0.9-0.7-1.4-0.9c-0.5-0.3-1.1-0.4-1.7-0.4
				c-0.4,0.1-0.8,0.1-1.2,0.2c-0.8,0.2-1.4,0.6-2,1.2c-0.2,0.3-0.5,0.6-0.7,0.9C304.1,216.4,303.9,217.2,303.9,218L303.9,218z"/>
		</g>
	</g>
	<g>
		<path class="st8" d="M314.5,218c-0.6,1.6-1.5,3.2-2.6,4.5"/>
		<g>
			<path class="st2" d="M310.2,216.8c-0.1,0.3-0.2,0.5-0.3,0.8c0.2-0.4,0.3-0.7,0.5-1.1c-0.5,1.1-1.1,2.1-1.8,3.1
				c0.2-0.3,0.5-0.6,0.7-0.9c-0.2,0.2-0.3,0.4-0.5,0.6c-0.4,0.4-0.7,0.9-0.9,1.4c-0.3,0.5-0.4,1.1-0.4,1.7c0,0.6,0.1,1.2,0.4,1.7
				c0.2,0.6,0.5,1,0.9,1.4c0.9,0.8,2,1.4,3.2,1.3c0.4-0.1,0.8-0.1,1.2-0.2c0.8-0.2,1.4-0.6,2-1.2c0.8-0.9,1.6-2,2.2-3
				c0.6-1.1,1.1-2.3,1.6-3.5c0.2-0.6,0.2-1.2,0.1-1.8c0-0.6-0.2-1.2-0.5-1.7c-0.3-0.5-0.7-0.9-1.2-1.3c-0.4-0.4-0.9-0.7-1.5-0.8
				c-0.4-0.1-0.8-0.1-1.2-0.2c-0.8,0-1.6,0.2-2.3,0.6c-0.3,0.2-0.6,0.5-0.9,0.7C310.8,215.4,310.4,216.1,310.2,216.8L310.2,216.8z"
				/>
		</g>
	</g>
	<g>
		<g>
			<path class="st2" d="M240.3,212.7C240.3,212.6,240.1,212.5,240.3,212.7C240.3,212.6,240.4,212.7,240.3,212.7
				c0.2,0.1,0.2,0.2,0.3,0.3c0.2,0.2,0.4,0.4,0.6,0.6c0.1,0.1,0.2,0.2,0.2,0.3c0,0,0.2,0.2,0,0c-0.1-0.2,0,0,0,0
				c0.2,0.2,0.3,0.4,0.4,0.7c0.1,0.2,0.2,0.4,0.4,0.7c0,0.1,0,0.1,0.1,0.2c0,0,0.1,0.3,0,0.1c-0.1-0.2,0,0,0,0.1
				c0,0.1,0,0.1,0.1,0.2c0.2,0.5,0.3,1,0.4,1.5c0.1,0.3,0.4,0.7,0.7,0.9c0.3,0.2,0.8,0.3,1.2,0.2c0.8-0.3,1.2-1,1-1.8
				c-0.2-1.2-0.7-2.4-1.3-3.4c-0.7-1.1-1.6-2.1-2.7-2.9c-0.3-0.2-0.8-0.2-1.2-0.2c-0.3,0.1-0.7,0.4-0.9,0.7
				c-0.2,0.3-0.3,0.8-0.2,1.2C239.8,212.2,240,212.4,240.3,212.7L240.3,212.7z"/>
		</g>
	</g>
	<g>
		<g>
			<path class="st2" d="M245.7,211.5c0.1,0.1,0.2,0.2,0.3,0.3c0.2,0.2-0.2-0.3-0.1-0.1c0,0.1,0.1,0.1,0.1,0.2c0,0.1,0.2,0.2,0.2,0.3
				c0,0-0.1-0.4-0.1-0.2c0,0.1,0,0.1,0.1,0.2c0.1,0.2,0.1,0.5,0.2,0.7c0,0.1,0,0.3,0.1,0.4c0,0.1,0,0.3,0-0.1c0,0.1,0,0.1,0,0.2
				c0.2,1.2,0.3,2.5,0.9,3.6c0.4,0.7,1.4,1,2.1,0.5c0.7-0.5,0.9-1.3,0.5-2.1c0-0.1-0.1-0.1-0.1-0.2c-0.1-0.3,0.1,0.1,0,0.1
				c0,0-0.1-0.3-0.1-0.4c-0.1-0.2-0.1-0.5-0.2-0.8c0-0.1,0-0.3-0.1-0.4c0-0.3,0,0.4,0,0.1c0-0.1,0-0.1,0-0.2c0-0.4-0.1-0.8-0.1-1.1
				c-0.2-1.2-0.5-2.4-1.5-3.3c-0.6-0.5-1.6-0.6-2.1,0C245.1,210,245.1,211,245.7,211.5L245.7,211.5z"/>
		</g>
	</g>
	<g>
		<g>
			<path class="st2" d="M252.6,209.9c-0.3,2-0.6,4-0.9,6c-0.1,0.4-0.1,0.8,0.2,1.2c0.2,0.3,0.5,0.6,0.9,0.7c0.7,0.2,1.7-0.2,1.8-1
				c0.3-2,0.6-4,0.9-6c0.1-0.4,0.1-0.8-0.2-1.2c-0.2-0.3-0.5-0.6-0.9-0.7C253.7,208.6,252.7,209,252.6,209.9L252.6,209.9z"/>
		</g>
	</g>
	<g>
		<g>
			<path class="st2" d="M300.6,213.9C300.7,214,300.7,214,300.6,213.9c0,0,0.1,0.1,0.1,0.1c0.1,0.1,0.2,0.2,0.2,0.4
				c0.2,0.3,0.3,0.5,0.4,0.8c0,0.1,0.3,0.5,0.1,0.1c0.1,0.1,0.1,0.3,0.2,0.4c0.1,0.3,0.2,0.5,0.2,0.8c0,0.1,0.1,0.3,0.1,0.4
				c0,0.1,0,0.1,0,0.2c0,0.2,0,0.1,0-0.1c0.1,0.3,0.1,0.6,0.1,0.9c0,0.3,0,0.6,0,0.9c0,0.2,0,0.1,0-0.1c0,0.1,0,0.1,0,0.2
				c0,0.1-0.1,0.3-0.1,0.4c-0.2,0.8,0.2,1.7,1,1.8c0.8,0.2,1.7-0.2,1.8-1c0.7-3-0.1-6.1-2-8.5c-0.5-0.6-1.6-0.6-2.1,0
				C300,212.4,300,213.2,300.6,213.9L300.6,213.9z"/>
		</g>
	</g>
	<g>
		<g>
			<path class="st2" d="M306.3,211.8c0.2,1.8,0.5,3.6,0.7,5.4c0,0.3,0.4,0.7,0.7,0.9c0.3,0.2,0.8,0.3,1.2,0.2
				c0.4-0.1,0.7-0.3,0.9-0.7c0.2-0.4,0.2-0.7,0.2-1.2c-0.2-1.8-0.5-3.6-0.7-5.4c0-0.3-0.4-0.7-0.7-0.9c-0.3-0.2-0.8-0.3-1.2-0.2
				c-0.4,0.1-0.7,0.3-0.9,0.7C306.2,211,306.2,211.4,306.3,211.8L306.3,211.8z"/>
		</g>
	</g>
	<g>
		<g>
			<path class="st2" d="M313.9,213.4c1.9,0,1.9-3,0-3C311.9,210.4,311.9,213.4,313.9,213.4L313.9,213.4z"/>
		</g>
	</g>
	<g>
		<g>
			<path class="st2" d="M312,211.4c-0.1,1.6-0.1,3.1-0.3,4.7c0,0.2,0,0,0-0.1c0,0.1,0,0.1,0,0.2c0,0.1-0.1,0.3-0.1,0.4
				c0,0.1-0.1,0.3-0.1,0.4c0,0.1,0,0.1-0.1,0.2c-0.1,0.2,0-0.1,0-0.1c0,0-0.2,0.3-0.2,0.3c0,0.1-0.2,0.2,0,0.1c0.2-0.2,0,0,0,0
				c0,0-0.1,0.1-0.1,0.1c-0.1,0.1,0.2-0.1,0.1-0.1c-0.1,0-0.5,0.2-0.1,0.1c-0.7,0.3-1.3,1-1,1.8c0.2,0.7,1.1,1.3,1.8,1
				c1.6-0.6,2.5-2,2.7-3.7c0.3-1.8,0.3-3.7,0.4-5.5c0-0.8-0.7-1.5-1.5-1.5C312.6,209.9,312,210.6,312,211.4L312,211.4z"/>
		</g>
	</g>
</g>
<g id="near">
	<g>
		<g>
			<path d="M412.9,59.5l-5.2-3l12.8-50l5.2,3L412.9,59.5z"/>
			<path d="M444.4,36.6l7.2,4.3l-1.2,3.5l0.2,0.1c3.2-0.8,6.8-1,10.4,1.1c5.7,3.3,5.6,8.9,1.9,15.3l-9.4,15.9l-8.9-5.2l8.7-14.8
				c1.9-3.3,1.6-4.6-0.2-5.7c-1.7-1-3-0.8-5.1-0.3l-10,17l-8.9-5.2L444.4,36.6z"/>
			<path d="M465.6,66.5c4.9-8.4,14.1-10,20.4-6.3c7.7,4.5,8,12.2,3.9,19.1c-0.9,1.6-2,3-2.6,3.5l-14.7-8.7c-1,3.6,0.7,6,3.6,7.7
				c1.8,1,3.7,1.5,6.2,1.5l-0.2,7c-3.9,0.3-8.3-0.8-11.2-2.5C463.4,83.4,460.5,75.1,465.6,66.5z M483.5,72.9c1.2-2,1.4-4.2-1.3-5.8
				c-2-1.2-4.3-1-6.3,1.3L483.5,72.9z"/>
			<path d="M489.8,88.2c3.2-5.4,9.1-5.9,19.6-1.1c0.9-2,0.2-3.5-2-4.8c-1.9-1.1-4.3-1.5-7.8-1.7l0.3-7.6c4.9,0,9.4,0.9,13.4,3.3
				c6.7,4,8.6,9.9,3.6,18.4l-8.5,14.4l-7.2-4.3l0.8-2.8l-0.2-0.1c-3.2,0.6-6.2,0.5-9-1.1C488,97.9,487.3,92.5,489.8,88.2z
				 M504.2,95.9l2.1-3.5c-4.6-1.9-6.7-1.3-7.6,0.1c-0.7,1.2-0.3,2.3,1.3,3.3C501.4,96.6,502.7,96.4,504.2,95.9z"/>
			<path d="M529.4,86.6l7.2,4.3l-2,4.8l0.2,0.1c4-2.4,7.8-2.2,10.3-0.8c1.6,0.9,2.4,1.7,2.9,2.4l-5.9,6.8c-0.8-0.8-1.5-1.4-2.7-2.1
				c-1.9-1.1-4.8-1.3-7.9,1.2l-8.5,14.4l-8.9-5.2L529.4,86.6z"/>
			<path d="M547.3,138.6l-5.2-3l38.7-34.7l5.2,3L547.3,138.6z"/>
		</g>
	</g>
</g>
<g id="location">
	<g>
		<g>
			<path class="st6" d="M96.4,166.3c4.9-5.3,7.9-12.5,7.9-20.3c0-16.6-13.4-30-30-30s-30,13.4-30,30c0,8.7,3.7,16.5,9.6,22l20.4,31
				L96.4,166.3z"/>
		</g>
		<g>
			<path class="st9" d="M96.4,166.3c4.9-5.3,7.9-12.5,7.9-20.3c0-16.6-13.4-30-30-30s-30,13.4-30,30c0,8.7,3.7,16.5,9.6,22l20.4,31
				L96.4,166.3z"/>
		</g>
	</g>
	<circle class="st10" cx="73.7" cy="145.5" r="13.5"/>
	<path class="st9" d="M31.1,160.9c-8.4-8.8-8-22.7,0.8-31.1"/>
	<path class="st9" d="M128.2,116.2c15.4,17.4,13.7,44-3.7,59.4"/>
	<path class="st9" d="M115.7,130.3c8.1,9,7.4,22.9-1.6,31.1"/>
	<path class="st9" d="M16.9,173.4c-15.9-17-15-43.6,2-59.5"/>
</g>
</svg>
