<?xml version="1.0" encoding="utf-8"?>
<!-- Generator: Adobe Illustrator 23.0.6, SVG Export Plug-In . SVG Version: 6.00 Build 0)  -->
<svg version="1.1" xmlns="http://www.w3.org/2000/svg" xmlns:xlink="http://www.w3.org/1999/xlink" x="0px" y="0px"
	 viewBox="0 0 608.7 521.5" style="enable-background:new 0 0 608.7 521.5;" xml:space="preserve">
<style type="text/css">
	.st0{display:none;}
	.st1{display:inline;}
	.st2{fill:#FFF000;}
	.st3{fill:#005BAC;}
	.st4{fill:#FFF000;stroke:#FFF000;stroke-width:3;stroke-miterlimit:10;}
	.st5{display:none;fill:#FFFFFF;stroke:#FFFFFF;stroke-width:3;stroke-miterlimit:10;}
	.st6{fill:#FFFFFF;}
	.st7{display:inline;fill:#FFFFFF;}
	.st8{display:inline;fill:#FFF000;}
	.st9{display:inline;fill:#005BAC;}
	.st10{fill:none;stroke:#005BAC;stroke-width:5;stroke-linecap:round;stroke-miterlimit:10;}
	.st11{fill-rule:evenodd;clip-rule:evenodd;fill:#005BAC;}
	
		.st12{fill-rule:evenodd;clip-rule:evenodd;fill:#FFFFFF;stroke:#005BAC;stroke-width:5;stroke-linecap:round;stroke-miterlimit:10;}
	.st13{display:inline;fill:#005BAC;stroke:#005BAC;stroke-width:3;stroke-miterlimit:10;}
	.st14{display:inline;fill:none;stroke:#005BAC;stroke-width:8;stroke-miterlimit:10;}
	.st15{fill:none;stroke:#005BAC;stroke-width:8;stroke-miterlimit:10;}
	.st16{fill:none;stroke:#005BAC;stroke-width:7;stroke-miterlimit:10;}
	.st17{display:inline;fill:#FFFFFF;stroke:#005BAC;stroke-width:7;stroke-miterlimit:10;}
	.st18{display:inline;fill:none;stroke:#005BAC;stroke-width:7;stroke-miterlimit:10;}
</style>
<g id="レイヤー_1" class="st0">
	
		<image style="display:inline;overflow:visible;opacity:0.29;" width="2976" height="3968" xlink:href="IMG_20191124_134718.jpg"  transform="matrix(0.251 0 0 0.251 -83.2665 -197.4705)">
	</image>
	<g id="レイヤー_2" class="st1">
	</g>
</g>
<g id="ohmygod">
	<g>
		<g>
			<path d="M282.4,55.5l-5.5-2.4l6.9-51.1l5.5,2.4L282.4,55.5z"/>
			<path d="M303.6,42.2c4-9.1,12.9-11.5,20-8.4c7,3.1,11.3,11.3,7.3,20.4c-4,9.1-12.9,11.5-20,8.4C303.8,59.5,299.6,51.3,303.6,42.2
				z M321.2,50c1.8-4.2,1.9-7.3-0.9-8.6c-2.9-1.3-5.1,0.9-7,5.1c-1.8,4.2-1.9,7.3,0.9,8.6S319.3,54.2,321.2,50z"/>
			<path d="M346.6,32l9.4,4.2l-3.9,8.9l-2.5,4.5c2.6-0.8,6.1-1.5,9.8,0.1c6,2.7,6.6,8.2,3.6,15l-7.5,16.9l-9.4-4.2l6.9-15.7
				c1.6-3.5,1.1-4.8-0.8-5.6c-1.8-0.8-3.1-0.4-5.1,0.2l-8,18l-9.4-4.2L346.6,32z"/>
			<path d="M384.7,61.7l7.7,3.4l-0.8,3.6l0.2,0.1c3.1-1.2,6.3-2,10-0.4c3.7,1.6,5.4,4.2,5.6,7.7c3.3-1.3,6.7-2.3,10.4-0.7
				c6,2.7,6.7,8.2,3.7,15l-7.5,16.9l-9.4-4.2l6.9-15.7c1.6-3.5,1.1-4.8-0.8-5.6c-1.1-0.5-2.7-0.4-4.8,0.4l-8,18l-9.4-4.2l6.9-15.7
				c1.6-3.5,1.1-4.8-0.8-5.6c-1.1-0.5-2.7-0.4-4.8,0.4l-8,18l-9.4-4.2L384.7,61.7z"/>
			<path d="M415.8,119.9l4.8-6.4c0.4,0.3,1.1,0.9,1.6,1.1c2.5,1.1,4.2,0.6,5.5-0.9l0.9-1.1l1.3-31.1l9.4,4.2l-1.4,12
				c-0.3,2.9-0.9,5.6-1.5,8.7l0.2,0.1c1.7-2.4,3.4-4.7,5.2-7l7.4-9.3l9,4l-21.1,22.9c-6.1,6.1-10.6,8.2-17.4,5.2
				C417.9,121.5,416.9,120.8,415.8,119.9z"/>
			<path d="M468,110.3c5.3-12,16.5-15.1,26.1-10.9c5.3,2.3,8.1,6.2,9.5,9.9l-7.6,3.9c-1.1-2.3-2.3-4.2-5.2-5.4
				c-4.8-2.1-10.2,0.1-13,6.6c-3,6.7-1.6,11.7,4.7,14.5c1,0.4,2.2,0.7,3,0.6l2.2-4.9l-5.3-2.3l3.4-7.7l13.6,6l-7.5,17
				c-3.6,1.3-9,1.3-14-0.9C467.9,132,462.6,122.4,468,110.3z"/>
			<path d="M501.1,129.5c4-9.1,12.9-11.5,20-8.4c7,3.1,11.3,11.3,7.3,20.4c-4,9.1-12.9,11.5-20,8.4
				C501.3,146.8,497,138.6,501.1,129.5z M518.6,137.2c1.8-4.2,1.9-7.3-0.9-8.5c-2.9-1.3-5.1,0.9-7,5.1c-1.8,4.2-1.9,7.3,0.9,8.6
				C514.5,143.6,516.8,141.4,518.6,137.2z"/>
			<path d="M532,143.2c4-9,12-11.9,17.5-9.4c3,1.3,4.2,3.2,5.2,5.6l1.4-4.1l3.9-8.9l9.4,4.2l-16.9,38.2l-7.7-3.4l0.5-2.8l-0.2-0.1
				c-2.7,1-5.9,1.2-8.3,0.1C530.1,159.5,528.1,152,532,143.2z M547.2,155.5l4.5-10.1c-0.7-1.5-1.9-2.4-3.2-3c-2-0.9-4.6,0.1-6.8,4.9
				c-2.2,4.9-1.5,7.5,1.1,8.6C544.2,156.5,545.5,156.6,547.2,155.5z"/>
			<path d="M572,183.4l-5.5-2.4l34.5-39l5.5,2.4L572,183.4z"/>
		</g>
	</g>
</g>
<g id="hair">
	<g>
		<path class="st2" d="M292.8,146.2c18-9.3,47.6-16.9,65.5-7.2c11,6,21.2,11.9,39,53c16,37,22,141.4,23,159
			c1.4,25.1-93.4,15.8-97,12"/>
		<g>
			<path class="st3" d="M295.1,150.1c2.1-1.1,4.3-2.1,6.4-3c0.2-0.1,0.8-0.3-0.1,0c0.3-0.1,0.6-0.2,0.8-0.3c0.5-0.2,1-0.4,1.5-0.6
				c1.3-0.5,2.5-1,3.8-1.4c4.9-1.7,9.8-3.1,14.9-4.1c1.2-0.2,2.4-0.5,3.6-0.7c0.6-0.1,1.3-0.2,1.9-0.3c1.2-0.2-0.6,0.1,0.1,0
				c0.4,0,0.9-0.1,1.3-0.2c2.5-0.3,5-0.4,7.5-0.5c2.4,0,4.8,0.1,7.2,0.3c0.2,0,1.4,0.1,0.2,0c0.2,0,0.5,0.1,0.7,0.1
				c0.6,0.1,1.1,0.2,1.7,0.3c1.2,0.2,2.4,0.5,3.6,0.9c1,0.3,1.9,0.6,2.8,1c0.2,0.1,1.3,0.5,0.1,0c0.2,0.1,0.4,0.2,0.6,0.3
				c0.6,0.3,1.2,0.6,1.8,0.9c0.9,0.5,1.7,0.9,2.6,1.4c1.7,1,3.4,2,5,3.1c0.4,0.3,0.8,0.6,1.2,0.8c0.2,0.1,0.4,0.3,0.6,0.4
				c-1.4-1-0.4-0.3,0,0c0.9,0.7,1.7,1.5,2.6,2.2c2,1.9,3.8,3.9,5.5,6c0.1,0.1,0.2,0.2,0.3,0.4c0.6,0.7-0.7-0.9-0.1-0.2
				c0.2,0.3,0.5,0.6,0.7,0.9c0.5,0.7,1,1.3,1.4,2c1.1,1.5,2.1,3.1,3.1,4.7c2.4,3.8,4.5,7.8,6.6,11.8c2.7,5.3,5.2,10.6,7.5,16
				c0.3,0.6,0.5,1.3,0.8,1.9c0.4,0.8-0.5-1.2,0,0c0.3,0.7,0.5,1.3,0.8,2c0.5,1.3,1,2.7,1.4,4c4.7,14,7.3,28.6,9.6,43.2
				c0.7,4.1,1.3,8.2,1.8,12.3c0.1,0.5,0.1,1,0.2,1.6c0,0.3,0.3,2.1,0.1,0.7c0.2,1.1,0.3,2.2,0.4,3.3c0.3,2.1,0.5,4.3,0.8,6.4
				c1,8.4,1.9,16.7,2.7,25.1c1.4,14,2.5,28.1,3.4,42.1c0.3,4.4,0.6,8.8,0.8,13.2c0.1,1.5,0,2.9,0.1,4.4c-0.1-1.4,0.2-1,0-0.5
				c0,0.2-0.1,0.4-0.1,0.6c-0.1,0.2-0.1,0.4-0.2,0.6c-0.3,0.8-0.1-0.1,0.2-0.4c-0.2,0.3-0.4,0.7-0.5,1c-0.1,0.2-0.2,0.3-0.3,0.5
				c-0.5,0.8,0.7-0.8,0.2-0.3c-0.6,0.7-1.2,1.3-1.9,1.9c-0.7,0.6,1-0.7,0.3-0.2c-0.2,0.1-0.4,0.3-0.6,0.4c-0.4,0.3-0.8,0.5-1.2,0.8
				c-0.9,0.5-1.9,1-2.9,1.4c-0.5,0.2,1.2-0.5,0.5-0.2c-0.1,0-0.2,0.1-0.3,0.1c-0.3,0.1-0.5,0.2-0.8,0.3c-0.6,0.2-1.2,0.4-1.8,0.6
				c-2.5,0.8-5,1.4-7.5,1.9c-1.5,0.3-2.9,0.5-4.4,0.8c-0.3,0-0.7,0.1-1,0.1c-1,0.1,1.1-0.1,0,0c-0.8,0.1-1.6,0.2-2.5,0.3
				c-12.8,1.4-25.8,1.2-38.6,0.4c-5.5-0.3-10.9-0.8-16.4-1.5c-0.3,0-0.6-0.1-0.8-0.1c1.8,0.2,0.6,0.1,0.2,0
				c-0.6-0.1-1.1-0.2-1.7-0.2c-0.9-0.1-1.9-0.3-2.8-0.5c-1.4-0.3-2.9-0.5-4.3-0.9c-0.4-0.1-0.9-0.3-1.3-0.4c0.6,0.2,1.3,0.6,0.6,0.2
				c-0.7-0.4,1,0.9,0.6,0.5c-1.7-1.7-4.7-1.8-6.4,0c-1.6,1.8-1.8,4.6,0,6.4c2,2,5.5,2.4,8.2,2.9c5,0.9,10,1.5,15,1.9
				c12.9,1.2,25.9,1.7,38.8,1c6.5-0.3,13-1,19.4-2.3c5.1-1,10.3-2.5,14.8-5.1c3.9-2.3,7.4-5.8,8.3-10.4c0.7-3.6,0-7.6-0.2-11.3
				c-0.8-12.8-1.7-25.5-2.8-38.2c-1.5-17.3-3.4-34.5-5.8-51.7c-2.2-15.8-4.8-31.7-9-47.1c-1.9-7-4.4-13.7-7.3-20.3
				c-4.1-9.3-8.6-18.5-14.1-27.1c-3.4-5.3-7.3-10.5-12-14.8c-3.4-3-7.1-5.6-11.1-7.8c-3.5-1.9-7.1-3.6-11-4.5
				c-5-1.3-10.3-1.7-15.5-1.5c-10.8,0.3-21.6,2.7-31.7,6.4c-4.6,1.7-9.2,3.6-13.6,5.9c-2.1,1.1-2.9,4.2-1.6,6.2
				C290.3,150.6,292.8,151.2,295.1,150.1L295.1,150.1z"/>
		</g>
	</g>
	<g>
		<path class="st2" d="M292,146.4c-3.6-1.4-7.3-2.8-10.9-4.2c-7.3-2.8-14.7-5.7-22.6-6.2c-7.6-0.4-15.3,1.1-22.1,4.5
			C194.2,161,167.1,289.1,170.2,352c1,20,93,9,90,8"/>
		<g>
			<path class="st3" d="M293.2,142c-5.6-2.2-11.2-4.5-16.8-6.5c-5.7-2.1-11.5-3.7-17.6-4c-9.5-0.6-19.7,1.8-27.8,6.9
				c-9.6,6-16.7,15.4-22.6,24.9c-7.4,12.1-13,25.4-17.8,38.7c-5.4,15-9.7,30.4-13.3,46c-3.7,16.1-6.5,32.4-8.6,48.7
				c-1.8,14.3-3,28.8-3.1,43.2c0,3.1,0,6.2,0.1,9.3c0.1,2.6,0.1,5,1.3,7.4c1.8,3.8,5.7,5.9,9.4,7.4c4.5,1.8,9.3,2.6,14.1,3.2
				c5.5,0.7,11.1,1,16.6,1.2c11.5,0.2,23-0.3,34.4-1.3c4.2-0.4,8.4-0.8,12.6-1.3c2.4-0.3,5-0.5,7.3-1.2c1.2-0.4,2.3-1.1,2.9-2.2
				c1.5-2.8,0.1-5.7-2.8-6.7c-2.2-0.8-5,0.9-5.5,3.1c-0.6,2.5,0.8,4.7,3.1,5.5c0.4,0.1-1.4-0.6-1-0.4c-2.9-1.7-2.1-2.6-1.5-4.8
				c0.5-1.8,0.1-2.1,1.4-2.8c-0.3,0.1,1.4-0.4,0.8-0.4c-0.3,0-0.6,0.1-0.8,0.2c-1,0.2-2,0.4-3.1,0.5c-0.3,0.1-0.7,0.1-1,0.1
				c-0.2,0-0.3,0-0.5,0.1c1.8-0.3,0.8-0.1,0.4-0.1c-0.9,0.1-1.7,0.2-2.6,0.3c-2,0.2-4.1,0.5-6.1,0.7c-10.8,1-21.6,1.7-32.5,1.7
				c-5.6,0-11.2-0.1-16.8-0.6c-1.3-0.1-2.6-0.2-3.9-0.4c-0.3,0-0.6-0.1-0.9-0.1c-1.1-0.1,0.8,0.1,0.2,0c-0.6-0.1-1.3-0.2-1.9-0.3
				c-2.2-0.4-4.4-0.8-6.6-1.4c-1-0.3-1.9-0.6-2.8-0.9c-0.4-0.1-0.8-0.3-1.2-0.5c1.7,0.6,0.1,0-0.3-0.2c-0.7-0.4-1.4-0.7-2.1-1.2
				c-0.2-0.1-0.3-0.2-0.5-0.3c-0.5-0.3,1,0.9,0.4,0.3c-0.3-0.2-0.6-0.5-0.8-0.7c-0.1-0.1-0.2-0.2-0.3-0.4c-0.5-0.6,0.3,0.3,0.4,0.5
				c-0.2-0.3-0.4-0.5-0.5-0.8c-0.1-0.1-0.1-0.3-0.2-0.4c-0.3-0.5,0.5,1.3,0.3,0.6c-0.1-0.3-0.2-0.6-0.3-0.9c-0.2-0.8,0.1,1,0.1,0.6
				c0-0.2,0-0.4,0-0.5c0-0.7-0.1-1.5-0.1-2.2c-0.1-1.5-0.1-2.9-0.1-4.4c-0.2-13.5,0.7-27.1,2.2-40.5c0.2-1.9,0.4-3.7,0.6-5.6
				c0.1-0.9,0.2-1.8,0.3-2.7c0.1-0.5,0.1-0.9,0.2-1.4c0-0.3,0.1-0.5,0.1-0.8c0.1-0.9-0.1,0.7,0,0.1c0.5-3.8,1.1-7.6,1.7-11.5
				c1.3-7.8,2.7-15.7,4.3-23.4c3.2-15.3,7.1-30.5,12-45.4c2.3-7,4.8-13.9,7.6-20.7c0.1-0.4,0.3-0.7,0.4-1.1c0.1-0.2,0.2-0.4,0.2-0.5
				c0.1-0.2,0.2-1,0.1-0.3c-0.1,0.6,0,0.1,0.1-0.1c0.1-0.2,0.2-0.4,0.3-0.7c0.2-0.4,0.4-0.9,0.6-1.3c0.7-1.6,1.4-3.1,2.1-4.7
				c1.4-3,2.8-5.9,4.4-8.8c2.8-5.3,5.9-10.5,9.4-15.3c0.4-0.5,0.8-1.1,1.2-1.6c0.1-0.1,0.2-0.2,0.3-0.4c0.4-0.5-0.7,0.9-0.2,0.3
				c0.2-0.3,0.5-0.6,0.7-0.9c0.8-1,1.7-2,2.5-3c1.6-1.8,3.4-3.6,5.2-5.2c0.4-0.4,0.8-0.7,1.3-1.1c0.2-0.2,0.4-0.4,0.7-0.5
				c0.8-0.7-0.9,0.6,0,0c0.9-0.7,1.8-1.3,2.7-1.9c0.9-0.6,1.8-1.1,2.8-1.6c0.3-0.1,0.6-0.3,0.9-0.4c0.3-0.2,0.7-0.3,1-0.5
				c0.7-0.3-0.5,0.2,0.2-0.1c1.3-0.5,2.6-1,4-1.4c1.2-0.4,2.4-0.7,3.7-0.9c0.7-0.1,1.3-0.3,2-0.4c0.3,0,0.6-0.1,0.9-0.1
				c-0.9,0.1,0.5-0.1,0.6-0.1c2.7-0.3,5.4-0.3,8.1-0.1c0.6,0,1.2,0.1,1.9,0.2c-0.7-0.1,0.2,0,0.4,0.1c0.3,0.1,0.6,0.1,0.9,0.2
				c1.5,0.3,2.9,0.6,4.3,1c2.7,0.7,5.4,1.7,8,2.6c5.3,2,10.5,4.1,15.7,6.1c2.2,0.9,5-0.9,5.5-3.1C296.9,145,295.5,142.9,293.2,142
				L293.2,142z"/>
		</g>
	</g>
	<polygon class="st4" points="363.2,250 282.2,208 265.2,151 361.2,162 	"/>
	<rect x="352.7" y="235.5" class="st2" width="14" height="13"/>
</g>
<g id="face">
	<polygon class="st5" points="357.4,236 331.2,271 259,184.1 289.8,158.2 	"/>
	<polygon class="st5" points="258,265.8 314.4,226 278.2,154 216.2,190 	"/>
	<polygon class="st6" points="347.7,312.5 304.7,317.5 299.7,222.5 363.7,247.5 	"/>
	<polygon class="st6" points="262.7,323.5 216.7,285.5 278.7,209.5 305.3,231.4 	"/>
	<g>
		<path class="st6" d="M363.2,245c0.4,3.6,0.6,20-1.4,30c-1,4.9-4.9,42.9-24,60c-12.8,11.5-29.7,15.5-42,16.8"/>
		<g>
			<path class="st3" d="M358.7,245c0.4,3.8,0.3,7.6,0.2,11.4c0,2.8-0.2,5.5-0.3,8.3c-0.1,1.4-0.2,2.8-0.4,4.2
				c-0.1,0.6-0.1,1.3-0.2,1.9c-0.1,1.2,0.2-1,0,0.2c-0.1,0.3-0.1,0.7-0.2,1c-0.9,5.3-1.7,10.7-2.8,16c-0.9,4.2-1.9,8.4-3.1,12.5
				c-0.7,2.3-1.4,4.5-2.2,6.7c-0.4,1.1-0.8,2.3-1.3,3.4c-0.2,0.5-0.4,1.1-0.7,1.6c0.5-1.1,0-0.1,0,0.1c-0.1,0.3-0.3,0.6-0.4,0.9
				c-2,4.4-4.3,8.7-7.1,12.6c-0.2,0.2-0.4,0.5-0.6,0.7c-0.6,0.9,0.6-0.8-0.1,0.1c-0.4,0.4-0.7,0.9-1.1,1.3c-0.8,0.9-1.5,1.7-2.4,2.6
				c-0.9,0.9-1.9,1.8-3,2.7c-0.3,0.2-0.5,0.4-0.8,0.7c-0.1,0-1.1,0.9-0.4,0.3c-0.7,0.5-1.3,1-2,1.4c-2.9,2-5.9,3.7-9,5.2
				c-0.4,0.2-0.7,0.3-1.1,0.5c-0.2,0.1-1.7,0.7-0.7,0.3c-0.7,0.3-1.4,0.6-2.2,0.9c-1.5,0.6-3.1,1.1-4.7,1.6c-3,0.9-6,1.7-9.1,2.3
				c-1.4,0.3-2.9,0.5-4.3,0.7c-0.2,0-0.4,0.1-0.6,0.1c-0.5,0.1-0.4,0.1,0.2,0c-0.2,0-0.4,0.1-0.6,0.1c-0.7,0.1-1.4,0.2-2.1,0.2
				c-2.3,0.2-4.6,1.9-4.5,4.5c0.1,2.2,2,4.8,4.5,4.5c12-1.3,23.8-4.3,34.3-10.3c5.3-3,10.3-6.7,14.3-11.3c3.4-3.9,6.3-8.2,8.7-12.8
				c4.6-8.8,7.6-18.3,9.8-27.9c1.3-5.8,2.2-11.6,3.2-17.4c1-5.9,1.6-11.8,1.8-17.7c0.1-4.6,0.3-9.3-0.2-13.9
				c-0.2-2.3-1.9-4.6-4.5-4.5C361,240.6,358.5,242.5,358.7,245L358.7,245z"/>
		</g>
	</g>
	<g>
		<path class="st6" d="M294.2,355c-7.1,0.1-41-6-50-15c-17.2-17.2-17-30-26-57"/>
		<g>
			<path class="st3" d="M294.2,350.5c-0.9,0-1.8-0.1-2.7-0.1c-0.5,0-1.1-0.1-1.6-0.2c-0.3,0-0.7-0.1-1-0.1c-0.1,0-0.3,0-0.4-0.1
				c-0.8-0.1,1.1,0.2,0.3,0c-3.3-0.5-6.7-1.1-10-1.7c-7.6-1.6-15.3-3.5-22.5-6.4c-0.2-0.1-1.5-0.6-0.7-0.3c0.7,0.3-0.5-0.2-0.7-0.3
				c-0.8-0.4-1.6-0.7-2.3-1.1c-1.4-0.7-2.7-1.5-4-2.4c-0.1-0.1-0.2-0.2-0.3-0.2c-0.7-0.4,0.8,0.6,0.3,0.3c-0.2-0.2-0.5-0.4-0.7-0.6
				c-0.7-0.7-1.4-1.4-2.1-2.1c-1.6-1.7-3.1-3.4-4.5-5.2c-0.1-0.2-0.3-0.3-0.4-0.5c0.6,0.8,0.3,0.3,0.1,0.2c-0.3-0.4-0.6-0.8-0.9-1.3
				c-0.6-0.8-1.2-1.7-1.7-2.5c-1-1.6-2-3.2-2.8-4.9c-0.4-0.8-0.8-1.6-1.2-2.4c-0.2-0.4-0.4-0.8-0.5-1.2c-0.1-0.2-0.2-0.4-0.3-0.7
				c-0.4-0.9,0.4,1,0,0c-0.7-1.7-1.4-3.5-2-5.3c-3.3-9.8-5.8-19.9-9-29.7c-0.7-2.2-3.1-3.9-5.5-3.1c-2.2,0.7-3.9,3.1-3.1,5.5
				c3,9.1,5.4,18.4,8.3,27.6c2.5,7.7,5.7,15.2,10.5,21.7c2.7,3.6,5.6,7.4,9,10.3c2.5,2.2,5.5,3.9,8.5,5.2c7.5,3.4,15.4,5.6,23.4,7.3
				c4,0.9,7.9,1.6,11.9,2.2c2.8,0.4,5.8,0.9,8.7,0.9c2.4,0,4.6-2.1,4.5-4.5C298.6,352.6,296.8,350.5,294.2,350.5L294.2,350.5z"/>
		</g>
	</g>
	<g>
		<path class="st6" d="M280.2,209c0,1-15-21-42-5c-18.2,10.8-16.4,38-22,50c-5.5,11.8-22-16.8-32,6c-7,16-0.4,22.3,6,29
			c6.1,6.4,24,18,29-6"/>
		<g>
			<path class="st3" d="M275.7,209c0.1-0.4,0.1-0.8,0.2-1.2c0.4-0.7,0.8-1.3,1.2-2c0.3-0.2,0.6-0.5,0.9-0.7c0.8-0.2,1.5-0.4,2.3-0.6
				c1-0.1,2.4,0.5,3,1.2c0-0.1-0.1-0.1-0.2-0.1c-0.2-0.2-0.4-0.4-0.5-0.5c-0.6-0.6-1.2-1.2-1.8-1.7c-2.2-2-4.5-3.8-7.1-5.3
				c-7.8-4.5-17.1-5.5-25.8-3.1c-5.7,1.5-11.3,4.3-16,8c-3.7,2.9-6.6,6.8-8.8,11c-4.2,8.1-5.9,17.1-7.7,26
				c-0.7,3.6-1.4,7.3-2.7,10.8c-0.1,0.4-0.4,0.8-0.5,1.2c0,0,0.5-1.1,0.2-0.5c-0.1,0.2-0.2,0.4-0.3,0.5c-0.1,0.3-0.3,0.5-0.4,0.8
				c-0.5,0.8,0.8-0.9,0,0c-0.8,0.8,0.9-0.6,0.1-0.1c-0.9,0.5,0.8-0.2,0.4-0.1c-0.2,0-0.5,0.1-0.6,0.2c1.1-0.5,1.2-0.1,0.7-0.1
				c-0.1,0-0.3,0-0.4,0c-1.2,0,1.1,0.3,0.2,0c-0.2-0.1-0.5-0.1-0.7-0.2c-0.6-0.2-1.1-0.4-1.7-0.6c1.6,0.5,0.3,0.1-0.1-0.1
				c-0.3-0.1-0.6-0.3-0.8-0.4c-0.6-0.3-1.3-0.6-1.9-1c-2.9-1.4-5.8-3-9-3.6c-4.3-0.8-8.3,0-11.7,2.8c-4.2,3.3-6.5,9-8,14
				c-1.5,5-2,10.7-0.2,15.8c1.6,4.2,4.3,7.7,7.3,11c4.4,4.8,9.6,9,16,10.9c3.3,1,7.2,1.2,10.5,0c4.2-1.6,7.3-4.8,9.2-8.9
				c1.2-2.6,2.1-5.3,2.7-8.1c0.5-2.3-0.7-5-3.1-5.5c-2.3-0.5-5,0.7-5.5,3.1c-0.3,1.4-0.6,2.7-1.1,4c-0.2,0.5-0.4,1.1-0.6,1.6
				c-0.3,0.8,0.1-0.1,0.1-0.2c0,0.3-0.4,0.8-0.5,1.1c-0.4,0.8-0.9,1.6-1.4,2.3c-0.5,0.8,0.7-0.8,0.1-0.1c-0.1,0.1-0.2,0.2-0.3,0.4
				c-0.3,0.3-0.6,0.6-1,1c-0.8,0.8,0.8-0.5-0.1,0.1c-0.3,0.2-0.6,0.4-1,0.6c-0.1,0.1-0.3,0.1-0.4,0.2c-0.7,0.4,1.1-0.4,0.3-0.1
				c-0.4,0.1-0.7,0.2-1.1,0.3c-0.5,0.1-1.4,0,0.1,0c-0.3,0-0.6,0.1-1,0.1c-0.3,0-0.6,0-1,0c-0.6,0-1.6-0.4-0.2,0
				c-1.4-0.4-2.8-0.7-4.2-1.2c-0.5-0.2,1.1,0.5,0.4,0.2c-0.2-0.1-0.3-0.1-0.5-0.2c-0.3-0.2-0.7-0.3-1-0.5c-0.7-0.4-1.3-0.7-2-1.1
				c-0.6-0.4-1.1-0.7-1.7-1.1c-0.3-0.2-0.5-0.4-0.8-0.6c1.3,0.8,0.2,0.2-0.1-0.1c-1-0.8-1.9-1.6-2.7-2.5c-1.3-1.3-2.5-2.7-3.7-4.1
				c-0.3-0.3-0.5-0.7-0.8-1c1,0.9,0,0-0.2-0.3c-0.6-0.8-1.1-1.7-1.6-2.5c-0.1-0.2-0.2-0.4-0.3-0.6c-0.2-0.5-0.1-0.9,0,0.1
				c-0.1-0.4-0.3-0.9-0.5-1.3c-0.1-0.4-0.3-0.9-0.4-1.3c-0.1-0.2-0.1-0.5-0.1-0.7c-0.2-1.1,0,0.8,0-0.1c-0.1-1-0.1-2.1-0.1-3.1
				c0-0.3,0.1-0.7,0.1-1c0.1-0.9,0,0,0,0.2c0-0.7,0.3-1.5,0.4-2.2c0.4-1.5,0.8-3,1.4-4.5c0.1-0.3,0.2-0.6,0.3-0.9
				c0.6-1.4-0.3,0.5,0.3-0.6c0.3-0.6,0.6-1.3,0.9-1.9c0.3-0.5,0.5-0.9,0.8-1.4c0.2-0.3,0.8-0.9,0.8-1.2c-0.1,0.6-0.5,0.6,0,0.1
				c0.1-0.1,0.2-0.3,0.3-0.4c0.3-0.4,0.7-0.7,1-1c0.6-0.6-0.9,0.6-0.2,0.2c0.1-0.1,0.2-0.2,0.4-0.2c0.3-0.2,0.7-0.4,1-0.5
				c0.5-0.3-1.2,0.4-0.4,0.2c0.2-0.1,0.4-0.1,0.5-0.2c0.4-0.1,0.8-0.1,1.1-0.2c0,0-1.3,0.1-0.6,0.1c0.2,0,0.4,0,0.6,0
				c0.3,0,0.6,0,0.9,0c0.1,0,0.3,0,0.4,0c0.8,0-1.2-0.2-0.4-0.1c0.4,0.1,0.8,0.1,1.1,0.2c0.6,0.2,1.3,0.4,1.9,0.6
				c0.3,0.1,0.6,0.3,0.9,0.4c-1.5-0.4-0.2-0.1,0.2,0.1c1.3,0.6,2.6,1.3,3.9,2c2.7,1.4,5.6,2.8,8.7,2.8c8.1,0.1,10-9.8,11.4-16
				c0.9-4,1.6-8.1,2.5-12.1c0.5-2.1,1-4.2,1.6-6.3c0.3-1,0.6-2,1-3c0.3-1,0.6-2.2,1.2-3.1c-0.7,1.1,0.1-0.3,0.3-0.6
				c0.2-0.5,0.4-0.9,0.7-1.4c0.5-1,1-1.9,1.6-2.9c0.3-0.5,0.6-0.9,0.9-1.4c0.1-0.2,0.3-0.4,0.4-0.6c0.2-0.2,0.6-1.1,0,0
				c0.5-0.9,1.5-1.8,2.2-2.5c0.7-0.7,1.5-1.4,2.3-2.1c0.8-0.7-0.8,0.6,0.1-0.1c0.2-0.1,0.3-0.2,0.5-0.4c0.5-0.4,1-0.7,1.6-1
				c1.3-0.8,2.6-1.5,3.9-2.1c0.7-0.3,1.3-0.6,2-0.9c-0.2,0.1-0.8,0.3,0,0c0.5-0.2,0.9-0.4,1.4-0.5c1.1-0.4,2.3-0.7,3.4-1
				c0.5-0.1,1.1-0.3,1.6-0.4c0.3-0.1,0.6-0.1,1-0.2c0.1,0,0.2,0,0.3-0.1c0.5-0.1,0.4-0.1-0.2,0c0.8-0.3,2.2-0.2,3-0.2
				c1.1,0,2.2,0,3.3,0.1c0.2,0,0.5,0.1,0.7,0.1c-1.2,0.1-0.6-0.1-0.1,0c0.4,0.1,0.9,0.1,1.3,0.2c0.9,0.2,1.8,0.4,2.7,0.7
				c0.3,0.1,2.3,0.7,2.3,0.8c0,0-1.1-0.5-0.2-0.1c0.1,0.1,0.3,0.1,0.4,0.2c0.4,0.2,0.8,0.4,1.2,0.6c1.3,0.7,2.6,1.5,3.8,2.4
				c0.2,0.2,0.5,0.4,0.7,0.5c-1.3-0.9-0.4-0.3-0.1-0.1c0.5,0.4,0.9,0.7,1.3,1.1c1,0.9,1.9,1.9,2.9,2.8c3,2.7,7.5,1,7.8-3.1
				c0.2-2.4-2.2-4.6-4.5-4.5C277.6,204.6,275.9,206.5,275.7,209L275.7,209z"/>
		</g>
	</g>
	<g>
		<path class="st6" d="M333,255.4c-1.3,1.6-3,2.8-4.8,3.7c-0.1,0-8.4,3.6-16.1-1.5c-0.8-0.5-1.5-1.1-2.1-1.9"/>
		<g>
			<path class="st3" d="M329.9,252.2c-0.4,0.5-0.9,0.9-1.3,1.4c-0.1,0.1-1.1,0.8-0.3,0.3c-0.2,0.1-0.4,0.3-0.6,0.4
				c-0.3,0.2-0.7,0.4-1,0.6c-0.3,0.1-1.4,0.6-0.2,0.1c1-0.4,0.5-0.2,0.3-0.1c-1.2,0.4-2.4,0.5-3.6,0.9c0.3-0.1,1-0.1,0.3,0
				c-0.2,0-0.5,0-0.7,0.1c-0.5,0-1,0-1.5,0c-0.5,0-1.1,0-1.6-0.1c-1.1-0.1,0.6,0.1,0,0c-0.3-0.1-0.6-0.1-0.9-0.2
				c-0.6-0.1-1.2-0.3-1.8-0.5c-0.2-0.1-1.2-0.6-0.4-0.1c-0.3-0.2-0.6-0.3-0.9-0.5c-0.6-0.3-1.1-0.7-1.7-1.1
				c-0.4-0.3,0.5,0.5-0.1-0.1c-0.2-0.3-0.5-0.5-0.7-0.8c-1.5-1.8-4.8-1.7-6.4,0c-1.8,1.9-1.6,4.4,0,6.4c2.1,2.6,5.8,4.4,9,5.2
				c2.7,0.7,5.6,0.9,8.3,0.5c4.8-0.6,8.8-2.3,12.1-6.1c1.5-1.8,1.9-4.6,0-6.4C334.5,250.7,331.5,250.3,329.9,252.2L329.9,252.2z"/>
		</g>
	</g>
	<g>
		<path class="st6" d="M268.2,254.7c-4.1,3.2-13.5,4.9-19.6-1.6"/>
		<g>
			<path class="st3" d="M265.9,250.9c-0.5,0.4-1.1,0.8-1.7,1.1c-0.2,0.1-1.3,0.6-0.5,0.3c0.8-0.3,0.1-0.1-0.1,0
				c-0.2,0.1-0.4,0.1-0.6,0.2c-0.7,0.2-1.5,0.4-2.2,0.6c-0.2,0-0.9,0.1-0.1,0c0.8-0.1,0.1,0-0.1,0c-0.4,0-0.9,0.1-1.3,0.1
				c-0.4,0-0.8,0-1.2,0c-0.2,0-0.4,0-0.6-0.1c-0.9-0.1,0.8,0.2,0.3,0c-0.9-0.2-1.8-0.4-2.6-0.7c-0.2-0.1-0.9-0.3-0.2-0.1
				c0.7,0.2,0,0-0.2-0.1c-0.4-0.2-0.8-0.4-1.2-0.7c-0.2-0.1-0.5-0.4-0.7-0.5c0.3,0.1,0.7,0.6,0.1,0.1c-0.4-0.3-0.8-0.7-1.2-1.1
				c-1.6-1.7-4.7-1.8-6.4,0c-1.7,1.8-1.7,4.5,0,6.4c3.5,3.7,8.5,5.7,13.6,5.7c3.9,0,8.3-1,11.5-3.4c1-0.7,1.7-1.5,2.1-2.7
				c0.3-1.1,0.2-2.5-0.5-3.5C270.9,250.6,267.9,249.3,265.9,250.9L265.9,250.9z"/>
		</g>
	</g>
	<g>
		<path class="st6" d="M288.4,296.5c-0.2,0.3-0.3,0.7-0.3,1c0-0.1,0.2-0.1,0.4-0.2"/>
		<g>
			<path class="st3" d="M284.5,294.3c-0.1,0.1-0.1,0.2-0.1,0.3c-0.2,0.4-0.3,0.8-0.5,1.2c0,0,0,0.1,0,0.1c0,0,0,0.1,0,0.1
				c-0.1,0.4-0.1,0.9-0.2,1.3c0,0.1,0,0.2,0,0.3c0.1,0.4,0.1,0.8,0.2,1.2c0.1,0.6,0.4,1.1,0.8,1.5c0.2,0.3,0.5,0.6,0.8,0.8
				c0.4,0.4,0.9,0.7,1.5,0.8c0.4,0.1,0.8,0.1,1.2,0.2c0.4-0.1,0.8-0.1,1.2-0.2c0.6-0.1,1.1-0.4,1.5-0.8c0.5-0.3,0.9-0.7,1.2-1.3
				c0,0,0,0,0,0c-0.2,0.3-0.5,0.6-0.7,0.9c0,0,0,0,0.1-0.1c-0.3,0.2-0.6,0.5-0.9,0.7c0,0,0.1-0.1,0.2-0.1c-0.4,0.2-0.7,0.3-1.1,0.5
				c0,0,0.1,0,0.1-0.1c0.6-0.1,1.1-0.4,1.5-0.8c0.5-0.3,0.9-0.7,1.2-1.3c0.3-0.5,0.5-1.1,0.5-1.7c0.1-0.6,0.1-1.2-0.1-1.8
				c-0.2-0.4-0.3-0.7-0.5-1.1c-0.4-0.7-0.9-1.2-1.6-1.6c-0.4-0.2-0.7-0.3-1.1-0.5c-0.8-0.2-1.6-0.2-2.4,0c0,0-0.1,0-0.1,0
				c-0.3,0.1-0.8,0.3-1.1,0.5c0,0,0,0,0,0c0,0,0,0-0.1,0c0,0,0,0,0,0c0,0,0,0,0,0c-0.3,0.2-0.6,0.5-0.9,0.7c0,0,0,0,0,0c0,0,0,0,0,0
				c-0.1,0.1-0.6,0.8-0.4,0.5c0,0-0.3,0.3-0.4,0.5c2.8,0.8,5.6,1.5,8.4,2.3c0-0.1,0-0.2,0-0.3c-0.1,0.4-0.1,0.8-0.2,1.2
				c0-0.1,0.1-0.2,0.1-0.4c-0.2,0.4-0.3,0.7-0.5,1.1c0-0.1,0.1-0.2,0.2-0.3c0.3-0.5,0.5-1.1,0.5-1.7c0.1-0.6,0.1-1.2-0.1-1.8
				c-0.1-0.6-0.4-1.1-0.8-1.5c-0.3-0.5-0.7-0.9-1.3-1.2c-0.4-0.2-0.7-0.3-1.1-0.5c-0.8-0.2-1.6-0.2-2.4,0c-0.4,0.2-0.7,0.3-1.1,0.5
				C285.4,293,284.9,293.6,284.5,294.3L284.5,294.3z"/>
		</g>
	</g>
	<g class="st0">
		<path class="st7" d="M297.1,273.8c-0.4-0.3-0.8-0.5-1.3-0.6c-2.6-1-5.5-1-8.3-0.5c-1.8,0.3-3.6,0.9-5.3,1.7"/>
		<g class="st1">
			<path class="st3" d="M299.4,269.9c-5.9-3.5-13.4-2.2-19.4,0.5c-1,0.4-1.8,1.7-2.1,2.7c-0.3,1.1-0.2,2.5,0.5,3.5
				c0.6,1,1.5,1.8,2.7,2.1c1.2,0.3,2.3,0.1,3.5-0.5c0.2-0.1,0.5-0.2,0.7-0.3c-0.4,0.2-0.7,0.3-1.1,0.5c1.8-0.7,3.7-1.3,5.6-1.5
				c-0.4,0.1-0.8,0.1-1.2,0.2c1.5-0.2,3-0.2,4.5,0c-0.4-0.1-0.8-0.1-1.2-0.2c1,0.2,2,0.4,3,0.8c-0.4-0.2-0.7-0.3-1.1-0.5
				c0.4,0.2,0.7,0.3,1.1,0.6c2,1.2,5,0.5,6.2-1.6C302.2,273.9,301.6,271.2,299.4,269.9L299.4,269.9z"/>
		</g>
	</g>
	<g>
		<path class="st2" d="M276.2,206c7,5,15.4,17.8,36,30c19.7,11.7,44.6,9,51,8"/>
		<g>
			<path class="st3" d="M274,209.9c0.2,0.1,0.4,0.3,0.6,0.4c-0.4-0.2-0.9-0.7-0.3-0.2c0.4,0.3,0.8,0.7,1.2,1
				c0.8,0.8,1.7,1.5,2.5,2.3c1.9,1.9,3.8,3.8,5.7,5.7c5.4,5.4,11.2,10.4,17.4,14.9c7.3,5.3,15.1,9.6,23.8,12.2
				c7.4,2.1,15.1,3.1,22.8,3.2c5.6,0.1,11.2-0.3,16.7-1.1c2.3-0.4,3.8-3.4,3.1-5.5c-0.8-2.5-3-3.5-5.5-3.1c-0.3,0-0.7,0.1-1,0.1
				c-0.2,0,1.4-0.2,0.5-0.1c-0.2,0-0.4,0.1-0.7,0.1c-1,0.1-2,0.2-3,0.3c-2.7,0.2-5.4,0.3-8.2,0.4c-3.3,0-6.6-0.1-10-0.5
				c-0.4,0-0.8-0.1-1.2-0.1c-0.2,0-0.5-0.1-0.7-0.1c-0.1,0-0.7-0.1-0.1,0c0.6,0.1-0.7-0.1-0.9-0.1c-0.6-0.1-1.1-0.2-1.7-0.3
				c-1.9-0.3-3.7-0.7-5.6-1.2c-1.9-0.5-3.8-1-5.7-1.7c-0.9-0.3-1.9-0.7-2.8-1.1c-0.2-0.1-0.4-0.2-0.6-0.2c-0.7-0.3,0.6,0.3,0,0
				c-0.5-0.2-1-0.4-1.5-0.7c-4.1-1.9-7.9-4.4-11.6-6.9c-0.8-0.6-1.7-1.2-2.5-1.8c-0.4-0.3-0.8-0.6-1.2-0.9c-0.2-0.2-0.4-0.3-0.7-0.5
				c-0.1-0.1-0.9-0.7-0.2-0.2c-1.5-1.2-3-2.4-4.5-3.7c-2.6-2.2-5-4.5-7.4-6.8c-4.1-4-7.8-8.4-12.5-11.7c-1.9-1.4-5.1-0.4-6.2,1.6
				C271.1,206.1,271.9,208.4,274,209.9L274,209.9z"/>
		</g>
	</g>
	<g>
		<g>
			<path class="st6" d="M259.1,260.7c-2,0.2-4.1,0.8-5.6,2c-0.1-0.8-0.2-1.6-0.6-2.3l0.4,2.5c-0.6,0.5-1.1,1.2-1.4,2
				c-0.7,2.1,0.2,4.3,1.9,5.9c0.4,1.4,1.3,2.6,2.7,3.3c1.7,0.8,3.7,0.6,5.4-0.2c0.2,0,0.3,0.1,0.5,0.1l0.2-0.5
				c0.3-0.2,0.5-0.4,0.8-0.6c1.9-1.6,2.8-4,3.1-6.4c0.1-1.2,0-2.5-0.6-3.5C264.6,260.8,261.6,260.4,259.1,260.7z"/>
		</g>
		<g>
			<g>
				<path class="st3" d="M259.1,256.2c-1.4,0.2-2.9,0.3-4.3,0.8c-1.7,0.6-3,1.4-4.5,2.5c2.6,1.1,5.1,2.1,7.7,3.2
					c-0.1-1.7-0.5-3-1.2-4.6c-0.4-0.9-1.7-1.8-2.7-2.1c-1-0.2-2-0.2-2.9,0.2c-0.9,0.4-1.7,1-2.2,1.8c-0.6,1.1-0.7,2.2-0.5,3.5
					c0.1,0.8,0.3,1.6,0.4,2.5c0.4-1.5,0.8-2.9,1.2-4.4c-1.9,1.8-3.2,4.5-2.9,7.1c0.2,2.7,1.4,5.2,3.4,7.1c-0.4-0.7-0.8-1.3-1.2-2
					c0.9,2.8,2.8,5.1,5.5,6.3c3.1,1.3,6.3,0.8,9.2-0.5c-1.2,0.2-2.3,0.3-3.5,0.5c0.2,0,0.3,0.1,0.5,0.1c1,0.2,1.9,0.2,2.9-0.2
					c0.8-0.3,1.8-1,2.2-1.8c0.1-0.2,0.1-0.3,0.2-0.5c-0.5,0.5-1.1,1.1-1.6,1.6c4.6-3,7-8.9,5.8-14.2
					C269.6,257.8,264,255.7,259.1,256.2c-1.2,0.1-2.3,0.4-3.2,1.3c-0.8,0.8-1.4,2.1-1.3,3.2c0.1,2.2,2,4.7,4.5,4.5
					c0.9-0.1,1.9-0.1,2.8,0c-0.4-0.1-0.8-0.1-1.2-0.2c0.7,0.1,1.3,0.2,1.9,0.5c-0.4-0.2-0.7-0.3-1.1-0.5c0.4,0.2,0.8,0.4,1.1,0.6
					c-0.3-0.2-0.6-0.5-0.9-0.7c0.3,0.2,0.5,0.5,0.8,0.8c-0.2-0.3-0.5-0.6-0.7-0.9c0.2,0.2,0.3,0.5,0.4,0.7c-0.2-0.4-0.3-0.7-0.5-1.1
					c0.2,0.5,0.3,0.9,0.4,1.4c-0.1-0.4-0.1-0.8-0.2-1.2c0.1,0.7,0,1.4,0,2.1c0.1-0.4,0.1-0.8,0.2-1.2c-0.1,1-0.4,1.9-0.8,2.9
					c0.2-0.4,0.3-0.7,0.5-1.1c-0.3,0.7-0.7,1.3-1.1,2c0.2-0.3,0.5-0.6,0.7-0.9c-0.4,0.5-0.8,0.9-1.3,1.3c0.3-0.2,0.6-0.5,0.9-0.7
					c-0.8,0.6-1.8,1.1-2.2,2.1c-0.1,0.1-0.1,0.3-0.2,0.5c1.7-0.7,3.4-1.4,5.1-2.1c-0.8-0.1-1.5-0.3-2.3-0.2
					c-0.8,0.1-1.4,0.4-2.1,0.7c0.4-0.2,0.7-0.3,1.1-0.5c-0.5,0.2-1.1,0.4-1.7,0.4c0.4-0.1,0.8-0.1,1.2-0.2c-0.6,0.1-1.1,0.1-1.7,0
					c0.4,0.1,0.8,0.1,1.2,0.2c-0.5-0.1-0.9-0.2-1.4-0.4c0.4,0.2,0.7,0.3,1.1,0.5c-0.4-0.2-0.8-0.4-1.1-0.6c0.3,0.2,0.6,0.5,0.9,0.7
					c-0.3-0.3-0.6-0.6-0.9-0.9c0.2,0.3,0.5,0.6,0.7,0.9c-0.3-0.4-0.5-0.8-0.7-1.3c0.2,0.4,0.3,0.7,0.5,1.1c-0.4-0.9-0.6-1.8-1.4-2.6
					c-0.3-0.3-0.5-0.6-0.8-0.9c0.2,0.3,0.5,0.6,0.7,0.9c-0.4-0.5-0.7-1-0.9-1.6c0.2,0.4,0.3,0.7,0.5,1.1c-0.2-0.4-0.3-0.8-0.4-1.3
					c0.1,0.4,0.1,0.8,0.2,1.2c-0.1-0.4-0.1-0.9,0-1.3c-0.1,0.4-0.1,0.8-0.2,1.2c0.1-0.4,0.2-0.7,0.3-1.1c-0.2,0.4-0.3,0.7-0.5,1.1
					c0.2-0.3,0.3-0.7,0.5-1c-0.2,0.3-0.5,0.6-0.7,0.9c0.2-0.3,0.4-0.5,0.7-0.7c1-1.1,1.5-2.4,1.3-3.9c-0.1-0.4-0.1-0.8-0.2-1.2
					c-0.1-0.6-0.2-1.2-0.3-1.8c-2.7,1.2-5.5,2.3-8.2,3.5c0,0.1,0.1,0.1,0.1,0.2c-0.2-0.4-0.3-0.7-0.5-1.1c0.2,0.5,0.4,1,0.5,1.6
					c-0.1-0.4-0.1-0.8-0.2-1.2c0,0.2,0,0.3,0,0.5c0.2,1.8,1,3.4,2.8,4.1c0.8,0.3,1.5,0.4,2.3,0.3c1.1-0.1,1.7-0.6,2.6-1.2
					c0.1,0,0.1-0.1,0.2-0.1c-0.3,0.2-0.6,0.5-0.9,0.7c0.5-0.4,1.1-0.7,1.8-1c-0.4,0.2-0.7,0.3-1.1,0.5c1-0.4,2.1-0.7,3.2-0.8
					c-0.4,0.1-0.8,0.1-1.2,0.2c0.2,0,0.3,0,0.5-0.1c1.2-0.1,2.3-0.4,3.2-1.3c0.8-0.8,1.4-2.1,1.3-3.2c-0.1-1.2-0.4-2.4-1.3-3.2
					C261.5,256.7,260.3,256,259.1,256.2z"/>
			</g>
		</g>
	</g>
	<g>
		<g>
			<path class="st6" d="M328.5,266c-0.3-1-0.7-1.9-1.2-2.7c0-0.1-0.1-0.1-0.1-0.2c0.4-0.9,0.8-1.7,1.1-2.6l-1.3,2.4
				c-1.5-1.8-3.8-2.7-5.9-2.4c-2.3,0.3-4.4,1.8-5.9,4c-0.3,0.5-0.6,1-0.8,1.6c-0.2,0.8-0.3,1.7-0.3,2.6c0,1,0,2,0,3
				c0,0.6,0,1.1,0.2,1.6c0.5,1.2,1.9,1.4,2.9,2.2c0.7,0.6,1.3,1.6,2.2,1.9c0.4,0.1,0.9,0,1.3-0.1c0.7-0.2,1.4-0.5,2.1-0.8
				c0.2-0.1,0.4-0.1,0.6-0.2l0.1-0.1c1-0.5,2-1.2,2.8-2c0.7-0.6,1.3-1.3,1.7-2.1c0.2-0.5,0.3-0.9,0.4-1.4
				C328.8,269.2,328.9,267.6,328.5,266z"/>
		</g>
		<g>
			<g>
				<path class="st3" d="M332.8,264.9c-0.5-1.8-1.3-3.4-2.5-4.8c0.2,1.8,0.5,3.6,0.7,5.5c0.6-1.2,1.1-2.4,1.6-3.7
					c0.7-2.1-0.7-4.5-2.6-5.3c-2-0.9-4.5-0.1-5.6,1.8c-0.4,0.8-0.9,1.6-1.3,2.4c2.4-0.3,4.7-0.6,7.1-0.9c-1.4-1.6-3.5-2.9-5.7-3.4
					c-2.6-0.6-5.1-0.2-7.5,0.8c-1.9,0.9-3.6,2.3-4.8,4c-1.6,2.1-2.4,4.2-2.5,6.9c-0.1,2.3-0.4,5,0.5,7.1c0.6,1.4,1.5,2.5,2.8,3.3
					c0.2,0.2,0.5,0.3,0.8,0.4c0.2,0.1,0.3,0.2,0.5,0.3c0.1,0.1,0.2,0.1,0.3,0.2c0.4,0.3,0.2,0.2-0.4-0.3c0.1,0.2,0.5,0.5,0.7,0.7
					c0.5,0.5,1,1,1.6,1.4c1.6,1,3.3,1.1,5.1,0.7c1.1-0.2,2.2-0.7,3.2-1.2c-1.4,0.7,0.4-0.1,0.6-0.2c0.5-0.2,0.9-0.4,1.2-0.9
					c0.1-0.1-1.1,0.7-0.3,0.4c0.3-0.1,0.5-0.3,0.7-0.5c2.4-1.6,4.5-3.6,5.5-6.3C333.3,270.5,333.5,267.6,332.8,264.9
					c-0.6-2.3-3.3-3.9-5.5-3.1c-2.4,0.8-3.7,3.1-3.1,5.5c0,0.1,0.1,0.5,0.1,0.6c0,0-0.1-1-0.1-0.5c0,0.3,0,0.7,0,1c0,0,0,0.6,0,0.6
					c-0.1,0,0.2-1.2,0-0.3c-0.1,0.4-0.2,0.8-0.3,1.2c0,0.2-0.4,1.3-0.1,0.6c0.2-0.6,0-0.1,0,0c-0.1,0.6-0.1-0.2,0.2-0.2
					c-0.2,0-0.5,0.5-0.6,0.7c-0.3,0.3-0.6,0.5-0.9,0.7c-0.5,0.4,0.7-0.5,0.2-0.2c-0.1,0.1-0.2,0.2-0.4,0.2c-0.3,0.2-0.7,0.4-1,0.6
					c-0.4,0.2-2.2,1.5-0.5,0.5c1.6-1,0-0.1-0.4,0c-0.8,0.3,0.7-0.2,0.2-0.1c-0.3,0.1-0.6,0.2-0.9,0.3c-0.1,0-0.5,0.2-0.5,0.1
					c0.1,0.1,0.8-0.1,1,0c0.5,0.1,0.9,0.2,1.3,0.5c0.6,0.4,0.2,0.2,0.1,0c-0.2-0.3-0.4-0.5-0.7-0.7c-0.6-0.6-1.3-1.2-2.1-1.6
					c-0.2-0.1-0.5-0.2-0.7-0.4c-0.1-0.1-0.2-0.1-0.3-0.2c-0.6-0.3,0.1,0.1,0.3,0.3c-0.3-0.3-0.2-0.4,0.3,0.4c-0.1-0.2-0.2-0.4,0,0.1
					c0,0.1,0.2,1.3,0.2,0.8c0-0.1,0-0.3,0-0.4c0-0.9,0-1.7,0-2.6c0-0.4,0-0.7,0-1.1c0-0.2,0.1-0.9,0.1-1c0,0-0.2,0.9-0.1,0.5
					c0.1-0.2,0.1-0.4,0.1-0.5c0.1-0.4-0.2,0.4-0.2,0.5c0.1-0.1,0.2-0.4,0.3-0.6c0.2-0.3,0.4-0.5,0.5-0.8c-0.6,1-0.2,0.3,0.1,0
					c0.2-0.2,0.4-0.4,0.7-0.6c0.5-0.5-0.2,0.2-0.3,0.2c0.2,0,0.4-0.3,0.5-0.4c0.3-0.2,0.6-0.3,0.9-0.5c0.4-0.2-0.5,0.2-0.5,0.2
					c0.2,0,0.4-0.1,0.6-0.2c0.2,0,0.3-0.1,0.5-0.1c0.5-0.1-1.2,0.1-0.3,0.1c0.3,0,0.7-0.1,1,0c0,0-1.2-0.2-0.5,0
					c0.2,0,0.3,0.1,0.5,0.1c0.2,0,0.3,0.1,0.5,0.2c-0.2,0-0.9-0.4-0.4-0.1c0.1,0.1,0.3,0.2,0.4,0.3c0.7,0.4-0.6-0.5-0.2-0.2
					c0.3,0.3,0.6,0.5,0.8,0.8c1.9,2.2,5.7,1.5,7.1-0.9c0.4-0.8,0.9-1.6,1.3-2.4c-2.7-1.2-5.5-2.3-8.2-3.5c-0.1,0.2-0.1,0.4-0.2,0.6
					c-0.2,0.5-0.2,0.4,0.1-0.2c-0.1,0.4-0.4,0.8-0.5,1.2c-1,2-0.7,3.8,0.7,5.5c-0.2-0.3-0.6-0.8-0.2-0.2c0.1,0.2,0.2,0.4,0.3,0.6
					c0.3,0.6-0.1-0.2-0.1-0.3c0,0.2,0.2,0.6,0.2,0.8c0.6,2.3,3.2,3.9,5.5,3.1C332,269.6,333.5,267.3,332.8,264.9z"/>
			</g>
		</g>
	</g>
	<g class="st0">
		<path class="st8" d="M229.7,258c-5.3,0-5.5-2-5.5-9c0-4.5,3.7-10.1,5.5-11.7c1.8,1.6,5.5,7.2,5.5,11.7c0,0.6,0,1.2,0,1.8
			c0,2.7,0.1,5.1-0.9,6.1C233.4,257.8,231.3,258,229.7,258z"/>
		<path class="st9" d="M229.7,241.2c1.4,2.1,3,5.3,3,7.8c0,0.6,0,1.2,0,1.8c0,1.5,0.1,3.6-0.2,4.3c-0.2,0.1-1,0.4-2.8,0.4
			c-0.2,0-2.2,0-2.5-0.5c-0.5-1.1-0.5-3.7-0.5-6C226.7,246.6,228.3,243.4,229.7,241.2 M229.7,234.5c-2,0-8,8.1-8,14.5s0,11.5,8,11.5
			c9,0,8-5.1,8-11.5S231.7,234.5,229.7,234.5L229.7,234.5z"/>
	</g>
	<g>
		<line class="st10" x1="255.2" y1="202" x2="255.2" y2="240"/>
		<line class="st11" x1="255.2" y1="202" x2="255.2" y2="240"/>
	</g>
	<circle class="st12" cx="258.7" cy="267.5" r="6.5"/>
	<ellipse class="st12" cx="320.7" cy="268.3" rx="6.5" ry="6.3"/>
	<g>
		<line class="st10" x1="245.5" y1="202.6" x2="245.5" y2="245"/>
		<line class="st11" x1="245.5" y1="202.6" x2="245.5" y2="245"/>
	</g>
	<g>
		<line class="st10" x1="235.5" y1="205" x2="235.5" y2="249"/>
		<line class="st11" x1="235.5" y1="205" x2="235.5" y2="249"/>
	</g>
	<g>
		<line class="st10" x1="265.5" y1="199.7" x2="265.5" y2="231.5"/>
		<line class="st11" x1="265.5" y1="199.7" x2="265.5" y2="231.5"/>
	</g>
</g>
<g id="body">
	<g id="body_1_">
		<g>
			<g>
				<path class="st3" d="M259.7,330c-0.1,1,0,2,0,3c0,2.1,0,4.3,0,6.4c0,5.2,0.1,10.3,0.1,15.5c0,2,0,4-0.1,6
					c-0.1,2.4,2.1,4.6,4.5,4.5c2.5-0.1,4.4-2,4.5-4.5c0.3-9.1,0-18.2-0.1-27.2c0-1.2-0.1-2.5,0.1-3.8c0.3-2.3-2.3-4.6-4.5-4.5
					C261.5,325.6,260,327.5,259.7,330L259.7,330z"/>
			</g>
		</g>
		<g>
			<g>
				<path class="st3" d="M313.7,345c0.2,3.1,0.8,6,1.6,9c0.3,1.3,0.6,2.6,0.9,3.9c0.1,0.7,0.3,1.5,0.4,2.2c0.1,0.6-0.1-1.1,0-0.2
					c0,0.2,0,0.4,0.1,0.6c0.1,0.5,0.1,1,0.1,1.6c0.2,2.3,1.9,4.6,4.5,4.5c2.3-0.1,4.7-2,4.5-4.5c-0.3-3.4-0.8-6.7-1.6-10
					c-0.3-1.2-0.6-2.4-0.9-3.7c-0.1-0.6-0.2-1.3-0.3-1.9c-0.1-0.8-0.1,0.2,0,0.4c-0.1-0.1,0-0.4-0.1-0.5c0-0.4-0.1-0.9-0.1-1.3
					c-0.2-2.3-1.9-4.6-4.5-4.5C316,340.6,313.5,342.5,313.7,345L313.7,345z"/>
			</g>
		</g>
		<g>
			<g>
				<path class="st3" d="M239,376.9c12.5,7.1,24.7,14.6,37.1,21.8c3.1,1.8,6.2,3.8,9.5,5.2c4.8,2.1,9.7,2.7,14.7,0.8
					c4.5-1.6,8.8-4,12.9-6.3c3.5-1.9,6.9-3.9,10.4-6c7.9-4.7,15.7-9.5,23.9-13.5c2.1-1,2.9-4.2,1.6-6.2c-1.4-2.2-3.9-2.7-6.2-1.6
					c-14.4,7.1-27.6,16.4-42.1,23.5c-0.5,0.2-0.9,0.5-1.4,0.7c-0.3,0.1-0.5,0.2-0.8,0.4c0.1,0,0.5-0.2,0,0c-1,0.4-2.1,0.8-3.1,1
					c-0.3,0.1-0.6,0.1-0.9,0.2c0.2,0,0.8,0-0.1,0c-0.4,0-0.9,0-1.3,0c-0.9,0-0.3,0-0.1,0c-0.3,0-0.6-0.1-0.9-0.2
					c-0.6-0.1-1.1-0.3-1.7-0.5c-0.2-0.1-0.4-0.1-0.6-0.2c-0.1,0-0.9-0.4-0.5-0.2c0.4,0.2-0.3-0.1-0.3-0.1c-0.3-0.1-0.5-0.3-0.8-0.4
					c-1-0.5-2-1-2.9-1.6c-1.3-0.7-2.5-1.5-3.8-2.2c-6.1-3.5-12.2-7.2-18.3-10.8c-6.6-3.9-13.2-7.8-19.9-11.6c-2-1.2-5-0.6-6.2,1.6
					C236.2,372.9,236.8,375.7,239,376.9L239,376.9z"/>
			</g>
		</g>
		<g>
			<g>
				<path class="st3" d="M211.7,501c0,16.6,0.2,33.3,0.2,49.9c0,5.4,0,10.7-0.2,16.1c-0.1,2.4,2.1,4.6,4.5,4.5
					c2.5-0.1,4.4-2,4.5-4.5c0.6-18.8,0-37.7,0-56.5c0-3.2,0-6.3,0-9.5c0-2.4-2.1-4.6-4.5-4.5C213.8,496.6,211.7,498.5,211.7,501
					L211.7,501z"/>
			</g>
		</g>
		<g class="st0">
			<g class="st1">
				<path class="st3" d="M319,320.9c3.2,1.5,6.2,3.2,9.5,4.5c7.8,3.3,15.9,6,24.1,8.2c6.4,1.8,12.8,3.3,19.2,4.8
					c3.3,0.7,6.6,1.4,9.7,2.4c0.7,0.2,1.5,0.5,2.2,0.8c0.4,0.1,0.7,0.3,1.1,0.4c1.2,0.5-0.8-0.4,0.4,0.2c1.4,0.6,2.9,1.3,4.3,2.1
					c2.8,1.5,5.5,3.2,8.1,5.1c0.1,0.1,1.1,0.9,0.4,0.3c0.3,0.2,0.6,0.5,0.9,0.7c0.6,0.5,1.2,1,1.8,1.5c1.2,1.1,2.4,2.2,3.5,3.4
					c1,1.1,1.9,2.2,2.8,3.3c-0.6-0.8,0.1,0.2,0.2,0.3c0.2,0.3,0.4,0.6,0.6,0.9c0.5,0.7,0.9,1.4,1.4,2.1c1.7,2.8,3.5,5.4,5.5,8
					c7,8.9,16.1,15.8,24.8,23c1.7,1.4,3.5,2.9,5.1,4.5c1.3,1.3,2.4,2.7,3.7,4c3.9,4.1,9.3,1,12.7-1.9c4.5-3.9,8.1-8.9,11.5-13.7
					c4.3-6.1,8.2-12.5,11.8-19c3.1-5.7,6-11.6,8.3-17.7c0.4-1.1,0.8-2.2,1.2-3.3c0.2-0.6,0.4-1.1,0.5-1.7c0.1-0.3,0.2-0.6,0.2-0.8
					c0.2-0.7-0.6,1.2-0.3,0.7c0.4-0.6-0.9,1-0.4,0.5c0.4-0.4-1.2,0.8-0.4,0.4c0.1-0.1-1.4,0.4-0.4,0.2c0.1,0,0.2,0,0.3-0.1
					c0.8-0.2-1.3,0.1-0.6,0.1c0.5,0,1,0,1.5,0c0.3,0,0.6,0.1,0.9,0.1c0.7,0.1-1.3-0.2-0.5-0.1c0.2,0,0.5,0.1,0.7,0.1
					c1.6,0.3,3.1,0.7,4.7,1.1c3.7,1.1,7.3,2.4,10.9,3.8c3.5,1.3,6.9,2.7,10.4,4.1c2.2,0.9,4.5,1.9,6.8,2.3c2,0.4,3.9,0.3,5.4-1.2
					c1.7-1.6,1.8-4.8,0-6.4c-1.8-1.7-4.5-1.7-6.4,0c0.9-0.9,1.7-1.1,2.9-1.2c-0.1,0-0.2,0-0.4,0c1.6,0,0.8,0.1,0.1-0.1
					c-1.1-0.3-2.2-0.7-3.2-1.1c-3.2-1.2-6.4-2.5-9.5-3.7c-6.9-2.7-14-5.8-21.4-6.7c-3.2-0.4-6.9,0.1-8.8,3c-1.1,1.7-1.5,4.1-2.2,6
					c-0.4,1.1-0.8,2.3-1.3,3.4c-0.1,0.3-0.3,0.6-0.4,1c0.4-1.1,0,0.1-0.1,0.2c-0.3,0.7-0.6,1.3-0.9,2c-2.9,6.3-6.3,12.5-9.9,18.4
					c-1.9,3.1-3.9,6.2-6,9.3c-0.9,1.3-1.8,2.6-2.7,3.9c-0.5,0.7-1,1.3-1.5,2c-0.8,1.1,0.5-0.7-0.3,0.3c-0.3,0.4-0.6,0.8-1,1.2
					c-1.7,2-3.4,4-5.3,5.8c-0.3,0.3-0.7,0.6-1,0.9c-0.8,0.7,0.1-0.1,0.1-0.1c0,0-0.5,0.4-0.6,0.4c-0.3,0.2-0.7,0.4-1,0.6
					c-0.9,0.5,1.2-0.3,0,0c-1.2,0.3,1.1,0,0.2,0c-0.7,0,1.3,0.3,0.7,0.1c-0.6-0.2,1.2,0.6,0.6,0.3c-0.6-0.3,0.3-0.1,0.5,0.4
					c0-0.1-0.2-0.2-0.3-0.3c-0.2-0.3-0.5-0.7-0.8-1c-1.3-1.5-2.8-2.9-4.3-4.2c-8-7.2-16.8-13.4-24.2-21.3c-1-1.1-2-2.2-3-3.3
					c-0.4-0.5-0.9-1.1-1.3-1.6c-0.5-0.6,0.6,0.8-0.1-0.1c-0.3-0.4-0.6-0.8-0.9-1.2c-1.7-2.4-3.1-5-4.8-7.4
					c-3.9-5.5-8.8-10.1-14.4-14c-5.3-3.7-11.1-6.6-17.3-8.7c-3.2-1.1-6.5-1.7-9.8-2.4c-3.4-0.8-6.9-1.6-10.3-2.4
					c-9.3-2.3-18.5-4.9-27.5-8.4c-0.7-0.3-1.5-0.6-2.2-0.9c-0.3-0.1-0.6-0.2-0.9-0.3c-0.2-0.1-0.3-0.1-0.5-0.2
					c-0.7-0.3,1.2,0.5,0.3,0.1c-1.1-0.5-2.2-1-3.3-1.5c-1.5-0.7-3-1.5-4.5-2.2c-0.5-0.2-0.9-0.5-1.4-0.7c-2.1-1-5-0.7-6.2,1.6
					C316.3,316.8,316.7,319.8,319,320.9L319,320.9z"/>
			</g>
		</g>
		<g>
			<g>
				<path class="st3" d="M372.7,507c-0.7,16.2-1.8,32.4-1.5,48.7c0.1,3.8,0.2,7.6,0.5,11.3c0.2,2.3,1.9,4.6,4.5,4.5
					c2.3-0.1,4.7-2,4.5-4.5c-1.3-14.9-0.4-30,0.3-44.9c0.2-5,0.5-10.1,0.7-15.1c0.1-2.4-2.1-4.6-4.5-4.5
					C374.7,502.6,372.8,504.5,372.7,507L372.7,507z"/>
			</g>
		</g>
		<g class="st0">
			<g class="st1">
				<path class="st3" d="M375.1,427.2c1,1.2,2.5,2.1,3.8,3c2,1.5,4.1,2.9,6.3,4.2c6.1,3.9,12.3,7.7,18.6,11.3
					c6.8,3.9,13.7,7.6,20.8,10.8c5.5,2.5,11.4,5.3,17.6,5.9c2.6,0.2,5.3-0.4,7.8-0.9c5-1.1,9.8-2.7,14.5-4.8
					c5.5-2.4,10.4-5.6,15.3-9.1c4.9-3.5,9.7-7.1,14.3-11.1c6.3-5.6,11.1-12.5,15.2-19.8c4.5-8,8.3-16.5,11.8-25
					c5-12.2,9.4-24.7,13.3-37.4c0.1-0.4,0.2-0.8,0.4-1.2c0.7-2.2-0.8-5-3.1-5.5c-2.4-0.6-4.8,0.7-5.5,3.1
					c-3.3,10.7-6.8,21.2-10.9,31.7c-0.8,2-1.6,4-2.4,6c-0.4,1-0.8,1.9-1.2,2.9c0.5-1.2-0.2,0.4-0.3,0.7c-0.2,0.6-0.5,1.2-0.8,1.7
					c-1.8,4-3.6,8-5.6,12c-1.9,3.8-4,7.5-6.2,11.2c-1,1.6-2.1,3.2-3.2,4.8c-0.3,0.4-0.5,0.7-0.8,1c-0.8,1,0.5-0.7-0.2,0.3
					c-0.6,0.7-1.1,1.4-1.7,2.1c-3.3,3.8-7.2,6.9-11.1,10c0.7-0.6-0.3,0.3-0.4,0.3c-0.3,0.2-0.5,0.4-0.8,0.6
					c-0.6,0.4-1.2,0.9-1.8,1.3c-1.1,0.8-2.3,1.7-3.4,2.5c-2.3,1.6-4.5,3.3-6.9,4.8c-2.6,1.6-5.2,3-8,4.2c0,0-1.2,0.5-0.6,0.2
					c0.6-0.3-0.6,0.2-0.5,0.2c-0.6,0.2-1.2,0.5-1.8,0.7c-1.2,0.5-2.5,0.9-3.7,1.3c-2,0.6-4,1.2-6,1.6c-0.8,0.2-1.6,0.3-2.4,0.5
					c-0.3,0.1-0.6,0.1-0.9,0.1c-0.8,0.1,1.4-0.2,0.1,0c-0.8,0.1-1.6,0.1-2.4,0c-0.9-0.1,1.3,0.2,0.4,0.1c-0.2,0-0.5-0.1-0.7-0.1
					c-0.6-0.1-1.1-0.2-1.7-0.4c-1.2-0.3-2.5-0.7-3.7-1.2c-0.6-0.2-1.3-0.5-1.9-0.7c-0.7-0.3-1.5-0.8-2.3-0.9
					c1.1,0.2,0.7,0.3,0.2,0.1c-0.1-0.1-0.3-0.1-0.4-0.2c-0.4-0.2-0.7-0.3-1.1-0.5c-0.8-0.4-1.6-0.7-2.5-1.1c-1.7-0.8-3.4-1.6-5-2.4
					c-3.5-1.8-7-3.6-10.4-5.5c-6.6-3.6-13.1-7.4-19.4-11.4c-2.5-1.6-5-3.1-7.4-4.8c-0.9-0.6-1.8-1.2-2.7-1.9c-0.3-0.2-0.7-0.5-1-0.7
					c-0.8-0.6,0.6,0.5,0.4,0.3c-0.1-0.1-0.3-0.2-0.4-0.4c-0.3-0.3-0.7-0.6-0.9-0.9c-1.4-1.9-4.9-1.6-6.4,0
					C373.2,422.8,373.5,425.2,375.1,427.2L375.1,427.2z"/>
			</g>
		</g>
	</g>
	<g id="cloth" class="st0">
		<polygon class="st13" points="437.2,526 380.2,526 380.2,468 362.2,410 366.2,344 394.2,354 415.2,392 427.2,448 		"/>
		<path class="st13" d="M355.2,526h-127l-4-63l-1.1-4.4c-6.3-9.1-13.2-17.5-14.9-28.6c-1.7-11.2,1-25.9,6-36l5-12l19-49l45,26l62-24
			l21,5l-5,96L355.2,526z"/>
		<polygon class="st13" points="238.2,333 205.2,347 174.2,381 146.2,393 136.2,444.1 187.1,432.1 203.2,424 216.2,389 		"/>
		<polygon class="st13" points="156.2,418 133.2,444 108.2,420 78.2,353 113.2,340 		"/>
	</g>
	<g id="hand" class="st0">
		<g class="st1">
			<g>
				<path class="st3" d="M468.7,334.1c-4.8,7.7-7.9,16.4-11.1,24.9c-0.8,2-1.5,4.1-2.3,6.1c-0.4,1-0.8,2.1-1.2,3.1
					c-0.1,0.3-0.6,1.4-0.2,0.5c-0.3,0.6-0.5,1.2-0.8,1.8c-1.7,3.9-3.6,7.7-6,11.2c-0.3,0.5-0.7,1-1,1.5c-0.2,0.2-0.3,0.4-0.5,0.7
					c-0.2,0.2-0.8,1-0.1,0.1c-0.7,0.9-1.4,1.7-2.1,2.5c-0.8,0.9-1.7,1.7-2.6,2.5c-0.4,0.4-0.8,0.7-1.3,1.1c0,0-0.9,0.7-0.3,0.3
					c0.5-0.4-0.5,0.4-0.6,0.4c-1.9,1.4-3,4-1.6,6.2c1.2,1.9,4.1,3.1,6.2,1.6c15.5-11.1,20.2-30.4,27-47.2c0.1-0.3,0.3-0.7,0.4-1
					c0.1-0.2,0.5-1.2,0.1-0.2c0.2-0.5,0.5-1.1,0.7-1.6c0.5-1.2,1-2.3,1.6-3.5c1.1-2.2,2.3-4.4,3.6-6.6c1.2-2,0.5-5-1.6-6.2
					C472.6,331.3,470,331.9,468.7,334.1L468.7,334.1z"/>
			</g>
		</g>
		<path class="st14" d="M322.8,317.8l31,15l23,10c18.5,10.5,18.5,19.5,26,27c11.5,11.5,19.1,14.2,20,15l18,10"/>
		<g class="st1">
			<g>
				<path class="st3" d="M468.9,334.5c-1.8,4,1,6.3,4.2,7.8c2.9,1.4,5.9,2.6,8.9,3.8c6.8,2.8,13.7,5.5,20.5,8.3
					c-1.6-0.6-0.2-0.1,0.2,0.1c0.3,0.1,0.7,0.3,1,0.4c0.6,0.3,1.2,0.5,1.8,0.8c0.9,0.4,1.7,0.8,2.5,1.3c0.7,0.4,0.7,0.7-0.3-0.3
					c0,0,0.1,0.1,0.1,0.1c-0.5-0.5-1-1.2-1.1-1.9c0.1-0.6,0.1-1.1,0.2-1.7c0.5-1.7,0.5-2.2,0.1-1.5c-0.2,0.2-0.3,0.5-0.5,0.8
					c-1,1.7-2,3.5-2.9,5.3c-4.7,9.4-8.6,19.2-12.7,28.9c-0.5,1.3-1.1,2.6-1.7,3.9c-0.2,0.5-0.5,1.1-0.7,1.6c-0.1,0.3-0.3,0.7-0.4,1
					c0.5-1.1-0.2,0.4-0.2,0.6c-1,2.5-2.1,4.9-3.2,7.4c-2.1,4.7-4.2,9.4-6.5,13.9c-1.8,3.5-3.8,6.6-5.9,9.9c0.9-1.4,0.3-0.4,0,0
					c-0.2,0.3-0.5,0.6-0.7,0.9c-0.6,0.7-1.3,1.5-2,2.2c-1.7,1.8-3.4,3.4-5.2,5c-0.9,0.8-1.9,1.6-2.8,2.3c-0.9,0.7,0.8-0.6-0.1,0.1
					c-0.3,0.2-0.5,0.4-0.8,0.6c-0.6,0.5-1.3,0.9-1.9,1.3c-1,0.7-2,1.3-3,1.8c-0.5,0.3-1.1,0.6-1.7,0.8c-0.1,0-0.9,0.5-0.3,0.1
					c0.6-0.4-0.4,0.1-0.6,0.2c-1,0.4-2.1,0.5-3.2,0.8c1.1-0.4,0.6-0.1,0,0c-0.4,0-0.8,0.1-1.2,0.1c-1.5,0.1-3.1,0-4.6-0.1
					c-0.8-0.1-1.7-0.2-2.5-0.2c-0.2,0-1.7-0.2-0.8-0.1c0.9,0.1,0,0-0.1,0c-0.3,0-0.6-0.1-1-0.1c-2-0.3-4.1-0.7-6.1-1.1
					c-4.4-0.9-8.7-1.9-13-3.1c-8.7-2.3-17.3-4.9-25.8-7.7c-5.6-1.8-11.2-3.7-16.6-5.9c-0.3-0.1-0.5-0.2-0.8-0.3
					c1.8,0.7,0.9,0.4,0.5,0.2c-2.1-1-5-0.6-6.2,1.6c-1.1,2-0.6,5,1.6,6.2c4.3,2.1,9.1,3.5,13.6,5.1c8.3,2.8,16.6,5.5,25,7.9
					c8.5,2.4,17.2,4.6,25.9,5.9c3.7,0.5,7.4,1,11.1,0.9c5-0.2,9.5-2.1,13.7-4.8c4.6-2.9,8.7-6.5,12.5-10.4c2.7-2.7,5.1-5.6,7.1-8.9
					c5.2-8.4,9-17.7,12.9-26.7c2.3-5.5,4.6-11,6.9-16.5c0.3-0.6,0.5-1.3,0.8-1.9c0.1-0.2,0.5-1.3,0.1-0.2c0.1-0.2,0.2-0.4,0.3-0.6
					c0.6-1.4,1.2-2.7,1.7-4.1c1-2.4,2.1-4.8,3.1-7.1c1.8-4,3.7-8,5.9-11.8c0.7-1.2,1.4-2.3,1.4-3.7c0-1.3-0.5-2.5-1.4-3.4
					c-0.7-0.7-1.6-1.2-2.4-1.6c-6.1-3.1-12.6-5.4-18.9-7.9c-3.5-1.4-7-2.8-10.4-4.2c-0.2-0.1-1.5-0.6-0.6-0.2
					c0.9,0.4-0.3-0.1-0.5-0.2c-0.7-0.3-1.4-0.6-2.1-0.9c-1-0.4-1.9-0.9-2.9-1.4c-0.3-0.1-0.5-0.3-0.8-0.5c-0.6-0.4,1,0.9,0.6,0.5
					c1.2,1.2,1.5,3.2,0.6,5.2c1-2.1,0.7-4.9-1.6-6.2C473,331.8,469.9,332.2,468.9,334.5L468.9,334.5z"/>
			</g>
		</g>
		<g class="st1">
			<g>
				<path class="st3" d="M368.4,413.6c-0.9,6.3-1.3,12.6-1.5,18.9c-0.3,7.7-0.5,15.4-0.5,23.1c-0.2,13.9-0.1,27.9-0.2,41.8
					c-0.1,8.8-0.1,17.6,0.1,26.4c0.1,2.4,2,4.6,4.5,4.5c2.4-0.1,4.6-2,4.5-4.5c-0.5-15.4,0-30.8,0-46.2c0-13.9,0-27.9,0.5-41.8
					c0.1-3.9,0.3-7.8,0.6-11.7c0.1-1.7,0.2-3.3,0.4-5c0.1-0.7,0.1-1.4,0.2-2.1c0-0.4,0.1-0.7,0.1-1.1c0,0-0.2,1.3-0.1,0.6
					c0-0.2,0.1-0.4,0.1-0.6c0.4-2.3-0.6-5-3.1-5.5C371.8,409.9,368.8,411.1,368.4,413.6L368.4,413.6z"/>
			</g>
		</g>
		<g class="st1">
			<g>
				<path class="st3" d="M507.8,349.3c0-1.1,0.1-2.2,0.2-3.3c-0.1,0.4-0.1,0.8-0.2,1.2c0.5-3.8,1.6-7.4,2.3-11.2
					c0.2-1.2,0.2-2.4-0.5-3.5c-0.5-0.9-1.6-1.8-2.7-2.1c-2.2-0.5-5.1,0.7-5.5,3.1c-0.9,5.2-2.6,10.3-2.7,15.7c0,2.4,2.1,4.6,4.5,4.5
					C505.7,353.7,507.7,351.8,507.8,349.3L507.8,349.3z"/>
			</g>
		</g>
		<g class="st1">
			<g>
				<path class="st3" d="M545,294.1c0.1,0,0.9-0.3,0.9-0.3c0,0.1-1,0-0.5,0.1c0.1,0,0.3,0,0.4,0c0.1,0,0.3,0,0.4,0
					c0.5,0-0.5,0-0.5-0.1c0,0,0.9,0.3,1,0.3c0.5,0.1-0.4-0.1-0.4-0.2c0,0,0.4,0.2,0.4,0.2c0.3,0.1,0.5,0.3,0.8,0.4
					c0.2,0.1,1,0.5,0.4,0.2c-0.5-0.2-0.2-0.1,0,0c0.1,0.1,0.3,0.3,0.4,0.4c0.4,0.4,0.8,0.8,1.2,1.2c0.2,0.2,0.4,0.4,0.5,0.6
					c0.1,0.1,0.2,0.2,0.2,0.3c0.4,0.4-0.6-0.8-0.3-0.4c0.2,0.3,0.4,0.6,0.6,0.9c0.3,0.4-0.2-0.7-0.3-1c-0.1-0.7-0.1-0.5-0.1-0.2
					c0-0.1,0.2-1.2,0-0.6c-0.1,0.7,0.5-0.8,0.1-0.2c-0.1,0.2-0.3,0.5-0.4,0.7c-0.1,0.2-0.3,0.7-0.5,0.7c0,0,0.6-0.7,0.2-0.3
					c-0.1,0.2-0.3,0.3-0.4,0.5c-0.9,1-1.8,2-2.7,3c-0.9,1-1.8,1.9-2.8,2.7c-0.5,0.5-1.1,0.9-1.6,1.3c0.6-0.5,0,0-0.3,0.2
					c-0.4,0.3-0.7,0.5-1.1,0.7c-0.7,0.5-1.5,1-2.3,1.4c-0.4,0.2-0.8,0.4-1.2,0.6c-0.2,0.1-0.3,0.2-0.5,0.3c-0.1,0-0.8,0.4-0.3,0.2
					c0.5-0.2-0.1,0-0.2,0.1c-0.2,0.1-0.5,0.2-0.7,0.3c-0.4,0.2-0.9,0.3-1.3,0.4c-0.9,0.3-1.9,0.5-2.9,0.6c-2.3,0.4-3.8,3.4-3.1,5.5
					c0.8,2.5,3,3.5,5.5,3.1c7.7-1.2,14.3-6,19.5-11.5c2.4-2.6,5.4-5.5,5.9-9.1c0.5-3.4-2-6.3-4.3-8.4c-3.3-3.1-7.9-5.3-12.5-3.6
					c-2.2,0.8-3.9,3.1-3.1,5.5C540.1,293.1,542.6,295,545,294.1L545,294.1z"/>
			</g>
		</g>
		<g class="st1">
			<g>
				<path class="st3" d="M490,301.6c0.2-0.1,0.3-0.1,0.5-0.2c0.6-0.3-0.1,0.2-0.3,0.1c0.1,0.1,0.9-0.3,1-0.4
					c0.8-0.3,1.6-0.6,2.4-0.9c1.8-0.6,3.5-1.1,5.3-1.6c3.6-1,7.2-1.9,10.7-3.1c3.8-1.2,7.3-3.1,10.8-5.1c1.8-1,3.5-2,5.4-2.9
					c-0.9,0.5,0.6-0.2,1.1-0.4c0.2-0.1,0.5-0.2,0.7-0.4c0.7-0.4,1.4-0.8,2.1-1.2c1.4-0.8,2.8-1.7,4.2-2.5c0.7-0.4,1.4-0.8,2.1-1.1
					c1-0.5-0.6,0.2,0.2-0.1c0.4-0.1,0.8-0.3,1.2-0.4c0.2,0,0.3-0.1,0.5-0.1c0.5-0.2-1,0-0.5,0.1c0.1,0,0.8,0,0.7,0
					c0,0.1-1.1-0.3-0.2,0c0.2,0.1,0.4,0.1,0.7,0.2c0.3,0.1,1.4,0.6,0.6,0.2c0.4,0.2,0.8,0.4,1.3,0.7c0.1,0.1,0.3,0.2,0.4,0.3
					c0.5,0.3-0.5-0.5-0.1-0.1c0.3,0.3,0.6,0.6,0.9,0.9c0.6,0.6,0,0-0.1-0.1c0.1,0.2,0.3,0.5,0.4,0.7c0.3,0.5-0.2-0.7,0-0.1
					c0,0.1,0.1,0.4,0.2,0.5c-0.2-0.3-0.1-1.1,0-1.5c-0.1,0.6-0.1-0.2,0.2-0.4c-0.1,0-0.7,1.1-0.3,0.5c0.4-0.5,0,0-0.1,0.1
					c-0.2,0.2-0.4,0.4-0.6,0.6c-0.2,0.1-1,0.9-0.5,0.5c0.5-0.4-0.6,0.4-0.7,0.5c-0.5,0.3-1,0.6-1.5,0.9c-2.1,1.3-4,2.7-6.1,4
					c-4.4,2.6-8.9,5.1-13.5,7.5c-1.2,0.6-2.3,1.2-3.5,1.7c-0.1,0.1-0.9,0.4-0.3,0.1c0.6-0.2-0.2,0.1-0.3,0.1
					c-0.3,0.1-0.6,0.2-0.8,0.3c-0.2,0.1-0.5,0.1-0.7,0.1c0.1,0,1.3-0.2,0.4-0.1c-0.9,0.1-1.8,0.2-2.7,0.5c-2.3,0.7-3.9,3.2-3.1,5.5
					c0.7,2.3,3.1,3.8,5.5,3.1c0.3-0.1,0.6-0.2,0.9-0.2c0.1,0,0.2,0,0.3-0.1c0.6-0.2-0.8,0.1-0.7,0.1c0.8-0.1,1.6-0.2,2.4-0.3
					c2-0.5,4-1.5,5.9-2.5c4.4-2.2,8.7-4.7,13-7.1c2.7-1.5,5.2-3.3,7.8-5c3.1-2,6.8-4.3,7.8-8.1c1.4-5.5-4-10.2-8.5-12.1
					c-2.1-0.9-4.4-1.2-6.7-0.7c-1.9,0.4-3.7,1.3-5.4,2.1c-1.6,0.8-3.1,1.8-4.7,2.7c-0.7,0.4-1.3,0.8-2,1.2c-0.3,0.2-0.6,0.3-0.9,0.5
					c-0.2,0.1-0.7,0.3,0,0c0.5-0.2,0.5-0.2,0,0c-0.4,0.2-0.7,0.3-1.1,0.5c-2.1,0.9-4.1,2.1-6.1,3.2c-1,0.6-1.9,1.1-2.9,1.7
					c-0.5,0.3-0.9,0.5-1.4,0.8c-0.2,0.1-0.5,0.2-0.7,0.3c-0.1,0.1-1.1,0.5-0.4,0.2c0.6-0.3,0,0-0.1,0c-0.2,0.1-0.4,0.2-0.7,0.3
					c-0.5,0.2-0.9,0.3-1.4,0.5c-1,0.3-2,0.6-3,0.9c-2.2,0.6-4.3,1.2-6.5,1.8c-4.4,1.2-8.8,2.4-12.9,4.3c-2.1,1-2.9,4.2-1.6,6.2
					C485.3,302.2,487.7,302.7,490,301.6L490,301.6z"/>
			</g>
		</g>
		<g class="st1">
			<g>
				<path class="st3" d="M531.8,318.3c3.2,0.4,6.4,0,9.6-0.4c3.1-0.4,5.9-0.9,8.8-2.1c2.1-0.9,3.9-2.2,5.8-3.5
					c1.8-1.2,3.6-2.3,5.4-3.4c0.5-0.3-1.1,0.4-0.3,0.1c0.2-0.1,0.4-0.2,0.7-0.2c0.2-0.1,0.4-0.1,0.7-0.2c0.6-0.2-0.2,0.4-0.5,0.1
					c0,0,0.6,0,0.6,0c0.8-0.1-1.1-0.4-0.3,0c0.1,0,0.3,0.1,0.4,0.1c0.6,0.1-1-0.6,0,0c0.7,0.5-0.8-0.8-0.1-0.1
					c0.1,0.1,0.3,0.3,0.4,0.4c0.2,0.2,0.4,0.5,0.6,0.7c-0.4-0.3-0.6-0.8-0.8-1.3c0.3,0.9,0-0.9,0-0.4c0,0.3-0.1,0.7,0,1
					c0-1.3,0.2-0.9,0-0.5c0,0.2-0.1,0.4-0.1,0.6c-0.1,0.4-0.2,0.7-0.3,1.1c-0.3,1-0.7,1.9-1,2.8c0.5-1.3,0,0.1-0.2,0.4
					c-0.2,0.5-0.4,0.9-0.6,1.4c-0.5,0.9-0.9,1.9-1.4,2.8c-0.8,1.5-1.7,3.1-2.7,4.5c-0.3,0.4-1,1,0.1-0.1c-0.1,0.1-0.3,0.3-0.4,0.5
					c-0.6,0.7,0.6-0.4,0.4-0.3c-0.2,0.1-0.4,0.2-0.6,0.3c-0.3,0.2,1.3-0.5,0.3-0.1c-0.3,0.1-0.6,0.2-1,0.3c-0.7,0.2-1.4,0.4-2.2,0.5
					c-1.9,0.4-3.8,0.7-5.7,1c-0.5,0.1-0.9,0.1-1.4,0.2c-0.3,0-0.6,0.1-0.9,0.1c-1,0.1,1.1-0.1,0,0c-1.1,0.1-2.1,0.3-3.2,0.4
					c-4,0.5-8,0.9-12,1.2c-3.5,0.3-7.1,0.6-10.6,1c-2.5,0.3-5,0.7-7.6,0.9c-1,0.1-2,0.2-3.1,0.3c-0.7,0.1-2.8-0.2-0.6,0.2
					c-2.3-0.4-5,0.6-5.5,3.1c-0.5,2.2,0.7,5.1,3.1,5.5c1.7,0.3,3.3,0.1,5-0.1c2.4-0.3,4.7-0.6,7.1-0.9c3.5-0.4,7-0.8,10.6-1.1
					c8.7-0.7,17.4-1.4,25.9-3.1c2.9-0.6,6.4-1.3,8.4-3.7c2.6-3.1,4.5-6.8,6.2-10.4c1.7-3.7,4.3-9.1,2.1-13.1
					c-1.3-2.4-3.9-4.4-6.5-4.9c-2.8-0.6-5.4,0.2-7.9,1.4c-2.3,1.2-4.4,2.8-6.6,4.3c-1.1,0.7-2.2,1.4-3.4,2c-0.1,0.1-0.7,0.4-0.8,0.4
					c0.6-0.3,0.7-0.3,0.3-0.1c-0.2,0.1-0.4,0.1-0.6,0.2c-0.6,0.2-1.1,0.3-1.7,0.4c-1,0.2-2.1,0.3-3.1,0.5c-0.4,0.1-0.8,0.1-1.2,0.2
					c1.2-0.2-0.3,0-0.5,0.1c-1.1,0.1-2.2,0.2-3.4,0.3c-1.2,0-2.4,0-3.7-0.2c-2.3-0.3-4.6,2.3-4.5,4.5
					C527.4,316.4,529.2,318,531.8,318.3L531.8,318.3z"/>
			</g>
		</g>
		<g class="st1">
			<g>
				<path class="st3" d="M501.6,303.5c-0.9-1.7-2.9-2.8-4.5-3.8c-1.9-1.2-3.9-2.2-5.9-3.4c-1-0.5-1.9-1.1-2.8-1.7
					c-0.3-0.2-0.7-0.4-1-0.6c-0.1-0.1-0.3-0.2-0.4-0.3c-0.7-0.4,0.9,0.8,0.4,0.3c-0.1-0.1-0.2-0.2-0.2-0.2c-0.4-0.2,0.6,0.7,0.5,0.7
					c0.1,0.1,0.3,1.1,0.2,0.4c0-0.2-0.2-1.2-0.1-0.3c0.1,0.8,0,0,0-0.2c0-0.2,0-0.5,0-0.7c0-0.6,0.1-1.3,0.1-1.9
					c0-0.5-0.1,0.5-0.1,0.5c0-0.1,0-0.3,0.1-0.4c0-0.3,0.1-0.6,0.1-0.9c0.1-0.7,0.3-1.4,0.4-2.1c0.3-1.3,0.5-2.7,0.8-4
					c0.5-2.9,0.9-5.9,0.4-8.8c-0.5-2.7-2.4-4.6-5.1-5.1c-2.5-0.4-5-0.4-7.5-0.1c-3.1,0.4-6.3,1.1-9,2.8c-2.4,1.5-3.9,3.4-4.8,6
					c-1.5,4-1.5,8.6-1.3,12.8c0.2,5,0.7,9.9,1.4,14.8c0.2,1.7,0.5,3.4,0.8,5.1c0.1,0.6,0.2,1.1,0.3,1.7c0.1,0.3,0.2,1.6,0.1,0.3
					c-0.2-1.5,0,0.5,0.1,0.7c0.1,0.3,0.3,0.9,0.5,1.2c0.2,0.5,0.6,0.9,0.9,1.3c0.4,0.5,0.8,0.9,1.3,1.3c1.7,1.5,3.5,2.9,5.3,4.3
					c1.7,1.3,3.4,2.5,5.2,3.7c1.4,0.9,2.9,2,4.5,2.4c1.7,0.5,3.6,0.1,4.8-1.1c1.7-1.7,1.8-4.7,0-6.4c-1.8-1.6-4.6-1.8-6.4,0
					c1.3-1.3,2.7-1.4,4.1-1.1c-0.1,0-0.1,0-0.2-0.1c-0.5-0.2,1.2,0.6,0.7,0.3c-0.1-0.1-0.2-0.1-0.3-0.2c-0.6-0.4-1.3-0.7-1.9-1.1
					c-1.6-1-3.1-2.1-4.7-3.2c-0.4-0.3-0.8-0.6-1.2-0.9c-0.2-0.2-0.4-0.3-0.6-0.5c1.1,0.8,0.4,0.3,0.1,0.1c-0.7-0.6-1.4-1.1-2.1-1.7
					c-0.5-0.5-1.1-0.9-1.6-1.4c-0.2-0.2-0.3-0.4-0.5-0.6c-0.6-0.5,0.7,1.1,0.4,0.4c0.4,0.7,0.8,3.8,0.4,0.8c0-0.1,0-0.2-0.1-0.4
					c-0.1-0.5-0.1-0.9-0.2-1.4c-0.2-1.4-0.4-2.8-0.6-4.2c-0.1-0.4-0.1-0.9-0.2-1.3c-0.1-0.9,0.1,1,0.1,0.4c0-0.2-0.1-0.4-0.1-0.6
					c-0.1-1.1-0.3-2.2-0.4-3.3c-0.2-2.2-0.4-4.3-0.6-6.5c-0.1-2.1-0.2-4.3-0.1-6.4c0-1,0.1-2,0.2-2.9c0-0.2,0-0.5,0.1-0.7
					c0.1-0.5,0.4-0.7,0,0.3c0.2-0.4,0.2-1,0.3-1.4c0.1-0.7,0.4-1.3,0.6-2c0.2-0.7-0.6,1.1-0.2,0.5c0.1-0.1,0.1-0.3,0.2-0.4
					c0.1-0.1,0.2-0.2,0.2-0.4c0.3-0.5-0.9,0.9-0.3,0.4c0.2-0.1,0.3-0.3,0.5-0.5c0.7-0.7-0.9,0.5,0,0c0.5-0.3,1-0.6,1.5-0.9
					c0.6-0.3-0.3,0.1-0.3,0.1c0-0.1,0.7-0.3,0.8-0.3c0.7-0.2,1.3-0.4,2-0.6c0.3-0.1,0.6-0.1,0.9-0.2c0.5-0.1,1,0.1,0,0
					c0.5,0.1,1.2-0.1,1.7-0.2c1-0.1,2-0.1,3,0c0.2,0,0.4,0,0.6,0.1c0.8,0-1.2-0.3-0.5-0.1c0.3,0.1,0.6,0.2,0.8,0.2
					c0.6,0.1-1.2-0.6-0.7-0.3c0.8,0.5-1.9-2.3-1.3-1.3c-0.7-1.3-0.3-0.7-0.2-0.3c0,0.1,0.1,0.3,0.1,0.4c0.1,0.5,0.1,0.3-0.1-0.5
					c-0.1,0.1,0.1,1.1,0.1,1.2c0,0.5,0,1.1-0.1,1.6c0,0.2-0.1,0.6-0.1,0.8c0-0.2,0.1-0.4,0.1-0.6c0,0.2-0.1,0.4-0.1,0.6
					c-0.1,0.7-0.2,1.4-0.4,2.1c-0.5,2.7-1.1,5.4-1.4,8.2c-0.3,2.8-0.3,6.2,1.7,8.4c1.3,1.3,3,2.3,4.6,3.2c2,1.2,4.1,2.3,6.2,3.5
					c0.9,0.5,1.8,1,2.6,1.6c0.1,0.1,0.3,0.2,0.4,0.3c0.8,0.5-0.8-0.7-0.3-0.3c0.8,0.8-0.4-0.8-0.2-0.4c1.1,2.1,4.2,2.9,6.2,1.6
					C502.2,308.3,502.8,305.7,501.6,303.5L501.6,303.5z"/>
			</g>
		</g>
		<g class="st1">
			<g>
				<path class="st3" d="M480,322.5c-1.2,2.6-2.1,5.3-3.1,8c-0.5,1.5-1.1,2.9-1.6,4.4c-0.3,0.9-0.7,1.8-0.9,2.7
					c-0.2,1.2-0.2,2.4,0.5,3.5c0.5,0.9,1.6,1.8,2.7,2.1c2.2,0.5,5-0.7,5.5-3.1c0.2-0.8,0.5-1.7,0.8-2.5c0.5-1.4,1-2.8,1.5-4.1
					c0.9-2.4,1.8-4.8,2.8-7.1c-0.2,0.4-0.3,0.7-0.5,1.1c0-0.1,0.1-0.2,0.1-0.3c0.5-1.1,0.8-2.2,0.5-3.5c-0.3-1-1.1-2.2-2.1-2.7
					c-1-0.6-2.3-0.8-3.5-0.5C481.7,320.8,480.5,321.4,480,322.5L480,322.5z"/>
			</g>
		</g>
	</g>
	<g id="handのコピー" class="st0">
		<g class="st1">
			<g>
				<path class="st3" d="M531.3,347.5c0-1.1,0.1-2.2,0.2-3.3c-0.1,0.4-0.1,0.8-0.2,1.2c0.5-3.8,1.6-7.4,2.3-11.2
					c0.2-1.2,0.2-2.4-0.5-3.5c-0.5-0.9-1.6-1.8-2.7-2.1c-2.2-0.5-5.1,0.7-5.5,3.1c-0.9,5.2-2.6,10.3-2.7,15.7c0,2.4,2.1,4.6,4.5,4.5
					C529.3,351.9,531.3,350.1,531.3,347.5L531.3,347.5z"/>
			</g>
		</g>
		<g class="st1">
			<g>
				<path class="st3" d="M568.5,292.4c0.1,0,0.9-0.3,0.9-0.3c0,0.1-1,0-0.5,0.1c0.1,0,0.3,0,0.4,0c0.1,0,0.3,0,0.4,0
					c0.5,0-0.5,0-0.5-0.1c0,0,0.9,0.3,1,0.3c0.5,0.1-0.4-0.1-0.4-0.2c0,0,0.4,0.2,0.4,0.2c0.3,0.1,0.5,0.3,0.8,0.4
					c0.2,0.1,1,0.5,0.4,0.2c-0.5-0.2-0.2-0.1,0,0c0.1,0.1,0.3,0.3,0.4,0.4c0.4,0.4,0.8,0.8,1.2,1.2c0.2,0.2,0.4,0.4,0.5,0.6
					c0.1,0.1,0.2,0.2,0.2,0.3c0.4,0.4-0.6-0.8-0.3-0.4c0.2,0.3,0.4,0.6,0.6,0.9c0.3,0.4-0.2-0.7-0.3-1c-0.1-0.7-0.1-0.5-0.1-0.2
					c0-0.1,0.2-1.2,0-0.6c-0.1,0.7,0.5-0.8,0.1-0.2c-0.1,0.2-0.3,0.5-0.4,0.7c-0.1,0.2-0.3,0.7-0.5,0.7c0,0,0.6-0.7,0.2-0.3
					c-0.1,0.2-0.3,0.3-0.4,0.5c-0.9,1-1.8,2-2.7,3c-0.9,1-1.8,1.9-2.8,2.7c-0.5,0.5-1.1,0.9-1.6,1.3c0.6-0.5,0,0-0.3,0.2
					c-0.4,0.3-0.7,0.5-1.1,0.7c-0.7,0.5-1.5,1-2.3,1.4c-0.4,0.2-0.8,0.4-1.2,0.6c-0.2,0.1-0.3,0.2-0.5,0.3c-0.1,0-0.8,0.4-0.3,0.2
					c0.5-0.2-0.1,0-0.2,0.1c-0.2,0.1-0.5,0.2-0.7,0.3c-0.4,0.2-0.9,0.3-1.3,0.4c-0.9,0.3-1.9,0.5-2.9,0.6c-2.3,0.4-3.8,3.4-3.1,5.5
					c0.8,2.5,3,3.5,5.5,3.1c7.7-1.2,14.3-6,19.5-11.5c2.4-2.6,5.4-5.5,5.9-9.1c0.5-3.4-2-6.3-4.3-8.4c-3.3-3.1-7.9-5.3-12.5-3.6
					c-2.2,0.8-3.9,3.1-3.1,5.5C563.7,291.4,566.2,293.2,568.5,292.4L568.5,292.4z"/>
			</g>
		</g>
		<g class="st1">
			<g>
				<path class="st3" d="M513.6,299.9c0.2-0.1,0.3-0.1,0.5-0.2c0.6-0.3-0.1,0.2-0.3,0.1c0.1,0.1,0.9-0.3,1-0.4
					c0.8-0.3,1.6-0.6,2.4-0.9c1.8-0.6,3.5-1.1,5.3-1.6c3.6-1,7.2-1.9,10.7-3.1c3.8-1.2,7.3-3.1,10.8-5.1c1.8-1,3.5-2,5.4-2.9
					c-0.9,0.5,0.6-0.2,1.1-0.4c0.2-0.1,0.5-0.2,0.7-0.4c0.7-0.4,1.4-0.8,2.1-1.2c1.4-0.8,2.8-1.7,4.2-2.5c0.7-0.4,1.4-0.8,2.1-1.1
					c1-0.5-0.6,0.2,0.2-0.1c0.4-0.1,0.8-0.3,1.2-0.4c0.2,0,0.3-0.1,0.5-0.1c0.5-0.2-1,0-0.5,0.1c0.1,0,0.8,0,0.7,0
					c0,0.1-1.1-0.3-0.2,0c0.2,0.1,0.4,0.1,0.7,0.2c0.3,0.1,1.4,0.6,0.6,0.2c0.4,0.2,0.8,0.4,1.3,0.7c0.1,0.1,0.3,0.2,0.4,0.3
					c0.5,0.3-0.5-0.5-0.1-0.1c0.3,0.3,0.6,0.6,0.9,0.9c0.6,0.6,0,0-0.1-0.1c0.1,0.2,0.3,0.5,0.4,0.7c0.3,0.5-0.2-0.7,0-0.1
					c0,0.1,0.1,0.4,0.2,0.5c-0.2-0.3-0.1-1.1,0-1.5c-0.1,0.6-0.1-0.2,0.2-0.4c-0.1,0-0.7,1.1-0.3,0.5c0.4-0.5,0,0-0.1,0.1
					c-0.2,0.2-0.4,0.4-0.6,0.6c-0.2,0.1-1,0.9-0.5,0.5c0.5-0.4-0.6,0.4-0.7,0.5c-0.5,0.3-1,0.6-1.5,0.9c-2.1,1.3-4,2.7-6.1,4
					c-4.4,2.6-8.9,5.1-13.5,7.5c-1.2,0.6-2.3,1.2-3.5,1.7c-0.1,0.1-0.9,0.4-0.3,0.1c0.6-0.2-0.2,0.1-0.3,0.1
					c-0.3,0.1-0.6,0.2-0.8,0.3c-0.2,0.1-0.5,0.1-0.7,0.1c0.1,0,1.3-0.2,0.4-0.1c-0.9,0.1-1.8,0.2-2.7,0.5c-2.3,0.7-3.9,3.2-3.1,5.5
					c0.7,2.3,3.1,3.8,5.5,3.1c0.3-0.1,0.6-0.2,0.9-0.2c0.1,0,0.2,0,0.3-0.1c0.6-0.2-0.8,0.1-0.7,0.1c0.8-0.1,1.6-0.2,2.4-0.3
					c2-0.5,4-1.5,5.9-2.5c4.4-2.2,8.7-4.7,13-7.1c2.7-1.5,5.2-3.3,7.8-5c3.1-2,6.8-4.3,7.8-8.1c1.4-5.5-4-10.2-8.5-12.1
					c-2.1-0.9-4.4-1.2-6.7-0.7c-1.9,0.4-3.7,1.3-5.4,2.1c-1.6,0.8-3.1,1.8-4.7,2.7c-0.7,0.4-1.3,0.8-2,1.2c-0.3,0.2-0.6,0.3-0.9,0.5
					c-0.2,0.1-0.7,0.3,0,0c0.5-0.2,0.5-0.2,0,0c-0.4,0.2-0.7,0.3-1.1,0.5c-2.1,0.9-4.1,2.1-6.1,3.2c-1,0.6-1.9,1.1-2.9,1.7
					c-0.5,0.3-0.9,0.5-1.4,0.8c-0.2,0.1-0.5,0.2-0.7,0.3c-0.1,0.1-1.1,0.5-0.4,0.2c0.6-0.3,0,0-0.1,0c-0.2,0.1-0.4,0.2-0.7,0.3
					c-0.5,0.2-0.9,0.3-1.4,0.5c-1,0.3-2,0.6-3,0.9c-2.2,0.6-4.3,1.2-6.5,1.8c-4.4,1.2-8.8,2.4-12.9,4.3c-2.1,1-2.9,4.2-1.6,6.2
					C508.9,300.5,511.3,301,513.6,299.9L513.6,299.9z"/>
			</g>
		</g>
		<g class="st1">
			<g>
				<path class="st3" d="M555.3,316.5c3.2,0.4,6.4,0,9.6-0.4c3.1-0.4,5.9-0.9,8.8-2.1c2.1-0.9,3.9-2.2,5.8-3.5
					c1.8-1.2,3.6-2.3,5.4-3.4c0.5-0.3-1.1,0.4-0.3,0.1c0.2-0.1,0.4-0.2,0.7-0.2c0.2-0.1,0.4-0.1,0.7-0.2c0.6-0.2-0.2,0.4-0.5,0.1
					c0,0,0.6,0,0.6,0c0.8-0.1-1.1-0.4-0.3,0c0.1,0,0.3,0.1,0.4,0.1c0.6,0.1-1-0.6,0,0c0.7,0.5-0.8-0.8-0.1-0.1
					c0.1,0.1,0.3,0.3,0.4,0.4c0.2,0.2,0.4,0.5,0.6,0.7c-0.4-0.3-0.6-0.8-0.8-1.3c0.3,0.9,0-0.9,0-0.4c0,0.3-0.1,0.7,0,1
					c0-1.3,0.2-0.9,0-0.5c0,0.2-0.1,0.4-0.1,0.6c-0.1,0.4-0.2,0.7-0.3,1.1c-0.3,1-0.7,1.9-1,2.8c0.5-1.3,0,0.1-0.2,0.4
					c-0.2,0.5-0.4,0.9-0.6,1.4c-0.5,0.9-0.9,1.9-1.4,2.8c-0.8,1.5-1.7,3.1-2.7,4.5c-0.3,0.4-1,1,0.1-0.1c-0.1,0.1-0.3,0.3-0.4,0.5
					c-0.6,0.7,0.6-0.4,0.4-0.3c-0.2,0.1-0.4,0.2-0.6,0.3c-0.3,0.2,1.3-0.5,0.3-0.1c-0.3,0.1-0.6,0.2-1,0.3c-0.7,0.2-1.4,0.4-2.2,0.5
					c-1.9,0.4-3.8,0.7-5.7,1c-0.5,0.1-0.9,0.1-1.4,0.2c-0.3,0-0.6,0.1-0.9,0.1c-1,0.1,1.1-0.1,0,0c-1.1,0.1-2.1,0.3-3.2,0.4
					c-4,0.5-8,0.9-12,1.2c-3.5,0.3-7.1,0.6-10.6,1c-2.5,0.3-5,0.7-7.6,0.9c-1,0.1-2,0.2-3.1,0.3c-0.7,0.1-2.8-0.2-0.6,0.2
					c-2.3-0.4-5,0.6-5.5,3.1c-0.5,2.2,0.7,5.1,3.1,5.5c1.7,0.3,3.3,0.1,5-0.1c2.4-0.3,4.7-0.6,7.1-0.9c3.5-0.4,7-0.8,10.6-1.1
					c8.7-0.7,17.4-1.4,25.9-3.1c2.9-0.6,6.4-1.3,8.4-3.7c2.6-3.1,4.5-6.8,6.2-10.4c1.7-3.7,4.3-9.1,2.1-13.1
					c-1.3-2.4-3.9-4.4-6.5-4.9c-2.8-0.6-5.4,0.2-7.9,1.4c-2.3,1.2-4.4,2.8-6.6,4.3c-1.1,0.7-2.2,1.4-3.4,2c-0.1,0.1-0.7,0.4-0.8,0.4
					c0.6-0.3,0.7-0.3,0.3-0.1c-0.2,0.1-0.4,0.1-0.6,0.2c-0.6,0.2-1.1,0.3-1.7,0.4c-1,0.2-2.1,0.3-3.1,0.5c-0.4,0.1-0.8,0.1-1.2,0.2
					c1.2-0.2-0.3,0-0.5,0.1c-1.1,0.1-2.2,0.2-3.4,0.3c-1.2,0-2.4,0-3.7-0.2c-2.3-0.3-4.6,2.3-4.5,4.5
					C550.9,314.7,552.8,316.2,555.3,316.5L555.3,316.5z"/>
			</g>
		</g>
		<g class="st1">
			<g>
				<path class="st3" d="M522.1,301.8c-0.9-1.8-3.1-3.2-4.7-4.4c-0.9-0.7-1.8-1.3-2.7-2c-0.4-0.3-0.9-0.6-1.3-1
					c-0.2-0.2-0.4-0.3-0.6-0.5c-0.2-0.1-1-0.7-0.3-0.2c0.6,0.5,0,0-0.2-0.1c-0.2-0.1-0.3-0.3-0.5-0.4c-0.3-0.3-0.6-0.5-0.9-0.8
					c-0.2-0.1-0.5-0.6,0.1,0.1c0.6,0.8,0-0.2,0.4,0.6c0.3,0.8,0.1,0.1,0-0.1c0-0.1,0-0.2-0.1-0.3c-0.2-0.6,0.1,0.5,0.1,0.5
					c0.1-0.3,0-1.1,0-1.5c0-0.6,0.1-1.2,0.1-1.8c0-0.5-0.1,0.5-0.1,0.5c0-0.1,0-0.3,0.1-0.4c0-0.3,0.1-0.6,0.1-0.9
					c0.1-0.7,0.3-1.4,0.4-2.1c0.5-2.8,1.1-5.6,1.4-8.4c0.2-2.6,0-6-2-7.9c-1.7-1.6-4.3-1.8-6.6-1.9c-2.7-0.1-5.4,0.2-8,0.9
					c-2.8,0.7-5.8,2.1-7.8,4.2c-1.4,1.5-2.2,3.4-2.7,5.3c-1.1,4.3-1,8.9-0.8,13.3c0.2,4.7,0.8,9.4,1.5,14c0.2,1.5,0.5,3.1,0.7,4.6
					c0.1,0.5,0.1,0.9,0.2,1.4c0,0.1,0,0.3,0.1,0.4c0,0.2,0.1,0.6-0.1-0.4c-0.2-1.5,0,0.5,0.1,0.7c0.5,1.7,1.9,3,3.1,4.1
					c1.7,1.5,3.5,2.8,5.2,4.2c1.6,1.2,3.3,2.4,5.1,3.6c1.3,0.9,2.8,1.9,4.3,2.3c1.7,0.5,3.5,0.1,4.8-1.2c1.7-1.7,1.8-4.7,0-6.4
					c-1.8-1.6-4.6-1.8-6.4,0c1.3-1.3,2.7-1.4,4.1-1.1c-0.1,0-0.1,0-0.2-0.1c-0.5-0.2,1.2,0.6,0.7,0.3c-0.1-0.1-0.2-0.1-0.3-0.2
					c-0.6-0.3-1.2-0.7-1.7-1c-1.5-1-3-2-4.4-3c-0.4-0.3-0.8-0.6-1.2-0.9c-0.3-0.2-1.7-1.2-0.5-0.4c-0.8-0.5-1.5-1.2-2.2-1.7
					c-0.5-0.4-1.1-0.9-1.6-1.4c-0.2-0.2-0.4-0.4-0.6-0.6c-0.4-0.4-0.7-1.1,0.2,0.4c0-0.1-0.1-0.1-0.1-0.2c0.5,0.9,0.4,1.2,0.6,2.1
					c-0.1-0.5-0.1-0.9-0.2-1.4c-0.1-0.4-0.1-0.7-0.2-1.1c-0.2-1.2-0.4-2.5-0.6-3.7c-0.1-0.8-0.2-1.6-0.3-2.4c-0.1-0.9,0.2,1.2,0,0.3
					c0-0.2-0.1-0.5-0.1-0.7c-0.1-0.5-0.1-1.1-0.2-1.6c-0.2-2.1-0.5-4.2-0.6-6.3c-0.2-2.1-0.3-4.2-0.3-6.3c0-1,0-2.1,0.1-3.1
					c0-0.9,0.3-1.9,0.2-2.8c0.1,1.5,0,0.3,0.1-0.2c0.1-0.4,0.1-0.7,0.2-1.1c0.1-0.4,0.2-0.7,0.3-1.1c0.4-1.2-0.5,0.7,0,0
					c0.1-0.2,0.4-0.5,0.5-0.8c-0.3,1-0.8,0.8-0.4,0.5c0.2-0.1,0.3-0.3,0.5-0.5c0.5-0.5-0.1,0.3-0.3,0.2c0,0,0.6-0.4,0.7-0.5
					c0.2-0.1,0.5-0.3,0.8-0.4c0.2-0.1,0.3-0.2,0.5-0.3c-0.6,0.3-0.7,0.3-0.3,0.1c1-0.4,2.1-0.7,3.2-0.9c0.1,0,0.8-0.1,0.9-0.2
					c-0.1,0.2-1,0.1,0,0c0.6-0.1,1.1-0.1,1.7-0.1c0.9,0,1.8,0,2.7,0c0.2,0,0.4,0.1,0.6,0.1c-1.3,0.1-1-0.2-0.5-0.1
					c0.7,0.2,1.3,0.6-0.1-0.2c0,0,0.1,0,0.1,0.1c-0.4-0.2-1.8-1.4-1.7-2c0,0.1,0.1,0.5,0.2,0.6c0.3,0.8-0.3,0,0-0.3
					c-0.1,0.1,0.1,1.1,0.1,1.3c0,0.6,0,1.2-0.1,1.7c-0.1,0.5-0.4,0.9,0-0.1c-0.1,0.2-0.1,0.6-0.1,0.9c-0.1,0.5-0.2,1-0.3,1.5
					c-0.2,1.3-0.5,2.6-0.7,3.9c-0.5,2.7-1.1,5.5-0.8,8.2c0.3,2.6,1.2,4.6,3.2,6.3c2,1.6,4,3.1,6.1,4.6c0.5,0.4,1,0.7,1.5,1.1
					c-1.2-0.8,0,0,0.4,0.3c0.3,0.3,0.6,0.5,0.9,0.8c0.9,0.9-0.3-0.6-0.1-0.2c1,2.1,4.2,2.9,6.2,1.6
					C522.7,306.5,523.2,304,522.1,301.8L522.1,301.8z"/>
			</g>
		</g>
		<g class="st1">
			<g>
				<path class="st3" d="M503.6,320.8c-1.2,2.6-2.1,5.3-3.1,8c-0.5,1.5-1.1,2.9-1.6,4.4c-0.3,0.9-0.7,1.8-0.9,2.7
					c-0.2,1.2-0.2,2.4,0.5,3.5c0.5,0.9,1.6,1.8,2.7,2.1c2.2,0.5,5-0.7,5.5-3.1c0.2-0.8,0.5-1.7,0.8-2.5c0.5-1.4,1-2.8,1.5-4.1
					c0.9-2.4,1.8-4.8,2.8-7.1c-0.2,0.4-0.3,0.7-0.5,1.1c0-0.1,0.1-0.2,0.1-0.3c0.5-1.1,0.8-2.2,0.5-3.5c-0.3-1-1.1-2.2-2.1-2.7
					c-1-0.6-2.3-0.8-3.5-0.5C505.2,319,504.1,319.7,503.6,320.8L503.6,320.8z"/>
			</g>
		</g>
	</g>
	<g id="right-hand">
		<path class="st15" d="M264.2,361l-31,15l-23,10c-18.5,10.5-13.5,65.5-13.5,65.5"/>
		<polygon class="st6" points="269.7,400.5 240.7,386.5 240.7,355.5 234.7,320.5 245.7,297.5 264.7,299.5 256.7,314.5 254.9,324 
			262.7,318.5 270.3,331.8 304.7,323.5 285.7,361.5 		"/>
		<g>
			<g>
				<path class="st3" d="M302.4,277.2c0.3-0.3,0.6-0.3-0.6,0.4c0.4-0.2,0.4,0-0.8,0.3c-0.8,0.2-2.1,0.1-3-0.4
					c-0.4-0.2-1-0.9-1.3-1.3c0.5,0.8-0.2-0.7-0.2-0.4c0.1,0.5,0.2,0.9,0.3,1.4c0.2,1.1-0.1-1.2,0-0.1c0,0.4,0.1,0.8,0.1,1.1
					c0.3,3.4,0.1,6.7,0,10.1c-0.1,2.9-0.3,5.8-0.6,8.7c0,0.5-0.1,3.1-0.3,3.2c0.1,0,0.2-1.2,0-0.2c0,0.2-0.1,0.4-0.1,0.5
					c-0.1,0.6-0.2,1.1-0.3,1.7c-0.2,1.1-0.4,2.2-0.6,3.3c-0.5,2.4-1.1,4.8-1.9,7.1c-0.1,0.2-0.3,0.5-0.3,0.8c0.2-1,0.2-0.5,0-0.1
					c-0.2,0.4-0.4,0.9-0.7,1.3c0,0.1-0.4,0.5-0.4,0.6c-0.1-0.4,0.8-0.8,0.2-0.3c-0.1,0.1-0.3,0.3-0.4,0.4c0.3-0.6,0.9-0.6,0.2-0.2
					c-2.1,1.1-2.9,4.2-1.6,6.2c1.4,2.1,3.9,2.8,6.2,1.6c2.1-1.1,3.5-3.3,4.5-5.4c1.1-2.5,1.9-5,2.5-7.6c0.9-4.1,1.6-8.2,2-12.4
					c0.6-6.8,1.3-13.8,0.5-20.6c-0.2-1.9-0.5-3.7-1.5-5.3c-1.9-3.1-5.9-3.2-8.4-0.8c-1.7,1.6-1.8,4.7,0,6.4
					C297.9,278.9,300.6,279,302.4,277.2L302.4,277.2z"/>
			</g>
		</g>
		<g>
			<g>
				<path class="st3" d="M261.4,326.2c4.4-4,6.8-10.2,9-15.6c2.7-6.5,4.9-13.2,7.2-19.8c0.9-2.8,1.9-5.7,2.9-8.5
					c0.4-1.1,0.8-2.2,1.2-3.2c0.2-0.5,0.9-2.1,0.1-0.4c0.2-0.4,0.3-0.7,0.5-1.1c0.1-0.2,0.3-0.5,0.4-0.7c0.4-0.8-0.9,1-0.3,0.3
					c0.1-0.1-1.2,0.8-0.7,0.5c-0.5,0.3-1.2,0.5-1.8,0.5c0.6,0-1.3-0.3-0.8-0.1c0.2,0.1,0.5,0.2-0.2-0.1c-0.9-0.4-0.1,0,0.1,0.1
					c0.5,0.2-0.5-0.3-0.5-0.4c0,0.1,0.4,0.3,0.4,0.4c0.2,0.2,0.4,0.5,0.7,0.7c0.6,0.7-0.6-0.9,0.1,0.1c0.5,0.7,0.9,1.3,1.3,2.1
					c0.2,0.4,0.4,0.8,0.6,1.3c0,0.1,0.3,0.5,0.2,0.5c0,0-0.4-0.9-0.1-0.3c0.3,0.9,0.6,1.8,0.9,2.7c0.1,0.5,0.3,1,0.3,1.6
					c0,0.2,0,0.4,0.1,0.6c-0.3-0.9-0.1-0.6,0-0.1c0,0.4,0,0.9,0,1.3c0,0.1-0.1,0.4,0,0.5c-0.2-1,0.2-0.7,0-0.2
					c-0.8,2.8-1.7,5.5-2.5,8.2c-0.5,1.5-1,3.1-1.5,4.6c-0.3,0.7-0.5,1.5-0.8,2.2c-0.3,0.8,0,0,0-0.1c-0.1,0.2-0.2,0.5-0.4,0.7
					c-0.2,0.3-0.3,0.6-0.5,0.8c-0.5,0.8,0.7-0.9,0.2-0.2c-0.6,0.8-1.2,1.6-1.7,2.4c-1.2,2-0.5,5,1.6,6.2c2.1,1.1,4.9,0.6,6.2-1.6
					c0.2-0.3,0.4-0.6,0.6-0.9c0.3-0.5-0.8,1-0.2,0.2c0.6-0.7,1.2-1.4,1.6-2.2c1.3-2.4,2.2-5.2,3-7.8c0.9-2.7,1.6-5.4,2.5-8.1
					c0.7-2.2,1.1-4.3,0.9-6.6c-0.4-4.2-1.9-8.4-4.2-11.9c-2.3-3.5-6.2-7.3-10.6-4.9c-2.1,1.1-3,3.7-3.9,5.8c-1,2.4-1.8,4.8-2.6,7.2
					c-2.3,6.8-4.5,13.7-7.1,20.5c-0.4,1-0.8,2-1.1,2.9c-0.2,0.4-0.4,0.9-0.5,1.3c-0.1,0.2-0.2,0.4-0.3,0.6c-0.2,0.4,0.4-1,0-0.1
					c-0.7,1.7-1.5,3.4-2.3,5c-0.7,1.5-1.5,2.9-2.4,4.3c-0.2,0.3-0.4,0.5-0.6,0.8c-0.8,1.1,0.6-0.7-0.1,0.1c-0.4,0.5-0.8,0.9-1.2,1.3
					c-1.7,1.6-1.7,4.8,0,6.4C256.9,327.9,259.6,327.9,261.4,326.2L261.4,326.2z"/>
			</g>
		</g>
		<g>
			<path class="st6" d="M294.2,320c1.2-1.2,0.8-4.9,5-13c4.1-7.9-1.4-21.2,8.6-21.1c3.6,0,4.4,20.8,4.4,23.1c0,4.5-3.2,31.8-6,36
				c-1.4,2.2-4.9,23-19,23c-12,0-16.7,33.7-17,34"/>
			<g>
				<path class="st3" d="M297.4,323.2c2.1-2.3,2.4-5.7,3.4-8.5c0.2-0.5,0.3-1,0.5-1.4c0,0,0.5-1.1,0.2-0.5c-0.3,0.6,0.3-0.6,0.3-0.6
					c0.5-1.2,1.2-2.4,1.7-3.6c1-2.3,1.5-4.5,1.8-7c0.2-1.8,0.3-3.5,0.4-5.3c0-0.9,0.1-1.8,0.2-2.7c0-0.3,0.1-0.7,0.1-1
					c0,1.5,0,0,0.1-0.5c0.1-0.3,0.2-0.7,0.3-1c0.4-1.2-0.3,0.5,0,0c0.1-0.2,0.5-0.7,0.5-0.9c-0.1,0.8-0.7,0.8-0.3,0.5
					c0.1-0.1,0.4-0.3,0.4-0.4c-0.1,0.5-0.9,0.6-0.3,0.2c0.1,0,0.4-0.2,0.4-0.2c-0.1,0.4-1.1,0.3-0.4,0.2c0.2,0,0.4-0.1,0.6-0.1
					c0.4-0.1,0.4,0.2-0.4,0c0.2,0,0.5,0,0.7,0c0.6-0.1,0.9,0.3-0.6-0.2c0.5,0.2-1.2-0.6-0.7-0.3c0.2,0.1-1.1-1-0.5-0.3
					c-0.2-0.3-0.7-1.1-0.3-0.4c0.1,0.2,0.2,0.5,0.3,0.6c-0.6-0.7-0.4-1-0.2-0.5c0.1,0.2,0.1,0.3,0.2,0.5c0.4,1.3,0.7,2.7,1,4.1
					c0.1,0.4,0.1,0.8,0.2,1.2c0,0.2,0.2,1.5,0.1,0.7c-0.1-0.8,0.1,0.5,0.1,0.7c0.1,0.5,0.1,1,0.2,1.6c0.2,1.6,0.3,3.2,0.4,4.8
					c0.1,2.1,0.3,4.2,0.3,6.2c0,2.2-0.3,4.4-0.5,6.6c-0.2,1.6-0.4,3.2-0.5,4.8c-0.1,0.9-0.2,1.8-0.4,2.8c0,0.2-0.1,0.4-0.1,0.6
					c0.1-1.2,0.1-0.6,0-0.3c-0.1,0.6-0.2,1.1-0.2,1.7c-0.5,3.6-1.1,7.2-1.8,10.7c-0.3,1.4-0.6,2.9-1,4.3c-0.1,0.6-0.3,1.1-0.5,1.6
					c-0.1,0.2-0.2,0.5-0.3,0.7c-0.3,0.9,0.6-1.1,0.1-0.4c-0.9,1.6-1.5,3.4-2,5.1c-0.4,1.2-0.8,2.5-1.3,3.7c-0.2,0.6-0.5,1.3-0.7,1.9
					c-0.3,0.8,0.5-1,0.1-0.2c-0.1,0.1-0.1,0.3-0.2,0.4c-0.2,0.4-0.4,0.8-0.6,1.2c-0.7,1.4-1.5,2.8-2.4,4.1c-0.2,0.2-0.7,0.7-0.7,1
					c0-0.1,0.7-0.9,0.2-0.3c-0.1,0.2-0.3,0.3-0.4,0.5c-0.6,0.6-1.2,1.3-1.8,1.8c-0.1,0.1-0.3,0.2-0.4,0.3c-0.6,0.5,0.3-0.3,0.3-0.3
					c-0.1,0.2-0.8,0.6-1,0.7c-0.3,0.2-0.7,0.4-1.1,0.6c-0.1,0.1-0.3,0.1-0.4,0.2c-0.8,0.4,0.9-0.3,0.2-0.1c-0.7,0.2-1.8,0.3-2.4,0.6
					c0.1,0,1.2-0.1,0.4-0.1c-0.2,0-0.4,0-0.5,0c-0.4,0-0.9,0-1.3,0c-3.3,0.2-6.3,1.8-8.5,4.2c-4.5,4.8-6.9,11.5-8.7,17.7
					c-1.4,4.7-2.4,9.5-3.4,14.4c-0.3,1.5-0.7,1,0.9-1c-1.5,1.8-1.9,4.6,0,6.4c1.6,1.5,4.8,2,6.4,0c1.3-1.6,1.4-3.1,1.8-5
					c0.5-2.5,1-5,1.6-7.5c0.8-3.1,1.7-6.2,2.8-9.3c0.3-0.8,0.6-1.5,0.9-2.3c0.5-1.2-0.4,0.9,0.1-0.3c0.2-0.4,0.4-0.8,0.5-1.2
					c0.7-1.4,1.4-2.8,2.3-4c0.2-0.3,0.4-0.5,0.5-0.8c0.5-0.8-0.7,0.8,0,0c0.5-0.5,0.9-1.1,1.5-1.5c0.1-0.1,0.2-0.2,0.3-0.2
					c0.5-0.5-1,0.7-0.3,0.3c0.2-0.1,0.4-0.3,0.6-0.4c0.2-0.1,0.4-0.2,0.7-0.4c0.6-0.4-1.2,0.4-0.5,0.2c0.2,0,0.3-0.1,0.5-0.2
					c0.2-0.1,0.6-0.1,0.8-0.2c-0.9,0.5-1.1,0.1-0.7,0.1c0.2,0,0.3,0,0.5,0c1.2,0,2.4-0.2,3.6-0.4c1.9-0.3,3.8-1.1,5.5-2.1
					c6.4-3.9,9.8-11,12.2-17.8c0.4-1.1,0.8-2.3,1.1-3.4c0.1-0.4,0.3-0.9,0.4-1.3c0.1-0.2,0.1-0.3,0.2-0.5c0.2-0.7-0.6,1.2-0.3,0.6
					c1.3-1.9,1.9-4.5,2.4-6.7c1.7-7.4,2.7-15.1,3.5-22.6c0.5-4.5,0.9-8.9,0.7-13.4c-0.2-3.7-0.5-7.3-1-10.9
					c-0.4-3.1-0.9-6.4-2.4-9.1c-0.9-1.5-2.2-2.8-4-3.2c-2.3-0.6-5.3,0.1-7.2,1.3c-3.9,2.4-4.8,6.9-5.1,11.1
					c-0.1,1.9-0.2,3.8-0.3,5.6c0,0.4-0.1,0.8-0.1,1.3c0,0.2-0.1,0.5-0.1,0.7c0-1.1,0.1-0.7,0-0.4c-0.2,1-0.4,2-0.7,2.9
					c-0.1,0.2-0.1,0.3-0.2,0.5c-0.3,0.9,0.5-0.9,0-0.1c-0.3,0.5-0.6,1.1-0.9,1.7c-0.7,1.5-1.4,3-2,4.6c-0.7,1.7-1.2,3.4-1.7,5.2
					c-0.1,0.5-0.3,1.1-0.5,1.6c-0.3,0.9,0.4-0.7,0.2-0.4c-0.4,0.8,0.7-0.7,0.4-0.4c-1.6,1.7-1.8,4.7,0,6.4
					C292.8,324.8,295.7,325.1,297.4,323.2L297.4,323.2z"/>
			</g>
		</g>
		<g>
			<g>
				<path class="st3" d="M262.7,324c0,0.5-0.2,1.2,0,0.4c0.1-0.2,0.1-0.5,0.2-0.7c0.2-0.7,0.5-1.4,0.8-2.1c-0.3,0.7-0.2,0.4,0-0.1
					c0.1-0.3,0.3-0.7,0.4-1c0.4-0.9,0.8-1.8,1.1-2.6c1.2-3,2-6.1,3.1-9.1c1.2-3.3,2.5-6.5,2.4-10.1c-0.1-2-0.7-4-2.7-5
					c-1.5-0.8-3.3-1-5-1c-3.8,0-7.8,0.6-11.3,2c-4.8,1.9-7.7,6.6-10,11c-2.4,4.6-4.4,9.6-6.2,14.5c-1.3,3.8-2.5,7.4-2.3,11.5
					c0.2,3.7,1.2,7.1,2.7,10.5c0.5,1.2,1.1,2.3,1.7,3.4c0.2,0.4,0.5,0.9,0.7,1.3c0.1,0.2,0.2,0.5,0.3,0.7c-0.3-0.4-0.4-1-0.1-0.3
					c0.1,0.4,0.2,0.8,0.3,1.2c0.1,0.3-0.1-1.2,0-0.3c0,0.3,0.1,0.6,0.1,0.9c0.1,1.2,0.1,2.3,0.1,3.5c0,2.6-0.2,5.3-0.5,7.9
					c-0.1,0.7-0.2,1.4-0.3,2.1c-0.1,0.9,0.1-0.8,0,0c-0.1,0.4-0.1,0.8-0.2,1.2c-0.2,1.4-0.4,2.8-0.7,4.3c-0.4,2.6-0.9,5.2-1.4,7.8
					c-0.6,3.2-1.5,6.4-2,9.6c-0.3,1.5-0.2,2.4,0.4,3.8c0.6,1.4,2.4,2.2,3.9,2.2c0,0,0,0,0,0c2.4,0.1,4.6-2.1,4.5-4.5
					c-0.1-2.5-2-4.4-4.5-4.5c0,0,0,0,0,0c1.3,0.7,2.6,1.5,3.9,2.2c0,0,0,0,0,0c0.2,0.8,0.4,1.5,0.6,2.3c0-0.3-0.3,1.5-0.1,1
					c0-0.1,0.1-0.3,0.1-0.4c0.1-0.5,0.2-1,0.3-1.5c0.4-1.7,0.7-3.3,1.1-5c1-4.9,2-9.9,2.7-14.8c0.8-5.3,1.5-10.7,1.3-16
					c-0.1-2.6-0.4-4.9-1.5-7.3c-0.4-1-0.9-1.9-1.4-2.8c-0.2-0.5-0.5-1-0.7-1.4c-0.1-0.3-0.3-0.6-0.4-0.9c-0.1-0.2-0.5-1.2-0.3-0.5
					c0.2,0.6-0.1-0.3-0.2-0.5c-0.1-0.3-0.3-0.7-0.4-1c-0.2-0.7-0.4-1.5-0.6-2.2c0-0.1-0.2-1-0.2-1c0,0,0.1,0.9,0,0.3
					c0-0.2,0-0.4-0.1-0.5c-0.1-0.9-0.1-1.7,0-2.6c0-0.4,0.1-0.8,0.1-1.2c-0.1,0.8,0-0.2,0.1-0.5c0-0.1,0.1-0.2,0.1-0.3
					c0.1-0.5,0.3-0.9,0.4-1.4c0.5-1.6,1.1-3.2,1.6-4.8c0.4-1,0.8-2,1.1-3.1c0.2-0.5,0.4-1.1,0.6-1.6c0.1-0.3,0.2-0.5,0.3-0.8
					c0.4-1-0.3,0.8,0.1-0.2c1-2.3,2-4.5,3.2-6.7c0.5-1,1.1-2,1.7-2.9c0.3-0.4,0.6-0.9,0.9-1.3c0.2-0.2-0.7,0.8-0.1,0.2
					c0.2-0.2,0.3-0.4,0.5-0.6c0.3-0.3,0.6-0.7,0.9-1c0.1-0.1,0.3-0.3,0.4-0.4c0.6-0.6-0.9,0.6-0.2,0.2c0.1-0.1,0.3-0.2,0.4-0.3
					c0.4-0.3,0.8-0.1-0.4,0.1c0.8-0.2,1.7-0.6,2.5-0.8c0.9-0.2,1.8-0.4,2.8-0.6c0.3-0.1,1.2-0.2,0.4-0.1c0.5-0.1,1-0.1,1.5-0.1
					c0.7,0,1.3-0.1,2,0c0.3,0,0.6,0.1,1,0.1c0.4,0-0.6-0.1-0.6-0.1c0.1,0.1,0.3,0,0.4,0.1c0,0,0.2,0.1,0.2,0.1
					c0.2,0-0.7-0.3-0.7-0.3c-0.2-0.2-0.5-0.4-0.7-0.6c-0.4-0.9-0.8-1.9-1.2-2.8c0,0.1,0,0.2,0,0.3c0,0.4,0,0.7,0,1.1
					c0,0.3,0,0.6,0,0.9c0,1,0.3-1.3,0-0.1c-0.3,1.4-0.8,2.8-1.3,4.2c-1,2.6-1.9,5.3-2.8,7.9c-0.3,0.8-0.5,1.7-0.8,2.5
					c-0.1,0.2-0.2,0.4-0.2,0.6c0,0.1-0.1,0.2-0.1,0.3c-0.2,0.5,0.4-0.9,0.1-0.4c-0.7,1.5-1.3,3.1-2,4.6c-0.5,1.3-0.9,2.5-1,3.9
					c-0.2,2.4,2.2,4.6,4.5,4.5C260.8,328.4,262.5,326.5,262.7,324L262.7,324z"/>
			</g>
		</g>
		<g>
			<g>
				<path class="st3" d="M271.2,409.5c1.6-0.1,3-0.8,3.9-2.2c1.1-1.7,0.7-4.1-0.7-5.5c-0.4-0.4-0.8-0.7-1.3-0.9
					c-1.1-0.6-2.3-1-3.4-1.5c-3.2-1.3-6.5-2.6-9.7-4c-2-0.8-4-1.7-6.1-2.5c-1.1-0.4-2.1-0.9-3.2-1.3c-0.5-0.2-1-0.4-1.5-0.6
					c0,0,1.1,0.5,0.4,0.2c-0.1,0-0.2-0.1-0.3-0.1c-0.3-0.1-0.6-0.2-0.8-0.4c-3.5-1.5-7.1-3-10.6-4.7c-1.2-0.6-2.3-1.2-3.4-1.9
					c-0.7-0.4,1,0.9,0.4,0.3c0,0-0.1-0.1-0.1-0.1c0.6,0.7,0.8,0.9,1,1.8c0.7,2.3-0.9,4.6-3,5.3c0.6-0.2-1.6,0.1-0.7,0.1
					c-1.3-2.3-2.6-4.5-3.9-6.8c-1.9,2.7-3.8,5.4-5.6,8.1c-4.4,6.5-8.6,13.1-12.7,19.8c-4.9,8-9.6,16.2-13.8,24.6
					c-3.7,7.4-7.3,15.3-9.1,23.4c-0.8,3.5-1.2,7-0.6,10.5c0.4,2.7,1.8,4.9,3.3,7.1c2.8,4.3,5.7,8.5,8.9,12.5
					c3.4,4.3,7.2,8.6,12,11.4c11.5,6.7,25.1-2,32.9-10.5c4.7-5.1,8.9-10.9,12-17.1c2.2-4.3,4-8.8,5.6-13.4
					c3.7-10.2,6.8-20.7,9.7-31.1c2-7.2,3.7-14.5,6.1-21.6c0.1-0.3,0.3-0.7,0.3-1c0,0-0.7,1.3-0.3,0.8c0,0,0-0.1,0-0.1
					c-0.4,0.6-0.8,1.1-1.5,1.5c2-1.2,3-4.1,1.6-6.2c-1.3-2-4-2.9-6.2-1.6c-2.2,1.4-2.8,4.3-3.4,6.6c-1,3.4-1.9,6.8-2.8,10.2
					c-2.7,10-5.5,19.9-8.7,29.8c-1.6,4.9-3.3,9.8-5.2,14.6c-0.2,0.5-0.4,1-0.6,1.6c-0.1,0.2-0.2,0.5-0.3,0.7
					c-0.2,0.5,0.2-0.5,0.2-0.5c-0.1,0.2-0.2,0.4-0.2,0.6c-0.4,1-0.9,1.9-1.3,2.9c-0.9,2-2,3.9-3.2,5.8c-1,1.6-2.1,3.3-3.2,4.8
					c-0.5,0.8-1.1,1.5-1.6,2.2c-0.3,0.4,0,0,0.1-0.1c-0.2,0.2-0.3,0.4-0.5,0.6c-0.3,0.4-0.6,0.7-0.9,1.1c-2.2,2.6-4.6,5.1-7.2,7.2
					c-0.2,0.2-1.2,0.9-0.3,0.3c-0.3,0.2-0.5,0.4-0.8,0.6c-0.6,0.4-1.3,0.9-1.9,1.3c-0.6,0.4-1.2,0.7-1.8,1c-0.3,0.1-0.6,0.3-0.8,0.4
					c-0.2,0.1-1.3,0.6-0.7,0.3c0.6-0.3-0.3,0.1-0.4,0.2c-0.3,0.1-0.7,0.2-1,0.3c-0.6,0.2-1.3,0.4-2,0.5c-0.3,0.1-0.6,0.1-0.8,0.2
					c-0.1,0-0.3,0-0.4,0.1c-0.6,0.1,1-0.1,0.4,0c-0.7,0-1.3,0.1-1.9,0.1c-0.6,0-1.2,0-1.8-0.1c-0.9-0.1,1,0.2,0.3,0
					c-0.3-0.1-0.6-0.1-0.8-0.2c-0.2-0.1-0.4-0.1-0.6-0.2c-0.7-0.2,0-0.2,0.2,0.1c-0.3-0.3-1.1-0.5-1.5-0.8c-0.5-0.3-0.9-0.6-1.4-0.9
					c-0.2-0.2-0.5-0.4-0.7-0.5c0,0,0.7,0.6,0.4,0.3c-0.1-0.1-0.3-0.2-0.4-0.3c-1-0.8-1.9-1.7-2.8-2.6c-1.9-2-3.7-4.1-5.4-6.2
					c-0.5-0.7,0.5,0.6,0-0.1c-0.2-0.3-0.4-0.6-0.6-0.8c-0.4-0.6-0.8-1.1-1.2-1.7c-0.7-1-1.5-2.1-2.2-3.1c-1.8-2.6-3.7-5.2-5.1-7.9
					c-0.3-0.6,0.4,1.2,0.3,0.6c0-0.1-0.1-0.2-0.1-0.3c-0.1-0.3-0.2-0.5-0.2-0.8c-0.1-0.3-0.1-0.5-0.2-0.8c-0.2-1,0.1,1.3,0,0.2
					c-0.1-1.3,0-2.6,0.1-4c0.1-1.1-0.2,1.3,0,0c0.1-0.4,0.1-0.8,0.2-1.2c0.1-0.8,0.3-1.6,0.5-2.4c0.4-1.7,0.9-3.4,1.5-5
					c0.6-1.9,1.3-3.7,2.1-5.5c0.1-0.2,0.2-0.5,0.3-0.7c0.1-0.2,0.4-0.9,0.1-0.2c-0.3,0.8,0.1-0.2,0.1-0.3c0.1-0.3,0.2-0.5,0.3-0.8
					c0.4-1,0.9-2,1.3-3c3.9-8.3,8.3-16.4,13-24.3c4.2-7.1,8.7-14.1,13.2-21c2.5-3.8,5.1-7.6,7.7-11.3c0.1-0.2,0.2-0.4,0.4-0.5
					c2-2.8-0.7-6.8-3.9-6.8c-3.1,0-6.1,2.7-5,6c0.5,1.7,1.8,2.8,3.3,3.7c2.6,1.6,5.5,2.8,8.3,4.1c8.2,3.6,16.5,7,24.8,10.3
					c1.5,0.6,3,1.2,4.5,1.8c0.1,0.1,0.3,0.1,0.4,0.2c0.7,0.3-1.2-0.5-0.6-0.3c0.2,0.1,0.4,0.2,0.6,0.2c1.7,0.8-0.9,0.1-1.5-2.4
					c0.2-1.2,0.3-2.3,0.5-3.5c0,0,0,0,0,0c0.9-0.7,1.8-1.4,2.7-2.1c0.4-0.1,0.8-0.1,1.2-0.2c-2.3,0.2-4.6,2-4.5,4.5
					C266.8,407.3,268.7,409.7,271.2,409.5L271.2,409.5z"/>
			</g>
		</g>
	</g>
	<g id="left-hand">
		<path class="st15" d="M333.8,363.1l31,15l23,10c18.5,10.5,13.5,65.5,13.5,65.5"/>
		<polygon class="st6" points="325.3,402.6 354.3,388.6 354.3,357.6 354.7,322.5 345.7,300.5 330.3,301.6 338.3,316.6 332.7,315.5 
			316.7,281.5 303.7,273.5 286.7,309.5 309.3,363.6 		"/>
		<g>
			<g>
				<path class="st3" d="M299,272.9c-2.1-2-5.4-2.4-7.6-0.2c-1.2,1.1-1.7,2.8-2,4.3c-0.7,3.8-0.6,7.7-0.5,11.5
					c0.2,7.2,0.8,14.5,2.2,21.6c0.6,2.7,1.2,5.4,2.2,7.9c1.1,2.7,2.5,5.6,5.1,7c2.1,1.1,5,0.6,6.2-1.6c1.1-2.1,0.6-5-1.6-6.2
					c-0.1-0.1-0.3-0.1-0.4-0.3c1.3,1.2,0.5,0.4,0.4,0.2c-0.1-0.1-0.2-0.2-0.3-0.3c-0.6-0.5,0.6,1,0.2,0.2c-0.2-0.3-0.4-0.7-0.6-1
					c-0.1-0.2-0.2-0.4-0.3-0.7c-0.2-0.4-0.2-1,0,0.1c-0.2-1-0.7-1.9-1-2.9c-0.3-1.1-0.6-2.3-0.9-3.5c-0.5-2.1-0.9-4.3-1.2-6.4
					c0-0.2-0.1-0.4-0.1-0.7c-0.1-1-0.1,0.1,0,0.2c-0.1,0-0.1-1-0.1-1.1c-0.1-0.5-0.1-0.9-0.1-1.4c-0.6-6.1-1-12.3-0.7-18.5
					c0-0.8,0.1-1.6,0.2-2.3c0.1-0.8-0.2,1.3-0.1,0.5c0-0.2,0.1-0.3,0.1-0.5c0.1-0.3,0.1-0.5,0.2-0.8c0-0.1,0.1-0.2,0.1-0.3
					c0.1-0.5-0.5,1.1-0.3,0.7c0.4-0.8-0.5,0.5-0.4,0.4c-1,1-2.3,1.3-3.8,1c0.5,0.1-1.3-0.6-0.8-0.3c0.5,0.3-1.1-0.9-0.5-0.4
					c1.7,1.6,4.7,1.8,6.4,0C300.6,277.5,300.8,274.6,299,272.9L299,272.9z"/>
			</g>
		</g>
		<g>
			<g>
				<path class="st3" d="M340,321.9c-0.9-0.8-1.7-1.7-2.6-2.6c-0.4-0.4-0.7-0.9-1.1-1.3c0.5,0.6-0.5-0.7-0.6-0.9
					c-1.1-1.7-2.1-3.5-2.9-5.3c0.4,0.9-0.1-0.2-0.2-0.5c-0.2-0.4-0.3-0.8-0.5-1.2c-0.3-0.8-0.6-1.7-0.8-2.6
					c-0.5-1.5-0.9-3.1-1.4-4.6c-0.3-1-0.7-1.9-1.1-2.8c0.4,1-0.2-0.6-0.3-0.9c-0.2-0.6-0.4-1.1-0.6-1.7c-0.7-2.4-1.3-4.9-2.3-7.3
					c-0.3-0.7-0.6-1.4-0.9-2.1c-0.3-0.6,0.4,1.2,0,0c-0.2-0.7-0.4-1.4-0.6-2.1c-0.4-1.7-0.7-3.3-1.2-5c-0.5-1.8-1.1-3.6-2-5.3
					c-1-1.9-2.5-3.1-4.3-4.3c-3.9-2.7-9.6-4.7-13.9-1.9c-4,2.6-3.6,8.3-2.5,12.4c0.6,2.3,1,4.6,1.6,6.9c1.4,5.3,3.1,10.6,4.8,15.7
					c0.8,2.4,1.6,4.9,2.8,7.1c0.4,0.7,0.9,1.3,1.4,2c0.1,0.1,0.1,0.1,0.2,0.2c0.4,0.5-0.7-1-0.3-0.4c0.2,0.3,0.4,0.6,0.6,0.9
					c1.2,2,4.1,2.9,6.2,1.6c2.1-1.3,2.9-4,1.6-6.2c-0.3-0.6-0.7-1.1-1.1-1.6c-0.2-0.3-0.4-0.5-0.6-0.8c-0.6-0.7,0.6,1,0.2,0.3
					c-0.3-0.5-0.5-0.9-0.8-1.4c0-0.1-0.3-0.6,0,0c0.3,0.6-0.1-0.2-0.1-0.3c-0.3-0.7-0.5-1.3-0.7-2c-1.5-4.4-2.8-8.8-4.2-13.3
					c-1-3.1-1.8-6.3-2.4-9.5c-0.2-0.8-0.4-1.5-0.6-2.3c-0.1-0.3-0.1-0.7-0.2-1c-0.2-0.9,0,0.3,0,0.3c0,0-0.1-0.5-0.1-0.6
					c0-0.4,0-0.7,0-1.1c0-0.2,0-0.4,0-0.6c0-0.5-0.3,1,0,0.2c0-0.1,0.2-0.4,0.1-0.5c0,0-0.4,0.9-0.2,0.5c0.2-0.4-0.6,0.6-0.7,0.7
					c-0.5,0.5-0.2,0.2,0,0.1c-0.9,0.6-0.4,0-0.1,0.1c0.6,0.3,0-0.3-0.2,0c0.1-0.1,0.7,0.1,0.7,0c0,0-0.9-0.2-0.1,0
					c0.5,0.1,0.9,0.3,1.4,0.4c0.2,0.1,0.7,0.4,0,0c0.2,0.1,0.3,0.2,0.5,0.3c0.9,0.5,1.8,1,2.6,1.6c0.2,0.1,0.4,0.3,0.6,0.4
					c0.5,0.4-0.5-0.6-0.3-0.2c0.1,0.1,0.2,0.1,0.2,0.2c0.4,0.6-0.3-0.5-0.3-0.4c0,0.1,0.4,0.6,0.4,0.7c0.1,0.2,0.2,0.3,0.2,0.5
					c0.4,0.8-0.1,0-0.1-0.2c-0.1,0.3,0.6,1.8,0.7,2.1c0.2,0.8,0.4,1.6,0.6,2.4c0.3,1.5,0.6,2.9,1,4.4c0.2,0.6,0.3,1.2,0.5,1.7
					c0.2,0.4,0.4,0.9,0.5,1.3c0,0.1,0.2,0.4,0-0.1c0.2,0.6,0.4,1.1,0.6,1.7c0.8,2.2,1.3,4.5,2,6.7c0.4,1.3,0.9,2.6,1.5,3.8
					c-0.3-0.7-0.3-0.6,0,0c0.1,0.4,0.3,0.8,0.4,1.2c1.2,3.6,2.2,7.3,3.7,10.8c2,4.5,4.9,8.6,8.6,11.9c1.7,1.6,4.7,1.8,6.4,0
					C341.6,326.5,341.8,323.6,340,321.9L340,321.9z"/>
			</g>
		</g>
		<g>
			<path class="st6" d="M300.8,322.1c-1.2-1.2-0.8-4.9-5-13c-4.1-7.9,1.4-21.2-8.6-21.1c-3.6,0-4.4,20.8-4.4,23.1
				c0,4.5,3.2,31.8,6,36c1.4,2.2,4.9,23,19,23c12,0,16.7,33.7,17,34"/>
			<g>
				<path class="st3" d="M304,318.9c-0.3-0.3,0.8,1.2,0.4,0.4c-0.2-0.4,0.5,1.4,0.2,0.4c-0.2-0.6-0.3-1.1-0.5-1.7
					c-0.5-1.8-1.1-3.7-1.8-5.4c-0.6-1.4-1.1-2.7-1.8-4.1c-0.3-0.6-0.6-1.3-1-1.9c-0.4-0.8,0.3,0.8,0.1,0.2c-0.1-0.3-0.2-0.6-0.3-0.9
					c-0.3-0.8-0.4-1.7-0.6-2.5c-0.1-0.4,0-0.9,0,0.2c0-0.2,0-0.4-0.1-0.6c-0.1-0.6-0.1-1.1-0.1-1.7c-0.2-3.7,0-7.6-1.3-11.1
					c-0.8-2.2-2.1-4.1-4.2-5.4c-2-1.2-5-1.9-7.2-1.3c-3.4,0.9-4.8,4.6-5.5,7.7c-0.8,3.5-1.2,7.2-1.5,10.8c-0.4,4.6-0.6,9-0.2,13.6
					c0.7,7.6,1.7,15.1,3.1,22.6c0.5,2.8,1,5.7,2,8.4c0.4,1,0.7,2,1.3,2.9c0.4,0.6-0.5-1.3-0.3-0.6c0.1,0.2,0.1,0.3,0.2,0.5
					c0.2,0.5,0.3,0.9,0.4,1.4c2,6.3,4.4,12.6,8.9,17.6c2.6,2.9,6.2,5.1,10,5.8c1.2,0.2,2.3,0.3,3.5,0.3c0.1,0,0.3,0,0.4,0
					c0.5,0,0.2,0.4-0.6-0.1c0.2,0.1,0.7,0.2,1,0.2c0.9,0.2,0,0-0.2-0.1c0.2,0.1,0.5,0.2,0.7,0.4c0.2,0.1,0.5,0.3,0.7,0.5
					c0.6,0.4-0.8-0.7-0.4-0.3c0.1,0.2,0.3,0.3,0.5,0.4c0.4,0.4,0.9,0.9,1.3,1.3c0.8,0.9-0.4-0.6,0,0c0.2,0.3,0.5,0.7,0.7,1
					c0.8,1.3,1.5,2.6,2.2,4c0.2,0.4,0.3,0.7,0.5,1.1c0.5,1.1-0.3-0.9,0.1,0.3c0.3,0.8,0.6,1.5,0.9,2.3c0.6,1.6,1.1,3.2,1.6,4.8
					c1.4,4.7,2.3,9.5,3.3,14.3c0.2,1,0.6,1.9,1.3,2.7c1.5,1.8,4.8,1.7,6.4,0c1.8-2,1.6-4.4,0-6.4c2,2.5,1.2,2.6,1.1,1.6
					c0-0.2-0.1-0.5-0.1-0.7c-0.2-0.8-0.3-1.6-0.5-2.4c-0.5-2.5-1.1-5-1.7-7.5c-1.6-6.2-3.5-12.8-7-18.2c-1.6-2.6-3.8-5.2-6.5-6.6
					c-1.6-0.9-3.3-1.3-5.1-1.4c-0.3,0-0.7,0-1,0c-0.2,0-0.4,0-0.7,0c-0.4,0-0.4-0.3,0.4,0.1c-0.7-0.3-1.7-0.4-2.4-0.6
					c-0.9-0.2,1,0.5,0.2,0.1c-0.1-0.1-0.3-0.1-0.4-0.2c-0.4-0.2-0.7-0.4-1.1-0.6c-0.3-0.2-0.6-0.4-0.9-0.6c-0.5-0.3,0.9,0.8,0.2,0.2
					c-0.2-0.2-0.4-0.3-0.5-0.5c-0.5-0.5-1.1-1-1.5-1.6c-0.2-0.2-0.3-0.4-0.5-0.6c-0.3-0.3-0.3,0,0.2,0.3c-0.3-0.2-0.6-0.8-0.8-1.1
					c-0.9-1.3-1.7-2.7-2.4-4.1c-0.2-0.4-0.3-0.7-0.5-1.1c-0.1-0.1-0.1-0.3-0.2-0.4c-0.4-0.8,0.4,0.9,0.1,0.3
					c-0.3-0.7-0.6-1.5-0.9-2.2c-0.7-2-1.3-4.1-2.1-6.2c-0.3-0.9-0.7-1.7-1.2-2.5c-0.4-0.6,0.5,1.3,0.2,0.4c-0.1-0.2-0.2-0.5-0.3-0.7
					c-0.2-0.6-0.4-1.2-0.5-1.7c-0.8-3.1-1.4-6.3-1.9-9.5c-0.3-1.9-0.6-3.8-0.9-5.7c-0.1-0.4-0.1-0.9-0.2-1.3c0-0.3-0.1-1.1,0,0.2
					c0-0.2-0.1-0.4-0.1-0.6c-0.1-0.9-0.2-1.8-0.4-2.8c-0.6-4.6-1.2-9.2-1-13.8c0.1-3,0.3-6,0.6-8.9c0.1-0.8,0.2-1.6,0.3-2.3
					c-0.2,1.6,0,0,0.1-0.3c0.1-0.4,0.1-0.9,0.2-1.3c0.2-1.4,0.5-2.7,1-4.1c0-0.1,0.1-0.2,0.1-0.3c0.2-0.5,0.4-0.3-0.2,0.5
					c0.1-0.2,0.2-0.4,0.3-0.6c0.2-0.4,0.7-0.8-0.3,0.3c0.6-0.7-0.9,0.6-0.4,0.3c0.4-0.2-1.3,0.5-0.8,0.4c-1.5,0.4-1.2,0.1-0.7,0.1
					c0.2,0,0.6,0.1,0.8,0.1c-0.1,0-1.1-0.3-0.4,0c0.1,0,0.3,0.1,0.5,0.1c0.8,0.2-0.1,0.3-0.3-0.1c0,0,0.4,0.2,0.4,0.2
					c0.8,0.4-0.2,0-0.3-0.2c0,0.1,0.3,0.3,0.4,0.3c0.5,0.5-0.2,0-0.3-0.4c0,0.2,0.4,0.6,0.5,0.8c0.4,0.8-0.3-1,0,0
					c0.1,0.4,0.2,0.9,0.3,1.3c0,0.2,0.2,1.4,0.1,0.6c-0.1-0.9,0,0.4,0.1,0.7c0.1,0.9,0.1,1.8,0.2,2.7c0.2,4.2,0.4,8.5,2.2,12.4
					c0.5,1.2,1.2,2.3,1.7,3.5c0.1,0.2,0.2,0.5,0.3,0.7c-0.4-0.9,0.1,0.2,0.1,0.3c0.2,0.5,0.4,1,0.6,1.6c0.5,1.5,0.9,3,1.3,4.5
					c0.4,1.4,1,2.8,2,3.9c1.6,1.7,4.8,1.7,6.4,0C305.7,323.4,305.7,320.7,304,318.9L304,318.9z"/>
			</g>
		</g>
		<g>
			<g>
				<path class="st3" d="M341.3,326.1c-0.2-3-1.7-5.8-2.9-8.5c-0.1-0.3,0.4,0.9,0.1,0.1c-0.1-0.2-0.2-0.4-0.2-0.7
					c-0.3-0.9-0.5-1.7-0.8-2.6c-0.5-1.6-1-3.2-1.6-4.7c-0.7-1.9-1.4-3.7-2-5.5c-0.2-0.6-0.4-1.2-0.5-1.8c0-0.2,0-0.3-0.1-0.5
					c0,0.1,0.1,1.4,0.1,0.7c0-0.3,0-0.7,0-1c0-0.3,0-0.6,0-1c0-1.6-0.6,2.1-1.5,2.7c-0.2,0.1-1.6,1-0.9,0.5c0.1,0,0.2,0,0.3-0.1
					c0.4-0.1-0.6,0.1-0.6,0.1c0.3,0,0.6-0.1,0.9-0.1c0.7,0,1.4,0,2.1,0c0.4,0,0.9,0.1,1.3,0.1c0.5,0-0.1,0-0.2,0
					c0.2,0,0.4,0.1,0.6,0.1c1,0.2,2,0.4,3,0.6c0.8,0.2,1.7,0.7,2.5,0.8c-0.3,0-1.1-0.6-0.5-0.2c0.2,0.1,0.3,0.2,0.5,0.3
					c0.7,0.4-0.8-0.7-0.3-0.2c0.1,0.1,0.3,0.2,0.4,0.4c0.4,0.3,0.7,0.7,1,1c0.1,0.2,0.3,0.3,0.4,0.5c0.5,0.6,0,0.2-0.1-0.2
					c0.2,0.5,0.7,1,1,1.4c1.3,2,2.4,4.1,3.5,6.2c0.5,1.1,1.1,2.3,1.6,3.5c0.3,0.8-0.3-0.8,0,0c0.1,0.3,0.2,0.5,0.3,0.8
					c0.2,0.6,0.5,1.2,0.7,1.8c0.7,1.9,1.5,3.9,2.1,5.8c0.4,1.1,0.8,2.3,1.1,3.4c0,0.1,0.1,0.2,0.1,0.3c0,0,0.2,1.2,0.1,0.7
					c-0.1-0.5,0,0.1,0,0.2c0,0.3,0,0.5,0.1,0.8c0,0.8,0,1.6,0,2.4c0,0.2-0.2,1.2-0.1,0.6c0.1-0.6,0,0,0,0.1
					c-0.1,0.3-0.1,0.6-0.2,0.8c-0.1,0.6-0.3,1.3-0.5,1.9c-0.1,0.4-0.2,0.7-0.4,1c-0.1,0.2-0.5,1.2-0.2,0.6c0.2-0.6-0.1,0.3-0.2,0.4
					c-0.1,0.3-0.3,0.6-0.4,0.9c-0.3,0.6-0.6,1.1-0.9,1.7c-1,1.9-2.1,3.8-2.4,5.9c-0.8,5-0.4,10.2,0.2,15.2c1.1,8.8,3,17.4,4.8,26.1
					c0,0.1,0,0.3,0.1,0.4c0.2,0.6-0.1-1.3-0.1-1c0.2-0.8,0.4-1.5,0.6-2.3c0,0,0,0,0,0c1.3-0.7,2.6-1.5,3.9-2.2c0,0,0,0,0,0
					c-2.3,0.1-4.6,2-4.5,4.5c0.1,2.4,2,4.6,4.5,4.5c0,0,0,0,0,0c1.5-0.1,3.3-0.8,3.9-2.2c0.8-1.9,0.5-3.3,0.1-5.1
					c-0.4-1.6-0.7-3.2-1.1-4.9c-1.1-5.1-2.1-10.2-2.8-15.4c-0.1-0.4-0.1-0.7-0.2-1.1c-0.2-1.1,0.1,0.6,0-0.2
					c-0.1-0.7-0.2-1.4-0.3-2.1c-0.2-1.4-0.3-2.8-0.4-4.1c-0.2-2.4-0.2-4.9-0.1-7.3c0-0.3,0-0.5,0.1-0.8c0.1-0.7,0.1-0.1-0.1,0.3
					c0.1-0.4,0.2-0.9,0.3-1.3c0.1-0.4,0.5-0.9-0.1,0.3c0.1-0.2,0.2-0.4,0.3-0.6c0.2-0.5,0.5-1,0.8-1.6c1.4-2.6,2.7-5.3,3.5-8.1
					c1.4-4.8,1-9.7-0.5-14.4c-1.5-4.6-3.3-9.2-5.3-13.6c-2-4.3-4.3-9.1-8-12.3c-2.6-2.2-5.9-3.2-9.3-3.7c-3.3-0.6-7.6-1.2-10.7,0.4
					c-4.2,2.2-2.7,8.5-1.4,12.1c0.9,2.5,1.8,4.9,2.6,7.4c0.5,1.6,1,3.3,1.6,4.8c0.3,0.8,0.7,1.6,1,2.4c0.1,0.3,0.3,0.6,0.4,1
					c0.2,0.4,0.5,1,0.1,0.2c0.3,0.6,0.5,1.3,0.8,1.9c0.2,0.6,0.4,2.2,0.2,0.5c0.2,2.3,1.9,4.6,4.5,4.5
					C339.1,330.5,341.5,328.6,341.3,326.1L341.3,326.1z"/>
			</g>
		</g>
		<g>
			<g>
				<path class="st3" d="M319.9,404.8c-1.3,2.5-0.3,6,2.7,6.7c1,0.2,1.9,0.2,2.8-0.1c0.9-0.2,1.8-0.6,2.6-0.9
					c3.7-1.4,7.3-2.9,10.9-4.5c7.7-3.3,15.4-6.6,22.7-10.6c1.2-0.7,2.4-1.3,3.5-2.2c0.8-0.6,1.4-1.3,1.8-2.3c0.8-2,0.2-4.9-1.9-5.8
					c-1.8-0.8-4-0.9-5.5,0.7c-1.3,1.4-1.9,3.8-0.7,5.5c1.9,2.6,3.7,5.3,5.5,8c4.3,6.4,8.5,12.9,12.5,19.4c4.9,7.9,9.5,16,13.7,24.3
					c1,2,2,4,2.9,6c0.4,1,0.9,2,1.3,2.9c0.1,0.2,0.2,0.4,0.3,0.6c0.2,0.4-0.3-0.6-0.2-0.5c0.1,0.1,0.1,0.3,0.2,0.4
					c0.2,0.5,0.4,1,0.6,1.5c1.4,3.4,2.6,6.9,3.5,10.5c0.2,0.8,0.3,1.6,0.5,2.3c0.1,0.4,0.1,0.7,0.2,1.1c-0.1-0.3-0.2-1.3-0.1-0.5
					c0,0.2,0,0.4,0.1,0.6c0.1,1.3,0,2.6,0,3.9c0-0.2,0.2-1.4,0.1-0.6c0,0.1,0,0.2-0.1,0.4c-0.1,0.3-0.1,0.6-0.2,0.8
					c-0.1,0.2-0.2,0.5-0.2,0.7c-0.2,0.6,0.6-1.2,0.3-0.6c-0.1,0.1-0.1,0.2-0.2,0.4c-0.6,1.1-1.4,2.1-2.1,3.2
					c-1.2,1.8-2.4,3.6-3.6,5.4c-0.7,1.1-1.5,2.1-2.3,3.2c-0.4,0.5-0.8,1-1.2,1.6c-0.3,0.4,0.2-0.3,0.2-0.3c-0.1,0.1-0.2,0.2-0.3,0.4
					c-0.3,0.3-0.5,0.6-0.8,1c-1.7,2.1-3.5,4.2-5.5,6.1c-0.4,0.4-0.9,0.8-1.4,1.2c-0.2,0.2-0.4,0.4-0.6,0.5c-0.1,0.1-0.3,0.2-0.4,0.3
					c0.1-0.1,0.8-0.6,0.3-0.2c-0.9,0.7-1.8,1.3-2.9,1.8c-0.5,0.2-0.9,0.1,0.1,0c-0.2,0-0.4,0.2-0.6,0.2c-0.5,0.2-1,0.2-1.4,0.4
					c0,0,1.2-0.1,0.7-0.1c-0.2,0-0.4,0-0.6,0c-0.3,0-0.6,0-0.8,0c-0.6,0-1.3,0-1.9-0.1c-0.1,0-0.3,0-0.4,0c-0.8-0.1,0.3,0,0.4,0.1
					c-0.2-0.1-0.6-0.1-0.8-0.1c-0.7-0.1-1.3-0.3-2-0.5c-0.6-0.2-1.2-0.4-1.8-0.6c-1-0.4,0.5,0.3-0.2-0.1c-0.3-0.2-0.7-0.3-1-0.5
					c-1.3-0.6-2.6-1.4-3.8-2.2c-0.3-0.2-0.6-0.5-1-0.7c-0.1-0.1-0.3-0.2-0.4-0.3c0,0,0.6,0.5,0.2,0.2c-0.6-0.5-1.3-1-1.9-1.6
					c-2.7-2.4-5.1-5-7.3-7.8c0.4,0.6-0.2-0.2-0.3-0.4c-0.3-0.4-0.6-0.8-0.9-1.2c-0.6-0.8-1.2-1.7-1.7-2.5c-1-1.6-2-3.1-3-4.8
					c-0.9-1.6-1.8-3.3-2.5-5c-0.2-0.5-0.4-0.9-0.6-1.4c-0.1-0.2-0.2-0.4-0.3-0.7c-0.4-0.9,0.4,0.9,0-0.1c-0.4-1.1-0.9-2.2-1.3-3.2
					c-0.9-2.3-1.8-4.7-2.6-7.1c-3.5-10.1-6.5-20.4-9.5-30.7c-1.2-4.1-2.3-8.3-3.5-12.4c-0.7-2.4-1.3-4.9-2.2-7.2
					c-0.5-1.5-1.1-2.7-2.5-3.6c-2-1.2-5-0.5-6.2,1.6c-1.2,2.2-0.5,4.8,1.6,6.2c-0.7-0.4-1.1-0.9-1.5-1.5c0,0,0,0.1,0,0.1
					c0.4,0.6-0.3-0.9-0.3-0.7c0.1,0.3,0.2,0.6,0.3,1c0.4,1.1,0.7,2.2,1,3.3c1.1,3.7,2.1,7.4,3.1,11c2.9,10.3,5.8,20.6,9.2,30.7
					c3.2,9.6,6.6,19.3,12.1,27.8c7.2,11.1,18.2,23.8,32.6,24c5.8,0.1,10.5-2.9,14.6-6.8c4.2-4,7.7-8.7,11-13.4
					c1.3-1.8,2.5-3.7,3.7-5.5c0.7-1.1,1.5-2.1,2.1-3.3c1.5-2.7,1.9-5.9,1.7-8.9c-0.5-8-3.7-15.7-7-22.9c-3.8-8.5-8.3-16.8-13.1-24.8
					c-4.4-7.4-9-14.7-13.7-21.9c-2.6-3.9-5.3-7.9-8-11.7c-0.1-0.2-0.3-0.4-0.4-0.5c-2.1,2.1-4.1,4.1-6.2,6.2c-2-0.9-2.6-4.1-1.5-5.9
					c-0.2,0.3,1-1.2,0.5-0.7c-0.5,0.6,0.7-0.5,0.6-0.4c-0.2,0.1-0.3,0.2-0.4,0.3c-0.9,0.6-1.8,1.1-2.7,1.5c-3,1.6-6,3-9,4.4
					c-3.6,1.7-7.3,3.3-11,4.9c-0.9,0.4-1.8,0.8-2.7,1.1c-0.4,0.2-0.9,0.4-1.3,0.6c-0.2,0.1-0.4,0.2-0.6,0.3c-0.2,0.1-1,0.4-0.3,0.1
					c0.8-0.3,0,0-0.1,0.1c-0.2,0.1-0.4,0.2-0.6,0.2c-0.4,0.2-0.8,0.3-1.2,0.5c-0.7,0.3-1.4,0.6-2.1,0.9c-1.2,0.5-2.5,1-3.7,1.4
					c-0.4,0.1-0.8,0.3-1.2,0.4c-0.1,0-0.3,0-0.4,0.1c0.9-0.6,3.5,0.4,4.1,1.2c0.4,0.7,0.8,1.3,1.2,2c-0.1,1.1-0.3,2.3-0.4,3.4
					c1.1-2.1,0.6-5-1.6-6.2C324,402.1,321,402.5,319.9,404.8L319.9,404.8z"/>
			</g>
		</g>
	</g>
</g>
<g id="location" class="st0">
	<g class="st1">
		<g>
			<path class="st2" d="M529.4,85.3c4.9-5.3,7.9-12.5,7.9-20.3c0-16.6-13.4-30-30-30s-30,13.4-30,30c0,8.7,3.7,16.5,9.6,22l20.4,31
				L529.4,85.3z"/>
		</g>
		<g>
			<path class="st16" d="M529.4,85.3c4.9-5.3,7.9-12.5,7.9-20.3c0-16.6-13.4-30-30-30s-30,13.4-30,30c0,8.7,3.7,16.5,9.6,22l20.4,31
				L529.4,85.3z"/>
		</g>
	</g>
	<circle class="st17" cx="506.7" cy="64.5" r="13.5"/>
	<path class="st18" d="M464.1,79.9c-8.4-8.8-8-22.7,0.8-31.1"/>
	<path class="st18" d="M561.2,35.2c15.4,17.4,13.7,44-3.7,59.4"/>
	<path class="st18" d="M548.7,49.3c8.1,9,7.4,22.9-1.6,31.1"/>
	<path class="st18" d="M449.9,92.4c-15.9-17-15-43.6,2-59.5"/>
</g>
</svg>
