<?xml version="1.0" encoding="utf-8"?>
<!-- Generator: Adobe Illustrator 23.0.6, SVG Export Plug-In . SVG Version: 6.00 Build 0)  -->
<svg version="1.1" id="レイヤー_1" xmlns="http://www.w3.org/2000/svg" xmlns:xlink="http://www.w3.org/1999/xlink" x="0px"
	 y="0px" viewBox="0 0 473.6 193.2" style="enable-background:new 0 0 473.6 193.2;" xml:space="preserve">
<style type="text/css">
	.st0{fill:none;stroke:#000000;stroke-width:3;stroke-linecap:round;stroke-linejoin:round;stroke-miterlimit:10;}
	.st1{fill:#FFF000;stroke:#000000;stroke-width:3;stroke-linecap:round;stroke-linejoin:round;stroke-miterlimit:10;}
	.st2{display:none;fill:none;stroke:#000000;stroke-width:2;stroke-miterlimit:10;}
	.st3{display:none;}
	.st4{display:inline;}
</style>
<g id="派">
	<g>
		<line class="st0" x1="119.8" y1="32.6" x2="127.1" y2="37.6"/>
	</g>
	<line class="st0" x1="119.7" y1="43.9" x2="127" y2="48.9"/>
	<line class="st0" x1="119.9" y1="81.6" x2="124.9" y2="59.6"/>
	<line class="st0" x1="173.9" y1="32.6" x2="141.9" y2="32.6"/>
	<line class="st0" x1="130.9" y1="81.6" x2="141.9" y2="32.6"/>
	<line class="st0" x1="173.9" y1="43.6" x2="150.9" y2="43.6"/>
	<line class="st0" x1="142.9" y1="81.6" x2="150.4" y2="44.3"/>
	<polygon class="st1" points="174.3,55.1 162.3,81.4 148.6,55.1 	"/>
	<path class="st0" d="M130.9,31.6"/>
	<path class="st0" d="M120.1,82"/>
</g>
<g id="遣">
	<line class="st0" x1="204.9" y1="47.1" x2="230.9" y2="47.1"/>
	<line class="st0" x1="206.9" y1="53.1" x2="228.9" y2="53.1"/>
	<line class="st0" x1="229.4" y1="60.6" x2="229.4" y2="52.6"/>
	<line class="st0" x1="229.4" y1="74.6" x2="229.4" y2="66.1"/>
	<line class="st0" x1="206.9" y1="74.1" x2="228.9" y2="74.1"/>
	<line class="st0" x1="206.4" y1="52.6" x2="206.4" y2="74.6"/>
	<path class="st0" d="M190.9,29.6v14V29.6z"/>
	<line class="st2" x1="184.4" y1="46.6" x2="196.4" y2="46.6"/>
	<line class="st2" x1="184.9" y1="65.6" x2="195.4" y2="47.1"/>
	<line class="st2" x1="196.4" y1="65.6" x2="184.9" y2="65.6"/>
	<line class="st2" x1="184.9" y1="82.6" x2="195.4" y2="66.1"/>
	<line class="st0" x1="237.9" y1="81.6" x2="187.9" y2="81.6"/>
	<rect x="206.4" y="34.1" class="st1" width="23.5" height="7.5"/>
	<line class="st0" x1="218.4" y1="29.1" x2="218.4" y2="46.6"/>
	<polyline class="st2" points="186.4,46.1 198.4,46.1 186.4,64.1 	"/>
	<polyline class="st2" points="185.4,64.1 197.4,64.1 185.4,82.1 	"/>
	<polyline class="st0" points="184.4,43.6 196.9,43.6 187.9,60.6 	"/>
	<polyline class="st0" points="187.9,61.6 195.9,61.6 188.9,80.6 	"/>
</g>
<g id="会">
	<polyline class="st0" points="277.4,64.1 270.4,52.1 253.1,82.1 287.7,82.1 282.9,73.7 	"/>
	<polygon class="st1" points="269.9,29.1 243.4,65.1 296.4,65.1 	"/>
	<line class="st0" x1="261.4" y1="53.1" x2="278.4" y2="53.1"/>
</g>
<g id="議">
	<line class="st0" x1="313.9" y1="29.1" x2="313.9" y2="36.6"/>
	<line class="st0" x1="306.4" y1="37.6" x2="322.4" y2="37.6"/>
	<line class="st0" x1="306.4" y1="44.6" x2="322.4" y2="44.6"/>
	<line class="st0" x1="306.4" y1="51.6" x2="322.4" y2="51.6"/>
	<line class="st0" x1="337.9" y1="29.1" x2="337.9" y2="36.6"/>
	<line class="st0" x1="355.9" y1="29.1" x2="355.9" y2="37.6"/>
	<line class="st0" x1="329.9" y1="37.6" x2="362.9" y2="37.6"/>
	<line class="st0" x1="346.9" y1="38.1" x2="346.9" y2="50.6"/>
	<line class="st0" x1="329.9" y1="44.6" x2="362.9" y2="44.6"/>
	<line class="st0" x1="329.9" y1="51.6" x2="362.9" y2="51.6"/>
	<line class="st0" x1="329.9" y1="58.6" x2="343.9" y2="58.6"/>
	<line class="st0" x1="329.9" y1="66.6" x2="362.9" y2="66.6"/>
	<line class="st0" x1="337.9" y1="59.6" x2="337.9" y2="82.6"/>
	<line class="st0" x1="329.9" y1="74.6" x2="343.4" y2="74.6"/>
	<line class="st0" x1="354.9" y1="59.6" x2="354.9" y2="82.6"/>
	<line class="st0" x1="349.9" y1="58.6" x2="362.9" y2="58.6"/>
	<line class="st0" x1="349.9" y1="74.6" x2="362.9" y2="74.6"/>
	<rect x="306.4" y="58.6" class="st1" width="16" height="23.5"/>
	<rect x="206.4" y="60.1" class="st1" width="23" height="7"/>
</g>
<g>
	<path d="M1.6,142.1c1.2,0.7,2.3,1.4,3.3,2.3c0.1,0.1,0.1,0.1,0.1,0.2c0,0.1-0.1,0.1-0.1,0.3l-1,1.5c-0.1,0.1-0.1,0.1-0.2,0.1
		c0,0-0.1-0.1-0.2-0.1c-0.9-0.9-2-1.8-3.2-2.5c-0.1-0.1-0.2-0.1-0.2-0.2c0-0.1,0.1-0.1,0.2-0.3l0.9-1.2c0.1-0.1,0.2-0.2,0.3-0.2
		C1.4,142,1.5,142.1,1.6,142.1z M0.1,155.4c0.4-0.6,0.8-1.3,1-1.9c0.7-1.6,1.4-3.4,1.9-5.4c0.4,0.4,0.9,0.8,1.3,1.1
		c0.3,0.2,0.5,0.4,0.5,0.6c0,0.1,0,0.2-0.1,0.5c-0.5,1.7-1.1,3.4-1.8,5.2c-0.2,0.4-0.3,0.7-0.3,0.9c0,0.2-0.1,0.3-0.2,0.3
		c-0.1,0-0.3-0.1-0.5-0.1C1.2,156.1,0.6,155.8,0.1,155.4z M2.5,136.4c1,0.6,2.1,1.4,3.1,2.4c0.1,0.1,0.1,0.1,0.1,0.2
		s-0.1,0.1-0.1,0.3l-1,1.4c-0.1,0.1-0.2,0.2-0.2,0.2c0,0-0.1,0-0.2-0.1c-1.1-1.1-2.2-2-3.2-2.6c-0.1-0.1-0.1-0.1-0.1-0.1
		c0-0.1,0.1-0.1,0.1-0.3l1-1.2c0.1-0.1,0.2-0.2,0.3-0.2C2.3,136.3,2.4,136.3,2.5,136.4z M6.7,137.6c0.8,0.2,1.6,0.4,2.3,0.8
		c2.5-0.4,4.8-0.9,7-1.7c0.5-0.2,1-0.4,1.5-0.7c0.6,0.4,1.2,0.9,1.8,1.5c0.2,0.2,0.3,0.3,0.3,0.4c0,0.2-0.1,0.2-0.4,0.2
		c-0.2,0-0.5,0.1-1,0.3c-3.1,1-6.2,1.7-9.1,2.1v2.2c2.8-0.3,5.2-0.9,7.5-1.6c0.6-0.2,1.1-0.4,1.5-0.7c0.6,0.4,1.1,0.9,1.7,1.4
		c0.1,0.1,0.2,0.3,0.2,0.4c0,0.2-0.1,0.3-0.4,0.3c-0.1,0-0.4,0.1-0.9,0.2c-0.8,0.3-1.7,0.5-2.6,0.8c0.1,1.2,0.4,2.4,0.7,3.5
		c0.5-0.4,1-0.9,1.3-1.4c0.4-0.4,0.6-0.8,0.8-1.2c0.7,0.4,1.2,0.8,1.6,1.2c0.2,0.2,0.3,0.3,0.3,0.5c0,0.1-0.1,0.2-0.3,0.3
		c-0.2,0.1-0.5,0.4-0.8,0.7c-0.7,0.7-1.4,1.3-2.2,2c0.8,2,1.9,3.8,3.4,5.3c-0.5,0.4-0.9,1-1.2,1.7c-0.1,0.3-0.3,0.4-0.4,0.4
		s-0.2-0.1-0.4-0.3c-1.4-1.8-2.4-3.6-3.1-5.6c-0.7-2-1.2-4.2-1.5-6.6l-1,0.2v9.3l0.1,3.1c0,0.1-0.1,0.2-0.2,0.2h-1.8
		c-0.1,0-0.2,0-0.2-0.1c0,0,0-0.1,0-0.2l0.1-3.1v-8.9c-0.6,0.1-1.3,0.2-1.9,0.3c-0.1,2.7-0.3,4.9-0.7,6.7c-0.4,1.7-1.1,3.3-1.9,4.7
		c-0.2,0.3-0.3,0.5-0.4,0.5c-0.1,0-0.3-0.1-0.5-0.3c-0.5-0.5-1-0.9-1.4-1.1c0.9-1.3,1.6-2.9,2.1-4.8c0.4-1.8,0.6-4,0.6-6.6v-2.1
		C6.9,140.1,6.9,138.8,6.7,137.6z"/>
	<path d="M44.1,153.8c-0.3,0.4-0.5,1-0.6,1.6c-0.1,0.4-0.1,0.6-0.2,0.7c-0.1,0.1-0.3,0.1-0.6,0.1c-2.9,0.1-5.5,0.2-8,0.2
		c-2.6,0-4.4-0.2-5.3-0.6c-1-0.4-1.9-1.1-2.4-2.1c-0.6,0.6-1.3,1.2-2.2,1.9c-0.2,0.1-0.4,0.3-0.5,0.5c-0.1,0.1-0.2,0.2-0.3,0.2
		c-0.1,0-0.2-0.1-0.3-0.3c-0.2-0.4-0.5-1.1-0.9-2c0.6-0.3,1-0.5,1.3-0.7c0.5-0.4,1.1-0.8,1.8-1.5v-5.1h-1l-1.6,0.1
		c-0.1,0-0.2,0-0.2-0.1c0,0,0-0.1,0-0.2v-1.7c0-0.1,0-0.2,0-0.2c0,0,0.1,0,0.2,0l1.6,0.1h1.3l1.7-0.1c0.1,0,0.2,0,0.2,0.1
		c0,0,0,0.1,0,0.2l0,2.2v5c0.4,0.9,1.1,1.5,2,1.9c0.8,0.3,2.2,0.5,4.3,0.5C37.5,154.3,40.8,154.2,44.1,153.8z M23.6,138
		c-0.1-0.1-0.1-0.1-0.1-0.2c0-0.1,0.1-0.1,0.2-0.2l1.2-0.8c0.1-0.1,0.2-0.1,0.3-0.1s0.1,0,0.2,0.1c1.1,1.1,2.1,2.2,2.9,3.4
		c0,0.1,0.1,0.1,0.1,0.2c0,0.1-0.1,0.1-0.2,0.2l-1.2,1c-0.1,0.1-0.2,0.1-0.3,0.1c0,0-0.1-0.1-0.2-0.1C25.5,140.2,24.6,139,23.6,138z
		 M31.9,143.9l-3.1,0.1c-0.1,0-0.2,0-0.2-0.1c0,0,0-0.1,0-0.2v-1.3c0-0.1,0-0.2,0-0.2c0,0,0.1,0,0.2,0l3.1,0.1h2.8v-0.9H33l-3,0.1
		c-0.1,0-0.2,0-0.2-0.1c0,0,0-0.1,0-0.2l0-1.2v-1l0-1.2c0-0.1,0-0.2,0-0.2s0.1,0,0.2,0l3,0.1h1.8c0-0.6-0.1-1.1-0.1-1.4
		c0.8,0,1.6,0.1,2.2,0.1c0.2,0,0.3,0.1,0.3,0.2l-0.1,0.4c-0.1,0.2-0.1,0.4-0.1,0.7h1.9l3-0.1c0.1,0,0.2,0,0.2,0.1c0,0,0,0.1,0,0.2
		l0,1.2v1l0,1.2c0,0.1,0,0.2,0,0.2c0,0-0.1,0-0.2,0l-3-0.1h-1.9v0.9H40l3.2-0.1c0.1,0,0.2,0,0.2,0.1c0,0,0,0.1,0,0.2v1.3
		c0,0.1,0,0.2,0,0.2c0,0-0.1,0-0.2,0l-3.2-0.1L31.9,143.9L31.9,143.9z M38.7,149.3l2.9-0.1c0.1,0,0.2,0,0.2,0.1c0,0,0,0.1,0,0.2
		l0,1.3v0.8l0,1.3c0,0.1,0,0.2,0,0.2c0,0-0.1,0-0.2,0l-2.9-0.1h-5l-3.2,0.1c-0.1,0-0.2,0-0.2-0.1c0,0,0-0.1,0-0.2l0-2.4v-3.1l0-2.4
		c0-0.1,0-0.2,0-0.2s0.1,0,0.2,0l3,0.1h4.6l2.8-0.1c0.1,0,0.2,0,0.2,0.1c0,0,0,0.1,0,0.2l0,1.2v0.7l0,1.2c0,0.1,0,0.2,0,0.2
		c0,0-0.1,0.1-0.2,0.1l-2.8-0.1h-5.6v1H38.7L38.7,149.3L38.7,149.3z M31.9,139.8h2.8v-1.1h-2.8V139.8z M38.9,147v-0.9h-6.3v0.9H38.9
		z M39.6,151.6v-1h-7v1H39.6z M39.8,139.8v-1.1h-2.9v1.1H39.8z"/>
	<path d="M66.9,143.6c-0.4,0.5-0.7,1.1-1,1.7c-0.2,0.4-0.3,0.6-0.4,0.6c-0.1,0-0.3-0.1-0.5-0.2c-1.7-0.7-3.1-1.5-4.3-2.4v1.7
		c0,0.1,0,0.2,0,0.2s-0.1,0-0.2,0l-2.6-0.1h-3.5l-2.6,0.1c-0.1,0-0.2,0-0.2-0.1c0,0,0-0.1,0-0.2v-1.7c-1.2,0.9-2.6,1.7-4.1,2.4
		c-0.3,0.1-0.5,0.2-0.5,0.2c-0.1,0-0.2-0.2-0.4-0.6c-0.3-0.6-0.6-1.1-1-1.5c3.8-1.5,6.7-3.7,8.7-6.6c0.3-0.5,0.6-1,0.8-1.5
		c0.9,0.1,1.8,0.3,2.5,0.5c0.3,0.1,0.4,0.2,0.4,0.3s-0.1,0.3-0.2,0.4c-0.1,0.1-0.2,0.1-0.3,0.2C59.7,140,62.9,142.2,66.9,143.6z
		 M50,149.4l-3,0.1c-0.1,0-0.2,0-0.2-0.1c0,0,0-0.1,0-0.2v-1.7c0-0.1,0-0.2,0-0.2s0.1,0,0.2,0l3,0.1h12.1l3-0.1c0.1,0,0.2,0,0.2,0.1
		c0,0,0,0.1,0,0.2v1.7c0,0.1,0,0.2,0,0.2c0,0-0.1,0-0.2,0l-3-0.1h-7c-0.6,1.4-1.2,2.8-2,4.3c2.4-0.1,4.7-0.3,7-0.6
		c-0.7-0.9-1.3-1.5-1.7-1.9c-0.1-0.1-0.1-0.1-0.1-0.2c0-0.1,0.1-0.1,0.2-0.2l1.5-0.8c0.1-0.1,0.2-0.1,0.2-0.1c0.1,0,0.1,0.1,0.2,0.1
		c1.4,1.5,2.8,3.3,4.2,5.3c0.1,0.1,0.1,0.1,0.1,0.2c0,0.1-0.1,0.1-0.2,0.2l-1.6,1c-0.1,0.1-0.2,0.1-0.3,0.1c-0.1,0-0.1-0.1-0.2-0.1
		c-0.3-0.5-0.7-1.1-1.1-1.8c-3,0.4-7,0.8-12.3,1.1c-0.3,0-0.6,0.1-0.8,0.2c-0.1,0.1-0.2,0.1-0.4,0.1c-0.2,0-0.3-0.1-0.3-0.3
		c-0.1-0.5-0.3-1.3-0.5-2.3c0.3,0,0.7,0.1,1.1,0.1c0.4,0,0.8,0,1.4-0.1l0.7,0c0.8-1.5,1.5-3,2-4.4L50,149.4L50,149.4L50,149.4z
		 M51.8,143c0.3,0,1.1,0.1,2.5,0.1h3.5c1.3,0,2.1,0,2.5-0.1c-1.6-1.2-3.1-2.6-4.3-4.2C54.8,140.4,53.4,141.8,51.8,143z"/>
	<path d="M70.9,140h1.7l2.4-0.1c0.1,0,0.2,0,0.2,0.1c0,0,0,0.1,0,0.2v1.6c0,0.1,0,0.2-0.1,0.2c0,0-0.1,0-0.2,0l-2.4-0.1h-1.7
		l-2.4,0.1c-0.1,0-0.2,0-0.2-0.1c0,0,0-0.1,0-0.2v-1.6c0-0.1,0-0.2,0.1-0.2s0.1,0,0.2,0L70.9,140z M74.8,156.2c0,0.1,0,0.2-0.1,0.2
		s-0.1,0-0.2,0H73c-0.1,0-0.2,0-0.2-0.1c0,0,0-0.1,0-0.2v-0.5h-1.7v0.9c0,0.1,0,0.2-0.1,0.2c0,0-0.1,0-0.2,0h-1.5
		c-0.1,0-0.2,0-0.2-0.1c0,0,0-0.1,0-0.2l0.1-3.4v-1.5l0-2.1c0-0.1,0-0.2,0.1-0.2c0,0,0.1,0,0.2,0l2.1,0.1h1.1l2.1-0.1
		c0.1,0,0.2,0,0.2,0.1c0,0,0,0.1,0,0.2l-0.1,1.8v1.6L74.8,156.2z M71.4,136.9h1.2l2.1-0.1c0.1,0,0.2,0,0.2,0.1c0,0,0,0.1,0,0.2v1.5
		c0,0.1,0,0.2-0.1,0.2c0,0-0.1,0-0.2,0l-2.1-0.1h-1.2l-2.1,0.1c-0.1,0-0.2,0-0.2-0.1c0,0,0-0.1,0-0.2v-1.5c0-0.1,0-0.2,0.1-0.2
		s0.1,0,0.2,0L71.4,136.9z M71.5,143.2h0.9l1.9-0.1c0.1,0,0.2,0,0.2,0.1c0,0,0,0.1,0,0.2v1.5c0,0.1,0,0.2-0.1,0.2s-0.1,0-0.2,0
		l-1.9-0.1h-0.9l-1.9,0.1c-0.1,0-0.2,0-0.2-0.1c0,0,0-0.1,0-0.2v-1.5c0-0.1,0-0.2,0.1-0.2s0.1,0,0.2,0L71.5,143.2z M71.5,146.3h0.9
		l1.9-0.1c0.1,0,0.2,0,0.2,0.1c0,0,0,0.1,0,0.2v1.5c0,0.1,0,0.2-0.1,0.2s-0.1,0-0.2,0l-1.9-0.1h-0.9l-1.9,0.1c-0.1,0-0.2,0-0.2-0.1
		c0,0,0-0.1,0-0.2v-1.5c0-0.1,0-0.2,0.1-0.2c0,0,0.1,0,0.2,0L71.5,146.3z M72.8,151.3h-1.7v2.5h1.7V151.3z M80.4,154.9
		c1.3-0.4,2.4-0.9,3.5-1.7c-0.5-1-0.8-2.1-0.9-3.4l-2.7,0.1v1.1l2-0.4c-0.1,0.1-0.1,0.6-0.2,1.3c0,0.2,0,0.4-0.1,0.4
		c0,0.1-0.1,0.1-0.3,0.1l-1.4,0.3c0,0.1,0,0.4,0,0.6c0,0.5,0.1,0.9,0.1,1.2c0,1-0.2,1.6-0.6,1.9c-0.4,0.3-1.2,0.4-2.3,0.4
		c-0.2,0-0.2,0-0.3,0c-0.2,0-0.4-0.1-0.4-0.1c-0.1-0.1-0.1-0.3-0.1-0.5c-0.1-0.5-0.3-0.9-0.4-1.2c0.5,0.1,1,0.1,1.5,0.1
		c0.3,0,0.5-0.1,0.7-0.2c0.1-0.1,0.1-0.3,0.1-0.6V153l-1.5,0.2c-0.4,0.1-0.7,0.1-0.8,0.2c-0.2,0.1-0.3,0.1-0.3,0.1
		c-0.1,0-0.2-0.1-0.3-0.3c-0.1-0.5-0.2-1.1-0.3-1.7c0.6,0,1.2,0,1.8-0.1c0.6-0.1,1.1-0.1,1.4-0.1v-1.3c-0.7,0-1.4,0-2,0.1
		c-0.4,0-0.7,0-0.7,0c-0.2,0-0.2-0.1-0.2-0.2l0-1.2c0-0.1,0-0.2,0.1-0.2c0,0,0.1,0,0.2,0l1.2,0c0.4,0,0.9,0,1.4,0v-0.9l-1.4,0.2
		c-0.2,0-0.3,0-0.3,0c-0.1,0-0.2-0.1-0.3-0.4c-0.2-0.5-0.3-0.8-0.5-1.1c1.5-0.1,2.9-0.4,4.1-0.7c0.4-0.1,0.7-0.2,0.9-0.4
		c0.3,0.2,0.7,0.6,1.1,1c0.1,0.1,0.1,0.2,0.1,0.3c0,0.1-0.1,0.2-0.3,0.2c-0.2,0-0.4,0.1-0.7,0.1c-0.4,0.1-0.7,0.2-0.8,0.3v1.3l2.5,0
		l-0.1-1.5c0-0.6-0.1-1.1-0.2-1.5c0.6,0,1.2,0.1,1.8,0.1c0.3,0.1,0.5,0.1,0.5,0.3c0,0,0,0.2-0.1,0.4c-0.1,0.1-0.1,0.3-0.1,0.6v0.4
		c0,0.3,0,0.6,0.1,1.1l1.2,0c0.8,0,1.6-0.1,2.3-0.1c0.5,0,0.7,0,0.8,0c0.1,0,0.2,0,0.2,0.1c0,0,0,0.1,0,0.2l0,1.2
		c0,0.1-0.1,0.2-0.2,0.2c-0.7,0-1.7,0-3.1,0l-1,0c0.1,0.7,0.3,1.4,0.5,2c0.2-0.1,0.3-0.4,0.5-0.6c0.2-0.3,0.5-0.7,0.7-1.1
		c0.5,0.2,0.9,0.5,1.3,0.8c0.2,0.1,0.3,0.3,0.3,0.4c0,0.1-0.1,0.2-0.3,0.3c0,0-0.3,0.2-0.7,0.7c-0.5,0.6-0.8,1-1.1,1.2
		c0.5,0.8,0.9,1.2,1.3,1.2c0.3,0,0.6-0.7,0.7-2.1c0.3,0.2,0.5,0.4,0.9,0.6c0.3,0.2,0.5,0.4,0.5,0.6c0,0.1,0,0.2-0.1,0.4
		c-0.2,0.9-0.4,1.6-0.8,1.9c-0.3,0.3-0.7,0.5-1.2,0.5c-1.1,0-2.1-0.6-2.9-1.9c-0.8,0.6-1.7,1.1-2.6,1.5c-0.3,0.1-0.5,0.2-0.5,0.2
		c-0.1,0-0.3-0.2-0.5-0.5C80.9,155.5,80.7,155.2,80.4,154.9z M78.9,144.8l-3.1,0.1c-0.2,0-0.2-0.1-0.2-0.2v-1.2
		c0-0.2,0.1-0.2,0.2-0.2l3.1,0.1H81v-1H80l-2.8,0.1c-0.1,0-0.2,0-0.2-0.1c0,0,0-0.1,0-0.2v-1.1c0-0.1,0-0.2,0.1-0.2c0,0,0.1,0,0.2,0
		l2.8,0.1H81v-1h-1.5l-3,0.1c-0.1,0-0.2,0-0.2-0.1c0,0,0-0.1,0-0.2v-1.2c0-0.1,0-0.2,0.1-0.2s0.1,0,0.2,0l2.5,0.1
		c-0.3-0.5-0.6-1-0.9-1.4c-0.1-0.1-0.1-0.1-0.1-0.1c0-0.1,0.1-0.1,0.3-0.2l1.2-0.3c0.1,0,0.2-0.1,0.2-0.1c0.1,0,0.1,0.1,0.2,0.1
		c0.5,0.7,0.9,1.3,1.2,2h1.9c0.3-0.4,0.5-0.8,0.7-1.2c0.2-0.3,0.3-0.6,0.3-1c0.8,0.1,1.5,0.3,2,0.4c0.2,0.1,0.3,0.1,0.3,0.2
		c0,0.1-0.1,0.2-0.2,0.3c-0.1,0.1-0.3,0.2-0.4,0.4l-0.6,0.8h0.1l3-0.1c0.1,0,0.2,0,0.2,0.1c0,0,0,0.1,0,0.2v1.2c0,0.1,0,0.2-0.1,0.2
		s-0.1,0-0.2,0l-3-0.1h-2.3v1h1.5l2.8-0.1c0.2,0,0.3,0.1,0.3,0.2v1.1c0,0.1,0,0.2-0.1,0.2s-0.1,0-0.2,0l-2.8-0.1h-1.5v1h2.7l3.1-0.1
		c0.1,0,0.2,0,0.2,0.1c0,0,0,0.1,0,0.2v1.2c0,0.1,0,0.2,0,0.2s-0.1,0-0.2,0l-3.1-0.1L78.9,144.8C78.9,144.9,78.9,144.8,78.9,144.8z
		 M86.7,145.2c0.6,0.4,1.2,0.9,1.7,1.5c0.1,0.1,0.1,0.1,0.1,0.2c0,0.1-0.1,0.1-0.2,0.2l-1,0.7c-0.1,0.1-0.2,0.1-0.2,0.1
		c0,0-0.1-0.1-0.2-0.1c-0.5-0.6-1-1.1-1.6-1.6c-0.1-0.1-0.1-0.1-0.1-0.2s0.1-0.1,0.2-0.2l0.8-0.5c0.1-0.1,0.2-0.1,0.3-0.1
		C86.6,145.2,86.6,145.2,86.7,145.2z"/>
	<path d="M94.3,137.3c1.3,0.3,2.1,0.6,2.6,0.8c0.2,0.1,0.3,0.3,0.3,0.5c0,0.1-0.1,0.3-0.2,0.5c-0.1,0.2-0.3,0.6-0.4,1.3
		c-0.8,3.5-1.1,6.2-1.1,8.3c0,1.3,0,2.3,0.1,2.9c0.1-0.3,0.3-0.8,0.8-1.7c0.3-0.6,0.5-1.1,0.7-1.5c0.3,0.6,0.5,1.1,0.8,1.4
		c0.1,0.1,0.1,0.2,0.1,0.3s-0.1,0.2-0.1,0.4c-0.7,1.5-1.1,2.6-1.2,3.4c0,0.3-0.1,0.5-0.1,0.7c0,0.1,0,0.3,0,0.5c0,0,0,0,0,0.1
		c0,0.1-0.1,0.2-0.3,0.2c-0.4,0.1-1,0.3-1.7,0.4c-0.1,0-0.1,0-0.2,0c-0.1,0-0.2-0.1-0.3-0.3c-0.7-1.7-1-4-1-6.9
		c0-1.9,0.3-4.8,0.9-8.6c0.1-0.9,0.2-1.6,0.2-2.1C94.3,137.7,94.3,137.5,94.3,137.3z M104.8,149.4c0-1.3-0.1-3-0.1-5.2
		c-1.1,0-1.9,0.1-2.5,0.1c-0.8,0-1.5,0-2.2-0.1c-0.3,0-0.4-0.1-0.4-0.3c-0.1-0.6-0.2-1.3-0.2-2.1c1,0.1,2,0.1,3,0.1
		c0.7,0,1.4,0,2.2-0.1l0-2.4c0-0.8-0.1-1.5-0.3-2.2c1.2,0.1,2.2,0.2,2.8,0.4c0.3,0.1,0.4,0.2,0.4,0.4c0,0.1-0.1,0.2-0.1,0.4
		c-0.1,0.2-0.2,0.5-0.2,0.8c0,0.5-0.1,1.3-0.1,2.4c1-0.1,2.1-0.2,3.2-0.4c0.1,0,0.1,0,0.1,0c0.1,0,0.2,0.1,0.2,0.3
		c0.1,0.4,0.1,1,0.1,1.6c0,0.2-0.1,0.3-0.3,0.3c-0.8,0.2-2,0.4-3.5,0.5c0,2.2,0.1,4.3,0.2,6.1c1.4,0.6,2.6,1.3,3.8,2.2
		c0.1,0.1,0.2,0.2,0.2,0.2c0,0.1,0,0.1-0.1,0.2c-0.3,0.7-0.7,1.3-1.1,1.8c-0.1,0.1-0.1,0.1-0.2,0.1c-0.1,0-0.1,0-0.2-0.1
		c-0.7-0.7-1.5-1.3-2.4-1.8c-0.2,2-1.6,3-4.2,3c-1.4,0-2.4-0.3-3.2-1c-0.6-0.6-0.9-1.3-0.9-2.2c0-1,0.4-1.8,1.3-2.4
		c0.7-0.5,1.6-0.8,2.7-0.8C103.6,149.2,104.2,149.3,104.8,149.4z M104.8,151.6c-0.6-0.2-1.3-0.3-2-0.3c-1.1,0-1.7,0.4-1.7,1.1
		c0,0.8,0.6,1.1,1.8,1.1c0.6,0,1.1-0.2,1.4-0.5c0.3-0.3,0.4-0.6,0.4-1C104.9,151.8,104.9,151.7,104.8,151.6z"/>
	<path d="M115.6,150.9c0.1,0,0.2,0.1,0.3,0.1c1.7,1.1,3.2,2.4,4.5,4.2c0.1,0.1,0.2,0.3,0.2,0.3c0,0.1-0.1,0.2-0.2,0.4l-1.4,1.2
		c-0.2,0.1-0.3,0.2-0.3,0.2c-0.1,0-0.2-0.1-0.3-0.2c-1.2-1.8-2.7-3.3-4.3-4.4c-0.1-0.1-0.2-0.2-0.2-0.2c0-0.1,0.1-0.1,0.2-0.3
		l1.3-1.1C115.4,151,115.5,150.9,115.6,150.9z"/>
	<path d="M126.8,142.1c1.2,0.7,2.3,1.4,3.3,2.3c0.1,0.1,0.1,0.1,0.1,0.2c0,0.1-0.1,0.1-0.1,0.3l-1,1.5c-0.1,0.1-0.1,0.1-0.2,0.1
		s-0.1-0.1-0.2-0.1c-0.9-0.9-2-1.8-3.2-2.5c-0.1-0.1-0.2-0.1-0.2-0.1c0-0.1,0.1-0.1,0.2-0.3l0.9-1.2c0.1-0.1,0.2-0.2,0.3-0.2
		C126.7,142,126.8,142.1,126.8,142.1z M125.3,155.4c0.4-0.6,0.8-1.3,1.1-1.9c0.7-1.6,1.3-3.4,1.9-5.4c0.4,0.4,0.9,0.8,1.3,1.1
		c0.3,0.2,0.5,0.4,0.5,0.6c0,0.1,0,0.2-0.1,0.5c-0.5,1.7-1.1,3.4-1.8,5.2c-0.1,0.4-0.3,0.7-0.3,0.9c0,0.2-0.1,0.3-0.2,0.3
		c-0.1,0-0.3-0.1-0.5-0.1C126.5,156.1,125.8,155.8,125.3,155.4z M127.8,136.4c1.1,0.6,2.1,1.4,3.1,2.4c0.1,0.1,0.1,0.1,0.1,0.2
		s-0.1,0.1-0.1,0.3l-1,1.4c-0.1,0.1-0.2,0.2-0.2,0.2c0,0-0.1,0-0.2-0.1c-1.1-1.1-2.2-2-3.2-2.6c-0.1-0.1-0.2-0.1-0.2-0.1
		c0-0.1,0.1-0.1,0.2-0.3l1.1-1.2c0.1-0.1,0.2-0.2,0.3-0.2C127.6,136.3,127.7,136.3,127.8,136.4z M132,137.6c0.8,0.2,1.6,0.4,2.3,0.8
		c2.5-0.4,4.8-0.9,7-1.7c0.5-0.2,1-0.4,1.5-0.7c0.6,0.4,1.2,0.9,1.8,1.5c0.2,0.2,0.3,0.3,0.3,0.4c0,0.2-0.1,0.2-0.4,0.2
		c-0.2,0-0.5,0.1-1,0.3c-3.1,1-6.2,1.7-9.1,2.1v2.2c2.8-0.3,5.2-0.9,7.5-1.6c0.6-0.2,1.1-0.4,1.5-0.7c0.6,0.4,1.1,0.9,1.7,1.4
		c0.1,0.1,0.2,0.3,0.2,0.4c0,0.2-0.1,0.3-0.4,0.3c-0.1,0-0.4,0.1-0.9,0.2c-0.8,0.3-1.7,0.5-2.6,0.8c0.1,1.2,0.4,2.4,0.7,3.5
		c0.5-0.4,0.9-0.9,1.3-1.4c0.4-0.4,0.6-0.8,0.8-1.2c0.7,0.4,1.2,0.8,1.6,1.2c0.2,0.2,0.3,0.3,0.3,0.5c0,0.1-0.1,0.2-0.3,0.3
		c-0.2,0.1-0.5,0.4-0.8,0.7c-0.7,0.7-1.4,1.3-2.2,2c0.8,2,1.9,3.8,3.4,5.3c-0.5,0.4-0.9,1-1.2,1.7c-0.1,0.3-0.3,0.4-0.4,0.4
		s-0.2-0.1-0.4-0.3c-1.4-1.8-2.4-3.6-3.1-5.6c-0.7-2-1.2-4.2-1.5-6.6l-1,0.2v9.3l0.1,3.1c0,0.1-0.1,0.2-0.2,0.2h-1.8
		c-0.1,0-0.2,0-0.2-0.1c0,0,0-0.1,0-0.2l0.1-3.1v-8.9c-0.6,0.1-1.3,0.2-1.9,0.3c-0.1,2.7-0.3,4.9-0.7,6.7c-0.4,1.7-1.1,3.3-1.9,4.7
		c-0.2,0.3-0.3,0.4-0.4,0.4s-0.3-0.1-0.5-0.3c-0.5-0.5-1-0.9-1.4-1.1c0.9-1.3,1.6-2.9,2.1-4.8c0.4-1.8,0.6-4,0.6-6.6v-2.1
		C132.2,140.1,132.1,138.8,132,137.6z"/>
	<path d="M169.4,153.8c-0.3,0.4-0.5,1-0.6,1.6c-0.1,0.4-0.1,0.6-0.2,0.7c-0.1,0.1-0.3,0.1-0.6,0.1c-2.9,0.1-5.5,0.2-8,0.2
		c-2.6,0-4.4-0.2-5.3-0.6c-1.1-0.4-1.9-1.1-2.4-2.1c-0.6,0.6-1.3,1.2-2.2,1.9c-0.2,0.1-0.4,0.3-0.5,0.5c-0.1,0.1-0.2,0.2-0.3,0.2
		c-0.1,0-0.2-0.1-0.3-0.3c-0.2-0.4-0.5-1.1-0.9-2c0.6-0.3,1-0.5,1.3-0.7c0.5-0.4,1.1-0.8,1.8-1.5v-5.1h-1l-1.6,0.1
		c-0.1,0-0.2,0-0.2-0.1c0,0-0.1-0.1-0.1-0.2v-1.7c0-0.1,0-0.2,0.1-0.2c0,0,0.1,0,0.2,0l1.6,0.1h1.3l1.7-0.1c0.1,0,0.2,0,0.2,0.1
		c0,0,0,0.1,0,0.2l-0.1,2.2v5c0.4,0.9,1.1,1.5,2,1.9c0.8,0.3,2.2,0.5,4.3,0.5C162.8,154.3,166,154.2,169.4,153.8z M148.8,138
		c-0.1-0.1-0.1-0.1-0.1-0.2c0-0.1,0.1-0.1,0.2-0.2l1.2-0.8c0.1-0.1,0.2-0.1,0.3-0.1s0.1,0,0.2,0.1c1.1,1.1,2.1,2.2,2.9,3.4
		c0.1,0.1,0.1,0.1,0.1,0.2c0,0.1-0.1,0.1-0.2,0.2l-1.2,1c-0.1,0.1-0.2,0.1-0.3,0.1s-0.1-0.1-0.2-0.1
		C150.8,140.2,149.9,139,148.8,138z M157.2,143.9l-3.1,0.1c-0.1,0-0.2,0-0.2-0.1c0,0,0-0.1,0-0.2v-1.3c0-0.1,0-0.2,0.1-0.2
		c0,0,0.1,0,0.2,0l3.1,0.1h2.8v-0.9h-1.8l-3,0.1c-0.1,0-0.2,0-0.2-0.1c0,0,0-0.1,0-0.2l0-1.2v-1l0-1.2c0-0.1,0-0.2,0.1-0.2
		s0.1,0,0.2,0l3,0.1h1.8c0-0.6-0.1-1.1-0.1-1.4c0.8,0,1.6,0.1,2.2,0.1c0.2,0,0.3,0.1,0.3,0.2l-0.1,0.3c-0.1,0.2-0.1,0.4-0.1,0.7h1.9
		l3-0.1c0.1,0,0.2,0,0.2,0.1c0,0,0,0.1,0,0.2l-0.1,1.2v1l0.1,1.2c0,0.1,0,0.2-0.1,0.2c0,0-0.1,0-0.2,0l-3-0.1h-1.9v0.9h3.1l3.2-0.1
		c0.1,0,0.2,0,0.2,0.1c0,0,0,0.1,0,0.2v1.3c0,0.1,0,0.2-0.1,0.2c0,0-0.1,0-0.2,0l-3.2-0.1L157.2,143.9L157.2,143.9L157.2,143.9z
		 M164,149.3l2.9-0.1c0.1,0,0.2,0,0.2,0.1c0,0,0.1,0.1,0.1,0.2l-0.1,1.3v0.8l0.1,1.3c0,0.1,0,0.2-0.1,0.2c0,0-0.1,0-0.2,0l-2.9-0.1
		h-5l-3.2,0.1c-0.1,0-0.2,0-0.2-0.1c0,0,0-0.1,0-0.2l0.1-2.4v-3.1l-0.1-2.4c0-0.1,0-0.2,0.1-0.2s0.1,0,0.2,0l3.1,0.1h4.6l2.8-0.1
		c0.1,0,0.2,0,0.2,0.1c0,0,0,0.1,0,0.2l-0.1,1.2v0.7l0.1,1.2c0,0.1,0,0.2,0,0.2s-0.1,0.1-0.2,0.1l-2.8-0.1h-5.6v1H164L164,149.3z
		 M157.2,139.8h2.8v-1.1h-2.8V139.8z M164.2,147v-0.9h-6.3v0.9H164.2z M164.9,151.6v-1h-7v1H164.9z M165,139.8v-1.1h-2.9v1.1H165z"
		/>
	<path d="M172.4,138.5c1.4,0.1,3,0.1,4.6,0.1h9.8c0.8,0,1.4-0.1,1.6-0.1c0.3-0.1,0.4-0.2,0.4-0.2c0.2,0,0.3,0.1,0.5,0.3
		c0.4,0.4,0.9,0.8,1.4,1.4c0.1,0.1,0.2,0.3,0.2,0.4c0,0.2-0.1,0.3-0.3,0.5c-0.2,0.1-0.4,0.4-0.6,0.7c-1.1,1.7-2.5,3.2-4,4.4
		c-0.1,0.1-0.3,0.2-0.5,0.2c-0.2,0-0.4-0.1-0.6-0.2c-0.5-0.4-1.1-0.7-1.9-0.9c1.1-0.8,1.9-1.5,2.4-2c0.6-0.6,1.1-1.2,1.7-2h-9.9
		c-0.9,0-2.3,0.1-4,0.2c-0.2,0-0.4-0.1-0.4-0.3C172.7,140.6,172.6,139.8,172.4,138.5z M173.8,154.4c1.3-0.7,2.3-1.4,3.1-2.1
		c0.6-0.6,1.2-1.4,1.7-2.2c0.8-1.4,1.1-3.2,1.1-5.4c0-0.8-0.1-1.5-0.2-2.1c1.4,0.1,2.3,0.3,2.9,0.4c0.3,0.1,0.4,0.2,0.4,0.4
		c0,0.1,0,0.3-0.1,0.4c-0.1,0.2-0.2,0.5-0.2,0.9c-0.1,2.6-0.5,4.7-1.3,6.3c-1,1.9-2.4,3.4-4.1,4.5c-0.2,0.1-0.4,0.2-0.6,0.2
		c-0.2,0-0.3-0.1-0.5-0.2C175.3,155.1,174.6,154.7,173.8,154.4z"/>
	<path d="M198.5,140.1c1.5,0.2,2.4,0.3,2.9,0.5c0.2,0.1,0.4,0.2,0.4,0.4c0,0.1,0,0.2-0.1,0.3c-0.2,0.4-0.3,0.9-0.3,1.5
		c-0.1,2.7-0.5,5-1.2,6.7c-0.7,1.6-1.8,3-3.2,4.3c-0.2,0.2-0.4,0.3-0.6,0.3c-0.1,0-0.3-0.1-0.4-0.2c-0.5-0.4-1.2-0.7-1.9-1
		c1.8-1.4,3-2.9,3.8-4.5c0.4-0.9,0.6-1.8,0.7-2.6c0.1-0.9,0.2-2.2,0.2-3.8C198.7,141.3,198.6,140.7,198.5,140.1z M206.4,150.3
		c1-0.5,2.1-1.3,3.2-2.1c1.6-1.2,2.9-2.5,4-3.9c0.1,0.8,0.3,1.6,0.7,2.3c0.1,0.2,0.1,0.3,0.1,0.4c0,0.1-0.1,0.3-0.3,0.6
		c-1.1,1.1-2.2,2.1-3.4,3c-1.3,1-2.7,1.9-4.1,2.7c-0.2,0.1-0.4,0.3-0.7,0.5c-0.1,0.1-0.3,0.2-0.5,0.2c-0.1,0-0.3-0.1-0.5-0.2
		c-0.4-0.3-0.9-0.8-1.4-1.4c-0.1-0.2-0.2-0.4-0.2-0.5s0-0.2,0.1-0.3c0.1-0.2,0.1-0.8,0.1-1.7v-7.1c0-1.9-0.1-3.3-0.2-4
		c1.4,0.2,2.4,0.3,2.9,0.5c0.3,0.1,0.4,0.2,0.4,0.4c0,0.1-0.1,0.3-0.2,0.6c-0.1,0.3-0.2,1.1-0.2,2.5L206.4,150.3L206.4,150.3
		L206.4,150.3z"/>
	<path d="M216.5,151.4c2.1-1.9,3.8-4.1,4.9-6.8c0.6-1.4,1-2.5,1-3.4c1.3,0.5,2.2,0.8,2.8,1.1c0.2,0.1,0.3,0.2,0.3,0.4
		c0,0.1-0.1,0.3-0.2,0.5c-0.2,0.2-0.5,0.7-0.8,1.4c-1.4,3.2-3,5.7-4.9,7.7c-0.2,0.2-0.4,0.3-0.6,0.3c-0.2,0-0.3-0.1-0.5-0.2
		C218,152,217.3,151.7,216.5,151.4z M228.1,142.8c0.3-0.2,0.6-0.4,1.1-0.8c0.3-0.2,0.6-0.4,0.7-0.5c0.1-0.1,0.2-0.1,0.3-0.1
		c0.1,0,0.2,0.1,0.3,0.2c2.4,2.4,4.3,5.1,5.7,8.4c0.1,0.1,0.1,0.2,0.1,0.3c0,0.1-0.1,0.3-0.2,0.4c-0.5,0.4-1.1,0.8-1.9,1.2
		c-0.1,0.1-0.2,0.1-0.3,0.1c-0.1,0-0.2-0.1-0.3-0.3C232.1,148,230.3,145,228.1,142.8z M231.4,139.7l1.2-0.9c0.1,0,0.1-0.1,0.1-0.1
		c0.1,0,0.1,0,0.2,0.1c0.8,0.6,1.5,1.4,2.2,2.4c0.1,0.1,0.1,0.1,0.1,0.2c0,0.1-0.1,0.1-0.1,0.2l-1,0.7c-0.1,0.1-0.1,0.1-0.2,0.1
		c-0.1,0-0.1-0.1-0.2-0.1C233,141.2,232.2,140.3,231.4,139.7z M233.5,138.1l1.1-0.8c0.1,0,0.1-0.1,0.1-0.1c0.1,0,0.1,0,0.2,0.1
		c0.9,0.7,1.6,1.5,2.2,2.3c0.1,0.1,0.1,0.1,0.1,0.2c0,0.1-0.1,0.1-0.1,0.2l-0.9,0.7c-0.1,0.1-0.1,0.1-0.2,0.1
		c-0.1,0-0.1-0.1-0.2-0.1C235.1,139.8,234.4,138.9,233.5,138.1z"/>
	<path d="M252.2,143.3v7.5c0,1.3,0,2.9,0.1,4.7c0,0,0,0.1,0,0.1c0,0.2-0.1,0.3-0.3,0.3c-0.4,0-0.8,0-1.1,0s-0.8,0-1.1,0
		c-0.2,0-0.3-0.1-0.3-0.3c0,0,0,0,0-0.1c0-0.4,0-1.2,0.1-2.5c0-0.9,0-1.6,0-2.1v-5.3c-2.3,1.9-4.4,3.4-6.3,4.4
		c-0.1,0.1-0.2,0.1-0.3,0.1c-0.2,0-0.3-0.1-0.5-0.2c-0.4-0.4-1.1-0.9-2-1.3c2.7-1.4,5.1-2.9,7.2-4.7c1.9-1.5,3.5-3.1,4.9-4.8
		c0.7-0.8,1.1-1.6,1.4-2.3c1.2,0.7,2,1.2,2.5,1.6c0.1,0.1,0.2,0.2,0.2,0.3c0,0.2-0.1,0.4-0.3,0.5c-0.3,0.2-0.8,0.6-1.4,1.3
		C254.1,141.4,253.2,142.3,252.2,143.3z"/>
	<path d="M271.6,143.4c2.9,0.9,5.3,1.9,7.2,3.1c0.2,0.1,0.3,0.2,0.3,0.4c0,0.1,0,0.1,0,0.2c-0.3,0.7-0.6,1.4-1,2
		c-0.1,0.2-0.2,0.3-0.3,0.3c-0.1,0-0.2,0-0.3-0.1c-2.1-1.4-4.1-2.3-6-2.9v5c0,0.8,0,2.3,0.1,4.4c0,0,0,0.1,0,0.1
		c0,0.2-0.1,0.3-0.4,0.3c-0.3,0-0.7,0-1,0c-0.3,0-0.7,0-1,0c-0.3,0-0.4-0.1-0.4-0.3c0.1-1.5,0.1-3,0.1-4.5V140
		c0-1.4-0.1-2.5-0.2-3.4c1.3,0.1,2.3,0.2,2.9,0.4c0.3,0.1,0.4,0.2,0.4,0.4c0,0.1-0.1,0.3-0.2,0.5c-0.1,0.2-0.1,0.9-0.1,2.1
		L271.6,143.4L271.6,143.4L271.6,143.4z"/>
	<path d="M288,137.7c1.1,0.3,1.9,0.5,2.4,0.8c0.4,0.2,0.5,0.4,0.5,0.5c0,0.1-0.1,0.3-0.3,0.7c-0.2,0.4-0.4,0.9-0.5,1.6
		c-0.6,2.8-1,5.3-1,7.4c0,1,0,1.9,0.1,2.7c1-2.3,1.5-3.4,1.5-3.4c0.1,0.2,0.4,0.7,0.8,1.4c0.1,0.2,0.1,0.3,0.1,0.3
		c0,0.1,0,0.2-0.1,0.4c-0.6,1.4-1.1,2.6-1.3,3.4c0,0.1-0.1,0.4-0.1,0.7l0,0.6c0,0.1-0.1,0.3-0.3,0.3c-0.6,0.2-1.3,0.3-1.9,0.4
		c0,0,0,0,0,0c-0.1,0-0.2-0.1-0.3-0.3c-0.3-0.8-0.6-1.9-0.8-3.4c-0.2-1.2-0.2-2.3-0.2-3.4c0-2.1,0.3-4.6,0.8-7.5
		C287.9,139.6,288,138.4,288,137.7z M293.2,149.5l2.1-0.2c0,0,0,0,0,0c0.1,0,0.2,0.1,0.2,0.3c0.1,0.8,0.4,1.4,1.1,1.7
		c0.6,0.3,1.4,0.4,2.6,0.4c1.2,0,2.7-0.1,4.4-0.3c0,0,0.1,0,0.1,0c0.1,0,0.2,0.1,0.2,0.3c0.1,0.6,0.1,1.3,0.1,2c0,0.1,0,0.2,0,0.3
		c0,0-0.1,0.1-0.3,0.1c-1.4,0.2-2.7,0.3-3.7,0.3c-1.8,0-3.1-0.2-4-0.5c-0.8-0.3-1.4-0.8-1.9-1.4
		C293.5,151.8,293.2,150.8,293.2,149.5z M294,143c0-1.3,0-2.1,0.1-2.2c0-0.2,0.1-0.4,0.3-0.4c1.5-0.3,3.1-0.4,5-0.4
		c1.3,0,2.4,0.1,3.4,0.1c0.2,0,0.4,0.1,0.5,0.1c0,0,0.1,0.1,0.1,0.2c0,0.9,0,1.5,0,1.9c0,0.2-0.1,0.3-0.2,0.3c0,0,0,0,0,0
		c-1.4-0.1-2.6-0.1-3.7-0.1C297.6,142.5,295.9,142.7,294,143z"/>
	<path d="M308,143.8c0.9-0.1,2.4-0.5,4.4-1.2c3.7-1.3,6.5-1.9,8.2-1.9c2.2,0,3.9,0.6,5.1,1.9c1.1,1.1,1.6,2.5,1.6,4.1
		c0,1.6-0.4,2.9-1.1,3.9c-0.6,0.9-1.6,1.7-2.9,2.4c-0.9,0.5-1.9,0.9-3,1.2c-0.5,0.1-1.5,0.4-2.8,0.7c-0.1,0-0.3,0.1-0.3,0.1
		c-0.2,0-0.4-0.1-0.5-0.4c-0.3-0.7-0.8-1.3-1.6-1.8c2.8-0.5,4.8-1,6.2-1.7c2.1-1.1,3.1-2.6,3.1-4.5c0-1.1-0.4-2-1.1-2.6
		c-0.7-0.5-1.6-0.8-2.8-0.8c-1.9,0-4.7,0.8-8.2,2.3c-1,0.5-1.5,0.8-1.6,0.8c-0.3,0.2-0.5,0.3-0.6,0.3c-0.2,0-0.4-0.2-0.7-0.5
		C309,145.6,308.5,144.8,308,143.8z"/>
	<path d="M332,139.3c1.2,0.1,2.2,0.4,2.9,0.8c0.2,0.1,0.4,0.3,0.4,0.4c0,0.1-0.1,0.3-0.2,0.6c-0.1,0.4-0.2,1.2-0.2,2.2
		c0,1.9,0.1,3.6,0.4,5.2c0.4,2.2,1,3.4,1.9,3.4c0.4,0,0.8-0.3,1.1-0.8c0.3-0.5,0.7-1.3,1.1-2.4c0.4,0.6,0.9,1.2,1.5,1.8
		c0.1,0.1,0.2,0.3,0.2,0.5c0,0.1,0,0.2-0.1,0.4c-0.5,1.2-1.1,2.1-1.8,2.8c-0.6,0.5-1.3,0.8-2.1,0.8c-1,0-1.9-0.6-2.7-1.7
		c-0.8-1.1-1.3-2.5-1.5-4.2c-0.4-2.2-0.5-4.4-0.5-6.6C332.3,141.1,332.2,140.1,332,139.3z M343.7,142.5c0.8-0.5,1.3-0.8,1.8-1.1
		c0.1-0.1,0.2-0.1,0.3-0.1c0.1,0,0.1,0.1,0.2,0.1c1.1,1,2.1,2.2,3,3.8c0.8,1.4,1.3,2.7,1.5,4c0,0.1,0,0.1,0,0.1
		c0,0.1-0.1,0.3-0.3,0.4c-0.7,0.4-1.3,0.7-1.8,0.9c-0.1,0-0.1,0-0.2,0c-0.1,0-0.2-0.1-0.3-0.3c-0.4-1.8-1-3.3-1.7-4.6
		C345.6,144.7,344.8,143.5,343.7,142.5z"/>
	<path d="M354.3,140.5c0.8,0,2-0.1,3.6-0.4c6.1-0.9,10.7-1.5,13.7-1.9c0,0,0.1,0,0.1,0c0.2,0,0.3,0.1,0.3,0.3c0.1,0.7,0.2,1.3,0.3,2
		c0,0.2-0.1,0.3-0.4,0.3c-1,0.1-2,0.2-2.8,0.5c-2,0.7-3.5,1.7-4.5,3.1c-0.9,1.1-1.3,2.3-1.3,3.6c0,2.9,2,4.5,6.1,4.8
		c0.3,0,0.5,0.1,0.5,0.3c0,0.7-0.1,1.4-0.3,2c-0.1,0.3-0.2,0.5-0.4,0.5c-2.4,0-4.4-0.7-6-2c-1.6-1.3-2.4-3-2.4-5.1
		c0-1.7,0.4-3.1,1.3-4.4c0.7-1,1.7-2,3.1-2.8v-0.1c-2.7,0.5-5.2,1-7.7,1.5c-0.8,0.2-1.3,0.3-1.4,0.4c-0.3,0.1-0.4,0.2-0.5,0.2
		c-0.2,0-0.3-0.1-0.4-0.3C354.9,142.5,354.6,141.7,354.3,140.5z"/>
	<path d="M378.7,140h3l2.4-0.1c0.1,0,0.2,0,0.2,0.1c0,0,0,0.1,0,0.2v1.6c0,0.1,0,0.2,0,0.2c0,0-0.1,0-0.2,0l-2.4-0.1h-3l-2.4,0.1
		c-0.1,0-0.2,0-0.2-0.1c0,0,0-0.1,0-0.2v-1.6c0-0.2,0.1-0.2,0.2-0.2L378.7,140z M383.8,156.2c0,0.1,0,0.2,0,0.2c0,0-0.1,0-0.2,0
		h-1.7c-0.1,0-0.2,0-0.2-0.1s0-0.1,0-0.2v-0.6h-2.5v1.1c0,0.1,0,0.2,0,0.2c0,0-0.1,0-0.2,0h-1.7c-0.1,0-0.2,0-0.2-0.1
		c0,0,0-0.1,0-0.2l0-3.4v-1.5l0-2.1c0-0.1,0-0.2,0-0.2c0,0,0.1,0,0.2,0l2.1,0.1h2.2l2.1-0.1c0.1,0,0.2,0,0.2,0.1s0,0.1,0,0.2l0,1.8
		v1.6L383.8,156.2z M379.4,136.9h2.2l2-0.1c0.1,0,0.2,0,0.2,0.1c0,0,0,0.1,0,0.2v1.5c0,0.1,0,0.2,0,0.2c0,0-0.1,0-0.2,0l-2-0.1h-2.2
		l-2.1,0.1c-0.1,0-0.2,0-0.2-0.1c0,0,0-0.1,0-0.2v-1.5c0-0.1,0-0.2,0-0.2s0.1,0,0.2,0L379.4,136.9z M379.4,143.3h1.9l1.9-0.1
		c0.1,0,0.2,0,0.2,0.1c0,0,0,0.1,0,0.2v1.5c0,0.1,0,0.2,0,0.2c0,0-0.1,0-0.2,0l-1.9-0.1h-1.9l-1.9,0.1c-0.1,0-0.2,0-0.2-0.1
		c0,0,0-0.1,0-0.2v-1.5c0-0.1,0-0.2,0-0.2c0,0,0.1,0,0.2,0L379.4,143.3z M379.4,146.3h1.9l1.9-0.1c0.1,0,0.2,0,0.2,0.1
		c0,0,0,0.1,0,0.2v1.5c0,0.1,0,0.2,0,0.2c0,0-0.1,0-0.2,0l-1.9-0.1h-1.9l-1.9,0.1c-0.2,0-0.2-0.1-0.2-0.2v-1.5c0-0.1,0-0.2,0-0.2
		s0.1,0,0.2,0L379.4,146.3z M381.7,151.3h-2.5v2.5h2.5V151.3z M388.1,138.8l-2.9,0.1c-0.1,0-0.2,0-0.2-0.1c0,0,0-0.1,0-0.2V137
		c0-0.1,0-0.2,0-0.2c0,0,0.1,0,0.2,0l2.9,0.1h5.1l2.9-0.1c0.1,0,0.2,0,0.2,0.1c0,0,0,0.1,0,0.2v1.6c0,0.1,0,0.2,0,0.2
		c0,0-0.1,0-0.2,0l-2.9-0.1h-2.5c-0.2,0.9-0.3,1.6-0.4,2.1h1.6l2.5-0.1c0.1,0,0.2,0,0.2,0.1c0,0,0,0.1,0,0.2l0,1.6v2.6l1.9-0.1
		c0.1,0,0.2,0.1,0.2,0.2v1.6c0,0.2-0.1,0.2-0.2,0.2l-3-0.1h-6l-3,0.1c-0.1,0-0.2,0-0.2-0.1c0,0,0-0.1,0-0.2v-1.6c0-0.1,0-0.2,0-0.2
		s0.1,0,0.2,0l2.2,0.1c0.3-0.8,0.6-1.7,0.8-2.6c-0.5,0-1,0-1.4,0c-0.3,0-0.4,0-0.4,0c-0.1,0-0.2,0-0.2-0.1c0,0,0-0.1,0-0.2v-1.5
		c0-0.1,0-0.2,0-0.2c0,0,0.1,0,0.2,0l2.3,0.1c0.2-0.9,0.4-1.6,0.4-2.1L388.1,138.8L388.1,138.8L388.1,138.8z M387.6,156.9h-1.8
		c-0.1,0-0.2,0-0.2-0.1s0-0.1,0-0.2l0-3.6v-1.6l0-2.3c0-0.1,0-0.2,0-0.2c0,0,0.1,0,0.2,0l2.7,0.1h4l2.7-0.1c0.1,0,0.2,0,0.2,0.1
		s0,0.1,0,0.2l0,2v1.8l0,3.6c0,0.1,0,0.2,0,0.2s-0.1,0-0.2,0h-1.9c-0.1,0-0.2,0-0.2-0.1c0,0,0-0.1,0-0.2v-0.8h-5.2v0.8
		c0,0.1,0,0.2,0,0.2C387.8,156.9,387.7,156.9,387.6,156.9z M387.8,151v2.9h5.2V151H387.8z M392.4,142.8h-2.6c-0.3,1.2-0.6,2-0.8,2.6
		h3.4L392.4,142.8L392.4,142.8z"/>
	<path d="M404,136.9c1.1,0.2,2,0.5,2.5,0.7c0.3,0.1,0.4,0.3,0.4,0.5c0,0.1,0,0.2-0.1,0.4c-0.1,0.2-0.3,0.5-0.4,1.1
		c-0.2,1-0.4,2.4-0.6,4.4c-0.1,1-0.1,1.6-0.1,1.9c0,0.2,0,0.4,0,0.6c0.5-1,1.1-1.9,1.6-2.9c0.2,0.6,0.4,1.1,0.7,1.5
		c0.1,0.1,0.1,0.2,0.1,0.4c0,0.1-0.1,0.3-0.2,0.6c-0.7,1.4-1.2,2.3-1.3,2.9c0,0.1-0.1,0.4-0.1,0.7c0,0.2-0.1,0.3-0.3,0.4
		c-0.3,0.1-0.9,0.2-1.8,0.3c-0.1,0-0.3-0.1-0.3-0.3c-0.5-1.2-0.7-2.8-0.7-4.6c0-1,0.2-2.9,0.5-5.7C403.9,138.4,404,137.5,404,136.9z
		 M411.3,136.9c1.3,0.1,2.1,0.1,2.6,0.3c0.3,0.1,0.5,0.2,0.5,0.4c0,0.1,0,0.1,0,0.2c0,0.2,0,0.6,0,1.1c0.2,2.9,0.3,4.8,0.3,5.9
		c0,3.5-0.6,6.1-1.7,7.9c-0.9,1.4-2.1,2.6-3.8,3.7c-0.1,0.1-0.3,0.1-0.5,0.1c-0.1,0-0.3-0.1-0.5-0.3c-0.6-0.5-1.2-0.9-1.9-1.1
		c1.8-1,3.1-2,3.9-3.1c0.7-1,1.2-2.1,1.5-3.2c0.3-1.1,0.4-2.4,0.4-4.1c0-2-0.1-3.8-0.3-5.4C411.6,138.4,411.5,137.6,411.3,136.9z"/>
	<path d="M442.8,144c-0.4,0.5-0.7,1.1-1,1.7c-0.1,0.4-0.3,0.6-0.4,0.6c-0.1,0-0.3-0.1-0.5-0.2c-1.6-0.8-3.1-1.6-4.5-2.5v1.6
		c0,0.1,0,0.2,0,0.2c0,0-0.1,0-0.2,0l-2.6-0.1h-3.5l-2.6,0.1c-0.1,0-0.2,0-0.2-0.1c0,0,0-0.1,0-0.2v-1.6c-1.3,1-2.7,1.9-4.2,2.7
		c-0.3,0.1-0.5,0.2-0.5,0.2c-0.1,0-0.3-0.2-0.4-0.6c-0.3-0.6-0.6-1.1-1.1-1.5c3.9-1.7,6.8-4.1,8.8-7c0.4-0.6,0.7-1.1,0.9-1.6
		c1.1,0.2,1.9,0.3,2.4,0.4c0.3,0.1,0.4,0.2,0.4,0.4c0,0.1-0.1,0.3-0.2,0.3c-0.1,0.1-0.1,0.1-0.2,0.1
		C435.6,140.3,438.9,142.6,442.8,144z M427.1,156.8h-1.9c-0.1,0-0.2,0-0.2-0.1s0-0.1,0-0.2l0-4.1v-2l0-2.8c0-0.1,0-0.2,0-0.2
		s0.1,0,0.2,0l3.1,0.1h7.3l3.1-0.1c0.1,0,0.2,0,0.2,0.1c0,0,0,0.1,0,0.2l0,2.4v2.2l0,4c0,0.1,0,0.2,0,0.2c0,0-0.1,0-0.2,0h-1.9
		c-0.1,0-0.2,0-0.2-0.1s0-0.1,0-0.2v-0.8h-9.1v0.9c0,0.1,0,0.2,0,0.2C427.3,156.8,427.2,156.8,427.1,156.8z M427.3,149.6v4h9.1v-4
		H427.3z M427.7,143.2c0.4,0,1.2,0.1,2.5,0.1h3.5l2.3,0c-1.6-1.2-3-2.7-4.2-4.3C430.7,140.4,429.3,141.8,427.7,143.2z"/>
	<path d="M447.7,143.7c0.6-0.1,1.5-0.3,2.7-0.7c2.3-0.8,4-1.1,5.2-1.1c1.6,0,2.9,0.5,3.7,1.6c0.7,0.9,1.1,2.2,1.1,3.8
		c0,2-0.6,3.8-1.9,5.4c-1,1.4-2.5,2.6-4.4,3.6c-0.2,0.1-0.3,0.1-0.4,0.1c-0.2,0-0.4-0.1-0.5-0.3c-0.6-0.5-1.2-0.9-1.9-1.2
		c2.3-1.1,4-2.4,5-3.8c0.8-1.2,1.3-2.5,1.3-4c0-1-0.2-1.7-0.6-2.2c-0.4-0.4-0.9-0.6-1.5-0.6c-1,0-2.2,0.3-3.6,1
		c-0.9,0.5-1.6,0.8-1.9,1.1c-0.2,0.1-0.4,0.2-0.5,0.2c-0.2,0-0.4-0.2-0.6-0.5C448.5,145.6,448.1,144.8,447.7,143.7z M452.1,136.2
		c1.7,0.7,3.9,1.2,6.6,1.6c0.2,0,0.3,0.1,0.3,0.3c0,0,0,0.1,0,0.1c-0.2,0.9-0.3,1.6-0.5,2c-0.1,0.2-0.2,0.3-0.3,0.3c0,0,0,0,0,0
		c-2.4-0.4-4.6-1-6.6-1.8c-0.1-0.1-0.2-0.1-0.2-0.3c0-0.1,0-0.1,0-0.2C451.5,137.8,451.8,137.1,452.1,136.2z"/>
	<path d="M468.6,150.9c0.1,0,0.2,0.1,0.3,0.1c1.7,1.1,3.2,2.4,4.5,4.2c0.1,0.1,0.1,0.3,0.1,0.3c0,0.1-0.1,0.2-0.2,0.4l-1.4,1.2
		c-0.2,0.1-0.3,0.2-0.3,0.2c-0.1,0-0.2-0.1-0.3-0.2c-1.2-1.8-2.7-3.3-4.3-4.4c-0.1-0.1-0.2-0.2-0.2-0.2c0-0.1,0-0.1,0.1-0.3l1.3-1.1
		C468.4,151,468.5,150.9,468.6,150.9z"/>
	<path d="M3.5,174.8v14.9h13.7l3.1-0.1c0.1,0,0.2,0,0.2,0.1c0,0,0,0.1,0,0.2v1.7c0,0.1,0,0.2,0,0.2c0,0-0.1,0-0.2,0l-3.1,0H3.5v0.6
		c0,0.1,0,0.2,0,0.2s-0.1,0-0.2,0H1.4c-0.1,0-0.2,0-0.2,0s0-0.1,0-0.2l0-4.9v-9.9l0-4.9c0-0.1,0-0.2,0-0.2s0.1,0,0.2,0l3,0.1h12.8
		l3-0.1c0.1,0,0.2,0,0.2,0.1c0,0,0,0.1,0,0.2v1.7c0,0.1-0.1,0.2-0.2,0.2l-3-0.1L3.5,174.8L3.5,174.8z M7.9,182.6l-3.1,0.1
		c-0.1,0-0.2,0-0.2-0.1c0,0,0-0.1,0-0.2v-1.4c0-0.1,0-0.2,0.1-0.2s0.1,0,0.2,0l3.1,0.1h1.9c0.4-0.7,0.6-1.3,0.6-1.9
		c0.9,0.1,1.5,0.3,1.9,0.4c0.3,0.1,0.4,0.2,0.4,0.3c0,0.1-0.1,0.2-0.2,0.3c-0.1,0.1-0.3,0.4-0.5,0.9h4.6l3.2-0.1
		c0.1,0,0.2,0,0.2,0.1c0,0,0,0.1,0,0.2v1.4c0,0.1,0,0.2,0,0.2c0,0-0.1,0-0.2,0l-3.2-0.1H11c-0.2,0.4-0.6,0.8-1,1.2h4.8l2.9,0
		c0.1,0,0.2,0,0.2,0.1c0,0,0,0.1,0,0.2l0,1.5v1.4l0,1.5c0,0.1,0,0.2,0,0.2c0,0-0.1,0-0.2,0l-2.9-0.1H11l-2.9,0.1
		c-0.1,0-0.2,0-0.2-0.1c0,0,0-0.1,0-0.2l0.1-1.7v-1.1c-0.6,0.4-1.4,0.9-2.3,1.4c-0.3,0.1-0.5,0.2-0.5,0.2c-0.1,0-0.3-0.2-0.5-0.5
		c-0.2-0.4-0.5-0.8-0.9-1.1c2.1-0.9,3.7-2,4.8-3.2L7.9,182.6L7.9,182.6z M7.8,175.3c0.9,0.1,1.6,0.1,2.1,0.1c0.2,0,0.3,0.1,0.3,0.2
		c0,0.1,0,0.2-0.1,0.3c-0.1,0.1-0.1,0.4-0.1,0.7h3.7c0-0.4,0-0.9-0.1-1.4c0.9,0.1,1.6,0.1,2.1,0.1c0.2,0,0.3,0.1,0.3,0.2
		c0,0.1,0,0.2-0.1,0.3c-0.1,0.1-0.1,0.4-0.1,0.7h0.6l3.1-0.1c0.1,0,0.2,0,0.2,0.1c0,0,0,0.1,0,0.2v1.3c0,0.1,0,0.2,0,0.2
		c0,0-0.1,0-0.2,0l-3.1-0.1h-0.6l0.1,1.1c0,0.1,0,0.2-0.1,0.2c0,0-0.1,0-0.2,0h-1.7c-0.1,0-0.2,0-0.2-0.1c0,0,0-0.1,0-0.2
		c0,0,0-0.2,0-0.4c0-0.3,0-0.5,0-0.7H10l0.1,1.1c0,0.1,0,0.2-0.1,0.2c0,0-0.1,0-0.2,0H8.2c-0.1,0-0.2,0-0.2-0.1c0,0,0-0.1,0-0.2
		c0,0,0-0.2,0-0.4c0-0.3,0-0.5,0-0.7l-3,0.1c-0.1,0-0.2,0-0.2-0.1c0,0,0-0.1,0-0.2v-1.3c0-0.1,0-0.2,0.1-0.2c0,0,0.1,0,0.2,0l3,0.1
		C7.9,176.2,7.9,175.7,7.8,175.3z M15.8,187.1v-1.6H10v1.6H15.8z"/>
	<path d="M23.2,179.1c3.1-1.6,5.5-3.6,7.4-6c0.4-0.5,0.6-0.9,0.8-1.3c1,0.2,1.8,0.4,2.3,0.6c0.2,0.1,0.3,0.2,0.3,0.3
		s-0.1,0.3-0.3,0.4c-0.2,0.1-0.4,0.4-0.7,0.7l-0.5,0.6h5c0.3,0,0.6,0,0.7-0.1c0.2-0.1,0.3-0.1,0.4-0.1c0.2,0,0.5,0.2,1,0.6
		c0.5,0.4,0.7,0.8,0.7,1c0,0.2-0.1,0.3-0.3,0.5c-0.2,0.1-0.4,0.4-0.8,0.7c-1.9,2.4-4,4.5-6.5,6.3h5.8l3.1-0.1c0.2,0,0.3,0.1,0.3,0.2
		l0,2.9v2.1l0,4c0,0.1,0,0.2,0,0.2c0,0-0.1,0-0.2,0h-2c-0.1,0-0.2,0-0.2-0.1c0,0,0-0.1,0-0.2v-1h-8v1.1c0,0.2-0.1,0.3-0.2,0.3h-2
		c-0.1,0-0.2,0-0.2-0.1c0,0,0-0.1,0-0.2l0-4v-3c-1.2,0.7-2.6,1.4-4.2,2c-0.3,0.1-0.4,0.2-0.5,0.2c-0.1,0-0.3-0.2-0.5-0.6
		c-0.3-0.6-0.7-1.1-1.1-1.5c3.1-1.1,5.8-2.3,8-3.8c-0.7-0.8-1.5-1.5-2.4-2.1c-0.1-0.1-0.1-0.1-0.1-0.2s0.1-0.1,0.2-0.2l1.2-1
		c0.1-0.1,0.2-0.1,0.3-0.1c0,0,0.1,0,0.3,0.1c0.8,0.5,1.6,1.2,2.5,2.1c1.4-1.2,2.7-2.5,3.8-3.9h-5.8c-1.5,1.6-3.4,3-5.5,4.2
		c-0.2,0.1-0.4,0.2-0.5,0.2c-0.1,0-0.3-0.2-0.5-0.5C24,179.8,23.6,179.4,23.2,179.1z M39.5,185.3h-8v4h8V185.3z"/>
	<path d="M55,177.1c-2.2,0.4-4,0.6-5.4,0.7c0,0,0,0-0.1,0c-0.2,0-0.4-0.2-0.5-0.5c-0.3-0.5-0.7-1-1.2-1.6c2.1-0.1,4.4-0.4,6.8-0.9
		c1.8-0.4,3-0.7,3.8-1c0.8-0.3,1.5-0.7,2-1c1,0.7,1.6,1.2,1.9,1.6c0.2,0.2,0.3,0.4,0.3,0.6c0,0.2-0.2,0.3-0.6,0.3
		c-0.2,0-0.4,0.1-0.8,0.2s-0.5,0.2-0.7,0.2c-1.5,0.4-2.8,0.8-4.1,1c0.7,0.1,1.2,0.2,1.5,0.3c0.2,0.1,0.3,0.2,0.3,0.3
		c0,0.1,0,0.2-0.1,0.4c-0.1,0.2-0.1,0.4-0.2,0.8c0,0.3,0,0.9,0,1.8h2.8c0.5,0,2-0.1,4.4-0.1c0.2,0,0.2,0.1,0.3,0.4
		c0,0.2,0,0.5,0,0.8c0,0.3,0,0.6,0,1c0,0.2,0,0.3-0.1,0.4c0,0-0.1,0.1-0.2,0.1c-1.4-0.1-2.9-0.1-4.4-0.1h-2.8
		c-0.2,1.9-0.6,3.4-1.1,4.6c-0.8,1.8-2.1,3.2-3.6,4.3c-0.2,0.1-0.3,0.1-0.4,0.1c-0.1,0-0.2-0.1-0.4-0.1c-0.8-0.4-1.6-0.7-2.4-0.9
		c1.2-0.7,2.1-1.4,2.8-2.1c0.5-0.6,1-1.3,1.5-2.1c0.6-1.1,0.9-2.4,1-3.8h-4c-1.7,0-2.9,0-3.6,0.1c-0.2,0-0.3-0.2-0.4-0.5
		c-0.2-0.6-0.2-1.3-0.2-2.1c1.3,0.1,2.7,0.1,4.4,0.1h4c0-0.7,0-1.4,0-2.3C55,177.8,55,177.4,55,177.1z"/>
	<path d="M76.5,183.7l-1.3,0.3c-0.8,0.2-1.6,0.5-2.5,0.9c-0.2,0.1-0.3,0.1-0.4,0.1c-0.2,0-0.3-0.1-0.4-0.3c-0.2-0.4-0.5-1.1-0.8-2
		c0.7-0.1,1.9-0.3,3.4-0.8l1.4-0.4l-0.5-1.9c-0.2-0.9-0.6-1.7-0.9-2.3c1.4-0.2,2.3-0.2,2.7-0.2c0.3,0,0.5,0.1,0.5,0.4
		c0,0,0,0.1,0,0.1c0,0.1,0,0.3,0,0.4c0,0.3,0.1,0.7,0.2,1.2l0.4,1.7l4.9-1.3c0.5-0.1,0.9-0.3,1.2-0.5c0.1-0.1,0.2-0.1,0.3-0.1
		c0.1,0,0.2,0.1,0.4,0.2c0.6,0.5,1.1,0.9,1.3,1.1c0.1,0.1,0.2,0.2,0.2,0.3c0,0.1-0.1,0.3-0.3,0.5c-0.1,0.1-0.3,0.3-0.3,0.5
		c-1,1.9-1.8,3.3-2.6,4.3c-0.1,0.1-0.2,0.2-0.3,0.2c-0.1,0-0.2,0-0.3-0.1c-0.5-0.3-1.1-0.5-1.8-0.7c1-1.1,1.8-2.3,2.4-3.5l-4.4,1.1
		l1.1,4.1c0.1,0.5,0.3,1.1,0.6,2.1c0.2,0.7,0.3,1.3,0.5,1.7c0,0.1,0,0.1,0,0.2c0,0.2-0.1,0.3-0.3,0.4c-0.4,0.2-0.9,0.3-1.5,0.5
		c-0.1,0-0.2,0-0.2,0c-0.2,0-0.3-0.1-0.3-0.4c-0.2-0.8-0.5-2-0.9-3.8L76.5,183.7z"/>
	<path d="M94.4,180.2c0.4-0.2,1.1-0.5,1.8-0.9c0.1-0.1,0.2-0.1,0.2-0.1c0.1,0,0.2,0.1,0.3,0.2c0.9,1.1,1.6,2.3,2,3.4
		c0.1,0.2,0.1,0.3,0.1,0.3c0,0.1-0.1,0.2-0.3,0.3c-0.5,0.3-1,0.5-1.5,0.7c-0.1,0-0.1,0.1-0.2,0.1c-0.2,0-0.3-0.1-0.4-0.4
		C95.9,182.5,95.2,181.3,94.4,180.2z M106.1,178.5c1.2,0.4,2,0.7,2.5,1.1c0.2,0.1,0.3,0.3,0.3,0.4c0,0.1-0.1,0.3-0.2,0.4
		c-0.2,0.1-0.4,0.5-0.7,1.1c-1,2.3-2.1,4.4-3.4,6.1c-1.4,1.8-3,3.3-4.7,4.4c-0.2,0.2-0.4,0.2-0.5,0.2s-0.3-0.1-0.4-0.1
		c-0.5-0.4-1.2-0.7-1.9-1c1.5-1,2.6-1.8,3.4-2.5c0.7-0.7,1.4-1.4,2.1-2.2c1.3-1.7,2.4-3.6,3.1-5.5
		C105.9,180.1,106,179.3,106.1,178.5z M98.9,179c1-0.5,1.6-0.7,1.8-0.8c0.1-0.1,0.2-0.1,0.2-0.1c0.1,0,0.2,0.1,0.3,0.2
		c0.8,1,1.3,2.1,1.8,3.3c0,0.1,0.1,0.2,0.1,0.3c0,0.1-0.1,0.2-0.3,0.3c-0.4,0.3-1,0.5-1.6,0.7c-0.1,0-0.1,0-0.1,0
		c-0.1,0-0.2-0.1-0.3-0.4C100.3,181.3,99.7,180,98.9,179z"/>
	<path d="M123.6,179.2c2.9,0.9,5.3,1.9,7.2,3.1c0.2,0.1,0.3,0.2,0.3,0.4c0,0.1,0,0.1-0.1,0.2c-0.3,0.7-0.6,1.4-1,2
		c-0.1,0.2-0.2,0.3-0.3,0.3c-0.1,0-0.2,0-0.3-0.1c-2.1-1.4-4.1-2.3-6-2.9v5c0,0.8,0,2.3,0.1,4.4c0,0,0,0.1,0,0.1
		c0,0.2-0.1,0.3-0.4,0.3c-0.3,0-0.7,0-1,0c-0.3,0-0.7,0-1,0c-0.3,0-0.4-0.1-0.4-0.3c0.1-1.5,0.1-3,0.1-4.5v-11.2
		c0-1.4-0.1-2.5-0.2-3.4c1.3,0.1,2.3,0.2,2.8,0.4c0.3,0.1,0.4,0.2,0.4,0.4c0,0.1-0.1,0.3-0.2,0.5c-0.1,0.2-0.2,0.9-0.2,2.1
		L123.6,179.2L123.6,179.2L123.6,179.2z"/>
	<path d="M152.3,178.1h0.8c1.2,0,2.4,0,3.4-0.1c0,0,0.1,0,0.1,0c0.1,0,0.2,0.1,0.3,0.4c0,0.3,0,0.6,0,0.9c0,0.3,0,0.6,0,0.9
		c0,0.2-0.1,0.4-0.3,0.4c0,0-0.1,0-0.1,0l-3.3,0h-0.9c-0.1,1.7-0.3,3.1-0.6,4.3c-0.3,1-0.7,1.9-1.2,2.8c-1.1,1.8-2.9,3.2-5.4,4.2
		c-0.3,0.1-0.5,0.2-0.6,0.2s-0.3-0.1-0.4-0.3c-0.6-0.6-1.2-1.1-1.9-1.4c1.7-0.5,3.1-1.1,4-1.8c0.9-0.6,1.6-1.3,2.1-2.2
		c0.5-0.8,0.8-1.6,1-2.6c0.2-0.9,0.3-1.9,0.3-3.2h-4.9v0.8c0,1.7,0,3,0.1,3.8c0,0.2-0.1,0.3-0.4,0.3c-0.3,0-0.6,0-1,0s-0.7,0-1,0
		c-0.3,0-0.4-0.1-0.4-0.3c0,0,0,0,0-0.1c0.1-1.3,0.1-2.5,0.1-3.7v-0.9h-0.7c-1.3,0-2.6,0-3.8,0.1c-0.1,0-0.2-0.1-0.3-0.4
		c-0.1-0.2-0.1-1-0.1-2.2c1.1,0.1,2.4,0.1,4.2,0.1h0.7v-1.7c0-1.2-0.1-2.3-0.3-3.4c1.5,0.1,2.4,0.3,2.8,0.4c0.2,0.1,0.3,0.1,0.3,0.3
		c0,0.1-0.1,0.2-0.1,0.5c-0.1,0.3-0.2,1-0.2,2.2v1.7h4.9l0-2.2c0-0.1,0-0.3,0-0.5c0-1.1-0.1-2-0.2-2.6c1.4,0.1,2.3,0.3,2.7,0.4
		c0.3,0.1,0.4,0.2,0.4,0.4c0,0.1,0,0.3-0.1,0.4c-0.1,0.3-0.2,1-0.2,2C152.3,175.9,152.3,178.1,152.3,178.1z"/>
	<path d="M160.9,180.9c1.2,0.2,2.8,0.3,4.9,0.3h7.3c0.7,0,1.6,0,2.8,0c1.4,0,2.3,0,2.4-0.1c0,0,0.1,0,0.1,0c0.2,0,0.3,0.1,0.3,0.3
		c0,0.4,0,0.7,0,1.1s0,0.7,0,1.1c0,0.2-0.1,0.3-0.3,0.3h-0.1c-2.3,0-4-0.1-5.1-0.1h-8.2l-3.4,0.3c-0.3,0-0.5-0.2-0.5-0.5
		C161.1,183.1,161,182.2,160.9,180.9z"/>
	<path d="M189,180.6c2.1-0.7,4-1.4,5.6-2.2c1.1-0.5,1.9-1.1,2.4-1.6c0.6,0.5,1.3,1.2,1.9,2.1c0.1,0.1,0.2,0.3,0.2,0.4
		c0,0.2-0.1,0.3-0.4,0.4c-0.3,0.1-0.9,0.3-1.9,0.8c-2.2,1-4.8,1.9-7.8,2.8v3c0,0.6,0.1,1,0.2,1.2c0.1,0.2,0.3,0.3,0.6,0.4
		c0.6,0.2,1.6,0.3,2.9,0.3c2,0,4.1-0.2,6.4-0.5c0.1,0,0.1,0,0.1,0c0.1,0,0.2,0.1,0.3,0.3c0.1,0.9,0.1,1.5,0.1,2
		c0,0.3-0.2,0.4-0.5,0.4c-2.2,0.3-4.5,0.4-6.8,0.4c-1.9,0-3.4-0.2-4.3-0.6c-1.1-0.5-1.6-1.6-1.6-3.4v-8.4c0-1.8-0.1-3.2-0.2-4.2
		c1.3,0.1,2.3,0.3,2.9,0.5c0.2,0.1,0.4,0.2,0.4,0.4c0,0.1-0.1,0.3-0.1,0.5c-0.1,0.3-0.2,1-0.2,2.1L189,180.6L189,180.6z
		 M197.3,174.8l1.2-0.9c0.1,0,0.1-0.1,0.1-0.1c0.1,0,0.1,0,0.2,0.1c0.8,0.6,1.5,1.4,2.2,2.4c0.1,0.1,0.1,0.1,0.1,0.1
		c0,0.1-0.1,0.1-0.1,0.2l-1,0.7c-0.1,0.1-0.1,0.1-0.2,0.1c-0.1,0-0.1-0.1-0.2-0.1C198.9,176.4,198.1,175.5,197.3,174.8z
		 M199.4,173.3l1.1-0.8c0.1,0,0.1-0.1,0.1-0.1c0.1,0,0.1,0,0.2,0.1c0.9,0.7,1.6,1.4,2.2,2.3c0.1,0.1,0.1,0.1,0.1,0.2
		c0,0.1-0.1,0.1-0.1,0.2L202,176c-0.1,0.1-0.1,0.1-0.2,0.1c-0.1,0-0.1-0.1-0.2-0.1C201,174.9,200.3,174.1,199.4,173.3z"/>
	<path d="M218,182.6c2.1,1.6,4.2,3.4,6.3,5.5c0.1,0.1,0.2,0.2,0.2,0.3s-0.1,0.2-0.1,0.3c-0.5,0.6-1,1.1-1.5,1.6
		c-0.1,0.1-0.2,0.1-0.3,0.1s-0.2-0.1-0.3-0.2c-1.7-2-3.7-3.9-5.9-5.6c-2.4,2.5-4.9,4.5-7.7,6c-0.3,0.1-0.4,0.2-0.5,0.2
		c-0.1,0-0.3-0.1-0.4-0.2c-0.4-0.5-1.1-1-1.9-1.5c1.8-0.9,3.4-1.9,4.7-2.9c1.1-0.8,2.2-1.8,3.3-2.9c1.6-1.7,3.1-3.6,4.3-5.7l-5.9,0
		c-1.2,0-2.4,0.1-3.6,0.1c-0.1,0-0.3-0.1-0.3-0.4c-0.1-0.6-0.2-1.4-0.2-2.4c0.8,0.1,2.1,0.1,3.9,0.1h6.3c0.8,0,1.3-0.1,1.6-0.2
		c0.1-0.1,0.2-0.1,0.3-0.1c0.1,0,0.2,0.1,0.4,0.2c0.5,0.4,1,0.9,1.5,1.6c0.1,0.1,0.1,0.2,0.1,0.3c0,0.1-0.1,0.3-0.3,0.5
		c-0.3,0.3-0.6,0.6-0.8,1C220.1,179.8,219.1,181.2,218,182.6z"/>
	<path d="M228.8,176.4c0.8,0,2-0.2,3.6-0.4c6-0.9,10.6-1.5,13.7-1.9c0.1,0,0.1,0,0.1,0c0.2,0,0.3,0.1,0.3,0.3c0.1,0.7,0.2,1.3,0.3,2
		c0,0.2-0.1,0.3-0.4,0.3c-1,0.1-2,0.2-2.8,0.5c-2,0.7-3.5,1.7-4.5,3.1c-0.9,1.1-1.3,2.3-1.3,3.6c0,2.9,2,4.5,6.1,4.8
		c0.3,0,0.5,0.1,0.5,0.3c0,0.7-0.1,1.4-0.3,2c-0.1,0.3-0.2,0.5-0.4,0.5c-2.4,0-4.4-0.7-6-2c-1.6-1.3-2.4-3-2.4-5.1
		c0-1.7,0.4-3.1,1.3-4.4c0.7-1,1.7-2,3.1-2.9v-0.1c-2.7,0.5-5.3,1-7.7,1.5c-0.8,0.2-1.3,0.3-1.4,0.4c-0.3,0.1-0.5,0.2-0.5,0.2
		c-0.2,0-0.3-0.1-0.4-0.3C229.4,178.4,229.1,177.6,228.8,176.4z M242.9,180.5l1.2-0.9c0.1,0,0.1-0.1,0.1-0.1c0.1,0,0.1,0,0.2,0.1
		c0.8,0.6,1.5,1.4,2.2,2.4c0.1,0.1,0.1,0.1,0.1,0.1c0,0.1,0,0.1-0.1,0.2l-1,0.7c-0.1,0.1-0.1,0.1-0.2,0.1s-0.1-0.1-0.2-0.1
		C244.5,182,243.8,181.1,242.9,180.5z M245,179l1.1-0.8c0.1-0.1,0.1-0.1,0.1-0.1c0.1,0,0.1,0,0.2,0.1c0.9,0.7,1.6,1.4,2.2,2.3
		c0.1,0.1,0.1,0.1,0.1,0.2c0,0.1-0.1,0.1-0.1,0.2l-0.9,0.7c-0.1,0.1-0.1,0.1-0.2,0.1c-0.1,0-0.1-0.1-0.2-0.1
		C246.7,180.6,245.9,179.7,245,179z"/>
	<path d="M261,176c0-0.2,0-0.6,0-1.1c0-0.4,0-0.6,0-0.9c0-0.6-0.1-1.1-0.3-1.7c1.1,0.1,2,0.2,2.7,0.3c0.4,0.1,0.6,0.2,0.6,0.4
		c0,0.1-0.1,0.3-0.2,0.5c-0.1,0.1-0.1,0.4-0.2,0.7c0,0.1,0,0.6,0,1.5c2-0.1,4.4-0.1,7-0.1c0.1,0,0.2,0,0.3,0.1c0,0,0.1,0.1,0.1,0.3
		c0,0.3,0,0.6,0,0.9s0,0.6,0,0.9c0,0.2-0.1,0.3-0.3,0.3c0,0-0.1,0-0.1,0c-1.4-0.1-2.9-0.1-4.4-0.1c-0.9,0-1.8,0-2.6,0
		c0,1.9,0,3.3,0,4.2c0.2,0.6,0.3,1.4,0.3,2.3c0,3.1-1.4,5.6-4.1,7.4c-0.4,0.3-0.8,0.4-0.9,0.4c-0.2,0-0.4-0.1-0.7-0.3
		c-0.5-0.4-1.1-0.7-1.7-0.9c1.4-0.6,2.5-1.4,3.3-2.4c0.7-0.8,1.1-1.7,1.3-2.6c-0.4,0.6-1.1,0.9-2.1,0.9c-1,0-1.8-0.4-2.4-1.1
		c-0.5-0.6-0.8-1.4-0.8-2.4c0-1.1,0.4-2,1.2-2.6c0.6-0.5,1.4-0.8,2.3-0.8c0.8,0,1.4,0.1,1.7,0.5l0-2.3c-3.3,0.2-5.9,0.4-7.9,0.7
		c-0.2,0-0.4,0.1-0.7,0.2c-0.2,0.1-0.3,0.1-0.4,0.1c-0.2,0-0.3-0.1-0.4-0.3c-0.1-0.4-0.3-1.1-0.6-2.3c0.2,0,0.5,0,0.7,0
		c0.2,0,0.9,0,2.1-0.1C255.1,176.4,257.5,176.2,261,176z M259.5,181.9c-0.4,0-0.8,0.1-1.1,0.4c-0.3,0.3-0.4,0.6-0.4,1.1
		c0,0.5,0.2,0.9,0.5,1.2c0.3,0.2,0.6,0.3,1,0.3c0.5,0,0.9-0.1,1.1-0.4c0.3-0.3,0.4-0.7,0.4-1.1c0-0.5-0.1-0.9-0.5-1.1
		C260.3,182,259.9,181.9,259.5,181.9z"/>
	<path d="M276.6,186.6c1,0,1.8,0.4,2.4,1.1c0.6,0.6,0.9,1.4,0.9,2.2c0,1-0.4,1.8-1.1,2.4c-0.6,0.6-1.4,0.9-2.2,0.9
		c-1,0-1.8-0.4-2.4-1.1c-0.6-0.6-0.9-1.4-0.9-2.2c0-1,0.4-1.8,1.1-2.4C275,186.9,275.8,186.6,276.6,186.6z M276.6,188
		c-0.6,0-1,0.2-1.4,0.6c-0.3,0.4-0.5,0.8-0.5,1.3c0,0.6,0.2,1,0.6,1.4c0.4,0.3,0.8,0.5,1.3,0.5c0.6,0,1-0.2,1.4-0.6
		c0.3-0.4,0.5-0.8,0.5-1.3c0-0.6-0.2-1-0.6-1.4C277.5,188.2,277.1,188,276.6,188z"/>
</g>
<g class="st3">
	<path class="st4" d="M170.8,11.6L155.1-4.6l0.8-0.7l15.7,16.2L170.8,11.6z"/>
	<path class="st4" d="M179.2,0.1c0.8,0.5,1.6,1,2.3,1.7c0.1,0.1,0.1,0.1,0.1,0.1s0,0.1-0.1,0.2l-0.7,1c-0.1,0.1-0.1,0.1-0.1,0.1
		c0,0-0.1,0-0.1-0.1c-0.6-0.6-1.4-1.2-2.3-1.8c-0.1-0.1-0.1-0.1-0.1-0.1c0,0,0-0.1,0.1-0.2l0.7-0.9c0.1-0.1,0.1-0.1,0.2-0.1
		C179.1,0.1,179.1,0.1,179.2,0.1z M178.1,9.4c0.3-0.4,0.6-0.9,0.7-1.3c0.5-1.1,0.9-2.4,1.3-3.8c0.3,0.3,0.6,0.6,0.9,0.8
		c0.2,0.2,0.4,0.3,0.4,0.4c0,0.1,0,0.2-0.1,0.4c-0.4,1.2-0.8,2.4-1.3,3.6c-0.1,0.3-0.2,0.5-0.2,0.6c0,0.1-0.1,0.2-0.2,0.2
		s-0.2,0-0.3-0.1C178.9,10,178.5,9.7,178.1,9.4z M179.8-3.9c0.7,0.4,1.5,1,2.2,1.7c0.1,0.1,0.1,0.1,0.1,0.1c0,0,0,0.1-0.1,0.2
		l-0.7,1c-0.1,0.1-0.1,0.1-0.2,0.1c0,0-0.1,0-0.1-0.1c-0.8-0.8-1.6-1.4-2.3-1.8c-0.1,0-0.1-0.1-0.1-0.1c0,0,0-0.1,0.1-0.2l0.7-0.9
		c0.1-0.1,0.1-0.1,0.2-0.1C179.7-4,179.8-4,179.8-3.9z M182.8-3c0.5,0.1,1.1,0.3,1.6,0.5c1.7-0.3,3.4-0.7,4.9-1.2
		c0.4-0.1,0.7-0.3,1.1-0.5c0.4,0.3,0.8,0.6,1.2,1c0.1,0.1,0.2,0.2,0.2,0.3c0,0.1-0.1,0.2-0.3,0.2c-0.1,0-0.4,0.1-0.7,0.2
		c-2.2,0.7-4.3,1.2-6.4,1.4v1.5c1.9-0.2,3.7-0.6,5.3-1.1c0.4-0.1,0.8-0.3,1.1-0.5c0.4,0.3,0.8,0.6,1.2,1c0.1,0.1,0.1,0.2,0.1,0.3
		c0,0.1-0.1,0.2-0.3,0.2c-0.1,0-0.3,0.1-0.6,0.2c-0.6,0.2-1.2,0.4-1.8,0.5c0.1,0.9,0.3,1.7,0.5,2.5c0.4-0.3,0.7-0.6,0.9-1
		c0.2-0.3,0.4-0.6,0.6-0.8c0.5,0.3,0.8,0.6,1.1,0.8c0.1,0.1,0.2,0.2,0.2,0.3c0,0.1-0.1,0.1-0.2,0.2c-0.1,0.1-0.3,0.3-0.6,0.5
		c-0.5,0.5-1,0.9-1.6,1.4c0.5,1.4,1.3,2.7,2.4,3.7c-0.3,0.3-0.6,0.7-0.9,1.2c-0.1,0.2-0.2,0.3-0.3,0.3s-0.2-0.1-0.3-0.2
		c-0.9-1.2-1.7-2.6-2.2-4c-0.5-1.4-0.9-2.9-1-4.7l-0.7,0.1V8l0,2.2c0,0.1-0.1,0.2-0.2,0.2h-1.3c-0.1,0-0.1,0-0.2,0s0-0.1,0-0.1
		l0-2.2V1.7c-0.4,0.1-0.9,0.1-1.4,0.2c0,1.9-0.2,3.4-0.5,4.7c-0.3,1.2-0.7,2.3-1.3,3.3c-0.1,0.2-0.2,0.3-0.3,0.3
		c-0.1,0-0.2-0.1-0.4-0.2c-0.4-0.4-0.7-0.6-1-0.7c0.7-0.9,1.1-2,1.5-3.4c0.3-1.3,0.4-2.8,0.4-4.7v-1.5C182.9-1.3,182.9-2.3,182.8-3z
		"/>
	<path class="st4" d="M209.1,8.3c-0.2,0.3-0.4,0.7-0.4,1.1c0,0.3-0.1,0.4-0.1,0.5c-0.1,0-0.2,0.1-0.4,0.1c-2,0.1-3.9,0.1-5.6,0.1
		c-1.8,0-3.1-0.1-3.8-0.4c-0.7-0.3-1.3-0.8-1.7-1.4c-0.4,0.4-0.9,0.9-1.5,1.3c-0.1,0.1-0.3,0.2-0.4,0.3c-0.1,0.1-0.1,0.1-0.2,0.1
		c-0.1,0-0.2-0.1-0.2-0.2c-0.2-0.3-0.4-0.8-0.6-1.4c0.4-0.2,0.7-0.4,0.9-0.5c0.4-0.2,0.8-0.6,1.2-1V3.4h-0.7l-1.1,0
		c-0.1,0-0.1,0-0.2,0c0,0,0-0.1,0-0.2V2c0-0.1,0-0.1,0-0.2c0,0,0.1,0,0.2,0l1.1,0h0.9l1.2,0c0.1,0,0.1,0,0.2,0s0,0.1,0,0.1l0,1.5
		v3.5c0.3,0.6,0.8,1.1,1.4,1.3c0.6,0.2,1.6,0.3,3,0.3C204.4,8.7,206.7,8.6,209.1,8.3z M194.6-2.8c-0.1,0-0.1-0.1-0.1-0.1
		c0,0,0.1-0.1,0.2-0.2l0.8-0.5c0.1-0.1,0.2-0.1,0.2-0.1s0.1,0,0.1,0.1c0.8,0.8,1.5,1.5,2,2.4c0,0.1,0.1,0.1,0.1,0.1
		s-0.1,0.1-0.2,0.2L197-0.2c-0.1,0.1-0.2,0.1-0.2,0.1s-0.1,0-0.1-0.1C196-1.2,195.4-2.1,194.6-2.8z M200.5,1.3l-2.2,0
		c-0.1,0-0.1,0-0.2,0s0-0.1,0-0.1V0.3c0-0.1,0-0.1,0-0.2c0,0,0.1,0,0.1,0l2.2,0h2v-0.7h-1.2l-2.1,0c-0.1,0-0.1,0-0.2,0
		c0,0,0-0.1,0-0.2l0-0.9v-0.7l0-0.9c0-0.1,0-0.1,0-0.2s0.1,0,0.2,0l2.1,0h1.2c0-0.4-0.1-0.8-0.1-1c0.6,0,1.1,0,1.6,0.1
		c0.1,0,0.2,0.1,0.2,0.2l-0.1,0.2C204-3.6,204-3.4,204-3.2h1.3l2.1,0c0.1,0,0.1,0,0.2,0s0,0.1,0,0.1l0,0.9v0.7l0,0.9
		c0,0.1,0,0.1,0,0.2c0,0-0.1,0-0.1,0l-2.1,0H204v0.7h2.2l2.2,0c0.1,0,0.1,0,0.2,0c0,0,0,0.1,0,0.2v0.9c0,0.1,0,0.1,0,0.2
		c0,0-0.1,0-0.1,0l-2.2,0C206.2,1.3,200.5,1.3,200.5,1.3z M205.3,5.2l2.1,0c0.1,0,0.1,0,0.2,0c0,0,0,0.1,0,0.1l0,0.9v0.6l0,0.9
		c0,0.1,0,0.1,0,0.1c0,0-0.1,0-0.2,0l-2.1,0h-3.5l-2.2,0c-0.1,0-0.1,0-0.2,0c0,0,0-0.1,0-0.1l0-1.7V3.8l0-1.7c0-0.1,0-0.1,0-0.2
		s0.1,0,0.2,0l2.1,0h3.2l1.9,0c0.1,0,0.1,0,0.2,0s0,0.1,0,0.2l0,0.8v0.5l0,0.8c0,0.1,0,0.1,0,0.2c0,0-0.1,0-0.1,0l-1.9,0H201v0.7
		C201,5.2,205.3,5.2,205.3,5.2z M200.5-1.5h2v-0.8h-2V-1.5z M205.4,3.5V2.9H201v0.6L205.4,3.5L205.4,3.5z M205.9,6.8V6.1H201v0.7
		H205.9z M206-1.5v-0.8h-2v0.8H206z"/>
	<path class="st4" d="M218.5-0.6c-0.4,3-1.1,5.3-2,6.9c-0.7,1.2-1.6,1.8-2.7,1.8c-0.8,0-1.5-0.4-2.1-1.2c-0.5-0.8-0.8-1.7-0.8-2.9
		c0-1.6,0.6-3,1.8-4.2c1.4-1.4,3.1-2,5.2-2c2,0,3.6,0.6,4.7,1.8c0.9,1,1.4,2.3,1.4,3.8c0,2.9-1.6,4.8-4.9,5.8c-0.1,0-0.2,0-0.2,0
		c-0.2,0-0.3-0.1-0.4-0.3c-0.2-0.4-0.6-0.7-1.1-1c1.6-0.4,2.8-0.9,3.6-1.6c0.8-0.8,1.2-1.8,1.2-3.1c0-1.1-0.4-2-1.1-2.7
		C220.3-0.3,219.5-0.6,218.5-0.6C218.5-0.6,218.5-0.6,218.5-0.6z M216.6-0.5c-1.1,0.2-2.1,0.7-2.7,1.4c-0.8,0.9-1.3,1.9-1.3,3
		c0,0.7,0.1,1.3,0.4,1.8c0.2,0.3,0.4,0.5,0.7,0.5c0.4,0,0.8-0.3,1.2-1c0.4-0.7,0.8-1.6,1.1-2.8C216.3,1.5,216.5,0.5,216.6-0.5z"/>
	<path class="st4" d="M241.1,8.4c-0.2,0.3-0.4,0.6-0.4,1.1c0,0.3-0.1,0.4-0.2,0.5c-0.1,0-0.2,0.1-0.4,0.1c-1.9,0.1-3.8,0.2-5.6,0.2
		c-1.8,0-3.1-0.1-3.8-0.4C230,9.4,229.5,9,229,8.3c-0.3,0.4-0.8,0.8-1.5,1.4c-0.2,0.2-0.3,0.3-0.3,0.3c-0.1,0.1-0.1,0.2-0.2,0.2
		c-0.1,0-0.2-0.1-0.2-0.2c-0.2-0.4-0.4-0.9-0.7-1.5c0.4-0.2,0.7-0.4,0.9-0.5c0.4-0.2,0.8-0.6,1.2-1V3.4h-0.7l-1.1,0
		c-0.1,0-0.1,0-0.2,0c0,0,0-0.1,0-0.2V2c0-0.1,0-0.1,0-0.2c0,0,0.1,0,0.2,0l1.1,0h0.9l1.2,0c0.1,0,0.1,0,0.1,0c0,0,0,0.1,0,0.1
		l0,1.5v3.5c0.3,0.6,0.8,1.1,1.5,1.3c0.6,0.2,1.6,0.3,3,0.3C236.6,8.7,238.9,8.6,241.1,8.4z M226.6-2.7c-0.1,0-0.1-0.1-0.1-0.1
		s0.1-0.1,0.2-0.2l0.8-0.6c0.1-0.1,0.2-0.1,0.2-0.1c0,0,0.1,0,0.1,0.1c0.8,0.7,1.5,1.5,2,2.4c0,0.1,0.1,0.1,0.1,0.1
		c0,0.1-0.1,0.1-0.1,0.2L229-0.2c-0.1,0.1-0.2,0.1-0.2,0.1s-0.1,0-0.1-0.1C228-1.3,227.3-2.1,226.6-2.7z M233.3-2.5h-1.5l-1.4,0
		c-0.1,0-0.1,0-0.2,0s0-0.1,0-0.2v-0.8c0-0.1,0-0.1,0-0.1c0,0,0.1,0,0.1,0l1.4,0h1.6l1.1,0c0.1,0,0.1,0,0.2,0s0,0.1,0,0.2l0,1v0.7
		l0,1c0,0.1,0,0.1,0,0.1c0,0-0.1,0-0.2,0l-1.1,0h-1.6v0.4c0,0.3,0,0.5,0.1,0.6c0.1,0.1,0.4,0.1,0.8,0.1c0.5,0,0.8-0.1,0.9-0.2
		c0.1-0.1,0.1-0.3,0.1-0.7c0.3,0.1,0.6,0.3,1.1,0.4c0.2,0.1,0.3,0.1,0.3,0.2c0,0.1,0,0.1,0,0.3c-0.1,0.3-0.2,0.6-0.3,0.7
		c-0.1,0.1-0.4,0.2-0.7,0.3c-0.3,0-0.7,0.1-1.3,0.1c-1.1,0-1.7-0.1-1.9-0.3c-0.3-0.2-0.4-0.6-0.4-1.2v-0.8l0-0.6c0-0.1,0-0.1,0-0.2
		c0,0,0.1,0,0.2,0l1,0h1.7L233.3-2.5L233.3-2.5z M232.8,6l-2.2,0c-0.1,0-0.1,0-0.1,0c0,0,0-0.1,0-0.2V5c0-0.1,0-0.1,0-0.1
		c0,0,0.1,0,0.1,0l2.2,0h0.2v-1l-1.9,0c-0.1,0-0.1,0-0.2,0c0,0,0-0.1,0-0.2V2.8c0-0.1,0-0.1,0-0.2c0,0,0.1,0,0.2,0l1.9,0
		c0-0.3-0.1-0.7-0.1-1c0.6,0,1.1,0.1,1.5,0.1c0.2,0,0.3,0.1,0.3,0.2c0,0.1,0,0.1-0.1,0.2c-0.1,0.1-0.1,0.3-0.1,0.5h2
		c0-0.4,0-0.7-0.1-1c0.7,0,1.1,0.1,1.4,0.1c0.2,0,0.3,0.1,0.3,0.2c0,0.1,0,0.1-0.1,0.2c-0.1,0.1-0.1,0.2-0.1,0.5v0c0.5,0,1,0,1.4,0
		c0.1,0,0.2,0,0.3,0c0.1,0,0.1,0,0.1,0c0.1,0,0.1,0,0.2,0c0,0,0,0.1,0,0.1v0.9c0,0.1,0,0.1,0,0.2s-0.1,0-0.2,0c0,0-0.1,0-0.2,0
		c-0.5,0-1,0-1.6,0v1h0.3l2.2,0c0.1,0,0.1,0,0.1,0c0,0,0,0.1,0,0.1v0.9c0,0.1,0,0.1,0,0.2c0,0-0.1,0-0.1,0l-2.2,0h-0.8
		c0.8,0.5,1.9,0.9,3.2,1.2c-0.2,0.3-0.4,0.5-0.6,0.8c-0.1,0.3-0.3,0.4-0.4,0.4c0,0-0.2,0-0.4-0.1c-1.1-0.4-2.1-0.9-3-1.5
		c-0.1,0-0.1-0.1-0.1-0.1c0,0,0-0.1,0.1-0.2l0.5-0.6h-3.1c0.3,0.2,0.6,0.4,0.8,0.6c0.1,0.1,0.2,0.2,0.2,0.2c0,0.1-0.1,0.1-0.2,0.2
		c0,0-0.1,0.1-0.2,0.1c-0.1,0.1-0.2,0.1-0.3,0.2c-0.5,0.4-1.2,0.7-2,1c-0.2,0.1-0.3,0.1-0.4,0.1c-0.1,0-0.3-0.1-0.4-0.4
		c-0.2-0.2-0.4-0.5-0.7-0.7c1-0.3,1.8-0.6,2.3-0.9c0.2-0.1,0.4-0.3,0.6-0.4L232.8,6L232.8,6z M234.4,4.8h2v-1h-2V4.8z M238.6-2.5
		h-1.5l-1.4,0c-0.1,0-0.1,0-0.2,0s0-0.1,0-0.2v-0.8c0-0.1,0-0.1,0-0.1c0,0,0.1,0,0.2,0l1.4,0h1.7l1.1,0c0.1,0,0.1,0,0.2,0
		s0,0.1,0,0.2l0,1v0.7l0,1c0,0.1-0.1,0.2-0.2,0.2l-1.1,0h-1.6v0.4c0,0.3,0,0.5,0.1,0.5c0.1,0.1,0.4,0.1,0.9,0.1c0.5,0,0.8,0,0.9-0.1
		c0.1-0.1,0.1-0.3,0.2-0.7c0.3,0.2,0.7,0.3,1.1,0.4c0.2,0,0.3,0.1,0.3,0.3c0,0.1,0,0.2,0,0.3c-0.1,0.3-0.2,0.6-0.3,0.7
		c-0.1,0.1-0.4,0.2-0.8,0.3c-0.3,0-0.8,0.1-1.4,0.1c-1.1,0-1.8-0.1-2-0.3c-0.2-0.2-0.4-0.6-0.4-1.2v-0.9l0-0.6c0-0.1,0-0.1,0-0.2
		s0.1,0,0.1,0l1.1,0h1.7L238.6-2.5L238.6-2.5z"/>
	<path class="st4" d="M242.9-2.1c0.3,0,0.6,0,0.9,0c0.2,0,0.5,0,0.8,0c0.5,0,1.2-0.1,2.1-0.3c0.6-0.1,1-0.2,1.1-0.3
		c0.1-0.1,0.2-0.1,0.3-0.1c0.1,0,0.1,0,0.2,0.1c0.3,0.3,0.5,0.6,0.7,0.8c0.1,0.2,0.1,0.3,0.1,0.4c0,0.1-0.1,0.2-0.3,0.3
		c-0.3,0.2-0.6,0.4-0.9,0.7c0,0-0.3,0.3-0.6,0.7c-0.7,0.8-1.2,1.6-1.5,2.5c-0.3,0.8-0.4,1.6-0.4,2.3c0,1.1,0.3,1.8,0.8,2.4
		c0.4,0.4,0.9,0.6,1.6,0.6c1.2,0,2.2-0.5,2.9-1.5c0.7-0.9,1-2.4,1-4.3c0-1,0-1.8-0.1-2.4c0-0.3-0.1-0.5-0.1-0.8
		c-0.1-0.3-0.1-0.5-0.2-0.7c0-0.1-0.1-0.2-0.1-0.2c0-0.1,0.1-0.2,0.2-0.2c0.4-0.2,0.9-0.3,1.2-0.3c0,0,0,0,0.1,0
		c0.1,0,0.2,0.1,0.2,0.2c0.2,0.7,0.6,1.5,1.1,2.4c0.7,1.3,1.6,2.6,2.6,3.6c0.1,0.1,0.1,0.1,0.1,0.2c0,0.1,0,0.1-0.1,0.3
		c-0.2,0.3-0.5,0.6-0.9,1c-0.1,0.1-0.1,0.1-0.2,0.1c-0.1,0-0.2-0.1-0.3-0.2C254.3,4,253.6,2.6,253,1l-0.1,0c0.1,0.9,0.2,1.8,0.2,2.5
		c0,1-0.1,1.9-0.4,2.8c-0.3,0.8-0.6,1.4-1,1.9c-0.6,0.6-1.1,1.1-1.8,1.3c-0.6,0.2-1.3,0.3-2.1,0.3c-1.3,0-2.4-0.5-3.2-1.4
		c-0.7-0.8-1-1.9-1-3.2c0-0.9,0.2-1.8,0.5-2.7c0.3-0.8,0.6-1.5,1-2c0.3-0.5,0.6-0.9,0.9-1.2c0,0-0.3,0-0.9,0.1
		c-0.3,0.1-0.6,0.1-0.9,0.1c-0.1,0-0.2,0.1-0.4,0.1c-0.1,0-0.2,0.1-0.2,0.1c-0.1,0-0.2-0.1-0.3-0.2C243.2-0.8,243.1-1.4,242.9-2.1z
		 M253-3.1l0.9-0.6c0,0,0.1,0,0.1,0c0,0,0.1,0,0.1,0.1c0.6,0.4,1.1,1,1.5,1.7c0,0,0.1,0.1,0.1,0.1c0,0,0,0.1-0.1,0.1l-0.7,0.5
		c-0.1,0-0.1,0.1-0.1,0.1c-0.1,0-0.1,0-0.1-0.1C254.1-2,253.6-2.6,253-3.1z M254.5-4.1l0.8-0.6c0,0,0.1,0,0.1,0c0,0,0.1,0,0.1,0.1
		c0.6,0.5,1.1,1,1.5,1.6c0,0,0,0.1,0,0.1c0,0.1,0,0.1-0.1,0.2l-0.6,0.5c0,0-0.1,0-0.1,0c0,0-0.1,0-0.1-0.1
		C255.6-3,255.1-3.6,254.5-4.1z"/>
	<path class="st4" d="M260.6,0.1l-2,0c-0.1,0-0.1,0-0.1,0c0,0,0-0.1,0-0.2v-1.3c0-0.1,0-0.1,0-0.2s0.1,0,0.1,0l2,0h3.9v-1.1
		c0-0.7,0-1.2-0.1-1.6c0.6,0,1.1,0,1.7,0.1c0.2,0,0.3,0.1,0.3,0.2c0,0.1,0,0.2-0.1,0.3c-0.1,0.1-0.1,0.4-0.1,0.9v1.1h4.2l2,0
		c0.1,0,0.1,0,0.1,0c0,0,0,0.1,0,0.2V0c0,0.1,0,0.2,0,0.2s-0.1,0-0.1,0l-2,0h-5.5c0,0.6-0.1,1.3-0.1,2h3.9l1.9,0
		c0.1,0,0.2,0.1,0.2,0.2c0,0.3,0,0.7-0.1,1.3c-0.1,2.2-0.3,3.8-0.5,4.8c-0.2,0.8-0.5,1.3-0.9,1.6c-0.4,0.2-0.9,0.4-1.7,0.4
		c-0.5,0-0.9,0-1.3,0c-0.2,0-0.4-0.1-0.4-0.1c0-0.1-0.1-0.2-0.1-0.4c-0.1-0.5-0.2-0.9-0.4-1.2c0.7,0.1,1.4,0.1,2,0.1
		c0.5,0,0.8-0.3,1-0.8c0.2-0.8,0.4-2.2,0.5-4.1h-4.4c-0.3,1.6-0.9,2.9-1.7,3.9c-0.7,0.9-1.7,1.8-3,2.5c-0.2,0.1-0.4,0.2-0.4,0.2
		c-0.1,0-0.2-0.1-0.3-0.4c-0.2-0.4-0.6-0.7-1-1c2-1,3.3-2.1,4-3.6c0.6-1.3,0.9-3,1-5.3L260.6,0.1L260.6,0.1L260.6,0.1z"/>
	<path class="st4" d="M282.7-4.2c0.5,0.1,1,0.2,1.5,0.3c0.2,0,0.3,0.1,0.3,0.2c0,0.1,0,0.2-0.1,0.3c-0.1,0.2-0.2,0.4-0.3,0.8
		c-0.3,0.8-0.4,1.3-0.4,1.3h2.7l2.1,0c0.1,0,0.1,0,0.1,0s0,0.1,0,0.1V0c0,0.1,0,0.1,0,0.2s-0.1,0-0.1,0c0,0-0.1,0-0.4,0
		c-0.3,0-0.5,0-0.8,0c-0.1,2.4-0.7,4.4-1.8,6.1c0.9,1,2,1.9,3.5,2.6c-0.3,0.3-0.5,0.7-0.7,1.1c-0.1,0.2-0.2,0.4-0.3,0.4
		s-0.2-0.1-0.4-0.2c-1.1-0.7-2.1-1.6-3-2.7c-1.1,1.2-2.4,2.1-3.9,2.8c-0.2,0.1-0.3,0.1-0.4,0.1c-0.1,0-0.2-0.1-0.3-0.3
		c-0.2-0.4-0.5-0.8-0.8-1.1c1.8-0.6,3.3-1.6,4.4-2.9c-0.7-1.1-1.2-2.4-1.5-3.8c-0.2,0.3-0.4,0.7-0.7,1c-0.1,0.2-0.2,0.3-0.3,0.3
		s-0.2-0.1-0.3-0.3c-0.2-0.3-0.4-0.5-0.5-0.6l0,0.4c0,0.1,0,0.1,0,0.1c0,0-0.1,0-0.2,0h-1.3c-0.1,0-0.1,0-0.1,0c0,0,0-0.1,0-0.1V2.6
		h-2.3v3.6c0,0.4,0,0.6,0.1,0.7c0.2,0.1,0.5,0.2,1.1,0.2c0.8,0,1.4-0.1,1.6-0.4c0.1-0.1,0.2-0.4,0.3-0.7c0-0.3,0.1-0.7,0.1-1.3
		c0.3,0.2,0.7,0.4,1,0.4c0.2,0.1,0.4,0.1,0.4,0.1c0.1,0,0.1,0.1,0.1,0.2c0,0.1,0,0.1,0,0.3c-0.1,1-0.3,1.8-0.8,2.2
		c-0.3,0.3-0.7,0.4-1.2,0.5c-0.4,0.1-1,0.1-1.7,0.1c-1.1,0-1.9-0.1-2.1-0.4c-0.3-0.2-0.4-0.7-0.4-1.3V2.9l0-1.7c0-0.1,0-0.2,0-0.2
		c0,0,0.1,0,0.2,0l1.4,0h2.3v-2.6h-2.4l-1.6,0c-0.1,0-0.1,0-0.2,0c0,0,0-0.1,0-0.2v-1.2c0-0.1,0-0.1,0-0.2s0.1,0,0.1,0l1.6,0h2.1
		l1.7,0c0.1,0,0.1,0,0.2,0c0,0,0,0.1,0,0.1l0,1.6v3.6c1.1-1.4,1.8-3.1,2.2-5.1C282.6-3.6,282.7-4,282.7-4.2z M285.7,0.1h-2.5
		c0,0,0,0.1,0,0.1c0,0.1,0,0.1,0,0.1c0.3,1.8,0.8,3.3,1.4,4.5C285.2,3.6,285.6,2,285.7,0.1z"/>
	<path class="st4" d="M292.5,8.1l-2,0c-0.1,0-0.1,0-0.2,0c0,0,0-0.1,0-0.1V6.8c0-0.1,0-0.1,0-0.2c0,0,0.1,0,0.1,0l2,0h4V5.6h-2.1
		l-2.2,0c-0.1,0-0.2-0.1-0.2-0.2l0-1.2V3l0-1.2c0-0.1,0-0.2,0-0.2s0.1,0,0.1,0l2.2,0h2.1v-1h-0.4l-1.8,0c-0.1,0-0.1,0-0.2,0
		s0-0.1,0-0.1l0-1.5v-0.4h-1.7l-2,0c-0.1,0-0.1,0-0.2,0c0,0,0-0.1,0-0.1v-1.1c0-0.1,0-0.1,0-0.2c0,0,0.1,0,0.2,0l2,0h1.7
		c0-0.5,0-1-0.1-1.4c0.7,0,1.2,0.1,1.6,0.1c0.1,0,0.2,0.1,0.2,0.2c0,0,0,0.1,0,0.1c0,0.1,0,0.1,0,0.1c0,0.1-0.1,0.4-0.1,0.9h3.2
		c0-0.5,0-1-0.1-1.4c0.7,0,1.2,0,1.6,0.1c0.1,0,0.2,0.1,0.2,0.2c0,0,0,0.1-0.1,0.3c0,0.1-0.1,0.4-0.1,0.8h1.8l2,0c0.1,0,0.1,0,0.2,0
		c0,0,0,0.1,0,0.2v1.1c0,0.1,0,0.1,0,0.2c0,0-0.1,0-0.2,0l-2,0h-1.8V-1l0,1.5c0,0.1,0,0.1,0,0.2c0,0-0.1,0-0.2,0l-1.8,0h-0.5v1h2.3
		l2.2,0c0.1,0,0.1,0,0.2,0c0,0,0,0.1,0,0.2l0,1.2v1.3l0,1.2c0,0.1,0,0.1,0,0.1s-0.1,0-0.2,0l-2.2,0h-2.3v1.1h4.2l2,0
		c0.1,0,0.1,0,0.2,0c0,0,0,0.1,0,0.1v1.1c0,0.1,0,0.1,0,0.1c0,0-0.1,0-0.2,0l-2,0h-4.2v0l0,2.2c0,0.1,0,0.1,0,0.1s-0.1,0-0.1,0h-1.3
		c-0.1,0-0.2-0.1-0.2-0.2l0-2.2v0L292.5,8.1L292.5,8.1z M293.7,4.4h2.9V2.9h-2.9V4.4z M299-0.5v-0.9h-3.2v0.9H299z M301.2,4.4V2.9
		h-3v1.5C298.2,4.4,301.2,4.4,301.2,4.4z"/>
	<path class="st4" d="M312.1,11.6l-0.8-0.7l15.7-16.2l0.8,0.7L312.1,11.6z"/>
</g>
<g>
	<path d="M149.8,14.1L136.7,0.6l0.6-0.6l13.1,13.5L149.8,14.1z"/>
	<path d="M163.6,7.6c1.3,1,2.6,2.1,3.9,3.4c0.1,0.1,0.1,0.1,0.1,0.2s0,0.1-0.1,0.2c-0.3,0.4-0.6,0.7-0.9,1c-0.1,0.1-0.1,0.1-0.2,0.1
		s-0.1,0-0.2-0.1c-1.1-1.2-2.3-2.4-3.6-3.5c-1.5,1.5-3,2.8-4.7,3.7c-0.2,0.1-0.3,0.1-0.3,0.1c-0.1,0-0.2,0-0.2-0.1
		c-0.3-0.3-0.7-0.6-1.2-0.9c1.1-0.6,2.1-1.2,2.9-1.8c0.7-0.5,1.3-1.1,2-1.8c1-1,1.9-2.2,2.6-3.5l-3.6,0c-0.7,0-1.5,0-2.2,0.1
		c-0.1,0-0.2-0.1-0.2-0.2c-0.1-0.4-0.1-0.8-0.1-1.5c0.5,0,1.3,0.1,2.4,0.1h3.8c0.5,0,0.8,0,1-0.1c0.1,0,0.1-0.1,0.2-0.1
		c0,0,0.1,0,0.2,0.1c0.3,0.2,0.6,0.6,0.9,1c0,0.1,0.1,0.1,0.1,0.2c0,0.1-0.1,0.2-0.2,0.3c-0.2,0.2-0.4,0.4-0.5,0.6
		C164.9,5.9,164.3,6.8,163.6,7.6z"/>
	<path d="M176.3,7c0,0.9-0.1,1.5-0.3,2.1c-0.1,0.5-0.3,1-0.6,1.5c-0.3,0.6-0.7,1.1-1.2,1.6c-0.4,0.4-0.8,0.8-1.3,1
		c-0.2,0.1-0.3,0.2-0.4,0.2c-0.1,0-0.2,0-0.3-0.1c-0.3-0.3-0.7-0.5-1.3-0.7c0.8-0.4,1.3-0.8,1.8-1.2c0.4-0.4,0.7-0.8,1-1.3
		c0.3-0.5,0.4-1,0.5-1.4c0.1-0.4,0.1-0.9,0.2-1.6h-2.7c-0.4,0-1.1,0-2.1,0.1c-0.1,0-0.2-0.1-0.2-0.3c-0.1-0.4-0.1-0.9-0.1-1.3
		c0.5,0,1.3,0.1,2.4,0.1h6.3c1,0,1.9,0,2.7-0.1c0.1,0,0.2,0.1,0.2,0.3c0,0.1,0,0.3,0,0.5c0,0.3,0,0.4,0,0.5c0,0.2-0.1,0.2-0.2,0.2
		c-1,0-1.9-0.1-2.7-0.1H176.3z M171.2,2.3c0.8,0,1.6,0.1,2.3,0.1h3.1c1,0,1.7,0,2.4-0.1c0.1,0,0.2,0.1,0.2,0.3c0,0.2,0,0.3,0,0.5
		c0,0.2,0,0.3,0,0.5c0,0.2-0.1,0.3-0.2,0.3c-0.8,0-1.5,0-2.3,0h-3.1c-0.3,0-0.9,0-2,0.1c-0.1,0-0.2-0.1-0.2-0.2c0-0.1,0-0.3,0-0.7
		C171.2,2.6,171.2,2.4,171.2,2.3z"/>
	<path d="M189.7,9.8c0.4,0.4,0.8,0.9,1.2,1.4c0.1,0.1,0.1,0.1,0.1,0.2c0,0.1,0,0.1-0.1,0.2c-0.3,0.3-0.7,0.6-0.9,0.8
		c-0.1,0-0.1,0.1-0.2,0.1c-0.1,0-0.1,0-0.2-0.1c-1.3-1.7-2.8-3.2-4.5-4.4c0.5-0.4,0.8-0.8,1-0.9c0.1,0,0.1-0.1,0.2-0.1
		c0,0,0.1,0,0.2,0.1c0.9,0.7,1.6,1.2,2,1.6c1-0.9,2.1-2,3.2-3.3l-5.9,0c-1,0-1.9,0-2.6,0.1c-0.1,0-0.2-0.1-0.2-0.3
		c-0.1-0.5-0.1-1-0.2-1.5c0.6,0.1,1.6,0.1,3,0.1h5.7c0.6,0,1,0,1.2-0.1c0.1,0,0.1-0.1,0.2-0.1c0.1,0,0.2,0,0.2,0.1
		c0.4,0.3,0.7,0.7,1,1.1c0.1,0.1,0.1,0.2,0.1,0.3c0,0.1-0.1,0.2-0.2,0.3c-0.4,0.3-0.6,0.4-0.7,0.5C192.2,7.4,190.9,8.7,189.7,9.8z"
		/>
	<path d="M203.2,4.2c-0.4,2.6-0.9,4.6-1.8,6c-0.6,1.1-1.4,1.6-2.4,1.6c-0.7,0-1.3-0.4-1.8-1.1c-0.5-0.7-0.7-1.5-0.7-2.5
		c0-1.4,0.5-2.6,1.6-3.6c1.2-1.2,2.7-1.8,4.6-1.8c1.8,0,3.1,0.5,4.1,1.6c0.8,0.9,1.2,2,1.2,3.3c0,2.5-1.4,4.2-4.3,5.1
		c-0.1,0-0.2,0-0.2,0c-0.1,0-0.3-0.1-0.4-0.3c-0.2-0.3-0.5-0.6-1-0.9c1.4-0.3,2.5-0.8,3.1-1.4c0.7-0.7,1.1-1.6,1.1-2.7
		c0-0.9-0.3-1.7-1-2.4C204.8,4.5,204.1,4.2,203.2,4.2L203.2,4.2z M201.5,4.3c-1,0.2-1.8,0.6-2.4,1.3c-0.7,0.8-1.1,1.7-1.1,2.6
		c0,0.6,0.1,1.2,0.3,1.6c0.2,0.3,0.4,0.5,0.6,0.5c0.4,0,0.7-0.3,1.1-0.9c0.3-0.6,0.7-1.4,0.9-2.4C201.2,6,201.4,5.1,201.5,4.3z"/>
	<path d="M214.5,3.8c0.5,0,1.1-0.1,1.7-0.3c0,0,0.1,0,0.1,0c0.1,0,0.1,0,0.1,0.1c0.1,0.3,0.1,0.7,0.1,1.1c0,0.1-0.1,0.2-0.2,0.2
		c-0.5,0.1-1.3,0.2-2.3,0.4c-1,2.6-1.9,4.6-2.7,6c-0.1,0.1-0.1,0.1-0.2,0.1c0,0-0.1,0-0.2-0.1c-0.4-0.2-0.7-0.5-1-0.7
		c-0.1-0.1-0.1-0.1-0.1-0.2c0-0.1,0-0.1,0.1-0.2c1-1.7,1.8-3.3,2.4-4.9c-0.4,0-0.8,0-1.4,0c-0.3,0-0.5,0-0.8,0
		c-0.1,0-0.2-0.1-0.2-0.2C210.1,5,210,4.6,210,4c0.5,0,0.9,0.1,1.3,0.1c0.5,0,1.1,0,1.6-0.1c0.1-0.4,0.2-1,0.4-1.6
		c0.1-0.3,0.1-0.7,0.1-1.1c0.8,0.1,1.3,0.2,1.6,0.3c0.2,0,0.2,0.1,0.2,0.2c0,0.1,0,0.2-0.1,0.3c-0.1,0.1-0.2,0.3-0.2,0.5
		c0,0.1-0.1,0.3-0.2,0.6C214.6,3.4,214.6,3.6,214.5,3.8z M216.8,9.6c-0.1-0.7-0.1-1.5-0.1-2.4c0-0.4-0.1-0.7-0.1-1
		c0.6,0.1,1.1,0.2,1.5,0.3c0.1,0,0.2,0.1,0.2,0.2c0,0,0,0.1-0.1,0.3c0,0.1-0.1,0.3-0.1,0.4c0,0,0,0.1,0,0.2c0,0.7,0.1,1.5,0.2,2.4
		c1.1,0.4,1.9,0.9,2.5,1.3c0.1,0.1,0.1,0.1,0.1,0.2c0,0,0,0.1,0,0.1c-0.2,0.4-0.4,0.8-0.6,1.1c0,0.1-0.1,0.1-0.1,0.1
		c0,0-0.1,0-0.1-0.1c-0.4-0.4-1-0.8-1.7-1.2c0,0.7-0.3,1.3-0.8,1.6c-0.4,0.3-1,0.4-1.8,0.4c-0.8,0-1.5-0.2-2-0.6
		c-0.4-0.4-0.6-0.8-0.6-1.4c0-0.7,0.3-1.2,0.8-1.5c0.5-0.3,1.1-0.5,1.8-0.5C216.1,9.5,216.4,9.6,216.8,9.6z M216.8,11
		c-0.4-0.1-0.8-0.2-1.1-0.2c-0.4,0-0.7,0.1-0.9,0.2c-0.2,0.1-0.3,0.3-0.3,0.6c0,0.4,0.4,0.7,1.2,0.7c0.4,0,0.7-0.1,0.9-0.3
		c0.2-0.2,0.3-0.4,0.3-0.7C216.8,11.1,216.8,11,216.8,11z M217.7,5.1c0.4-0.7,0.6-1,0.6-1.1c0.1-0.1,0.1-0.1,0.2-0.1
		c0,0,0.1,0,0.1,0c0.8,0.2,1.8,0.7,2.7,1.3c0.1,0.1,0.1,0.1,0.1,0.2c0,0.1,0,0.1-0.1,0.2c-0.1,0.3-0.3,0.7-0.6,1
		c0,0.1-0.1,0.1-0.1,0.1c0,0-0.1,0-0.1-0.1C219.5,5.9,218.5,5.4,217.7,5.1z"/>
	<path d="M223.7,3c0.8,0.1,1.4,0.2,1.8,0.5c0.2,0.1,0.2,0.2,0.2,0.3c0,0.1,0,0.2-0.1,0.4c-0.1,0.3-0.1,0.7-0.1,1.4
		c0,1.2,0.1,2.2,0.3,3.2c0.2,1.4,0.6,2.1,1.1,2.1c0.2,0,0.5-0.2,0.7-0.5c0.2-0.3,0.4-0.8,0.7-1.5c0.2,0.4,0.5,0.7,0.9,1.1
		c0.1,0.1,0.1,0.2,0.1,0.3c0,0.1,0,0.1,0,0.2c-0.3,0.8-0.7,1.3-1.1,1.7c-0.4,0.3-0.8,0.5-1.3,0.5c-0.6,0-1.2-0.4-1.7-1.1
		c-0.5-0.7-0.8-1.5-0.9-2.6c-0.2-1.3-0.3-2.7-0.3-4.1C223.9,4.1,223.9,3.5,223.7,3z M230.9,5c0.5-0.3,0.8-0.5,1.1-0.6
		c0.1,0,0.1-0.1,0.2-0.1c0,0,0.1,0,0.2,0.1c0.7,0.6,1.3,1.4,1.8,2.3c0.5,0.8,0.8,1.7,0.9,2.5c0,0,0,0.1,0,0.1c0,0.1-0.1,0.2-0.2,0.2
		c-0.4,0.3-0.8,0.5-1.1,0.6c0,0-0.1,0-0.1,0c-0.1,0-0.1-0.1-0.2-0.2c-0.3-1.1-0.6-2-1-2.8C232.1,6.4,231.6,5.7,230.9,5z"/>
	<path d="M237.6,10.2c0.1,0,0.1,0,0.2,0.1c1,0.7,2,1.5,2.8,2.6c0.1,0.1,0.1,0.2,0.1,0.2c0,0.1,0,0.1-0.1,0.2l-0.9,0.7
		c-0.1,0.1-0.2,0.1-0.2,0.1c-0.1,0-0.1,0-0.2-0.1c-0.8-1.1-1.6-2-2.7-2.7c-0.1-0.1-0.1-0.1-0.1-0.1s0-0.1,0.1-0.2l0.8-0.7
		C237.5,10.2,237.6,10.2,237.6,10.2z"/>
	<path d="M254.1,8.3c0.8,0.7,1.5,1.4,2.1,2.3c0,0.1,0.1,0.1,0.1,0.1c0,0,0,0.1-0.1,0.1l-0.8,0.5c-0.1,0.1-0.2,0.1-0.2,0.1
		c0,0-0.1,0-0.1-0.1c-0.1-0.2-0.3-0.5-0.6-0.9c-1.1,0.1-2.3,0.2-3.8,0.3v1.6l0,1.4c0,0.1,0,0.1,0,0.1c0,0-0.1,0-0.1,0h-1.2
		c-0.1,0-0.1,0-0.1,0s0-0.1,0-0.1l0-1.4v-1.5c-1.9,0.1-3.2,0.2-4.1,0.2c-0.3,0-0.4,0-0.5,0.1c-0.1,0-0.2,0.1-0.2,0.1
		c-0.1,0-0.2-0.1-0.2-0.2c-0.1-0.3-0.2-0.7-0.3-1.2c0.5,0,1,0.1,1.5,0.1c1.1,0,2,0,2.5-0.1c-0.7-0.5-1.4-1-2.2-1.4
		c-0.1,0-0.1-0.1-0.1-0.1s0-0.1,0.1-0.1l0.7-0.5c0.1-0.1,0.1-0.1,0.2-0.1c0,0,0.1,0,0.1,0l0.9,0.5c0.3-0.3,0.6-0.5,0.8-0.7
		c0.1-0.1,0.2-0.2,0.3-0.4h-2.8l-1.8,0c-0.1,0-0.1,0-0.1,0s0-0.1,0-0.1V5.9c0-0.1,0-0.1,0-0.1c0,0,0.1,0,0.1,0l1.8,0h3.4V5.1h-1.7
		l-1.9,0c-0.1,0-0.1,0-0.2,0c0,0,0-0.1,0-0.1V4.2c0-0.1,0-0.1,0-0.1c0,0,0.1,0,0.1,0l1.9,0h1.7V3.4h-2.5l-1.9,0c-0.1,0-0.1,0-0.1,0
		s0-0.1,0-0.1V2.4c0-0.1,0-0.1,0-0.1s0.1,0,0.1,0l1.9,0h2.5c0-0.6,0-1-0.1-1.3c0.6,0,1,0,1.5,0.1c0.1,0,0.2,0.1,0.2,0.1
		c0,0.1,0,0.2-0.1,0.3c-0.1,0.1-0.1,0.4-0.1,0.8h2.7l1.9,0c0.1,0,0.1,0,0.1,0s0,0.1,0,0.1v0.9c0,0.1,0,0.1,0,0.1s-0.1,0-0.1,0
		l-1.9,0h-2.7v0.7h2l1.9,0c0.1,0,0.1,0,0.2,0c0,0,0,0.1,0,0.1V5c0,0.1,0,0.1,0,0.1c0,0-0.1,0-0.1,0l-1.9,0h-2v0.7h3.7l1.8,0
		c0.1,0,0.1,0,0.1,0c0,0,0,0.1,0,0.1v0.9c0,0.1,0,0.1,0,0.1s-0.1,0-0.1,0l-1.8,0h-5c0.4,0.2,0.6,0.3,0.6,0.3
		c0.1,0.1,0.2,0.1,0.2,0.2c0,0.1-0.1,0.1-0.2,0.2c-0.1,0-0.2,0.1-0.4,0.3c-0.4,0.3-0.7,0.6-1,0.8c0.4,0.3,0.6,0.5,0.8,0.6
		c0.6-0.5,1.2-1,1.7-1.6c0.2-0.2,0.4-0.5,0.5-0.7c0.4,0.2,0.8,0.4,1.2,0.6c0.1,0.1,0.2,0.1,0.2,0.2c0,0.1-0.1,0.1-0.2,0.2
		c-0.1,0-0.3,0.1-0.4,0.3c-0.5,0.5-1,0.9-1.5,1.2c0.8,0,1.7-0.1,2.8-0.2L253,8.9c0-0.1-0.1-0.1-0.1-0.1c0,0,0.1-0.1,0.2-0.2l0.7-0.4
		c0.1,0,0.1-0.1,0.2-0.1C254,8.2,254,8.2,254.1,8.3z M247.1,11c0.4,0.2,0.8,0.4,1.1,0.6c0.1,0.1,0.1,0.1,0.1,0.2
		c0,0.1-0.1,0.1-0.2,0.2c-0.1,0-0.3,0.1-0.5,0.3c-0.6,0.5-1.4,1-2.2,1.3c-0.2,0.1-0.3,0.1-0.3,0.1c-0.1,0-0.2-0.1-0.3-0.3
		c-0.2-0.3-0.4-0.5-0.7-0.7c1-0.3,1.8-0.7,2.4-1.2C246.7,11.4,246.9,11.2,247.1,11z M255.9,12.6c-0.3,0.2-0.5,0.5-0.7,0.8
		c-0.1,0.2-0.3,0.3-0.3,0.3c0,0-0.1,0-0.3-0.1c-1.1-0.5-2-1.1-2.8-1.9c0,0-0.1-0.1-0.1-0.1c0,0,0-0.1,0.1-0.1l0.7-0.5
		c0.1-0.1,0.2-0.1,0.2-0.1s0.1,0,0.1,0.1C253.6,11.7,254.6,12.2,255.9,12.6z"/>
	<path d="M259.6,3.5l-1.8,0c-0.1,0-0.1,0-0.1,0s0-0.1,0-0.1V2.5c0-0.1,0-0.1,0-0.1c0,0,0.1,0,0.1,0l1.8,0h1.1c0-0.5,0-1-0.1-1.3
		c0.5,0,1,0.1,1.4,0.1c0.2,0,0.2,0.1,0.2,0.1c0,0.1,0,0.1-0.1,0.3c0,0.1-0.1,0.4-0.1,0.7v0.1h1l1.8,0c0.1,0,0.1,0,0.1,0
		c0,0,0,0.1,0,0.1v0.9c0,0.1,0,0.2-0.1,0.2l-1.8,0H259.6z M266.3,1c0.4,0.1,0.8,0.2,1.2,0.3c0.2,0.1,0.3,0.1,0.3,0.2
		c0,0.1,0,0.1-0.1,0.2c-0.1,0.1-0.2,0.4-0.2,0.8c-0.1,0.6-0.2,0.9-0.3,1.1h1.5l1.7,0c0.1,0,0.2,0.1,0.2,0.2v1c0,0.1,0,0.1,0,0.1
		s-0.1,0-0.1,0l-0.7,0c-0.2,2.2-0.6,4-1.3,5.3l0,0.1c0.7,0.9,1.5,1.6,2.4,2.2c-0.3,0.3-0.5,0.6-0.7,1c-0.1,0.2-0.2,0.3-0.3,0.3
		c-0.1,0-0.2-0.1-0.3-0.2c-0.8-0.7-1.4-1.3-1.9-2c-0.6,0.9-1.3,1.6-2.1,2.2c-0.2,0.1-0.3,0.2-0.3,0.2c-0.1,0-0.1-0.1-0.3-0.3
		c-0.2-0.3-0.3-0.4-0.3-0.5c-0.1,0.2-0.2,0.3-0.3,0.4c-0.2,0.2-0.7,0.3-1.3,0.3c-0.2,0-0.4,0-0.4-0.1c0,0-0.1-0.2-0.1-0.4
		c0-0.2-0.1-0.5-0.3-0.9c0.2,0,0.5,0,0.8,0c0.3,0,0.4-0.1,0.4-0.4V6h-4.1v5.7l0,1.8c0,0.1,0,0.1,0,0.1c0,0-0.1,0-0.1,0h-1
		c-0.1,0-0.2-0.1-0.2-0.2l0-1.9V7l0-1.9c0-0.1,0-0.1,0-0.1c0,0,0.1,0,0.1,0l1.2,0c-0.1-0.4-0.2-0.7-0.3-0.9c0,0,0-0.1,0-0.1
		c0,0,0.1-0.1,0.2-0.1l0.8-0.2c0,0,0.1,0,0.1,0c0.1,0,0.1,0,0.2,0.1c0.2,0.3,0.3,0.7,0.5,1.2h1.1c0.1-0.2,0.2-0.4,0.3-0.7
		c0.1-0.2,0.1-0.4,0.1-0.7c0.4,0.1,0.8,0.2,1.1,0.3c0.1,0,0.2,0.1,0.2,0.2s0,0.1-0.1,0.2c-0.1,0.1-0.1,0.2-0.2,0.3l-0.2,0.4l1.4,0
		c0.1,0,0.1,0,0.1,0s0,0.1,0,0.1l0,1.2c0.7-1,1.2-2.4,1.5-4C266.2,1.8,266.3,1.4,266.3,1z M263,7.1c0.1,0,0.1,0,0.1,0s0,0.1,0,0.1V8
		c0,0.1,0,0.1-0.1,0.1l-1.1,0v0.8h0l0.8,0c0.1,0,0.1,0,0.1,0s0,0.1,0,0.1l0,0.8v0.5l0,1.7c0,0.1,0,0.1,0,0.1c0,0-0.1,0-0.1,0h-0.7
		c-0.1,0-0.1,0-0.1,0s0-0.1,0-0.1v-0.3h-1.1v0.5c0,0.1,0,0.1-0.1,0.1H260c-0.1,0-0.1,0-0.2,0c0,0,0-0.1,0-0.1l0-1.8v-0.3l0-1.1
		c0-0.1,0-0.1,0-0.1s0.1,0,0.1,0l0.8,0V8.1l-1,0c-0.1,0-0.1,0-0.1-0.1V7.2c0-0.1,0-0.2,0.1-0.2l1,0c0-0.3,0-0.6-0.1-0.9
		c0.4,0,0.8,0,1.1,0.1c0.1,0,0.2,0.1,0.2,0.1c0,0,0,0.1-0.1,0.2c0,0.1-0.1,0.2-0.1,0.4L263,7.1z M260.8,9.8v1h1.1v-1H260.8z
		 M264.6,6.9v5.4c0.9-0.6,1.6-1.3,2.2-2.2c-0.4-0.9-0.8-1.9-1.1-3.1c0,0.1-0.1,0.2-0.2,0.3c-0.1,0.1-0.1,0.2-0.1,0.2
		c-0.1,0.1-0.2,0.2-0.2,0.2c-0.1,0-0.2-0.1-0.2-0.2C264.9,7.3,264.7,7.1,264.6,6.9z M266.6,5.3c0.2,1.4,0.5,2.6,1,3.5
		c0.4-1.1,0.7-2.4,0.8-4.1h-1.5C266.8,4.9,266.7,5.1,266.6,5.3z"/>
	<path d="M276.4,3.8c0.5,0,1.1-0.1,1.7-0.3c0,0,0.1,0,0.1,0c0.1,0,0.1,0,0.1,0.1c0.1,0.3,0.1,0.7,0.1,1.1c0,0.1-0.1,0.2-0.2,0.2
		C277.8,5,277,5.1,276,5.3c-1,2.6-1.9,4.6-2.7,6c-0.1,0.1-0.1,0.1-0.2,0.1c0,0-0.1,0-0.2-0.1c-0.4-0.2-0.7-0.5-1-0.7
		c-0.1-0.1-0.1-0.1-0.1-0.2c0-0.1,0-0.1,0.1-0.2c1-1.7,1.8-3.3,2.4-4.9c-0.4,0-0.8,0-1.4,0c-0.3,0-0.5,0-0.8,0
		c-0.1,0-0.2-0.1-0.2-0.2c-0.1-0.2-0.1-0.6-0.1-1.2c0.5,0,0.9,0.1,1.3,0.1c0.5,0,1.1,0,1.6-0.1c0.1-0.4,0.2-1,0.4-1.6
		c0.1-0.3,0.1-0.7,0.1-1.1c0.8,0.1,1.3,0.2,1.6,0.3c0.2,0,0.2,0.1,0.2,0.2c0,0.1,0,0.2-0.1,0.3c-0.1,0.1-0.2,0.3-0.2,0.5
		c0,0.1-0.1,0.3-0.2,0.6C276.5,3.4,276.4,3.6,276.4,3.8z M278.6,9.6c-0.1-0.7-0.1-1.5-0.1-2.4c0-0.4-0.1-0.7-0.1-1
		c0.6,0.1,1.1,0.2,1.5,0.3c0.1,0,0.2,0.1,0.2,0.2c0,0,0,0.1-0.1,0.3c0,0.1-0.1,0.3-0.1,0.4c0,0,0,0.1,0,0.2c0,0.7,0,1.5,0.2,2.4
		c1.1,0.4,1.9,0.9,2.5,1.3c0.1,0.1,0.1,0.1,0.1,0.2c0,0,0,0.1,0,0.1c-0.2,0.4-0.4,0.8-0.6,1.1c0,0.1-0.1,0.1-0.1,0.1
		c0,0-0.1,0-0.1-0.1c-0.4-0.4-1-0.8-1.7-1.2c0,0.7-0.3,1.3-0.8,1.6c-0.4,0.3-1,0.4-1.8,0.4c-0.8,0-1.5-0.2-2-0.6
		c-0.4-0.4-0.6-0.8-0.6-1.4c0-0.7,0.3-1.2,0.8-1.5c0.5-0.3,1.1-0.5,1.8-0.5C277.9,9.5,278.3,9.6,278.6,9.6z M278.7,11
		c-0.4-0.1-0.8-0.2-1.1-0.2c-0.4,0-0.7,0.1-0.9,0.2c-0.2,0.1-0.3,0.3-0.3,0.6c0,0.4,0.4,0.7,1.2,0.7c0.4,0,0.7-0.1,0.9-0.3
		c0.2-0.2,0.3-0.4,0.3-0.7C278.7,11.1,278.7,11,278.7,11z M279.5,5.1c0.4-0.7,0.6-1,0.6-1.1c0.1-0.1,0.1-0.1,0.2-0.1
		c0,0,0.1,0,0.1,0c0.8,0.2,1.8,0.7,2.7,1.3c0.1,0.1,0.1,0.1,0.1,0.2c0,0.1,0,0.1-0.1,0.2c-0.1,0.3-0.3,0.7-0.6,1
		c0,0.1-0.1,0.1-0.1,0.1c0,0-0.1,0-0.1-0.1C281.3,5.9,280.3,5.4,279.5,5.1z"/>
	<path d="M286.5,5.9l-1.7,0c-0.1,0-0.1-0.1-0.1-0.2V4.7c0-0.1,0-0.2,0.1-0.2l1.7,0h0.1V3.5c0-0.7,0-1.4-0.1-2c0.6,0,1.1,0.1,1.5,0.1
		c0.1,0,0.2,0.1,0.2,0.2c0,0,0,0.1,0,0.2c0,0.1,0,0.1,0,0.2c0,0.2-0.1,0.6-0.1,1.4v1.1h2.2V3.3c0-0.7,0-1.3-0.1-1.9
		c0.5,0,1,0,1.5,0.1c0.1,0,0.2,0.1,0.2,0.2c0,0.1,0,0.1,0,0.2c0,0.1,0,0.1,0,0.2c0,0.2-0.1,0.6-0.1,1.3v1.2h2.2V3.3
		c0-0.7,0-1.3-0.1-1.9c0.6,0,1,0,1.5,0.1c0.1,0,0.2,0.1,0.2,0.2c0,0.1,0,0.1,0,0.2c0,0.1,0,0.1-0.1,0.2c0,0.2-0.1,0.6-0.1,1.3v1.2
		h0.2l1.7,0c0.1,0,0.1,0.1,0.1,0.2v1.1c0,0.1,0,0.2-0.1,0.2l-1.7,0h-0.2v1.8l0,2.4c0,0.1,0,0.1,0,0.1c0,0-0.1,0-0.1,0h-1.2
		c-0.1,0-0.1,0-0.1,0c0,0,0-0.1,0-0.1V9.5h-2.2v0.7c0,0.1,0,0.1,0,0.1c0,0-0.1,0-0.1,0h-1.2c-0.1,0-0.1-0.1-0.1-0.2l0-2.4V5.9h-2.2
		v5.7h6.6l1.9,0c0.1,0,0.1,0,0.1,0s0,0.1,0,0.1v1.1c0,0.1,0,0.1,0,0.1c0,0-0.1,0-0.1,0l-1.9,0h-6.6v0.6c0,0.1,0,0.1,0,0.1
		c0,0-0.1,0-0.1,0h-1.2c-0.1,0-0.1,0-0.1,0c0,0,0-0.1,0-0.1l0-1.9L286.5,5.9L286.5,5.9z M293.9,8.2V5.9h-2.2v2.4H293.9z"/>
	<path d="M305.9,8.8c0.5,0,0.9,0,1.3,0.1c-0.6-0.5-1.1-1.1-1.6-1.8h-1.5c-0.4,0.6-0.9,1.2-1.4,1.7c0.3,0,0.7,0,1.2,0.1
		c0.2,0,0.3,0.1,0.3,0.2c0,0,0,0.1-0.1,0.3c-0.1,0.1-0.1,0.3-0.1,0.6c-0.1,1-0.4,1.8-0.9,2.4c-0.5,0.6-1.2,1-2.1,1.4
		c-0.2,0.1-0.3,0.1-0.3,0.1c-0.1,0-0.2-0.1-0.3-0.3c-0.2-0.3-0.5-0.6-0.8-0.8c1.1-0.3,1.9-0.7,2.3-1.2c0.4-0.4,0.6-1,0.6-1.7
		c0-0.1,0-0.2,0-0.3c0-0.2,0-0.4,0-0.6c-0.8,0.7-1.8,1.3-2.9,1.7c-0.2,0.1-0.3,0.1-0.3,0.1c-0.1,0-0.2-0.1-0.3-0.3
		c-0.2-0.3-0.4-0.6-0.6-0.9c1.8-0.5,3.2-1.4,4.1-2.5h-0.3l-1.9,0c-0.1,0-0.1,0-0.1-0.1l0-1.4V3.1l0-1.4c0-0.1,0-0.2,0.1-0.2l1.9,0
		h5.6l1.9,0c0.1,0,0.1,0,0.1,0s0,0.1,0,0.1l0,1.4v2.5l0,1.4c0,0.1-0.1,0.1-0.2,0.1l-1.9,0h-0.6c1,1.1,2.4,1.9,4.3,2.4
		c-0.2,0.3-0.4,0.6-0.6,1c-0.1,0.2-0.2,0.4-0.3,0.4c0,0-0.1,0-0.3-0.1c-1-0.4-1.9-0.9-2.7-1.5c0,0,0,0.1-0.1,0.2
		c0,0.2-0.1,0.6-0.1,1.3v1.4l0,1.6c0,0.1,0,0.1,0,0.1c0,0-0.1,0-0.1,0h-1.2c-0.1,0-0.1,0-0.1,0s0-0.1,0-0.1l0-1.6v-1.4
		C306,9.9,306,9.3,305.9,8.8z M301.6,3.8h2.7v-1h-2.7V3.8z M301.6,5.9h2.7V4.9h-2.7V5.9z M308.5,2.8h-2.8v1h2.8V2.8z M308.5,5.9V4.9
		h-2.8v1.1H308.5z"/>
	<path d="M317.2,1.2c0.7,0.1,1.2,0.2,1.6,0.4c0.1,0,0.2,0.1,0.2,0.2c0,0.1,0,0.2-0.1,0.2c-0.1,0.1-0.2,0.2-0.2,0.3
		c0,0,0,0.1-0.1,0.2c-0.1,0.2-0.2,0.4-0.2,0.6c0.9-0.1,1.8-0.3,2.5-0.4c0,0,0.1,0,0.1,0c0.1,0,0.1,0.1,0.1,0.2
		c0.1,0.3,0.1,0.7,0.1,1c0,0,0,0,0,0c0,0.1-0.1,0.2-0.2,0.2c-1.1,0.2-2.2,0.3-3.3,0.4c-0.5,0.7-0.8,1.3-1,1.6l0,0
		c0.4-0.3,0.9-0.4,1.4-0.4c1,0,1.6,0.5,1.7,1.5c1-0.4,1.6-0.8,2.1-1c0.5-0.2,0.8-0.5,1.1-0.8c0.4,0.5,0.8,0.9,1,1.2
		c0.1,0.1,0.1,0.2,0.1,0.3c0,0.1-0.1,0.2-0.2,0.2c-0.3,0-0.6,0.1-0.9,0.2c-1.4,0.5-2.4,0.9-3,1.1v2.3c0,0.1-0.1,0.2-0.3,0.3
		c-0.3,0-0.6,0.1-1,0.1c-0.1,0-0.2-0.1-0.2-0.2c0-0.8,0-1.4,0-1.7c-0.6,0.3-1.1,0.7-1.4,1c-0.2,0.3-0.3,0.6-0.3,0.9
		c0,0.6,0.6,1,1.9,1c1,0,2.2-0.1,3.5-0.3c0,0,0,0,0,0c0.1,0,0.1,0.1,0.2,0.2c0.1,0.4,0.1,0.8,0.1,1.1c0,0,0,0,0,0
		c0,0.1-0.1,0.2-0.2,0.2c-0.9,0.1-2.1,0.2-3.5,0.2c-2.3,0-3.5-0.8-3.5-2.3c0-0.7,0.3-1.4,0.8-1.9c0.5-0.5,1.2-1,2.2-1.5
		c0-0.4-0.1-0.6-0.2-0.8c-0.1-0.1-0.3-0.2-0.5-0.2c0,0,0,0-0.1,0c-0.5,0-1.2,0.4-1.9,1c-0.4,0.4-0.9,0.9-1.4,1.5
		c-0.1,0.1-0.1,0.1-0.2,0.1c0,0-0.1,0-0.2-0.1c-0.4-0.4-0.7-0.7-0.8-0.9c0-0.1-0.1-0.1-0.1-0.1c0-0.1,0-0.1,0.1-0.2
		c1.3-1.1,2.2-2.3,2.9-3.5c-0.7,0-1.4,0-2.2,0c-0.1,0-0.2-0.1-0.2-0.2c0-0.2-0.1-0.6-0.1-1.2c0.4,0,0.9,0,1.4,0c0.6,0,1.2,0,1.8,0
		c0.2-0.4,0.3-0.8,0.4-1.2C317.2,1.8,317.2,1.5,317.2,1.2z"/>
	<path d="M330.7,14.1l-0.6-0.6L343.1,0l0.6,0.6L330.7,14.1z"/>
</g>
</svg>
