<?xml version="1.0" encoding="utf-8"?>
<!-- Generator: Adobe Illustrator 23.0.6, SVG Export Plug-In . SVG Version: 6.00 Build 0)  -->
<svg version="1.1" xmlns="http://www.w3.org/2000/svg" xmlns:xlink="http://www.w3.org/1999/xlink" x="0px" y="0px"
	 viewBox="0 0 246.18 56.5" style="enable-background:new 0 0 246.18 56.5;" xml:space="preserve">
<style type="text/css">
	.st0{fill:none;stroke:#FFFFFF;stroke-width:3;stroke-linecap:round;stroke-linejoin:round;stroke-miterlimit:10;}
	.st1{fill:#FFF000;stroke:#FFFFFF;stroke-width:3;stroke-linecap:round;stroke-linejoin:round;stroke-miterlimit:10;}
	.st2{fill:none;stroke:#000000;stroke-width:3;stroke-linecap:round;stroke-linejoin:round;stroke-miterlimit:10;}
	.st3{display:none;fill:none;stroke:#000000;stroke-width:2;stroke-miterlimit:10;}
</style>
<g id="派">
	<g>
		<line class="st0" x1="1.54" y1="5" x2="8.82" y2="10"/>
	</g>
	<line class="st0" x1="1.5" y1="16.22" x2="8.77" y2="21.22"/>
	<line class="st0" x1="1.68" y1="54" x2="6.68" y2="32"/>
	<line class="st0" x1="55.68" y1="5" x2="23.68" y2="5"/>
	<line class="st0" x1="12.68" y1="54" x2="23.68" y2="5"/>
	<line class="st0" x1="55.68" y1="16" x2="32.68" y2="16"/>
	<line class="st0" x1="24.68" y1="54" x2="32.19" y2="16.67"/>
	<polygon class="st1" points="56.05,27.5 44.09,53.77 30.34,27.5 	"/>
	<path class="st0" d="M12.68,4"/>
	<path class="st2" d="M1.86,54.38"/>
</g>
<g id="遣">
	<line class="st0" x1="86.68" y1="19.5" x2="112.68" y2="19.5"/>
	<line class="st0" x1="88.68" y1="25.5" x2="110.68" y2="25.5"/>
	<line class="st0" x1="111.18" y1="33" x2="111.18" y2="25"/>
	<line class="st0" x1="111.18" y1="47" x2="111.18" y2="38.5"/>
	<line class="st0" x1="88.68" y1="46.5" x2="110.68" y2="46.5"/>
	<line class="st0" x1="88.18" y1="25" x2="88.18" y2="47"/>
	<path class="st0" d="M72.68,2v14V2z"/>
	<line class="st3" x1="66.18" y1="19" x2="78.18" y2="19"/>
	<line class="st3" x1="66.68" y1="38" x2="77.18" y2="19.5"/>
	<line class="st3" x1="78.18" y1="38" x2="66.68" y2="38"/>
	<line class="st3" x1="66.68" y1="55" x2="77.18" y2="38.5"/>
	<line class="st0" x1="119.68" y1="54" x2="69.68" y2="54"/>
	<rect x="88.18" y="6.5" class="st1" width="23.5" height="7.5"/>
	<line class="st0" x1="100.18" y1="1.5" x2="100.18" y2="19"/>
	<polyline class="st3" points="68.18,18.5 80.18,18.5 68.18,36.5 	"/>
	<polyline class="st3" points="67.18,36.5 79.18,36.5 67.18,54.5 	"/>
	<polyline class="st0" points="66.18,16 78.68,16 69.68,33 	"/>
	<polyline class="st0" points="69.68,34 77.68,34 70.68,53 	"/>
</g>
<g id="会">
	<polyline class="st0" points="159.11,36.5 152.18,24.5 134.86,54.5 169.5,54.5 164.65,46.1 	"/>
	<polygon class="st1" points="151.68,1.5 125.18,37.5 178.18,37.5 	"/>
	<line class="st0" x1="143.18" y1="25.5" x2="160.18" y2="25.5"/>
</g>
<g id="議">
	<line class="st0" x1="195.68" y1="1.5" x2="195.68" y2="9"/>
	<line class="st0" x1="188.18" y1="10" x2="204.18" y2="10"/>
	<line class="st0" x1="188.18" y1="17" x2="204.18" y2="17"/>
	<line class="st0" x1="188.18" y1="24" x2="204.18" y2="24"/>
	<line class="st0" x1="219.68" y1="1.5" x2="219.68" y2="9"/>
	<line class="st0" x1="237.68" y1="1.5" x2="237.68" y2="10"/>
	<line class="st0" x1="211.68" y1="10" x2="244.68" y2="10"/>
	<line class="st0" x1="228.68" y1="10.5" x2="228.68" y2="23"/>
	<line class="st0" x1="211.68" y1="17" x2="244.68" y2="17"/>
	<line class="st0" x1="211.68" y1="24" x2="244.68" y2="24"/>
	<line class="st0" x1="211.68" y1="31" x2="225.68" y2="31"/>
	<line class="st0" x1="211.68" y1="39" x2="244.68" y2="39"/>
	<line class="st0" x1="219.68" y1="32" x2="219.68" y2="55"/>
	<line class="st0" x1="211.68" y1="47" x2="225.18" y2="47"/>
	<line class="st0" x1="236.68" y1="32" x2="236.68" y2="55"/>
	<line class="st0" x1="231.68" y1="31" x2="244.68" y2="31"/>
	<line class="st0" x1="231.68" y1="47" x2="244.68" y2="47"/>
	<rect x="188.18" y="31" class="st1" width="16" height="23.5"/>
	<rect x="88.18" y="32.5" class="st1" width="23" height="7"/>
</g>
<g id="レイヤー_1">
</g>
</svg>
