<?xml version="1.0" encoding="utf-8"?>
<!-- Generator: Adobe Illustrator 23.0.6, SVG Export Plug-In . SVG Version: 6.00 Build 0)  -->
<svg version="1.1" xmlns="http://www.w3.org/2000/svg" xmlns:xlink="http://www.w3.org/1999/xlink" x="0px" y="0px"
	 viewBox="0 0 512 512" style="enable-background:new 0 0 512 512;" xml:space="preserve">
<style type="text/css">
	.st0{fill:#FDFDFD;}
	.st1{fill:#040404;}
	.st2{fill:#FBEC00;}
</style>
<g id="レイヤー_1">
	<g>
		<path class="st0" d="M41.1,401.8c0-120.8,0-241.7,0-362.7c118.6,0,237.3,0,355.9,0c-5.5,5-1.7,11.7-3.4,17.8c-1.3,0-2.7,0-4.1,0
			c-10.4,0-20.9,0-31.3,0c-4.6,0-6.4,1.7-6.5,6.3c-0.1,8.2-0.1,16.4,0,24.6c0.1,4.4,1.9,6.1,6.2,6.2c4.7,0.1,9.3,0,14,0
			c7.3,0,14.6,0,21.9,0c0,3.1,0,5.7,0,8.7c-1.7,0-3.2,0-4.7,0c-12.3,0-24.6,0-36.9,0c-3.6,0-5.8,1.8-5.9,5.2c-0.1,3.3,2.1,5,5.3,5.5
			c1,0.1,2,0.1,3,0.1c28.5,0,57,0,85.6,0c1.4,0,2.8,0,4.2-0.3c2.8-0.7,4.4-2.5,4.2-5.5c-0.2-2.9-2-4.6-4.9-4.9c-1.3-0.1-2.5,0-3.8,0
			c-11.7,0-23.3,0-35.1,0c0-3.1,0-5.9,0-8.7c11.4,0,22.5,0,33.7,0c4.5,0,6.5-1.8,6.6-5.9c0.1-8.5,0.1-16.9,0-25.4
			c0-3.7-2-5.7-5.8-5.8c-1.4,0-2.8,0-4.2,0c-10.1,0-20.2,0-30.5,0c0-3.7-0.2-6.9,0.1-10.1c0.3-3.6-0.9-6.2-4.3-7.6
			c24.8,0,49.7,0,74.5,0c0,144.6,0,289.3,0,433.9c-51.7,0-103.4,0-155,0c-0.4-1.1-1.3-0.8-2.1-0.8c-14.1,0-28.3,0-42.4,0
			c-0.8,0-1.7-0.3-2.1,0.8c-77.4,0-154.8,0-232.2,0c0-22.1,0-44.1,0-66.1c2.3,2.3,5.2,2.8,8.4,2.8c17.5-0.1,35-0.1,52.5,0
			c1.1,0,2.5-0.7,3.6,0.8c-0.8,1.4-1.6,2.9-2.5,4.4C94.4,429.9,85.7,445,77,460.1c-3.3,5.7-1,9.5,5.6,9.5c13.3,0,26.5,0,39.8,0
			c26.4,0,52.8,0,79.2,0c5.6,0,8.2-3.6,5.6-8.1c-5.5-9.8-11.2-19.6-16.9-29.3c-1.7-2.9-4.5-3.5-7.3-2c-2.8,1.5-3.1,4.2-2,7
			c0.5,1.2,1.2,2.2,1.9,3.3c3.4,5.9,6.8,11.9,10.5,18.2c-34.6,0-68.6,0-103.2,0c1-1.8,1.7-3.1,2.5-4.4c8-13.8,16-27.5,23.8-41.4
			c1.4-2.5,3-3.4,5.9-3.4c36.3,0.1,72.6,0.1,108.9,0.1c2.7,0,5.6,0.2,7-2.8c1.4-3-0.2-5.3-1.9-7.7c-30-40.8-60.1-81.5-90.1-122.3
			c-4.9-6.7-7.5-6.7-12.5,0.1c-27.7,37.6-55.3,75.2-83,112.8C47.6,393.8,45.1,398.4,41.1,401.8z M164.3,101c25.5,0,50.5,0,75.5,0
			c1.1,0,2.3,0.1,3.4-0.1c2.8-0.4,4.3-2.3,4.5-4.9c0.2-2.6-1.1-4.7-3.8-5.4c-1.4-0.3-2.8-0.3-4.2-0.3c-25.3,0-50.6,0-75.8,0
			c-5.8,0-8.7,2.5-9.9,8.2c-8.6,42.8-17.2,85.7-25.8,128.5c-0.9,4.4,0.3,7,3.5,7.8c3.6,0.8,6-1.1,6.9-5.5
			c3.4-17.1,6.8-34.3,10.3-51.4c1.8-8.7,3.6-17.5,5.4-26.3c1.5,0.6,1.6,1.7,2.1,2.5c13.1,25.1,26.3,50.1,39.4,75.2
			c1.3,2.6,2.6,5,6.2,4.8c3.3-0.2,4.3-2.6,5.5-5.1c13.3-29.3,26.7-58.6,40-88c3.2-7.1,1.4-10.1-6.3-10.1c-25.8,0-51.7,0-77.5,0
			c-1.5,0-3.1,0.4-5-0.6C160.4,120.8,162.3,111.1,164.3,101z M434.2,386.7c0,6.1,0,11.7,0,17.4c-16.4,0-32.6,0-48.7,0
			c0-5.9,0-11.6,0-17.4c5.4,0,10.4,0.1,15.5,0c3.4,0,5.3-1.9,5.3-5.2c0-3.4-2-5.2-5.4-5.2c-16.4,0-32.8,0-49.1,0
			c-2.2,0-3.8,0.9-4.8,2.9c-1.9,3.9,0.5,7.5,5.3,7.6c7.3,0.1,14.6,0,22.1,0c0,6.1,0,11.7,0,17.6c-6.5,0-13,0-19.5,0
			c-5.9,0-8.5,1.6-8.6,5.2c-0.1,3.7,2.6,5.4,8.7,5.4c6.4,0,12.9,0,19.4,0c0,6.1,0,11.6,0,17.5c-7.2,0-14.2,0-21.2,0
			c-4.3,0-6.8,2.1-6.9,5.3c-0.1,3.4,2.6,5.4,7,5.4c7,0,14,0,21.2,0c0,7.4,0,14.3,0,21.3c0,4.6,2,7,5.5,6.9c3.4-0.1,5.1-2.2,5.1-6.8
			c0-7,0-14,0-21.4c4.4,0,8.5,0,12.6,0c4.4,0,6.8-1.8,6.9-5.1c0.1-3.4-2.4-5.6-6.9-5.7c-4.1-0.1-8.1,0-12.3,0c0-6,0-11.7,0-17.2
			c16.4,0,32.6,0,48.8,0c0,5.8,0,11.4,0,17.2c-4,0-7.8-0.2-11.6,0c-3.3,0.2-5.8,1.9-5.6,5.6c0.2,3.5,2.4,5.2,5.9,5.2
			c3.8,0,7.5,0,11.5,0c0,2.4,0,4.4,0,6.4c0,5.4-0.1,10.7,0,16.1c0.1,3.4,1.8,5.7,5.5,5.7c3.6,0,5.2-2.4,5.2-5.8c0-1.4,0-2.8,0-4.2
			c0-6,0-12,0-18.1c7.8,0,15,0,22.2,0c3.4,0,5.8-1.3,5.9-5.1c0.1-3.8-2.3-5.2-5.6-5.6c-1.3-0.1-2.5,0-3.8,0c-6.2,0-12.3,0-18.5,0
			c0-6.1,0-11.6,0-17.5c1.7,0,3.3,0,4.8,0c5.8,0,11.6,0,17.4,0c3.5,0,5.7-1.6,5.7-5.3c0-3.7-2.4-5.2-5.8-5.3c-1.4,0-2.8,0-4.2,0
			c-6,0-12,0-17.8,0c0-6.2,0-11.8,0-17.6c7.4,0,14.6,0,21.8,0c4.1,0,6.2-1.9,6-5.4c-0.2-3.7-2.4-5.1-5.9-5.1c-14.8,0-29.7,0-44.5,0
			c-3.6,0-5.8,1.6-5.9,5.2c-0.1,3.5,2.1,5.4,5.7,5.3C426.5,386.7,430.3,386.7,434.2,386.7z M406.2,351.4c-17.4,0-34.4,0-51.3,0
			c-1.7,0-3.4,0-5,0.5c-2.5,0.7-3.7,2.7-3.5,5.2c0.2,2.6,1.7,4.5,4.4,4.9c1.1,0.2,2.3,0,3.4,0c31.2,0,62.4,0,93.6,0
			c6.6,0,13.3,0,19.9,0c3.3,0,5.4-1.5,5.5-5c0.1-3.5-1.8-5.2-5.1-5.5c-1.3-0.1-2.5-0.1-3.8-0.1c-14.3,0-28.5,0-42.8,0
			c-1.5,0-3.1,0.6-4.4-0.6c0-4.4,0-8.7,0-13.3c1.6,0,3,0,4.3,0c14.8,0,29.7,0,44.5,0c5.2,0,7.4-1.7,7.3-5.5
			c-0.1-3.6-2.2-5.1-7.2-5.2c-14.8,0-29.7,0-44.5,0c-1.5,0-3.1,0.5-4.4-0.5c0-4.5,0-8.9,0-13.6c16.5,0,32.7,0,49,0
			c5,0,7-1.5,7.1-5.2c0-3.6-2.2-5.5-6.9-5.5c-5.8,0-11.5,0-17.6,0c0-7.7,0-15.2,0-22.6c0-4.9-1.6-7.1-5.2-7.2
			c-3.6-0.1-5.4,2.2-5.4,7c0,7.5,0,14.9,0,22.6c-17.7,0-35.2,0-52.9,0c0-7.6,0-15,0-22.5c0-4.9-1.6-7.1-5.2-7.1
			c-3.6,0-5.4,2.3-5.4,7c0,7.5,0,14.9,0,22.8c-7.3,0-14.3,0-21.4,0c-4.3,0-6.8,2-6.9,5.3c-0.1,3.4,2.5,5.5,7,5.5
			c16.4,0,32.8,0,49.1,0c1.2,0,2.5-0.4,3.7,0.4c0,4.5,0,9,0,13.7c-17.7,0-35.2,0-52.7,0c-4.6,0-7.2,1.9-7.2,5.3
			c0,3.4,2.6,5.3,7.2,5.3c16.4,0,32.8,0,49.1,0c1.2,0,2.5-0.5,3.5,0.4C406.2,342.3,406.2,346.7,406.2,351.4z M443.5,166.7
			c0-12.7,0.1-25.4,0-38.1c0-5.5-3.5-7.7-8.4-5.4c-1.2,0.6-2.4,0.7-3.6,0.7c-22.6,0-45.1,0-67.7,0c-1.1,0-2.2,0.1-3.3-0.4
			c-6-2.5-8.8-0.6-8.8,5.8c0,16.1,0,32.2,0,48.2c0,8.7-0.1,17.5,0,26.2c0,5.8,3.4,8,8.5,5.5c1.4-0.7,2.7-0.6,4.1-0.6
			c22.1,0,44.3,0,66.4,0c1.2,0,2.5-0.2,3.7,0.4c6.2,2.6,9.1,0.7,9.1-5.9C443.5,190.9,443.5,178.8,443.5,166.7z M307.6,90.4
			c0-14.7,0-28.6,0-42.6c0-4.3-2-6.8-5.3-6.8c-3.3,0-5.3,2.5-5.3,6.7c0,12.9,0,25.7,0,38.6c0,1.3,0.5,2.8-0.6,4.1
			c-5.3,0-10.7-0.1-16.1,0c-4.1,0.1-6.2,2.1-6.2,5.4c0,3.4,2.1,5.2,6.2,5.2c4.9,0,9.9,0,14.8,0c6.3,0,12.5,0,19.4,0
			c-2.1,4-3.9,7.4-5.6,10.7c-7.1,13.4-14.5,26.7-21.2,40.4c-3.3,6.8-1.7,13.6,7.2,12.6c5.6-0.6,11.3-0.1,17.2-0.1
			c-0.5,1.4-0.8,2.6-1.2,3.7c-6.2,16.8-12.3,33.5-18.5,50.3c-1.1,2.8-1.7,5.8-4.6,7.8c-1.7,1.2-1.7,3.5-1,5.5c0.7,1.9,2.1,3,4.1,3.1
			c1,0.1,2,0.1,3,0.1c57.3,0,114.7,0,172,0c0.8,0,1.7,0.1,2.5,0c3.2-0.3,4.8-2.1,4.8-5.3c0-3-1.6-4.7-4.6-5.1
			c-1.3-0.1-2.5-0.1-3.8-0.1c-52.7,0-105.4,0-158,0c-1.5,0-3,0-4.6,0c-0.4-1.9,0.5-3.3,1.1-4.7c7-19,14-38,21-57
			c2.2-6,0.2-8.9-6.2-8.9c-6.2,0-12.3,0-18.4,0c-0.4-1.9,0.6-2.8,1.2-3.9c8.8-16.7,17.7-33.3,26.5-50c3.2-6,1-9.5-5.7-9.6
			C317.1,90.3,312.6,90.4,307.6,90.4z M133.7,62.1c1.7,0,3.2,0,4.7,0c34.2,0,68.3,0,102.5,0c4.3,0,6.8-1.9,6.7-5.2
			c0-3.3-2.4-5.2-6.8-5.2c-36.7,0-73.4,0-110.1-0.1c-4.1,0-6,1.6-6.9,5.7c-7.5,33.7-15.1,67.3-22.7,101
			c-5.2,23.1-10.3,46.2-15.5,69.3c-1.1,5,2.1,8.6,6.5,7.3c2.7-0.8,3.4-3,3.9-5.5c8.7-39,17.5-78,26.3-117.1
			C126.2,95.7,129.9,79.1,133.7,62.1z M263.5,422.8c0,13.3,0,26.5,0,39.8c0,5.6,1.4,7,7,7c17.5,0,35,0,52.5,0c6.1,0,7.5-1.3,7.5-7.4
			c0-26.2,0-52.5,0-78.7c0-5.8-1.4-7.2-7.2-7.2c-17.5,0-35,0-52.5,0c-6,0-7.2,1.3-7.2,7.2C263.5,396.6,263.5,409.7,263.5,422.8z
			 M290.1,301.4c-2.1,0.9-3.9,0.5-5.7,0.5c-5.1,0.1-10.2-0.1-15.2,0.1c-3.4,0.1-5.7,1.9-5.6,5.5c0.1,3.4,2.2,5,5.5,5.1
			c1.3,0,2.5,0,3.8,0c17.1,0,34.1,0,51.2,0c2.4,0,4.5-0.5,5.8-2.7c1-1.8,1-3.8-0.2-5.6c-1.4-2.1-3.6-2.5-6-2.5c-7.6,0-15.2,0-23.1,0
			c0-8,0-15.6,0-23.1c0-4.5-1.8-6.6-5.3-6.7c-3.5,0-5.2,2-5.2,6.6C290.1,286.3,290.1,293.9,290.1,301.4z M74.9,152.4
			c-0.3-2.9-1.7-5.1-4.8-5.5c-3.4-0.4-5.3,1.7-6,4.7c-5.7,25.2-11.5,50.5-17.1,75.7c-1,4.4,0.5,7,3.8,7.5c3.4,0.6,5.5-1.1,6.5-5.5
			c3.9-17.1,7.8-34.3,11.7-51.4C71,169.5,72.9,161,74.9,152.4z M297,326.8c-8.9,0-17.7,0-26.6,0c-4.6,0-6.7,1.7-6.8,5.1
			c-0.1,3.5,2.3,5.5,6.8,5.5c17.7,0,35.5,0,53.2,0c4.4,0,6.7-1.8,6.9-5.1c0.1-3.5-2.2-5.5-6.9-5.5
			C314.7,326.8,305.9,326.8,297,326.8z M297,362c9,0,18-0.1,27,0c3.6,0,6.1-1.1,6.4-5c0.3-3.3-2-5.6-6-5.6
			c-18.3-0.1-36.6-0.1-54.9,0c-4,0-6.2,2.2-6,5.5c0.3,3.9,2.7,5.1,6.4,5.1C279,361.9,288,362,297,362z M76.7,79.8
			c2.9,0,4.5-1.3,5.3-3.7c0.9-2.7-0.2-4.7-2.3-6.2C71.5,64.3,63.3,58.6,55,53c-3.3-2.2-6.4-1.8-8.1,1c-2,3.3-0.7,5.9,2.2,7.9
			c8,5.5,16,11,24,16.4C74.3,79.2,75.5,79.9,76.7,79.8z M82.2,114.3c-0.2-1.7-0.5-3.3-1.9-4.3c-8.8-6.1-17.6-12.3-26.5-18.2
			c-2.5-1.6-5.4-0.9-7,1.8c-1.4,2.4-1.3,5.1,1.1,6.8c8.7,6.2,17.5,12.3,26.5,18.2C77.8,121,82.2,118.2,82.2,114.3z"/>
		<path class="st1" d="M41.1,401.8c4-3.4,6.6-8,9.6-12.1c27.7-37.6,55.4-75.2,83-112.8c5-6.7,7.6-6.8,12.5-0.1
			c30,40.8,60,81.5,90.1,122.3c1.7,2.4,3.3,4.7,1.9,7.7c-1.4,3-4.2,2.8-7,2.8c-36.3,0-72.6,0-108.9-0.1c-2.9,0-4.5,0.9-5.9,3.4
			c-7.8,13.9-15.8,27.6-23.8,41.4c-0.8,1.3-1.5,2.6-2.5,4.4c34.6,0,68.6,0,103.2,0c-3.7-6.4-7.1-12.3-10.5-18.2
			c-0.6-1.1-1.4-2.1-1.9-3.3c-1.1-2.8-0.8-5.5,2-7c2.8-1.5,5.6-0.9,7.3,2c5.7,9.7,11.4,19.4,16.9,29.3c2.5,4.5-0.1,8.1-5.6,8.1
			c-26.4,0-52.8,0-79.2,0c-13.3,0-26.5,0-39.8,0c-6.7,0-8.9-3.8-5.6-9.5c8.7-15.1,17.5-30.2,26.2-45.4c0.8-1.4,1.6-2.9,2.5-4.4
			c-1.1-1.4-2.5-0.8-3.6-0.8c-17.5-0.1-35-0.1-52.5,0c-3.2,0-6.1-0.4-8.4-2.8C41.1,405.2,41.1,403.5,41.1,401.8z M140,286.4
			c-27.8,37.7-55.2,74.9-82.8,112.5c55.5,0,110.2,0,165.5,0C195.1,361.2,167.7,324,140,286.4z"/>
		<path class="st1" d="M400.4,39.1c3.4,1.5,4.6,4,4.3,7.6c-0.2,3.2-0.1,6.5-0.1,10.1c10.3,0,20.4,0,30.5,0c1.4,0,2.8,0,4.2,0
			c3.8,0.1,5.7,2.1,5.8,5.8c0,8.5,0.1,16.9,0,25.4c0,4-2.1,5.9-6.6,5.9c-11.1,0-22.3,0-33.7,0c0,2.9,0,5.6,0,8.7
			c11.7,0,23.4,0,35.1,0c1.3,0,2.6-0.1,3.8,0c2.9,0.3,4.7,2,4.9,4.9c0.2,3-1.4,4.8-4.2,5.5c-1.4,0.3-2.8,0.3-4.2,0.3
			c-28.5,0-57,0-85.6,0c-1,0-2,0.1-3-0.1c-3.2-0.4-5.4-2.1-5.3-5.5c0.1-3.5,2.3-5.2,5.9-5.2c12.3,0,24.6,0,36.9,0c1.5,0,3,0,4.7,0
			c0-3,0-5.6,0-8.7c-7.3,0-14.6,0-21.9,0c-4.7,0-9.3,0.1-14,0c-4.4-0.1-6.2-1.8-6.2-6.2c-0.1-8.2-0.1-16.4,0-24.6
			c0-4.6,1.9-6.3,6.5-6.3c10.4,0,20.9,0,31.3,0c1.4,0,2.8,0,4.1,0c1.7-6-2.1-12.8,3.4-17.8C398.2,39.1,399.3,39.1,400.4,39.1z
			 M362.4,83c10.7,0,21.1,0,31.4,0c0-5.3,0-10.3,0-15.2c-10.6,0-21,0-31.4,0C362.4,73,362.4,77.9,362.4,83z M434.2,67.8
			c-9.9,0-19.7,0-29.3,0c0,5.3,0,10.3,0,15.3c9.9,0,19.6,0,29.3,0C434.2,77.9,434.2,72.9,434.2,67.8z"/>
		<path class="st1" d="M164.3,101c-2,10.1-3.9,19.8-5.9,29.5c1.9,0.9,3.5,0.6,5,0.6c25.8,0,51.7,0,77.5,0c7.7,0,9.6,2.9,6.3,10.1
			c-13.3,29.3-26.7,58.6-40,88c-1.1,2.5-2.1,4.9-5.5,5.1c-3.5,0.2-4.8-2.2-6.2-4.8c-13.1-25.1-26.2-50.1-39.4-75.2
			c-0.4-0.8-0.5-1.9-2.1-2.5c-1.8,8.8-3.6,17.5-5.4,26.3c-3.4,17.1-6.9,34.3-10.3,51.4c-0.9,4.4-3.3,6.4-6.9,5.5
			c-3.2-0.8-4.4-3.4-3.5-7.8c8.6-42.8,17.2-85.7,25.8-128.5c1.2-5.8,4.1-8.2,9.9-8.2c25.3,0,50.6,0,75.8,0c1.4,0,2.8,0,4.2,0.3
			c2.7,0.6,4,2.8,3.8,5.4c-0.2,2.6-1.7,4.5-4.5,4.9c-1.1,0.2-2.3,0.1-3.4,0.1C214.8,101,189.8,101,164.3,101z M161.8,141.8
			c13.2,25.2,26.1,49.8,39.3,75c11.6-25.4,22.8-50.1,34.2-75C210.7,141.8,186.6,141.8,161.8,141.8z"/>
		<path class="st1" d="M434.2,386.7c-3.9,0-7.7,0-11.5,0c-3.6,0-5.7-1.8-5.7-5.3c0.1-3.6,2.3-5.2,5.9-5.2c14.8,0,29.7,0,44.5,0
			c3.5,0,5.7,1.4,5.9,5.1c0.2,3.5-1.9,5.4-6,5.4c-7.2,0.1-14.4,0-21.8,0c0,5.9,0,11.4,0,17.6c5.8,0,11.8,0,17.8,0c1.4,0,2.8,0,4.2,0
			c3.4,0.1,5.7,1.6,5.8,5.3c0,3.7-2.2,5.3-5.7,5.3c-5.8,0-11.6,0-17.4,0c-1.5,0-3.1,0-4.8,0c0,5.9,0,11.4,0,17.5
			c6.2,0,12.3,0,18.5,0c1.3,0,2.6-0.1,3.8,0c3.3,0.4,5.7,1.8,5.6,5.6c-0.1,3.8-2.5,5.1-5.9,5.1c-7.2,0-14.4,0-22.2,0
			c0,6.1,0,12.1,0,18.1c0,1.4,0,2.8,0,4.2c-0.1,3.5-1.6,5.8-5.2,5.8c-3.6,0-5.4-2.3-5.5-5.7c-0.1-5.4,0-10.7,0-16.1c0-2,0-3.9,0-6.4
			c-4,0-7.7,0-11.5,0c-3.5,0-5.8-1.6-5.9-5.2c-0.2-3.6,2.3-5.4,5.6-5.6c3.8-0.2,7.6,0,11.6,0c0-5.8,0-11.4,0-17.2
			c-16.2,0-32.4,0-48.8,0c0,5.5,0,11.2,0,17.2c4.2,0,8.2,0,12.3,0c4.5,0.1,7.1,2.2,6.9,5.7c-0.1,3.3-2.5,5-6.9,5.1
			c-4.1,0-8.1,0-12.6,0c0,7.3,0,14.3,0,21.4c0,4.6-1.6,6.7-5.1,6.8c-3.5,0.1-5.5-2.3-5.5-6.9c0-6.9,0-13.8,0-21.3
			c-7.2,0-14.2,0-21.2,0c-4.5,0-7.1-2.1-7-5.4c0.1-3.2,2.6-5.2,6.9-5.3c7-0.1,14,0,21.2,0c0-5.9,0-11.4,0-17.5c-6.5,0-12.9,0-19.4,0
			c-6.1,0-8.9-1.7-8.7-5.4c0.1-3.6,2.7-5.2,8.6-5.2c6.5,0,12.9,0,19.5,0c0-6,0-11.6,0-17.6c-7.5,0-14.8,0.1-22.1,0
			c-4.8-0.1-7.2-3.7-5.3-7.6c1-2,2.6-2.9,4.8-2.9c16.4,0,32.8,0,49.1,0c3.4,0,5.4,1.8,5.4,5.2c0,3.4-2,5.2-5.3,5.2
			c-5.1,0.1-10.1,0-15.5,0c0,5.9,0,11.6,0,17.4c16.2,0,32.3,0,48.7,0C434.2,398.4,434.2,392.8,434.2,386.7z"/>
		<path class="st1" d="M406.2,351.4c0-4.7,0-9,0-13.5c-1-1-2.3-0.4-3.5-0.4c-16.4,0-32.8,0-49.1,0c-4.6,0-7.2-1.9-7.2-5.3
			c0-3.4,2.5-5.3,7.2-5.3c17.5,0,35,0,52.7,0c0-4.7,0-9.2,0-13.7c-1.1-0.8-2.5-0.4-3.7-0.4c-16.4,0-32.8,0-49.1,0
			c-4.5,0-7.1-2.1-7-5.5c0.1-3.2,2.6-5.2,6.9-5.3c7-0.1,14,0,21.4,0c0-7.9,0-15.3,0-22.8c0-4.7,1.9-7,5.4-7c3.6,0,5.2,2.2,5.2,7.1
			c0,7.5,0,14.9,0,22.5c17.8,0,35.2,0,52.9,0c0-7.7,0-15.1,0-22.6c0-4.8,1.8-7.1,5.4-7c3.6,0.1,5.2,2.3,5.2,7.2c0,7.4,0,14.9,0,22.6
			c6.1,0,11.9,0,17.6,0c4.7,0,7,1.9,6.9,5.5c0,3.7-2.1,5.2-7.1,5.2c-16.2,0-32.4,0-49,0c0,4.6,0,9,0,13.6c1.3,1,2.9,0.5,4.4,0.5
			c14.8,0,29.7,0,44.5,0c5,0,7.1,1.5,7.2,5.2c0.1,3.8-2.2,5.5-7.3,5.5c-14.8,0-29.7,0-44.5,0c-1.4,0-2.8,0-4.3,0c0,4.6,0,9,0,13.3
			c1.3,1.2,3,0.6,4.4,0.6c14.3,0,28.5,0,42.8,0c1.3,0,2.5,0,3.8,0.1c3.3,0.4,5.2,2,5.1,5.5c-0.1,3.5-2.2,5-5.5,5
			c-6.6,0-13.3,0-19.9,0c-31.2,0-62.4,0-93.6,0c-1.1,0-2.3,0.1-3.4,0c-2.8-0.4-4.2-2.3-4.4-4.9c-0.2-2.5,1-4.5,3.5-5.2
			c1.6-0.5,3.3-0.5,5-0.5C371.8,351.4,388.8,351.4,406.2,351.4z"/>
		<path class="st1" d="M443.5,166.7c0,12.1,0,24.3,0,36.4c0,6.6-2.9,8.5-9.1,5.9c-1.3-0.5-2.5-0.4-3.7-0.4c-22.1,0-44.3,0-66.4,0
			c-1.4,0-2.7,0-4.1,0.6c-5.2,2.5-8.5,0.3-8.5-5.5c-0.1-8.7,0-17.5,0-26.2c0-16.1,0-32.2,0-48.2c0-6.5,2.8-8.3,8.8-5.8
			c1.1,0.5,2.2,0.4,3.3,0.4c22.6,0,45.1,0,67.7,0c1.3,0,2.4-0.1,3.6-0.7c4.9-2.3,8.3-0.1,8.4,5.4C443.6,141.3,443.5,154,443.5,166.7
			z M362.4,173.2c23.6,0,46.8,0,70.2,0c0-4.7,0-9.1,0-13.6c-23.5,0-46.8,0-70.2,0C362.4,164.2,362.4,168.5,362.4,173.2z
			 M432.6,134.7c-23.6,0-46.8,0-70.1,0c0,4.7,0,9.2,0,13.5c23.5,0,46.9,0,70.1,0C432.6,143.6,432.6,139.2,432.6,134.7z M432.6,184.3
			c-23.4,0-46.7,0-70.1,0c0,4.7,0,9.1,0,13.6c23.4,0,46.6,0,70.1,0C432.6,193.2,432.6,188.8,432.6,184.3z"/>
		<path class="st1" d="M307.6,90.4c5,0,9.5,0,13.9,0c6.8,0.1,8.9,3.6,5.7,9.6c-8.8,16.7-17.7,33.3-26.5,50c-0.6,1.1-1.6,2-1.2,3.9
			c6.1,0,12.2,0,18.4,0c6.4,0,8.5,2.9,6.2,8.9c-7,19-14,38-21,57c-0.5,1.4-1.5,2.8-1.1,4.7c1.5,0,3.1,0,4.6,0c52.7,0,105.4,0,158,0
			c1.3,0,2.6-0.1,3.8,0.1c3,0.3,4.6,2.1,4.6,5.1c0,3.2-1.6,5-4.8,5.3c-0.8,0.1-1.7,0-2.5,0c-57.3,0-114.7,0-172,0c-1,0-2,0-3-0.1
			c-2-0.2-3.4-1.3-4.1-3.1c-0.8-2-0.8-4.3,1-5.5c2.9-1.9,3.5-4.9,4.6-7.8c6.2-16.8,12.3-33.5,18.5-50.3c0.4-1.2,0.8-2.3,1.2-3.7
			c-5.9,0-11.6-0.5-17.2,0.1c-8.9,1-10.5-5.8-7.2-12.6c6.7-13.6,14.1-26.9,21.2-40.4c1.8-3.3,3.5-6.7,5.6-10.7c-6.9,0-13.2,0-19.4,0
			c-4.9,0-9.9,0-14.8,0c-4.2,0-6.2-1.8-6.2-5.2c0-3.3,2.1-5.3,6.2-5.4c5.4-0.1,10.7,0,16.1,0c1.1-1.3,0.6-2.8,0.6-4.1
			c0-12.9,0-25.7,0-38.6c0-4.2,2-6.7,5.3-6.7c3.3,0,5.3,2.4,5.3,6.8C307.7,61.7,307.6,75.7,307.6,90.4z"/>
		<path class="st1" d="M133.7,62.1c-3.8,16.9-7.5,33.5-11.3,50.1c-8.8,39-17.5,78-26.3,117.1c-0.5,2.5-1.2,4.7-3.9,5.5
			c-4.4,1.3-7.6-2.2-6.5-7.3c5.1-23.1,10.3-46.2,15.5-69.3c7.6-33.7,15.2-67.3,22.7-101c0.9-4,2.8-5.7,6.9-5.7
			c36.7,0.1,73.4,0,110.1,0.1c4.4,0,6.8,1.9,6.8,5.2c0,3.3-2.4,5.2-6.7,5.2c-34.2,0-68.3,0-102.5,0C137,62.1,135.4,62.1,133.7,62.1z
			"/>
		<path class="st1" d="M263.5,422.8c0-13.1,0-26.2,0-39.4c0-5.9,1.3-7.2,7.2-7.2c17.5,0,35,0,52.5,0c5.8,0,7.2,1.4,7.2,7.2
			c0,26.2,0,52.5,0,78.7c0,6.1-1.3,7.4-7.5,7.4c-17.5,0-35,0-52.5,0c-5.6,0-7-1.4-7-7C263.5,449.3,263.5,436.1,263.5,422.8z
			 M274.3,458.7c15.3,0,30.3,0,45.2,0c0-24.1,0-48,0-71.8c-15.2,0-30.1,0-45.2,0C274.3,410.9,274.3,434.7,274.3,458.7z"/>
		<path class="st1" d="M290.1,301.4c0-7.5,0-15.1,0-22.7c0-4.6,1.7-6.6,5.2-6.6c3.5,0,5.2,2.2,5.3,6.7c0,7.6,0,15.2,0,23.1
			c8,0,15.5,0,23.1,0c2.3,0,4.5,0.3,6,2.5c1.2,1.8,1.3,3.8,0.2,5.6c-1.2,2.2-3.3,2.7-5.8,2.7c-17.1-0.1-34.1,0-51.2,0
			c-1.3,0-2.5,0-3.8,0c-3.3-0.1-5.4-1.8-5.5-5.1c-0.1-3.6,2.2-5.4,5.6-5.5c5.1-0.2,10.2,0,15.2-0.1
			C286.2,301.9,288,302.3,290.1,301.4z"/>
		<path class="st1" d="M74.9,152.4c-2,8.6-3.9,17.1-5.8,25.6c-3.9,17.1-7.8,34.3-11.7,51.4c-1,4.4-3.1,6.1-6.5,5.5
			c-3.3-0.6-4.8-3.2-3.8-7.5c5.7-25.3,11.4-50.5,17.1-75.7c0.7-3.1,2.6-5.1,6-4.7C73.2,147.3,74.6,149.5,74.9,152.4z"/>
		<path class="st1" d="M297,326.8c8.9,0,17.7,0,26.6,0c4.6,0,7,2,6.9,5.5c-0.1,3.3-2.5,5.1-6.9,5.1c-17.7,0-35.5,0-53.2,0
			c-4.6,0-7-2-6.8-5.5c0.1-3.4,2.3-5.1,6.8-5.1C279.3,326.8,288.1,326.8,297,326.8z"/>
		<path class="st1" d="M297,362c-9,0-18-0.1-27,0c-3.6,0-6.1-1.2-6.4-5.1c-0.2-3.3,2-5.5,6-5.5c18.3-0.1,36.6-0.1,54.9,0
			c3.9,0,6.2,2.3,6,5.6c-0.3,3.9-2.8,5.1-6.4,5C315,361.9,306,362,297,362z"/>
		<path class="st1" d="M76.7,79.8c-1.2,0.1-2.4-0.6-3.6-1.4c-8-5.5-16-11-24-16.4c-2.9-2-4.2-4.6-2.2-7.9c1.6-2.8,4.8-3.2,8.1-1
			c8.3,5.6,16.5,11.2,24.7,16.9c2.1,1.5,3.2,3.5,2.3,6.2C81.2,78.5,79.6,79.8,76.7,79.8z"/>
		<path class="st1" d="M82.2,114.3c0,3.8-4.4,6.6-7.8,4.4c-9-5.8-17.7-12-26.5-18.2c-2.5-1.7-2.5-4.5-1.1-6.8c1.6-2.7,4.5-3.5,7-1.8
			c8.9,5.9,17.7,12.1,26.5,18.2C81.6,111,82,112.6,82.2,114.3z"/>
		<path class="st2" d="M140,286.4c27.6,37.5,55,74.8,82.8,112.5c-55.4,0-110,0-165.5,0C84.9,361.4,112.2,324.2,140,286.4z
			 M140,367.2c9.6,0,19.2-0.1,28.8,0c3.6,0,6.2-0.9,6.5-4.9c0.2-3.6-2-5.5-6.4-5.5c-19.2,0-38.4,0-57.6,0c-4.3,0-6.8,2.1-6.5,5.4
			c0.3,3.8,2.8,5.1,6.4,5C120.8,367.1,130.4,367.2,140,367.2z"/>
		<path class="st2" d="M362.4,83c0-5.1,0-10,0-15.2c10.4,0,20.7,0,31.4,0c0,5,0,9.9,0,15.2C383.5,83,373.1,83,362.4,83z"/>
		<path class="st2" d="M434.2,67.8c0,5.1,0,10.1,0,15.3c-9.8,0-19.4,0-29.3,0c0-5,0-10,0-15.3C414.6,67.8,424.3,67.8,434.2,67.8z"/>
		<path class="st2" d="M161.8,141.8c24.8,0,48.8,0,73.4,0c-11.4,25-22.6,49.6-34.2,75C187.9,191.6,175,167,161.8,141.8z"/>
		<path class="st2" d="M362.4,173.2c0-4.7,0-9,0-13.6c23.4,0,46.7,0,70.2,0c0,4.5,0,9,0,13.6C409.2,173.2,386,173.2,362.4,173.2z"/>
		<path class="st0" d="M432.6,134.7c0,4.5,0,8.9,0,13.5c-23.3,0-46.6,0-70.1,0c0-4.4,0-8.9,0-13.5
			C385.7,134.7,409,134.7,432.6,134.7z"/>
		<path class="st0" d="M432.6,184.3c0,4.5,0,9,0,13.6c-23.4,0-46.6,0-70.1,0c0-4.4,0-8.9,0-13.6
			C385.8,184.3,409.1,184.3,432.6,184.3z"/>
		<path class="st2" d="M274.3,458.7c0-24.1,0-47.8,0-71.8c15.1,0,30,0,45.2,0c0,23.8,0,47.7,0,71.8
			C304.6,458.7,289.6,458.7,274.3,458.7z"/>
		<path class="st1" d="M140,367.2c-9.6,0-19.2-0.1-28.8,0c-3.7,0-6.1-1.2-6.4-5c-0.3-3.3,2.3-5.4,6.5-5.4c19.2,0,38.4,0,57.6,0
			c4.3,0,6.6,2,6.4,5.5c-0.3,4-2.9,5-6.5,4.9C159.2,367.1,149.6,367.2,140,367.2z"/>
	</g>
</g>
<g id="レイヤー_2">
</g>
</svg>
