<?xml version="1.0" encoding="utf-8"?>
<!-- Generator: Adobe Illustrator 23.0.6, SVG Export Plug-In . SVG Version: 6.00 Build 0)  -->
<svg version="1.1" id="レイヤー_1" xmlns="http://www.w3.org/2000/svg" xmlns:xlink="http://www.w3.org/1999/xlink" x="0px"
	 y="0px" viewBox="0 0 335 362" style="enable-background:new 0 0 335 362;" xml:space="preserve">
<style type="text/css">
	.st0{fill:#FFF000;stroke:#000000;stroke-width:15;stroke-linecap:round;stroke-linejoin:round;stroke-miterlimit:10;}
	.st1{fill:none;stroke:#000000;stroke-width:15;stroke-linecap:round;stroke-linejoin:round;stroke-miterlimit:10;}
</style>
<rect x="48.5" y="81.5" class="st0" width="239" height="273"/>
<polygon class="st0" points="327.5,84.5 7.5,84.5 78.5,7.5 257.5,7.5 "/>
<rect x="95.5" y="131.5" class="st0" width="144" height="24"/>
<line class="st1" x1="113.5" y1="247.5" x2="217.5" y2="247.5"/>
<line class="st1" x1="113.5" y1="280.5" x2="217.5" y2="280.5"/>
<line class="st1" x1="113.5" y1="313.5" x2="217.5" y2="313.5"/>
<g>
	<g>
		<path d="M110.6,187.6h10.5c6.2,0,11.6,2.3,11.6,9.5c0,7-5.5,10-11.4,10h-3.1v9.1h-7.6V187.6z M120.9,201.2c3,0,4.4-1.5,4.4-4
			s-1.7-3.5-4.6-3.5h-2.6v7.6H120.9z"/>
		<path d="M138.3,201.8c0-9.4,5.4-14.7,13.3-14.7c7.9,0,13.3,5.3,13.3,14.7c0,9.4-5.4,15-13.3,15
			C143.7,216.8,138.3,211.2,138.3,201.8z M157.2,201.8c0-5.2-2.1-8.2-5.5-8.2s-5.5,3-5.5,8.2c0,5.2,2.1,8.4,5.5,8.4
			S157.2,207,157.2,201.8z"/>
		<path d="M170.5,212.7l4.3-5.2c2,1.6,4.6,2.8,6.7,2.8c2.3,0,3.3-0.7,3.3-2c0-1.4-1.5-1.8-3.9-2.8l-3.6-1.5c-3.1-1.2-5.8-3.8-5.8-8
			c0-4.9,4.4-8.9,10.7-8.9c3.3,0,6.9,1.2,9.5,3.8l-3.8,4.8c-1.9-1.4-3.6-2.1-5.7-2.1c-1.8,0-3,0.7-3,1.9c0,1.4,1.6,1.8,4.2,2.9
			l3.5,1.4c3.6,1.4,5.6,3.9,5.6,7.8c0,4.8-4,9.2-11.2,9.2C177.7,216.8,173.5,215.4,170.5,212.7z"/>
		<path d="M204.7,194h-7.6v-6.3h22.7v6.3h-7.6v22.3h-7.6V194z"/>
	</g>
</g>
</svg>
