<?xml version="1.0" encoding="utf-8"?>
<!-- Generator: Adobe Illustrator 23.0.6, SVG Export Plug-In . SVG Version: 6.00 Build 0)  -->
<svg version="1.1" id="レイヤー_1" xmlns="http://www.w3.org/2000/svg" xmlns:xlink="http://www.w3.org/1999/xlink" x="0px"
	 y="0px" viewBox="0 0 400 400" style="enable-background:new 0 0 400 400;" xml:space="preserve">
<style type="text/css">
	.st0{fill:#FFF000;stroke:#000000;stroke-width:15;stroke-linecap:round;stroke-linejoin:round;stroke-miterlimit:10;}
	.st1{display:none;fill:none;stroke:#000000;stroke-width:15;stroke-linecap:round;stroke-linejoin:round;stroke-miterlimit:10;}
	.st2{fill:none;stroke:#000000;stroke-width:15;stroke-linecap:round;stroke-linejoin:round;stroke-miterlimit:10;}
</style>
<polygon class="st0" points="320.2,328 320.2,393.5 6.5,393.5 6.5,8.5 393,8.5 393,328 "/>
<line class="st1" x1="402.2" y1="319.2" x2="318.8" y2="402.8"/>
<line class="st2" x1="68.5" y1="92.5" x2="88.5" y2="112.5"/>
<line class="st2" x1="89.5" y1="113.5" x2="118.5" y2="84.5"/>
<line class="st2" x1="166.5" y1="84.5" x2="322.5" y2="84.5"/>
<line class="st2" x1="166.5" y1="115.5" x2="322.5" y2="115.5"/>
<line class="st2" x1="68.3" y1="188.5" x2="88.3" y2="208.5"/>
<line class="st2" x1="88.4" y1="208.4" x2="117.4" y2="179.4"/>
<line class="st2" x1="165.5" y1="178.9" x2="321.5" y2="178.9"/>
<line class="st2" x1="165.5" y1="208.9" x2="321.5" y2="208.9"/>
<line class="st2" x1="70.3" y1="286.1" x2="90.3" y2="306.1"/>
<line class="st2" x1="90.8" y1="306.6" x2="119.8" y2="277.6"/>
<line class="st2" x1="165.3" y1="276.1" x2="321.3" y2="276.1"/>
<line class="st2" x1="165.3" y1="306.1" x2="321.3" y2="306.1"/>
<polygon class="st0" points="320.5,330.5 320.5,393.5 392.5,330.5 "/>
</svg>
