<?xml version="1.0" encoding="utf-8"?>
<!-- Generator: Adobe Illustrator 16.0.0, SVG Export Plug-In . SVG Version: 6.00 Build 0)  -->
<!DOCTYPE svg PUBLIC "-//W3C//DTD SVG 1.1//EN" "http://www.w3.org/Graphics/SVG/1.1/DTD/svg11.dtd">
<svg version="1.1" id="Layer_1" xmlns="http://www.w3.org/2000/svg" xmlns:xlink="http://www.w3.org/1999/xlink" x="0px" y="0px"
	 width="128px" height="128px" viewBox="0 0 128 128" enable-background="new 0 0 128 128" xml:space="preserve">
<g>
	<g>
		<g>
			<path fill="#222" stroke-width="5" d="M64.001,111.767l-1.662-2.483c-1.446-2.161-35.421-53.152-35.421-72.663C26.918,16.428,43.553,0,64.001,0
				c20.447,0,37.083,16.428,37.083,36.62c0,19.511-33.975,70.502-35.421,72.663L64.001,111.767z M64.001,4
				C45.759,4,30.918,18.633,30.918,36.62c0,15.963,26.159,57.258,33.083,67.906c6.924-10.648,33.083-51.943,33.083-67.906
				C97.084,18.633,82.243,4,64.001,4z"/>
		</g>
		<g>
			<path fill="#222" stroke-width="5" d="M64.001,52.469c-8.841,0-16.033-7.11-16.033-15.849c0-8.738,7.192-15.847,16.033-15.847
				c8.84,0,16.032,7.109,16.032,15.847C80.033,45.359,72.841,52.469,64.001,52.469z M64.001,24.773
				c-6.636,0-12.033,5.314-12.033,11.847c0,6.533,5.397,11.849,12.033,11.849c6.635,0,12.032-5.315,12.032-11.849
				C76.033,30.087,70.636,24.773,64.001,24.773z"/>
		</g>
	</g>
	<g>
		<path fill="#222" stroke-width="5" d="M64.001,128c-26.236,0-46.022-7.892-46.023-18.357c0-7.47,9.914-13.711,26.521-16.697l0.708,3.938
			c-13.894,2.498-23.229,7.626-23.229,12.76C21.979,116.434,39.237,124,64.001,124s42.021-7.565,42.021-14.355
			c0-5.136-9.334-10.265-23.227-12.761l0.707-3.938c16.605,2.984,26.52,9.227,26.52,16.698C110.022,120.108,90.237,128,64.001,128z"
			/>
	</g>
</g>
</svg>
